<?xml version="1.0" standalone="no"?><!DOCTYPE svg PUBLIC "-//W3C//DTD SVG 1.1//EN" "http://www.w3.org/Graphics/SVG/1.1/DTD/svg11.dtd"><svg id="chart" width="960" height="500" class="dorlingCart" data-type="dorlingCart" version="1.1" xmlns:xlink="http://www.w3.org/1999/xlink" xmlns="http://www.w3.org/2000/svg"><defs class="svg-crowbar"><style type="text/css"><![CDATA[.feature{ fill: #fcfcfc; stroke: #000000; stroke-width: 0.2px; cursor: pointer; }]]></style></defs>
<g><g transform="translate(-2153.13525390625,-434.5810546875)scale(4,4)">
<path class="feature" data-q="ARUNACHAL PRADESH" d="M620.6347742544922,189.8323825103746L620.7637869453613,189.68274488711018L620.8927996362302,189.73262543540682L620.8927996362302,189.68274488711018L620.8927996362302,189.58297976783143L620.8067911756511,189.4832092835607L620.7637869453613,189.43332202902343L620.677778484782,189.23375958991937L620.7207827150714,189.08407366265163L620.7637869453613,188.93437564507553L620.8067911756511,188.73475947126008L620.677778484782,188.5850332206844L620.5917700242023,188.43529486070105L620.4627573333335,188.2855443855754L620.376748872754,188.18570400202407L620.2477361818846,188.0359333222462L620.1617277213054,187.93607946361294L620.0757192607264,187.7862885632394L619.9897108001467,187.68642121889349L619.8176938789882,187.53661008197219L619.6886811881188,187.38678679546268L619.5596684972497,187.2868978518456L619.5166642669603,187.1370543032457L619.5166642669603,186.93724398090507L619.5166642669603,186.68745064489508L619.4306558063806,186.48759161298892L619.3876515760912,186.3376831182917L619.4306558063806,186.03782953624165L619.4736600366705,185.68793863995614L619.5596684972497,185.33798120915748L619.6456769578292,185.23798114089738L619.7316854184087,185.0379646853989L619.8606981092776,184.78791350028087L619.9467065698573,184.637866450533L620.0327150304363,184.48780713970717L620.1617277213054,184.33773556201538L620.0757192607264,184.18765171166882L619.9467065698573,184.08758899043625L619.8606981092776,183.93748467279408L619.8606981092776,183.8874471698432L619.8606981092776,183.78736806704916L619.9897108001467,183.7373264667757L620.1617277213054,183.6872835002992L620.2477361818846,183.7373264667757L620.4197531030436,183.83740830133337L620.677778484782,183.93748467279408L620.9788080968099,183.98752081040004L621.107820787679,183.93748467279408L621.1508250179686,183.78736806704916L621.107820787679,183.63723916740406L621.0218123270993,183.63723916740406L620.8497954059408,183.53714640149985L620.7637869453613,183.43704816734333L620.7207827150714,183.33694446321675L620.5917700242023,183.23683528740025L620.4197531030436,183.1367206381742L620.3337446424644,183.0866612604941L620.2047319515952,182.9865383979274L620.0327150304363,182.88641005764896L619.9037023395672,182.786276237938L619.7746896486983,182.6861369370721L619.6886811881188,182.58599215332998L619.6456769578292,182.18535815513877L619.6456769578292,181.88482500184693L619.6456769578292,181.6343429198185L619.6026727275396,181.48403716937736L619.4306558063806,181.33371903589568L619.2586388852219,181.13327558533325L619.2156346549325,180.9328100962852L619.1726304246426,180.7323225549174L619.0006135034837,180.53181294739187L618.8716008126148,180.5819424187323L618.5275669702971,180.5819424187323L618.398554279428,180.53181294739187L618.3125458188483,180.48168209605126L618.1835331279794,180.43154986449343L618.0115162068209,180.43154986449343L617.839499285662,180.48168209605126L617.6244781342134,180.5819424187323L617.3234485221856,180.63207051028922L617.1084273707372,180.68219722227917L616.8934062192886,180.7323225549174L616.7643935284198,180.63207051028922L616.5923766072608,180.53181294739187L616.3773554558124,180.48168209605126L616.1623343043639,180.48168209605126L615.9473131529153,180.53181294739187L615.7322920014669,180.68219722227917L615.5172708500183,180.7323225549174L615.30224969857,180.7824465084206L615.1732370077011,180.7824465084206L615.044224316832,180.7824465084206L614.9152116259629,180.7323225549174L614.7861989350936,180.5819424187323L614.7861989350936,180.28114488635703L614.6571862442245,180.23100713176916L614.5281735533554,180.23100713176916L614.4421650927761,180.28114488635703L614.2701481716172,180.28114488635703L614.1841397110379,180.28114488635703L614.0551270201688,180.23100713176916L613.7110931778514,180.0304422982607L613.6250847172719,179.93015158938096L613.5820804869825,179.82985535010658L613.4960720264028,179.7295535787033L613.3670593355337,179.57909054506484L613.3670593355337,179.4286150543807L613.1520381840851,179.37845378824125L613.1090339537957,179.32829113711847L612.9800212629264,179.17779487167593L612.9800212629264,179.0774570991495L612.9370170326367,178.977113781478L612.8510085720573,178.82658840402456L612.8080043417674,178.77641050375166L612.765000111478,178.62586847652858L612.765000111478,178.42512633716944L612.8510085720573,178.12397145044753L612.8510085720573,177.97337523940274L612.8940128023471,177.82276650873484L612.8510085720573,177.57172412026597L612.8510085720573,177.37086514018534L612.9370170326367,177.22020627221036L613.023025493216,176.91885088325182L613.0660297235058,176.86862010160144L613.1950424143749,176.7681543504869L613.324055105244,176.617445251008L613.3670593355337,176.4667235789185L613.4100635658231,176.2657417818778L613.5390762566922,176.01448306799972L613.5820804869825,175.9139697869233L613.5820804869825,175.61239633628895L613.5820804869825,175.4615906959732L613.5820804869825,175.36104659285968L613.6680889475615,175.15994155578232L613.6680889475615,175.00909804407763L613.6250847172719,174.8079537053577L613.5820804869825,174.65708070130648L613.3670593355337,174.50619504780735L613.2380466446648,174.50619504780735L613.1520381840851,174.3049944893154L613.1950424143749,174.10377141833033L613.2380466446648,174.00315143626034L613.4100635658231,174.00315143626034L613.5390762566922,174.00315143626034L613.8401058687205,174.00315143626034L613.9691185595896,173.95283933281218L614.1841397110379,173.90252582079523L614.3561566321966,173.95283933281218L614.4851693230657,174.00315143626034L614.5711777836452,174.15407929739206L614.7001904745143,174.35529673893535L614.9582158562523,174.55649167150057L615.044224316832,174.70737310785813L615.1732370077011,174.8079537053577L615.2592454682801,174.90852868351232L615.4742666197287,174.95881406588404L615.7322920014669,174.85824189674292L616.0333216134948,174.85824189674292L616.2053385346537,174.8079537053577L616.3343512255226,174.8079537053577L616.5063681466816,174.90852868351232L616.6783850678403,174.95881406588404L616.8504019889988,175.10966178880756L616.9364104495783,175.15994155578232L617.0654231404474,175.2604968800468L617.1084273707372,175.51186064443993L617.1944358313165,175.7631893646361L617.2804442918957,175.9139697869233L617.409456982765,176.01448306799972L617.4954654433445,176.06473760905908L617.7104865947929,176.11499075075818L617.9685119765311,176.2154928369493L618.14052889769,176.2154928369493L618.398554279428,176.06473760905908L618.6135754308766,175.8637110464698L619.0006135034837,175.71292642281912L619.3016431155115,175.56212919113887L619.8176938789882,175.2604968800468L619.9897108001467,175.21021991945526L620.1617277213054,175.10966178880756L620.4197531030436,174.95881406588404L620.7637869453613,174.70737310785813L620.8927996362302,174.60678688926032L621.107820787679,174.4558970179623L621.2798377088377,174.35529673893535L621.4518546299967,174.3049944893154L621.752884242024,174.05346213136005L622.1829265449214,173.75157683113378L622.3979476963698,173.6509371244859L622.4839561569488,173.6006151564402L622.6559730781078,173.55029177828658L622.8279899992665,173.55029177828658L623.0000069204254,173.55029177828658L623.0860153810049,173.6509371244859L623.1720238415842,173.8522108999892L623.215028071874,174.05346213136005L623.2580323021639,174.15407929739206L623.3010365324533,174.3049944893154L623.473053453612,174.40559758174498L623.5590619141913,174.4558970179623L623.6880746050604,174.70737310785813L623.6880746050604,174.7576641091353L623.8600915262193,174.85824189674292L623.9891042170887,174.85824189674292L624.2901338291165,174.90852868351232L624.5481592108545,174.85824189674292L624.7201761320134,174.60678688926032L624.7631803623033,174.55649167150057L624.9351972834618,174.40559758174498L625.1072142046205,174.40559758174498L625.3652395863587,174.50619504780735L625.5802607378073,174.4558970179623L625.8382861195453,174.3049944893154L626.182319961863,174.10377141833033L626.3543368830219,173.95283933281218L626.5693580344703,173.8018945701756L626.8273834162085,173.95283933281218L626.7843791859186,174.10377141833033L626.7843791859186,174.20438576876285L626.9133918767877,174.25469083266444L627.0854087979467,174.15407929739206L627.6874680220023,173.4999669898051L627.9024891734507,173.24832188478047L628.0745060946094,173.09731788374665L628.2465230157684,172.99664148854674L628.4185399369271,172.89595944234924L628.6765653186653,172.74492577357722L628.8915864701139,172.64422959217313L629.1066076215623,172.5435277536011L629.3216287730108,172.1910267429269L629.5796541547488,171.78808346394436L629.6656626153285,171.58657779846374L629.6656626153285,171.33466378907588L629.5796541547488,171.13310702228927L629.3646330033002,170.98192452833166L629.1496118518519,170.8811290914831L629.020599160983,170.72992527046983L628.9345907004033,170.62911561005023L628.8915864701139,170.42747920984868L628.9775949306932,170.22582002534597L629.0636033912726,170.07456067623644L629.1926160821417,169.87286158505998L629.278624542721,169.72157228964028L629.4506414638797,169.51983324830093L629.5796541547488,169.4189551604435L629.7946753061974,169.21718184146414L630.009696457646,169.11628660678713L630.3967345302533,168.96493303078506L630.4827429908325,168.914478978165L630.6117556817017,168.61172461037347L630.7837726028604,168.46032809727274L630.9127852937295,168.4098597278359L631.0417979845984,168.4098597278359L631.1278064451781,168.56126053831957L631.1278064451781,168.7631082353348L631.2568191360472,168.86402349486542L631.385831826916,168.914478978165L631.5148445177851,168.813566580663L631.8158741298132,168.71264845865892L632.2459164327099,168.46032809727274L632.546946044738,167.804127464188L632.6759587356073,167.60217079007822L632.7619671961863,167.45068820230824L632.9769883476349,167.34969262511936L633.1490052687936,167.29919268025213L633.4500348808215,167.34969262511936L633.6220518019802,167.55167803092513L633.7940687231392,167.75364044958945L634.0520941048771,167.75364044958945L634.267115256326,167.60217079007822L634.3101194866153,167.45068820230824L634.2241110260361,167.14768421788227L634.2241110260361,166.84462844807564L634.1811067957462,166.69308112857146L634.353123716905,166.59204238013547L634.5681448683538,166.64256247471207L634.8261702500918,166.64256247471207L635.1271998621198,166.59204238013547L635.6002463953064,166.5415208446168L636.0732929284927,166.4909978679325L636.4173267708104,166.38994759017288L636.7183563828385,166.33942028864953L636.8903733039972,166.23836135919748L637.0193859948661,166.18782973082085L637.0623902251559,165.9856887877529L637.191402916025,165.6318865490735L637.1483986857352,165.42968205185446L637.1483986857352,165.1768938915311L637.0193859948661,164.97463731472965L636.7613606131281,164.77235756810234L636.632347922259,164.57005463727222L636.8473690737078,164.26655673918327L636.9763817645767,164.16537916546582L637.1053944554458,164.01360191649707L637.4494282977632,163.65940415822007L637.621445218922,163.45697345698892L637.8364663703705,163.1532837547225L637.9224748309498,163.001419247711L638.0514875218189,162.84954162865893L638.1374959823984,162.64701772955L638.1805002126882,162.4444704948632L638.2665086732675,162.1406058569986L638.3525171338467,161.9380002201027L638.4815298247158,161.6340479110914L638.5675382852953,161.4820520091967L638.6535467458746,161.33004293422493L638.6965509761644,161.17802068006L638.7825594367437,161.02598524058385L638.9545763579024,161.02598524058385L639.0835890487715,161.02598524058385L639.2556059699302,161.07666518582147L639.3416144305099,161.07666518582147L639.5566355819583,161.12734366557152L639.7716567334069,161.07666518582147L639.9436736545656,161.02598524058385L640.0296821151451,160.87393660967518L640.1156905757241,160.72187478121242L640.4167201877524,160.6204928939045L640.5027286483316,160.6204928939045L640.5887371089109,160.6204928939045L640.6317413392007,160.67118457120995L640.71774979978,160.77256352413974L640.8037582603595,160.77256352413974L640.889766720939,160.67118457120995L640.9757751815182,160.56979974906972L641.0187794118078,160.5191051364784L641.1907963329668,160.5191051364784L641.4058174844154,160.6204928939045L641.4488217147048,160.72187478121242L641.620838635864,160.82325080021826L641.8788640176019,160.87393660967518L642.1368893993401,160.82325080021826L642.3519105507887,160.87393660967518L642.6529401628163,160.92462095273748L642.8679613142649,160.92462095273748L643.0399782354236,160.87393660967518L643.2119951565826,160.87393660967518L643.4270163080307,160.82325080021826L643.5560289988998,160.72187478121242L643.8140543806383,160.6204928939045L643.9430670715074,160.56979974906972L644.2010924532453,160.56979974906972L644.4591178349835,160.46840905590454L644.7601474470114,160.4177115071198L644.9321643681703,160.4177115071198L645.0611770590397,160.46840905590454L645.1471855196187,160.5191051364784L645.1901897499083,160.56979974906972L645.2761982104878,160.6204928939045L645.362206671067,160.67118457120995L645.4482151316467,160.67118457120995L645.534223592226,160.72187478121242L645.6202320528055,160.72187478121242L645.8352532042538,160.6204928939045L645.9642658951229,160.46840905590454L646.0502743557024,160.4177115071198L646.2222912768609,160.31631200401102L646.4373124283097,160.16420173209343L646.6093293494682,160.16420173209343L646.7813462706272,160.21490662533603L646.9103589614963,160.36701248989772L646.9533631917857,160.46840905590454L647.1253801129446,160.56979974906972L647.3834054946831,160.6204928939045L647.5554224158418,160.56979974906972L647.8134477975798,160.46840905590454L647.9424604884489,160.31631200401102L648.0284689490286,160.16420173209343L648.0284689490286,160.01207823401796L648.0284689490286,159.65707193564714L648.071473179318,159.4034518573909L648.071473179318,159.25126213644677L648.243490100477,159.14979495452627L648.5015154822149,159.04832187611544L648.5875239427944,158.99758312515598L648.6735324033737,158.94684289939062L648.6735324033737,158.8453580225305L648.6735324033737,158.7438672437106L648.5445197125046,158.59162000531677L648.4585112519251,158.4393594772539L648.5015154822149,158.236324756373L648.630528173084,158.13479852748304L648.6735324033737,157.9824980934493L648.6735324033737,157.7794101358415L648.7595408639534,157.62707862546745L648.8885535548222,157.5762984937101L649.0605704759812,157.4747337863775L649.2325873971397,157.32237561239782L649.8776508514852,156.7128094440351L650.5227143058307,156.15385260236098L650.60872276641,156.0522047557077L650.7807396875689,155.89972182463634L650.8667481481482,155.74722549474694L650.9527566087277,155.54387620157246L651.0817692995968,155.18795755060285L651.167777760176,155.0353986108836L651.2967904510454,154.67937549754186L651.4258031419145,154.4250284500593L651.5548158327836,154.1197626414433L651.7268327539423,153.91622216923366L652.1568750568392,153.61086652431965L652.4149004385772,153.40726611510382L652.4579046688671,153.35636226327398L652.5439131294463,153.20364170522828L652.6729258203154,153.05090763849444L652.7589342808949,152.94907741943007L652.8449427414741,152.84724119188087L652.9739554323432,152.69447558060057L653.1889765837918,152.69447558060057L653.4470019655298,152.69447558060057L653.6620231169786,152.59262432374356L653.8340400381371,152.4398361598258L653.9200484987166,152.2360975447636L654.0060569592961,152.08327777798263L654.135069650165,151.87949700306922L654.2640823410343,151.77759757463832L654.3500908016135,151.62473712555618L654.6941246439312,151.47186310318529L654.9091457953796,151.42090207835844L654.9521500256694,151.47186310318529L655.2961838679869,151.47186310318529L655.5542092497251,151.47186310318529L655.7262261708838,151.47186310318529L656.0272557829117,151.47186310318529L656.1992727040706,151.47186310318529L656.7583276978364,151.42090207835844L656.8873403887055,151.2680099485225L657.0163530795746,151.0641326375724L657.1883700007336,150.7582713455913L657.3173826916027,150.50334535522404L657.4463953824716,150.29937732575047L657.6184123036303,150.19738422683542L657.70442076421,150.04438321800149L657.7474249944994,149.84036065691555L657.7904292247892,149.63631383533544L657.962446145948,149.4832627892273L658.2204715276862,149.4832627892273L658.4354926791348,149.68732781596725L658.5645053700039,149.84036065691555L658.7795265214522,149.99337985133553L659.0805561334801,150.19738422683542L659.1665645940595,150.35037160381484L659.4245899757977,150.55433357887574L659.6396111272463,150.70728917263034L659.9406407392742,151.1151042307746L660.1556618907225,151.42090207835844L660.2846745815914,151.72664559936732L660.3706830421711,151.98139040356637L660.3706830421711,152.13421920599052L660.4996957330402,152.38890376329203L660.6287084239091,152.49076705192476L660.8867338056473,152.49076705192476L661.1017549570959,152.4398361598258L661.4027845691237,152.4398361598258L661.6608099508617,152.49076705192476L661.9188353325999,152.59262432374356L662.2628691749176,152.69447558060057L662.5208945566558,152.7453989539967L662.6929114778145,152.79632082434608L662.9079326292631,152.89816005683178L663.0369453201322,152.99999327990713L663.1659580110013,152.99999327990713L663.33797493216,153.05090763849444L663.4239833927395,152.99999327990713L663.4669876230291,152.84724119188087L663.2949707018704,152.69447558060057L663.079949550422,152.54169643982056L662.9509368595527,152.38890376329203L662.9939410898423,152.2360975447636L663.1229537807114,152.18515912817395L663.3809791624494,152.3379698620911L663.5529960836084,152.4398361598258L663.7250130047671,152.54169643982056L663.9400341562157,152.59262432374356L664.1550553076643,152.64355070392656L664.2840679985331,152.69447558060057L664.4990891499817,152.7453989539967L664.6711060711407,152.89816005683178L664.8001187620098,153.05090763849444L664.9721356831683,153.20364170522828L665.1441526043275,153.25455005856753L665.3591737557756,153.30545691117248L665.5741949072242,153.35636226327398L665.8322202889622,153.40726611510382L666.0902456707004,153.45816846689195L666.2192583615695,153.45816846689195L666.305266822149,153.45816846689195L666.9073260462046,153.50906931886965L667.0363387370737,153.61086652431965L667.0793429673636,153.81444294765504L667.0363387370737,153.91622216923366L666.9933345067841,154.1197626414433L667.0363387370737,154.32327916468824L667.1653514279428,154.4250284500593L667.3373683491018,154.4250284500593L667.4663810399709,154.32327916468824L667.6814021914192,154.27240227828554L667.8104148822883,154.22152389576422L668.1114444943164,154.32327916468824L668.1974529548957,154.47590084948888L668.2834614154747,154.52677175372156L668.5414867972131,154.57764116298767L669.2295544818483,154.73024042329L669.4875798635862,154.73024042329L669.8316137059039,154.67937549754186L670.0036306270626,154.57764116298767L670.218651778511,154.47590084948888L670.39066869967,154.32327916468824L670.4766771602494,154.1197626414433L670.5196813905393,153.91622216923366L670.5626856208287,153.66176287825215L670.5196813905393,153.40726611510382L670.5196813905393,153.10182049542328L670.6056898511185,152.99999327990713L670.7777067722775,152.99999327990713L670.9067194631464,152.99999327990713L671.121740614595,152.99999327990713L671.4227702266226,152.84724119188087L671.4227702266226,152.64355070392656L671.4227702266226,152.4398361598258L671.3367617660433,152.18515912817395L670.9927279237256,151.87949700306922L671.0357321540155,151.77759757463832L671.0787363843051,151.62473712555618L671.1647448448846,151.47186310318529L671.5087786872023,151.5737806265518L671.5517829174919,151.62473712555618L671.680795608361,151.62473712555618L671.8098082992299,151.52282261917242L671.8958167598093,151.42090207835844L672.0248294506787,151.21704288601694L672.0678336809681,151.01315953367305L672.1108379112579,150.86023115547067L672.239850602127,150.91120879285472L672.4118675232858,151.01315953367305L672.669892905024,151.0641326375724L672.8419098261827,151.0641326375724L673.0999352079209,151.01315953367305L673.6589902016867,150.40136436792653L674.0030240440044,150.29937732575047L674.218045195453,150.19738422683542L674.3040536560322,149.99337985133553L674.4330663469013,149.89136857102574L674.5190748074808,149.63631383533544L674.8201044195089,149.4832627892273L675.035125570957,149.4832627892273L675.4221636435645,149.33019808190465L675.5941805647233,149.2791734758835L675.8092017161716,149.17711970707035L676.0242228676202,149.02402765842214L676.2392440190686,148.9219586929811L676.5402736310966,148.81988364562108L676.7122905522551,148.81988364562108L677.1423328551523,148.9219586929811L677.4003582368903,148.7688438406372L677.5723751580492,148.66675966689394L677.7013878489181,148.56466940655855L677.744392079208,148.46257305776152L678.2604428426846,148.41152259960552L678.5184682244226,148.36047061863252L678.6904851455813,148.15624746189638L678.7764936061606,148.10518786333125L678.9485105273195,147.95199992137748L679.1205274484782,147.7987982551212L679.3785528302164,147.64558285823938L679.593573981665,147.64558285823938L679.8515993634032,147.7987982551212L679.9376078239827,147.9009342245264L680.0666205148518,148.10518786333125L680.2816416663,148.30941711460946L680.4536585874589,148.51362199333403L680.6686797389075,148.66675966689394L680.7976924297766,148.87092192965804L680.8837008903558,149.1260905438108L680.9267051206457,149.33019808190465L680.9697093509353,149.58529833748946L681.0987220418044,149.84036065691555L681.0987220418044,150.04438321800149L681.2277347326735,150.29937732575047L681.3567474235424,150.6053202895057L681.5717685749912,150.86023115547067L681.6577770355705,151.1151042307746L681.7437854961495,151.31897550125956L681.9158024173084,151.52282261917242L682.0878193384672,151.5737806265518L682.3888489504952,151.62473712555618L682.6898785625231,151.5737806265518L682.9048997139716,151.42090207835844L683.0769166351301,151.166074313512L683.2489335562891,151.166074313512L683.3779462471584,151.01315953367305L683.5929673986066,150.86023115547067L683.6789758591858,150.70728917263034L683.7649843197655,150.65630548734606L683.8939970106346,150.6053202895057L684.0660139317933,150.70728917263034L684.1520223923726,150.9621849188448L684.1090181620832,151.21704288601694L684.0660139317933,151.47186310318529L683.9800054712139,151.67569211641745L683.8509927803448,151.98139040356637L683.8079885500549,152.18515912817395L683.7219800894757,152.38890376329203L683.5069589380275,152.59262432374356L683.1629250957099,152.69447558060057L682.8618954836818,152.64355070392656L682.560865871654,152.69447558060057L682.2598362596261,152.7453989539967L682.0018108778879,152.7453989539967L681.7437854961495,152.84724119188087L681.5287643447014,152.99999327990713L681.2707389629632,153.50906931886965L681.1417262720938,153.61086652431965L680.9267051206457,153.76355108968943L680.7116839691969,153.86533330742606L680.3246458965898,153.91622216923366L680.2386374360105,154.01799539988139L680.1096247451412,154.06887976918284L680.1096247451412,154.22152389576422L680.2816416663,154.3741545552026L680.410654357169,154.52677175372156L680.582671278328,154.78110385499275L680.6686797389075,154.9336851881314L680.7546881994867,155.18795755060285L680.7546881994867,155.39134858365873L680.7976924297766,155.59471575983935L680.7116839691969,156.0522047557077L680.5396670480382,156.25549449857436L680.4536585874589,156.3571304461829L680.4966628177485,156.50957321797495L680.582671278328,156.6620026157243L680.6686797389075,156.81441864561992L680.7546881994867,156.8652210193532L680.8837008903558,156.91602190868645L681.0557178115146,156.91602190868645L681.1847305023837,156.81441864561992L681.3997516538323,156.6620026157243L681.6147728052806,156.50957321797495L681.8727981870186,156.20467429415794L682.1738277990469,155.79805909385L682.3888489504952,155.49303515293957L682.8188912533922,155.23880754625333L683.1629250957099,155.0353986108836L683.5929673986066,154.98454264595472L683.8939970106346,154.9336851881314L684.2810350832417,154.9336851881314L684.6250689255594,154.88282623718294L684.9691027678771,154.73024042329L685.2701323799047,154.6285090775175L685.4851535313533,154.47590084948888L685.7431789130915,154.32327916468824L685.8721916039606,154.3741545552026L686.0012042948297,154.3741545552026L685.9582000645398,154.6285090775175L685.7431789130915,154.88282623718294L685.657170452512,155.0353986108836L685.4851535313533,155.23880754625333L685.3561408404842,155.49303515293957L685.2701323799047,155.64555382797107L685.1841239193252,155.8488912037368L685.1411196890358,156.10302942295414L685.1841239193252,156.30631321583928L685.227128149615,156.3571304461829L685.4421493010636,156.30631321583928L685.5711619919327,156.15385260236098L685.7861831433811,156.25549449857436L685.91519583425,156.3571304461829L685.9582000645398,156.61119430209732L685.9582000645398,156.8652210193532L686.0012042948297,157.11921062658962L685.9582000645398,157.37316315242663L686.0442085251191,157.72863444630417L686.7322762097544,158.64237056110716L686.9903015914924,159.09905915249652L686.947297361203,159.3019935167917L686.9042931309132,159.5556283214766L686.7752804400438,159.75850966243127L686.7322762097544,159.91065521773896L686.6462677491747,160.06278753666135L686.5602592885957,160.16420173209343L686.3882423674368,160.31631200401102L686.1732212159884,160.4177115071198L685.91519583425,160.5191051364784L685.829187373671,160.56979974906972L685.657170452512,160.72187478121242L685.4421493010636,160.92462095273748L685.3131366101943,161.02598524058385L685.2701323799047,161.22869622951367L685.227128149615,161.53271877320168L685.0981154587462,161.7860306460227L684.9691027678771,161.9380002201027L684.840090077008,161.98865382121846L684.6250689255594,162.1406058569986L684.4530520044004,162.34318812216094L684.2380308529523,162.49510949203574L683.9800054712139,162.5963831091529L683.6789758591858,162.74828259514845L683.4209504774478,162.84954162865893L683.2489335562891,162.84954162865893L683.1629250957099,162.90016895894576L683.0769166351301,163.05204220664075L683.0769166351301,163.20390234432602L683.0769166351301,163.45697345698892L683.0769166351301,163.55819171643026L683.11992086542,163.7100081980587L683.2489335562891,163.86181159605354L683.2489335562891,163.96300659570187L683.0769166351301,164.11478820115343L682.6898785625231,164.62063254428563L682.6038701019434,164.62063254428563L682.4748574110747,164.67120900161143L682.3888489504952,164.82292967771627L682.2598362596261,164.92406955080548L682.0878193384672,165.02520363053986L681.9588066475981,165.07576849845998L681.8297939567292,165.1768938915311L681.7867897264396,165.27801349573724L681.9588066475981,165.32857112757762L682.2598362596261,165.32857112757762L682.4318531807849,165.37912731287577L682.5178616413643,165.53078719175528L682.6468743322332,165.58133759312528L682.8618954836818,165.6318865490735L683.11992086542,165.6318865490735L683.2489335562891,165.78352474663484L683.3779462471584,165.88460965534642L683.6359716288964,166.13729665971204L683.7219800894757,166.18782973082085L683.9370012409242,166.28889154506595L684.0660139317933,166.23836135919748L684.1090181620832,166.08676214564753L684.1090181620832,165.88460965534642L684.1090181620832,165.6318865490735L684.2810350832417,165.37912731287577L684.410047774111,165.22745441713005L684.668073155849,165.07576849845998L684.7970858467181,165.07576849845998L685.0981154587462,165.1768938915311L685.657170452512,165.126331918716L685.9582000645398,164.97463731472965L686.216225446278,164.77235756810234L686.5172550583059,164.57005463727222L686.7752804400438,164.5194752803481L687.0333058217823,164.5194752803481L687.2053227429412,164.5194752803481L687.5063523549688,164.57005463727222L687.936394657866,164.7217840094752L688.2374242698936,164.87350033854284L688.5384538819217,165.07576849845998L688.7964792636599,165.27801349573724L689.0115004151085,165.48023534473958L689.1405131059776,165.6318865490735L689.3555342574257,165.83406792314076L689.9575934814814,165.93514994347566L690.301627323799,165.88460965534642L690.4306400146681,165.83406792314076L690.5596527055372,165.78352474663484L690.7746738569858,165.73298012560434L690.9036865478549,165.78352474663484L691.0757034690137,165.83406792314076L691.2477203901726,165.93514994347566L691.5057457719106,165.9856887877529L691.6347584627797,166.18782973082085L691.7637711536488,166.33942028864953L691.9357880748075,166.4909978679325L692.1078049959665,166.59204238013547L692.3658303777045,166.69308112857146L692.6238557594429,166.69308112857146L692.8388769108913,166.64256247471207L693.0538980623398,166.59204238013547L693.268919213788,166.4909978679325L693.4409361349469,166.33942028864953L693.6129530561057,166.28889154506595L693.827974207554,166.23836135919748L694.0429953590028,166.23836135919748L694.258016510451,166.23836135919748L694.4730376618995,166.33942028864953L694.6450545830585,166.5415208446168L694.8170715042172,166.74359834193586L694.9030799647967,166.8951413412986L695.032092655666,166.9961628091679L695.290118037404,167.09717852042468L695.548143419142,167.14768421788227L695.7631645705903,167.2486912975727L696.107198412908,167.40019113239651L696.3222195643566,167.45068820230824L696.537240715805,167.50118383507652L696.924278788412,167.65266211275804L697.096295709571,167.75364044958945L697.3543210913094,167.85461304320614L697.7413591639165,168.1070194123879L697.999384545655,168.20797191879882L698.1714014668134,168.3089186900209L698.3004141576823,168.46032809727274L698.2574099273929,168.66218725041261L698.1283972365236,168.86402349486542L697.9563803153651,169.06583684487373L697.7413591639165,169.21718184146414L697.4833337821783,169.31807135875647L697.3543210913094,169.51983324830093L697.3543210913094,169.7720034816088L697.4403295518885,169.97371398267757L697.4833337821783,170.22582002534597L697.3973253215988,170.3770665503053L697.0532914792814,170.62911561005023L696.924278788412,170.830729240133L697.0102872489917,171.032320114271L697.2253084004403,171.032320114271L697.3973253215988,170.98192452833166L697.5263380124682,170.98192452833166L697.7843633942061,171.032320114271L697.8703718547856,171.13310702228927L698.0423887759443,171.33466378907588L698.0853930062342,171.43543365138368L698.1714014668134,171.48581645304017L698.4294268485514,171.48581645304017L698.5154353091309,171.48581645304017L698.644448,171.68733346817623L698.5584395394208,171.93919782281876L698.3434183879722,172.09029942526126L698.1283972365236,172.1910267429269L697.9563803153651,172.39246438469422L697.8703718547856,172.5435277536011L697.8703718547856,172.74492577357722L698.0423887759443,172.89595944234924L698.1283972365236,172.99664148854674L698.0853930062342,173.19798862971038L698.1283972365236,173.4496407907758L698.2144056971033,173.55029177828658L698.2144056971033,173.75157683113378L698.0423887759443,173.90252582079523L697.9133760850752,173.95283933281218L697.7413591639165,173.95283933281218L697.5263380124682,173.95283933281218L697.3113168610196,173.90252582079523L697.1392999398606,173.8018945701756L696.924278788412,173.6006151564402L696.8382703278328,173.4496407907758L696.7092576369637,173.4496407907758L696.4512322552257,173.55029177828658L696.0211899523288,173.8522108999892L695.9351814917493,174.05346213136005L695.7201603403005,174.25469083266444L695.5051391888524,174.40559758174498L695.3331222676934,174.55649167150057L695.1611053465347,174.70737310785813L695.032092655666,174.90852868351232L694.8600757345066,175.0593806183124L694.6880588133483,175.21021991945526L694.5160418921894,175.31077243777543L694.3440249710306,175.4113193455189L694.1720080498717,175.4615906959732L694.0859995892924,175.66266208010933L694.0429953590028,175.81345090577992L693.999991128713,176.06473760905908L693.9139826681337,176.11499075075818L693.827974207554,176.06473760905908L693.5269445955262,175.9642271273609L693.3979319046571,175.9642271273609L693.2259149834983,176.11499075075818L692.9678896017604,176.36623547649657L692.7098642200222,176.617445251008L692.580851529153,176.81838792408564L692.4088346079943,176.96908026925547L692.1078049959665,177.27042728891638L691.9357880748075,177.47129741672057L691.8067753839384,177.62193538271157L691.5057457719106,178.0235753671971L691.4197373113311,178.12397145044753L691.290724620462,178.22436197203263L691.1617119295929,178.3749373300954L691.1617119295929,178.57568502459407L691.2047161598828,178.77641050375166L691.2477203901726,178.9269400426702L691.4197373113311,179.2279616790521L691.5057457719106,179.4286150543807L691.5487500022,179.67940061791205L691.5487500022,180.08058557934407L691.4197373113311,180.33128125986286L691.3767330810417,180.7323225549174L691.4197373113311,180.8826902788884L691.5487500022,181.03304559648427L691.6777626930693,181.18338851354213L691.9357880748075,181.53414046179682L692.1508092262561,181.78463629304719L692.3658303777045,182.08518593116787L692.4518388382842,182.28552488761693L692.6238557594429,182.5359177048419L692.7528684503116,182.73620727275699L693.0538980623398,183.0366005138169L693.311923444078,183.28689055937718L693.3979319046571,183.48709796806025L693.6129530561057,183.93748467279408L693.7849699772646,184.13762103329555L693.9139826681337,184.33773556201538L694.1720080498717,184.68788349583883L694.7310630436377,185.38797920416454L695.0750968859554,185.73792712554274L695.1611053465347,185.93786749369258L695.1611053465347,186.08780852288237L695.0750968859554,186.28771091020423L694.9460841950863,186.43762346947057L694.7740672739276,186.48759161298892L694.5590461224792,186.43762346947057L694.3870292013203,186.38765397130953L694.2150122801615,186.38765397130953L694.0859995892924,186.43762346947057L693.999991128713,186.5375584020765L693.827974207554,186.5875238369481L693.6559572863953,186.43762346947057L693.5269445955262,186.3376831182917L693.311923444078,186.18776242796417L692.9678896017604,186.03782953624165L692.6668599897323,185.88788443735694L692.3658303777045,185.787914253496L692.0217965353868,185.68793863995614L691.6777626930693,185.5379650352586L691.4197373113311,185.43797584004096L691.1187076993035,185.38797920416454L690.9036865478549,185.287981854806L690.6886653964063,185.23798114089738L690.6026569358271,185.0379646853989L690.6456611661167,184.83792645984607L690.7746738569858,184.68788349583883L690.9036865478549,184.637866450533L690.9896950084342,184.48780713970717L690.9466907781446,184.28770897581398L690.9036865478549,184.13762103329555L690.7316696266962,183.98752081040004L690.4306400146681,183.83740830133337L690.3446315540889,183.6872835002992L690.2156188632196,183.48709796806025L690.1296104026403,183.33694446321675L689.9575934814814,183.18677864707104L689.914589251192,183.0866612604941L689.8285807906125,182.9865383979274L689.7425723300332,182.83634383282958L689.6135596391641,182.63606523066863L689.3985384877155,182.48584188498904L689.1405131059776,182.4357646935548L688.9254919545288,182.33560619508427L688.6674665727908,182.28552488761693L688.4094411910528,182.28552488761693L688.0224031184453,182.23544220770674L687.8933904275762,182.18535815513877L687.6783692761278,182.13527272969787L687.4203438943896,182.08518593116787L687.1193142823615,182.18535815513877L686.9903015914924,182.28552488761693L686.8612889006235,182.4357646935548L686.6892719794648,182.6861369370721L686.5602592885957,182.83634383282958L686.3452381371474,182.93647491260975L686.0872127554089,183.1367206381742L685.829187373671,183.33694446321675L685.4421493010636,183.43704816734333L685.227128149615,183.43704816734333L685.0121069981665,183.33694446321675L684.840090077008,183.28689055937718L684.668073155849,183.28689055937718L684.5390604649801,183.28689055937718L684.2810350832417,183.33694446321675L684.1090181620832,183.28689055937718L683.8509927803448,183.38699699913394L683.6359716288964,183.43704816734333L683.4639547077375,183.48709796806025L683.3349420168681,183.48709796806025L683.1629250957099,183.43704816734333L683.0339124048407,183.43704816734333L682.7758870231023,183.43704816734333L682.6468743322332,183.43704816734333L682.3888489504952,183.48709796806025L682.1738277990469,183.58719346787598L681.9158024173084,183.7373264667757L681.7007812658601,183.78736806704916L681.4857601144115,183.78736806704916L681.3567474235424,183.78736806704916L681.2277347326735,183.7373264667757L681.0557178115146,183.78736806704916L680.840696660066,183.8874471698432L680.7546881994867,183.93748467279408L680.6256755086176,183.98752081040004L680.3676501268792,184.08758899043625L680.1956332057207,184.13762103329555L679.8946035936929,184.23768102576963L679.8085951331134,184.28770897581398L679.6365782119544,184.38776078458812L679.5505697513752,184.48780713970717L679.3355485999266,184.48780713970717L679.0775232181886,184.58784804288518L678.9055062970297,184.637866450533L678.6904851455813,184.83792645984607L678.4324597638429,185.08797083968096L678.0024174609464,185.5879575950284L677.7013878489181,186.13778615338532L677.4003582368903,186.63748791781626L677.0133201642832,187.33684299905724L676.7982990128348,187.53661008197219L676.0672270979098,188.08585822971565L675.6371847950129,188.2356248672881L675.2501467224056,188.2356248672881L674.949117110378,188.2855443855754L674.6910917286398,188.38537938206923L674.4760705771912,188.6349433160832L674.3470578863221,188.9842763279891L674.1750409651631,189.28365221326237L674.1750409651631,189.6328629979888L674.0460282742943,189.8323825103746L673.9170155834252,190.08175174818984L673.5729817411075,190.0318805797349L673.4439690502384,189.8323825103746L673.0999352079209,189.6328629979888L672.7559013656034,189.8323825103746L672.7128971353136,190.08175174818984L672.5408802141549,190.63024626509736L672.3688632929961,190.92935689749038L672.0248294506787,191.1287372721917L671.7668040689402,191.1287372721917L671.5947871477813,191.1287372721917L671.3367617660433,190.87950846549955L670.8637152328565,190.82965869776092L670.7777067722775,190.92935689749038L670.4766771602494,191.5274339698534L670.39066869967,191.82640050099172L670.218651778511,192.1253190894925L669.7886094756145,192.52380270870395L669.5305840938761,192.8724061102542L669.1005417909792,193.12136871613785L668.7135037183721,193.27073036276158L668.412474106344,193.469860666967L668.1974529548957,193.61919448400118L667.8964233428676,193.8680576984782L667.5523895005499,193.9675937209613L667.423376809681,193.71874374082984L667.3803725793914,193.5694178694381L667.2943641188119,193.3702981653019L667.2083556582327,193.27073036276158L667.2083556582327,193.12136871613785L667.0793429673636,193.0217876540621L666.9503302764942,192.92220128522962L666.7783133553357,192.82260960795975L666.606296434177,192.72301262057027L666.4772837433079,192.67321213505494L666.3482710524388,192.6234103213793L666.2622625918593,192.573607179332L666.1332499009902,192.37438132322575L666.047241440411,192.22494797293893L665.9612329798313,192.1253190894925L665.9612329798313,191.9758657852268L666.0042372101211,191.82640050099172L666.0902456707004,191.67692323109702L666.1762541312798,191.5274339698534L666.3482710524388,191.27825853820622L666.3482710524388,191.17857902860783L666.3482710524388,191.02904975507062L666.2622625918593,190.92935689749038L666.2192583615695,190.87950846549955L666.1762541312798,190.7299551541937L666.2192583615695,190.68010137794244L666.2622625918593,190.63024626509736L666.305266822149,190.48067290488984L666.305266822149,190.38095064457696L666.2192583615695,190.28122303281708L666.0902456707004,190.18149006791828L665.9182287495419,190.08175174818984L665.875224519252,190.0318805797349L665.8322202889622,189.98200807193723L665.8322202889622,189.88225903746923L665.875224519252,189.78250464309116L665.8322202889622,189.6328629979888L665.7892160586725,189.5330951964259L665.7032075980933,189.43332202902343L665.617199137514,189.3834334326031L665.5741949072242,189.28365221326237L665.617199137514,189.18386562384472L665.6602033678034,189.13397031482629L665.8322202889622,189.0341756671105L665.9182287495419,188.9842763279891L665.9612329798313,188.93437564507553L666.0042372101211,188.8345702470246L665.9612329798313,188.78466553146222L665.9612329798313,188.73475947126008L665.9182287495419,188.6349433160832L665.8322202889622,188.53512177979684L665.7892160586725,188.43529486070105L665.8322202889622,188.2855443855754L665.8322202889622,188.13578178957067L665.8322202889622,188.0359333222462L665.875224519252,187.9860070669489L665.7892160586725,187.83622021197095L665.875224519252,187.83622021197095L665.9612329798313,187.7862885632394L666.0042372101211,187.68642121889349L666.047241440411,187.6364855228528L666.0902456707004,187.5865484772835L666.1762541312798,187.5865484772835L666.2192583615695,187.53661008197219L666.305266822149,187.53661008197219L666.3912752827284,187.53661008197219L666.5202879735973,187.5865484772835L666.6493006644666,187.6364855228528L666.7353091250461,187.68642121889349L666.8213175856251,187.68642121889349L666.9073260462046,187.68642121889349L666.9933345067841,187.6364855228528L667.0793429673636,187.5865484772835L667.2083556582327,187.4367292412752L667.5523895005499,187.23695135361504L667.6814021914192,187.18700350415241L667.8964233428676,187.08710375067966L668.0684402640265,187.03715184624326L668.326465645765,187.03715184624326L668.5414867972131,187.03715184624326L668.7565079486615,187.03715184624326L668.9285248698204,187.03715184624326L669.3585671727174,186.98719858972277L669.5305840938761,186.98719858972277L669.6595967847452,186.93724398090507L669.702601015035,186.83733070552432L669.8316137059039,186.68745064489508L669.8316137059039,186.5375584020765L669.8746179361935,186.43762346947057L669.8316137059039,186.13778615338532L669.8316137059039,185.93786749369258L669.8746179361935,185.68793863995614L669.9176221664836,185.4879711170007L669.9176221664836,185.33798120915748L669.960626396773,185.08797083968096L669.9176221664836,184.88793805792665L669.9176221664836,184.78791350028087L669.960626396773,184.68788349583883L670.0466348573527,184.58784804288518L670.1326433179318,184.48780713970717L670.218651778511,184.48780713970717L670.3476644693803,184.33773556201538L670.3476644693803,184.18765171166882L670.39066869967,184.03755558287617L670.4336729299598,183.93748467279408L670.6486940814084,183.8874471698432L670.8637152328565,183.83740830133337L671.0787363843051,183.8874471698432L671.2507533054641,183.98752081040004L671.3797659963332,184.08758899043625L671.5087786872023,184.18765171166882L671.5947871477813,184.33773556201538L671.680795608361,184.43778464374742L671.7668040689402,184.48780713970717L671.938820990099,184.58784804288518L672.1968463718372,184.58784804288518L672.3258590627065,184.58784804288518L672.4118675232858,184.43778464374742L672.4548717535752,184.28770897581398L672.497875983865,184.08758899043625L672.6268886747341,183.98752081040004L672.8419098261827,183.93748467279408L673.1429394382105,183.98752081040004L673.2719521290796,183.98752081040004L673.5299775108176,183.98752081040004L673.7449986622664,183.98752081040004L674.0460282742943,183.98752081040004L674.3470578863221,183.93748467279408L674.6050832680603,183.8874471698432L674.777100189219,183.78736806704916L674.949117110378,183.7373264667757L675.1211340315365,183.6872835002992L675.4221636435645,183.63723916740406L675.5941805647233,183.58719346787598L675.6801890253028,183.58719346787598L675.8522059464615,183.58719346787598L676.0242228676202,183.6872835002992L676.1102313281995,183.7373264667757L676.1532355584893,183.8874471698432L676.1962397887792,184.03755558287617L676.3252524796483,184.08758899043625L676.5402736310966,184.08758899043625L676.5832778613863,184.03755558287617L676.6692863219655,183.93748467279408L676.7122905522551,183.8874471698432L676.755294782545,183.78736806704916L676.7982990128348,183.6872835002992L676.9273117037039,183.58719346787598L676.9703159339933,183.38699699913394L677.0133201642832,183.28689055937718L677.0993286248624,183.0866612604941L677.314349776311,182.83634383282958L677.4003582368903,182.73620727275699L677.5723751580492,182.6861369370721L677.6583836186287,182.58599215332998L677.744392079208,182.48584188498904L677.7873963094978,182.33560619508427L677.7873963094978,182.18535815513877L677.744392079208,181.9850082139792L677.8304005397874,181.8347313346385L677.8734047700771,181.73453987685758L677.9164090003669,181.58424237853876L677.7873963094978,181.43393250106516L677.6583836186287,181.38382645664308L677.5723751580492,181.38382645664308L677.4433624671801,181.2335000645612L677.3573540066009,181.13327558533325L677.2713455460214,181.03304559648427L677.1423328551523,180.9328100962852L677.0563243945728,180.9328100962852L676.9273117037039,180.9328100962852L676.8413032431242,180.98292853541136L676.6692863219655,181.08316127972006L676.5402736310966,181.13327558533325L676.4112609402275,181.13327558533325L676.1962397887792,181.13327558533325L676.1102313281995,181.13327558533325L675.9812186373306,181.28361023860657L675.8952101767509,181.38382645664308L675.8092017161716,181.43393250106516L675.6801890253028,181.38382645664308L675.6801890253028,181.33371903589568L675.6801890253028,181.2335000645612L675.7231932555924,181.08316127972006L675.8522059464615,180.8826902788884L675.9382144070407,180.7824465084206L675.9812186373306,180.53181294739187L676.0672270979098,180.48168209605126L676.1532355584893,180.23100713176916L676.1532355584893,180.1307274784789L676.1962397887792,179.980297635012L676.2392440190686,179.77970515602965L676.2822482493584,179.67940061791205L676.2822482493584,179.57909054506484L676.2392440190686,179.4286150543807L676.1102313281995,179.32829113711847L676.0672270979098,179.32829113711847L675.9382144070407,179.32829113711847L675.7231932555924,179.27812710079456L675.5511763344336,179.27812710079456L675.3791594132747,179.17779487167593L675.2501467224056,179.0272861335656L675.207142492116,178.9269400426702L675.035125570957,178.72623121588992L674.777100189219,178.42512633716944L674.6910917286398,178.27455514774482L674.6480874983499,178.12397145044753L674.6050832680603,177.7725608153575L674.5620790377707,177.52151146500825L674.5190748074808,177.32064691150168L674.4760705771912,177.16998386116745L674.3900621166117,176.96908026925547L674.2610494257428,176.71791938058675L674.218045195453,176.56720609089245L674.218045195453,176.4667235789185L674.2610494257428,176.36623547649657L674.3470578863221,176.31598932832082L674.5190748074808,176.16524249331502L674.777100189219,175.9642271273609L674.8631086497983,175.8637110464698L674.9921213406676,175.66266208010933L675.0781298012469,175.4615906959732L675.1211340315365,175.31077243777543L675.207142492116,175.10966178880756L675.2931509526954,175.00909804407763L675.4221636435645,174.85824189674292L675.7231932555924,174.8079537053577L675.8522059464615,174.70737310785813L676.0242228676202,174.60678688926032L676.1102313281995,174.4558970179623L676.1962397887792,174.35529673893535L676.3682567099377,174.15407929739206L676.4542651705171,174.10377141833033L676.5832778613863,174.05346213136005L677.0133201642832,173.70125768264387L677.0563243945728,173.6006151564402L677.0993286248624,173.4999669898051L677.3573540066009,173.14765396277278L677.3573540066009,173.04698039241117L677.4003582368903,172.89595944234924L677.48636669747,172.74492577357722L677.5723751580492,172.49317471232587L677.48636669747,172.39246438469422L677.314349776311,172.34210709789625L677.0133201642832,172.34210709789625L676.5832778613863,172.29174839548216L676.2392440190686,172.24138827723283L675.8952101767509,172.24138827723283L675.3791594132747,172.29174839548216L675.207142492116,172.29174839548216L674.6480874983499,172.34210709789625L674.218045195453,172.39246438469422L674.0030240440044,172.39246438469422L673.5729817411075,172.39246438469422L673.2289478987902,172.39246438469422L672.927918286762,172.39246438469422L672.5408802141549,172.44282025609698L672.239850602127,172.49317471232587L672.0678336809681,172.49317471232587L671.7237998386504,172.5435277536011L671.5087786872023,172.5435277536011L671.2507533054641,172.69457838991093L671.121740614595,172.74492577357722L670.9067194631464,172.99664148854674L670.7777067722775,173.19798862971038L670.7347025419876,173.29865372820103L670.6486940814084,173.39931318097905L670.6056898511185,173.55029177828658L670.3476644693803,173.8522108999892L670.3046602390907,173.95283933281218L669.9176221664836,174.15407929739206L669.8316137059039,174.20438576876285L669.5735883241659,174.20438576876285L669.401571403007,174.25469083266444L669.1865502515584,174.20438576876285L669.0145333303999,174.20438576876285L668.8855206395308,174.20438576876285L668.5414867972131,174.20438576876285L668.0684402640265,174.25469083266444L667.7674106519987,174.25469083266444L667.5523895005499,174.25469083266444L667.2513598885221,174.25469083266444L667.0363387370737,174.25469083266444L666.7353091250461,174.3049944893154L666.3912752827284,174.35529673893535L666.1762541312798,174.4558970179623L666.0042372101211,174.50619504780735L665.7892160586725,174.60678688926032L665.5311906769346,174.7576641091353L665.2301610649065,174.95881406588404L665.1011483740374,175.0593806183124L665.0151399134584,175.10966178880756L664.8431229922994,175.2604968800468L664.6281018408508,175.36104659285968L664.4560849196921,175.4113193455189L664.2410637682435,175.4113193455189L664.0260426167952,175.4615906959732L663.8540256956362,175.4615906959732L663.6390045441879,175.51186064443993L663.3809791624494,175.51186064443993L663.1229537807114,175.56212919113887L662.9079326292631,175.56212919113887L662.6499072475247,175.61239633628895L662.5208945566558,175.61239633628895L662.3488776354968,175.66266208010933L661.9188353325999,175.7631893646361L661.4027845691237,176.06473760905908L660.6717126541989,176.4667235789185L660.4996957330402,176.5169655336024L660.3706830421711,176.56720609089245L660.1986661210121,176.617445251008L660.1126576604331,176.7681543504869L660.0266491998534,176.86862010160144L659.9836449695638,177.01930825983055L659.8116280484048,177.11976005556852L659.6826153575357,177.22020627221036L659.6396111272463,177.22020627221036L659.4675942060874,177.32064691150168L659.2955772849286,177.37086514018534L659.1665645940595,177.37086514018534L658.9085392123216,177.42108197518615L658.7365222911626,177.47129741672057L658.3064799882654,177.52151146500825L657.962446145948,177.7725608153575L657.4463953824716,178.07377410413932L657.1023615401539,178.3749373300954L656.8443361584159,178.4753139551321L656.6293150069675,178.57568502459407L656.414293855519,178.67605054022152L656.2852811646499,178.72623121588992L656.1132642434911,178.77641050375166L655.8552388617529,178.82658840402456L655.5542092497251,178.9269400426702L655.3391880982765,178.977113781478L655.1241669468282,179.0272861335656L654.9521500256694,179.0272861335656L654.8661415650902,178.9269400426702L654.8231373348003,178.67605054022152L654.7801331045105,178.52550018420112L654.7371288742211,178.42512633716944L654.6941246439312,178.32474693369278L654.6081161833517,178.32474693369278L654.4791034924826,178.3749373300954L654.4360992621928,178.4753139551321L654.3070865713239,178.62586847652858L654.1780738804548,178.67605054022152L654.0060569592961,178.67605054022152L653.7480315775579,178.67605054022152L653.6190188866888,178.62586847652858L653.4900061958197,178.52550018420112L653.2749850443713,178.52550018420112L653.0599638929227,178.52550018420112L652.8449427414741,178.57568502459407L652.6729258203154,178.52550018420112L652.5439131294463,178.4753139551321L652.3718962082876,178.32474693369278L652.3718962082876,178.22436197203263L652.328891977998,178.12397145044753L652.328891977998,178.0235753671971L652.3718962082876,177.92317372053986L652.4149004385772,177.7725608153575L652.4149004385772,177.67214525256304L652.328891977998,177.52151146500825L652.1998792871286,177.47129741672057L652.1138708265494,177.47129741672057L651.9418539053906,177.47129741672057L651.8128412145215,177.57172412026597L651.7268327539423,177.72235373003923L651.7268327539423,177.8729708103898L651.7268327539423,178.0235753671971L651.7268327539423,178.12397145044753L651.7698369842317,178.32474693369278L651.7698369842317,178.4753139551321L651.8558454448112,178.67605054022152L651.8988496751008,178.77641050375166L651.9848581356803,178.8767649169249L652.1138708265494,178.977113781478L652.2858877477083,179.1276266784471L652.4149004385772,179.27812710079456L652.4579046688671,179.37845378824125L652.4579046688671,179.5289334325758L652.3718962082876,179.62924627343818L652.328891977998,179.67940061791205L652.2428835174185,179.7295535787033L652.1138708265494,179.77970515602965L652.0278623659701,179.77970515602965L651.8128412145215,179.82985535010658L651.6838285236527,179.82985535010658L651.5118116024937,179.88000416115153L651.3827989116246,179.93015158938096L651.2107819904659,179.980297635012L650.9957608390175,180.18086799588207L650.8667481481482,180.28114488635703L650.7807396875689,180.43154986449343L650.7377354572791,180.53181294739187L650.6947312269897,180.63207051028922L650.6947312269897,180.7824465084206L650.4367058452513,181.13327558533325L650.350697384672,181.18338851354213L650.3076931543822,181.28361023860657L650.1356762332232,181.53414046179682L650.0496677726439,181.58424237853876L649.9206550817751,181.6844420858527L649.7486381606161,181.78463629304719L649.7056339303265,181.88482500184693L649.4476085485883,182.08518593116787L649.3185958577192,182.18535815513877L649.1895831668498,182.28552488761693L648.9745620154017,182.3856861303252L648.8455493245326,182.48584188498904L648.6735324033737,182.58599215332998L648.5445197125046,182.6861369370721L648.4585112519251,182.6861369370721L648.2864943307666,182.786276237938L648.2004858701871,182.83634383282958L648.071473179318,182.93647491260975L647.9854647187387,183.0866612604941L647.8564520278696,183.18677864707104L647.8134477975798,183.28689055937718L647.6844351067109,183.43704816734333L647.5984266461312,183.53714640149985L647.4264097249725,183.83740830133337L646.7383420403373,184.53782827268174L646.5663251191786,184.73789917901684L646.3943081980199,184.9379482947357L646.2652955071508,185.0379646853989L646.1792870465715,185.18797906721596L646.0932785859923,185.43797584004096L646.0932785859923,185.5379650352586L646.0502743557024,185.68793863995614L646.0932785859923,185.8379000240293L646.0932785859923,185.93786749369258L646.1362828162817,186.08780852288237L646.2222912768609,186.28771091020423L646.2222912768609,186.3376831182917L646.2652955071508,186.63748791781626L646.2222912768609,186.73741201839692L646.1362828162817,186.8872880195762L646.1362828162817,187.03715184624326L646.0932785859923,187.1370543032457L645.9642658951229,187.18700350415241L645.8782574345435,187.18700350415241L645.7492447436746,187.18700350415241L645.6202320528055,187.1370543032457L645.534223592226,187.08710375067966L645.3192024407776,187.08710375067966L645.1901897499083,187.23695135361504L645.0611770590397,187.2868978518456L645.0181728287494,187.33684299905724L644.9321643681703,187.4367292412752L644.8031516773012,187.53661008197219L644.7601474470114,187.5865484772835L644.4591178349835,187.93607946361294L644.1580882229555,188.2356248672881L643.6850416897689,188.6848520662038L643.5560289988998,188.78466553146222L643.5130247686104,188.8345702470246L643.2980036171616,188.93437564507553L643.1259866960031,188.93437564507553L642.9539697748442,188.9842763279891L642.824957083975,189.0341756671105L642.5239274719472,189.13397031482629L642.3949147810781,189.13397031482629L642.0938851690503,189.13397031482629L641.9218682478913,189.13397031482629L641.706847096443,189.18386562384472L641.5778344055736,189.18386562384472L641.2338005632564,189.13397031482629L641.0187794118078,189.13397031482629L640.8037582603595,189.13397031482629L640.5027286483316,189.18386562384472L640.2016990363038,189.13397031482629L640.0296821151451,189.13397031482629L639.8576651939861,189.13397031482629L639.6856482728274,189.13397031482629L639.5566355819583,189.08407366265163L639.2986102002201,189.08407366265163L639.1265932790614,189.0341756671105L638.9545763579024,189.0341756671105L638.7825594367437,189.0341756671105L638.6105425155847,189.0341756671105L638.4385255944264,188.9842763279891L638.2665086732675,188.9842763279891L638.008483291529,188.9842763279891L637.7504579097911,188.93437564507553L637.621445218922,188.93437564507553L637.4064240674736,188.9842763279891L637.2774113766043,188.9842763279891L637.191402916025,188.9842763279891L636.8473690737078,189.0341756671105L636.5033352313901,189.08407366265163L636.1593013890724,189.28365221326237L635.9012760073342,189.3335434940863L635.6862548558856,189.3834334326031L635.4712337044373,189.43332202902343L635.2992167832786,189.5330951964259L635.0841956318297,189.58297976783143L634.8691744803816,189.58297976783143L634.4821364077741,189.6328629979888L634.267115256326,189.6328629979888L634.0520941048771,189.6328629979888L633.6220518019802,189.5330951964259L633.4500348808215,189.4832092835607L633.1490052687936,189.28365221326237L633.0199925779245,189.18386562384472L632.8479756567658,189.08407366265163L632.7619671961863,188.9842763279891L632.6329545053175,188.8844736181585L632.4179333538689,188.6848520662038L632.3319248932896,188.53512177979684L632.2889206629998,188.43529486070105L632.0308952812616,188.2356248672881L631.9018825903922,188.13578178957067L631.7728698995231,188.08585822971565L631.6008529783649,188.0359333222462L631.2998233663368,187.9860070669489L631.1708106754675,187.9860070669489L630.9557895240193,187.93607946361294L630.7837726028604,187.88615051202424L630.6117556817017,187.83622021197095L630.4397387605427,187.7862885632394L630.2247176090943,187.7862885632394L630.0527006879356,187.7862885632394L629.8806837667769,187.7862885632394L629.7516710759078,187.7862885632394L629.4936456941696,187.73635556561806L629.278624542721,187.73635556561806L629.1066076215623,187.73635556561806L628.9775949306932,187.68642121889349L628.848582239824,187.6364855228528L628.719569548955,187.6364855228528L628.6335610883755,187.6364855228528L628.5045483975064,187.68642121889349L628.5045483975064,187.7862885632394L628.5475526277962,187.9860070669489L628.5475526277962,188.08585822971565L628.5475526277962,188.2356248672881L628.5475526277962,188.33546255709842L628.5475526277962,188.4852089932064L628.5045483975064,188.53512177979684L628.3755357066375,188.5850332206844L628.2465230157684,188.6349433160832L628.0745060946094,188.6848520662038L627.8594849431611,188.73475947126008L627.6874680220023,188.8345702470246L627.5584553311332,188.8844736181585L627.4294426402644,188.93437564507553L627.2144214888156,188.9842763279891L627.0854087979467,189.0341756671105L626.9133918767877,189.08407366265163L626.741374955629,189.18386562384472L626.182319961863,189.18386562384472L625.9672988104144,189.18386562384472L625.7952818892559,189.18386562384472L625.6662691983865,189.18386562384472L625.5372565075174,189.18386562384472L625.3222353560691,189.18386562384472L625.1502184349101,189.28365221326237L624.9351972834618,189.28365221326237L624.7631803623033,189.28365221326237L624.5911634411443,189.3335434940863L624.4191465199856,189.3834334326031L624.2901338291165,189.4832092835607L624.0751126776679,189.58297976783143L624.032108447378,189.68274488711018L623.7740830656401,189.88225903746923L623.5160576839019,189.88225903746923L623.3440407627429,189.88225903746923L623.0860153810049,189.8323825103746L622.9570026901356,189.8323825103746L622.6989773083976,189.88225903746923L622.5699646175285,189.88225903746923L622.4839561569488,189.93213422458615L622.3549434660802,190.08175174818984L622.2689350055007,190.13162157751356L622.0969180843417,190.18149006791828L621.924901163183,190.2313572196157L621.7958884723143,190.2313572196157L621.7098800117346,190.2313572196157L621.4948588602861,190.18149006791828L621.4088503997068,190.2313572196157L621.107820787679,190.18149006791828L621.0218123270993,190.18149006791828L620.8497954059408,190.08175174818984L620.8067911756511,190.0318805797349Z"></path>
<circle class="distCircs" cx="672.0890755286473" cy="166.78721986035373" r="1.9985292220416335" stroke="#000" stroke-width="0.25" fill="#eee" data-q="ARUNACHAL PRADESH" data-r="ANJAW"><title>ARUNACHAL PRADESH - ANJAW: Census 2011 Total Rural Households = 4,060. Census 2011 Households with toilets = 1,123. Census 2001 Total Rural Households = NaN. Census 2001 Households with toilets = 0. Difference between Census 2011 Households with toilets and Census 2001 Households with toilets = NaN%</title></circle><circle class="distCircs" cx="685" cy="174.12790042677574" r="2.321031437869179" stroke="#000" stroke-width="0.25" fill="#99d18e" data-q="ARUNACHAL PRADESH" data-r="CHANGLANG"><title>ARUNACHAL PRADESH - CHANGLANG: Census 2011 Total Rural Households = 24,444. Census 2011 Households with toilets = 15,970. Census 2001 Total Rural Households = 21,015. Census 2001 Households with toilets = 9,050. Difference between Census 2011 Households with toilets and Census 2001 Households with toilets = 22.3%</title></circle><circle class="distCircs" cx="678.2289876633931" cy="157.3380932880637" r="1.8172373931331067" stroke="#000" stroke-width="0.25" fill="#a3d692" data-q="ARUNACHAL PRADESH" data-r="DIBANG VALLEY"><title>ARUNACHAL PRADESH - DIBANG VALLEY: Census 2011 Total Rural Households = 1,297. Census 2011 Households with toilets = 839. Census 2001 Total Rural Households = 9,372. Census 2001 Households with toilets = 4,181. Difference between Census 2011 Households with toilets and Census 2001 Households with toilets = 20.1%</title></circle><circle class="distCircs" cx="632.9304904121129" cy="179.413115016605" r="2.1728935298279572" stroke="#000" stroke-width="0.25" fill="#fae7ae" data-q="ARUNACHAL PRADESH" data-r="EAST KAMENG"><title>ARUNACHAL PRADESH - EAST KAMENG: Census 2011 Total Rural Households = 11,078. Census 2011 Households with toilets = 2,442. Census 2001 Total Rural Households = 8,821. Census 2001 Households with toilets = 2,449. Difference between Census 2011 Households with toilets and Census 2001 Households with toilets = -5.7%</title></circle><circle class="distCircs" cx="663.6431502724712" cy="168.50738391394526" r="2.2006975647296176" stroke="#000" stroke-width="0.25" fill="#eea77e" data-q="ARUNACHAL PRADESH" data-r="EAST SIANG"><title>ARUNACHAL PRADESH - EAST SIANG: Census 2011 Total Rural Households = 12,904. Census 2011 Households with toilets = 6,119. Census 2001 Total Rural Households = 2,889. Census 2001 Households with toilets = 1,986. Difference between Census 2011 Households with toilets and Census 2001 Households with toilets = -21.3%</title></circle><circle class="distCircs" cx="635.896934585676" cy="172.58731157404958" r="2.2335721681454763" stroke="#000" stroke-width="0.25" fill="#eee" data-q="ARUNACHAL PRADESH" data-r="KURUNG KUMEY"><title>ARUNACHAL PRADESH - KURUNG KUMEY: Census 2011 Total Rural Households = 15,417. Census 2011 Households with toilets = 3,627. Census 2001 Total Rural Households = NaN. Census 2001 Households with toilets = 0. Difference between Census 2011 Households with toilets and Census 2001 Households with toilets = NaN%</title></circle><circle class="distCircs" cx="679.9803587407876" cy="170.1869750561084" r="2.304305472027298" stroke="#000" stroke-width="0.25" fill="#cce8a6" data-q="ARUNACHAL PRADESH" data-r="LOHIT"><title>ARUNACHAL PRADESH - LOHIT: Census 2011 Total Rural Households = 22,412. Census 2011 Households with toilets = 11,087. Census 2001 Total Rural Households = 21,300. Census 2001 Households with toilets = 8,180. Difference between Census 2011 Households with toilets and Census 2001 Households with toilets = 11.1%</title></circle><circle class="distCircs" cx="655.3544903890543" cy="158.50998535853694" r="2.1280612375311225" stroke="#000" stroke-width="0.25" fill="#eee" data-q="ARUNACHAL PRADESH" data-r="LOWER DIBANG VALLEY"><title>ARUNACHAL PRADESH - LOWER DIBANG VALLEY: Census 2011 Total Rural Households = 8,626. Census 2011 Households with toilets = 4,143. Census 2001 Total Rural Households = NaN. Census 2001 Households with toilets = 0. Difference between Census 2011 Households with toilets and Census 2001 Households with toilets = NaN%</title></circle><circle class="distCircs" cx="644.8882576110092" cy="176.38306683571784" r="2.1884179924623597" stroke="#000" stroke-width="0.25" fill="#a4d693" data-q="ARUNACHAL PRADESH" data-r="LOWER SUBANSIRI"><title>ARUNACHAL PRADESH - LOWER SUBANSIRI: Census 2011 Total Rural Households = 12,066. Census 2011 Households with toilets = 8,211. Census 2001 Total Rural Households = 17,902. Census 2001 Households with toilets = 8,616. Difference between Census 2011 Households with toilets and Census 2001 Households with toilets = 19.9%</title></circle><circle class="distCircs" cx="642.8325999126498" cy="183.4036005567699" r="2.2094976080558637" stroke="#000" stroke-width="0.25" fill="#fef9bb" data-q="ARUNACHAL PRADESH" data-r="PAPUM PARE"><title>ARUNACHAL PRADESH - PAPUM PARE: Census 2011 Total Rural Households = 13,537. Census 2011 Households with toilets = 7,413. Census 2001 Total Rural Households = 10,900. Census 2001 Households with toilets = 6,114. Difference between Census 2011 Households with toilets and Census 2001 Households with toilets = -1.3%</title></circle><circle class="distCircs" cx="616.4412036524402" cy="176.94725951300853" r="2.112326286678855" stroke="#000" stroke-width="0.25" fill="#f7d49f" data-q="ARUNACHAL PRADESH" data-r="TAWANG"><title>ARUNACHAL PRADESH - TAWANG: Census 2011 Total Rural Households = 7,891. Census 2011 Households with toilets = 5,480. Census 2001 Total Rural Households = 6,960. Census 2001 Households with toilets = 5,557. Difference between Census 2011 Households with toilets and Census 2001 Households with toilets = -10.4%</title></circle><circle class="distCircs" cx="670.8317096581773" cy="187.81354547964287" r="2.2340665630035046" stroke="#000" stroke-width="0.25" fill="#3ba760" data-q="ARUNACHAL PRADESH" data-r="TIRAP"><title>ARUNACHAL PRADESH - TIRAP: Census 2011 Total Rural Households = 15,458. Census 2011 Households with toilets = 13,235. Census 2001 Total Rural Households = 14,846. Census 2001 Households with toilets = 6,355. Difference between Census 2011 Households with toilets and Census 2001 Households with toilets = 42.8%</title></circle><circle class="distCircs" cx="664.8490484474959" cy="158.19581572280185" r="2.0543929345269216" stroke="#000" stroke-width="0.25" fill="#80c681" data-q="ARUNACHAL PRADESH" data-r="UPPER SIANG"><title>ARUNACHAL PRADESH - UPPER SIANG: Census 2011 Total Rural Households = 5,652. Census 2011 Households with toilets = 3,183. Census 2001 Total Rural Households = 6,647. Census 2001 Households with toilets = 1,899. Difference between Census 2011 Households with toilets and Census 2001 Households with toilets = 27.7%</title></circle><circle class="distCircs" cx="651.9795368249361" cy="173.63642861355777" r="2.2013785797615517" stroke="#000" stroke-width="0.25" fill="#f2bb8d" data-q="ARUNACHAL PRADESH" data-r="UPPER SUBANSIRI"><title>ARUNACHAL PRADESH - UPPER SUBANSIRI: Census 2011 Total Rural Households = 12,952. Census 2011 Households with toilets = 4,455. Census 2001 Total Rural Households = 8,086. Census 2001 Households with toilets = 4,116. Difference between Census 2011 Households with toilets and Census 2001 Households with toilets = -16.5%</title></circle><circle class="distCircs" cx="622.5978632692306" cy="180.6896106383133" r="2.1954854656308807" stroke="#000" stroke-width="0.25" fill="#fffdbe" data-q="ARUNACHAL PRADESH" data-r="WEST KAMENG"><title>ARUNACHAL PRADESH - WEST KAMENG: Census 2011 Total Rural Households = 12,542. Census 2011 Households with toilets = 4,876. Census 2001 Total Rural Households = 12,882. Census 2001 Households with toilets = 5,055. Difference between Census 2011 Households with toilets and Census 2001 Households with toilets = -0.4%</title></circle><circle class="distCircs" cx="643.4907610748429" cy="167.91095115587848" r="2.233209651652309" stroke="#000" stroke-width="0.25" fill="#fffcbd" data-q="ARUNACHAL PRADESH" data-r="WEST SIANG"><title>ARUNACHAL PRADESH - WEST SIANG: Census 2011 Total Rural Households = 15,387. Census 2011 Households with toilets = 10,936. Census 2001 Total Rural Households = 13,928. Census 2001 Households with toilets = 9,985. Difference between Census 2011 Households with toilets and Census 2001 Households with toilets = -0.6%</title></circle></g></g></svg>