<?xml version="1.0" standalone="no"?><!DOCTYPE svg PUBLIC "-//W3C//DTD SVG 1.1//EN" "http://www.w3.org/Graphics/SVG/1.1/DTD/svg11.dtd"><svg id="chart" width="960" height="500" class="dorlingCart" data-type="dorlingCart" version="1.1" xmlns:xlink="http://www.w3.org/1999/xlink" xmlns="http://www.w3.org/2000/svg"><defs class="svg-crowbar"><style type="text/css"><![CDATA[.feature{ fill: #fcfcfc; stroke: #000000; stroke-width: 0.2px; cursor: pointer; }]]></style></defs>
<g><g transform="translate(-2045.447265625,-544.9395751953125)scale(4,4)">
<path class="feature" data-q="ASSAM" d="M625.5802607378073,220.4578363498287L625.7952818892559,220.35965943723897L625.9242945801245,220.31056915999739L626.0103030407042,220.2123849626339L626.0963115012835,220.0650995564224L626.182319961863,219.9669032098655L626.2683284224422,219.86870200086383L626.3543368830219,219.67228498919832L626.3973411133113,219.57406918336994L626.5263538041806,219.42673634518104L626.5693580344703,219.37762296380663L626.6553664950497,219.32850836444754L626.8703876464979,219.37762296380663L626.999400337367,219.32850836444754L627.2574257191054,219.2302755109813L627.3434341796847,219.08291709094226L627.3434341796847,219.03379517951282L627.2574257191054,218.93554769834088L627.1714172585259,218.8372953380976L627.1284130282361,218.73903809719712L627.1284130282361,218.6407759740532L627.2574257191054,218.49337363166217L627.4294426402644,218.49337363166217L627.6014595614229,218.5425089670805L627.7734764825816,218.73903809719712L627.8164807128715,218.8372953380976L627.9454934037406,218.98467204871162L628.03150186432,218.93554769834088L628.1175103248993,218.88642212820247L628.2035187854785,218.73903809719712L628.3755357066375,218.6407759740532L628.6335610883755,218.49337363166217L628.9345907004033,218.24767862731898L629.1066076215623,218.0511006192363L629.278624542721,217.80535058252792L629.4506414638797,217.65788587011423L629.6656626153285,217.55956993753176L629.9236879970665,217.55956993753176L630.1387091485149,217.60872851638595L630.2677218393842,217.75619690298635L630.5257472211222,217.8545030377378L630.6977641422811,217.75619690298635L630.8267768331502,217.60872851638595L630.9557895240193,217.5104101333527L630.9557895240193,217.3629233668762L630.8697810634396,217.31375865940834L630.7407683725705,217.26459272562113L630.6117556817017,217.01874465493648L630.6547599119913,216.8220441043506L630.6547599119913,216.62532390081782L630.7837726028604,216.47777084325617L630.8267768331502,216.37939599002988L630.8267768331502,216.18263152076133L630.8267768331502,216.0842419015283L630.7837726028604,215.88744788589048L630.6977641422811,215.78904348629436L630.6117556817017,215.64142764268786L630.5257472211222,215.4938007012375L630.2677218393842,215.2477311223015L630.1387091485149,215.05085323590464L629.7086668456179,214.75549933758396L629.6226583850387,214.657038146753L629.4936456941696,214.50933708182487L629.1926160821417,214.21390152890973L628.9345907004033,214.0169197184594L628.7625737792448,213.91842137587554L628.6335610883755,213.7706645607936L628.5475526277962,213.67215381426178L628.4185399369271,213.52437838574173L628.2895272460582,213.27806116824075L628.2465230157684,213.1795255837369L628.1605145551891,212.9824394958942L628.1175103248993,212.78533350556165L628.1175103248993,212.6867730429454L628.1605145551891,212.5882075998856L628.2465230157684,212.5389230101868L628.3755357066375,212.4896371747742L628.4615441672165,212.3417721922437L628.5045483975064,212.24318930496833L628.5475526277962,212.09530562164986L628.6335610883755,211.996710262154L628.719569548955,211.89810991095277L628.8055780095342,211.75020002118066L628.848582239824,211.7008942269934L628.9345907004033,211.60227889101367L628.9775949306932,211.60227889101367L628.8915864701139,211.40503322299793L628.8055780095342,211.3064028877372L628.7625737792448,211.25708584408875L628.6335610883755,211.20776754949333L628.5045483975064,211.15844800374748L628.3755357066375,211.05980515800223L628.3325314763476,211.05980515800223L628.2895272460582,211.0104818575992L628.1175103248993,210.96115730523985L627.9884976340302,210.862504443847L627.8594849431611,210.8131761344095L627.7304722522917,210.6651836887134L627.6014595614229,210.51717996270025L627.5154511008436,210.41850454249095L627.3864384099745,210.27048200383723L627.300429949395,210.17179403681774L627.1714172585259,210.17179403681774L626.999400337367,210.1224481703266L626.7843791859186,210.07310104824523L626.6123622647599,210.02375267037178L626.3973411133113,209.92505214643876L626.182319961863,209.8263465969104L626.1393157315731,209.8263465969104L626.0103030407042,209.727636020168L625.8812903498351,209.6289204145951L625.752277658966,209.48083757363554L625.5802607378073,209.13526689759743L625.4512480469382,209.03652108503377L625.3222353560691,208.8390143377821L625.1932226651998,208.78963449934366L625.0642099743307,208.69087103909834L624.7631803623033,208.64148741688558L624.5481592108545,208.59210253300944L624.4191465199856,208.64148741688558L624.2901338291165,208.64148741688558L624.1611211382472,208.69087103909834L624.0751126776679,208.69087103909834L623.903095756509,208.78963449934366L623.6020661444811,208.93777023230274L623.387044993033,208.98714628879077L623.215028071874,209.03652108503377L623.0430111507153,209.03652108503377L622.9139984598462,208.98714628879077L622.7849857689771,208.93777023230274L622.5699646175285,208.93777023230274L622.3549434660802,208.98714628879077L622.1829265449214,209.03652108503377L622.0969180843417,209.18463791432202L622.0539138540523,209.28337616967048L622.0109096237625,209.43147411047983L621.9679053934726,209.53019977857156L621.924901163183,209.6289204145951L621.7958884723143,209.727636020168L621.7098800117346,209.87569999997527L621.666875781445,209.92505214643876L621.5808673208655,209.97440303650347L621.4948588602861,209.97440303650347L621.4518546299967,209.92505214643876L621.365846169417,209.727636020168L621.365846169417,209.57956072549098L621.365846169417,209.33274340870003L621.365846169417,209.08589462123507L621.4088503997068,208.98714628879077L621.4088503997068,208.8390143377821L621.4088503997068,208.69087103909834L621.4088503997068,208.54271638726675L621.4088503997068,208.39455037681137L621.365846169417,208.29576672345695L621.365846169417,208.1969780177668L621.3228419391276,208.04878548255283L621.365846169417,207.90058157045002L621.4088503997068,207.70295864745236L621.5378630905759,207.55472816794838L621.666875781445,207.30765204345533L621.7098800117346,207.15939116462152L621.8818969328934,206.91226434203548L621.9679053934726,206.81340473300094L622.0969180843417,206.66510580007298L622.2259307752108,206.51679543900622L622.2689350055007,206.31903050430446L622.2689350055007,206.22014041045094L622.2259307752108,206.12124523008794L622.1399223146316,206.07179573195583L622.0539138540523,206.07179573195583L621.924901163183,206.07179573195583L621.7958884723143,206.02234496158388L621.666875781445,205.97289291876916L621.6238715511549,205.9234396033077L621.5808673208655,205.77507201899874L621.5808673208655,205.62669297351948L621.6238715511549,205.42883640819917L621.7098800117346,205.32990047700002L621.752884242024,205.23095944459567L621.8818969328934,205.08253832765337L621.924901163183,205.0330620696327L622.4409519266594,204.58771827916388L622.5699646175285,204.48873893559102L622.7419815386872,204.34026032888568L622.8709942295563,204.24126819446258L622.9570026901356,204.0927703938043L623.0000069204254,203.94426106939915L623.0000069204254,203.84524844831628L622.9570026901356,203.74623070146885L622.8709942295563,203.64720782721776L622.7849857689771,203.59769446680298L622.6129688478181,203.59769446680298L622.4409519266594,203.59769446680298L622.3119392357903,203.54817982392177L622.0969180843417,203.59769446680298L621.8818969328934,203.59769446680298L621.7098800117346,203.59769446680298L621.4518546299967,203.54817982392177L621.1938292482582,203.59769446680298L620.9788080968099,203.59769446680298L620.8067911756511,203.64720782721776L620.6347742544922,203.64720782721776L620.4197531030436,203.64720782721776L620.2047319515952,203.64720782721776L619.9467065698573,203.59769446680298L619.7746896486983,203.54817982392177L619.5166642669603,203.54817982392177L619.3446473458014,203.59769446680298L619.1726304246426,203.64720782721776L619.0436177337735,203.69671990537148L618.9146050429044,203.84524844831628L618.828596582325,203.94426106939915L618.7855923520351,204.0927703938043L618.6995838914559,204.19177020765153L618.656579661166,204.34026032888568L618.5705712005868,204.43924734573977L618.4415585097177,204.48873893559102L618.2695415885589,204.53822924666434L618.14052889769,204.53822924666434L617.9685119765311,204.53822924666434L617.839499285662,204.48873893559102L617.7534908250825,204.48873893559102L617.5814739039236,204.38975447690655L617.5384696736342,204.34026032888568L617.4524612130547,204.29076490147287L617.409456982765,204.24126819446258L617.3664527524754,204.14227094083333L617.3234485221856,204.0432685663589L617.2374400616063,203.84524844831628L617.2374400616063,203.74623070146885L617.1944358313165,203.59769446680298L617.1084273707372,203.3996281984302L617.0224189101577,203.2510650233561L616.8504019889988,203.15201648746933L616.7213892981297,203.15201648746933L616.5923766072608,203.10249029315816L616.4633639163917,203.15201648746933L616.291346995233,203.2015413974666L616.1623343043639,203.30058736534335L616.0763258437846,203.3996281984302L615.9903173832049,203.49866389836956L615.8183004620462,203.64720782721776L615.6892877711771,203.74623070146885L615.6032793105978,203.795740215715L615.4312623894391,203.99376545829205L615.3882581591492,204.0432685663589L615.2162412379905,204.0927703938043L615.130232777411,204.29076490147287L615.130232777411,204.43924734573977L615.130232777411,204.58771827916388L615.0872285471214,204.6866925092628L615.044224316832,204.83514427022845L615.044224316832,204.98358453508433L615.044224316832,205.08253832765337L615.044224316832,205.23095944459567L615.044224316832,205.2804305985506L615.0012200865419,205.42883640819917L614.9152116259629,205.52776723982794L614.8292031653834,205.5772307438138L614.7431947048037,205.67615392914956L614.6141820139346,205.77507201899874L614.5711777836452,205.87398501499473L614.5281735533554,205.97289291876916L614.4421650927761,206.17069345618484L614.3991608624863,206.26958609308974L614.2701481716172,206.31903050430446L614.1411354807483,206.26958609308974L614.0981312504584,206.17069345618484L614.0551270201688,206.07179573195583L614.012122789879,206.07179573195583L613.9261143292997,206.07179573195583L613.8831100990099,206.02234496158388L613.7971016384306,205.97289291876916L613.7540974081408,205.87398501499473L613.7540974081408,205.72561361090789L613.7971016384306,205.5772307438138L613.8401058687205,205.37936908014848L613.8401058687205,205.18148701493072L613.8831100990099,204.98358453508433L613.8831100990099,204.83514427022845L613.8831100990099,204.6866925092628L613.8401058687205,204.48873893559102L613.6680889475615,204.38975447690655L613.4960720264028,204.34026032888568L613.324055105244,204.34026032888568L613.1950424143749,204.34026032888568L613.1090339537957,204.38975447690655L613.023025493216,204.48873893559102L612.9370170326367,204.6372060332954L612.8080043417674,204.78566162752463L612.7219958811881,204.93410572380344L612.6789916508983,205.08253832765337L612.6359874206089,205.23095944459567L612.5929831903193,205.32990047700002L612.5499789600294,205.42883640819917L612.5069747297398,205.47830246135754L612.4209662691603,205.52776723982794L612.2919535782912,205.47830246135754L612.1199366571325,205.52776723982794L612.033928196553,205.5772307438138L611.9049155056841,205.72561361090789L611.9049155056841,205.8245291536266L611.9049155056841,205.9234396033077L612.033928196553,205.97289291876916L612.1629408874221,205.97289291876916L612.2919535782912,206.02234496158388L612.3349578085811,206.07179573195583L612.3349578085811,206.17069345618484L612.205945117712,206.26958609308974L612.1199366571325,206.26958609308974L612.033928196553,206.26958609308974L611.9049155056841,206.26958609308974L611.7759028148148,206.26958609308974L611.8189070451044,206.46735611144663L611.9049155056841,206.56623349616115L611.9479197359735,206.56623349616115L612.0769324268426,206.56623349616115L612.205945117712,206.66510580007298L612.205945117712,206.7639730248123L612.1629408874221,206.91226434203548L612.033928196553,207.0111188759701L611.7759028148148,207.06054424028366L611.6468901239457,207.06054424028366L611.5178774330768,207.10996833643327L611.3028562816285,207.06054424028366L611.04483089989,207.0111188759701L610.9158182090209,207.0111188759701L610.5717843667032,207.0111188759701L610.3567632152549,207.10996833643327L610.2277505243858,207.15939116462152L610.0127293729374,207.15939116462152L609.8407124517785,207.25823301792934L609.7116997609094,207.35706980183522L609.66869553062,207.40648629327092L609.5396828397506,207.50531547612388L609.4106701488815,207.60413959364286L609.3246616883023,207.65354975340932L609.0666363065639,207.90058157045002L608.9376236156952,208.04878548255283L608.8516151551155,208.1969780177668L608.7656066945362,208.34515918157445L608.6795982339568,208.49332897945493L608.5505855430879,208.64148741688558L608.4215728522188,208.78963449934366L608.2925601613497,208.88839291536738L608.2065517007704,209.08589462123507L608.1205432401907,209.28337616967048L608.0345347796115,209.43147411047983L607.9055220887421,209.57956072549098L607.8195136281629,209.57956072549098L607.7335051675836,209.53019977857156L607.6474967070042,209.43147411047983L607.6044924767143,209.33274340870003L607.5614882464249,209.18463791432202L607.5184840161351,209.03652108503377L607.4754797858452,208.93777023230274L607.4324755555558,208.78963449934366L607.389471325266,208.59210253300944L607.3464670949763,208.54271638726675L607.2604586343969,208.44394030937093L607.2604586343969,208.34515918157445L607.2174544041072,208.24637300225567L607.1744501738174,208.09818425811886L607.1314459435275,207.99938544288847L607.1744501738174,207.8511777372704L607.2174544041072,207.75236627597468L607.3034628646865,207.70295864745236L607.3034628646865,207.60413959364286L607.5184840161351,207.4559015179658L607.5614882464249,207.30765204345533L607.6044924767143,207.15939116462152L607.5614882464249,206.96169224328884L607.4324755555558,206.96169224328884L607.1744501738174,207.0111188759701L607.0454374829483,207.06054424028366L606.9164247920792,207.10996833643327L606.7444078709204,207.15939116462152L606.5293867194721,207.30765204345533L606.3143655680235,207.35706980183522L606.0993444165749,207.4559015179658L605.9273274954164,207.4559015179658L605.8413190348369,207.55472816794838L605.7123063439678,207.60413959364286L605.6262978833886,207.55472816794838L605.669302113678,207.4559015179658L605.7553105742577,207.35706980183522L605.8413190348369,207.25823301792934L605.8843232651266,207.10996833643327L605.8843232651266,207.0111188759701L605.7123063439678,207.0111188759701L605.4972851925195,207.06054424028366L605.3252682713605,207.06054424028366L605.2822640410709,207.15939116462152L605.1962555804912,207.35706980183522L605.0672428896223,207.4559015179658L604.8952259684638,207.4559015179658L604.852221738174,207.30765204345533L604.8952259684638,207.20881272505233L604.9382301987532,207.10996833643327L605.0242386593329,206.96169224328884L604.9812344290431,206.7639730248123L604.8952259684638,206.7639730248123L604.7662132775947,206.66510580007298L604.7662132775947,206.56623349616115L604.7662132775947,206.41791551327907L604.7232090473049,206.36847364429946L604.6802048170152,206.31903050430446L604.6802048170152,206.22014041045094L604.5941963564358,206.12124523008794L604.4651836655664,206.17069345618484L604.3791752049872,206.22014041045094L604.2501625141183,206.31903050430446L604.1641540535386,206.22014041045094L604.0781455929593,206.22014041045094L603.9921371323801,206.26958609308974L603.8631244415108,206.26958609308974L603.7341117506417,206.17069345618484L603.6911075203523,206.12124523008794L603.6050990597726,206.07179573195583L603.4760863689035,206.12124523008794L603.4330821386138,206.12124523008794L603.3900779083244,206.02234496158388L603.304069447745,205.97289291876916L603.2180609871655,205.97289291876916L603.0460440660067,206.02234496158388L603.0460440660067,205.9234396033077L602.9600356054275,205.87398501499473L602.7880186842685,205.9234396033077L602.7020102236891,205.97289291876916L602.5299933025306,205.97289291876916L602.4009806116612,205.97289291876916L602.3579763813716,205.9234396033077L602.2289636905023,205.8245291536266L602.0999509996334,205.8245291536266L601.8849298481848,205.8245291536266L601.7989213876053,205.87398501499473L601.7559171573159,205.97289291876916L601.7129129270263,206.02234496158388L601.5408960058674,206.17069345618484L601.4118833149982,206.17069345618484L601.2828706241291,206.17069345618484L601.15385793326,206.12124523008794L601.0678494726806,206.07179573195583L600.9818410121013,206.02234496158388L600.9388367818115,205.97289291876916L600.8528283212322,205.9234396033077L600.8528283212322,205.8245291536266L600.8098240909426,205.72561361090789L600.7238156303633,205.5772307438138L600.594802939494,205.52776723982794L600.2507690971765,205.67615392914956L600.1217564063077,205.77507201899874L600.035747945728,205.87398501499473L599.9497394851487,205.9234396033077L599.8637310245692,206.02234496158388L599.7347183337001,206.07179573195583L599.5627014125412,206.12124523008794L599.4766929519619,206.26958609308974L599.3906844913824,206.36847364429946L599.3906844913824,206.46735611144663L599.3476802610928,206.66510580007298L599.2616718005133,206.66510580007298L599.0896548793548,206.66510580007298L599.1756633399341,206.51679543900622L599.1326591096445,206.31903050430446L599.0036464187754,206.26958609308974L599.046650649065,206.22014041045094L599.046650649065,206.17069345618484L599.046650649065,206.02234496158388L599.046650649065,205.87398501499473L598.9606421884855,205.8245291536266L598.788625267327,205.8245291536266L598.616608346168,205.9234396033077L598.4445914250093,206.02234496158388L598.3155787341402,206.12124523008794L598.1865660432709,206.17069345618484L598.0575533524022,206.17069345618484L597.9285406615329,206.17069345618484L597.8855364312433,206.02234496158388L597.7995279706638,205.87398501499473L597.7995279706638,205.77507201899874L597.7995279706638,205.62669297351948L597.756523740374,205.32990047700002L597.756523740374,205.23095944459567L597.756523740374,205.0330620696327L597.7135195100846,204.88462563558664L597.5845068192154,204.78566162752463L597.4554941283461,204.73617770727168L597.2404729768978,204.73617770727168L597.1114602860287,204.83514427022845L596.810430674001,204.88462563558664L596.5954095225522,204.78566162752463L596.2943799105244,204.73617770727168L596.0793587590761,204.83514427022845L595.9503460682067,204.83514427022845L595.8213333773381,204.83514427022845L595.6063122258893,204.88462563558664L595.4342953047305,204.93410572380344L595.2622783835716,204.88462563558664L594.789231850385,204.83514427022845L594.6602191595159,204.83514427022845L594.4021937777779,204.93410572380344L594.1871726263294,204.98358453508433L594.0151557051704,205.0330620696327L593.8431387840119,205.0330620696327L593.6281176325633,205.0330620696327L593.4561007114044,205.0330620696327L593.1980753296664,205.0330620696327L593.0260584085077,205.13201330935118L592.4239991844518,205.37936908014848L591.692927269527,205.8245291536266L591.0908680454713,206.12124523008794L590.875846894023,206.26958609308974L590.703829972864,206.46735611144663L590.5318130517053,206.66510580007298L590.4028003608362,206.7639730248123L590.2307834396775,207.0111188759701L590.1017707488083,207.20881272505233L590.0157622882286,207.35706980183522L589.8007411367803,207.60413959364286L589.6717284459114,207.70295864745236L589.4997115247527,207.80177263918006L589.3706988338836,207.9499841389216L589.2846903733041,208.09818425811886L589.2846903733041,208.24637300225567L589.1986819127246,208.44394030937093L589.1126734521451,208.64148741688558L589.0696692218555,208.78963449934366L589.0266649915659,208.93777023230274L588.9836607612763,209.08589462123507L588.8546480704072,209.18463791432202L588.6826311492484,209.28337616967048L588.596622688669,209.33274340870003L588.42460576751,209.38210938890194L588.42460576751,209.48083757363554L588.4676099977999,209.57956072549098L588.596622688669,209.727636020168L588.7686396098277,209.97440303650347L588.8546480704072,210.07310104824523L589.0266649915659,210.22113864792078L589.0696692218555,210.3691649509205L589.1986819127246,210.46784287968381L589.3706988338836,210.7145157570448L589.4567072944628,210.8131761344095L589.714732676201,211.0104818575992L589.9297538276494,211.15844800374748L590.0587665185187,211.25708584408875L590.1447749790977,211.3557186806401L590.1447749790977,211.45434651501205L590.1017707488083,211.5529693488192L590.0157622882286,211.7008942269934L589.8867495973598,211.75020002118066L589.714732676201,211.79950456643598L589.4997115247527,211.89810991095277L589.327694603594,211.89810991095277L589.2416861430142,211.996710262154L589.1986819127246,212.1938959910505L589.1986819127246,212.24318930496833L589.1126734521451,212.3417721922437L589.0696692218555,212.3417721922437L588.9406565309866,212.3417721922437L588.8116438401175,212.29248137196544L588.6826311492484,212.24318930496833L588.5106142280895,212.1938959910505L588.3385973069308,212.09530562164986L588.2095846160616,211.996710262154L587.9515592343237,211.79950456643598L588.1235761554824,211.5036585568854L588.0805719251925,211.3557186806401L587.9945634646133,210.96115730523985L587.8655507737442,210.76384657220956L587.7365380828751,210.56651579174263L587.6505296222956,210.3691649509205L587.4785127011369,210.1224481703266L587.3925042405574,209.92505214643876L587.3064957799779,209.48083757363554L587.3495000102678,209.28337616967048L587.3495000102678,209.08589462123507L587.3495000102678,208.78963449934366L587.3495000102678,208.54271638726675L587.3064957799779,208.29576672345695L587.3064957799779,208.24637300225567L587.3064957799779,207.9499841389216L587.3925042405574,207.65354975340932L587.3925042405574,207.50531547612388L587.3495000102678,207.30765204345533L587.3495000102678,207.10996833643327L587.3925042405574,206.91226434203548L587.4785127011369,206.7639730248123L587.5645211617164,206.66510580007298L587.6935338525852,206.56623349616115L587.7795423131647,206.51679543900622L587.8655507737442,206.36847364429946L587.9945634646133,206.31903050430446L587.9945634646133,206.12124523008794L587.9945634646133,205.97289291876916L587.9515592343237,205.87398501499473L588.0375676949027,205.72561361090789L588.0805719251925,205.62669297351948L588.0805719251925,205.47830246135754L587.9945634646133,205.42883640819917L587.8225465434546,205.37936908014848L587.6935338525852,205.2804305985506L587.6505296222956,205.13201330935118L587.6505296222956,205.0330620696327L587.6935338525852,204.98358453508433L587.8655507737442,204.83514427022845L587.8225465434546,204.6866925092628L587.7795423131647,204.58771827916388L587.6935338525852,204.43924734573977L587.5215169314265,204.43924734573977L587.4785127011369,204.43924734573977L587.2204873193989,204.43924734573977L587.0914746285298,204.34026032888568L587.0484703982399,204.19177020765153L586.9624619376605,204.0432685663589L586.9194577073708,203.89475539947546L586.8334492467914,203.795740215715L586.7904450165017,203.54817982392177L586.7474407862121,203.3996281984302L586.7044365559225,203.2015413974666L586.618428095343,203.15201648746933L586.5324196347635,203.00343405077615L586.3604027136048,202.7557709549618L586.3173984833152,202.60715766763758L586.2743942530253,202.35944312122461L586.2743942530253,202.2107989438053L586.1883857924461,202.1116963847757L586.1023773318666,202.0125886712246L585.9733646409977,201.91347580150693L585.8443519501284,201.8143577739749L585.8443519501284,201.61610623887572L585.8443519501284,201.46740403603275L585.7583434895489,201.31869021142L585.7153392592593,201.07080799579234L585.8013477198388,200.92206315257715L585.8873561804182,200.77330666717359L585.8443519501284,200.62453853400876L585.8873561804182,200.37656574634553L586.0163688712873,200.32696730209534L586.1453815621562,200.32696730209534L586.3173984833152,200.2277665252248L586.4894154044737,200.17816419219088L586.4034069438947,199.97974189124142L586.446411174184,199.83091154248467L586.446411174184,199.68206951062677L586.5754238650532,199.68206951062677L586.7904450165017,199.68206951062677L586.8764534770812,199.73168481971305L587.0914746285298,199.73168481971305L587.2634915496885,199.63245290279713L587.2204873193989,199.48359528478045L587.2634915496885,199.43397347990862L587.3064957799779,199.2851002657958L587.3064957799779,199.1858449547351L587.1774830891088,199.0369522315217L587.1774830891088,198.987318721189L587.3064957799779,198.88804779538827L587.4355084708473,198.7391316407373L587.5215169314265,198.5405585293878L587.607525392006,198.3419645618871L587.607525392006,198.24265975292906L587.6935338525852,198.04403447629522L587.7795423131647,197.94471400529466L587.7795423131647,197.7957235032664L587.7795423131647,197.59705120684765L587.8655507737442,197.44803325697137L587.8655507737442,197.29900353437296L587.8655507737442,197.14996203343475L587.908555004034,197.05059448651264L587.908555004034,196.85184367406106L587.9515592343237,196.70276680438008L587.9515592343237,196.50397928698823L587.908555004034,196.2554653678527L587.9945634646133,196.05663059836235L587.9515592343237,195.85777480624478L587.9945634646133,195.65889797814003L587.9945634646133,195.55945167141613L587.9515592343237,195.26108116050347L587.908555004034,195.1118781249079L587.908555004034,195.01240284544212L587.9515592343237,194.81343646521202L587.9515592343237,194.71394536110057L587.9515592343237,194.4651945048991L587.908555004034,194.2661700503126L587.908555004034,194.16664989520166L587.9515592343237,193.91782637117473L587.9515592343237,193.6689697743949L587.908555004034,193.469860666967L587.8225465434546,193.3702981653019L587.7795423131647,193.12136871613785L587.8225465434546,192.9719951330954L587.9945634646133,192.72301262057027L588.1235761554824,192.82260960795975L588.2095846160616,192.82260960795975L588.3385973069308,192.8724061102542L588.5106142280895,192.9719951330954L588.7686396098277,192.9719951330954L588.9836607612763,192.9719951330954L589.0696692218555,192.9719951330954L589.155677682435,192.9719951330954L589.3706988338836,192.8724061102542L589.5427157550423,192.82260960795975L589.8437453670704,192.8724061102542L590.1017707488083,192.92220128522962L590.3167919002567,192.8724061102542L590.5748172819951,192.82260960795975L590.7898384334435,192.77281177813506L591.0048595848918,192.77281177813506L591.2198807363404,192.67321213505494L591.4779061180784,192.573607179332L591.5209103483683,192.52380270870395L591.9079484209758,192.52380270870395L592.2089780330034,192.4241897808608L592.2949864935829,192.37438132322575L592.5100076450315,192.27476041947529L592.6390203359003,192.1751341963486L592.7250287964796,192.02568488414215L592.7680330267694,191.82640050099172L592.7680330267694,191.62709481000297L592.7680330267694,191.27825853820622L592.8540414873487,191.02904975507062L593.0690626387973,190.7299551541937L593.1550710993768,190.68010137794244L593.413096481115,190.63024626509736L593.5851134022735,190.68010137794244L593.8431387840119,190.7299551541937L594.0151557051704,190.7299551541937L594.1441683960397,190.7299551541937L594.2731810869088,190.68010137794244L594.4451980080676,190.5803898154482L594.6602191595159,190.3310875077334L594.789231850385,190.18149006791828L594.8322360806749,190.08175174818984L594.9182445412541,189.98200807193723L594.961248771544,189.93213422458615L595.1332656927027,189.8323825103746L595.3912910744407,189.78250464309116L595.6063122258893,189.78250464309116L595.7353249167584,189.8323825103746L595.9073418379171,189.88225903746923L596.0363545287862,189.98200807193723L596.3373841408143,190.3310875077334L596.5524052922628,190.48067290488984L596.5954095225522,190.53053202878294L596.7244222134213,190.63024626509736L596.810430674001,190.68010137794244L596.9824475951593,190.68010137794244L597.3694856677669,190.82965869776092L597.5845068192154,190.97920399394383L597.6705152797947,191.02904975507062L597.8855364312433,191.1287372721917L597.9715448918225,191.17857902860783L598.0575533524022,191.27825853820622L598.2295702735607,191.37793271156647L598.4015871947197,191.42776779768542L598.616608346168,191.5274339698534L598.7026168067473,191.57726505632525L598.788625267327,191.57726505632525L598.8746337279063,191.57726505632525L599.046650649065,191.57726505632525L599.1756633399341,191.62709481000297L599.1756633399341,191.7765760763807L599.2186675702235,191.876223593862L599.2616718005133,191.92604535520354L599.3906844913824,191.9758657852268L599.4766929519619,191.9758657852268L599.605705642831,191.92604535520354L599.6917141034103,191.876223593862L599.77772256399,191.82640050099172L599.9067352548589,191.7765760763807L599.9927437154386,191.7765760763807L600.0787521760176,191.7765760763807L600.2937733274659,191.7765760763807L600.3797817880456,191.876223593862L600.4657902486249,191.92604535520354L600.5517987092044,192.02568488414215L600.594802939494,192.02568488414215L600.7668198606527,192.02568488414215L600.8958325515218,192.02568488414215L601.0678494726806,191.9758657852268L601.1968621635497,191.9758657852268L601.2828706241291,191.9758657852268L601.3688790847086,191.92604535520354L601.5408960058674,191.876223593862L601.7129129270263,191.82640050099172L601.8419256178952,191.82640050099172L601.9279340784744,191.82640050099172L602.2289636905023,191.876223593862L602.314972151082,191.92604535520354L602.4439848419511,191.92604535520354L602.6160017631098,191.92604535520354L602.7450144539789,191.876223593862L602.9170313751376,191.82640050099172L603.0030398357169,191.7765760763807L603.1750567568758,191.876223593862L603.4330821386138,191.92604535520354L603.5190905991933,191.92604535520354L603.6481032900624,191.92604535520354L603.7771159809315,191.876223593862L603.9061286718006,191.7765760763807L604.0781455929593,191.72675031981964L604.2931667444079,191.72675031981964L604.5081878958563,191.7765760763807L604.7232090473049,191.7765760763807L604.9812344290431,191.67692323109702L605.239259810781,191.62709481000297L605.3252682713605,191.57726505632525L605.4972851925195,191.5274339698534L605.669302113678,191.47760155037741L605.7553105742577,191.42776779768542L605.7983148045473,191.32809629181048L605.8843232651266,191.17857902860783L605.9703317257063,191.07889418108329L606.0563401862853,190.97920399394383L606.1853528771544,190.92935689749038L606.3573697983134,190.97920399394383L606.4433782588926,191.02904975507062L606.5293867194721,191.1287372721917L606.6153951800516,191.17857902860783L606.8304163315001,191.22841945054228L607.0024332526589,191.22841945054228L607.1744501738174,191.17857902860783L607.389471325266,191.1287372721917L607.6044924767143,191.1287372721917L607.8195136281629,191.17857902860783L607.9915305493219,191.22841945054228L608.1635474704806,191.32809629181048L608.2925601613497,191.42776779768542L608.3785686219289,191.5274339698534L608.5075813127978,191.62709481000297L608.6365940036669,191.72675031981964L608.8086109248259,191.7765760763807L608.8946193854053,191.82640050099172L608.9806278459846,191.876223593862L609.238653227723,191.876223593862L609.3676659185917,191.876223593862L609.6256913003301,191.72675031981964L609.66869553062,191.67692323109702L609.8407124517785,191.47760155037741L609.8837166820683,191.37793271156647L609.9697251426478,191.22841945054228L610.0987378335165,191.02904975507062L610.1417420638068,190.87950846549955L610.0987378335165,190.7299551541937L610.2277505243858,190.63024626509736L610.3567632152549,190.7299551541937L610.4427716758341,190.82965869776092L610.5717843667032,190.97920399394383L610.7868055181518,191.1287372721917L610.9588224393108,191.27825853820622L611.04483089989,191.32809629181048L611.0878351301797,191.42776779768542L611.2168478210488,191.5274339698534L611.3888647422077,191.57726505632525L611.5608816633664,191.67692323109702L611.7328985845254,191.7765760763807L611.9479197359735,191.72675031981964L612.1199366571325,191.72675031981964L612.2489493480016,191.62709481000297L612.3349578085811,191.57726505632525L612.6359874206089,191.47760155037741L612.7219958811881,191.42776779768542L612.8510085720573,191.42776779768542L613.0660297235058,191.32809629181048L613.1520381840851,191.17857902860783L613.2380466446648,191.02904975507062L613.3670593355337,190.97920399394383L613.4530677961131,190.97920399394383L613.5820804869825,191.07889418108329L613.7110931778514,191.22841945054228L613.7540974081408,191.32809629181048L613.9261143292997,191.42776779768542L614.0551270201688,191.5274339698534L614.2271439413275,191.57726505632525L614.2701481716172,191.5274339698534L614.4421650927761,191.42776779768542L614.5711777836452,191.37793271156647L614.7431947048037,191.37793271156647L614.9152116259629,191.32809629181048L615.0012200865419,191.27825853820622L615.1732370077011,191.17857902860783L615.3452539288594,191.07889418108329L615.4312623894391,190.97920399394383L615.5172708500183,190.87950846549955L615.7322920014669,190.68010137794244L615.9903173832049,190.63024626509736L616.0763258437846,190.5803898154482L616.2483427649431,190.53053202878294L616.3773554558124,190.43081244355875L616.4633639163917,190.3310875077334L616.6353808375507,190.18149006791828L616.7213892981297,189.88225903746923L616.7643935284198,189.78250464309116L617.0224189101577,189.6328629979888L617.2804442918957,189.58297976783143L617.5384696736342,189.58297976783143L617.7534908250825,189.68274488711018L617.9255077462412,189.78250464309116L618.0975246674002,189.88225903746923L618.2265373582693,190.13162157751356L618.3555500491386,190.28122303281708L618.4415585097177,190.43081244355875L618.6135754308766,190.5803898154482L618.9146050429044,190.68010137794244L619.0866219640634,190.68010137794244L619.3016431155115,190.53053202878294L619.4306558063806,190.48067290488984L619.5596684972497,190.5803898154482L619.6456769578292,190.68010137794244L619.7746896486983,190.7299551541937L619.9897108001467,190.68010137794244L620.1617277213054,190.63024626509736L620.2907404121745,190.5803898154482L620.376748872754,190.53053202878294L620.4627573333335,190.43081244355875L620.5057615636231,190.3310875077334L620.5917700242023,190.13162157751356L620.6347742544922,189.98200807193723L620.6347742544922,189.8323825103746L620.8067911756511,190.0318805797349L620.8497954059408,190.08175174818984L621.0218123270993,190.18149006791828L621.107820787679,190.18149006791828L621.4088503997068,190.2313572196157L621.4948588602861,190.18149006791828L621.7098800117346,190.2313572196157L621.7958884723143,190.2313572196157L621.924901163183,190.2313572196157L622.0969180843417,190.18149006791828L622.2689350055007,190.13162157751356L622.3549434660802,190.08175174818984L622.4839561569488,189.93213422458615L622.5699646175285,189.88225903746923L622.6989773083976,189.88225903746923L622.9570026901356,189.8323825103746L623.0860153810049,189.8323825103746L623.3440407627429,189.88225903746923L623.5160576839019,189.88225903746923L623.7740830656401,189.88225903746923L624.032108447378,189.68274488711018L624.0751126776679,189.58297976783143L624.2901338291165,189.4832092835607L624.4191465199856,189.3834334326031L624.5911634411443,189.3335434940863L624.7631803623033,189.28365221326237L624.9351972834618,189.28365221326237L625.1502184349101,189.28365221326237L625.3222353560691,189.18386562384472L625.5372565075174,189.18386562384472L625.6662691983865,189.18386562384472L625.7952818892559,189.18386562384472L625.9672988104144,189.18386562384472L626.182319961863,189.18386562384472L626.741374955629,189.18386562384472L626.9133918767877,189.08407366265163L627.0854087979467,189.0341756671105L627.2144214888156,188.9842763279891L627.4294426402644,188.93437564507553L627.5584553311332,188.8844736181585L627.6874680220023,188.8345702470246L627.8594849431611,188.73475947126008L628.0745060946094,188.6848520662038L628.2465230157684,188.6349433160832L628.3755357066375,188.5850332206844L628.5045483975064,188.53512177979684L628.5475526277962,188.4852089932064L628.5475526277962,188.33546255709842L628.5475526277962,188.2356248672881L628.5475526277962,188.08585822971565L628.5475526277962,187.9860070669489L628.5045483975064,187.7862885632394L628.5045483975064,187.68642121889349L628.6335610883755,187.6364855228528L628.719569548955,187.6364855228528L628.848582239824,187.6364855228528L628.9775949306932,187.68642121889349L629.1066076215623,187.73635556561806L629.278624542721,187.73635556561806L629.4936456941696,187.73635556561806L629.7516710759078,187.7862885632394L629.8806837667769,187.7862885632394L630.0527006879356,187.7862885632394L630.2247176090943,187.7862885632394L630.4397387605427,187.7862885632394L630.6117556817017,187.83622021197095L630.7837726028604,187.88615051202424L630.9557895240193,187.93607946361294L631.1708106754675,187.9860070669489L631.2998233663368,187.9860070669489L631.6008529783649,188.0359333222462L631.7728698995231,188.08585822971565L631.9018825903922,188.13578178957067L632.0308952812616,188.2356248672881L632.2889206629998,188.43529486070105L632.3319248932896,188.53512177979684L632.4179333538689,188.6848520662038L632.6329545053175,188.8844736181585L632.7619671961863,188.9842763279891L632.8479756567658,189.08407366265163L633.0199925779245,189.18386562384472L633.1490052687936,189.28365221326237L633.4500348808215,189.4832092835607L633.6220518019802,189.5330951964259L634.0520941048771,189.6328629979888L634.267115256326,189.6328629979888L634.4821364077741,189.6328629979888L634.8691744803816,189.58297976783143L635.0841956318297,189.58297976783143L635.2992167832786,189.5330951964259L635.4712337044373,189.43332202902343L635.6862548558856,189.3834334326031L635.9012760073342,189.3335434940863L636.1593013890724,189.28365221326237L636.5033352313901,189.08407366265163L636.8473690737078,189.0341756671105L637.191402916025,188.9842763279891L637.2774113766043,188.9842763279891L637.4064240674736,188.9842763279891L637.621445218922,188.93437564507553L637.7504579097911,188.93437564507553L638.008483291529,188.9842763279891L638.2665086732675,188.9842763279891L638.4385255944264,188.9842763279891L638.6105425155847,189.0341756671105L638.7825594367437,189.0341756671105L638.9545763579024,189.0341756671105L639.1265932790614,189.0341756671105L639.2986102002201,189.08407366265163L639.5566355819583,189.08407366265163L639.6856482728274,189.13397031482629L639.8576651939861,189.13397031482629L640.0296821151451,189.13397031482629L640.2016990363038,189.13397031482629L640.5027286483316,189.18386562384472L640.8037582603595,189.13397031482629L641.0187794118078,189.13397031482629L641.2338005632564,189.13397031482629L641.5778344055736,189.18386562384472L641.706847096443,189.18386562384472L641.9218682478913,189.13397031482629L642.0938851690503,189.13397031482629L642.3949147810781,189.13397031482629L642.5239274719472,189.13397031482629L642.824957083975,189.0341756671105L642.9539697748442,188.9842763279891L643.1259866960031,188.93437564507553L643.2980036171616,188.93437564507553L643.5130247686104,188.8345702470246L643.5560289988998,188.78466553146222L643.6850416897689,188.6848520662038L644.1580882229555,188.2356248672881L644.4591178349835,187.93607946361294L644.7601474470114,187.5865484772835L644.8031516773012,187.53661008197219L644.9321643681703,187.4367292412752L645.0181728287494,187.33684299905724L645.0611770590397,187.2868978518456L645.1901897499083,187.23695135361504L645.3192024407776,187.08710375067966L645.534223592226,187.08710375067966L645.6202320528055,187.1370543032457L645.7492447436746,187.18700350415241L645.8782574345435,187.18700350415241L645.9642658951229,187.18700350415241L646.0932785859923,187.1370543032457L646.1362828162817,187.03715184624326L646.1362828162817,186.8872880195762L646.2222912768609,186.73741201839692L646.2652955071508,186.63748791781626L646.2222912768609,186.3376831182917L646.2222912768609,186.28771091020423L646.1362828162817,186.08780852288237L646.0932785859923,185.93786749369258L646.0932785859923,185.8379000240293L646.0502743557024,185.68793863995614L646.0932785859923,185.5379650352586L646.0932785859923,185.43797584004096L646.1792870465715,185.18797906721596L646.2652955071508,185.0379646853989L646.3943081980199,184.9379482947357L646.5663251191786,184.73789917901684L646.7383420403373,184.53782827268174L647.4264097249725,183.83740830133337L647.5984266461312,183.53714640149985L647.6844351067109,183.43704816734333L647.8134477975798,183.28689055937718L647.8564520278696,183.18677864707104L647.9854647187387,183.0866612604941L648.071473179318,182.93647491260975L648.2004858701871,182.83634383282958L648.2864943307666,182.786276237938L648.4585112519251,182.6861369370721L648.5445197125046,182.6861369370721L648.6735324033737,182.58599215332998L648.8455493245326,182.48584188498904L648.9745620154017,182.3856861303252L649.1895831668498,182.28552488761693L649.3185958577192,182.18535815513877L649.4476085485883,182.08518593116787L649.7056339303265,181.88482500184693L649.7486381606161,181.78463629304719L649.9206550817751,181.6844420858527L650.0496677726439,181.58424237853876L650.1356762332232,181.53414046179682L650.3076931543822,181.28361023860657L650.350697384672,181.18338851354213L650.4367058452513,181.13327558533325L650.6947312269897,180.7824465084206L650.6947312269897,180.63207051028922L650.7377354572791,180.53181294739187L650.7807396875689,180.43154986449343L650.8667481481482,180.28114488635703L650.9957608390175,180.18086799588207L651.2107819904659,179.980297635012L651.3827989116246,179.93015158938096L651.5118116024937,179.88000416115153L651.6838285236527,179.82985535010658L651.8128412145215,179.82985535010658L652.0278623659701,179.77970515602965L652.1138708265494,179.77970515602965L652.2428835174185,179.7295535787033L652.328891977998,179.67940061791205L652.3718962082876,179.62924627343818L652.4579046688671,179.5289334325758L652.4579046688671,179.37845378824125L652.4149004385772,179.27812710079456L652.2858877477083,179.1276266784471L652.1138708265494,178.977113781478L651.9848581356803,178.8767649169249L651.8988496751008,178.77641050375166L651.8558454448112,178.67605054022152L651.7698369842317,178.4753139551321L651.7698369842317,178.32474693369278L651.7268327539423,178.12397145044753L651.7268327539423,178.0235753671971L651.7268327539423,177.8729708103898L651.7268327539423,177.72235373003923L651.8128412145215,177.57172412026597L651.9418539053906,177.47129741672057L652.1138708265494,177.47129741672057L652.1998792871286,177.47129741672057L652.328891977998,177.52151146500825L652.4149004385772,177.67214525256304L652.4149004385772,177.7725608153575L652.3718962082876,177.92317372053986L652.328891977998,178.0235753671971L652.328891977998,178.12397145044753L652.3718962082876,178.22436197203263L652.3718962082876,178.32474693369278L652.5439131294463,178.4753139551321L652.6729258203154,178.52550018420112L652.8449427414741,178.57568502459407L653.0599638929227,178.52550018420112L653.2749850443713,178.52550018420112L653.4900061958197,178.52550018420112L653.6190188866888,178.62586847652858L653.7480315775579,178.67605054022152L654.0060569592961,178.67605054022152L654.1780738804548,178.67605054022152L654.3070865713239,178.62586847652858L654.4360992621928,178.4753139551321L654.4791034924826,178.3749373300954L654.6081161833517,178.32474693369278L654.6941246439312,178.32474693369278L654.7371288742211,178.42512633716944L654.7801331045105,178.52550018420112L654.8231373348003,178.67605054022152L654.8661415650902,178.9269400426702L654.9521500256694,179.0272861335656L655.1241669468282,179.0272861335656L655.3391880982765,178.977113781478L655.5542092497251,178.9269400426702L655.8552388617529,178.82658840402456L656.1132642434911,178.77641050375166L656.2852811646499,178.72623121588992L656.414293855519,178.67605054022152L656.6293150069675,178.57568502459407L656.8443361584159,178.4753139551321L657.1023615401539,178.3749373300954L657.4463953824716,178.07377410413932L657.962446145948,177.7725608153575L658.3064799882654,177.52151146500825L658.7365222911626,177.47129741672057L658.9085392123216,177.42108197518615L659.1665645940595,177.37086514018534L659.2955772849286,177.37086514018534L659.4675942060874,177.32064691150168L659.6396111272463,177.22020627221036L659.6826153575357,177.22020627221036L659.8116280484048,177.11976005556852L659.9836449695638,177.01930825983055L660.0266491998534,176.86862010160144L660.1126576604331,176.7681543504869L660.1986661210121,176.617445251008L660.3706830421711,176.56720609089245L660.4996957330402,176.5169655336024L660.6717126541989,176.4667235789185L661.4027845691237,176.06473760905908L661.9188353325999,175.7631893646361L662.3488776354968,175.66266208010933L662.5208945566558,175.61239633628895L662.6499072475247,175.61239633628895L662.9079326292631,175.56212919113887L663.1229537807114,175.56212919113887L663.3809791624494,175.51186064443993L663.6390045441879,175.51186064443993L663.8540256956362,175.4615906959732L664.0260426167952,175.4615906959732L664.2410637682435,175.4113193455189L664.4560849196921,175.4113193455189L664.6281018408508,175.36104659285968L664.8431229922994,175.2604968800468L665.0151399134584,175.10966178880756L665.1011483740374,175.0593806183124L665.2301610649065,174.95881406588404L665.5311906769346,174.7576641091353L665.7892160586725,174.60678688926032L666.0042372101211,174.50619504780735L666.1762541312798,174.4558970179623L666.3912752827284,174.35529673893535L666.7353091250461,174.3049944893154L667.0363387370737,174.25469083266444L667.2513598885221,174.25469083266444L667.5523895005499,174.25469083266444L667.7674106519987,174.25469083266444L668.0684402640265,174.25469083266444L668.5414867972131,174.20438576876285L668.8855206395308,174.20438576876285L669.0145333303999,174.20438576876285L669.1865502515584,174.20438576876285L669.401571403007,174.25469083266444L669.5735883241659,174.20438576876285L669.8316137059039,174.20438576876285L669.9176221664836,174.15407929739206L670.3046602390907,173.95283933281218L670.3476644693803,173.8522108999892L670.6056898511185,173.55029177828658L670.6486940814084,173.39931318097905L670.7347025419876,173.29865372820103L670.7777067722775,173.19798862971038L670.9067194631464,172.99664148854674L671.121740614595,172.74492577357722L671.2507533054641,172.69457838991093L671.5087786872023,172.5435277536011L671.7237998386504,172.5435277536011L672.0678336809681,172.49317471232587L672.239850602127,172.49317471232587L672.5408802141549,172.44282025609698L672.927918286762,172.39246438469422L673.2289478987902,172.39246438469422L673.5729817411075,172.39246438469422L674.0030240440044,172.39246438469422L674.218045195453,172.39246438469422L674.6480874983499,172.34210709789625L675.207142492116,172.29174839548216L675.3791594132747,172.29174839548216L675.8952101767509,172.24138827723283L676.2392440190686,172.24138827723283L676.5832778613863,172.29174839548216L677.0133201642832,172.34210709789625L677.314349776311,172.34210709789625L677.48636669747,172.39246438469422L677.5723751580492,172.49317471232587L677.48636669747,172.74492577357722L677.4003582368903,172.89595944234924L677.3573540066009,173.04698039241117L677.3573540066009,173.14765396277278L677.0993286248624,173.4999669898051L677.0563243945728,173.6006151564402L677.0133201642832,173.70125768264387L676.5832778613863,174.05346213136005L676.4542651705171,174.10377141833033L676.3682567099377,174.15407929739206L676.1962397887792,174.35529673893535L676.1102313281995,174.4558970179623L676.0242228676202,174.60678688926032L675.8522059464615,174.70737310785813L675.7231932555924,174.8079537053577L675.4221636435645,174.85824189674292L675.2931509526954,175.00909804407763L675.207142492116,175.10966178880756L675.1211340315365,175.31077243777543L675.0781298012469,175.4615906959732L674.9921213406676,175.66266208010933L674.8631086497983,175.8637110464698L674.777100189219,175.9642271273609L674.5190748074808,176.16524249331502L674.3470578863221,176.31598932832082L674.2610494257428,176.36623547649657L674.218045195453,176.4667235789185L674.218045195453,176.56720609089245L674.2610494257428,176.71791938058675L674.3900621166117,176.96908026925547L674.4760705771912,177.16998386116745L674.5190748074808,177.32064691150168L674.5620790377707,177.52151146500825L674.6050832680603,177.7725608153575L674.6480874983499,178.12397145044753L674.6910917286398,178.27455514774482L674.777100189219,178.42512633716944L675.207142492116,178.9269400426702L675.2501467224056,179.0272861335656L675.3791594132747,179.17779487167593L675.5511763344336,179.27812710079456L675.7231932555924,179.27812710079456L675.9382144070407,179.32829113711847L676.0672270979098,179.32829113711847L676.1102313281995,179.32829113711847L676.2392440190686,179.4286150543807L676.2822482493584,179.57909054506484L676.2822482493584,179.67940061791205L676.2392440190686,179.77970515602965L676.1962397887792,179.980297635012L676.1532355584893,180.1307274784789L676.1532355584893,180.23100713176916L676.0672270979098,180.48168209605126L675.9812186373306,180.53181294739187L675.9382144070407,180.7824465084206L675.8522059464615,180.8826902788884L675.7231932555924,181.08316127972006L675.6801890253028,181.2335000645612L675.6801890253028,181.33371903589568L675.6801890253028,181.38382645664308L675.8092017161716,181.43393250106516L675.8952101767509,181.38382645664308L675.9812186373306,181.28361023860657L676.1102313281995,181.13327558533325L676.1962397887792,181.13327558533325L676.4112609402275,181.13327558533325L676.5402736310966,181.13327558533325L676.6692863219655,181.08316127972006L676.8413032431242,180.98292853541136L676.9273117037039,180.9328100962852L677.0563243945728,180.9328100962852L677.1423328551523,180.9328100962852L677.2713455460214,181.03304559648427L677.3573540066009,181.13327558533325L677.4433624671801,181.2335000645612L677.5723751580492,181.38382645664308L677.6583836186287,181.38382645664308L677.7873963094978,181.43393250106516L677.9164090003669,181.58424237853876L677.8734047700771,181.73453987685758L677.8304005397874,181.8347313346385L677.744392079208,181.9850082139792L677.7873963094978,182.18535815513877L677.7873963094978,182.33560619508427L677.744392079208,182.48584188498904L677.6583836186287,182.58599215332998L677.5723751580492,182.6861369370721L677.4003582368903,182.73620727275699L677.314349776311,182.83634383282958L677.0993286248624,183.0866612604941L677.0133201642832,183.28689055937718L676.9703159339933,183.38699699913394L676.9273117037039,183.58719346787598L676.7982990128348,183.6872835002992L676.755294782545,183.78736806704916L676.7122905522551,183.8874471698432L676.6692863219655,183.93748467279408L676.5832778613863,184.03755558287617L676.5402736310966,184.08758899043625L676.3252524796483,184.08758899043625L676.1962397887792,184.03755558287617L676.1532355584893,183.8874471698432L676.1102313281995,183.7373264667757L676.0242228676202,183.6872835002992L675.8522059464615,183.58719346787598L675.6801890253028,183.58719346787598L675.5941805647233,183.58719346787598L675.4221636435645,183.63723916740406L675.1211340315365,183.6872835002992L674.949117110378,183.7373264667757L674.777100189219,183.78736806704916L674.6050832680603,183.8874471698432L674.3470578863221,183.93748467279408L674.0460282742943,183.98752081040004L673.7449986622664,183.98752081040004L673.5299775108176,183.98752081040004L673.2719521290796,183.98752081040004L673.1429394382105,183.98752081040004L672.8419098261827,183.93748467279408L672.6268886747341,183.98752081040004L672.497875983865,184.08758899043625L672.4548717535752,184.28770897581398L672.4118675232858,184.43778464374742L672.3258590627065,184.58784804288518L672.1968463718372,184.58784804288518L671.938820990099,184.58784804288518L671.7668040689402,184.48780713970717L671.680795608361,184.43778464374742L671.5947871477813,184.33773556201538L671.5087786872023,184.18765171166882L671.3797659963332,184.08758899043625L671.2507533054641,183.98752081040004L671.0787363843051,183.8874471698432L670.8637152328565,183.83740830133337L670.6486940814084,183.8874471698432L670.4336729299598,183.93748467279408L670.39066869967,184.03755558287617L670.3476644693803,184.18765171166882L670.3476644693803,184.33773556201538L670.218651778511,184.48780713970717L670.1326433179318,184.48780713970717L670.0466348573527,184.58784804288518L669.960626396773,184.68788349583883L669.9176221664836,184.78791350028087L669.9176221664836,184.88793805792665L669.960626396773,185.08797083968096L669.9176221664836,185.33798120915748L669.9176221664836,185.4879711170007L669.8746179361935,185.68793863995614L669.8316137059039,185.93786749369258L669.8316137059039,186.13778615338532L669.8746179361935,186.43762346947057L669.8316137059039,186.5375584020765L669.8316137059039,186.68745064489508L669.702601015035,186.83733070552432L669.6595967847452,186.93724398090507L669.5305840938761,186.98719858972277L669.3585671727174,186.98719858972277L668.9285248698204,187.03715184624326L668.7565079486615,187.03715184624326L668.5414867972131,187.03715184624326L668.326465645765,187.03715184624326L668.0684402640265,187.03715184624326L667.8964233428676,187.08710375067966L667.6814021914192,187.18700350415241L667.5523895005499,187.23695135361504L667.2083556582327,187.4367292412752L667.0793429673636,187.5865484772835L666.9933345067841,187.6364855228528L666.9073260462046,187.68642121889349L666.8213175856251,187.68642121889349L666.7353091250461,187.68642121889349L666.6493006644666,187.6364855228528L666.5202879735973,187.5865484772835L666.3912752827284,187.53661008197219L666.305266822149,187.53661008197219L666.2192583615695,187.53661008197219L666.1762541312798,187.5865484772835L666.0902456707004,187.5865484772835L666.047241440411,187.6364855228528L666.0042372101211,187.68642121889349L665.9612329798313,187.7862885632394L665.875224519252,187.83622021197095L665.7892160586725,187.83622021197095L665.7462118283831,187.88615051202424L665.6602033678034,188.0359333222462L665.5311906769346,188.18570400202407L665.4021779860655,188.2855443855754L664.6711060711407,188.9842763279891L664.327072228823,189.18386562384472L664.1120510773746,189.23375958991937L663.9400341562157,189.23375958991937L663.768017235057,189.28365221326237L663.6390045441879,189.23375958991937L663.5099918533185,189.28365221326237L663.3809791624494,189.3335434940863L663.1659580110013,189.4832092835607L663.079949550422,189.58297976783143L662.9939410898423,189.58297976783143L662.9079326292631,189.58297976783143L662.7789199383938,189.5330951964259L662.6499072475247,189.43332202902343L662.4778903263659,189.3335434940863L662.3058734052074,189.28365221326237L662.1768607143383,189.28365221326237L662.0048437931794,189.23375958991937L661.8328268720209,189.23375958991937L661.6608099508617,189.23375958991937L661.5317972599928,189.28365221326237L661.1877634176751,189.3335434940863L661.058750726806,189.43332202902343L661.0157464965164,189.4832092835607L660.8437295753579,189.58297976783143L660.800725345068,189.68274488711018L660.7577211147782,189.78250464309116L660.6717126541989,189.88225903746923L660.6287084239091,190.0318805797349L660.5426999633296,190.38095064457696L660.2846745815914,190.87950846549955L659.8976365089845,191.37793271156647L659.7686238181154,191.57726505632525L659.6826153575357,191.67692323109702L659.510598436377,191.82640050099172L659.252573054639,192.02568488414215L658.9945476729008,192.1751341963486L658.8655349820317,192.27476041947529L658.7795265214522,192.32457153616775L658.6075096002933,192.4241897808608L657.8334334550791,192.67321213505494L657.6614165339201,192.77281177813506L657.4033911521822,192.8724061102542L657.2743784613128,192.92220128522962L656.9303446189954,193.07157884833913L656.7153234675468,193.12136871613785L656.5433065463881,193.22094447313924L656.3712896252291,193.3205149267459L656.1992727040706,193.4200800786387L655.984251552622,193.51963993049696L655.8552388617529,193.5694178694381L655.5112050194352,193.7685163835149L655.3391880982765,193.8680576984782L655.2531796376973,193.91782637117473L655.0381584862484,193.9675937209613L654.9521500256694,194.06712445264395L654.8231373348003,194.16664989520166L654.6941246439312,194.31592814559946L654.6511204136416,194.41544037268358L654.5221077227725,194.564698807728L654.4360992621928,194.66419782981274L654.3930950319034,194.76369157283057L654.3070865713239,194.91292229276803L654.1780738804548,195.26108116050347L654.0060569592961,195.55945167141613L653.4470019655298,196.30517077700495L653.3609935049508,196.50397928698823L653.2319808140817,196.70276680438008L653.0599638929227,196.85184367406106L652.9309512020538,196.95122170061057L652.8019385111845,196.95122170061057L652.6729258203154,196.90153334252045L652.6729258203154,196.75246040519954L652.6729258203154,196.60337566892468L652.6729258203154,196.35487487328584L652.6729258203154,196.2554653678527L652.6729258203154,196.15605061010103L652.6729258203154,195.9572053309666L652.6729258203154,195.80805757186386L652.715930050605,195.65889797814003L652.7589342808949,195.50972654415528L652.7589342808949,195.4102723407915L652.715930050605,195.3108128709099L652.6299215900256,195.26108116050347L652.5439131294463,195.21134813284004L652.5009088991569,195.21134813284004L652.328891977998,195.36054326426944L652.2428835174185,195.4102723407915L652.1138708265494,195.60917548267514L652.0278623659701,195.7583390225256L651.9418539053906,195.85777480624478L651.6838285236527,196.20575864562073L651.597820063073,196.5536781338705L651.4258031419145,196.80215269502372L651.339794681335,197.0009087485385L651.2107819904659,197.19964384279865L651.1247735298864,197.39835799112933L651.0817692995968,197.54737986462226L651.0387650693069,197.74605738961844L650.9957608390175,197.9943748936915L650.9527566087277,198.1433497249526L650.9527566087277,198.7391316407373L650.9527566087277,198.88804779538827L650.9097523784378,198.987318721189L650.7807396875689,199.0369522315217L650.6947312269897,199.08658444041822L650.350697384672,199.0369522315217L650.2646889240923,199.08658444041822L650.0926720029338,199.13621534808755L650.0496677726439,199.2851002657958L649.9206550817751,199.43397347990862L649.791642390906,199.53321579008087L649.5336170091675,200.07895563589278L649.0175662456913,201.1203870240077L648.8025450942428,201.31869021142L648.7165366336635,201.5169727280129L648.5875239427944,201.66567105816927L648.4585112519251,202.1116963847757L648.4585112519251,202.30989634996104L648.4585112519251,202.35944312122461L648.4155070216357,202.50807571023182L648.372502791346,202.9539040022936L648.372502791346,203.10249029315816L648.372502791346,203.2510650233561L648.329498561056,203.44914668994068L648.329498561056,203.64720782721776L648.2864943307666,203.74623070146885L648.2004858701871,203.84524844831628L648.1144774096078,203.94426106939915L648.0284689490286,204.0927703938043L647.9854647187387,204.29076490147287L647.9424604884489,204.43924734573977L647.9424604884489,204.48873893559102L648.071473179318,204.88462563558664L648.1574816398972,205.13201330935118L648.1574816398972,205.37936908014848L648.2004858701871,205.5772307438138L648.1144774096078,205.8245291536266L648.0284689490286,205.97289291876916L647.9424604884489,206.07179573195583L647.8564520278696,206.17069345618484L647.7274393370003,206.26958609308974L647.641430876421,206.36847364429946L647.512418185552,206.46735611144663L647.3834054946831,206.46735611144663L647.2113885735241,206.46735611144663L647.082375882655,206.46735611144663L646.9533631917857,206.46735611144663L646.8243505009166,206.46735611144663L646.6523335797583,206.46735611144663L646.5233208888892,206.46735611144663L646.2222912768609,206.41791551327907L646.0502743557024,206.36847364429946L645.9642658951229,206.31903050430446L645.8352532042538,206.36847364429946L645.6632362830951,206.31903050430446L645.534223592226,206.31903050430446L645.4482151316467,206.31903050430446L645.1041812893291,206.26958609308974L645.0181728287494,206.22014041045094L644.9321643681703,206.17069345618484L644.8891601378803,206.07179573195583L644.8031516773012,206.02234496158388L644.717143216722,205.9234396033077L644.5881305258529,205.8245291536266L644.5021220652732,205.87398501499473L644.4161136046939,205.8245291536266L644.3731093744043,205.87398501499473L644.2871009138246,205.97289291876916L644.2871009138246,206.22014041045094L644.2871009138246,206.31903050430446L644.2871009138246,206.41791551327907L644.2871009138246,206.46735611144663L644.2010924532453,206.7639730248123L644.0290755320866,206.96169224328884L643.8570586109281,207.10996833643327L643.7280459200588,207.20881272505233L643.5990332291897,207.40648629327092L643.4700205383208,207.55472816794838L643.3410078474517,207.75236627597468L643.2119951565826,207.9499841389216L643.1259866960031,208.09818425811886L642.996974005134,208.29576672345695L642.8679613142649,208.49332897945493L642.695944393106,208.64148741688558L642.1798936296298,209.03652108503377L642.1368893993401,209.13526689759743L642.007876708471,209.28337616967048L641.8358597873121,209.43147411047983L641.6638428661533,209.6289204145951L641.4918259449946,209.67827884608698L641.2768047935463,209.77699193704206L641.0617836420977,209.8263465969104L640.6317413392007,209.97440303650347L640.4597244180418,210.07310104824523L640.2447032665932,210.17179403681774L639.900669424276,210.46784287968381L639.728652503117,210.6651836887134L639.6856482728274,210.8131761344095L639.5996398122479,211.15844800374748L639.5996398122479,211.25708584408875L639.5566355819583,211.65158718367138L639.5566355819583,211.89810991095277L639.5136313516684,212.09530562164986L639.5136313516684,212.3417721922437L639.5136313516684,212.63749094407103L639.5136313516684,212.78533350556165L639.5566355819583,212.9824394958942L639.5996398122479,213.13025592693197L639.728652503117,213.37659178193962L639.7716567334069,213.57363810334584L639.8576651939861,213.7706645607936L640.2447032665932,214.21390152890973L640.3737159574625,214.3616248776786L640.5457328786215,214.55857200755833L640.6317413392007,214.7062693606136L640.6317413392007,214.853955581653L640.71774979978,215.05085323590464L640.7607540300698,215.1985135032391L640.8037582603595,215.39537657213958L640.8467624906493,215.4938007012375L640.8467624906493,215.64142764268786L640.8037582603595,215.98584735710375L640.6317413392007,216.13343732669392L640.5027286483316,216.23182448392885L640.4167201877524,216.33020671836397L640.2877074968831,216.37939599002988L640.1586948060142,216.47777084325617L640.0296821151451,216.5269564252148L639.9436736545656,216.57614077766857L639.8146609636967,216.72368645999893L639.5996398122479,216.96957135905689L639.470627121379,217.16625717829436L639.3416144305099,217.55956993753176L639.2986102002201,217.75619690298635L639.2986102002201,218.0511006192363L639.2986102002201,218.1493920691605L639.2986102002201,219.18115725647823L639.2126017396408,219.42673634518104L639.0835890487715,219.57406918336994L638.8685678973231,219.77049592783555L638.6535467458746,219.86870200086383L638.3955213641364,219.9669032098655L638.1805002126882,220.0650995564224L638.008483291529,220.16329104211644L637.8794706006604,220.2123849626339L637.7504579097911,220.35965943723897L637.6644494492116,220.4578363498287L637.5784409886326,220.6050926169446L637.4924325280529,221.04679593530165L637.191402916025,221.7827501755179L637.1483986857352,221.97895869632907L637.1053944554458,222.1261024072585L637.0193859948661,222.2732352557946L636.9763817645767,222.51843254579808L636.8903733039972,222.76359970182665L636.8043648434175,222.95971174669768L636.5893436919694,223.596942960869L636.4603310011003,223.9889843317706L636.3313183102312,224.1849762236575L636.2453098496517,224.2829649766968L635.9872844679135,224.62588787632086L635.9442802376236,224.82181748231437L635.8582717770446,224.96875212663292L635.7722633164649,225.11567601095317L635.6432506255962,225.2625891405546L635.5572421650165,225.4094915207137L635.4282294741474,225.50742047151368L635.2992167832786,225.89908855410937L635.2562125529889,226.19278955315184L635.1702040924094,226.4375076403847L635.2132083226988,226.68219598515702L635.2992167832786,226.9268546118264L635.4712337044373,227.41608280822794L635.4712337044373,227.70956279501326L635.2992167832786,228.19860135604023L635.1271998621198,228.34528985296174L634.9551829409609,228.54085796685575L634.7401617895125,228.7364071793707L634.654153328933,228.93193750292176L634.6111490986432,229.2251975985846L634.654153328933,229.46954859775923L634.6971575592227,229.61614506387338L634.8261702500918,229.71387015559708L634.9981871712507,229.86044896852496L635.0411914015401,230.00701719650755L635.0841956318297,230.25127406856194L634.8691744803816,230.73969974497777L634.7401617895125,231.0326988524174L634.654153328933,231.1791825887172L634.6111490986432,231.22800815878225L634.4391321774847,231.3744778455727L634.353123716905,231.13035584776378L634.3101194866153,231.0326988524174L634.2241110260361,230.93503717120075L634.1811067957462,230.886204572908L634.095098335167,230.83737080256896L633.8370729534286,230.7885358599895L633.6220518019802,230.69086245734002L633.5360433414012,230.6420239968831L633.3640264202418,230.49550157666647L633.1490052687936,230.4466584230023L633.0199925779245,230.49550157666647L632.7189629658967,230.6420239968831L632.546946044738,230.69086245734002L632.4179333538689,230.73969974497777L632.2889206629998,230.83737080256896L632.1599079721307,230.93503717120075L632.0308952812616,231.13035584776378L631.8588783601028,231.13035584776378L631.6868614389441,231.0815279357277L631.6868614389441,231.0326988524174L631.6438572086543,230.93503717120075L631.557848748075,230.69086245734002L631.5148445177851,230.54434355673936L631.5148445177851,230.34896859412436L631.4718402874958,230.20242504404L631.385831826916,230.00701719650755L631.2138149057573,229.71387015559708L631.1278064451781,229.5672807524997L630.8267768331502,229.27407015488814L630.7837726028604,229.2251975985846L630.6117556817017,229.2251975985846L630.4397387605427,229.2251975985846L630.3537302999634,229.32294153276405L630.3107260696736,229.42068075400584L630.1817133788045,229.5672807524997L630.1387091485149,229.76273093633398L630.1387091485149,230.25127406856194L630.0527006879356,230.54434355673936L629.9236879970665,230.7885358599895L629.837679536487,230.9838685976393L629.7946753061974,231.22800815878225L629.7516710759078,231.3744778455727L629.6656626153285,231.6185705904457L629.4936456941696,231.716199502971L629.3216287730108,231.716199502971L628.9775949306932,231.81382374042386L628.848582239824,231.96025133421443L628.848582239824,232.10666841776106L628.7625737792448,232.35067354836087L628.719569548955,232.59464952233827L628.6765653186653,232.78980932491254L628.5475526277962,232.9849504949447L628.3755357066375,233.13129415226376L628.2035187854785,233.1800730447365L628.0745060946094,233.1800730447365L627.9454934037406,233.22885077421296L627.8164807128715,233.32640274494406L627.7734764825816,233.4727219833673L627.7734764825816,233.61903076519104L627.7304722522917,233.81409288408992L627.7304722522917,233.8628555120814L627.6444637917125,234.3504180066223L627.4724468705538,234.49666415761118L627.3434341796847,234.59415580219536L627.2144214888156,234.6916428170411L626.999400337367,234.78912520367953L626.8703876464979,234.88660296364196L626.6553664950497,234.9353401090989L626.4403453436012,234.9353401090989L626.2683284224422,234.88660296364196L626.2253241921528,234.8378646618999L626.1393157315731,234.74038458879045L626.0963115012835,234.49666415761118L626.0103030407042,234.30166697309625L626.0103030407042,234.00913643496853L626.0103030407042,233.76532909559677L625.9672988104144,233.57026233277458L625.9672988104144,233.32640274494406L625.8382861195453,233.0825140966025L625.6662691983865,232.9849504949447L625.4942522772276,232.9849504949447L625.3222353560691,233.03373287756023L625.1502184349101,233.03373287756023L624.9351972834618,233.13129415226376L624.8061845925927,233.1800730447365L624.6771719017236,233.22885077421296L624.3761422896957,233.32640274494406L624.1181169079578,233.22885077421296L623.9460999867988,233.27762734088446L623.7310788353502,233.37517698658286L623.473053453612,233.32640274494406L623.3010365324533,233.32640274494406L623.1290196112946,233.27762734088446L623.0860153810049,233.1800730447365L623.0430111507153,233.03373287756023L623.0000069204254,232.93616694856496L623.0000069204254,232.8385963637411L623.0000069204254,232.64344122045543L623.0430111507153,232.44826743539977L623.1290196112946,232.204273970335L623.1720238415842,232.05786389072944L623.2580323021639,231.8626341064799L623.387044993033,231.6673856311882L623.4300492233224,231.47211845252446L623.4300492233224,231.2768325581511L623.5160576839019,231.0326988524174L623.5160576839019,230.83737080256896L623.4300492233224,230.6420239968831L623.387044993033,230.54434355673936L623.3010365324533,230.49550157666647L623.2580323021639,230.34896859412436L623.1290196112946,230.10472347054974L623.1290196112946,229.76273093633398L623.1290196112946,229.61614506387338L622.9570026901356,229.42068075400584L623.0000069204254,229.02969558521352L623.0860153810049,228.88305669219523L623.0430111507153,228.7364071793707L622.9570026901356,228.54085796685575L622.8709942295563,228.34528985296174L622.8709942295563,228.19860135604023L622.8279899992665,228.05190221486492L622.9139984598462,227.75847197877874L622.9139984598462,227.61174087337537L623.0860153810049,227.17148354474L623.0860153810049,227.02470974688026L623.1720238415842,226.78006300063333L623.387044993033,226.3396239759512L623.4300492233224,226.19278955315184L623.5590619141913,225.94804169908747L623.6880746050604,225.70326405380763L623.7310788353502,225.4584565929141L623.7310788353502,225.21361929199708L623.7310788353502,224.96875212663292L623.6020661444811,224.82181748231437L623.387044993033,224.67487207271705L623.4300492233224,224.5279158925586L623.473053453612,224.3319575556763L623.5160576839019,224.1359800492059L623.473053453612,224.08698267587124L623.387044993033,223.93998336061247L623.215028071874,223.64595233380868L623.0860153810049,223.54793238689035L622.9570026901356,223.40089345675972L622.8709942295563,223.10678314196315L622.9570026901356,222.61650302291082L623.0000069204254,222.4693954993026L623.1290196112946,222.2732352557946L623.3010365324533,222.1261024072585L623.4300492233224,222.0770557108102L623.7740830656401,222.0770557108102L624.1611211382472,222.1751478967738L624.4191465199856,222.2732352557946L624.5051549805648,222.4693954993026L624.5911634411443,222.66553645391963L624.8491888228825,222.81262951911793L625.1072142046205,223.05776054680422L625.4082438166483,223.10678314196315L625.7952818892559,223.2538437102172L625.9672988104144,223.30286149454884L626.1393157315731,223.2538437102172L626.3543368830219,223.10678314196315L626.6123622647599,223.00873674844775L626.7843791859186,222.8616581322284L626.741374955629,222.61650302291082L626.6123622647599,222.37131778944598L626.5693580344703,222.1751478967738L626.4403453436012,221.97895869632907L626.2253241921528,221.7827501755179L625.9242945801245,221.5374623360409L625.7952818892559,221.43933873656266L625.5372565075174,221.24307701975533L625.5372565075174,221.0958680228219L625.5802607378073,220.9977226365143L625.7092734286764,220.80141732475465L625.7092734286764,220.6050926169446Z"></path>
<circle class="distCircs" cx="636.1092408160837" cy="200.42026368879817" r="2.7513757435321016" stroke="#000" stroke-width="0.25" fill="#eee" data-q="ASSAM" data-r="BAGSHA"><title>ASSAM - BAGSHA: Census 2011 Total Rural Households = 188,191. Census 2011 Households with toilets = 72,803. Census 2001 Total Rural Households = NaN. Census 2001 Households with toilets = 0. Difference between Census 2011 Households with toilets and Census 2001 Households with toilets = NaN%</title></circle><circle class="distCircs" cx="605.690558433011" cy="201.54012401438405" r="2.8656604636667375" stroke="#000" stroke-width="0.25" fill="#fefbbc" data-q="ASSAM" data-r="BARPETA"><title>ASSAM - BARPETA: Census 2011 Total Rural Households = 306,688. Census 2011 Households with toilets = 213,994. Census 2001 Total Rural Households = 268,986. Census 2001 Households with toilets = 190,588. Difference between Census 2011 Households with toilets and Census 2001 Households with toilets = -1.1%</title></circle><circle class="distCircs" cx="598.9309894626188" cy="196.07415561897267" r="2.6589244767821016" stroke="#000" stroke-width="0.25" fill="#ebf6b5" data-q="ASSAM" data-r="BONGAIGAON"><title>ASSAM - BONGAIGAON: Census 2011 Total Rural Households = 124,874. Census 2011 Households with toilets = 61,405. Census 2001 Total Rural Households = 146,134. Census 2001 Households with toilets = 65,431. Difference between Census 2011 Households with toilets and Census 2001 Households with toilets = 4.4%</title></circle><circle class="distCircs" cx="633.5104509038983" cy="219.7747798162036" r="2.859758810503362" stroke="#000" stroke-width="0.25" fill="#fffdbd" data-q="ASSAM" data-r="CACHAR"><title>ASSAM - CACHAR: Census 2011 Total Rural Households = 299,194. Census 2011 Households with toilets = 232,066. Census 2001 Total Rural Households = 234,314. Census 2001 Households with toilets = 182,908. Difference between Census 2011 Households with toilets and Census 2001 Households with toilets = -0.5%</title></circle><circle class="distCircs" cx="603.6912593132581" cy="195.0505024773272" r="2.586517077826913" stroke="#000" stroke-width="0.25" fill="#eee" data-q="ASSAM" data-r="CHIRANG"><title>ASSAM - CHIRANG: Census 2011 Total Rural Households = 89,657. Census 2011 Households with toilets = 21,494. Census 2001 Total Rural Households = NaN. Census 2001 Households with toilets = 0. Difference between Census 2011 Households with toilets and Census 2001 Households with toilets = NaN%</title></circle><circle class="distCircs" cx="619.5016062428674" cy="197.34274728236483" r="2.735275159138217" stroke="#000" stroke-width="0.25" fill="#fbfdbd" data-q="ASSAM" data-r="DARRANG"><title>ASSAM - DARRANG: Census 2011 Total Rural Households = 175,393. Census 2011 Households with toilets = 83,453. Census 2001 Total Rural Households = 258,997. Census 2001 Households with toilets = 120,945. Difference between Census 2011 Households with toilets and Census 2001 Households with toilets = 0.9%</title></circle><circle class="distCircs" cx="656.5098470299647" cy="181.6784361694206" r="2.648477532407647" stroke="#000" stroke-width="0.25" fill="#e7f4b3" data-q="ASSAM" data-r="DHEMAJI"><title>ASSAM - DHEMAJI: Census 2011 Total Rural Households = 119,112. Census 2011 Households with toilets = 48,003. Census 2001 Total Rural Households = 89,385. Census 2001 Households with toilets = 31,371. Difference between Census 2011 Households with toilets and Census 2001 Households with toilets = 5.2%</title></circle><circle class="distCircs" cx="590.5984127716147" cy="203.29460262012617" r="2.9113105538307655" stroke="#000" stroke-width="0.25" fill="#fae4ab" data-q="ASSAM" data-r="DHUBRI"><title>ASSAM - DHUBRI: Census 2011 Total Rural Households = 370,734. Census 2011 Households with toilets = 144,461. Census 2001 Total Rural Households = 262,518. Census 2001 Households with toilets = 119,216. Difference between Census 2011 Households with toilets and Census 2001 Households with toilets = -6.4%</title></circle><circle class="distCircs" cx="661.7468356691711" cy="180.21198345947693" r="2.785568542478408" stroke="#000" stroke-width="0.25" fill="#fafdbc" data-q="ASSAM" data-r="DIBRUGARH"><title>ASSAM - DIBRUGARH: Census 2011 Total Rural Households = 218,256. Census 2011 Households with toilets = 161,992. Census 2001 Total Rural Households = 182,232. Census 2001 Households with toilets = 133,108. Difference between Census 2011 Households with toilets and Census 2001 Households with toilets = 1.2%</title></circle><circle class="distCircs" cx="599.6859048641033" cy="200.95880503513104" r="2.7266552624859863" stroke="#000" stroke-width="0.25" fill="#fdfebe" data-q="ASSAM" data-r="GOALPARA"><title>ASSAM - GOALPARA: Census 2011 Total Rural Households = 168,874. Census 2011 Households with toilets = 104,937. Census 2001 Total Rural Households = 134,173. Census 2001 Households with toilets = 82,698. Difference between Census 2011 Households with toilets and Census 2001 Households with toilets = 0.5%</title></circle><circle class="distCircs" cx="649.5749792709394" cy="195.52227634298134" r="2.768194139178812" stroke="#000" stroke-width="0.25" fill="#eef7b7" data-q="ASSAM" data-r="GOLAGHAT"><title>ASSAM - GOLAGHAT: Census 2011 Total Rural Households = 202,469. Census 2011 Households with toilets = 131,864. Census 2001 Total Rural Households = 165,766. Census 2001 Households with toilets = 101,692. Difference between Census 2011 Households with toilets and Census 2001 Households with toilets = 3.8%</title></circle><circle class="distCircs" cx="632.1590558179603" cy="226.11604329322816" r="2.673022410899175" stroke="#000" stroke-width="0.25" fill="#fafdbc" data-q="ASSAM" data-r="HAILAKANDI"><title>ASSAM - HAILAKANDI: Census 2011 Total Rural Households = 133,055. Census 2011 Households with toilets = 108,979. Census 2001 Total Rural Households = 89,192. Census 2001 Households with toilets = 71,986. Difference between Census 2011 Households with toilets and Census 2001 Households with toilets = 1.2%</title></circle><circle class="distCircs" cx="653.0413222740011" cy="191.5979515085602" r="2.743479248871594" stroke="#000" stroke-width="0.25" fill="#fffebe" data-q="ASSAM" data-r="JORHAT"><title>ASSAM - JORHAT: Census 2011 Total Rural Households = 181,811. Census 2011 Households with toilets = 107,081. Census 2001 Total Rural Households = 157,438. Census 2001 Households with toilets = 93,180. Difference between Census 2011 Households with toilets and Census 2001 Households with toilets = -0.3%</title></circle><circle class="distCircs" cx="613.3097481608811" cy="202.33140777056792" r="2.8393813565794743" stroke="#000" stroke-width="0.25" fill="#f3fab9" data-q="ASSAM" data-r="KAMRUP"><title>ASSAM - KAMRUP: Census 2011 Total Rural Households = 274,590. Census 2011 Households with toilets = 156,599. Census 2001 Total Rural Households = 286,343. Census 2001 Households with toilets = 155,852. Difference between Census 2011 Households with toilets and Census 2001 Households with toilets = 2.6%</title></circle><circle class="distCircs" cx="636.4116519964746" cy="207.33364762767053" r="2.70412999615618" stroke="#000" stroke-width="0.25" fill="#e4f3b2" data-q="ASSAM" data-r="KARBI ANGLONG"><title>ASSAM - KARBI ANGLONG: Census 2011 Total Rural Households = 152,873. Census 2011 Households with toilets = 74,151. Census 2001 Total Rural Households = 125,488. Census 2001 Households with toilets = 53,477. Difference between Census 2011 Households with toilets and Census 2001 Households with toilets = 5.9%</title></circle><circle class="distCircs" cx="626.2798400370929" cy="229.58778073958752" r="2.7913142597036282" stroke="#000" stroke-width="0.25" fill="#fef9bb" data-q="ASSAM" data-r="KARIMGANJ"><title>ASSAM - KARIMGANJ: Census 2011 Total Rural Households = 223,720. Census 2011 Households with toilets = 187,335. Census 2001 Total Rural Households = 166,263. Census 2001 Households with toilets = 141,643. Difference between Census 2011 Households with toilets and Census 2001 Households with toilets = -1.5%</title></circle><circle class="distCircs" cx="593.183977793527" cy="197.23021753498875" r="2.7258520397769224" stroke="#000" stroke-width="0.25" fill="#e9f5b4" data-q="ASSAM" data-r="KOKRAJHAR"><title>ASSAM - KOKRAJHAR: Census 2011 Total Rural Households = 168,278. Census 2011 Households with toilets = 41,904. Census 2001 Total Rural Households = 161,332. Census 2001 Households with toilets = 32,373. Difference between Census 2011 Households with toilets and Census 2001 Households with toilets = 4.8%</title></circle><circle class="distCircs" cx="652.7601665684057" cy="185.63161775840916" r="2.7434528404426652" stroke="#000" stroke-width="0.25" fill="#fffebe" data-q="ASSAM" data-r="LAKHIMPUR"><title>ASSAM - LAKHIMPUR: Census 2011 Total Rural Households = 181,790. Census 2011 Households with toilets = 97,627. Census 2001 Total Rural Households = 143,781. Census 2001 Households with toilets = 77,547. Difference between Census 2011 Households with toilets and Census 2001 Households with toilets = -0.2%</title></circle><circle class="distCircs" cx="624.6196835694363" cy="199.60188473145763" r="2.7268341504497764" stroke="#000" stroke-width="0.25" fill="#ebf6b5" data-q="ASSAM" data-r="MARIGAON"><title>ASSAM - MARIGAON: Census 2011 Total Rural Households = 169,007. Census 2011 Households with toilets = 96,614. Census 2001 Total Rural Households = 125,505. Census 2001 Households with toilets = 66,198. Difference between Census 2011 Households with toilets and Census 2001 Households with toilets = 4.4%</title></circle><circle class="distCircs" cx="629.674935081644" cy="198.04136125717463" r="2.9747635351725745" stroke="#000" stroke-width="0.25" fill="#fdf7b9" data-q="ASSAM" data-r="NAGAON"><title>ASSAM - NAGAON: Census 2011 Total Rural Households = 480,208. Census 2011 Households with toilets = 345,629. Census 2001 Total Rural Households = 359,102. Census 2001 Households with toilets = 265,792. Difference between Census 2011 Households with toilets and Census 2001 Households with toilets = -2.0%</title></circle><circle class="distCircs" cx="611.5965274170131" cy="196.57148868745315" r="2.6805780624632587" stroke="#000" stroke-width="0.25" fill="#c9e7a5" data-q="ASSAM" data-r="NALBARI"><title>ASSAM - NALBARI: Census 2011 Total Rural Households = 137,639. Census 2011 Households with toilets = 87,643. Census 2001 Total Rural Households = 197,966. Census 2001 Households with toilets = 102,544. Difference between Census 2011 Households with toilets and Census 2001 Households with toilets = 11.9%</title></circle><circle class="distCircs" cx="634.3753598836422" cy="213.96633779927868" r="2.357675014947148" stroke="#000" stroke-width="0.25" fill="#c4e4a2" data-q="ASSAM" data-r="NORTH CACHAR HILLS"><title>ASSAM - NORTH CACHAR HILLS: Census 2011 Total Rural Households = 29,499. Census 2011 Households with toilets = 16,843. Census 2001 Total Rural Households = 25,728. Census 2001 Households with toilets = 11,354. Difference between Census 2011 Households with toilets and Census 2001 Households with toilets = 13.0%</title></circle><circle class="distCircs" cx="657.7205320575486" cy="187.98779948670625" r="2.7882178216530904" stroke="#000" stroke-width="0.25" fill="#f2f9b9" data-q="ASSAM" data-r="SIBSAGAR"><title>ASSAM - SIBSAGAR: Census 2011 Total Rural Households = 220,760. Census 2011 Households with toilets = 158,805. Census 2001 Total Rural Households = 185,287. Census 2001 Households with toilets = 128,131. Difference between Census 2011 Households with toilets and Census 2001 Households with toilets = 2.8%</title></circle><circle class="distCircs" cx="630.9220192609548" cy="191.41339185809767" r="2.894886858422361" stroke="#000" stroke-width="0.25" fill="#fefbbc" data-q="ASSAM" data-r="SONITPUR"><title>ASSAM - SONITPUR: Census 2011 Total Rural Households = 346,401. Census 2011 Households with toilets = 190,422. Census 2001 Total Rural Households = 279,462. Census 2001 Households with toilets = 156,319. Difference between Census 2011 Households with toilets and Census 2001 Households with toilets = -1.0%</title></circle><circle class="distCircs" cx="668.2224791191909" cy="179.9478092192399" r="2.7761938716371635" stroke="#000" stroke-width="0.25" fill="#f0f8b8" data-q="ASSAM" data-r="TINSUKIA"><title>ASSAM - TINSUKIA: Census 2011 Total Rural Households = 209,603. Census 2011 Households with toilets = 162,008. Census 2001 Total Rural Households = 174,781. Census 2001 Households with toilets = 129,451. Difference between Census 2011 Households with toilets and Census 2001 Households with toilets = 3.2%</title></circle><circle class="distCircs" cx="623.9487728790264" cy="193.34524570846168" r="2.7138939704576783" stroke="#000" stroke-width="0.25" fill="#eee" data-q="ASSAM" data-r="UDALGURI"><title>ASSAM - UDALGURI: Census 2011 Total Rural Households = 159,630. Census 2011 Households with toilets = 66,168. Census 2001 Total Rural Households = NaN. Census 2001 Households with toilets = 0. Difference between Census 2011 Households with toilets and Census 2001 Households with toilets = NaN%</title></circle></g></g></svg>