<?xml version="1.0" standalone="no"?><!DOCTYPE svg PUBLIC "-//W3C//DTD SVG 1.1//EN" "http://www.w3.org/Graphics/SVG/1.1/DTD/svg11.dtd"><svg id="chart" width="960" height="500" class="dorlingCart" data-type="dorlingCart" version="1.1" xmlns:xlink="http://www.w3.org/1999/xlink" xmlns="http://www.w3.org/2000/svg"><defs class="svg-crowbar"><style type="text/css"><![CDATA[.feature{ fill: #fcfcfc; stroke: #000000; stroke-width: 0.2px; cursor: pointer; }]]></style></defs>
<g><g transform="translate(-1622.71240234375,-590.5628662109375)scale(4,4)">
<path class="feature" data-q="BIHAR" d="M500.3949463645033,182.63606523066863L500.3949463645033,182.5359177048419L500.2659336736342,182.33560619508427L500.0509125221856,182.08518593116787L499.4918575284196,181.48403716937736L499.3628448375505,181.28361023860657L499.3628448375505,181.03304559648427L499.5348617587092,180.83256908300604L499.7928871404474,180.7323225549174L500.007908291896,180.7824465084206L500.2659336736342,180.8826902788884L500.60996751595167,181.18338851354213L501.0400098188486,181.33371903589568L501.77108173377337,181.38382645664308L502.545157878988,181.43393250106516L502.88919172130545,181.28361023860657L503.1472171030439,180.9328100962852L503.23322556362314,180.63207051028922L503.36223825449224,180.48168209605126L503.49125094536134,180.33128125986286L503.7062720968099,180.23100713176916L503.9212932482583,180.23100713176916L504.0503059391274,180.33128125986286L504.1793186299965,180.43154986449343L504.30833132086536,180.83256908300604L504.4373440117347,181.03304559648427L504.65236516318305,181.28361023860657L504.86738631463163,181.38382645664308L505.08240746608,181.43393250106516L505.5554539992668,181.38382645664308L505.81347938100475,181.38382645664308L505.94249207187386,181.48403716937736L505.9854963021637,181.6343429198185L506.07150476274296,181.8347313346385L506.1145089930328,182.03509775933333L506.2435216839017,182.23544220770674L506.372534374771,182.3856861303252L506.5445512959295,182.4357646935548L506.80257667766796,182.48584188498904L507.14661051998564,182.58599215332998L507.8776824349104,182.6861369370721L509.33982626475995,183.0366005138169L510.2859193311331,183.28689055937718L511.1029997066373,183.43704816734333L511.447033548955,183.63723916740406L511.61905047011373,183.83740830133337L511.79106739127246,184.08758899043625L511.87707585185194,184.33773556201538L511.92008008214157,184.58784804288518L511.9630843124314,184.88793805792665L511.9630843124314,185.23798114089738L511.87707585185194,185.5879575950284L511.7050589306932,186.13778615338532L511.5760462398241,186.68745064489508L511.49003777924463,187.6364855228528L511.53304200953426,187.93607946361294L511.66205470040336,188.18570400202407L511.79106739127246,188.2855443855754L512.0490927730109,188.38537938206923L512.3501223850385,188.43529486070105L513.7262577543088,188.43529486070105L514.1132958269161,188.4852089932064L514.4573296692336,188.5850332206844L514.6293465903925,188.6848520662038L514.9303762024203,188.8345702470246L515.1884015841583,189.08407366265163L515.532435426476,189.3834334326031L516.0484861899524,189.73262543540682L516.3065115716906,189.93213422458615L516.521532723139,190.13162157751356L516.6935496442977,190.3310875077334L516.822562335167,190.53053202878294L516.9945792563258,190.63024626509736L517.2956088683538,190.7299551541937L517.6826469409609,190.77980759406273L517.8546638621197,190.63024626509736L518.1126892438576,190.53053202878294L518.3277103953064,190.53053202878294L518.5857357770444,190.5803898154482L518.800756928493,190.68010137794244L518.9727738496517,190.92935689749038L519.1447907708105,191.17857902860783L519.3168076919692,191.5274339698534L519.4888246131281,192.02568488414215L519.7038457645765,192.22494797293893L519.9188669160251,192.37438132322575L520.1768922977633,192.52380270870395L520.3919134492116,192.573607179332L520.7359472915291,192.6234103213793L521.0799811338468,192.6234103213793L521.3810107458748,192.47399690928376L521.7250445881923,192.32457153616775L522.0690784305098,192.22494797293893L522.4131122728274,192.07550265216054L522.6711376545654,192.02568488414215L522.9291630363039,191.9758657852268L523.316201108911,191.92604535520354L523.617230720939,191.82640050099172L523.9612645632565,191.67692323109702L524.2192899449944,191.37793271156647L524.606328017602,191.02904975507062L524.7783449387605,190.92935689749038L524.9503618599192,190.92935689749038L525.1223787810782,190.87950846549955L525.3804041628164,190.87950846549955L525.7674422354237,190.97920399394383L526.0684718474515,191.1287372721917L526.4555099200588,191.37793271156647L526.9715606835352,191.72675031981964L527.0575691441145,191.876223593862L527.143577604694,192.1253190894925L527.143577604694,192.37438132322575L527.143577604694,192.92220128522962L527.0145649138249,193.469860666967L527.0145649138249,193.8680576984782L527.0575691441145,194.21641063358322L527.2295860652735,194.4651945048991L527.401602986432,194.86318003845463L527.70263259846,195.21134813284004L527.9176537499084,195.3108128709099L528.2186833619362,195.4102723407915L528.4337045133848,195.4102723407915L528.6057214345435,195.4600001006836L528.691729895123,195.50972654415528L528.691729895123,195.65889797814003L528.7777383557022,195.7086191580206L528.9927595071506,195.7583390225256L529.1647764283096,195.7583390225256L529.4228018100478,195.65889797814003L529.8098398826548,195.3108128709099L530.2828864158416,194.96266322836067L531.0139583307664,194.66419782981274L531.4870048639532,194.51494731651144L531.8310387062706,194.4651945048991L532.0890640880089,194.51494731651144L532.3470894697473,194.66419782981274L532.8201360029339,194.91292229276803L533.0351571543822,195.1118781249079L533.2931825361204,195.26108116050347L533.5942121481482,195.36054326426944L533.8952417601758,195.36054326426944L534.1962713722039,195.36054326426944L534.8413348265494,195.36054326426944L535.7444236626329,195.21134813284004L536.2174701958197,195.16161378771164L536.5615040381372,195.16161378771164L536.8195294198754,195.26108116050347L537.0775548016136,195.36054326426944L537.3355801833516,195.55945167141613L537.5075971045105,195.7583390225256L537.59360556509,195.85777480624478L537.7656224862487,195.9572053309666L537.9376394074077,196.0069186217258L538.1956647891457,196.1063412610847L538.410685940594,196.20575864562073L538.6687113223325,196.30517077700495L539.0127451646499,196.45427912806912L539.3567790069676,196.65307189235818L539.6148043887056,196.85184367406106L539.958838231023,197.19964384279865L540.9049312973966,197.69638996913835L541.4639862911627,198.04403447629522L541.7220116729006,198.1433497249526L541.9800370546388,198.19300539142233L542.1950582060874,198.1433497249526L542.4100793575358,197.9943748936915L542.668104739274,197.94471400529466L543.0121385815917,197.7957235032664L543.4851851147782,197.74605738961844L543.8722231873855,197.59705120684765L544.0872443388339,197.49770721473323L544.3022654902825,197.34868141699894L544.4742824114412,197.24932434304202L544.6893035628896,197.05059448651264L544.8183162537587,196.95122170061057L544.9903331749176,196.85184367406106L545.205354326366,196.70276680438008L545.506383938394,196.5536781338705L545.7214050898424,196.45427912806912L545.936426241291,196.30517077700495L546.3234643138983,196.20575864562073L546.4524770047672,196.1063412610847L546.4524770047672,195.90749072587562L546.495481235057,195.65889797814003L546.5814896956363,195.4600001006836L546.753506616795,195.36054326426944L546.8825193076643,195.36054326426944L547.0115319985332,195.4102723407915L547.0975404591127,195.55945167141613L547.1405446894023,195.7583390225256L547.1405446894023,196.15605061010103L547.1835489196922,196.5536781338705L547.2265531499818,196.95122170061057L547.3555658408507,197.19964384279865L547.5705869922992,197.59705120684765L547.8286123740374,197.9943748936915L548.0866377557759,198.3419645618871L548.301658907224,198.49091199329519L548.7747054404108,198.49091199329519L549.1187392827285,198.44126415348615L549.4197688947561,198.39161500975234L549.6777942764945,198.49091199329519L549.8928154279429,198.6398476912513L550.0648323491016,198.83841037950526L550.1508408096811,198.987318721189L550.2798535005502,199.08658444041822L550.4518704217089,199.13621534808755L550.7098958034471,199.13621534808755L550.7959042640264,199.0369522315217L550.9249169548955,198.88804779538827L551.0539296457648,198.6398476912513L551.2259465669235,198.44126415348615L551.5269761789516,198.24265975292906L551.8280057909792,198.0936927533125L552.2150438635863,197.94471400529466L552.5160734756143,197.8453883102905L552.8601073179318,197.8453883102905L553.2471453905391,197.89505181089697L553.6771876934363,198.1433497249526L554.1932384569125,198.39161500975234L554.4942680689405,198.49091199329519L554.7952976809681,198.59020376197032L555.0533230627063,198.59020376197032L555.2683442141549,198.5405585293878L555.5263695958929,198.44126415348615L555.7413907473417,198.24265975292906L555.9564118987901,198.04403447629522L556.1714330502384,197.9943748936915L556.3864542016868,198.04403447629522L556.5584711228457,198.24265975292906L556.7304880440045,198.2923128096819L556.8595007348736,198.2923128096819L557.0745218863221,198.2923128096819L557.2035345771912,198.24265975292906L557.2895430377705,198.04403447629522L557.2895430377705,197.8453883102905L557.2895430377705,197.59705120684765L557.2895430377705,197.49770721473323L557.37555149835,197.29900353437296L557.5475684195087,197.29900353437296L557.7195853406674,197.34868141699894L557.8916022618264,197.44803325697137L558.0636191829851,197.44803325697137L558.2786403344335,197.44803325697137L558.4506572555922,197.34868141699894L558.6656784070408,197.24932434304202L558.8376953281995,197.05059448651264L559.0527164796483,196.90153334252045L559.1817291705172,197.0009087485385L559.3107418613863,197.14996203343475L559.4397545522554,197.24932434304202L559.5257630128347,197.39835799112933L559.5687672431243,197.59705120684765L559.6117714734141,197.7957235032664L559.5687672431243,197.9943748936915L559.6547757037038,198.19300539142233L559.8697968551521,198.39161500975234L560.0418137763111,198.49091199329519L560.1708264671802,198.6398476912513L560.2998391580493,198.83841037950526L560.4288518489184,199.08658444041822L560.5148603094979,199.13621534808755L560.643873000367,199.08658444041822L560.8158899215255,198.93768390921377L560.9449026123946,198.7391316407373L561.0739153032637,198.5405585293878L561.2459322244226,198.3419645618871L561.460953375871,198.19300539142233L561.6329702970297,198.0936927533125L561.7619829878988,197.94471400529466L561.8909956787679,197.8453883102905L561.9770041393474,197.64672124161723L561.9770041393474,197.29900353437296L561.9339999090578,197.10027891474232L561.9770041393474,196.80215269502372L562.0200083696373,196.50397928698823L562.1060168302165,196.15605061010103L562.5360591331132,196.35487487328584L563.0521098965896,196.40457765690434L563.3531395086177,196.50397928698823L563.4821521994868,196.70276680438008L563.6541691206455,196.95122170061057L563.6971733509351,197.14996203343475L563.740177581225,197.29900353437296L563.7831818115144,197.44803325697137L563.8261860418045,197.54737986462226L563.9551987326736,197.64672124161723L564.0842114235425,197.74605738961844L564.1702198841219,197.7957235032664L564.299232574991,197.89505181089697L564.3422368052807,197.9943748936915L564.4712494961498,198.1433497249526L564.6432664173087,198.44126415348615L564.6862706475983,198.5405585293878L564.7722791081774,198.68949031743824L564.8152833384672,198.987318721189L564.8582875687571,199.1858449547351L564.8152833384672,199.43397347990862L564.5572579567292,199.68206951062677L564.299232574991,199.78129883026332L563.9121945023835,200.17816419219088L563.6541691206455,200.57494656693257L563.4821521994868,200.62453853400876L563.3101352783278,200.72371858392296L563.0521098965896,200.77330666717359L562.9661014360104,200.87247895129383L562.7940845148516,201.1203870240077L562.7080760542722,201.41783405274475L561.8479914484783,202.0621431724183L561.3319406850021,202.30989634996104L560.9449026123946,202.60715766763758L560.6868772306564,202.7062344787508L560.4718560792078,202.85484004971846L559.9558053157316,203.2015413974666L559.482758782545,203.84524844831628L559.2677376310967,204.14227094083333L558.9667080190686,204.43924734573977L558.923703788779,204.58771827916388L558.8376953281995,204.83514427022845L558.8376953281995,204.98358453508433L558.5796699464615,205.52776723982794L558.364648795013,206.22014041045094L558.3216445647231,206.51679543900622L558.3216445647231,206.96169224328884L558.4076530253026,207.15939116462152L558.6656784070408,207.25823301792934L558.9667080190686,207.30765204345533L559.2677376310967,207.4559015179658L559.482758782545,207.65354975340932L559.5687672431243,207.99938544288847L559.6117714734141,208.39455037681137L559.5687672431243,208.59210253300944L559.6977799339936,208.78963449934366L559.9558053157316,208.98714628879077L560.2568349277594,209.28337616967048L560.3858476186288,209.6289204145951L560.5578645397875,209.8263465969104L561.030911072974,209.97440303650347L561.3749449152917,210.17179403681774L561.6759745273196,210.41850454249095L561.8049872181884,210.6651836887134L561.5899660667401,211.10912720665124L561.4179491455814,211.40503322299793L561.3319406850021,211.79950456643598L561.2889364547123,212.09530562164986L561.5469618364505,212.5389230101868L561.6759745273196,213.0809850268236L561.5039576061606,213.42585522523945L561.202927994133,213.4751174264395L560.901898382105,213.4751174264395L560.643873000367,213.32732709634047L560.4288518489184,213.13025592693197L560.1708264671802,212.933164864672L559.912801085442,212.78533350556165L559.7837883945731,212.7360538967087L559.6547757037038,212.7360538967087L559.5257630128347,212.78533350556165L559.2677376310967,213.03171288321113L559.0527164796483,213.1795255837369L558.7086826373306,213.72140980797553L558.5366657161717,213.72140980797553L558.4076530253026,213.8199180729154L558.3216445647231,214.0169197184594L558.3216445647231,214.31238499998102L558.192631873854,214.657038146753L558.0206149526955,214.80472807786418L557.934606492116,214.90318184915225L557.8485980315365,215.10007456024044L557.8055938012469,215.39537657213958L557.8916022618264,215.59221989556443L558.1066234132747,215.88744788589048L558.2786403344335,216.0842419015283L558.5366657161717,216.33020671836397L558.7086826373306,216.57614077766857L558.7516868676203,216.8220441043506L558.7086826373306,217.0679167233033L558.4936614858821,217.31375865940834L558.192631873854,217.3629233668762L557.934606492116,217.5104101333527L557.6765811103778,217.75619690298635L557.3325472680604,217.5104101333527L557.2465388074806,217.4612491036491L557.0745218863221,217.31375865940834L556.9025049651632,217.21542556531608L556.7304880440045,217.0679167233033L556.6444795834252,216.96957135905689L556.5154668925559,216.8220441043506L556.3004457411075,216.67450579486194L556.0424203593693,216.57614077766857L555.5693738261825,216.23182448392885L555.4403611353137,216.18263152076133L555.2683442141549,216.13343732669392L555.0103188324165,216.13343732669392L554.8383019112578,216.13343732669392L554.6232807598094,216.0842419015283L554.5372722992302,216.0842419015283L554.408259608361,215.98584735710375L554.3222511477816,215.93664823744547L554.2362426872021,215.88744788589048L554.1502342266228,215.83824630224052L554.0642257660434,215.73983943785294L553.9782173054639,215.64142764268786L553.9352130751743,215.59221989556443L553.8062003843054,215.54301091514748L553.7631961540155,215.59221989556443L553.6771876934363,215.64142764268786L553.548175002567,215.73983943785294L553.5051707722773,215.83824630224052L553.4621665419877,215.93664823744547L553.4621665419877,216.0842419015283L553.4621665419877,216.23182448392885L553.4621665419877,216.37939599002988L553.4191623116978,216.5269564252148L553.3331538511186,216.5269564252148L553.2471453905391,216.47777084325617L553.0321242390908,216.33020671836397L552.8601073179318,216.23182448392885L552.6880903967731,216.18263152076133L552.6020819361936,216.23182448392885L552.559077705904,216.23182448392885L552.559077705904,216.37939599002988L552.6450861664835,216.4285840315946L552.7310946270627,216.5269564252148L552.7310946270627,216.67450579486194L552.7740988573526,216.8220441043506L552.7740988573526,216.87122108396306L552.8171030876422,216.96957135905689L552.8171030876422,217.16625717829436L552.8171030876422,217.21542556531608L552.7310946270627,217.41208684822317L552.4730692453247,217.70704199891503L552.3440565544554,217.8545030377378L552.2580480938759,217.90365426881493L552.1720396332969,217.90365426881493L552.0860311727174,217.90365426881493L552.0000227121379,217.80535058252792L551.9140142515585,217.70704199891503L551.8710100212688,217.65788587011423L551.7419973303997,217.55956993753176L551.6129846395306,217.55956993753176L551.4409677183721,217.5104101333527L551.2689507972132,217.4612491036491L551.1829423366339,217.3629233668762L551.0969338760544,217.26459272562113L550.9679211851853,217.26459272562113L550.8389084943162,217.26459272562113L550.8819127246059,217.41208684822317L550.9249169548955,217.4612491036491L550.9249169548955,217.60872851638595L550.8389084943162,217.70704199891503L550.7098958034471,217.70704199891503L550.580883112578,217.65788587011423L550.4948746519988,217.65788587011423L550.3658619611297,217.70704199891503L550.3228577308398,217.70704199891503L550.2368492702606,217.8545030377378L550.1508408096811,217.95280427595816L550.1078365793912,218.1002469557676L550.0648323491016,218.19853595961132L550.1078365793912,218.29682007248255L550.1508408096811,218.44423707469173L550.1508408096811,218.5425089670805L550.1938450399707,218.6407759740532L550.2368492702606,218.78816732782838L550.2368492702606,218.98467204871162L550.2368492702606,219.13203778319775L550.1508408096811,219.2302755109813L550.0648323491016,219.37762296380663L550.021828118812,219.47584850876729L550.021828118812,219.57406918336994L549.9788238885221,219.67228498919832L549.8498111976533,219.67228498919832L549.7207985067841,219.67228498919832L549.5487815856254,219.67228498919832L549.3767646644665,219.67228498919832L549.2477519735974,219.62317769478193L549.032730822149,219.57406918336994L548.8177096707007,219.57406918336994L548.6886969798313,219.57406918336994L548.5166800586726,219.67228498919832L548.3876673678035,219.86870200086383L548.215650446645,220.16329104211644L548.0436335254858,220.31056915999739L547.9146208346169,220.4578363498287L547.7856081437478,220.55600840787878L547.5275827620096,220.8995724043516L547.4845785317198,221.0958680228219L547.4415743014301,221.24307701975533L547.4415743014301,221.43933873656266L547.4845785317198,221.63558109833832L547.4845785317198,221.7827501755179L547.5275827620096,221.97895869632907L547.5275827620096,222.1261024072585L547.5705869922992,222.51843254579808L547.5275827620096,222.81262951911793L547.5275827620096,222.95971174669768L547.4845785317198,223.10678314196315L547.3985700711405,223.20482472347317L547.312561610561,223.20482472347317L547.1835489196922,223.30286149454884L547.1405446894023,223.40089345675972L547.1405446894023,223.54793238689035L547.1405446894023,223.6949605059056L547.1405446894023,223.79297324835602L547.0975404591127,223.84197781910154L547.0975404591127,223.93998336061247L546.925523537954,224.1849762236575L546.925523537954,224.3319575556763L546.925523537954,224.42993911953283L546.9685277682436,224.47892810480175L547.0975404591127,224.47892810480175L547.2265531499818,224.5279158925586L547.3555658408507,224.5769024830003L547.4415743014301,224.67487207271705L547.4845785317198,224.72385507238425L547.4845785317198,224.82181748231437L547.3985700711405,224.91977510767572L547.312561610561,224.96875212663292L547.2265531499818,224.96875212663292L547.1405446894023,225.01772795003433L547.054536228823,225.06670257807554L547.0115319985332,225.16464824886168L546.9685277682436,225.2625891405546L546.925523537954,225.36052525471752L546.8395150773745,225.65430494765906L546.8395150773745,225.75222196733142L546.8395150773745,225.89908855410937L546.8395150773745,225.9969936524172L546.7965108470848,226.14384236446563L546.7105023865054,226.5353865460243L546.6244939259259,226.9268546118264L546.6674981562155,227.12256013248947L546.7105023865054,227.2204057702133L546.7105023865054,227.36716532791706L546.6674981562155,227.41608280822794L546.5814896956363,227.41608280822794L546.4524770047672,227.46499910273508L546.3664685441879,227.46499910273508L546.2374558533188,227.46499910273508L546.1084431624497,227.41608280822794L545.9794304715806,227.36716532791706L545.7214050898424,227.36716532791706L545.6353966292631,227.31824666160736L545.506383938394,227.26932680910363L545.3773712475249,227.26932680910363L545.2483585566558,227.26932680910363L545.1623500960764,227.26932680910363L545.1193458657867,227.26932680910363L545.1193458657867,227.17148354474L545.0763416354969,227.0736355332677L544.9473289446278,227.02470974688026L544.8613204840483,227.0736355332677L544.8183162537587,227.17148354474L544.7753120234693,227.31824666160736L544.7323077931792,227.41608280822794L544.6462993326002,227.5628281351144L544.5172866417308,227.85628679317426L544.4312781811516,227.95409687135162L544.3452697205721,228.05190221486492L544.216257029703,228.05190221486492L544.044240108544,228.05190221486492L543.9152274176754,228.14970282526906L543.7862147268061,228.2474987041167L543.7002062662268,228.34528985296174L543.3991766541988,228.34528985296174L543.22715973304,228.34528985296174L543.0551428118813,228.34528985296174L542.969134351302,228.34528985296174L542.9261301210122,228.2474987041167L542.9261301210122,228.19860135604023L542.969134351302,228.14970282526906L543.0121385815917,228.00300013484372L543.0121385815917,227.90519242419288L542.969134351302,227.80737997810076L542.7971174301431,227.66065242661023L542.7111089695636,227.61174087337537L542.5820962786945,227.51391421163208L542.4100793575358,227.46499910273508L542.2810666666669,227.41608280822794L542.1520539757978,227.41608280822794L542.0660455152183,227.41608280822794L541.9800370546388,227.46499910273508L541.9370328243492,227.5628281351144L541.9370328243492,227.66065242661023L541.9370328243492,227.75847197877874L541.9370328243492,227.90519242419288L541.8940285940594,228.05190221486492L541.8510243637697,228.14970282526906L541.679007442611,228.19860135604023L541.5929989820318,228.19860135604023L541.4209820608726,228.14970282526906L541.2919693700039,228.19860135604023L541.1629566791346,228.2474987041167L541.0769482185551,228.29639486969256L540.9909397579759,228.34528985296174L540.8619270671068,228.34528985296174L540.7329143762379,228.29639486969256L540.6469059156582,228.2474987041167L540.5178932247891,228.14970282526906L540.4318847642098,228.1008031116084L540.3028720733407,228.00300013484372L540.2168636127615,227.90519242419288L540.0878509218924,227.80737997810076L540.0018424613129,227.70956279501326L539.872829770444,227.70956279501326L539.7868213098643,227.70956279501326L539.7438170795747,227.75847197877874L539.7008128492851,227.85628679317426L539.6148043887056,227.95409687135162L539.571800158416,228.19860135604023L539.571800158416,228.34528985296174L539.4857916978365,228.3941836541186L539.3137747766777,228.3941836541186L539.2277663160983,228.3941836541186L539.1847620858086,228.44307627335735L539.2277663160983,228.68752164756694L539.1417578555188,228.78529153061368L539.0127451646499,228.88305669219523L538.9267367040704,228.93193750292176L538.7977240132013,228.93193750292176L538.6687113223325,228.93193750292176L538.582702861753,229.02969558521352L538.4966944011735,229.12744894991778L538.4966944011735,229.27407015488814L538.4966944011735,229.3718117324056L538.3676817103044,229.5672807524997L538.2816732497251,229.71387015559708L538.2816732497251,229.86044896852496L538.3246774800148,230.0558709211944L538.410685940594,230.25127406856194L538.410685940594,230.39781409555206L538.2816732497251,230.49550157666647L538.1956647891457,230.49550157666647L538.0236478679869,230.54434355673936L537.8946351771178,230.6420239968831L537.8946351771178,230.73969974497777L537.9376394074077,230.83737080256896L537.9806436376973,230.93503717120075L537.9376394074077,231.0326988524174L537.8516309468282,231.0815279357277L537.8516309468282,231.22800815878225L537.8086267165384,231.3744778455727L537.7656224862487,231.47211845252446L537.6796140256693,231.47211845252446L537.421588643931,231.4232987340106L537.2925759530622,231.3744778455727L537.2065674924825,231.32565578701684L537.1205590319034,231.1791825887172L536.9915463410341,231.0815279357277L536.862533650165,230.886204572908L536.6905167290063,230.7885358599895L536.5615040381372,230.6420239968831L536.3894871169784,230.49550157666647L536.1314617352402,230.30012191852546L536.0024490443714,230.25127406856194L535.7444236626329,230.10472347054974L535.6584152020537,230.0558709211944L535.5294025111846,230.00701719650755L535.4003898203155,230.00701719650755L535.3143813597362,229.9581622962961L535.2713771294464,229.86044896852496L535.1853686688669,229.76273093633398L535.1853686688669,229.71387015559708L535.2283728991567,229.61614506387338L535.3143813597362,229.51841526385925L535.4003898203155,229.42068075400584L535.6154109717638,229.2251975985846L535.6584152020537,229.17632386365898L535.7444236626329,229.07857285716722L535.7444236626329,228.9808171338628L535.7014194323433,228.88305669219523L535.6154109717638,228.78529153061368L535.6154109717638,228.68752164756694L535.5294025111846,228.63863493500946L535.5294025111846,228.54085796685575L535.5294025111846,228.44307627335735L535.5724067414742,228.34528985296174L535.6584152020537,228.29639486969256L535.6584152020537,228.19860135604023L535.6584152020537,228.1008031116084L535.6154109717638,228.1008031116084L535.6154109717638,228.05190221486492L535.6154109717638,228.00300013484372L535.486398280895,227.90519242419288L535.4003898203155,227.85628679317426L535.3573855900258,227.85628679317426L535.3143813597362,227.90519242419288L535.3143813597362,228.00300013484372L535.2283728991567,228.05190221486492L535.1423644385773,227.95409687135162L535.0563559779978,227.85628679317426L535.0133517477082,227.80737997810076L534.9273432871287,227.75847197877874L534.884339056839,227.80737997810076L534.7983305962598,227.80737997810076L534.7983305962598,227.85628679317426L534.7123221356803,228.00300013484372L534.6263136751011,228.05190221486492L534.5403052145216,228.1008031116084L534.4542967539421,228.14970282526906L534.325284063073,228.14970282526906L534.1962713722039,228.14970282526906L534.067258681335,228.14970282526906L533.9812502207553,228.1008031116084L533.9382459904659,228.1008031116084L533.8092332995968,227.95409687135162L533.7232248390173,227.85628679317426L533.6802206087277,227.80737997810076L533.5512079178584,227.75847197877874L533.5082036875688,227.66065242661023L533.3791909966999,227.5628281351144L533.2931825361204,227.46499910273508L533.2931825361204,227.36716532791706L533.2931825361204,227.2204057702133L533.2931825361204,227.0736355332677L533.33618676641,226.9757827731314L533.4221952269895,226.8289947257727L533.4221952269895,226.68219598515702L533.4651994572791,226.5353865460243L533.5082036875688,226.3396239759512L533.4651994572791,226.14384236446563L533.3791909966999,226.04594441429305L533.2931825361204,225.94804169908747L533.2071740755409,225.85013421728758L533.1211656149615,225.80117868842655L533.0351571543822,225.70326405380763L532.8631402332232,225.65430494765906L532.777131772644,225.60534464869056L532.6911233120647,225.55638315670717L532.6051148514853,225.55638315670717L532.5191063909058,225.55638315670717L532.3470894697473,225.55638315670717L532.2610810091676,225.55638315670717L532.1750725485883,225.50742047151368L532.0890640880089,225.4584565929141L531.9170471668501,225.31155779472942L531.8310387062706,225.31155779472942L531.7020260154015,225.31155779472942L531.5730133245324,225.36052525471752L531.4870048639532,225.4094915207137L531.3579921730841,225.4584565929141L531.2719837125046,225.55638315670717L531.1429710216357,225.60534464869056L531.0569625610563,225.60534464869056L530.9279498701869,225.55638315670717L530.8419414096077,225.55638315670717L530.5839160278695,225.50742047151368L530.4549033370006,225.50742047151368L530.3258906461315,225.36052525471752L530.239882185552,225.2625891405546L530.0678652643933,225.11567601095317L529.9388525735242,225.01772795003433L529.8098398826548,224.87079689296792L529.6808271917857,224.77283687551812L529.5518145009169,224.62588787632086L529.4228018100478,224.5769024830003L529.2937891191787,224.5279158925586L529.1217721980199,224.5279158925586L528.9927595071506,224.5279158925586L528.8637468162817,224.5279158925586L528.691729895123,224.5279158925586L528.6057214345435,224.5279158925586L528.4767087436744,224.42993911953283L528.3907002830949,224.38094893655608L528.2616875922258,224.3319575556763L528.0896706710671,224.3319575556763L527.9176537499084,224.2829649766968L527.8316452893291,224.2829649766968L527.70263259846,224.2829649766968L527.5736199075907,224.3319575556763L527.4446072167218,224.47892810480175L527.3585987561423,224.62588787632086L527.3155945258527,224.77283687551812L527.3155945258527,224.87079689296792L527.3155945258527,225.01772795003433L527.3155945258527,225.11567601095317L527.3585987561423,225.2625891405546L527.3585987561423,225.4094915207137L527.401602986432,225.55638315670717L527.3585987561423,225.75222196733142L527.2295860652735,225.89908855410937L527.1005733744043,225.9969936524172L527.0145649138249,226.09489398491115L526.8425479926659,226.38856640311417L526.7565395320867,226.4375076403847L526.6705310715072,226.48644768795617L526.5415183806383,226.58432421478363L526.5415183806383,226.68219598515702L526.5415183806383,226.78006300063333L526.5415183806383,226.87792526277235L526.5845226109279,227.02470974688026L526.5845226109279,227.17148354474L526.6275268412176,227.26932680910363L526.6705310715072,227.41608280822794L526.6705310715072,227.70956279501326L526.6275268412176,227.90519242419288L526.5845226109279,228.05190221486492L526.4985141503485,228.1008031116084L526.4125056897692,228.14970282526906L526.1974845383206,228.19860135604023L526.0254676171617,228.14970282526906L525.8964549262928,228.1008031116084L525.7244380051338,228.05190221486492L525.6384295445544,228.05190221486492L525.5094168536855,228.1008031116084L525.423408393106,228.14970282526906L525.2943957022369,228.2474987041167L525.2083872416576,228.29639486969256L525.165383011368,228.3941836541186L525.0363703204987,228.49196771087168L524.9503618599192,228.58974704150341L524.8213491690506,228.58974704150341L524.7783449387605,228.68752164756694L524.6493322478916,228.78529153061368L524.5203195570225,228.83417470149095L524.434311096443,228.83417470149095L524.2622941752843,228.78529153061368L524.1762857147048,228.7364071793707L523.9612645632565,228.68752164756694L523.7892476420977,228.63863493500946L523.6602349512286,228.58974704150341L523.4882180300697,228.58974704150341L523.2301926483317,228.58974704150341L523.1011799574626,228.58974704150341L522.9291630363039,228.54085796685575L522.8001503454345,228.54085796685575L522.7571461151449,228.49196771087168L522.6281334242758,228.44307627335735L522.4561165031171,228.44307627335735L522.3701080425376,228.49196771087168L522.327103812248,228.54085796685575L522.327103812248,228.63863493500946L522.4131122728274,228.7364071793707L522.4561165031171,228.7364071793707L522.5421249636966,228.78529153061368L522.5421249636966,228.83417470149095L522.4991207334067,228.88305669219523L522.4131122728274,228.93193750292176L522.2840995819581,229.02969558521352L522.1550868910892,229.02969558521352L521.9830699699305,229.07857285716722L521.8540572790614,229.07857285716722L521.6820403579025,229.07857285716722L521.639036127613,229.07857285716722L521.510023436744,229.02969558521352L521.338006515585,228.9808171338628L521.2089938247159,228.9808171338628L521.0369769035572,228.9808171338628L520.9079642126881,229.02969558521352L520.7789515218187,229.07857285716722L520.7359472915291,229.17632386365898L520.6929430612395,229.2251975985846L520.6069346006602,229.3718117324056L520.5209261400807,229.46954859775923L520.3059049886324,229.61614506387338L520.1338880674734,229.76273093633398L520.047879606894,229.81159054057878L519.8758626857352,229.86044896852496L519.789854225156,229.86044896852496L519.6608415342869,229.86044896852496L519.5318288434178,229.86044896852496L519.4028161525487,229.86044896852496L519.2738034616796,229.86044896852496L519.2307992313899,229.9581622962961L519.1447907708105,230.00701719650755L519.1017865405208,230.10472347054974L519.1447907708105,230.20242504404L519.1877950011001,230.30012191852546L519.2738034616796,230.39781409555206L519.3168076919692,230.4466584230023L519.2738034616796,230.49550157666647L519.2307992313899,230.5931843634139L519.1447907708105,230.6420239968831L519.0587823102312,230.69086245734002L518.9297696193621,230.7885358599895L518.8437611587824,230.83737080256896L518.7147484679135,230.886204572908L518.628740007334,230.93503717120075L518.5857357770444,231.0326988524174L518.5427315467548,231.13035584776378L518.4997273164649,231.22800815878225L518.4997273164649,231.32565578701684L518.4567230861753,231.4232987340106L518.3707146255961,231.47211845252446L518.3277103953064,231.5209370013061L518.2417019347267,231.47211845252446L518.1986977044373,231.4232987340106L518.1556934741473,231.3744778455727L518.1556934741473,231.32565578701684L518.1556934741473,231.13035584776378L518.1556934741473,230.93503717120075L518.1126892438576,230.73969974497777L518.1126892438576,230.6420239968831L518.0696850135682,230.54434355673936L517.9836765529888,230.4466584230023L517.8546638621197,230.4466584230023L517.7686554015402,230.5931843634139L517.6826469409609,230.7885358599895L517.5966384803814,230.7885358599895L517.4676257895123,230.7885358599895L517.2956088683538,230.7885358599895L517.2096004077744,230.83737080256896L517.1235919471947,230.886204572908L516.9945792563258,230.93503717120075L516.822562335167,231.1791825887172L516.6505454140081,231.32565578701684L516.6075411837187,231.47211845252446L516.4785284928494,231.47211845252446L516.3495158019803,231.4232987340106L516.1344946505319,231.3744778455727L515.962477729373,231.3744778455727L515.8764692687935,231.32565578701684L515.704452347635,231.2768325581511L515.532435426476,231.2768325581511L515.4464269658968,231.2768325581511L515.2744100447378,231.0326988524174L515.2314058144482,230.83737080256896L515.1453973538687,230.6420239968831L515.1453973538687,230.39781409555206L515.1453973538687,230.34896859412436L515.1023931235791,230.20242504404L514.97338043271,230.0558709211944L514.8873719721307,230.0558709211944L514.7583592812616,230.0558709211944L514.5863423601029,230.10472347054974L514.4143254389439,230.10472347054974L514.3283169783647,230.0558709211944L514.2853127480748,230.00701719650755L514.2423085177852,229.90930622036632L514.2423085177852,229.81159054057878L514.3283169783647,229.71387015559708L514.3713212086543,229.5672807524997L514.3713212086543,229.3718117324056L514.4143254389439,229.27407015488814L514.4573296692336,229.17632386365898L514.4143254389439,229.07857285716722L514.3713212086543,228.9808171338628L514.2853127480748,228.88305669219523L514.1993042874956,228.83417470149095L514.1132958269161,228.78529153061368L513.9842831360472,228.78529153061368L513.9412789057571,228.78529153061368L513.8552704451781,228.78529153061368L513.7692619845986,228.83417470149095L513.6832535240192,228.88305669219523L513.6402492937295,229.02969558521352L513.6402492937295,229.12744894991778L513.5972450634397,229.17632386365898L513.5542408331501,229.2251975985846L513.4682323725708,229.27407015488814L513.3392196817015,229.27407015488814L513.253211221122,229.46954859775923L513.167202760543,229.5672807524997L513.1241985302531,229.66500819817475L513.0381900696736,229.66500819817475L512.9521816090944,229.66500819817475L512.8661731485149,229.66500819817475L512.7801646879357,229.61614506387338L512.6941562273562,229.61614506387338L512.6511519970666,229.61614506387338L512.5651435364871,229.61614506387338L512.436130845618,229.66500819817475L512.3501223850385,229.76273093633398L512.2641139244593,229.86044896852496L512.2211096941694,229.90930622036632L512.1351012335901,230.15357484476687L512.006088542721,230.30012191852546L512.006088542721,230.54434355673936L512.006088542721,230.6420239968831L512.006088542721,230.73969974497777L512.006088542721,230.83737080256896L511.9630843124314,230.886204572908L511.87707585185194,230.886204572908L511.79106739127246,230.83737080256896L511.74806316098284,230.7885358599895L511.7050589306932,230.7885358599895L511.4040293186654,230.7885358599895L511.2750166277963,230.7885358599895L511.1460039369272,230.7885358599895L511.0599954763477,230.7885358599895L510.9739870157682,230.69086245734002L510.9739870157682,230.6420239968831L510.9309827854786,230.54434355673936L510.9309827854786,230.39781409555206L510.84497432489934,230.34896859412436L510.75896586431986,230.39781409555206L510.71596163403,230.4466584230023L510.62995317345053,230.49550157666647L510.58694894316113,230.5931843634139L510.5439447128715,230.6420239968831L510.5439447128715,230.73969974497777L510.5439447128715,230.7885358599895L510.45793625229203,230.83737080256896L510.37192779171255,230.886204572908L510.3289235614229,230.9838685976393L510.3289235614229,231.0815279357277L510.2859193311331,231.1791825887172L510.11390240997457,231.2768325581511L510.0278939493951,231.3744778455727L509.85587702823614,231.4232987340106L509.72686433736726,231.569754380549L509.7698685676569,231.6673856311882L509.7698685676569,231.8626341064799L509.7698685676569,231.91144330434594L509.6408558767878,232.0090581962782L509.6408558767878,232.05786389072944L509.6408558767878,232.204273970335L509.6408558767878,232.35067354836087L509.6408558767878,232.3994710749161L509.6408558767878,232.49706263000263L509.59785164649793,232.59464952233827L509.5548474162083,232.64344122045543L509.46883895562905,232.59464952233827L509.3828304950496,232.49706263000263L509.2968220344703,232.44826743539977L509.25381780418047,232.3994710749161L509.25381780418047,232.3018748555404L509.25381780418047,232.25307499626257L509.2968220344703,232.204273970335L509.33982626475995,232.10666841776106L509.2968220344703,232.05786389072944L509.21081357389085,232.0090581962782L509.08180088302197,231.91144330434594L508.99579242244226,231.8626341064799L508.86677973157316,231.8626341064799L508.7807712709939,231.81382374042386L508.6517585801248,231.716199502971L508.5657501195453,231.569754380549L508.4367374286762,231.3744778455727L508.35072896809675,231.2768325581511L508.3077247378071,231.22800815878225L508.22171627722787,231.13035584776378L508.17871204693824,231.0326988524174L508.09270358635877,230.9838685976393L508.0066951257793,230.93503717120075L507.92068666520004,230.886204572908L507.83467820462056,230.886204572908L507.70566551375146,230.83737080256896L507.57665282288235,230.73969974497777L507.44764013201325,230.5931843634139L507.4046359017236,230.49550157666647L507.4046359017236,230.39781409555206L507.31862744114414,230.25127406856194L507.2756232108543,230.20242504404L507.2326189805649,230.15357484476687L507.14661051998564,230.0558709211944L507.0175978291163,230.00701719650755L506.93158936853683,229.9581622962961L506.80257667766796,229.90930622036632L506.67356398679885,229.81159054057878L506.5875555262194,229.76273093633398L506.5875555262194,229.66500819817475L506.630559756509,229.5672807524997L506.7595724473781,229.5672807524997L506.8885851382472,229.51841526385925L507.0175978291163,229.42068075400584L507.06060205940616,229.17632386365898L507.0175978291163,229.07857285716722L506.93158936853683,229.02969558521352L506.8455809079576,228.93193750292176L506.7595724473781,228.83417470149095L506.7165682170885,228.7364071793707L506.7165682170885,228.63863493500946L506.7165682170885,228.49196771087168L506.7165682170885,228.34528985296174L506.7165682170885,228.19860135604023L506.7165682170885,228.05190221486492L506.67356398679885,227.95409687135162L506.5875555262194,227.90519242419288L506.4585428353505,227.95409687135162L506.372534374771,227.95409687135162L506.2435216839017,228.00300013484372L506.15751322332244,228.1008031116084L506.15751322332244,228.19860135604023L506.20051745361206,228.34528985296174L506.20051745361206,228.44307627335735L506.15751322332244,228.54085796685575L506.1145089930328,228.58974704150341L506.02850053245334,228.63863493500946L505.89948784158423,228.58974704150341L505.89948784158423,228.54085796685575L505.81347938100475,228.44307627335735L505.7274709204253,228.34528985296174L505.68446669013565,228.34528985296174L505.5984582295564,228.34528985296174L505.5124497689769,228.3941836541186L505.5124497689769,228.44307627335735L505.4694455386873,228.44307627335735L505.3404328478182,228.44307627335735L505.29742861752857,228.3941836541186L505.2114201569491,228.3941836541186L505.16841592665946,228.3941836541186L505.08240746608,228.44307627335735L504.9533947752109,228.44307627335735L504.8243820843418,228.54085796685575L504.8243820843418,228.63863493500946L504.86738631463163,228.7364071793707L504.9963990055005,229.02969558521352L505.03940323579013,229.12744894991778L505.03940323579013,229.2251975985846L504.9963990055005,229.32294153276405L504.9533947752109,229.3718117324056L504.86738631463163,229.42068075400584L504.78137785405215,229.42068075400584L504.6953693934727,229.42068075400584L504.65236516318305,229.3718117324056L504.6093609328934,229.32294153276405L504.6093609328934,229.2251975985846L504.5663567026038,229.07857285716722L504.6093609328934,228.93193750292176L504.6093609328934,228.78529153061368L504.5663567026038,228.68752164756694L504.4803482420243,228.68752164756694L504.3513355511552,228.68752164756694L504.26532709057574,228.78529153061368L504.26532709057574,228.88305669219523L504.30833132086536,228.9808171338628L504.26532709057574,229.12744894991778L504.26532709057574,229.17632386365898L504.2223228602861,229.32294153276405L504.13631439970663,229.3718117324056L504.00730170883753,229.3718117324056L503.9212932482583,229.2251975985846L503.9212932482583,229.07857285716722L503.87828901796865,228.93193750292176L503.7922805573892,228.78529153061368L503.74927632709955,228.58974704150341L503.7062720968099,228.49196771087168L503.5772594059406,228.2474987041167L503.49125094536134,228.14970282526906L503.4482467150715,228.00300013484372L503.36223825449224,227.85628679317426L503.1902213333335,227.51391421163208L503.0612086424644,227.41608280822794L503.0182044121748,227.31824666160736L502.97520018188493,227.26932680910363L502.9321959515953,227.26932680910363L502.8461874910158,227.17148354474L502.7171748001467,227.0736355332677L502.63116633956747,227.02470974688026L502.50215364869837,226.9268546118264L502.4591494184085,226.78006300063333L502.4161451881189,226.68219598515702L502.33013672753964,226.58432421478363L502.24412826696016,226.58432421478363L502.1581198063807,226.63326069442974L502.0721113458012,226.73113008716012L502.0291071155116,226.8289947257727L501.98610288522195,226.87792526277235L501.9000944246427,227.02470974688026L501.85709019435285,227.12256013248947L501.77108173377337,227.26932680910363L501.64206904290427,227.41608280822794L501.55606058232524,227.5628281351144L501.47005212174577,227.61174087337537L501.2980352005868,227.85628679317426L501.21202674000756,227.90519242419288L501.08301404913846,228.00300013484372L500.9540013582691,228.1008031116084L500.8249886674,228.14970282526906L500.69597597653114,228.19860135604023L500.56696328566204,228.19860135604023L500.3949463645033,228.19860135604023L500.2659336736342,228.2474987041167L500.09391675247525,228.34528985296174L499.9218998313165,228.3941836541186L499.7928871404474,228.44307627335735L499.66387444957854,228.49196771087168L499.4918575284196,228.54085796685575L499.31984060726086,228.58974704150341L499.2338321466814,228.63863493500946L499.06181522552265,228.7364071793707L498.9758067649434,228.78529153061368L498.7607856134948,228.78529153061368L498.54576446204624,228.83417470149095L498.28773908030803,228.88305669219523L498.20173061972855,228.83417470149095L497.9867094682802,228.83417470149095L497.81469254712147,228.78529153061368L497.5996713956729,228.78529153061368L497.42765447451416,228.78529153061368L496.9976121716172,228.7364071793707L496.8685994807481,228.7364071793707L496.6965825595894,228.7364071793707L496.52456563843066,228.68752164756694L496.35254871727193,228.68752164756694L496.180531796113,228.63863493500946L496.00851487495424,228.63863493500946L495.87950218408514,228.63863493500946L495.6644810326368,228.63863493500946L495.49246411147806,228.63863493500946L495.3204471903191,228.63863493500946L495.01941757829127,228.63863493500946L494.933409117712,228.68752164756694L494.7613921965533,228.68752164756694L494.4603625845252,228.7364071793707L494.6753837359738,228.49196771087168L494.9764133480014,228.1008031116084L495.19143449945,227.61174087337537L495.2344387297396,227.31824666160736L495.2774429600295,227.2204057702133L495.2774429600295,227.02470974688026L495.2774429600295,226.87792526277235L495.10542603887075,226.73113008716012L494.89040488742194,226.58432421478363L494.7613921965533,226.4375076403847L494.7183879662632,226.19278955315184L494.63237950568396,225.94804169908747L494.4603625845252,225.65430494765906L494.3313498936561,225.4094915207137L494.15933297249717,225.21361929199708L493.9013075907592,225.06670257807554L493.643282209021,224.96875212663292L493.4282610575724,224.82181748231437L493.25624413641367,224.67487207271705L493.1702356758342,224.42993911953283L493.12723144554457,224.1849762236575L492.9982187546757,223.93998336061247L492.69718914264763,223.49892061167708L492.5681764517785,223.20482472347317L492.4821679911993,222.8616581322284L492.3531553003302,222.37131778944598L492.3531553003302,221.97895869632907L492.3531553003302,221.58652232173887L492.31015107004055,221.24307701975533L492.2671468397507,220.9977226365143L492.18113837917144,220.65417561296738L492.09512991859197,220.2614776685283L492.1381341488818,219.86870200086383L492.3531553003302,219.47584850876729L492.5251722214889,219.03379517951282L492.5681764517785,218.59164308114464L492.61118068206815,218.29682007248255L492.69718914264763,218.0019530593658L492.95521452438584,217.70704199891503L493.1702356758342,217.5104101333527L493.47126528786225,217.31375865940834L493.7722948998901,217.21542556531608L494.15933297249717,217.0679167233033L494.7183879662632,216.8220441043506L495.0624218085809,216.62532390081782L495.3634514206087,216.4285840315946L495.62147680234716,216.13343732669392L495.8364979537955,215.78904348629436L495.9655106446646,215.64142764268786L496.2235360264028,215.44458925363477L496.4815614081408,215.34616265655188L496.8255952504585,215.2969475066729L497.2556375533554,215.34616265655188L497.5136629350934,215.1985135032391L497.77168831683184,215.00163067607764L497.9867094682802,214.75549933758396L498.28773908030803,214.41086351708555L498.7607856134948,214.16465793513612L499.0188109952328,214.06616703011127L499.2338321466814,213.96767116711425L499.6208702192889,213.8199180729154L500.007908291896,213.57363810334584L500.22292944334436,213.37659178193962L500.48095482508256,212.8838889893429L500.69597597653114,212.5389230101868L501.0400098188486,211.89810991095277L501.21202674000756,211.65158718367138L501.4270478914559,211.5036585568854L501.6850732731939,211.3064028877372L502.0721113458012,211.20776754949333L502.33013672753964,211.05980515800223L502.63116633956747,210.7145157570448L502.88919172130545,210.41850454249095L503.53425517565097,209.77699193704206L503.9212932482583,209.48083757363554L504.13631439970663,209.43147411047983L504.4803482420243,209.48083757363554L504.86738631463163,209.57956072549098L505.25442438723894,209.8263465969104L505.5554539992668,209.8263465969104L505.7274709204253,209.97440303650347L505.94249207187386,210.02375267037178L506.15751322332244,210.07310104824523L506.5015470656401,209.87569999997527L506.7165682170885,209.6289204145951L506.93158936853683,209.38210938890194L507.2756232108543,209.18463791432202L507.5336485925927,209.08589462123507L507.8776824349104,209.234007671612L508.09270358635877,209.38210938890194L508.35072896809675,209.53019977857156L508.5657501195453,209.67827884608698L508.95278819215264,209.77699193704206L509.2968220344703,209.8263465969104L509.89888125852576,209.87569999997527L510.37192779171255,209.92505214643876L510.71596163403,209.92505214643876L511.1029997066373,209.92505214643876L511.2750166277963,209.8263465969104L511.2750166277963,209.6289204145951L511.1890081672168,209.53019977857156L510.9739870157682,209.43147411047983L510.84497432489934,209.234007671612L510.8019700946097,208.98714628879077L510.84497432489934,208.69087103909834L510.75896586431986,208.24637300225567L510.58694894316113,208.09818425811886L510.2859193311331,207.9499841389216L509.98488971910524,207.60413959364286L509.6408558767878,207.30765204345533L509.33982626475995,207.15939116462152L508.99579242244226,206.86283517200752L508.1357078166484,206.41791551327907L507.8776824349104,206.17069345618484L507.5336485925927,206.02234496158388L507.361631671434,206.02234496158388L507.06060205940616,205.97289291876916L506.93158936853683,205.97289291876916L506.7165682170885,206.07179573195583L506.4155386050604,206.07179573195583L506.2435216839017,205.9234396033077L506.1145089930328,205.8245291536266L505.94249207187386,205.52776723982794L505.68446669013565,205.2804305985506L505.5124497689769,204.98358453508433L505.29742861752857,204.73617770727168L505.03940323579013,204.43924734573977L504.86738631463163,204.29076490147287L504.39433978144484,204.0927703938043L503.36223825449224,203.54817982392177L503.1042128727538,203.35010842363272L502.88919172130545,203.10249029315816L502.8031832607262,202.80530614521564L502.8031832607262,202.40898860488755L502.76017903043635,202.1116963847757L502.6741705698571,201.8639174325703L502.50215364869837,201.61610623887572L502.28713249725,201.21954120239099L502.33013672753964,200.92206315257715L502.5881621092776,200.77330666717359L502.8031832607262,200.87247895129383L503.1902213333335,200.97164606028326L503.7062720968099,200.97164606028326L503.9642974785479,200.82289345622831L504.26532709057574,200.77330666717359L504.4803482420243,200.77330666717359L504.6953693934727,200.72371858392296L504.9103905449215,200.47575874750845L504.9533947752109,200.32696730209534L504.7383736237625,199.78129883026332L504.8243820843418,199.73168481971305L504.78137785405215,199.53321579008087L504.7383736237625,199.48359528478045L504.6093609328934,199.3347259706233L504.6093609328934,199.23547326056905L504.5233524723142,199.08658444041822L504.39433978144484,198.987318721189L504.26532709057574,198.88804779538827L504.093310169417,198.83841037950526L503.87828901796865,198.83841037950526L503.6632678665201,198.83841037950526L503.23322556362314,198.7391316407373L503.0182044121748,198.68949031743824L502.8031832607262,198.59020376197032L502.7171748001467,198.44126415348615L502.5881621092776,198.2923128096819L502.545157878988,198.0936927533125L502.50215364869837,197.94471400529466L502.4161451881189,197.74605738961844L502.28713249725,197.39835799112933L502.24412826696016,197.24932434304202L502.0291071155116,197.14996203343475L501.85709019435285,197.05059448651264L501.4270478914559,196.95122170061057L501.2550309702972,196.90153334252045L501.08301404913846,196.75246040519954L500.9540013582691,196.70276680438008L500.8679928976899,196.5536781338705L500.73898020682077,196.40457765690434L500.73898020682077,196.2554653678527L500.7819844371104,196.1063412610847L500.73898020682077,195.9572053309666L500.73898020682077,195.80805757186386L500.7819844371104,195.65889797814003L500.8679928976899,195.60917548267514L500.9109971279795,195.55945167141613L500.997005588559,195.55945167141613L501.1690225097177,195.55945167141613L501.2550309702972,195.7086191580206L501.38404366116606,195.80805757186386L501.51305635203516,195.85777480624478L501.59906481261464,195.7583390225256L501.6850732731939,195.7583390225256L501.8140859640632,195.80805757186386L501.9430986549323,195.7583390225256L502.1581198063807,195.7086191580206L502.33013672753964,195.65889797814003L502.4591494184085,195.60917548267514L502.8031832607262,195.26108116050347L503.0612086424644,195.01240284544212L503.27622979391276,194.81343646521202L503.3192340242024,194.61444897875816L503.3192340242024,194.41544037268358L503.36223825449224,194.2661700503126L503.4482467150715,194.16664989520166L503.5772594059406,194.16664989520166L503.74927632709955,194.21641063358322L503.9642974785479,194.2661700503126L504.093310169417,194.31592814559946L504.3513355511552,194.36568491965318L504.6093609328934,194.4651945048991L504.9533947752109,194.564698807728L505.2114201569491,194.61444897875816L505.5124497689769,194.66419782981274L505.68446669013565,194.66419782981274L505.94249207187386,194.71394536110057L506.20051745361206,194.71394536110057L506.372534374771,194.71394536110057L506.630559756509,194.71394536110057L507.0175978291163,194.66419782981274L507.4046359017236,194.61444897875816L507.79167397433093,194.51494731651144L507.96369089548966,194.41544037268358L508.04969935606914,194.2661700503126L508.04969935606914,194.06712445264395L508.0066951257793,193.8680576984782L507.92068666520004,193.7685163835149L507.7486697440411,193.71874374082984L507.4906443623031,193.71874374082984L507.2756232108543,193.61919448400118L507.14661051998564,193.5694178694381L507.06060205940616,193.469860666967L507.0175978291163,193.4200800786387L506.93158936853683,193.3205149267459L506.93158936853683,193.22094447313924L506.8885851382472,193.0217876540621L506.8455809079576,192.92220128522962L506.7165682170885,192.67321213505494L506.5445512959295,192.6234103213793L506.32953014448117,192.6234103213793L506.20051745361206,192.72301262057027L505.9854963021637,192.77281177813506L505.81347938100475,192.77281177813506L505.7274709204253,192.77281177813506L505.64146245984625,192.67321213505494L505.64146245984625,192.52380270870395L505.64146245984625,192.4241897808608L505.7274709204253,192.22494797293893L505.77047515071536,191.82640050099172L505.7274709204253,191.02904975507062L505.68446669013565,190.82965869776092L505.64146245984625,190.7299551541937L505.5984582295564,190.63024626509736L505.42644130839767,190.53053202878294L505.3404328478182,190.5803898154482L505.16841592665946,190.5803898154482L505.03940323579013,190.7299551541937L504.86738631463163,190.87950846549955L504.7383736237625,190.97920399394383L504.5663567026038,191.07889418108329L504.4373440117347,191.07889418108329L504.26532709057574,191.07889418108329L504.093310169417,191.07889418108329L504.00730170883753,190.97920399394383L503.9212932482583,190.87950846549955L503.87828901796865,190.63024626509736L503.83528478767903,190.48067290488984L503.62026363623045,190.2313572196157L503.4482467150715,190.08175174818984L503.3192340242024,189.98200807193723L503.1902213333335,189.88225903746923L503.1042128727538,189.73262543540682L503.0182044121748,189.5330951964259L502.8461874910158,189.43332202902343L502.6741705698571,189.3834334326031L502.37314095782904,189.23375958991937L502.33013672753964,189.13397031482629L502.37314095782904,189.0341756671105L502.4591494184085,188.8345702470246L502.50215364869837,188.6349433160832L502.5881621092776,188.43529486070105L502.7171748001467,188.33546255709842L502.8461874910158,188.18570400202407L503.0612086424644,187.93607946361294L503.1042128727538,187.7862885632394L503.1042128727538,187.68642121889349L503.0612086424644,187.53661008197219L502.9321959515953,187.4367292412752L502.8031832607262,187.33684299905724L502.7171748001467,187.2868978518456L502.63116633956747,187.18700350415241L502.545157878988,187.08710375067966L502.4591494184085,186.93724398090507L502.37314095782904,186.83733070552432L502.28713249725,186.73741201839692L502.1581198063807,186.73741201839692L502.0721113458012,186.68745064489508L501.9000944246427,186.68745064489508L501.77108173377337,186.73741201839692L501.59906481261464,186.73741201839692L501.4270478914559,186.73741201839692L501.34103943087644,186.5875238369481L501.34103943087644,186.5375584020765L501.34103943087644,186.38765397130953L501.34103943087644,186.237737346833L501.2980352005868,186.13778615338532L501.21202674000756,186.08780852288237L501.1260182794281,185.9878491932492L501.08301404913846,185.88788443735694L501.08301404913846,185.68793863995614L501.08301404913846,185.5879575950284L501.21202674000756,185.4879711170007L501.38404366116606,185.38797920416454L501.51305635203516,185.23798114089738L501.6850732731939,185.13797563354802L501.8140859640632,184.9379482947357L501.85709019435285,184.83792645984607L501.8140859640632,184.73789917901684L501.72807750348375,184.58784804288518L501.6850732731939,184.58784804288518L501.59906481261464,184.53782827268174L501.51305635203516,184.48780713970717L501.38404366116606,184.48780713970717L501.0400098188486,184.48780713970717L500.9109971279795,184.48780713970717L500.7819844371104,184.43778464374742L500.69597597653114,184.38776078458812L500.6529717462413,184.28770897581398L500.6529717462413,184.23768102576963L500.60996751595167,184.08758899043625L500.6529717462413,184.08758899043625L500.6529717462413,183.98752081040004L500.69597597653114,183.8874471698432L500.9109971279795,183.6872835002992L501.0400098188486,183.58719346787598L501.08301404913846,183.43704816734333L501.08301404913846,183.33694446321675L501.0400098188486,183.23683528740025L500.997005588559,183.1367206381742L500.9109971279795,183.0366005138169L500.8249886674,182.93647491260975Z"></path>
<circle class="distCircs" cx="552.6944005928617" cy="203.05656417774543" r="2.999137771371281" stroke="#000" stroke-width="0.25" fill="#fafdbd" data-q="BIHAR" data-r="ARARIA"><title>BIHAR - ARARIA: Census 2011 Total Rural Households = 529,611. Census 2011 Households with toilets = 35,259. Census 2001 Total Rural Households = 391,605. Census 2001 Households with toilets = 22,000. Difference between Census 2011 Households with toilets and Census 2001 Households with toilets = 1.0%</title></circle><circle class="distCircs" cx="512.264365018249" cy="217.2032358732027" r="2.6300643650128026" stroke="#000" stroke-width="0.25" fill="#eee" data-q="BIHAR" data-r="ARWAL"><title>BIHAR - ARWAL: Census 2011 Total Rural Households = 109,546. Census 2011 Households with toilets = 24,653. Census 2001 Total Rural Households = NaN. Census 2001 Households with toilets = 0. Difference between Census 2011 Households with toilets and Census 2001 Households with toilets = NaN%</title></circle><circle class="distCircs" cx="508.08064287770344" cy="225.07588492030007" r="2.898639459180819" stroke="#000" stroke-width="0.25" fill="#fbfdbd" data-q="BIHAR" data-r="AURANGABAD"><title>BIHAR - AURANGABAD: Census 2011 Total Rural Households = 351,828. Census 2011 Households with toilets = 60,345. Census 2001 Total Rural Households = 265,821. Census 2001 Households with toilets = 43,201. Difference between Census 2011 Households with toilets and Census 2001 Households with toilets = 0.9%</title></circle><circle class="distCircs" cx="544.7808649459907" cy="222.9329528133469" r="2.9086283513847504" stroke="#000" stroke-width="0.25" fill="#f3fab9" data-q="BIHAR" data-r="BANKA"><title>BIHAR - BANKA: Census 2011 Total Rural Households = 366,656. Census 2011 Households with toilets = 40,569. Census 2001 Total Rural Households = 273,609. Census 2001 Households with toilets = 22,999. Difference between Census 2011 Households with toilets and Census 2001 Households with toilets = 2.7%</title></circle><circle class="distCircs" cx="533.4617575060303" cy="211.28350942709318" r="2.9787879129709247" stroke="#000" stroke-width="0.25" fill="#eef7b7" data-q="BIHAR" data-r="BEGUSARAI"><title>BIHAR - BEGUSARAI: Census 2011 Total Rural Households = 488,062. Census 2011 Households with toilets = 124,302. Census 2001 Total Rural Households = 402,390. Census 2001 Households with toilets = 87,731. Difference between Census 2011 Households with toilets and Census 2001 Households with toilets = 3.7%</title></circle><circle class="distCircs" cx="545.760659832024" cy="217.2665962014321" r="2.963565768778134" stroke="#000" stroke-width="0.25" fill="#dff1b0" data-q="BIHAR" data-r="BHAGALPUR"><title>BIHAR - BHAGALPUR: Census 2011 Total Rural Households = 458,960. Census 2011 Households with toilets = 115,122. Census 2001 Total Rural Households = 346,116. Census 2001 Households with toilets = 62,725. Difference between Census 2011 Households with toilets and Census 2001 Households with toilets = 7.0%</title></circle><circle class="distCircs" cx="510.183738530552" cy="213.67479038507452" r="2.9026959075297083" stroke="#000" stroke-width="0.25" fill="#e0f1b0" data-q="BIHAR" data-r="BHOJPUR"><title>BIHAR - BHOJPUR: Census 2011 Total Rural Households = 357,782. Census 2011 Households with toilets = 73,342. Census 2001 Total Rural Households = 288,634. Census 2001 Households with toilets = 39,691. Difference between Census 2011 Households with toilets and Census 2001 Households with toilets = 6.7%</title></circle><circle class="distCircs" cx="502.3168476048302" cy="213.6977382318977" r="2.8042199136307184" stroke="#000" stroke-width="0.25" fill="#dff1af" data-q="BIHAR" data-r="BUXAR"><title>BIHAR - BUXAR: Census 2011 Total Rural Households = 236,453. Census 2011 Households with toilets = 47,387. Census 2001 Total Rural Households = 178,097. Census 2001 Households with toilets = 23,179. Difference between Census 2011 Households with toilets and Census 2001 Households with toilets = 7.0%</title></circle><circle class="distCircs" cx="529.9548714655973" cy="202.82552747335842" r="3.081219257414601" stroke="#000" stroke-width="0.25" fill="#f3fab9" data-q="BIHAR" data-r="DARBHANGA"><title>BIHAR - DARBHANGA: Census 2011 Total Rural Households = 732,270. Census 2011 Households with toilets = 153,287. Census 2001 Total Rural Households = 590,411. Census 2001 Households with toilets = 108,176. Difference between Census 2011 Households with toilets and Census 2001 Households with toilets = 2.6%</title></circle><circle class="distCircs" cx="516.8244236408268" cy="224.57360711262388" r="3.0318293373929026" stroke="#000" stroke-width="0.25" fill="#fafdbc" data-q="BIHAR" data-r="GAYA"><title>BIHAR - GAYA: Census 2011 Total Rural Households = 603,194. Census 2011 Households with toilets = 99,305. Census 2001 Total Rural Households = 453,458. Census 2001 Households with toilets = 69,424. Difference between Census 2011 Households with toilets and Census 2001 Households with toilets = 1.2%</title></circle><circle class="distCircs" cx="508.8989764900324" cy="197.78197291452744" r="2.927590407222462" stroke="#000" stroke-width="0.25" fill="#d8edac" data-q="BIHAR" data-r="GOPALGANJ"><title>BIHAR - GOPALGANJ: Census 2011 Total Rural Households = 396,391. Census 2011 Households with toilets = 71,559. Census 2001 Total Rural Households = 308,465. Census 2001 Households with toilets = 29,332. Difference between Census 2011 Households with toilets and Census 2001 Households with toilets = 8.5%</title></circle><circle class="distCircs" cx="534.7178981271883" cy="222.29822175565027" r="2.847101194155373" stroke="#000" stroke-width="0.25" fill="#f8fcbb" data-q="BIHAR" data-r="JAMUI"><title>BIHAR - JAMUI: Census 2011 Total Rural Households = 283,684. Census 2011 Households with toilets = 33,712. Census 2001 Total Rural Households = 220,811. Census 2001 Households with toilets = 22,633. Difference between Census 2011 Households with toilets and Census 2001 Households with toilets = 1.6%</title></circle><circle class="distCircs" cx="516.8462397249774" cy="217.63770261084858" r="2.7138968039668203" stroke="#000" stroke-width="0.25" fill="#fefabc" data-q="BIHAR" data-r="JEHANABAD"><title>BIHAR - JEHANABAD: Census 2011 Total Rural Households = 159,632. Census 2011 Households with toilets = 35,536. Census 2001 Total Rural Households = 221,069. Census 2001 Households with toilets = 51,693. Difference between Census 2011 Households with toilets and Census 2001 Households with toilets = -1.1%</title></circle><circle class="distCircs" cx="497.04310004139893" cy="220.41636171236826" r="2.802933869596188" stroke="#000" stroke-width="0.25" fill="#eff8b7" data-q="BIHAR" data-r="KAIMUR(BHABUA)"><title>BIHAR - KAIMUR(BHABUA): Census 2011 Total Rural Households = 235,155. Census 2011 Households with toilets = 34,049. Census 2001 Total Rural Households = 179,499. Census 2001 Households with toilets = 19,717. Difference between Census 2011 Households with toilets and Census 2001 Households with toilets = 3.5%</title></circle><circle class="distCircs" cx="554.1637461532387" cy="212.540899580428" r="3.0147593767660097" stroke="#000" stroke-width="0.25" fill="#f5faba" data-q="BIHAR" data-r="KATIHAR"><title>BIHAR - KATIHAR: Census 2011 Total Rural Households = 563,679. Census 2011 Households with toilets = 71,443. Census 2001 Total Rural Households = 420,163. Census 2001 Households with toilets = 44,047. Difference between Census 2011 Households with toilets and Census 2001 Households with toilets = 2.2%</title></circle><circle class="distCircs" cx="538.4264445997625" cy="212.9600587525008" r="2.8699167058504558" stroke="#000" stroke-width="0.25" fill="#e2f2b1" data-q="BIHAR" data-r="KHAGARIA"><title>BIHAR - KHAGARIA: Census 2011 Total Rural Households = 312,199. Census 2011 Households with toilets = 67,785. Census 2001 Total Rural Households = 220,440. Census 2001 Households with toilets = 33,671. Difference between Census 2011 Households with toilets and Census 2001 Households with toilets = 6.4%</title></circle><circle class="distCircs" cx="557.2014440647904" cy="200.3060883423837" r="2.864103956989936" stroke="#000" stroke-width="0.25" fill="#f9fcbc" data-q="BIHAR" data-r="KISHANGANJ"><title>BIHAR - KISHANGANJ: Census 2011 Total Rural Households = 304,695. Census 2011 Households with toilets = 18,752. Census 2001 Total Rural Households = 231,736. Census 2001 Households with toilets = 11,358. Difference between Census 2011 Households with toilets and Census 2001 Households with toilets = 1.3%</title></circle><circle class="distCircs" cx="533.0368055008893" cy="218.35181793799086" r="2.6855405209017333" stroke="#000" stroke-width="0.25" fill="#d2eba9" data-q="BIHAR" data-r="LAKHISARAI"><title>BIHAR - LAKHISARAI: Census 2011 Total Rural Households = 140,728. Census 2011 Households with toilets = 37,717. Census 2001 Total Rural Households = 114,303. Census 2001 Households with toilets = 19,384. Difference between Census 2011 Households with toilets and Census 2001 Households with toilets = 9.8%</title></circle><circle class="distCircs" cx="545.6753995293785" cy="206.51437915733618" r="2.9197208182252177" stroke="#000" stroke-width="0.25" fill="#f3fab9" data-q="BIHAR" data-r="MADHEPURA"><title>BIHAR - MADHEPURA: Census 2011 Total Rural Households = 383,792. Census 2011 Households with toilets = 43,560. Census 2001 Total Rural Households = 257,069. Census 2001 Households with toilets = 22,332. Difference between Census 2011 Households with toilets and Census 2001 Households with toilets = 2.7%</title></circle><circle class="distCircs" cx="532.5695130407546" cy="199.68561967249252" r="3.1262621820411773" stroke="#000" stroke-width="0.25" fill="#ecf6b6" data-q="BIHAR" data-r="MADHUBANI"><title>BIHAR - MADHUBANI: Census 2011 Total Rural Households = 871,575. Census 2011 Households with toilets = 150,357. Census 2001 Total Rural Households = 648,258. Census 2001 Households with toilets = 84,580. Difference between Census 2011 Households with toilets and Census 2001 Households with toilets = 4.2%</title></circle><circle class="distCircs" cx="538.6202449419786" cy="216.74893140737976" r="2.758119007033938" stroke="#000" stroke-width="0.25" fill="#e0f1b0" data-q="BIHAR" data-r="MUNGER"><title>BIHAR - MUNGER: Census 2011 Total Rural Households = 193,801. Census 2011 Households with toilets = 50,489. Census 2001 Total Rural Households = 150,260. Census 2001 Households with toilets = 28,885. Difference between Census 2011 Households with toilets and Census 2001 Households with toilets = 6.8%</title></circle><circle class="distCircs" cx="522.3567811666198" cy="203.2749126146427" r="3.1226536456830614" stroke="#000" stroke-width="0.25" fill="#e5f3b3" data-q="BIHAR" data-r="MUZAFFARPUR"><title>BIHAR - MUZAFFARPUR: Census 2011 Total Rural Households = 859,579. Census 2011 Households with toilets = 188,473. Census 2001 Total Rural Households = 605,017. Census 2001 Households with toilets = 98,634. Difference between Census 2011 Households with toilets and Census 2001 Households with toilets = 5.6%</title></circle><circle class="distCircs" cx="524.6277677623214" cy="217.93406451413148" r="2.9367915575958343" stroke="#000" stroke-width="0.25" fill="#fbfdbd" data-q="BIHAR" data-r="NALANDA"><title>BIHAR - NALANDA: Census 2011 Total Rural Households = 411,602. Census 2011 Households with toilets = 93,939. Census 2001 Total Rural Households = 329,029. Census 2001 Households with toilets = 72,141. Difference between Census 2011 Households with toilets and Census 2001 Households with toilets = 0.9%</title></circle><circle class="distCircs" cx="524.7925406768544" cy="222.9329528133469" r="2.8710403749414275" stroke="#000" stroke-width="0.25" fill="#f7fbbb" data-q="BIHAR" data-r="NAWADA"><title>BIHAR - NAWADA: Census 2011 Total Rural Households = 313,669. Census 2011 Households with toilets = 54,368. Census 2001 Total Rural Households = 247,648. Census 2001 Households with toilets = 38,385. Difference between Census 2011 Households with toilets and Census 2001 Households with toilets = 1.8%</title></circle><circle class="distCircs" cx="505.7891001240306" cy="185.196247212025" r="3.044900336481882" stroke="#000" stroke-width="0.25" fill="#ecf7b6" data-q="BIHAR" data-r="PASHCHIM CHAMPARAN"><title>BIHAR - PASHCHIM CHAMPARAN: Census 2011 Total Rural Households = 635,151. Census 2011 Households with toilets = 73,088. Census 2001 Total Rural Households = 476,614. Census 2001 Households with toilets = 35,333. Difference between Census 2011 Households with toilets and Census 2001 Households with toilets = 4.1%</title></circle><circle class="distCircs" cx="519.1339535745508" cy="211.38262658925595" r="3.006025390437766" stroke="#000" stroke-width="0.25" fill="#f8fcbc" data-q="BIHAR" data-r="PATNA"><title>BIHAR - PATNA: Census 2011 Total Rural Households = 544,392. Census 2011 Households with toilets = 150,106. Census 2001 Total Rural Households = 430,384. Census 2001 Households with toilets = 112,470. Difference between Census 2011 Households with toilets and Census 2001 Households with toilets = 1.4%</title></circle><circle class="distCircs" cx="515.0179004508348" cy="195.50872874240304" r="3.138430512029872" stroke="#000" stroke-width="0.25" fill="#e6f4b3" data-q="BIHAR" data-r="PURBA CHAMPARAN"><title>BIHAR - PURBA CHAMPARAN: Census 2011 Total Rural Households = 913,167. Census 2011 Households with toilets = 141,111. Census 2001 Total Rural Households = 613,045. Census 2001 Households with toilets = 61,652. Difference between Census 2011 Households with toilets and Census 2001 Households with toilets = 5.4%</title></circle><circle class="distCircs" cx="552.7753277319621" cy="208.68962600062025" r="3.0204594665789886" stroke="#000" stroke-width="0.25" fill="#feffbe" data-q="BIHAR" data-r="PURNIA"><title>BIHAR - PURNIA: Census 2011 Total Rural Households = 576,602. Census 2011 Households with toilets = 49,871. Census 2001 Total Rural Households = 454,113. Census 2001 Households with toilets = 38,177. Difference between Census 2011 Households with toilets and Census 2001 Households with toilets = 0.2%</title></circle><circle class="distCircs" cx="540.2049633296573" cy="207.04879221032837" r="2.8902321318225406" stroke="#000" stroke-width="0.25" fill="#f4faba" data-q="BIHAR" data-r="SAHARSA"><title>BIHAR - SAHARSA: Census 2011 Total Rural Households = 339,776. Census 2011 Households with toilets = 42,377. Census 2001 Total Rural Households = 253,270. Census 2001 Households with toilets = 25,644. Difference between Census 2011 Households with toilets and Census 2001 Households with toilets = 2.3%</title></circle><circle class="distCircs" cx="528.3718623585034" cy="207.37175055212492" r="3.1110777983802675" stroke="#000" stroke-width="0.25" fill="#f1f9b8" data-q="BIHAR" data-r="SAMASTIPUR"><title>BIHAR - SAMASTIPUR: Census 2011 Total Rural Households = 822,111. Census 2011 Households with toilets = 139,638. Census 2001 Total Rural Households = 573,086. Census 2001 Households with toilets = 79,618. Difference between Census 2011 Households with toilets and Census 2001 Households with toilets = 3.1%</title></circle><circle class="distCircs" cx="511.66907879597886" cy="204.39735570474255" r="3.0244645527492615" stroke="#000" stroke-width="0.25" fill="#ecf6b6" data-q="BIHAR" data-r="SARAN"><title>BIHAR - SARAN: Census 2011 Total Rural Households = 585,844. Census 2011 Households with toilets = 104,571. Census 2001 Total Rural Households = 446,962. Census 2001 Households with toilets = 60,825. Difference between Census 2011 Households with toilets and Census 2001 Households with toilets = 4.2%</title></circle><circle class="distCircs" cx="503.1194986039152" cy="221.87347930112557" r="2.9219455578889364" stroke="#000" stroke-width="0.25" fill="#e8f5b4" data-q="BIHAR" data-r="SASARAM(ROHTAS)"><title>BIHAR - SASARAM(ROHTAS): Census 2011 Total Rural Households = 387,316. Census 2011 Households with toilets = 81,750. Census 2001 Total Rural Households = 302,814. Census 2001 Households with toilets = 48,903. Difference between Census 2011 Households with toilets and Census 2001 Households with toilets = 5.0%</title></circle><circle class="distCircs" cx="529.55470764111" cy="218.82858578373867" r="2.578715092969721" stroke="#000" stroke-width="0.25" fill="#ebf6b5" data-q="BIHAR" data-r="SHEIKHPURA"><title>BIHAR - SHEIKHPURA: Census 2011 Total Rural Households = 86,465. Census 2011 Households with toilets = 21,004. Census 2001 Total Rural Households = 71,765. Census 2001 Households with toilets = 14,269. Difference between Census 2011 Households with toilets and Census 2001 Households with toilets = 4.4%</title></circle><circle class="distCircs" cx="521.4216587549072" cy="196.9882890616763" r="2.6893166882527133" stroke="#000" stroke-width="0.25" fill="#ddf0ae" data-q="BIHAR" data-r="SHEOHAR"><title>BIHAR - SHEOHAR: Census 2011 Total Rural Households = 143,121. Census 2011 Households with toilets = 28,267. Census 2001 Total Rural Households = 103,405. Census 2001 Households with toilets = 12,670. Difference between Census 2011 Households with toilets and Census 2001 Households with toilets = 7.5%</title></circle><circle class="distCircs" cx="524.2438225976518" cy="195.6952707361088" r="3.0682706786039335" stroke="#000" stroke-width="0.25" fill="#eff8b7" data-q="BIHAR" data-r="SITAMARHI"><title>BIHAR - SITAMARHI: Census 2011 Total Rural Households = 696,184. Census 2011 Households with toilets = 130,062. Census 2001 Total Rural Households = 523,570. Census 2001 Households with toilets = 79,230. Difference between Census 2011 Households with toilets and Census 2001 Households with toilets = 3.5%</title></circle><circle class="distCircs" cx="507.810469624961" cy="201.70202490974629" r="2.992976281363541" stroke="#000" stroke-width="0.25" fill="#dff0af" data-q="BIHAR" data-r="SIWAN"><title>BIHAR - SIWAN: Census 2011 Total Rural Households = 516,701. Census 2011 Households with toilets = 104,557. Census 2001 Total Rural Households = 374,715. Census 2001 Households with toilets = 49,238. Difference between Census 2011 Households with toilets and Census 2001 Households with toilets = 7.1%</title></circle><circle class="distCircs" cx="540.2210172743555" cy="200.2974950114974" r="2.941983825036751" stroke="#000" stroke-width="0.25" fill="#f5fbba" data-q="BIHAR" data-r="SUPAUL"><title>BIHAR - SUPAUL: Census 2011 Total Rural Households = 420,420. Census 2011 Households with toilets = 38,213. Census 2001 Total Rural Households = 296,905. Census 2001 Households with toilets = 20,775. Difference between Census 2011 Households with toilets and Census 2001 Households with toilets = 2.1%</title></circle><circle class="distCircs" cx="518.2687021607424" cy="205.13446811960586" r="3.028445635819383" stroke="#000" stroke-width="0.25" fill="#daeead" data-q="BIHAR" data-r="VAISHALI"><title>BIHAR - VAISHALI: Census 2011 Total Rural Households = 595,165. Census 2011 Households with toilets = 148,682. Census 2001 Total Rural Households = 395,451. Census 2001 Households with toilets = 66,869. Difference between Census 2011 Households with toilets and Census 2001 Households with toilets = 8.1%</title></circle></g></g></svg>