<?xml version="1.0" standalone="no"?><!DOCTYPE svg PUBLIC "-//W3C//DTD SVG 1.1//EN" "http://www.w3.org/Graphics/SVG/1.1/DTD/svg11.dtd"><svg id="chart" width="960" height="500" class="dorlingCart" data-type="dorlingCart" version="1.1" xmlns:xlink="http://www.w3.org/1999/xlink" xmlns="http://www.w3.org/2000/svg"><defs class="svg-crowbar"><style type="text/css"><![CDATA[.feature{ fill: #fcfcfc; stroke: #000000; stroke-width: 0.2px; cursor: pointer; }]]></style></defs>
<g><g transform="translate(-1413.2930908203125,-871.7813720703125)scale(4,4)">
<path class="feature" data-q="CHHATTISGARH" d="M484.48338115731576,237.51675918640933L484.6123938481851,237.76012267867333L484.7844107693438,237.90612703215112L484.9564276905023,238.00345754518855L485.2574573025304,238.1981048438343L485.5584869145582,238.44138824388847L485.6874996054273,238.68464308471306L485.9455249871655,238.87922641067718L486.1605461386139,239.12242990468945L486.46157575064194,239.41423648908534L486.7626053626698,239.41423648908534L487.0636349746976,239.31697218394112L487.4076688170153,239.2683383230327L487.837711119912,239.21970332298122L488.3107576530988,239.21970332298122L488.7407999559957,239.2683383230327L489.0848337983132,239.21970332298122L489.38586341034124,239.21970332298122L489.6438887920792,239.21970332298122L489.8589099435278,239.2683383230327L490.03092686468653,239.21970332298122L490.20294378584526,239.0251519275488L490.33195647671437,238.7332906278591L490.3749607070042,238.44138824388847L490.5469776281627,238.14944473462646L490.7189945493219,237.76012267867333L491.2780495430877,237.07863268752948L491.4930706945363,236.68910887182346L491.66508761569503,236.34821520241252L491.83710453685376,236.1046852114565L492.0091214580125,235.86112643279756L492.18113837917144,235.61753884257075L492.31015107004055,235.37392241689804L492.4391637609094,235.2277387105429L492.5681764517785,235.03281093191816L493.1702356758342,235.52009573389319L493.47126528786225,236.29951150609213L493.72929066960046,236.73780336905207L494.11632874220754,237.12731799786644L494.8043964268429,237.27336704461493L495.01941757829127,237.32204776607807L495.19143449945,237.51675918640933L495.3204471903191,237.80879194127567L495.49246411147806,238.29542163248294L495.62147680234716,238.63599440014696L495.75048949321604,238.87922641067718L496.00851487495424,239.07379148606975L496.26654025669245,239.17106718359656L496.5675698687203,239.31697218394112L496.8685994807481,239.4628669337004L497.0406164019071,239.65737733020495L497.2126333230658,240.19218710278744L497.2556375533554,240.43523701702395L497.38465024422476,240.77545924908668L497.5996713956729,241.4071532604604L497.77168831683184,241.74721700577265L498.0727179288597,242.13579351988443L498.24473485001863,242.47573874684133L498.33074331059765,242.96127903408615L498.7607856134948,243.83496822992288L498.9758067649434,243.98054774192542L499.31984060726086,244.07759514538452L499.57786598899906,244.1746380669615L499.8788956010269,244.3201940490809L500.17992521305473,244.41722577251886L500.48095482508256,244.4657399554075L500.7819844371104,244.41722577251886L500.8679928976899,244.22315784751322L500.9109971279795,243.93202235902083L501.08301404913846,243.5923132792338L501.2550309702972,243.3010902988526L501.59906481261464,243.25254920438783L501.9430986549323,243.349630269842L502.11511557609106,243.5923132792338L502.24412826696016,243.93202235902083L502.20112403667054,244.36871047047242L502.0721113458012,244.80530791496943L501.8140859640632,245.29031001504842L501.55606058232524,245.8721652679356L501.51305635203516,246.2115067609418L501.72807750348375,246.55079375455534L502.1581198063807,246.89002631282938L502.5881621092776,247.5198854333471L502.8031832607262,248.10112776360648L502.9321959515953,248.73062740854016L502.8031832607262,249.31153861292677L502.4591494184085,250.37613120078117L502.50215364869837,250.8114933132755L502.63116633956747,251.10168545757512L502.88919172130545,251.3434821726081L503.1472171030439,251.440193209568L503.4482467150715,251.5852515742136L503.74927632709955,251.73030011433985L503.87828901796865,252.06870852951073L504.00730170883753,252.45539562165578L503.9212932482583,253.03529569438734L504.0503059391274,253.37349849206288L504.30833132086536,253.566733364129L504.5663567026038,253.47011809694277L504.7383736237625,253.18024626333198L504.8243820843418,252.890335350721L504.9963990055005,252.890335350721L505.1254116963696,253.0836136365371L505.25442438723894,253.37349849206288L505.5554539992668,253.47011809694277L505.9854963021637,253.51842627265546L506.4155386050604,253.566733364129L506.8455809079576,253.566733364129L507.1036062896958,253.566733364129L507.4906443623031,253.66334429509334L507.83467820462056,253.80825256434184L507.92068666520004,254.0497446861549L507.92068666520004,254.43607581533035L507.70566551375146,254.87061566315845L507.31862744114414,255.16026032749045L506.9745935988267,255.49813005654988L506.7595724473781,256.1737113008166L506.5015470656401,256.65614040528834L506.32953014448117,256.7526133524931L505.9854963021637,256.94554638491036L505.77047515071536,257.0420064730463L505.64146245984625,257.18668857427L505.5124497689769,257.6688927025213L505.29742861752857,258.1509899822045L504.9963990055005,258.4883946007203L504.4373440117347,258.6329805956311L504.0503059391274,258.6811737973435L503.74927632709955,258.77755700697224L503.53425517565097,258.97031065614544L503.23322556362314,259.11486472493186L503.0612086424644,259.25940922652387L502.8461874910158,259.40394416583064L502.63116633956747,259.6448144951493L502.4161451881189,259.78932395902007L502.28713249725,259.9819883983458L502.1581198063807,260.2709532684323L502.1581198063807,260.46357533949424L501.77108173377337,260.60803078382173L501.51305635203516,260.7524767116163L501.38404366116606,260.99319879004787L501.4270478914559,261.2338944699112L501.72807750348375,261.3301653553289L502.0721113458012,261.3782992159346L502.33013672753964,261.522694471512L502.4591494184085,261.8114565308752L502.4591494184085,262.10018068707666L502.4591494184085,262.38886697917064L502.37314095782904,262.67751544618886L502.28713249725,262.8218255074853L502.1581198063807,263.0142242363896L502.0291071155116,263.0623212972899L501.9000944246427,263.1585122747645L501.64206904290427,263.1585122747645L501.4270478914559,263.2066061916992L501.1260182794281,263.25469906100557L500.9109971279795,263.39897138495945L500.6529717462413,263.5432342867515L500.3949463645033,263.6874877712485L500.09391675247525,263.78365153148513L499.9218998313165,263.83173184331605L499.7928871404474,263.83173184331605L499.57786598899906,263.9759665078169L499.27683637697123,264.21633672282337L499.0188109952328,264.45668084171064L498.71778138320497,264.6969988869701L498.54576446204624,264.93729088108245L498.33074331059765,265.03340038943924L498.02971369857005,265.12950573464633L497.7286840865422,265.12950573464633L496.91160371103797,265.22560691813925L496.5675698687203,265.4658416788053L496.180531796113,265.9942667367809L495.8364979537955,266.47454424107747L495.6644810326368,266.95471820483726L495.6644810326368,267.2427729581346L495.8364979537955,267.4827901893644L496.180531796113,267.91475622684123L496.2235360264028,268.1067143436442L495.9655106446646,268.1067143436442L495.75048949321604,268.1067143436442L495.49246411147806,268.1067143436442L495.2344387297396,268.15470129908897L495.01941757829127,268.2506721227193L494.933409117712,268.44260142594794L494.89040488742194,268.6345142799849L494.9764133480014,268.92235274378027L495.19143449945,269.3540411768644L495.2774429600295,269.6417873466462L495.3634514206087,269.83359765175084L495.5354683417677,269.92949666615044L495.6644810326368,270.1212824257607L495.8364979537955,270.2651110155314L495.8364979537955,270.4568681711043L495.8364979537955,270.6486089971574L495.79349372350566,270.7924039072905L495.6644810326368,270.984116184045L495.62147680234716,271.1278896952576L495.62147680234716,271.3195734575177L495.7074852629264,271.41540923354506L495.7074852629264,271.6070685824924L495.7074852629264,271.70289215824937L495.5784725720571,271.8466199024788L495.4494598811882,271.89452711942323L495.2774429600295,271.89452711942323L495.19143449945,271.99033850767506L495.19143449945,272.22984922036613L495.2774429600295,272.46933458228506L495.2774429600295,272.756683584729L495.1484302691604,272.9482293423222L495.01941757829127,273.0439961521532L494.7613921965533,273.0918780404464L494.58937527539433,273.283395486928L494.5463710451045,273.4748967711873L494.6753837359738,273.90571562621335L494.58937527539433,274.0971644613256L494.4173583542356,274.38430750341286L494.3313498936561,274.48001380026477L494.07332451191814,274.48001380026477L493.9013075907592,274.38430750341286L493.68628643931083,274.2885971822461L493.47126528786225,274.336452845957L493.3852568272828,274.43216115478987L493.25624413641367,274.67141432666614L493.08422721525494,275.0063265613462L492.82620183351696,275.5803474224457L492.4391637609094,276.1542240422502L492.1381341488818,276.7757612937737L492.18113837917144,277.0147691840318L492.3531553003302,277.3493383862781L492.95521452438584,278.4005244110576L493.1702356758342,278.9259373814269L493.1702356758342,279.2602287428472L492.95521452438584,279.4512306341675L492.7831976032271,279.4034816429943L492.5251722214889,279.21247580000625L491.7510960762743,278.7348919833354L491.5360749248257,278.7826548175725L491.40706223395705,278.87817751644343L491.2350453127981,279.0692110406658L491.106032621929,279.4512306341675L491.0200241613495,279.7854459327046L491.06302839163936,280.07187772223546L490.8910114704804,280.5014589164757L490.7189945493219,280.6446349360325L490.46096916758347,280.8832419751979L490.3749607070042,281.07410992498114L490.33195647671437,281.26496216990023L490.33195647671437,281.6466195896837L490.33195647671437,282.0282143235852L490.2459480161351,282.2666792391338L489.94491840410706,282.7912160895507L489.6868930223691,283.0296029047887L489.2138464891823,283.1726232993548L488.56878303483677,283.1726232993548L487.9237195804915,283.1726232993548L487.2786561261462,283.0296029047887L487.0636349746976,282.8388954025035L486.9776265141181,282.505119724472L487.02063074440775,282.17129620575497L487.02063074440775,281.98051840694023L486.8916180535389,281.7897249561188L486.7196011323799,281.7897249561188L486.50457998093134,281.88512363872513L486.031533447745,282.17129620575497L485.6874996054273,282.3143692899234L484.18235154528793,282.4097464605728L483.45127963036316,282.17129620575497L482.8492204063075,282.0282143235852L482.37617387312093,282.0282143235852L482.0751442610929,282.218988211135L481.8601231096443,282.45743358077937L481.68810618848556,282.8388954025035L481.7311104187752,283.4109711476932L481.94613157022377,284.03056176101234L481.90312733993414,284.3641194959658L481.7741146490648,284.79290963911257L481.43008080674736,285.2216213719053L481.1720554250094,285.5550097017129L480.91403004327094,285.6502548202413L480.5699962009537,285.84073347961873L480.0969496677669,286.0311967112864L479.8389242860285,286.2692540724621L479.75291582544946,286.3644702769613L479.7099115951594,286.74529661529L479.8389242860285,287.2212430622375L479.7959200557391,287.55434849018695L479.5808989042905,287.6495128447087L479.1938608316832,287.69709358534686L478.8068227590759,287.69709358534686L478.29077199559947,287.3164208352638L478.11875507444074,287.03087600395L477.94673815328224,286.93568671593687L477.7747212321233,286.93568671593687L477.6457085412542,287.1736527369532L477.4306873898056,287.79225219423654L477.4306873898056,288.1252771833282L477.6457085412542,288.6960682162155L477.9037339229924,289.3618174961579L477.94673815328224,290.0273802789466L477.94673815328224,290.6927570342114L477.81772546241314,291.26293226012194L477.5597000806747,291.73797435460085L477.47369162009545,292.1654316106205L477.6457085412542,292.21292215182416L477.9037339229924,292.2604117517591L478.0757508441511,292.49784563836874L478.11875507444074,292.78273527603034L478.1617593047306,293.11506378778233L478.24776776530985,293.2574762188926L478.4197846864686,293.2100063462739L478.59180160762753,293.1625355359604L478.8068227590759,293.30494515398607L478.89283121965536,293.5897390860423L478.9358354499452,293.82704161197324L478.8068227590759,294.2541272372796L478.63480583791716,294.5388089517102L478.5487973773379,294.9657685612911L478.5487973773379,295.2977960920467L478.677810068207,295.6772003168057L478.9788396802346,296.05654509353474L479.0648481408143,296.3884230752964L479.0648481408143,296.815056649265L479.0218439105247,297.14683096619876L478.84982698936574,297.4785600249125L478.72081429849663,297.90500240592576L478.50579314704805,298.4261084695394L478.5487973773379,299.0418177301627L478.50579314704805,299.46798719227127L478.63480583791716,299.75205896704813L478.72081429849663,299.89408250805485L478.89283121965536,300.0360978241854L479.3228735225523,300.32010379994455L479.62390313458013,300.46209446863344L479.9249327466082,300.65140259493774L480.8280215826917,300.74605119027336L482.46218233369996,300.65140259493774L482.8922246365971,300.65140259493774L483.1072457880457,300.7933741215739L483.2792627092042,300.98265674156977L483.3652711697837,301.2192395424175L483.3652711697837,301.50310890232356L483.32226693949406,301.83424850274815L483.2792627092042,302.11804707061225L483.1502500183351,302.4018130224302L483.1502500183351,302.59097222144493L483.1502500183351,302.8274008740375L483.1072457880457,303.016527532197L483.1072457880457,303.30019043795056L483.0212373274662,303.3947375234788L482.8492204063075,303.44200971392013L482.67720348514854,303.48928100303596L482.46218233369996,303.53655139099266L482.2901654125412,303.63108946409596L482.16115272167235,303.8201548037293L482.03214003080325,303.91468207292684L481.90312733993414,304.0564662296979L481.68810618848556,304.2454991846094L481.4730850370372,304.2927551766891L481.2580638855886,304.3400102704422L481.1720554250094,304.2927551766891L481.1290511947195,304.10372581674767L481.1720554250094,303.8201548037293L481.1720554250094,303.5838208779572L481.1720554250094,303.3474644315441L481.0860469644299,303.20563974511754L480.8280215826917,302.96924722231546L480.52699197066386,302.8746838934026L480.225962358636,302.7801169511775L479.9249327466082,302.6382597599561L479.66690736487,302.44910417926366L479.4088819831318,302.25993412127L479.1938608316832,302.1653436599433L478.89283121965536,302.25993412127L478.677810068207,302.44910417926366L478.29077199559947,302.8746838934026L478.1617593047306,303.1110854436446L477.98974238357187,303.30019043795056L477.7747212321233,303.44200971392013L477.6457085412542,303.3947375234788L477.5166958503851,303.1110854436446L477.47369162009545,302.7801169511775L477.34467892922635,302.49639443126625L477.0436493171985,302.1653436599433L476.82862816574993,301.7396417258737L476.44159009314285,301.0772925907902L476.3985858628532,300.7933741215739L476.2695731719839,300.65140259493774L476.1405604811148,300.55675035483847L475.96854355995606,300.55675035483847L475.7535224085075,300.74605119027336L475.5385012570591,300.93533745201654L475.32348010561054,301.02997512110454L475.19446741474167,300.93533745201654L474.93644203300323,300.5094228675832L474.7214208815549,300.32010379994455L474.54940396039615,300.2254387926068L474.3773870392374,300.1781049199714L474.07635742720936,300.27277175254227L473.77532781518175,300.32010379994455L473.5603066637332,300.27277175254227L473.3882897425742,300.27277175254227L473.2162728214155,300.41476515782233L473.0872601305466,300.41476515782233L472.9152432093879,300.36743493498204L472.87223897909803,300.1781049199714L472.87223897909803,299.9414218604163L472.7002220579391,299.75205896704813L472.4852009064907,299.5153347755542L472.31318398533176,299.3259389494311L472.14116706417326,299.1365284690558L472.01215437330416,299.1365284690558L471.88314168243505,299.2312355416973L471.75412899156595,299.42063869360186L471.5391078401176,299.6573720347627L471.324086688669,299.8467422418182L471.1950739977999,299.9414218604163L471.0230570766412,300.0834344359285L470.8080359251928,300.2254387926068L470.6790232343237,300.32010379994455L470.63601900403387,300.55675035483847L470.6790232343237,300.7933741215739L470.8080359251928,300.98265674156977L470.8080359251928,301.17192480127903L470.6790232343237,301.36117831142195L470.50700631316477,301.5977247550998L470.37799362229566,301.928851651604L470.37799362229566,302.21263934344034L470.46400208287514,302.3072279936004L470.7220274646131,302.5436837786043L470.9800528463513,302.5436837786043L471.28108245837916,302.6382597599561L471.7111247612761,302.6855463943034L472.0551586035938,302.8746838934026L472.22717552475274,303.016527532197L472.35618821562184,303.2529155425302L472.35618821562184,303.7728898192262L472.39919244591147,303.8201548037293L472.65721782764945,303.7728898192262L472.9582474396775,303.6783571495762L473.25927705170534,303.6783571495762L473.4742982031537,303.8201548037293L473.64631512431265,304.0564662296979L473.64631512431265,304.2454991846094L473.6893193546023,304.4345177636358L473.7323235848919,304.8597570598019L473.6033108940228,305.1904485339482L473.6033108940228,305.37939539331023L473.6033108940228,305.5210961449965L473.6893193546023,305.71001796532636L473.7323235848919,305.85169994994885L473.7323235848919,306.04059676380325L473.7323235848919,306.5599894293814L473.7323235848919,306.7488327674684L473.7323235848919,307.0320710872949L473.6893193546023,307.2208788577771L473.6033108940228,307.45686859143797L473.5603066637332,307.5984517838797L473.4742982031537,307.97596796079966L473.43129397286407,308.25906790279805L473.43129397286407,308.4949601988811L473.5603066637332,308.5893109312103L473.6893193546023,308.5893109312103L473.861336275761,308.5421360067451L474.03335319691973,308.44778350745304L474.119361657499,308.4949601988811L474.42039126952704,308.63648497244174L474.46339549981667,308.73083040586545L474.46339549981667,308.8723419358791L474.46339549981667,309.0138455257097L474.5063997301065,309.1553411798149L474.54940396039615,309.24966720934964L474.7214208815549,309.2968289026512L474.8934378027136,309.3439897151962L474.93644203300323,309.39114964714895L475.06545472387234,309.5326241611042L475.1514631844518,309.6740907556689L475.2374716450313,309.7683974212494L475.32348010561054,309.8155494352954L475.40948856619,310.05129632467583L475.40948856619,310.14558893244174L475.2804758753209,310.3813050934219L475.2374716450313,310.5698622358289L475.2374716450313,310.80553894815415L475.3664843359004,310.9940645583035L475.4954970267695,311.1354495796608L475.6245097176386,311.3710737974509L475.6245097176386,311.5595574474956L475.581505487349,311.653794034738L475.45249279647965,311.7480271318793L475.32348010561054,311.88937023652716L475.2374716450313,312.12492464571665L475.19446741474167,312.3133524961884L475.19446741474167,312.59596816837916L475.2374716450313,312.8314573228707L475.32348010561054,313.30237052065627L475.40948856619,313.6790386625834L475.5385012570591,314.00857784652527L475.581505487349,314.2439370447874L475.667513947928,314.43220885922415L475.79652663879733,314.76165132079905L475.83953086908696,314.99694151013097L475.83953086908696,315.1381052916702L475.83953086908696,315.3263116221303L475.8825350993768,315.56155019197894L475.96854355995606,315.7967672883894L476.1405604811148,316.22010401393624L476.22656894169427,316.31416941444763L476.31257740227375,316.455261093154L476.31257740227375,316.54931793281827L476.44159009314285,317.0195508263041L476.44159009314285,317.3016495654043L476.31257740227375,317.44268741846105L476.1835647114044,317.53670839144564L476.0115477902457,317.67773346059386L475.92553932966644,317.81875086524883L475.7535224085075,318.1007626986268L475.667513947928,318.19475984016765L475.6245097176386,318.3357491792091L475.581505487349,318.5707144263789L475.4954970267695,318.8056584604237L475.45249279647965,318.9466147069867L475.1514631844518,319.32246076504055L475.06545472387234,319.46338907449945L474.9794462632933,319.60430977495827L474.8504335724242,319.7452228707904L474.76442511184473,319.8861283663674L474.42039126952704,320.26183923101536L474.29137857865794,320.4027168963842L474.20537011807846,320.4496744335442L473.861336275761,320.5905419933981L473.64631512431265,320.5905419933981L473.5173024334433,320.6374961633461L473.25927705170534,320.6844494918964L473.0872601305466,320.7314019792091L472.9152432093879,320.77835362544715L472.7002220579391,320.91920351932424L472.5712093670702,321.10699161257753L472.35618821562184,321.2008806198624L472.14116706417326,321.2947662693086L472.01215437330416,321.3886485622088L471.88314168243505,321.4825274998547L471.75412899156595,321.5294657108605L471.6681205309867,321.67027531454784L471.6251163006966,321.8580097237182L471.7971332218556,322.09265889939513L472.14116706417326,322.32728716523775L472.27017975504236,322.5618945413986L472.31318398533176,322.79648104802175L472.27017975504236,322.9372229429936L472.1841712944629,323.03104670524215L472.0551586035938,323.1248671348069L471.88314168243505,323.1717761002354L471.6681205309867,323.1717761002354L471.4961036098275,323.2186842329755L471.324086688669,323.2655915331888L471.0660613069308,323.3594036366777L470.9800528463513,323.453212411989L470.89404438577185,323.54701786040977L470.76503169490275,323.68771979793667L470.7220274646131,323.82841425719784L470.6790232343237,323.969101242534L470.593014773744,324.06288841605453L470.50700631316477,324.1566722710453L470.37799362229566,324.3442300305794L470.0769640102676,324.7193057838372L469.9479513193987,324.7661865280811L469.77593439824,324.8599455350586L469.60391747708127,324.90682379811386L469.5179090165018,325.00057784415804L469.3028878650532,325.09432858451765L469.0448624833152,325.3755609843231L469.0018582530254,325.5161660426971L468.95885402273575,325.6098986247267L468.9158497924461,325.75049131564737L468.87284556215604,325.89107659186567L468.786837101577,325.98479599220184L468.6578244107077,326.1722249174953L468.61482018041806,326.2659344450156L468.48580748954896,326.31278797555404L468.3567947986801,326.31278797555404L468.18477787752136,326.2659344450156L468.0987694169419,326.21908009238246L468.0127609563624,326.21908009238246L467.8837482654933,326.31278797555404L467.7977398049138,326.359640684159L467.6257228837551,326.40649257098966L467.3676975020171,326.59389190377277L467.2816890414374,326.68758664368085L467.19568058085815,326.78127810097305L467.0236636596994,326.96865117282846L466.93765519911994,327.0154923911561L466.63662558709234,327.24968619297493L466.3355959750643,327.4838595264098L466.16357905390555,327.6711834693425L466.0775705933261,327.7648405363843L465.94855790245697,327.8584943355135L465.81954521158787,327.99896890966414L465.81954521158787,328.09261454459846L465.81954521158787,328.2798960254127L465.77654098129824,328.37353187384554L465.7335367510086,328.5139795351158L465.7335367510086,328.60760723690373L465.7335367510086,328.74804268418706L465.7335367510086,328.98208549255554L465.6045240601395,329.5905017427477L465.6045240601395,329.7776791606907L465.5615198298499,329.96484361664096L465.4755113692704,330.10520845842103L465.3464986784013,330.2923502553814L465.30349444811145,330.43269811460726L465.0024648360836,331.32139921606563L464.959460605794,331.64874210939894L464.87345214521474,331.83577750486836L464.91645637550437,332.16305853230887L464.701435224056,332.63053469844334L464.52941830289706,332.7707619324516L464.40040561202795,332.81750274364157L464.27139292115885,333.0511948056203L464.27139292115885,333.331598914145L464.3574013817383,333.6119742921933L464.27139292115885,333.9390426333482L464.0993759999999,334.1259213125119L463.88435484855177,334.2193558791697L463.62632946681333,334.2193558791697L463.411308315365,334.1259213125119L463.1962871639166,334.1259213125119L462.98126601246804,334.1259213125119L462.8092490913093,334.31278726556275L462.50821947928125,334.45292838491866L462.2501940975433,334.45292838491866L462.07817717638454,334.31278726556275L461.691139103777,334.1259213125119L461.2610968008803,333.98576349676506L460.96006718885224,333.9390426333482L460.6160333465348,333.98576349676506L460.44401642537605,333.98576349676506L460.31500373450694,334.07920283618904L460.05697835276874,334.2193558791697L459.7559487407409,334.40621547295405L459.4979233590027,334.6397720915879L459.2398979772645,334.7798965377593L458.89586413494703,334.92001384538105L458.6378387532088,334.92001384538105L458.46582183204987,334.82660309992866L458.33680914118077,334.6864810337469L458.2508006806015,334.45292838491866L458.2077964503119,333.6587007310256L458.29380491089114,333.28486689215225L458.33680914118077,332.9109819667529L458.33680914118077,332.5837906864341L458.29380491089114,332.0695536798354L458.2077964503119,331.78901986110117L458.0787837594428,331.4616938536058L457.9497710685737,331.2278654335665L457.7347499171251,330.8536980829417L457.605737226256,330.43269811460726L457.56273299596637,330.10520845842103L457.6487414565456,329.7776791606907L457.7777541474147,329.54370536175725L457.9927752988633,329.0288916150981L457.8637626079942,328.7948528724796L457.7347499171251,328.7948528724796L457.51972876567675,329.0288916150981L457.13269069306943,329.35651172700096L456.91766954162085,329.35651172700096L456.616639929593,329.35651172700096L456.48762723872414,329.2629100409166L456.3586145478548,329.16930510733084L456.2296018569857,329.0288916150981L456.14359339640646,328.74804268418706L456.14359339640646,328.4203485756263L456.1005891661166,328.1394361381944L456.057584935827,327.90532001001026L455.8425637843784,327.6243537099551L455.7135510935093,327.6711834693425L455.62754263293004,327.99896890966414L455.5845384026404,328.5139795351158L455.36951725119184,328.8416622473032L455.15449609974326,328.88847080881754L454.8964707180053,328.88847080881754L454.6814495665567,328.7948528724796L454.46642841510834,328.70123168226667L454.2944114939494,328.5139795351158L454.25140726365976,328.3267143571607L454.25140726365976,328.1394361381944L454.5524368756878,327.95214486800677L454.7674580271362,327.8584943355135L454.9824791785845,327.6711834693425L455.0684876391638,327.39019264796343L455.0684876391638,327.1560111295719L454.8534664877154,326.8281225990382L454.63844533626707,326.54704330243794L454.4234241848185,326.21908009238246L454.38041995452886,325.93793670364107L454.337415724239,325.6098986247267L454.25140726365976,325.3286909814696L454.07939034250103,325.09432858451765L453.3913226578659,324.48488964864816L451.06909422222225,322.32728716523775L450.7250603799048,322.2334383667911L450.5100392284562,322.09265889939513L450.1660053861385,322.0457307376917L449.77896731353144,322.1395862247053L449.262916550055,322.2803631838888L448.91888270773757,322.32728716523775L448.53184463513026,322.5149747363741L448.2308150231022,322.6557316472647L448.01579387165384,322.6557316472647L447.714764259626,322.42113262133574L447.6717600293364,322.2334383667911L447.54274733846705,321.8580097237182L447.4567388778878,321.57640308353706L447.2847219567291,321.3886485622088L447.11270503557034,321.24782386423476L446.8116754235423,321.24782386423476L446.6826627326734,321.24782386423476L446.2956246600661,321.24782386423476L446.0375992783279,321.2947662693086L445.73656966630006,321.3417078352467L445.4355400542722,321.3417078352467L445.177514672534,321.3417078352467L444.87648506050596,321.2947662693086L444.6614639090576,321.2008806198624L444.4034385273196,321.0130992461623L444.23142160616067,320.8722543953427L444.0164004547121,320.5905419933981L443.80137930326373,320.4496744335442L443.5003496912359,320.30879929528163L443.19932007920806,320.12095398141497L442.8552862368906,319.7452228707904L442.8552862368906,319.5103634865476L442.89829046718023,319.32246076504055L443.02730315804934,319.32246076504055L443.2423243094977,319.36943771390804L443.371337000367,319.46338907449945L443.5433539215255,319.60430977495827L443.7583750729741,319.7452228707904L444.1884173758708,319.9330951767039L444.44644275760925,320.12095398141497L444.70446813934745,320.26183923101536L445.0485019816649,320.4496744335442L445.22051890282364,320.49663112865863L445.47854428456185,320.5435869818887L445.82257812687953,320.6374961633461L446.0375992783279,320.6374961633461L446.12360773890714,320.6374961633461L446.3816331206456,320.5905419933981L446.59665427209393,320.5435869818887L446.63965850238355,320.4496744335442L446.63965850238355,320.3557585170173L446.59665427209393,320.16791657424375L446.59665427209393,319.9330951767039L446.63965850238355,319.7452228707904L446.8116754235423,319.60430977495827L446.89768388412176,319.5573370533134L447.11270503557034,319.5573370533134L447.2847219567291,319.5573370533134L447.4997431081774,319.46338907449945L447.6717600293364,319.36943771390804L447.8007727202055,319.32246076504055L448.01579387165384,319.2285043293521L448.1448065625232,318.99359842783633L448.2738192533923,318.66469458443623L448.2308150231022,318.4767308742218L447.9727896413642,318.1007626986268L447.8007727202055,317.8657549643378L447.5857515687569,317.67773346059386L447.2847219567291,317.34866303578417L447.1987134961496,317.06656941658883L446.98369234470124,316.8784899314763L446.89768388412176,316.54931793281827L446.98369234470124,316.22010401393624L447.15570926585997,315.9849255183437L447.4567388778878,315.8438081326534L448.1018023322333,314.99694151013097L448.1018023322333,314.9498851947099L448.1448065625232,314.85576998052653L448.53184463513026,314.6675292142211L448.5748488654199,314.5734036594848L448.61785309570973,314.33807467837283L448.7468657865786,314.00857784652527L448.78987001686846,313.72611828397345L448.87587847744794,313.2081948206124L449.00489116831704,312.8785525478457L449.0908996288963,312.45466424608867L449.262916550055,312.12492464571665L449.6069503923727,311.653794034738L449.82197154382106,311.51243784467607L450.1230011558489,311.3710737974509L450.38102653758733,311.22970188862575L450.7250603799048,311.1354495796608L450.94008153135314,311.0411937733632L451.1120984525121,310.94693446841717L451.2411111433812,310.89980350354L451.45613229482956,310.852671663507L451.6281492159883,310.852671663507L451.972183058306,310.852671663507L452.2302084400442,310.852671663507L452.31621690062366,310.89980350354L452.531238052072,310.94693446841717L452.57424228236164,310.9940645583035L452.74625920352037,311.0411937733632L452.87527189438947,311.0411937733632L453.0042845852586,311.0411937733632L453.17630150641753,311.0411937733632L453.4343268881555,311.0411937733632L453.520335348735,311.1825761712273L453.5633395790246,311.32395070157304L453.6493480396041,311.5595574474956L453.73535650018357,311.7480271318793L453.8213649607628,311.84225674023406L454.07939034250103,311.9835946141651L454.25140726365976,311.9364828611162L454.50943264539796,311.795142372073L454.8964707180053,311.60667617746145L455.24050456032273,311.32395070157304L455.49852994206094,311.1354495796608L455.799559554089,310.9940645583035L455.9285722449579,310.80553894815415L455.9285722449579,310.5698622358289L455.8425637843784,310.4284456940614L455.5845384026404,310.19273391955795L455.41252148148146,310.05129632467583L455.24050456032273,309.8627005703978L455.2835087906126,309.6269361038047L455.36951725119184,309.5326241611042L455.54153417235057,309.48546686993797L455.799559554089,309.4383086986746L456.14359339640646,309.39114964714895L456.40161877814467,309.39114964714895L456.616639929593,309.1553411798149L456.78865685075175,308.8723419358791L456.78865685075175,308.5893109312103L456.6596441598829,308.4949601988811L456.40161877814467,308.3062481301343L456.2296018569857,308.21188679107183L456.057584935827,308.1175219137871L456.01458070553736,308.07033814789816L455.88556801466825,307.787216960692L455.7135510935093,307.5984517838797L455.49852994206094,307.5512582733257L455.2835087906126,307.5040638759005L455.0684876391638,307.5040638759005L454.8964707180053,307.5040638759005L454.7674580271362,307.45686859143797L454.63844533626707,307.3152774141735L454.50943264539796,307.2208788577771L454.337415724239,307.0320710872949L453.99338188192155,306.79604137735754L453.7783607304732,306.79604137735754L453.520335348735,306.8432490977248L453.34831842757626,306.8432490977248L453.13329727612745,306.7488327674684L453.0042845852586,306.6072015990142L452.96128035496895,306.32391522264373L453.0472888155484,306.1350398170141L453.17630150641753,306.1350398170141L453.4343268881555,305.85169994994885L453.3913226578659,305.66278885066527L453.2623099669968,305.426629871485L453.0472888155484,305.2376865911212L452.74625920352037,305.1432095816102L452.44522959149253,305.1432095816102L452.1872042097543,304.95424481728134L452.1011957491751,304.8597570598019L452.0151872885956,304.7652657170069L451.92917882801635,304.2454991846094L451.800166137147,304.0092057434882L451.7571619068574,303.8201548037293L451.6711534462779,303.6783571495762L451.5851449856989,303.53655139099266L451.4991365251194,303.3947375234788L451.45613229482956,303.2529155425302L451.41312806453993,303.15836304554375L451.3701238342501,303.06380693925075L451.2411111433812,303.06380693925075L451.06909422222225,303.1110854436446L450.94008153135314,303.20563974511754L450.7680646101944,303.2529155425302L450.68205614961516,303.3474644315441L450.6390519193253,303.48928100303596L450.68205614961516,303.63108946409596L450.81106884048404,303.6783571495762L450.85407307077367,303.7728898192262L450.85407307077367,303.96194435795394L450.7250603799048,304.10372581674767L450.42403076787696,304.10372581674767L450.1660053861385,304.0092057434882L449.95098423469017,303.8674188882411L449.8649757741109,303.7256239345639L449.82197154382106,303.5838208779572L449.90798000440054,303.48928100303596L450.03699269526965,303.3947375234788L450.252013846718,303.2529155425302L450.5100392284562,303.06380693925075L450.6390519193253,302.96924722231546L450.7250603799048,302.8746838934026L450.7250603799048,302.7328321246547L450.7680646101944,302.6382597599561L450.7250603799048,302.44910417926366L450.6390519193253,302.3545209605981L450.3380223072975,302.1653436599433L450.07999692555927,302.0234511737793L449.8649757741109,301.78694556789674L449.77896731353144,301.6923369765109L449.7359630832418,301.550417282716L449.7359630832418,301.40848941684385L449.82197154382106,301.26655337437603L449.95098423469017,301.2192395424175L450.1230011558489,301.2192395424175L450.29501807700785,301.26655337437603L450.38102653758733,301.3138662973218L450.5960476890357,301.40848941684385L450.68205614961516,301.550417282716L450.81106884048404,301.6450313196426L450.8970773010635,301.6923369765109L450.94008153135314,301.7396417258737L451.0260899919326,301.83424850274815L451.06909422222225,301.83424850274815L451.19810691309135,301.7396417258737L451.41312806453993,301.50310890232356L451.45613229482956,301.36117831142195L451.5421407554088,301.2192395424175L451.5421407554088,301.17192480127903L451.5421407554088,300.93533745201654L451.5421407554088,300.74605119027336L451.5421407554088,300.6040769305675L451.5421407554088,300.36743493498204L451.5421407554088,300.2254387926068L451.5421407554088,300.0360978241854L451.5851449856989,299.7994010615386L451.5421407554088,299.610027196632L451.5421407554088,299.3259389494311L451.4991365251194,299.183882463574L451.45613229482956,298.9944609854502L451.41312806453993,298.8997447446563L451.32711960396045,298.7576635025158L451.28411537367083,298.61557399919957L451.19810691309135,298.4734762301634L451.06909422222225,298.37873978982907L450.94008153135314,298.3313701908641L450.81106884048404,298.236628234496L450.6390519193253,298.236628234496L450.4670349981666,298.236628234496L450.29501807700785,298.236628234496L449.99398846498,298.236628234496L449.8649757741109,298.236628234496L449.7359630832418,298.236628234496L449.56394616208286,298.18925587675585L449.4779377015036,297.90500240592576L449.4779377015036,297.66809918928584L449.56394616208286,297.57333145133737L449.6069503923727,297.3837849086625L449.6069503923727,297.28900610123867L449.56394616208286,297.14683096619876L449.56394616208286,297.0520429249346L449.4779377015036,297.0046475184251L449.3919292409241,296.7676566203502L449.3919292409241,296.6254509830063L449.56394616208286,296.5780472531284L449.8649757741109,296.5780472531284L450.1230011558489,296.6254509830063L450.38102653758733,296.6254509830063L450.55304345874606,296.4832370162147L450.98308576164277,296.2936054290229L451.32711960396045,296.2936054290229L451.5421407554088,296.3884230752964L451.6711534462779,296.4358305088404L451.8861745977265,296.4358305088404L452.1441999794647,296.2936054290229L452.2302084400442,296.10395901500084L452.31621690062366,295.5823548372529L452.31621690062366,295.2503663796968L452.31621690062366,294.9183323325916L452.2302084400442,294.2541272372796L452.2732126703338,293.87449931002214L452.3592211309133,293.68466290423186L452.4022253612027,293.30494515398607L452.44522959149253,293.06759110156855L452.531238052072,292.830213594025L452.531238052072,292.5928126100939L452.6602507429411,292.2604117517591L452.6602507429411,292.0704477037274L452.74625920352037,291.7854733748869L452.87527189438947,291.5954716352263L453.0042845852586,291.26293226012194L453.0042845852586,291.0253757981175L452.9182761246791,290.8353136099733L452.74625920352037,290.7877956978282L452.57424228236164,290.7877956978282L452.31621690062366,290.7877956978282L452.0581915188852,290.88283057590365L451.84317036743687,291.0253757981175L451.6281492159883,291.2154228577595L451.3701238342501,291.4529604244966L451.0260899919326,291.5004651051745L450.85407307077367,291.5004651051745L450.7680646101944,291.4529604244966L450.68205614961516,291.4529604244966L450.55304345874606,291.2154228577595L450.5960476890357,290.9303465957907L450.7250603799048,290.6452362823986L450.8970773010635,290.5026683448907L450.94008153135314,290.4076183164527L451.06909422222225,290.31256449700703L451.28411537367083,290.2650361652291L451.5421407554088,290.1699766567074L451.84317036743687,289.9323112817932L451.8861745977265,289.7421618925737L451.7571619068574,289.4569093009322L451.7571619068574,289.2667218853204L451.6711534462779,289.0289661977061L451.5421407554088,288.743627931087L451.5851449856989,288.31555614189375L451.5851449856989,287.88740697442256L451.5851449856989,287.41159477271265L451.6281492159883,286.84049358684246L451.6281492159883,286.5548911393043L451.4991365251194,286.3644702769613L451.3701238342501,286.2216445262773L451.0260899919326,286.126422545177L450.7680646101944,286.07881010991673L450.55304345874606,286.07881010991673L450.38102653758733,286.07881010991673L450.1660053861385,285.98358234911365L449.95098423469017,285.8883507334526L449.95098423469017,285.7454960790833L449.99398846498,285.26925117420615L450.07999692555927,284.9834578598246L450.1230011558489,284.69762972127364L450.1230011558489,284.45941297709754L450.1230011558489,284.22117200195214L450.1230011558489,284.03056176101234L450.1230011558489,283.5539681787575L450.07999692555927,283.22029481615425L450.07999692555927,282.98192749129953L450.2090096164284,282.74353580129826L450.38102653758733,282.45743358077937L450.94008153135314,282.1236032228187L451.5421407554088,281.5989158421707L452.1441999794647,281.45579872109033L452.4022253612027,281.3603824065153L452.6172465126515,281.2172505803925L452.87527189438947,281.1218244581069L453.0472888155484,280.83552253256175L453.17630150641753,280.5969105795337L453.30531419728663,280.40600331884406L453.3913226578659,280.2150803142824L453.4343268881555,280.0241415546948L453.30531419728663,279.92866626327947L453.3913226578659,279.64221672580237L453.3913226578659,279.5467256542472L453.4343268881555,279.35573166416617L453.4343268881555,279.2602287428472L453.47733111844514,279.11696694909045L453.520335348735,278.9736962570082L453.60634380931424,278.83041666188376L453.60634380931424,278.5915975393189L453.6493480396041,278.4005244110576L453.60634380931424,278.1616606946032L453.6493480396041,277.9705518628892L453.73535650018357,277.82720981426337L453.8643691910527,277.68385882480766L453.9073734213423,277.5882865290403L453.99338188192155,277.3971300044853L454.0363861122114,277.2537521641554L454.0363861122114,277.0625677721657L453.99338188192155,276.8713674404968L453.99338188192155,276.7757612937737L453.99338188192155,276.6323445936303L454.0363861122114,276.4889189132032L454.1653988030803,276.39329680153094L454.25140726365976,276.34548424775204L454.337415724239,276.24985614342967L454.38041995452886,276.10640649240025L454.2944114939494,275.9151262938282L454.12239457279065,275.72383008814455L453.9503776516319,275.6281759791198L453.8213649607628,275.4846873038957L453.7783607304732,275.34118961042594L453.9073734213423,275.2455194689627L453.9503776516319,275.1498453158706L453.99338188192155,275.0541671497406L454.0363861122114,274.7671085590366L454.07939034250103,274.336452845957L454.12239457279065,274.1928828353541L454.20840303337013,274.00144205874915L454.25140726365976,273.80998516230545L454.25140726365976,273.6185121347266L454.25140726365976,273.42702296471225L454.1653988030803,273.3312723227592L454.12239457279065,273.18763878467195L454.1653988030803,272.99611325283763L454.25140726365976,272.9003444204305L454.38041995452886,272.756683584729L454.46642841510834,272.7087946155632L454.6814495665567,272.61301364027287L454.8534664877154,272.56512163379443L455.11149186945363,272.61301364027287L455.36951725119184,272.7087946155632L455.54153417235057,272.7087946155632L455.7135510935093,272.7087946155632L455.8425637843784,272.6609046341373L455.88556801466825,272.46933458228506L455.9285722449579,272.134047978622L455.88556801466825,271.9424333210956L455.8425637843784,271.8466199024788L455.8425637843784,271.6549808784498L455.88556801466825,271.3674918541418L455.9285722449579,271.1758121625418L455.97157647524773,271.03204170618665L456.01458070553736,270.9361896432619L456.057584935827,270.6486089971574L455.97157647524773,270.40893041354786L455.88556801466825,270.16922631062016L455.7565553237989,269.97744463943474L455.62754263293004,269.83359765175084L455.4555257117713,269.6417873466462L455.4555257117713,269.4979188704433L455.4555257117713,269.3060798965346L455.62754263293004,269.1142245247812L455.7565553237989,268.8264106962473L455.88556801466825,268.5385599084016L456.3156103175652,267.72278162942274L456.48762723872414,267.4347888071272L456.7026483901725,267.1947664149812L456.8746653113312,267.2427729581346L457.00367800220033,267.29077846874725L457.0896864627798,267.4347888071272L457.13269069306943,267.62678814690975L457.1756949233593,267.7707768244602L457.2186991536489,267.91475622684123L457.30470761422794,268.05872635887613L457.43372030509727,268.20268722538725L457.56273299596637,268.20268722538725L457.69174568683525,268.15470129908897L457.7347499171251,267.7707768244602L457.69174568683525,267.67478540363214L457.69174568683525,267.4347888071272L457.7347499171251,267.2427729581346L457.9497710685737,267.09875023033567L458.03577952915293,267.00272991337937L458.16479222002204,266.9067054626808L458.16479222002204,266.7626610327338L458.16479222002204,266.57058731133975L458.16479222002204,266.37849702919436L458.16479222002204,266.1863901748317L458.2077964503119,265.9942667367809L458.2508006806015,265.8981987952872L458.33680914118077,265.8021267035678L458.3798133714704,265.6099700637131L458.55183029262935,265.4658416788053L458.68084298349845,265.41779680573273L458.80985567436755,265.3697508933096L458.93886836523666,265.27365594969234L459.06788105610553,265.12950573464633L459.19689374697464,265.03340038943924L459.3689106681336,264.93729088108245L459.4549191287131,264.64893736272893L459.4979233590027,264.45668084171064L459.5409275892923,264.26440763357033L459.4979233590027,263.6394043224822L459.4979233590027,263.4951476994272L459.4979233590027,263.3027908828642L459.4549191287131,263.1104173100218L459.4549191287131,263.0142242363896L459.4119148984232,262.8699267628673L459.4119148984232,262.67751544618886L459.4549191287131,262.4369776826946L459.6699402801614,262.19641365630275L459.79895297103053,262.1482976974898L459.9279656618994,261.95582334442975L460.05697835276874,261.8595798546842L460.09998258305836,261.76333215419993L460.1429868133482,261.57082411522794L460.1429868133482,261.4745637738453L460.22899527392747,261.3301653553289L460.4010121950862,261.3301653553289L460.57302911624515,261.4264320220465L460.6590375768242,261.522694471512L460.74504603740365,261.6189527051738L460.7880502676935,261.66708024153036L460.874058728273,261.76333215419993L461.2610968008803,261.8114565308752L461.5191221826185,261.66708024153036L461.60513064319775,261.6189527051738L461.73414333406686,261.522694471512L461.9491644855152,261.4745637738453L462.1641856369638,261.522694471512L462.2931983278329,261.6189527051738L462.37920678841215,261.6189527051738L462.4652152489916,261.57082411522794L462.50821947928125,261.522694471512L462.50821947928125,261.3782992159346L462.59422793986073,261.2820304400482L462.63723217015036,261.1857574447371L462.7662448610197,261.1857574447371L462.9382617821784,261.1857574447371L463.0672744730473,261.1857574447371L463.28229562449565,261.1857574447371L463.4543125456546,261.1857574447371L463.5833252365237,261.2820304400482L463.62632946681333,261.3782992159346L463.6693336971032,261.522694471512L463.6693336971032,261.8595798546842L463.6693336971032,261.9077021258087L463.75534215768243,262.0039435107271L463.7983463879723,262.0520626248826L463.9273590788414,262.10018068707666L463.9703633091308,262.10018068707666L464.0993759999999,262.10018068707666L464.18538446057937,262.0520626248826L464.3574013817383,261.9077021258087L464.3574013817383,261.8114565308752L464.3574013817383,261.71520672447883L464.3574013817383,261.6189527051738L464.4434098423176,261.6189527051738L464.5724225331867,261.4745637738453L464.74443945434564,261.4264320220465L464.91645637550437,261.4264320220465L465.04546906637347,261.3301653553289L465.17448175724235,261.2338944699112L465.30349444811145,261.0413400371813L465.38950290869093,260.84876871226663L465.51851559956003,260.7524767116163L465.5615198298499,260.65618048357106L465.77654098129824,260.60803078382173L465.8625494418775,260.65618048357106L466.03456636303645,260.8006232402749L466.16357905390555,260.8006232402749L466.3355959750643,260.7043291261083L466.4646086659334,260.5598800266805L466.63662558709234,260.46357533949424L466.8516467385407,260.41542140908734L467.1096721202789,260.36726642056203L467.1526763505685,260.22279510446515L467.238684811148,260.078314258776L467.2816890414374,259.9819883983458L467.3246932717275,259.8374916591136L467.3246932717275,259.74115519844923L467.4107017323065,259.5966425520568L467.45370596259613,259.4521203548289L467.71173134433457,259.25940922652387L467.84074403520367,259.2112287887115L467.9697567260728,259.11486472493186L468.05576518665225,259.01849640906556L468.1417736472313,258.87393595942115L468.2707863381004,258.77755700697224L468.3997990289697,258.72936593439647L468.57181595012844,258.77755700697224L468.70082864099754,258.8257470152532L468.82984133186665,258.87393595942115L469.0018582530254,258.87393595942115L469.1308709438945,258.72936593439647L469.1308709438945,258.6329805956311L469.0448624833152,258.1991938405221L469.0018582530254,258.1027850572242L468.95885402273575,257.90995468703494L468.9158497924461,257.76532070050695L468.87284556215604,257.62067710089144L468.95885402273575,257.4760238832646L469.1308709438945,257.3795830590742L469.2598836347636,257.2349138004805L469.3028878650532,257.1384622777493L469.34589209534283,257.0420064730463L469.34589209534283,256.897314734098L469.3028878650532,256.7526133524931L469.21687940447373,256.65614040528834L469.1308709438945,256.4149392684792L469.08786671360485,256.2702057090469L469.08786671360485,256.0772125959908L469.08786671360485,255.7394332722801L469.08786671360485,255.5946545716959L469.1738751741841,255.40160123455593L469.34589209534283,255.30506810424816L469.47490478621194,255.25679992301815L469.6469217073709,255.30506810424816L469.9049470891089,255.353335208033L470.0769640102676,255.353335208033L470.24898093142656,255.25679992301815L470.46400208287514,255.11198891282555L470.5500105434544,255.0154428487777L470.6790232343237,254.87061566315845L470.8080359251928,254.774058810908L471.10906553722043,254.53264778647775L471.23807822808953,254.48436234118566L471.36709091895864,254.43607581533035L471.4961036098275,254.33949952119326L471.6251163006966,254.14633395807545L471.7111247612761,254.0014484269612L471.7111247612761,253.9048526611881L471.6681205309867,253.7599508913067L471.582112070407,253.71164813495164L471.4100951492485,253.6150393715467L471.36709091895864,253.4218088368067L471.324086688669,253.22856094834646L471.36709091895864,253.0836136365371L471.36709091895864,252.890335350721L471.4100951492485,252.6970396787812L471.5391078401176,252.45539562165578L471.7111247612761,252.35873038205636L471.9691501430143,252.40706354609387L472.22717552475274,252.35873038205636L472.4852009064907,252.31039612935837L472.78623051851855,252.2137243572443L472.9582474396775,252.06870852951073L473.13026436083624,251.87533883493256L473.2162728214155,251.73030011433985L473.3882897425742,251.5852515742136L473.5173024334433,251.48854708970435L473.6893193546023,251.39183823726432L473.9473447363405,251.48854708970435L474.03335319691973,251.5852515742136L474.119361657499,251.73030011433985L474.16236588778884,251.8269936854868L474.2483743483681,251.87533883493256L474.33438280894757,251.87533883493256L474.42039126952704,251.8269936854868L474.46339549981667,251.73030011433985L474.46339549981667,251.536899877858L474.5063997301065,251.39183823726432L474.54940396039615,251.29512501541495L474.67841665126525,251.05332283492413L474.76442511184473,250.90822840435334L474.76442511184473,250.8114933132755L474.76442511184473,250.66638246691264L474.7214208815549,250.52126176441402L474.67841665126525,250.37613120078117L474.6354124209756,250.18260843442226L474.6354124209756,250.03745484203347L474.67841665126525,249.7955102349066L474.67841665126525,249.5535381662645L474.76442511184473,249.40834173390948L474.8934378027136,249.26313540205484L475.06545472387234,249.1179191656894L475.19446741474167,248.97269301980128L475.2804758753209,248.87587008144288L475.32348010561054,248.6822109793991L475.3664843359004,248.48853423367672L475.32348010561054,248.3432650885644L475.2374716450313,248.1979860071716L475.1084589541622,248.10112776360648L474.9794462632933,247.90739801545118L474.8504335724242,247.81052650788325L474.76442511184473,247.7620890950754L474.46339549981667,247.7136505760032L474.3773870392374,247.61677021832116L474.29137857865794,247.47144138016017L474.119361657499,247.32610257556246L473.9903489666301,247.27765409172991L473.6033108940228,247.37454995145418L473.43129397286407,247.47144138016017L473.2162728214155,247.56832837933888L473.04425590025676,247.61677021832116L472.9152432093879,247.56832837933888L472.9152432093879,247.42299621959074L472.9582474396775,247.18075379949698L472.87223897909803,246.98693991153823L472.8292347488082,246.9384836669002L472.7002220579391,246.89002631282938L472.52820513678034,246.89002631282938L472.39919244591147,246.9384836669002L472.22717552475274,246.89002631282938L472.0981628338834,246.74464759215732L472.0551586035938,246.55079375455534L472.0551586035938,246.35692214214998L471.9691501430143,246.16303274299008L471.88314168243505,245.92064596320614L471.7111247612761,245.48427960260796L471.4961036098275,245.2418148291634L471.23807822808953,245.0478229240262L471.10906553722043,245.0478229240262L470.8510401554822,245.09632257492427L470.6790232343237,245.19331852730573L470.5500105434544,245.29031001504842L470.4209978525853,245.29031001504842L470.24898093142656,245.2418148291634L470.0769640102676,245.09632257492427L469.86194285881925,244.99932215640655L469.6899259376605,244.85381315134714L469.5609132467914,244.80530791496943L469.3888963256327,244.7082940890523L469.2598836347636,244.7082940890523L469.1308709438945,244.75680156093335L469.0448624833152,244.75680156093335L468.95885402273575,244.65978549913848L468.9158497924461,244.4657399554075L468.74383287128717,244.51425301932687L468.61482018041806,244.65978549913848L468.5288117198386,244.7082940890523L468.44280325925934,244.80530791496943L468.31379056839023,244.95082027187829L468.227782107811,244.99932215640655L468.05576518665225,244.9023172702545L467.8837482654933,244.9023172702545L467.7977398049138,245.0478229240262L467.71173134433457,245.14482110928827L467.6257228837551,245.29031001504842L467.4967101928862,245.38729703964998L467.4107017323065,245.58125770541903L467.3246932717275,245.62974508473712L467.19568058085815,245.62974508473712L467.06666788998905,245.62974508473712L466.9806594294098,245.62974508473712L466.8946509688303,245.53276921143845L466.8516467385407,245.4357888787411L466.80864250825084,245.29031001504842L466.80864250825084,245.19331852730573L466.80864250825084,245.0478229240262L466.80864250825084,244.95082027187829L466.7656382779612,244.85381315134714L466.72263404767136,244.80530791496943L466.59362135680226,244.65978549913848L466.42160443564376,244.61127579100486L466.2495875144848,244.4657399554075L466.2065832841952,244.2716765081572L466.2065832841952,244.1261171663145L466.2495875144848,244.07759514538452L466.3355959750643,243.98054774192542L466.42160443564376,243.98054774192542L466.55061712651263,243.93202235902083L466.7656382779612,243.8834958550823L466.8516467385407,243.83496822992288L466.93765519911994,243.7864394833543L466.80864250825084,243.54377892280303L466.63662558709234,243.44670684214543L466.59362135680226,243.3010902988526L466.59362135680226,243.1554636442799L466.67962981738174,243.0098268733521L466.7656382779612,243.0098268733521L466.93765519911994,243.0098268733521L467.1096721202789,243.0583735880142L467.238684811148,243.0583735880142L467.4107017323065,243.0583735880142L467.45370596259613,242.91273007002906L467.45370596259613,242.76707642722488L467.4967101928862,242.57285581165587L467.5397144231756,242.427178524518L467.6257228837551,242.3786171753323L467.71173134433457,242.28149109562224L467.84074403520367,242.18436050620448L467.8837482654933,242.0386561630787L467.9697567260728,241.74721700577265L468.05576518665225,241.60148218141222L468.05576518665225,241.50431998182324L468.0127609563624,241.45573718645744L467.84074403520367,241.4071532604604L467.66872711404494,241.45573718645744L467.5397144231756,241.55290164674506L467.3246932717275,241.50431998182324L467.238684811148,241.4071532604604L467.1526763505685,241.26139469678822L467.1526763505685,241.06703410492634L467.1526763505685,240.8726553987874L467.238684811148,240.67825856628252L467.2816890414374,240.53244903920114L467.2816890414374,240.38662930413113L467.19568058085815,240.19218710278744L467.1526763505685,240.09495918960283L467.0236636596994,239.99772673272503L466.8516467385407,239.90048973064012L466.7656382779612,239.80324818183283L466.67962981738174,239.65737733020495L466.63662558709234,239.5114962399308L466.67962981738174,239.365604905895L466.80864250825084,239.21970332298122L466.93765519911994,239.07379148606975L467.0236636596994,238.97651122893598L467.1526763505685,238.87922641067718L467.3246932717275,238.83058229065153L467.4967101928862,238.83058229065153L467.71173134433457,238.9278693900419L467.84074403520367,239.07379148606975L467.9697567260728,239.2683383230327L468.05576518665225,239.365604905895L468.227782107811,239.56012440796536L468.3997990289697,239.75462570193503L468.5288117198386,239.94910879992779L468.6578244107077,240.09495918960283L468.786837101577,240.24079935596768L468.82984133186665,240.38662930413113L468.95885402273575,240.48384359531764L469.08786671360485,240.58105334886352L469.3028878650532,240.67825856628252L469.5179090165018,240.72685947441755L469.6469217073709,240.72685947441755L470.0769640102676,240.72685947441755L470.33498939200604,240.67825856628252L470.5500105434544,240.53244903920114L470.7220274646131,240.38662930413113L470.9370486160617,240.1435737140621L471.0660613069308,239.94910879992779L471.1950739977999,239.80324818183283L471.36709091895864,239.75462570193503L471.6251163006966,239.70600208478936L471.8401374521452,239.75462570193503L472.0981628338834,239.80324818183283L472.6142135973598,239.90048973064012L472.8292347488082,239.94910879992779L473.00125166996713,240.0463435292205L473.0872601305466,240.24079935596768L473.17326859112586,240.43523701702395L473.25927705170534,240.53244903920114L473.3452855122846,240.58105334886352L473.5173024334433,240.62965652449486L473.7323235848919,240.58105334886352L474.33438280894757,240.38662930413113L474.54940396039615,240.33802045645035L474.8074293421341,240.24079935596768L474.93644203300323,240.24079935596768L475.2374716450313,240.24079935596768L475.4954970267695,240.28941047379226L475.6245097176386,240.28941047379226L475.92553932966644,240.43523701702395L476.09755625082516,240.58105334886352L476.1405604811148,240.67825856628252L476.35558163256337,240.72685947441755L476.6136070143016,240.72685947441755L476.82862816574993,240.72685947441755L477.1726620080676,240.67825856628252L477.4306873898056,240.62965652449486L477.9037339229924,240.58105334886352L478.20476353502045,240.58105334886352L478.4197846864686,240.53244903920114L478.5487973773379,240.62965652449486L478.677810068207,240.67825856628252L478.8068227590759,240.8240578904805L478.9788396802346,240.8240578904805L479.1078523711037,240.77545924908668L479.1938608316832,240.72685947441755L479.4088819831318,240.72685947441755L479.5378946740009,240.8240578904805L479.5808989042905,240.8726553987874L479.7099115951594,240.921251774197L479.8389242860285,240.8240578904805L480.05394543747707,240.8726553987874L480.1829581283462,240.921251774197L480.3119708192153,240.8726553987874L480.52699197066386,240.8726553987874L480.61300043124334,240.77545924908668L480.61300043124334,240.67825856628252L480.48398774037423,240.58105334886352L480.4409835100846,240.43523701702395L480.4409835100846,240.33802045645035L480.5699962009537,240.24079935596768L480.7420131221122,240.19218710278744L481.215059655299,240.24079935596768L481.43008080674736,240.09495918960283L481.68810618848556,239.90048973064012L481.90312733993414,239.80324818183283L482.03214003080325,239.70600208478936L482.1181484913825,239.5114962399308L482.1181484913825,239.2683383230327L482.16115272167235,239.0251519275488L482.2471611822516,238.83058229065153L482.37617387312093,238.7332906278591L482.50518656399004,238.63599440014696L482.67720348514854,238.63599440014696L482.8492204063075,238.7332906278591L483.1502500183351,238.83058229065153L483.2792627092042,238.7819370297753L483.40827540007353,238.63599440014696L483.4942838606528,238.4900414960316L483.6232965515219,238.39273384937525L483.752309242391,238.24676380972295L483.83831770297047,238.14944473462646L483.9673303938396,238.05212108549352L484.0963430847087,238.00345754518855L484.31136423615703,237.76012267867333Z"></path>
<circle class="distCircs" cx="471.25038833645635" cy="315.05731976479126" r="2.8311691975100044" stroke="#000" stroke-width="0.25" fill="#d3ebaa" data-q="CHHATTISGARH" data-r="BASTAR(JAGDALPUR)"><title>CHHATTISGARH - BASTAR(JAGDALPUR): Census 2011 Total Rural Households = 265,210. Census 2011 Households with toilets = 37,885. Census 2001 Total Rural Households = 231,015. Census 2001 Households with toilets = 10,756. Difference between Census 2011 Households with toilets and Census 2001 Households with toilets = 9.6%</title></circle><circle class="distCircs" cx="475.7513763604298" cy="264.290143082995" r="2.972448173544242" stroke="#000" stroke-width="0.25" fill="#cee9a7" data-q="CHHATTISGARH" data-r="BILASPUR"><title>CHHATTISGARH - BILASPUR: Census 2011 Total Rural Households = 475,742. Census 2011 Households with toilets = 79,176. Census 2001 Total Rural Households = 321,015. Census 2001 Households with toilets = 18,941. Difference between Census 2011 Households with toilets and Census 2001 Households with toilets = 10.7%</title></circle><circle class="distCircs" cx="464.3493160743699" cy="314.7958188287838" r="2.59297166739322" stroke="#000" stroke-width="0.25" fill="#ebf6b5" data-q="CHHATTISGARH" data-r="DANTEWADA"><title>CHHATTISGARH - DANTEWADA: Census 2011 Total Rural Households = 92,379. Census 2011 Households with toilets = 7,862. Census 2001 Total Rural Households = 133,270. Census 2001 Households with toilets = 5,606. Difference between Census 2011 Households with toilets and Census 2001 Households with toilets = 4.3%</title></circle><circle class="distCircs" cx="467.23472040901396" cy="286.08996378700874" r="2.678836919928595" stroke="#000" stroke-width="0.25" fill="#a8d895" data-q="CHHATTISGARH" data-r="DHAMTARI"><title>CHHATTISGARH - DHAMTARI: Census 2011 Total Rural Households = 136,570. Census 2011 Households with toilets = 33,041. Census 2001 Total Rural Households = 112,799. Census 2001 Households with toilets = 5,956. Difference between Census 2011 Households with toilets and Census 2001 Households with toilets = 18.9%</title></circle><circle class="distCircs" cx="463.3818170275393" cy="273.6658975406276" r="2.9432305921202477" stroke="#000" stroke-width="0.25" fill="#d9eead" data-q="CHHATTISGARH" data-r="DURG"><title>CHHATTISGARH - DURG: Census 2011 Total Rural Households = 422,563. Census 2011 Households with toilets = 59,341. Census 2001 Total Rural Households = 337,308. Census 2001 Households with toilets = 19,360. Difference between Census 2011 Households with toilets and Census 2001 Households with toilets = 8.3%</title></circle><circle class="distCircs" cx="483.10869505554103" cy="265.8981204870795" r="2.883284225454202" stroke="#000" stroke-width="0.25" fill="#e5f3b2" data-q="CHHATTISGARH" data-r="JANJGIR - CHAMPA"><title>CHHATTISGARH - JANJGIR - CHAMPA: Census 2011 Total Rural Households = 330,103. Census 2011 Households with toilets = 36,385. Census 2001 Total Rural Households = 238,840. Census 2001 Households with toilets = 12,583. Difference between Census 2011 Households with toilets and Census 2001 Households with toilets = 5.8%</title></circle><circle class="distCircs" cx="500.37752646170986" cy="254.68507217556882" r="2.7347743115645797" stroke="#000" stroke-width="0.25" fill="#d8edac" data-q="CHHATTISGARH" data-r="JASHPUR"><title>CHHATTISGARH - JASHPUR: Census 2011 Total Rural Households = 175,008. Census 2011 Households with toilets = 20,600. Census 2001 Total Rural Households = 142,899. Census 2001 Households with toilets = 4,588. Difference between Census 2011 Households with toilets and Census 2001 Households with toilets = 8.6%</title></circle><circle class="distCircs" cx="466.41692428812837" cy="293.00433889750275" r="2.686364477464277" stroke="#000" stroke-width="0.25" fill="#e0f1b0" data-q="CHHATTISGARH" data-r="KANKER"><title>CHHATTISGARH - KANKER: Census 2011 Total Rural Households = 141,247. Census 2011 Households with toilets = 20,931. Census 2001 Total Rural Households = 120,034. Census 2001 Households with toilets = 9,670. Difference between Census 2011 Households with toilets and Census 2001 Households with toilets = 6.8%</title></circle><circle class="distCircs" cx="465.62178372055644" cy="266.97734754142675" r="2.7122635672467257" stroke="#000" stroke-width="0.25" fill="#eaf5b5" data-q="CHHATTISGARH" data-r="KAWARDHA(KABIRDHAM)"><title>CHHATTISGARH - KAWARDHA(KABIRDHAM): Census 2011 Total Rural Households = 158,483. Census 2011 Households with toilets = 14,300. Census 2001 Total Rural Households = 108,840. Census 2001 Households with toilets = 4,717. Difference between Census 2011 Households with toilets and Census 2001 Households with toilets = 4.7%</title></circle><circle class="distCircs" cx="483.86083197303185" cy="260.0275666369487" r="2.7422021594027104" stroke="#000" stroke-width="0.25" fill="#dff0af" data-q="CHHATTISGARH" data-r="KORBA"><title>CHHATTISGARH - KORBA: Census 2011 Total Rural Households = 180,798. Census 2011 Households with toilets = 21,460. Census 2001 Total Rural Households = 130,576. Census 2001 Households with toilets = 6,292. Difference between Census 2011 Households with toilets and Census 2001 Households with toilets = 7.1%</title></circle><circle class="distCircs" cx="481.0818668377472" cy="246.18762602481596" r="2.6257806482678205" stroke="#000" stroke-width="0.25" fill="#f0f8b8" data-q="CHHATTISGARH" data-r="KORIYA"><title>CHHATTISGARH - KORIYA: Census 2011 Total Rural Households = 107,424. Census 2011 Households with toilets = 9,179. Census 2001 Total Rural Households = 83,572. Census 2001 Households with toilets = 4,450. Difference between Census 2011 Households with toilets and Census 2001 Households with toilets = 3.2%</title></circle><circle class="distCircs" cx="475.15396184542817" cy="279.7366172290134" r="2.7977886324678605" stroke="#000" stroke-width="0.25" fill="#c7e6a4" data-q="CHHATTISGARH" data-r="MAHASAMUND"><title>CHHATTISGARH - MAHASAMUND: Census 2011 Total Rural Households = 230,027. Census 2011 Households with toilets = 34,892. Census 2001 Total Rural Households = 169,523. Census 2001 Households with toilets = 5,158. Difference between Census 2011 Households with toilets and Census 2001 Households with toilets = 12.1%</title></circle><circle class="distCircs" cx="492.45556722581966" cy="265.62374702731927" r="3.013972484581376" stroke="#000" stroke-width="0.25" fill="#feffbf" data-q="CHHATTISGARH" data-r="RAIGARH"><title>CHHATTISGARH - RAIGARH: Census 2011 Total Rural Households = 561,916. Census 2011 Households with toilets = 40,112. Census 2001 Total Rural Households = 236,055. Census 2001 Households with toilets = 16,480. Difference between Census 2011 Households with toilets and Census 2001 Households with toilets = 0.2%</title></circle><circle class="distCircs" cx="468.3897678478576" cy="277.4460513797515" r="2.8679883445456618" stroke="#000" stroke-width="0.25" fill="#afdb98" data-q="CHHATTISGARH" data-r="RAIPUR"><title>CHHATTISGARH - RAIPUR: Census 2011 Total Rural Households = 309,691. Census 2011 Households with toilets = 72,634. Census 2001 Total Rural Households = 431,471. Census 2001 Households with toilets = 25,979. Difference between Census 2011 Households with toilets and Census 2001 Households with toilets = 17.4%</title></circle><circle class="distCircs" cx="459.72894426544195" cy="279.8966755617458" r="2.8236682812685117" stroke="#000" stroke-width="0.25" fill="#bde19f" data-q="CHHATTISGARH" data-r="RAJNANDGAON"><title>CHHATTISGARH - RAJNANDGAON: Census 2011 Total Rural Households = 256,900. Census 2011 Households with toilets = 47,612. Census 2001 Total Rural Households = 203,949. Census 2001 Households with toilets = 8,246. Difference between Census 2011 Households with toilets and Census 2001 Households with toilets = 14.5%</title></circle><circle class="distCircs" cx="492.46708717011626" cy="244.20981294416322" r="2.9710120033701233" stroke="#000" stroke-width="0.25" fill="#b0dc99" data-q="CHHATTISGARH" data-r="SURGUJA"><title>CHHATTISGARH - SURGUJA: Census 2011 Total Rural Households = 472,991. Census 2011 Households with toilets = 101,581. Census 2001 Total Rural Households = 357,912. Census 2001 Households with toilets = 15,212. Difference between Census 2011 Households with toilets and Census 2001 Households with toilets = 17.2%</title></circle></g></g></svg>