<?xml version="1.0" standalone="no"?><!DOCTYPE svg PUBLIC "-//W3C//DTD SVG 1.1//EN" "http://www.w3.org/Graphics/SVG/1.1/DTD/svg11.dtd"><svg id="chart" width="960" height="500" class="dorlingCart" data-type="dorlingCart" version="1.1" xmlns:xlink="http://www.w3.org/1999/xlink" xmlns="http://www.w3.org/2000/svg"><defs class="svg-crowbar"><style type="text/css"><![CDATA[.feature{ fill: #fcfcfc; stroke: #000000; stroke-width: 0.2px; cursor: pointer; }]]></style></defs>
<g><g transform="translate(-891.1856689453125,-939.000244140625)scale(4,4)">
<path class="feature" data-q="D &amp; N HAVELI" d="M341.322298522919,297.0994374074695L341.2792942926294,296.9098539328071L341.23629006233955,296.7676566203502L341.1932858320499,296.67285378739024L341.0642731411808,296.53064259758753L341.0212689108912,296.4358305088404L341.0212689108912,296.34101471541356L340.97826468060134,296.19878407604165L341.0212689108912,296.1513720091132L341.1502816017603,296.05654509353474L341.23629006233955,296.0091302445473L341.322298522919,295.9142977633288L341.36530275320865,295.8194615699919L341.36530275320865,295.6772003168057L341.45131121378813,295.6772003168057L341.6233281349471,295.48750564084514L341.83834928639544,295.2977960920467L342.01036620755417,295.2029357369475L342.22538735900275,295.1555041636305L342.35440004987186,295.1555041636305L342.65542966189946,295.1080716595755L342.8274465830582,295.0606382246135L342.9134550436379,295.01320385857537L342.9564592739275,294.8708951723074L343.0854719647966,294.68113721193413L343.300493116245,294.68113721193413L343.3434973465346,294.8708951723074L343.3434973465346,295.01320385857537L343.3434973465346,295.1555041636305L343.3434973465346,295.3452248741671L343.4725100374037,295.3452248741671L343.64452695856266,295.3452248741671L343.8165438797214,295.3452248741671L343.9885608008801,295.3926527262277L344.11757349174945,295.4400796483978L344.1605777220391,295.6297780415515L344.03156503117,295.7720420808566L343.9025523403009,295.7720420808566L343.77353964943177,295.96171446786786L343.77353964943177,296.10395901500084L343.64452695856266,296.19878407604165L343.4725100374037,296.19878407604165L343.25748888595535,296.34101471541356L343.0854719647966,296.4832370162147L342.87045081334804,296.5780472531284L342.78444235276856,296.7676566203502L342.6984338921893,296.9572511877724L342.61242543160984,297.14683096619876L342.61242543160984,297.3363959664313L342.65542966189946,297.4785600249125L342.99946350421715,297.71548167550327L343.300493116245,297.62071578128666L343.4725100374037,297.66809918928584L343.6875311888523,297.66809918928584L343.73053541914214,297.62071578128666L343.8165438797214,297.4311729280997L343.9885608008801,297.2416153129145L344.11757349174945,297.2416153129145L344.4616073340669,297.4311729280997L344.590620024936,297.62071578128666L344.67662848551527,297.81024388326705L344.63362425522564,297.90500240592576L344.54761579464616,298.0471332832926L344.4616073340669,298.1418825990879L344.37559887348743,298.236628234496L344.3325946431976,298.37873978982907L344.37559887348743,298.56820899482494L344.54761579464616,298.66293808516053L344.8486454066742,298.66293808516053L344.89164963696385,298.852385248238L344.89164963696385,298.9944609854502L344.89164963696385,299.08917355797485L344.76263694609474,299.183882463574L344.63362425522564,299.2312355416973L344.50461156435654,299.37328927937784L344.37559887348743,299.46798719227127L344.2035819523285,299.5153347755542L344.11757349174945,299.46798719227127L343.9455565705905,299.42063869360186L343.859548110011,299.37328927937784L343.73053541914214,299.3259389494311L343.5585184979832,299.2312355416973L343.38650157682446,299.1365284690558L343.21448465566573,298.9471033236715L343.042467734507,298.8997447446563L342.8274465830582,298.852385248238L342.5694212013202,298.8997447446563L342.35440004987186,298.9944609854502L342.1823831287129,299.08917355797485L342.0533704378438,299.08917355797485L341.9243577469747,299.0418177301627L341.83834928639544,298.9471033236715L341.83834928639544,298.805024834247L341.83834928639544,298.61557399919957L342.01036620755417,298.37873978982907L342.01036620755417,298.236628234496L342.01036620755417,298.0471332832926L341.88135351668507,297.95238028576256L341.75234082581596,297.95238028576256L341.6233281349471,298.0471332832926L341.494315444078,298.18925587675585L341.4083069834985,298.3313701908641L341.36530275320865,298.4261084695394L341.23629006233955,298.4261084695394L341.1502816017603,298.37873978982907L341.1072773714707,298.28399967247543L341.1072773714707,298.18925587675585L341.1502816017603,298.1418825990879L341.1932858320499,297.99975724482886L341.23629006233955,297.90500240592576L341.23629006233955,297.81024388326705L341.1932858320499,297.71548167550327L341.1502816017603,297.66809918928584L341.1502816017603,297.57333145133737L341.1502816017603,297.4311729280997L341.1932858320499,297.3837849086625L341.322298522919,297.3363959664313Z"></path>
<circle class="distCircs" cx="342.50222228334314" cy="297.6271506334489" r="2.393821609090764" stroke="#000" stroke-width="0.25" fill="#d5ecab" data-q="D &amp; N HAVELI" data-r="DADRA AND NAGAR HAVELI"><title>D &amp; N HAVELI - DADRA AND NAGAR HAVELI: Census 2011 Total Rural Households = 35,408. Census 2011 Households with toilets = 9,389. Census 2001 Total Rural Households = 32,783. Census 2001 Households with toilets = 5,679. Difference between Census 2011 Households with toilets and Census 2001 Households with toilets = 9.2%</title></circle></g></g></svg>