<?xml version="1.0" standalone="no"?><!DOCTYPE svg PUBLIC "-//W3C//DTD SVG 1.1//EN" "http://www.w3.org/Graphics/SVG/1.1/DTD/svg11.dtd"><svg id="chart" width="960" height="500" class="dorlingCart" data-type="dorlingCart" version="1.1" xmlns:xlink="http://www.w3.org/1999/xlink" xmlns="http://www.w3.org/2000/svg"><defs class="svg-crowbar"><style type="text/css"><![CDATA[.feature{ fill: #fcfcfc; stroke: #000000; stroke-width: 0.2px; cursor: pointer; }]]></style></defs>
<g><g transform="translate(-946.1314697265625,-1237.432861328125)scale(4,4)">
<path class="feature" data-q="GOA" d="M357.3198721906858,367.5202782581604L357.3628764209757,367.5664641944696L357.44888488155493,367.6126494460441L357.49188911184456,367.5664641944696L357.5348933421344,367.5202782581604L357.6639060330033,367.47409163696744L357.70691026329314,367.3355276625888L357.74991449358276,367.28933830036334L357.74991449358276,367.2431482525053L357.7929187238724,367.1969575188655L357.87892718445187,367.1507660992929L357.96493564503135,367.1045739936393L358.0509441056108,367.1045739936393L358.09394833590045,367.1507660992929L358.1369525661901,367.1507660992929L358.2229610267693,367.1507660992929L358.2659652570592,367.1507660992929L358.35197371763843,367.1507660992929L358.3949779479283,367.1507660992929L358.43798217821814,367.1969575188655L358.48098640850753,367.2431482525053L358.52399063879716,367.28933830036334L358.5669948690868,367.3355276625888L358.60999909937664,367.3817163393317L358.65300332966626,367.3817163393317L358.73901179024574,367.4279043307414L358.7820160205356,367.4279043307414L358.8250202508252,367.4279043307414L358.86802448111484,367.4279043307414L358.91102871140447,367.3817163393317L358.99703717198395,367.3355276625888L359.12604986285305,367.3355276625888L359.1690540931429,367.3817163393317L359.2120583234323,367.3817163393317L359.298066784012,367.3817163393317L359.3410710143014,367.4279043307414L359.38407524459126,367.47409163696744L359.4270794748809,367.47409163696744L359.47008370517074,367.5664641944696L359.47008370517074,367.65883401303404L359.47008370517074,367.7050178955889L359.51308793546036,367.75120109385864L359.51308793546036,367.7973836079923L359.51308793546036,367.8435654381403L359.51308793546036,367.93592704707595L359.51308793546036,367.9821068261631L359.51308793546036,368.0282859218628L359.47008370517074,368.0744643343236L359.47008370517074,368.1206420636962L359.47008370517074,368.1668191101298L359.4270794748809,368.3053461532912L359.4270794748809,368.39769410344445L359.38407524459126,368.49003932542996L359.38407524459126,368.53621091373293L359.4270794748809,368.62855204570803L359.4270794748809,368.67472158967854L359.4270794748809,368.7208904525036L359.47008370517074,368.76705863433284L359.51308793546036,368.859392955601L359.51308793546036,368.90555909533884L359.55609216575,368.951724554678L359.5990963960396,368.9978893337682L359.64210062632947,369.0902168517987L359.6851048566191,369.1363795910377L359.7281090869087,369.2287030307091L359.77111331719834,369.3210237529687L359.77111331719834,369.3671830954417L359.8141175474882,369.41334175900937L359.8141175474882,369.5056570500258L359.8141175474882,369.551813677773L359.77111331719834,369.644124898491L359.7281090869087,369.69027949176063L359.6851048566191,369.73643340716916L359.5990963960396,369.8748910877222L359.55609216575,369.9210422931791L359.55609216575,370.01334267289747L359.55609216575,370.05949184745657L359.55609216575,370.1517881667214L359.55609216575,370.24408178050845L359.5990963960396,370.3363726900098L359.5990963960396,370.4286608964186L359.6851048566191,370.6132292047247L359.6851048566191,370.65936959423124L359.6851048566191,370.70550930900714L359.6851048566191,370.7977867149639L359.6851048566191,370.84392440644285L359.64210062632947,370.89006142378724L359.64210062632947,370.9361977671464L359.5990963960396,370.9823334366685L359.5990963960396,371.0746027547991L359.64210062632947,371.16686937936976L359.6851048566191,371.2591333115714L359.7281090869087,371.44365310363025L359.8141175474882,371.53590896586957L359.9001260080677,371.58203588906144L359.98613446864715,371.67428772033657L359.98613446864715,371.7204126287163L360.0291386989368,371.76653686578913L360.0721429292262,371.8126604317042L360.1581513898059,371.85878332661014L360.2011556200955,371.90490555065514L360.28716408067476,371.9510271039885L360.28716408067476,371.9971479867587L360.3301683109646,372.0893877412039L360.3301683109646,372.18162481518004L360.37317254125423,372.2277423473636L360.41617677154386,372.3199754028664L360.4591810018335,372.41220578087245L360.50218523212334,372.504433482571L360.50218523212334,372.5966585091503L360.50218523212334,372.6888808617987L360.54518946241296,372.6888808617987L360.5881936927028,372.7811005417044L360.5881936927028,372.82720937975L360.63119792299244,372.87331755005533L360.5881936927028,372.96553188804L360.54518946241296,372.96553188804L360.50218523212334,373.01163805601584L360.4591810018335,373.05774355684537L360.37317254125423,373.1038483906773L360.24415985038513,373.1038483906773L360.1581513898059,373.1038483906773L360.115147159516,373.1038483906773L360.0291386989368,373.1499525576596L359.98613446864715,373.1960560579412L359.94313023835707,373.2421588916698L359.8571217777778,373.2421588916698L359.7281090869087,373.2421588916698L359.64210062632947,373.2421588916698L359.55609216575,373.2882610589942L359.51308793546036,373.38046339502444L359.4270794748809,373.5187619047473L359.4270794748809,373.56486007676205L359.38407524459126,373.6109575834116L359.38407524459126,373.70315060120646L359.4270794748809,373.74924611264885L359.4270794748809,373.7953409593182L359.51308793546036,373.88752865893343L359.55609216575,373.93362151217525L359.5990963960396,373.97971370123776L359.6851048566191,373.97971370123776L359.77111331719834,374.02580522626886L359.8141175474882,374.0718960874169L359.8571217777778,374.0718960874169L359.94313023835707,374.11798628483007L360.0721429292262,374.256252896144L360.115147159516,374.256252896144L360.2011556200955,374.3023404401001L360.24415985038513,374.3023404401001L360.28716408067476,374.39451353917923L360.28716408067476,374.48668398746827L360.3301683109646,374.6249346922626L360.3301683109646,374.7170985187603L360.28716408067476,374.80925969861465L360.115147159516,374.947496508531L360.0721429292262,375.0396510769593L360.0291386989368,375.13180300288866L360.0291386989368,375.17787797528626L360.0291386989368,375.22395228750366L359.98613446864715,375.22395228750366L359.94313023835707,375.31609893198845L359.94313023835707,375.3621712645513L359.9001260080677,375.408242937526L359.8571217777778,375.5003843052997L359.9001260080677,375.63859141374166L359.9001260080677,375.6846591322894L359.94313023835707,375.730726192283L359.98613446864715,375.82285833720107L359.98613446864715,375.86892342242106L360.0291386989368,375.96105161912254L360.0291386989368,376.0531771851575L360.0721429292262,376.0992389820445L360.0721429292262,376.1453001217082L360.0721429292262,376.1913606042965L360.115147159516,376.3295381110853L360.1581513898059,376.46770970951303L360.115147159516,376.5598208280117L360.0721429292262,376.65192932352574L360.0291386989368,376.69798258803297L360.0291386989368,376.74403519723694L359.98613446864715,376.7900871512853L359.94313023835707,376.8361384503259L359.94313023835707,376.9282390839741L359.9001260080677,377.1124324976699L359.94313023835707,377.15847921578757L359.8571217777778,377.34265955146236L359.8571217777778,377.38870300191934L359.8141175474882,377.480787943712L359.7281090869087,377.5268294353424L359.6851048566191,377.5728702743255L359.55609216575,377.71098887686566L359.47008370517074,377.7570271067344L359.3410710143014,377.94117350858096L359.298066784012,377.98720848037306L359.1690540931429,378.03324280099173L359.0830456325632,378.12530948929935L358.99703717198395,378.21737357468226L358.9540329416943,378.35546482485097L358.91102871140447,378.44752240807816L358.86802448111484,378.4935502250678L358.8250202508252,378.4935502250678L358.73901179024574,378.4935502250678L358.6960075599561,378.44752240807816L358.65300332966626,378.40149394138837L358.60999909937664,378.3094350583191L358.60999909937664,378.26340464164525L358.5669948690868,378.1713418572829L358.52399063879716,378.12530948929935L358.48098640850753,378.079276470585L358.3949779479283,377.98720848037306L358.35197371763843,377.94117350858096L358.2659652570592,377.89513788546867L358.1799567964797,377.89513788546867L358.0509441056108,378.079276470585L358.0509441056108,378.12530948929935L358.0509441056108,378.1713418572829L358.007939875321,378.26340464164525L358.007939875321,378.3094350583191L357.96493564503135,378.35546482485097L358.007939875321,378.44752240807816L358.007939875321,378.5395773925054L358.007939875321,378.5856039105365L357.96493564503135,378.67765499897155L357.9219314147415,378.67765499897155L357.835922954162,378.67765499897155L357.74991449358276,378.67765499897155L357.62090180271366,378.67765499897155L357.5348933421344,378.63162977930966L357.49188911184456,378.63162977930966L357.018842578658,378.63162977930966L356.97583834836814,378.63162977930966L356.9328341180785,378.63162977930966L356.8898298877889,378.67765499897155L356.8038214272094,378.7236795696697L356.7608171969198,378.67765499897155L356.67480873634054,378.67765499897155L356.54579604547143,378.67765499897155L356.5027918151816,378.67765499897155L356.45978758489196,378.67765499897155L356.4167833546021,378.5856039105365L356.3737791243125,378.44752240807816L356.4167833546021,378.35546482485097L356.4167833546021,378.3094350583191L356.45978758489196,378.21737357468226L356.5027918151816,378.1713418572829L356.5027918151816,378.12530948929935L356.5027918151816,378.03324280099173L356.5027918151816,377.94117350858096L356.5027918151816,377.89513788546867L356.4167833546021,377.7570271067344L356.3737791243125,377.6649499949398L356.33077489402285,377.6649499949398L356.287770663733,377.5728702743255L356.2447664334434,377.5268294353424L356.1587579728641,377.4347457992867L355.98674105170517,377.38870300191934L355.94373682141554,377.38870300191934L355.8577283608363,377.4347457992867L355.81472413054667,377.4347457992867L355.68571143967733,377.34265955146236L355.6427072093877,377.2505706906894L355.59970297909786,377.2045252800783L355.5136945185186,377.15847921578757L355.470690288229,377.0663851255765L355.42768605793935,376.97428841887626L355.3846818276495,376.9282390839741L355.3846818276495,376.8821890945064L355.3416775973599,376.8361384503259L355.29867336707,376.7900871512853L355.2556691367804,376.69798258803297L355.21266490649055,376.65192932352574L355.1696606762009,376.65192932352574L355.0836522156219,376.60587540356795L355.0406479853318,376.5598208280117L355.0406479853318,376.51376559670933L354.95463952475257,376.46770970951303L354.8686310641731,376.46770970951303L354.82562683388346,376.37559596684855L354.78262260359384,376.3295381110853L354.69661414301436,376.23742042995696L354.6106056824351,376.1913606042965L354.56760145214525,376.1453001217082L354.56760145214525,376.0992389820445L354.6106056824351,376.0531771851575L354.6106056824351,376.0071147308995L354.6106056824351,375.96105161912254L354.65360991272473,375.91498784967916L354.69661414301436,375.91498784967916L354.7396183733042,375.86892342242106L354.82562683388346,375.86892342242106L354.8686310641731,375.86892342242106L354.91163529446294,375.86892342242106L354.95463952475257,375.86892342242106L354.95463952475257,375.7767925938714L354.9976437550424,375.6846591322894L355.0406479853318,375.5464540003949L355.0836522156219,375.5003843052997L355.1266564459113,375.4543139510594L355.1696606762009,375.31609893198845L355.1696606762009,375.27002593968837L355.1266564459113,375.22395228750366L355.0836522156219,375.17787797528626L355.0406479853318,375.13180300288866L354.9976437550424,375.13180300288866L354.95463952475257,375.13180300288866L354.95463952475257,375.0857273701619L354.95463952475257,374.9935741231313L354.95463952475257,374.90141823300996L354.8686310641731,374.7170985187603L354.82562683388346,374.6249346922626L354.82562683388346,374.532768217937L354.8686310641731,374.48668398746827L354.8686310641731,374.4405990945985L354.82562683388346,374.3023404401001L354.78262260359384,374.256252896144L354.7396183733042,374.02580522626886L354.7396183733042,373.88752865893343L354.7396183733042,373.84143514136395L354.65360991272473,373.74924611264885L354.6106056824351,373.70315060120646L354.6106056824351,373.56486007676205L354.6106056824351,373.4726630672179L354.6106056824351,373.38046339502444L354.56760145214525,373.2421588916698L354.4815929915658,373.05774355684537L354.43858876127615,372.91942505276904L354.43858876127615,372.82720937975L354.3525803006967,372.73499103577L354.30957607040705,372.6427700196415L354.30957607040705,372.5966585091503L354.30957607040705,372.45831996618597L354.2235676098278,372.36609092648223L354.18056337953794,372.3199754028664L354.18056337953794,372.2277423473636L354.1375591492483,372.13550661317595L354.0945549189587,372.0432681991138L354.05155068866907,371.9971479867587L353.9655422280896,371.9510271039885L353.750521076641,371.85878332661014L353.66451261606153,371.85878332661014L353.53549992519265,371.8126604317042L353.4494914646132,371.8126604317042L353.32047877374407,371.85878332661014L353.2344703131648,371.85878332661014L353.14846185258534,371.8126604317042L353.01944916171624,371.7204126287163L352.9764449314264,371.67428772033657L352.89043647084713,371.6281621405013L352.8044280102679,371.58203588906144L352.7184195496884,371.4897813707752L352.7184195496884,371.39752416428666L352.6754153193988,371.35139455259497L352.6324110891089,371.35139455259497L352.6754153193988,371.2591333115714L352.7184195496884,371.2591333115714L352.8044280102679,371.21300168194216L352.8474322405575,371.21300168194216L352.93344070113676,371.2591333115714L352.9764449314264,371.2591333115714L353.01944916171624,371.3052642684056L353.1914660828752,371.35139455259497L353.2344703131648,371.35139455259497L353.32047877374407,371.39752416428666L353.40648723432355,371.39752416428666L353.4924956949028,371.39752416428666L353.5785041554823,371.39752416428666L353.750521076641,371.44365310363025L353.750521076641,371.4897813707752L353.8365295372205,371.53590896586957L353.87953376751034,371.53590896586957L353.9655422280896,371.53590896586957L354.05155068866907,371.53590896586957L354.1375591492483,371.58203588906144L354.2235676098278,371.58203588906144L354.30957607040705,371.58203588906144L354.3525803006967,371.58203588906144L354.43858876127615,371.6281621405013L354.52459722185563,371.58203588906144L354.56760145214525,371.53590896586957L354.52459722185563,371.4897813707752L354.43858876127615,371.44365310363025L354.3525803006967,371.39752416428666L354.2665718401174,371.35139455259497L354.2235676098278,371.3052642684056L354.18056337953794,371.2591333115714L354.18056337953794,371.21300168194216L354.1375591492483,371.16686937936976L354.05155068866907,371.12073640370477L353.9655422280896,371.0746027547991L353.92253799779996,371.0746027547991L353.92253799779996,371.02846843250325L353.87953376751034,370.9823334366685L353.8365295372205,370.9823334366685L353.750521076641,370.9361977671464L353.66451261606153,370.9361977671464L353.6215083857719,370.9361977671464L353.53549992519265,370.89006142378724L353.53549992519265,370.7977867149639L353.4924956949028,370.7516483492017L353.40648723432355,370.70550930900714L353.3634830040339,370.65936959423124L353.27747454345445,370.6132292047247L353.1914660828752,370.56708814033976L353.06245339200586,370.52094640092605L352.9764449314264,370.52094640092605L352.89043647084713,370.52094640092605L352.8474322405575,370.4748039863353L352.8474322405575,370.38251713102625L352.89043647084713,370.2902275732205L352.93344070113676,370.2902275732205L353.01944916171624,370.24408178050845L353.06245339200586,370.19793531172513L353.06245339200586,370.1517881667214L353.14846185258534,370.1056403453488L353.14846185258534,370.05949184745657L353.14846185258534,369.96719282152094L353.1054576222957,369.9210422931791L353.01944916171624,369.9210422931791L352.93344070113676,369.9210422931791L352.8474322405575,369.9210422931791L352.8044280102679,369.96719282152094L352.76142377997803,370.01334267289747L352.7184195496884,370.01334267289747L352.5894068588193,369.96719282152094L352.54640262852945,369.96719282152094L352.50339839824005,370.01334267289747L352.4173899376606,370.01334267289747L352.37438570737095,370.01334267289747L352.3313814770811,369.96719282152094L352.28837724679147,369.9210422931791L352.28837724679147,369.8287392050007L352.28837724679147,369.78258664486634L352.28837724679147,369.73643340716916L352.28837724679147,369.69027949176063L352.28837724679147,369.59796962721157L352.28837724679147,369.5056570500258L352.2453730165016,369.4594997438212L352.2453730165016,369.41334175900937L352.2453730165016,369.2287030307091L352.15936455592237,368.951724554678L352.11636032563274,368.859392955601L352.11636032563274,368.81322613531546L351.98734763476364,368.67472158967854L351.9443434044738,368.5823818204427L351.90133917418416,368.49003932542996L351.8583349438943,368.39769410344445L351.8153307136047,368.35152046946337L351.8153307136047,368.25917115477773L351.8153307136047,368.1206420636962L351.8583349438943,368.0744643343236L351.90133917418416,367.9821068261631L351.9443434044738,367.8897465844515L351.9443434044738,367.8435654381403L351.9443434044738,367.75120109385864L351.9443434044738,367.7050178955889L351.90133917418416,367.65883401303404L351.8153307136047,367.6126494460441L351.7723264833153,367.6126494460441L351.6863180227356,367.7050178955889L351.6863180227356,367.75120109385864L351.6863180227356,367.7973836079923L351.6863180227356,367.8435654381403L351.6433137924462,367.8897465844515L351.6003095621563,367.8435654381403L351.6003095621563,367.7050178955889L351.6433137924462,367.6126494460441L351.6433137924462,367.5202782581604L351.6003095621563,367.47409163696744L351.6003095621563,367.28933830036334L351.6003095621563,367.1969575188655L351.5573053318667,367.1045739936393L351.5573053318667,366.9197987072124L351.51430110157685,366.82740694361416L351.4712968712872,366.73501243149514L351.4282926409976,366.6426151696563L351.38528841070774,366.55021515689873L351.4712968712872,366.55021515689873L351.51430110157685,366.55021515689873L351.5573053318667,366.55021515689873L351.6003095621563,366.55021515689873L351.6433137924462,366.55021515689873L351.6863180227356,366.5040141185512L351.7293222530252,366.5040141185512L351.8153307136047,366.41160997716736L351.8583349438943,366.41160997716736L351.9443434044738,366.36540687383183L351.98734763476364,366.36540687383183L352.03035186505326,366.31920308186704L352.11636032563274,366.31920308186704L352.15936455592237,366.31920308186704L352.202368786212,366.36540687383183L352.2453730165016,366.36540687383183L352.28837724679147,366.36540687383183L352.3313814770811,366.36540687383183L352.37438570737095,366.36540687383183L352.4173899376606,366.36540687383183L352.4603941679504,366.31920308186704L352.54640262852945,366.27299860112294L352.5894068588193,366.22679343145046L352.6324110891089,366.1805875726991L352.6754153193988,366.1805875726991L352.6754153193988,366.1343810247182L352.76142377997803,366.08817378735847L352.89043647084713,366.04196586047016L352.93344070113676,366.04196586047016L353.06245339200586,365.9957572439027L353.1054576222957,365.9495479375066L353.1914660828752,365.9033379411313L353.27747454345445,365.857127254627L353.3634830040339,365.857127254627L353.40648723432355,365.76470381063166L353.4494914646132,365.7184910528396L353.4924956949028,365.67227760431916L353.4924956949028,365.62606346491907L353.4924956949028,365.5798486344894L353.53549992519265,365.5336331128803L353.53549992519265,365.4874168999414L353.53549992519265,365.4411999955226L353.5785041554823,365.3949823994741L353.6215083857719,365.30254513188646L353.7075168463514,365.30254513188646L353.79352530693086,365.30254513188646L353.8365295372205,365.30254513188646L353.87953376751034,365.30254513188646L353.92253799779996,365.34876411164544L353.92253799779996,365.3949823994741L353.9655422280896,365.4411999955226L353.9655422280896,365.5336331128803L354.0085464583792,365.5336331128803L354.05155068866907,365.5798486344894L354.05155068866907,365.62606346491907L354.0945549189587,365.62606346491907L354.0945549189587,365.67227760431916L354.1375591492483,365.7184910528396L354.18056337953794,365.7184910528396L354.2235676098278,365.76470381063166L354.2665718401174,365.8109158778435L354.2665718401174,365.857127254627L354.30957607040705,365.9033379411313L354.3525803006967,365.9495479375066L354.3955845309865,365.9957572439027L354.43858876127615,366.04196586047016L354.52459722185563,366.08817378735847L354.6106056824351,366.08817378735847L354.69661414301436,366.08817378735847L354.82562683388346,366.1343810247182L354.91163529446294,366.27299860112294L354.95463952475257,366.31920308186704L355.0406479853318,366.36540687383183L355.0406479853318,366.41160997716736L355.0836522156219,366.5040141185512L355.1696606762009,366.59641550721733L355.21266490649055,366.6426151696563L355.2556691367804,366.6888141443656L355.2556691367804,366.78121003119463L355.29867336707,366.82740694361416L355.29867336707,366.8736031689035L355.29867336707,366.96599355869034L355.3416775973599,367.0583812017544L355.3416775973599,367.1507660992929L355.3416775973599,367.1969575188655L355.3846818276495,367.28933830036334L355.42768605793935,367.3817163393317L355.3846818276495,367.5202782581604L355.42768605793935,367.5202782581604L355.470690288229,367.5664641944696L355.470690288229,367.6126494460441L355.5136945185186,367.6126494460441L355.5136945185186,367.65883401303404L355.5136945185186,367.7050178955889L355.59970297909786,367.7973836079923L355.6427072093877,367.93592704707595L355.68571143967733,367.93592704707595L355.7287156699672,367.93592704707595L355.8577283608363,367.9821068261631L355.94373682141554,368.0282859218628L356.029745281995,368.0282859218628L356.11575374257427,367.9821068261631L356.1587579728641,368.0282859218628L356.2447664334434,368.0282859218628L356.33077489402285,368.0282859218628L356.4167833546021,368.0282859218628L356.45978758489196,368.0282859218628L356.5027918151816,367.9821068261631L356.54579604547143,367.93592704707595L356.58880027576106,367.8897465844515L356.67480873634054,367.8435654381403L356.7608171969198,367.7973836079923L356.8898298877889,367.7973836079923L357.0618468089476,367.7050178955889L357.1478552695271,367.65883401303404L357.2338637301066,367.6126494460441L357.2768679603962,367.5202782581604Z"></path>
<circle class="distCircs" cx="353.9461144303427" cy="368.6537402459636" r="2.537937559607553" stroke="#000" stroke-width="0.25" fill="#91ce8a" data-q="GOA" data-r="NORTH GOA"><title>GOA - NORTH GOA: Census 2011 Total Rural Households = 71,412. Census 2011 Households with toilets = 49,092. Census 2001 Total Rural Households = 85,109. Census 2001 Households with toilets = 38,147. Difference between Census 2011 Households with toilets and Census 2001 Households with toilets = 23.9%</title></circle><circle class="distCircs" cx="357.81923442546315" cy="374.2076862417069" r="2.4766698800524605" stroke="#000" stroke-width="0.25" fill="#a1d592" data-q="GOA" data-r="SOUTH GOA"><title>GOA - SOUTH GOA: Census 2011 Total Rural Households = 53,262. Census 2011 Households with toilets = 39,331. Census 2001 Total Rural Households = 55,646. Census 2001 Households with toilets = 29,716. Difference between Census 2011 Households with toilets and Census 2001 Households with toilets = 20.4%</title></circle></g></g></svg>