<?xml version="1.0" standalone="no"?><!DOCTYPE svg PUBLIC "-//W3C//DTD SVG 1.1//EN" "http://www.w3.org/Graphics/SVG/1.1/DTD/svg11.dtd"><svg id="chart" width="960" height="500" class="dorlingCart" data-type="dorlingCart" version="1.1" xmlns:xlink="http://www.w3.org/1999/xlink" xmlns="http://www.w3.org/2000/svg"><defs class="svg-crowbar"><style type="text/css"><![CDATA[.feature{ fill: #fcfcfc; stroke: #000000; stroke-width: 0.2px; cursor: pointer; }]]></style></defs>
<g><g transform="translate(-1079.476318359375,-357.73431396484375)scale(4,4)">
<path class="feature" data-q="HARYANA" d="M364.8026082610929,140.0184709558174L365.10363787312076,139.71061807116973L365.4476717154382,139.45403102031457L365.96372247891463,139.09474344621788L366.22174786065284,139.04341038835372L366.78080285441865,139.09474344621788L367.0388282361571,138.94073957406005L367.5548789996335,138.94073957406005L367.85590861166133,139.04341038835372L368.11393399339954,139.19740486457647L368.32895514484767,139.3000600213701L368.5009720660066,139.45403102031457L368.75899744774483,139.65930378795537L369.06002705977266,139.8645515437696L369.3180524415109,140.0184709558174L369.44706513238,140.12107608894996L369.5760778232491,140.32626762404828L369.8771074352769,140.6340081274128L370.04912435643564,140.78785733336986L370.3501539684637,140.9416925174241L370.6081793502017,140.9416925174241L371.08122588338847,140.68529275445127L371.2532428045472,140.48014489311845L371.33925126512645,140.32626762404828L371.4252597257059,140.2749720810724L371.5972766468649,140.37756160688838L371.726289337734,140.5314341969849L371.7692935680234,140.83913728572605L371.726289337734,141.09551368600899L371.5112681862854,141.30058678672833L371.4252597257059,141.50563499772392L371.5972766468649,141.86440952186825L371.6832851074439,141.91565681144954L371.94131048918234,142.01814673258747L372.19933587092055,142.3255792489154L372.41435702236913,142.42804434499413L372.58637394352786,142.3255792489154L372.6293781738175,142.12063044461178L372.6723824041071,141.8131606792951L372.71538663439674,141.60814977433427L372.97341201613517,141.4543752775537L373.1884331675835,141.50563499772392L373.274441628163,141.65940483125058L373.532467009901,142.2231079494204L373.5754712401906,142.47927456734618L373.70448393105994,142.68417995770966L373.83349662192904,142.99149157221132L373.83349662192904,143.24754201843814L373.70448393105994,143.34995136917053L373.4034543190319,143.40115372525014L373.274441628163,143.6571423222532L373.31744585845263,143.81071694225915L373.36045008874225,144.06664376577618L373.4034543190319,144.27135745277076L373.31744585845263,144.47604647008717L373.1454289372939,144.47604647008717L372.97341201613517,144.47604647008717L372.9304077858453,144.6295470526925L373.0594204767144,144.83419293444047L373.23143739787315,144.98766118271777L373.48946277961136,145.34569992377186L373.61847547048046,145.7036633567069L373.70448393105994,145.95930546082775L373.83349662192904,146.26602536388089L373.96250931279815,146.41936462126944L374.2205346945361,146.41936462126944L374.47856007627433,146.21490921307043L374.65057699743306,146.21490921307043L374.73658545801254,146.06155156230318L374.60757276714344,145.7036633567069L374.60757276714344,145.39684216586517L374.65057699743306,145.19226397514984L374.77958968830217,145.0388141880618L374.86559814888165,144.88535055614346L374.9086023791715,144.6295470526925L375.2956404517786,144.06664376577618L375.63967429409627,143.81071694225915L375.9407039061241,143.5035538000201L375.9837081364137,143.29874746697897L376.28473774844156,142.88906056098722L376.4567546696005,142.7354024317254L376.5857673604696,142.53050323955614L376.67177582104887,142.3255792489154L376.67177582104887,142.1718699727988L376.800788511918,142.0693893646199L377.14482235423566,142.12063044461178L377.359843505684,142.3255792489154L377.53186042684274,142.42804434499413L377.66087311771184,142.53050323955614L378.04791119031916,142.6329559345014L378.3919450326366,142.68417995770966L378.6069661840852,142.7354024317254L378.8649915658234,142.88906056098722L379.166021177851,142.99149157221132L379.3810423292998,142.94027684060308L379.5100550201687,142.94027684060308L379.5530592504583,142.7354024317254L379.6820719413274,142.53050323955614L379.8970930927758,142.47927456734618L380.1121142442246,142.47927456734618L380.24112693509346,142.68417995770966L380.4131438562524,142.8378427331274L380.5421565471215,142.88906056098722L380.6711692379906,142.7866233567861L380.9291946197286,142.68417995770966L381.2732284620463,142.68417995770966L381.6602665346536,142.7866233567861L381.87528768610196,142.7354024317254L382.0473046072609,142.7354024317254L382.3053299889989,142.53050323955614L382.52035114044725,142.47927456734618L382.7783765221857,142.53050323955614L383.0794061342135,142.58173036186224L383.2944272856621,142.7866233567861L383.5524526674001,142.94027684060308L383.8104780491383,143.0427047560496L384.02549920058686,143.24754201843814L384.2835245823251,143.34995136917053L384.4985457337734,143.29874746697897L384.6705626549324,143.1963350233117L384.88558380638074,142.99149157221132L385.2726218789878,142.8378427331274L385.65965995159513,142.7354024317254L385.83167687275386,142.53050323955614L386.0036937939128,142.3255792489154L386.261719175651,141.966902548277L386.4767403270994,141.76191028349336L386.69176147854773,141.65940483125058L386.7777699391272,141.65940483125058L386.94978686028617,141.76191028349336L387.2078122420244,141.71065833422438L387.3798291631831,141.60814977433427L387.6378545449213,141.4543752775537L388.06789684781825,141.3518511722935L388.32592222955645,141.30058678672833L388.3689264598461,141.1467842954337L388.3689264598461,140.8904156803315L388.19690953868735,140.68529275445127L387.93888415694914,140.42885402983194L387.72386300550056,140.22367497772342L387.5948503146317,140.069774303048L387.508841854052,139.91585957641712L387.4658376237626,139.71061807116973L387.55184608434183,139.71061807116973L387.7668672357902,139.71061807116973L387.85287569636967,139.71061807116973L388.0248926175286,139.40270891851418L388.0248926175286,139.14607493821217L388.0248926175286,138.88940181715054L388.06789684781825,138.73537914450333L388.1109010781079,138.52999363421753L388.19690953868735,138.2218683088778L388.19690953868735,137.70820047899548L388.19690953868735,137.50268933490406L388.28291799926683,137.2971530179655L388.45493492042533,137.091591512798L388.62695184158406,136.93740384489053L388.62695184158406,136.8860048040134L388.5409433810048,136.62898595198953L388.32592222955645,136.57757745037162L388.1539053083977,136.52616737112146L387.98188838723877,136.42334247876016L387.93888415694914,136.32051127297672L387.8958799266593,136.16625262242115L387.98188838723877,136.01197975582357L388.19690953868735,136.01197975582357L388.45493492042533,136.11482991343695L388.6699560718739,136.26909330195042L388.84197299303287,136.42334247876016L389.0139899141916,136.57757745037162L389.35802375650906,136.62898595198953L389.530040677668,136.7832019934536L389.70205759882674,136.93740384489053L389.8310702896956,136.98880130981973L389.87407451998547,136.8346041869478L389.87407451998547,136.68039287621468L389.8310702896956,136.32051127297672L389.8310702896956,136.2176737518455L390.13209990172345,136.2176737518455L390.4331295137515,136.42334247876016L390.6481506652001,136.62898595198953L390.7771633560692,136.62898595198953L390.9061760469383,136.47475571399775L391.0351887378072,136.32051127297672L391.2932141195454,136.16625262242115L391.4222268104145,136.16625262242115L391.6802521921527,136.26909330195042L391.8522691133114,136.47475571399775L392.0672902647598,136.73179822328905L392.1963029556291,136.98880130981973L392.28231141620836,137.2971530179655L392.49733256765694,137.60544805259468L392.7553579493949,137.81094661602685L393.0133833311331,137.81094661602685L393.2284044825817,137.65682505208605L393.31441294316096,137.45130761622454L393.52943409460954,136.98880130981973L393.615442555189,136.7832019934536L393.70145101576827,136.52616737112146L393.8734679369272,136.32051127297672L394.04548485808573,136.06340562465152L394.13149331866543,135.8062604752639L394.30351023982394,135.60051589472823L394.30351023982394,135.34329956743568L394.26050600953454,134.9831301987639L394.21750177924446,134.93167109329204L394.17449754895483,134.82874812604337L394.13149331866543,134.62288315954805L393.8734679369272,134.51994115643095L393.65844678547865,134.62288315954805L393.44342563403006,134.77728426378178L393.2284044825817,134.82874812604337L393.1854002522921,134.77728426378178L393.0133833311331,134.6743517807759L393.2284044825817,134.21107704436292L393.40042140374067,134.10810963297803L393.57243832489917,133.9536465960851L393.65844678547865,133.85066328878565L394.04548485808573,133.38715965115432L394.8195610033006,133.18111663673812L395.0345821547487,132.97504812480707L395.2496033061973,132.76895409981307L395.421620227356,132.51130066712676L395.55063291822535,132.25360731557026L395.593637148515,131.94432255796033L395.63664137880437,131.5834175628553L395.7656540696737,131.06770288085255L396.0236794514119,131.06770288085255L396.152692142281,131.11928156113186L396.6687429057572,131.11928156113186L396.9267682874954,131.22243411192926L397.141789438944,131.37715091738414L397.3998148206822,131.32558025133915L397.35681059039234,131.17085863807608L397.22779789952347,130.86137212150135L397.05578097836474,130.75819711546495L397.0127767480749,130.60342256796315L397.1847936692336,130.50023150781243L397.48582328126145,130.29383011034815L397.9158655841586,130.19061976912207L398.3029036567659,130.0874029969557L398.5179248082143,129.93256577641273L398.5179248082143,129.72609362245436L398.4749205779244,129.57122260348717L398.3029036567659,129.51959570947741L398.00187404473786,129.57122260348717L397.87286135386876,129.4679672045495L397.87286135386876,129.36470536095447L397.95886981444824,129.10652254372428L398.13088673560696,128.95159350077643L398.3029036567659,128.6933461535781L398.3459078870553,128.28006641333508L398.1738909658968,128.02171403730443L397.9158655841586,127.71163778799826L397.3998148206822,127.45319637908244L396.9267682874954,127.24641407992999L396.6687429057572,127.19471445141909L396.4107175240192,127.09131032820295L396.152692142281,126.93619197419599L395.93767099083243,126.83277162252375L395.67964560909445,126.57419232411411L395.5076286879355,126.47074923187307L395.421620227356,126.2121130517894L395.3786159970664,125.79821056379075L395.3786159970664,125.53946858564763L395.5076286879355,125.33244566660863L395.7656540696737,125.07363032114665L396.06668368170153,124.86654866811699L396.23870060286026,124.60765985496664L396.3677132937296,124.45230695684057L396.23870060286026,124.19335275472105L396.10968791199116,124.0379605993748L396.06668368170153,123.88255371027316L396.06668368170153,123.51988030005032L396.152692142281,123.15712655083064L396.0236794514119,122.94980259069854L395.8946667605428,122.79429237720541L396.32470906343974,123.26077868201457L396.4967259845987,123.77894092880337L396.58273444517795,124.0379605993748L396.8407598269159,124.14155700627487L396.9267682874954,124.19335275472105L397.1847936692336,124.29693934284495L397.52882751155107,124.29693934284495L397.7868528932895,124.19335275472105L398.08788250531734,124.19335275472105L398.6039332687935,124.34873018302022L398.9479671111112,124.7112202815452L399.1629882625598,124.81477417270207L399.37800941400815,124.76299804392698L399.5500263351669,124.60765985496664L399.63603479574635,124.76299804392698L399.72204325632583,125.02186235668779L399.72204325632583,125.22892442279851L399.8080517169051,125.53946858564763L400.1090813289329,125.64297026484019L400.4961194015402,125.79821056379075L400.75414478327843,125.95343620487517L401.0121701650164,126.2121130517894L401.27019554675485,126.62591143269606L401.39920823762395,127.09131032820295L401.4852166982032,127.34980847199154L401.4422124679136,127.71163778799826L401.4422124679136,128.02171403730443L401.52822092849306,128.22839917273564L401.61422938907253,128.48671921008088L401.57122515878245,128.6416918405854L401.3131997770445,128.7449988517257L401.14118285588575,128.95159350077643L401.3131997770445,129.26143707074283L401.4852166982032,129.36470536095447L401.78624631023104,129.51959570947741L402.216288613128,129.6744715597302L402.4313097645763,129.82933291833064L402.6033266857353,129.9841797918928L402.81834783718386,130.1390121870284L403.0763732189221,130.29383011034815L403.46341129152916,130.55182784089936L403.6354282126879,130.65501568924958L403.8934535944263,130.65501568924958L404.1514789761643,130.70660720500211L404.5385170487716,130.70660720500211L404.7535382002202,130.9129572175629L405.01156358195817,131.06770288085255L405.1405762728273,131.17085863807608L405.3986016545655,131.27400798293604L405.6566270363037,131.11928156113186L405.82864395746265,130.96454070931208L406.043665108911,130.8097854208831L406.3016904906492,130.75819711546495L406.38769895122846,131.0161225969942L406.38769895122846,131.22243411192926L406.6027201026768,131.22243411192926L406.8177412541254,131.06770288085255L406.98975817528435,131.06770288085255L407.50580893876054,131.37715091738414L407.67782585991927,131.53185330380546L407.89284701136785,131.73810073414427L408.02185970223695,131.8412148458927L408.10786816281643,131.89276950176452L408.1938766233957,132.0989721309245L408.1938766233957,132.4082281184712L408.1938766233957,132.66589751505649L408.1938766233957,132.87200430241506L408.1938766233957,133.1296018997545L408.10786816281643,133.33565128709205L407.89284701136785,133.54167518857196L407.67782585991927,133.85066328878565L407.4198004781813,134.10810963297803L407.032762405574,134.26255836681946L406.77473702383577,134.46846777405767L406.4307031815183,134.82874812604337L406.25868626035935,135.24040195425965L406.043665108911,135.65195441257953L405.785639727173,135.96055230671203L405.5276143454346,136.2176737518455L405.2695889636964,136.47475571399775L405.01156358195817,136.7832019934536L404.7535382002202,137.14298425132773L404.45250858819213,137.50268933490406L404.1944832064539,137.75957433356206L403.97946205500557,138.06778445522286L403.80744513384684,138.32458302786898L403.54941975210863,138.63268952540977L403.3343986006603,138.83806249341427L403.0763732189221,139.09474344621788L402.775343606894,139.3000600213701L402.4743139948664,139.6079879415015L402.2592928434178,139.81324194883848L402.17328438283835,140.12107608894996L402.0872759222591,140.48014489311845L402.0872759222591,140.73657582302388L402.1302801525487,141.24932084555536L402.04427169196924,141.71065833422438L401.78624631023104,142.2231079494204L401.4852166982032,142.6329559345014L401.18418708617537,143.40115372525014L401.0981786255959,143.6571423222532L401.0121701650164,144.01546148761827L400.9691659347268,144.27135745277076L400.9691659347268,144.93650663882391L400.8831574741473,145.19226397514984L400.7111405529888,145.55025967309746L400.5391236318301,145.95930546082775L400.3671067106711,146.3682530677459L400.410110940961,146.62379551812535L400.3671067106711,146.93039593752974L400.3671067106711,147.185854220591L400.5821278621197,147.64558285823938L400.75414478327843,147.9009342245264L400.8831574741473,148.10518786333125L401.3562040073341,148.56466940655855L401.4852166982032,148.87092192965804L401.74324207994164,149.33019808190465L401.70023784965156,149.7383402796197L401.74324207994164,150.04438321800149L401.70023784965156,150.50334535522404L401.70023784965156,151.0641326375724L401.74324207994164,151.42090207835844L401.8722547708105,151.82854804246188L401.8722547708105,152.4398361598258L401.8722547708105,153.10182049542328L401.8722547708105,153.45816846689195L401.95826323139,153.81444294765504L402.0872759222591,154.1706440168934L402.2592928434178,154.3741545552026L402.30229707370745,154.57764116298767L402.3453013039973,154.9336851881314L402.2592928434178,155.28965605015992L401.8722547708105,155.54387620157246L401.65723361936193,155.95055095677793L401.4852166982032,156.20467429415794L401.3131997770445,156.45876044702175L401.05517439530627,156.7128094440351L400.8401532438577,156.8652210193532L400.5821278621197,157.01761923506518L400.410110940961,157.32237561239782L400.410110940961,157.62707862546745L400.238094019802,158.0840331951262L400.02307286835367,158.0840331951262L399.72204325632583,158.185562381156L399.4640178745874,158.38860301357607L399.24899672313904,158.54086797289688L399.0769798019801,158.79461337097922L398.99097134140106,159.09905915249652L398.99097134140106,159.4034518573909L399.0339755716907,159.65707193564714L399.0769798019801,159.96136746111955L399.0769798019801,160.16420173209343L398.99097134140106,160.36701248989772L398.8189544202421,160.6204928939045L398.689941729373,160.87393660967518L398.5609290385039,161.07666518582147L398.3459078870553,161.3807140899347L398.2168951961862,161.4820520091967L398.00187404473786,161.53271877320168L397.82985712357913,161.6340479110914L397.82985712357913,161.88734515734922L397.7868528932895,162.0899566394399L397.61483597213055,162.2418999101423L397.48582328126145,162.3938300383141L397.35681059039234,162.5963831091529L397.3998148206822,162.84954162865893L397.48582328126145,162.84954162865893L397.61483597213055,162.95079483188812L397.9158655841586,163.30513515578593L398.00187404473786,163.5075833140283L398.2168951961862,163.65940415822007L398.6039332687935,163.55819171643026L398.8189544202421,163.45697345698892L399.29200095342867,163.5075833140283L399.50702210487725,163.5075833140283L399.85105594719494,163.35574937809298L400.02307286835367,163.1532837547225L400.238094019802,163.10266370890315L400.4961194015402,163.1532837547225L400.75414478327843,163.1532837547225L400.8401532438577,163.1532837547225L400.92616170443716,163.40636214508504L400.92616170443716,163.55819171643026L401.0981786255959,163.76061078416058L401.27019554675485,163.86181159605354L401.4422124679136,164.01360191649707L401.4852166982032,164.3677285078569L401.4852166982032,164.62063254428563L401.91525900110014,164.77235756810234L402.216288613128,164.62063254428563L402.56032245544566,164.87350033854284L402.8613520674735,164.92406955080548L403.0763732189221,164.87350033854284L403.3343986006603,164.57005463727222L403.46341129152916,164.3171433490382L403.67843244297774,164.21596867806755L404.06547051558505,164.26655673918327L404.495512818482,164.11478820115343L404.58152127906146,163.96300659570187L404.9255551213789,164.21596867806755L405.35559742427586,164.3677285078569L405.74263549688294,164.5194752803481L406.1296735694905,164.5194752803481L406.25868626035935,164.57005463727222L406.4737074118077,164.82292967771627L406.4737074118077,165.22745441713005L406.4307031815183,165.53078719175528L406.34469472093883,165.78352474663484L406.34469472093883,166.33942028864953L406.4307031815183,166.64256247471207L406.6027201026768,166.9961628091679L406.6887285632565,167.29919268025213L406.86074548441525,167.50118383507652L407.032762405574,167.7031519991869L407.032762405574,167.90509718686582L406.5167116420978,168.3089186900209L406.4307031815183,168.71264845865892L406.6457243329669,168.914478978165L406.86074548441525,169.26762731467176L407.0757666358636,169.7720034816088L407.032762405574,170.17540166751058L407.032762405574,170.52830025710034L407.0757666358636,171.032320114271L407.24778355702256,171.23388824663436L407.37679624789166,171.63695634267322L407.2907877873122,171.98956644072018L407.4198004781813,172.14066379234322L407.24778355702256,172.5435277536011L407.2907877873122,172.7952717433917L407.11877086615345,172.9463011719327L406.86074548441525,172.84561629957562L406.5167116420978,172.89595944234924L406.4307031815183,173.19798862971038L406.5167116420978,173.4999669898051L406.38769895122846,173.75157683113378L406.043665108911,173.8018945701756L405.74263549688294,173.8018945701756L405.69963126659354,174.05346213136005L405.785639727173,174.20438576876285L405.5706185757242,174.4558970179623L405.1835805031169,174.4558970179623L404.88255089108907,174.4558970179623L404.58152127906146,174.40559758174498L404.4095043579025,174.70737310785813L404.0224662852954,174.85824189674292L403.6354282126879,175.0593806183124L403.46341129152916,175.21021991945526L403.1193774492117,175.31077243777543L402.94736052805274,175.21021991945526L402.68933514631476,175.21021991945526L402.4313097645763,175.4615906959732L401.70023784965156,175.4615906959732L401.27019554675485,175.4615906959732L401.0121701650164,175.36104659285968L400.75414478327843,175.36104659285968L400.5391236318301,175.15994155578232L400.28109825009165,175.0593806183124L400.0660770986433,175.10966178880756L400.3241024803815,175.56212919113887L400.410110940961,175.81345090577992L400.238094019802,176.06473760905908L400.0660770986433,176.2154928369493L399.8080517169051,176.2154928369493L399.5930305654565,176.36623547649657L399.37800941400815,176.96908026925547L399.4210136442978,177.27042728891638L399.37800941400815,177.52151146500825L398.9479671111112,177.62193538271157L398.7759501899525,177.47129741672057L398.6469374990834,177.37086514018534L398.5179248082143,177.42108197518615L398.1738909658968,177.37086514018534L398.2168951961862,177.22020627221036L398.3029036567659,177.01930825983055L398.2168951961862,176.7681543504869L398.08788250531734,176.5169655336024L398.0448782750275,176.11499075075818L398.08788250531734,175.51186064443993L398.2168951961862,175.15994155578232L398.3459078870553,174.85824189674292L398.5609290385039,174.50619504780735L398.8189544202421,174.3049944893154L398.9049628808216,174.10377141833033L398.9479671111112,173.8018945701756L398.9049628808216,173.6006151564402L398.73294595966263,173.09731788374665L398.5179248082143,172.69457838991093L398.431916347635,172.39246438469422L398.3459078870553,172.0399336414606L398.431916347635,171.53619783532605L398.4749205779244,171.23388824663436L398.6469374990834,170.8811290914831L398.86195865053173,170.57870864525245L398.9479671111112,170.27623695827612L399.11998403227017,170.07456067623644L399.1629882625598,169.8224332466748L399.0769798019801,169.57027015009976L398.86195865053173,169.31807135875647L398.6469374990834,169.21718184146414L398.2168951961862,169.0153856529472L398.13088673560696,168.7631082353348L397.95886981444824,168.56126053831957L397.70084443271,168.56126053831957L397.52882751155107,168.56126053831957L397.2708021298131,168.51079503402656L397.0127767480749,168.46032809727274L396.8407598269159,168.66218725041261L396.6257386754676,169.0153856529472L396.45372175430884,169.26762731467176L396.4107175240192,169.4693949184895L396.23870060286026,169.8224332466748L395.98067522112206,169.97371398267757L395.67964560909445,170.27623695827612L395.63664137880437,170.52830025710034L395.63664137880437,170.72992527046983L395.67964560909445,170.93152752080937L395.55063291822535,171.23388824663436L395.55063291822535,171.43543365138368L395.593637148515,171.58657779846374L395.5076286879355,171.83845633465245L395.3786159970664,172.0399336414606L395.07758638503856,172.09029942526126L394.7765567730107,172.1910267429269L394.3895187004034,172.0399336414606L394.04548485808573,171.98956644072018L393.8304637066374,172.09029942526126L393.4864298643197,172.0399336414606L393.31441294316096,172.24138827723283L393.2284044825817,172.44282025609698L392.9703791008435,172.5435277536011L392.6263452585258,172.44282025609698L392.54033679794657,172.1910267429269L391.594243731573,171.13310702228927L391.7232564224423,170.98192452833166L391.8092648830218,170.67952115171545L391.9812818041805,170.3770665503053L392.11029449504963,170.27623695827612L392.3253156464982,170.32665246652152L392.5833410282362,170.17540166751058L392.41132410707746,169.97371398267757L392.0672902647598,169.7720034816088L391.594243731573,169.72157228964028L391.25020988925576,169.67113967054752L390.9491802772277,169.67113967054752L390.7341591257791,169.8224332466748L390.39012528346166,170.07456067623644L390.00308721085435,169.97371398267757L389.6590533685369,170.02413804235368L389.57304490795764,170.17540166751058L389.70205759882674,170.42747920984868L390.13209990172345,170.830729240133L390.0890956714338,170.98192452833166L389.74506182911637,171.0827142788499L389.1860068353503,171.0827142788499L388.97098568390174,170.98192452833166L388.798968762743,170.98192452833166L388.4119306901357,171.1834983448107L388.1539053083977,171.23388824663436L387.85287569636967,171.0827142788499L387.55184608434183,171.13310702228927L387.3798291631831,171.48581645304017L387.3368249328935,171.83845633465245L387.3798291631831,172.29174839548216L387.6378545449213,172.64422959217313L387.68085877521094,172.9463011719327L387.508841854052,173.24832188478047L387.55184608434183,173.55029177828658L387.68085877521094,173.8018945701756L387.72386300550056,174.20438576876285L387.8958799266593,174.40559758174498L388.19690953868735,174.55649167150057L388.239913768977,175.00909804407763L388.06789684781825,175.15994155578232L387.93888415694914,175.36104659285968L387.68085877521094,175.56212919113887L387.4228333934725,175.4615906959732L387.2078122420244,175.10966178880756L387.0357953208654,174.90852868351232L386.9927910905758,174.65708070130648L386.7777699391272,174.40559758174498L386.4767403270994,174.55649167150057L386.1327064847819,174.60678688926032L385.83167687275386,174.8079537053577L385.4446388001468,174.8079537053577L385.2296176486982,174.70737310785813L385.05760072753947,174.50619504780735L384.9715922669602,174.35529673893535L384.8425795760911,173.90252582079523L384.7995753458015,173.6509371244859L385.05760072753947,173.24832188478047L385.05760072753947,172.84561629957562L384.8425795760911,172.49317471232587L384.8425795760911,172.24138827723283L384.7995753458015,172.09029942526126L384.4555415034838,171.93919782281876L384.5845541943529,171.68733346817623L384.75657111551163,171.58657779846374L385.01459649724984,171.58657779846374L385.18661341840857,171.43543365138368L385.4446388001468,171.23388824663436L385.702664181885,171.13310702228927L385.83167687275386,170.98192452833166L385.7456684121746,170.72992527046983L385.3586303395673,170.78032796653508L384.92858803667036,170.78032796653508L384.5845541943529,170.72992527046983L384.3265288126147,170.8811290914831L384.11150766116634,170.93152752080937L383.8104780491383,170.57870864525245L383.98249497029724,170.32665246652152L384.1975161217456,170.17540166751058L384.41253727319395,170.02413804235368L384.88558380638074,169.8224332466748L385.3156261092777,169.4693949184895L385.53064726072625,169.3685139739394L385.78867264246423,169.3685139739394L386.04669802420244,169.31807135875647L386.0036937939128,169.21718184146414L385.87468110304394,169.06583684487373L385.7456684121746,168.813566580663L385.5736514910159,168.61172461037347L385.2726218789878,168.15749638260337L384.9715922669602,167.75364044958945L384.8425795760911,167.55167803092513L384.41253727319395,167.09717852042468L383.9394907400076,166.59204238013547L383.7244695885588,166.38994759017288L383.5524526674001,166.08676214564753L383.2944272856621,165.93514994347566L383.0794061342135,165.88460965534642L382.73537229189606,165.78352474663484L382.52035114044725,165.58133759312528L382.1763172981298,165.58133759312528L381.9182919163916,165.58133759312528L381.61726230436375,165.58133759312528L381.4882496134949,165.37912731287577L381.445245383205,165.1768938915311L381.445245383205,164.87350033854284L381.445245383205,164.62063254428563L381.31623269233614,164.46889447328738L381.1442157711772,164.3171433490382L380.97219885001846,164.11478820115343L380.80018192885973,163.86181159605354L380.6711692379906,163.76061078416058L380.37013962596257,163.76061078416058L380.1121142442246,163.30513515578593L379.81108463219675,163.1532837547225L379.6390677110378,162.95079483188812L379.42404655958944,162.74828259514845L379.33803809900996,162.49510949203574L379.166021177851,162.2418999101423L378.95100002640265,162.0899566394399L378.6929746446647,161.9380002201027L378.5209577235057,161.68471028542928L378.43494926292624,161.33004293422493L378.30593657205713,160.67118457120995L378.3489408023472,160.46840905590454L378.26293234176774,159.96136746111955L378.17692388118826,159.70779153484852L377.9619027297397,159.45417881810084L377.8758942691604,159.25126213644677L377.78988580858095,158.8453580225305L377.70387734800147,158.236324756373L377.70387734800147,158.0840331951262L377.70387734800147,157.7794101358415L377.70387734800147,157.37316315242663L377.53186042684274,157.22079608509L377.4888561965531,157.11921062658962L377.27383504510453,156.96682131384733L377.1878265845253,156.91602190868645L377.27383504510453,156.76361478725693L377.40284773597364,156.7128094440351L377.66087311771184,156.81441864561992L377.8328900388706,156.7128094440351L377.91889849945005,156.50957321797495L377.9619027297397,156.30631321583928L378.0909154206088,156.00137860039223L378.04791119031916,155.64555382797107L377.8758942691604,155.39134858365873L377.70387734800147,155.23880754625333L377.53186042684274,155.18795755060285L377.1878265845253,155.23880754625333L376.9728054330767,155.23880754625333L376.62877159075924,155.18795755060285L376.41375043931066,154.88282623718294L376.24173351815193,154.73024042329L376.15572505757245,154.47590084948888L376.1127208272828,153.76355108968943L376.0697165969932,153.45816846689195L375.9837081364137,153.35636226327398L375.76868698496537,153.30545691117248L375.6826785243859,153.15273185092394L375.72568275467574,152.84724119188087L375.81169121525477,152.7453989539967L376.1127208272828,152.54169643982056L376.28473774844156,152.38890376329203L376.15572505757245,152.18515912817395L376.0697165969932,151.98139040356637L376.1127208272828,151.82854804246188L376.24173351815193,151.77759757463832L376.24173351815193,151.52282261917242L376.1127208272828,151.2680099485225L375.8976996758345,151.36993954446064L375.72568275467574,151.62473712555618L375.4246531426477,151.93044445669398L375.2096319911991,151.93044445669398L375.1236235306196,151.67569211641745L375.3386446820682,151.31897550125956L375.38164891235806,151.1151042307746L375.2956404517786,150.8092520064601L374.9946108397505,150.8092520064601L374.6935812277229,150.9621849188448L374.34954738540523,151.21704288601694L373.96250931279815,151.47186310318529L373.61847547048046,151.72664559936732L373.36045008874225,151.77759757463832L373.23143739787315,151.62473712555618L373.1884331675835,151.42090207835844L373.1454289372939,151.2680099485225L372.9304077858453,151.21704288601694L372.71538663439674,151.2680099485225L372.5003654829484,151.47186310318529L372.1563316406307,151.5737806265518L371.8983062588927,151.62473712555618L371.6402808771543,151.52282261917242L371.4682639559958,151.42090207835844L371.1242301136781,151.21704288601694L370.8232005016505,150.8092520064601L370.52217088962243,150.86023115547067L370.17813704730474,150.9621849188448L369.8771074352769,150.91120879285472L369.61908205353893,150.70728917263034L369.3610566718005,150.09538506931818L369.3610566718005,149.7893512265241L369.27504821122125,149.4832627892273L369.2320439809316,149.2281473510165L369.18903975064177,149.17711970707035L368.9740185991934,149.1260905438108L368.62998475687573,149.07505986100597L368.32895514484767,148.97299393582443L368.0709297631097,148.87092192965804L367.6838916905024,149.07505986100597L367.4258663087644,149.3812211693139L367.25384938760544,149.5342813221983L366.9528197755776,149.68732781596725L366.69479439383963,149.7383402796197L366.4367690121012,149.58529833748946L366.3077563212323,149.3812211693139L366.0497309394939,149.33019808190465L365.920718248625,149.3812211693139L365.6196886365972,149.33019808190465L365.4046674851486,149.58529833748946L365.2756547942795,149.89136857102574L365.10363787312076,150.14638540551863L364.93162095196203,150.2483815335019L364.71659980051345,150.19738422683542L364.63059133993397,149.7893512265241L364.5445828793547,149.5342813221983L364.20054903703726,149.2791734758835L364.1575448067472,148.97299393582443L364.02853211587853,148.66675966689394L363.8995194250092,148.51362199333403L363.7705067341401,148.46257305776152L363.46947712211227,148.36047061863252L363.59848981298137,148.15624746189638L363.8135109644297,148.0541267405453L364.02853211587853,147.84986700251892L364.20054903703726,147.59450800693588L364.32956172790614,147.7987982551212L364.50157864906487,147.59450800693588L364.63059133993397,147.3391108473021L364.63059133993397,146.93039593752974L364.58758710964435,146.67489941420388L364.372565958196,146.41936462126944L364.32956172790614,146.16379152936082L364.372565958196,145.85705322305193L364.32956172790614,145.6525303310696L364.372565958196,145.19226397514984L364.4155701884856,144.6295470526925L364.50157864906487,144.06664376577618L364.6735955702238,143.40115372525014L364.6735955702238,143.0427047560496L364.58758710964435,142.88906056098722L364.4155701884856,142.7866233567861L364.1575448067472,142.8378427331274L363.94252365529906,142.88906056098722L363.59848981298137,143.0427047560496L363.3404644312434,143.1963350233117L363.08243904950496,143.29874746697897L362.824413667767,143.29874746697897L362.652396746608,143.1963350233117L362.4803798254493,143.09391639235463L362.5233840557389,142.8378427331274L362.7814094374771,142.47927456734618L362.9534263586361,142.12063044461178L363.1254432797948,141.8131606792951L363.4264728918224,141.40311400248993L363.7275025038505,141.04424152002503L364.02853211587853,140.78785733336986L364.4155701884856,140.48014489311845L364.5445828793547,140.42885402983194L364.71659980051345,140.32626762404828L364.84561249138255,140.1723763137624Z"></path>
<circle class="distCircs" cx="396.8261934947856" cy="132.4745833394216" r="2.635951519678156" stroke="#000" stroke-width="0.25" fill="#a1d591" data-q="HARYANA" data-r="AMBALA"><title>HARYANA - AMBALA: Census 2011 Total Rural Households = 112,525. Census 2011 Households with toilets = 57,554. Census 2001 Total Rural Households = 110,206. Census 2001 Households with toilets = 33,638. Difference between Census 2011 Households with toilets and Census 2001 Households with toilets = 20.6%</title></circle><circle class="distCircs" cx="386.08812297436714" cy="157.5578061743568" r="2.8132570364552985" stroke="#000" stroke-width="0.25" fill="#95cf8c" data-q="HARYANA" data-r="BHIWANI"><title>HARYANA - BHIWANI: Census 2011 Total Rural Households = 245,761. Census 2011 Households with toilets = 120,948. Census 2001 Total Rural Households = 191,911. Census 2001 Households with toilets = 50,032. Difference between Census 2011 Households with toilets and Census 2001 Households with toilets = 23.1%</title></circle><circle class="distCircs" cx="404.64426661567296" cy="165.34314475586757" r="2.502469411610722" stroke="#000" stroke-width="0.25" fill="#5eb671" data-q="HARYANA" data-r="FARIDABAD"><title>HARYANA - FARIDABAD: Census 2011 Total Rural Households = 60,315. Census 2011 Households with toilets = 35,332. Census 2001 Total Rural Households = 140,576. Census 2001 Households with toilets = 32,781. Difference between Census 2011 Households with toilets and Census 2001 Households with toilets = 35.3%</title></circle><circle class="distCircs" cx="376.25721375164835" cy="146.21024920244366" r="2.68639458888759" stroke="#000" stroke-width="0.25" fill="#6ebe79" data-q="HARYANA" data-r="FATEHABAD"><title>HARYANA - FATEHABAD: Census 2011 Total Rural Households = 141,266. Census 2011 Households with toilets = 102,915. Census 2001 Total Rural Households = 111,765. Census 2001 Households with toilets = 46,019. Difference between Census 2011 Households with toilets and Census 2001 Households with toilets = 31.7%</title></circle><circle class="distCircs" cx="398.99264378422197" cy="164.5396571990924" r="2.5825311506649795" stroke="#000" stroke-width="0.25" fill="#1a9850" data-q="HARYANA" data-r="GURGAON"><title>HARYANA - GURGAON: Census 2011 Total Rural Households = 88,013. Census 2011 Households with toilets = 98,619. Census 2001 Total Rural Households = 195,906. Census 2001 Households with toilets = 53,862. Difference between Census 2011 Households with toilets and Census 2001 Households with toilets = 84.6%</title></circle><circle class="distCircs" cx="380.13730524196876" cy="151.99607852833407" r="2.7884997367510764" stroke="#000" stroke-width="0.25" fill="#72bf7b" data-q="HARYANA" data-r="HISAR"><title>HARYANA - HISAR: Census 2011 Total Rural Households = 221,028. Census 2011 Households with toilets = 138,093. Census 2001 Total Rural Households = 186,142. Census 2001 Households with toilets = 58,862. Difference between Census 2011 Households with toilets and Census 2001 Households with toilets = 30.9%</title></circle><circle class="distCircs" cx="393.6111364107345" cy="160.73756892259172" r="2.6751642087212173" stroke="#000" stroke-width="0.25" fill="#49ad67" data-q="HARYANA" data-r="JHAJJAR"><title>HARYANA - JHAJJAR: Census 2011 Total Rural Households = 134,340. Census 2011 Households with toilets = 78,550. Census 2001 Total Rural Households = 112,505. Census 2001 Households with toilets = 21,036. Difference between Census 2011 Households with toilets and Census 2001 Households with toilets = 39.8%</title></circle><circle class="distCircs" cx="388.7349620208279" cy="149.3352830753209" r="2.7499927615406894" stroke="#000" stroke-width="0.25" fill="#56b36d" data-q="HARYANA" data-r="JIND"><title>HARYANA - JIND: Census 2011 Total Rural Households = 187,059. Census 2011 Households with toilets = 96,049. Census 2001 Total Rural Households = 160,241. Census 2001 Households with toilets = 23,244. Difference between Census 2011 Households with toilets and Census 2001 Households with toilets = 36.8%</title></circle><circle class="distCircs" cx="389.927976294775" cy="141.73088414407124" r="2.706426148115697" stroke="#000" stroke-width="0.25" fill="#60b872" data-q="HARYANA" data-r="KAITHAL"><title>HARYANA - KAITHAL: Census 2011 Total Rural Households = 154,438. Census 2011 Households with toilets = 89,039. Census 2001 Total Rural Households = 130,047. Census 2001 Households with toilets = 29,966. Difference between Census 2011 Households with toilets and Census 2001 Households with toilets = 34.6%</title></circle><circle class="distCircs" cx="398.47023966783473" cy="143.47414059034747" r="2.7583584597274733" stroke="#000" stroke-width="0.25" fill="#4eaf69" data-q="HARYANA" data-r="KARNAL"><title>HARYANA - KARNAL: Census 2011 Total Rural Households = 194,003. Census 2011 Households with toilets = 133,025. Census 2001 Total Rural Households = 155,619. Census 2001 Households with toilets = 46,558. Difference between Census 2011 Households with toilets and Census 2001 Households with toilets = 38.7%</title></circle><circle class="distCircs" cx="395.4042194249023" cy="138.96591083532718" r="2.661301107231448" stroke="#000" stroke-width="0.25" fill="#55b36d" data-q="HARYANA" data-r="KURUKSHETRA"><title>HARYANA - KURUKSHETRA: Census 2011 Total Rural Households = 126,220. Census 2011 Households with toilets = 87,171. Census 2001 Total Rural Households = 99,287. Census 2001 Households with toilets = 31,754. Difference between Census 2011 Households with toilets and Census 2001 Households with toilets = 37.1%</title></circle><circle class="distCircs" cx="386.4076674169517" cy="166.08657588981885" r="2.692604748943189" stroke="#000" stroke-width="0.25" fill="#a0d491" data-q="HARYANA" data-r="MAHENDRAGARH"><title>HARYANA - MAHENDRAGARH: Census 2011 Total Rural Households = 145,235. Census 2011 Households with toilets = 56,620. Census 2001 Total Rural Households = 115,120. Census 2001 Households with toilets = 20,940. Difference between Census 2011 Households with toilets and Census 2001 Households with toilets = 20.8%</title></circle><circle class="distCircs" cx="401.5334742024261" cy="170.7416896547673" r="2.6799638130097825" stroke="#000" stroke-width="0.25" fill="#eee" data-q="HARYANA" data-r="MEWAT"><title>HARYANA - MEWAT: Census 2011 Total Rural Households = 137,261. Census 2011 Households with toilets = 24,448. Census 2001 Total Rural Households = NaN. Census 2001 Households with toilets = 0. Difference between Census 2011 Households with toilets and Census 2001 Households with toilets = NaN%</title></circle><circle class="distCircs" cx="399.48284031521916" cy="125.86629123849957" r="2.43123777462958" stroke="#000" stroke-width="0.25" fill="#bae09e" data-q="HARYANA" data-r="PANCHKULA"><title>HARYANA - PANCHKULA: Census 2011 Total Rural Households = 42,651. Census 2011 Households with toilets = 18,786. Census 2001 Total Rural Households = 40,804. Census 2001 Households with toilets = 11,832. Difference between Census 2011 Households with toilets and Census 2001 Households with toilets = 15.0%</title></circle><circle class="distCircs" cx="398.1742942783287" cy="148.1709741031197" r="2.6405856852575846" stroke="#000" stroke-width="0.25" fill="#55b36d" data-q="HARYANA" data-r="PANIPAT"><title>HARYANA - PANIPAT: Census 2011 Total Rural Households = 114,922. Census 2011 Households with toilets = 76,682. Census 2001 Total Rural Households = 93,517. Census 2001 Households with toilets = 27,729. Difference between Census 2011 Households with toilets and Census 2001 Households with toilets = 37.1%</title></circle><circle class="distCircs" cx="392.9950440680743" cy="167.2619878902816" r="2.6613731356368406" stroke="#000" stroke-width="0.25" fill="#8ecc88" data-q="HARYANA" data-r="REWARI"><title>HARYANA - REWARI: Census 2011 Total Rural Households = 126,261. Census 2011 Households with toilets = 62,816. Census 2001 Total Rural Households = 108,821. Census 2001 Households with toilets = 27,389. Difference between Census 2011 Households with toilets and Census 2001 Households with toilets = 24.6%</title></circle><circle class="distCircs" cx="392.7017066679644" cy="156.07555190144524" r="2.6417013129033937" stroke="#000" stroke-width="0.25" fill="#67bb75" data-q="HARYANA" data-r="ROHTAK"><title>HARYANA - ROHTAK: Census 2011 Total Rural Households = 115,506. Census 2011 Households with toilets = 67,496. Census 2001 Total Rural Households = 103,997. Census 2001 Households with toilets = 26,309. Difference between Census 2011 Households with toilets and Census 2001 Households with toilets = 33.1%</title></circle><circle class="distCircs" cx="369.9516588909473" cy="145.8947738887071" r="2.739649890048934" stroke="#000" stroke-width="0.25" fill="#aedb98" data-q="HARYANA" data-r="SIRSA"><title>HARYANA - SIRSA: Census 2011 Total Rural Households = 178,789. Census 2011 Households with toilets = 156,480. Census 2001 Total Rural Households = 134,559. Census 2001 Households with toilets = 93,970. Difference between Census 2011 Households with toilets and Census 2001 Households with toilets = 17.7%</title></circle><circle class="distCircs" cx="398.48484729819194" cy="153.91191479114593" r="2.7415541834201687" stroke="#000" stroke-width="0.25" fill="#76c17c" data-q="HARYANA" data-r="SONIPAT"><title>HARYANA - SONIPAT: Census 2011 Total Rural Households = 180,286. Census 2011 Households with toilets = 101,337. Census 2001 Total Rural Households = 158,373. Census 2001 Households with toilets = 41,480. Difference between Census 2011 Households with toilets and Census 2001 Households with toilets = 30.0%</title></circle><circle class="distCircs" cx="399.8761193366748" cy="137.9579194760363" r="2.672945388540768" stroke="#000" stroke-width="0.25" fill="#9ed390" data-q="HARYANA" data-r="YAMUNANAGAR"><title>HARYANA - YAMUNANAGAR: Census 2011 Total Rural Households = 133,009. Census 2011 Households with toilets = 61,199. Census 2001 Total Rural Households = 105,067. Census 2001 Households with toilets = 26,112. Difference between Census 2011 Households with toilets and Census 2001 Households with toilets = 21.2%</title></circle></g></g></svg>