<?xml version="1.0" standalone="no"?><!DOCTYPE svg PUBLIC "-//W3C//DTD SVG 1.1//EN" "http://www.w3.org/Graphics/SVG/1.1/DTD/svg11.dtd"><svg id="chart" width="960" height="500" class="dorlingCart" data-type="dorlingCart" version="1.1" xmlns:xlink="http://www.w3.org/1999/xlink" xmlns="http://www.w3.org/2000/svg"><defs class="svg-crowbar"><style type="text/css"><![CDATA[.feature{ fill: #fcfcfc; stroke: #000000; stroke-width: 0.2px; cursor: pointer; }]]></style></defs>
<g><g transform="translate(-1131.8037109375,-170.89385986328125)scale(4,4)">
<path class="feature" data-q="HIMACHAL PRADESH" d="M381.7892792255225,94.92420408570416L382.13331306784016,94.50213725774802L382.39133844957837,94.18551225933271L382.4773469101576,93.76324564795948L382.6493638313166,93.76324564795948L382.86438498276493,93.76324564795948L382.99339767363404,93.81603522513149L383.165414594793,93.81603522513149L383.25142305537247,93.81603522513149L383.4234399765312,93.71045428405341L383.38043574624135,93.55206946923823L383.38043574624135,93.28805901808721L383.3374315159515,93.0768184539807L383.25142305537247,92.97118743160979L383.165414594793,92.86554924615558L382.99339767363404,92.70707853247603L382.9503934433444,92.54859168973172L382.9503934433444,92.2844110896836L382.99339767363404,91.96733515554831L383.165414594793,91.59733151503053L383.2944272856621,91.2801154272504L383.2944272856621,91.06860205080255L383.25142305537247,90.80416981712898L383.165414594793,90.48679167279869L383.0794061342135,90.32807825740969L382.9073892130548,90.11643510894987L382.6923680616062,89.90476307454247L382.39133844957837,89.53426745525485L382.13331306784016,89.3754564984618L381.7892792255225,88.89892590325366L381.7892792255225,88.6870874371777L381.9182919163916,88.42224856648829L381.9182919163916,88.26332347734365L382.13331306784016,88.10438205415375L382.4343426798682,87.99841202725327L382.5633553707373,87.99841202725327L382.7783765221857,87.99841202725327L382.99339767363404,88.05139794869575L383.3374315159515,88.26332347734365L383.5524526674001,88.47521996768774L383.6814653582692,88.58115732894913L383.76747381884866,88.6870874371777L383.85348227942814,88.79301029455269L384.02549920058686,88.79301029455269L384.15451189145597,88.6870874371777L384.2405203520352,88.6341232895561L384.3695330429043,88.58115732894913L384.5845541943529,88.47521996768774L384.6705626549324,88.42224856648829L385.05760072753947,88.21034481820448L385.4446388001468,87.78645017617191L385.96068956362296,87.15039008737574L386.2187149453614,86.72620440694698L386.30472340594065,86.62013976412175L386.3907318665201,86.51406782782874L386.51974455738923,86.4079885958754L386.82077416941706,86.19580823621914L386.90678262999654,86.1427585830919L387.07879955115527,86.08970710413041L387.29382070260385,86.08970710413041L387.3798291631831,85.93054170949995L387.4228333934725,85.93054170949995L387.5948503146317,85.98359866760893L387.72386300550056,85.98359866760893L387.85287569636967,85.98359866760893L388.0248926175286,85.93054170949995L388.1109010781079,85.87748292445895L388.239913768977,85.77135987248698L388.45493492042533,85.77135987248698L388.58394761129443,85.66522950949548L388.71296030216354,85.55909183328902L388.798968762743,85.45294684166981L388.798968762743,85.24063490340075L388.798968762743,85.0813817303897L388.798968762743,84.97520379220646L388.8849772233225,84.70972688408108L388.9279814536121,84.55041874237008L388.97098568390174,84.44420414462502L389.09999837477085,84.33798220835922L389.1860068353503,84.2317529313674L389.2720152959296,84.12551631144629L389.4010279867987,84.07239524719739L389.57304490795764,83.96614760874422L389.788066059406,83.85989262184648L389.87407451998547,83.80676237204023L389.96008298056495,83.7004963583355L390.2181083623029,83.4347991456466L390.3041168228824,83.38165418459857L390.39012528346166,83.27535874178045L390.4331295137515,83.16905593616002L390.51913797433076,83.16905593616002L390.6481506652001,83.11590177160735L390.8201675863588,83.11590177160735L390.99218450751755,83.16905593616002L391.0781929680968,83.22220825945897L391.25020988925576,83.22220825945897L391.46523104070434,83.22220825945897L391.63724796186307,83.22220825945897L391.8092648830218,83.16905593616002L391.9382775738907,83.06274576552482L392.0672902647598,82.95642822766365L392.15329872533925,82.85010332036438L392.28231141620836,82.85010332036438L392.4543283373671,82.7969381024833L392.7123537191053,82.7969381024833L392.9273748705539,82.74377104141274L393.0993917917126,82.74377104141274L393.2284044825817,82.85010332036438L393.3574171734506,82.95642822766365L393.4864298643197,83.06274576552482L393.615442555189,83.27535874178045L393.7444552460581,83.38165418459857L394.00248062779633,83.48794226682332L394.13149331866543,83.54108354840457L394.30351023982394,83.48794226682332L394.43252293069327,83.4347991456466L394.56153562156214,83.32850738340142L394.7335525427211,83.32850738340142L394.9055694638796,83.32850738340142L395.1205906153284,83.32850738340142L395.3786159970664,83.16905593616002L395.55063291822535,82.90326669533215L395.7226498393841,82.74377104141274L395.7656540696737,82.63743138859638L395.8516625302532,82.53108435969978L395.8946667605428,82.37154998136032L395.93767099083243,82.26518450257322L396.06668368170153,82.10562243900984L396.152692142281,81.9992384964778L396.32470906343974,81.9992384964778L396.45372175430884,82.05243139127742L396.6257386754676,82.05243139127742L396.7977555966263,82.05243139127742L396.9267682874954,82.05243139127742L396.9267682874954,82.21199899438056L396.8837640572058,82.31836816480734L396.7977555966263,82.37154998136032L396.6687429057572,82.53108435969978L396.58273444517795,82.6906021368759L396.4967259845987,83.59422299066637L396.71174713604705,83.85989262184648L396.7977555966263,83.96614760874422L396.9267682874954,84.07239524719739L397.05578097836474,84.12551631144629L397.1847936692336,84.2317529313674L397.3998148206822,84.49731236067521L397.52882751155107,84.70972688408108L397.70084443271,84.86901852651386L397.74384866299965,84.97520379220646L397.7868528932895,85.13446795235382L397.82985712357913,85.39987160189366L398.13088673560696,85.66522950949548L398.3459078870553,85.82442231221319L398.5179248082143,85.98359866760893L398.6469374990834,86.08970710413041L398.8189544202421,86.19580823621914L398.99097134140106,86.30190206606994L399.29200095342867,86.4079885958754L399.4640178745874,86.4079885958754L399.6790390260362,86.56710470779547L399.8080517169051,86.67317299708122L399.9800686380638,86.77923399399322L400.28109825009165,86.9383118209555L400.4531151712506,87.0973732523994L400.5821278621197,87.20340510172286L400.7111405529888,87.15039008737574L400.8831574741473,86.99133411946298L401.0121701650164,86.88528770072423L401.3562040073341,86.9383118209555L401.4852166982032,87.0973732523994L401.52822092849306,87.30942966962095L401.74324207994164,87.62745970663991L401.78624631023104,87.83944336428442L401.78624631023104,88.10438205415375L401.8722547708105,88.15736434389913L402.0012674616796,88.05139794869575L402.17328438283835,87.9454242895523L402.3883055342869,87.99841202725327L402.56032245544566,88.15736434389913L402.68933514631476,88.26332347734365L402.8613520674735,88.36927535121322L402.94736052805274,88.52818955508354L402.9903647583426,88.6870874371777L403.0333689886322,88.8459690048515L403.2053859097912,88.95188099003178L403.46341129152916,89.05778572980654L403.97946205500557,89.16368322635117L404.1084747458747,89.3754564984618L404.2374874367438,89.5872008237713L404.4095043579025,89.74599008188301L404.6245255093511,89.79891621967982L404.83954666079944,89.5872008237713L404.88255089108907,89.21662925909374L404.9255551213789,88.95188099003178L405.3986016545655,88.6870874371777L405.5706185757242,88.7400497720858L405.87164818775204,88.8459690048515L406.21568203006973,88.8459690048515L406.4737074118077,88.6870874371777L406.6887285632565,88.47521996768774L406.98975817528435,88.47521996768774L407.0757666358636,88.58115732894913L407.20477932673293,88.58115732894913L407.37679624789166,88.42224856648829L407.5488131690504,88.21034481820448L407.80683855078837,88.15736434389913L408.0648639325268,87.89243473532065L408.15087239310606,87.68045834762233L408.3228893142648,87.57445924748743L408.6239189262926,87.57445924748743L408.8819443080308,87.52145696989271L409.05396122918955,87.36243922372L409.31198661092776,87.15039008737574L409.44099930179686,86.9383118209555L409.6990246835351,86.9383118209555L409.871041604694,87.04435459651972L410.129066986432,87.15039008737574L410.4731008287497,87.41544695828247L410.90314313164663,87.68045834762233L411.07516005280536,87.99841202725327L411.07516005280536,88.10438205415375L411.07516005280536,88.42224856648829L410.94614736193626,88.58115732894913L410.94614736193626,88.8459690048515L410.9891515922259,89.05778572980654L411.20417274367446,89.21662925909374L411.41919389512304,89.26957348184465L411.7632277374405,89.32251589487612L411.8922404283096,89.4283952928717L412.1072615797582,89.5872008237713L412.06425734946833,89.85184055047563L412.32228273120654,90.01060270357544L412.36528696149617,90.22226029283775L412.49429965236527,90.32807825740969L412.70932080381385,90.4338890048366L412.96734618555206,90.59259159857459L413.0103504158417,90.75127796593802L413.0103504158417,90.96283456070631L412.96734618555206,91.2801154272504L412.8813377249726,91.65019456916139L412.92434195526243,92.07303431429631L413.1393631067108,92.2844110896836L413.39738848844877,92.44292483038186L413.7844265610561,92.81272746659772L414.0424519427945,93.02400383804638L414.386485785112,93.0768184539807L414.5585027062707,92.9183692344032L414.73051962742966,92.81272746659772L414.945540778878,92.86554924615558L415.2035661606162,92.9183692344032L415.5476000029339,92.9183692344032L415.76262115438226,92.81272746659772L415.934638075541,92.54859168973172L416.2786719178587,92.33725079716618L416.3646803784379,92.17872629162179L416.5797015298863,92.12588120050185L416.751718451045,92.17872629162179L416.92373537220396,92.33725079716618L417.26776921452165,92.44292483038186L417.6118030568391,92.44292483038186L417.9988411294464,92.39008871064249L418.1708580506054,92.17872629162179L418.471887662633,92.12588120050185L418.8589257352403,92.07303431429631L419.0739468866889,92.02018563273526L419.1169511169785,91.80877294753242L419.1169511169785,91.54446666311225L419.2889680381372,91.38586131793164L419.5039891895858,91.38586131793164L419.71901034103416,91.22723978293004L419.84802303190327,91.2801154272504L419.9340314924825,91.65019456916139L420.020039953062,91.96733515554831L420.020039953062,92.23156958792549L420.1060484136417,93.12963127968254L420.1490526439311,93.28805901808721L420.0630441833516,93.49927095570473L419.84802303190327,93.55206946923823L419.54699341987543,93.65766113314396L419.33197226842685,93.81603522513149L419.1169511169785,94.18551225933271L418.9879384261094,94.34383278555117L418.8589257352403,94.55490184883922L418.81592150495067,94.8714519679288L418.6439045837917,95.13519475118272L418.6009003535021,95.39889304047654L418.6009003535021,95.55709067087508L418.6009003535021,95.82071783943684L418.7299130443712,96.18972127916328L418.81592150495067,96.4532419270675L419.030942656399,96.4532419270675L419.0739468866889,96.18972127916328L419.1599553472681,96.03158759964924L419.2889680381372,96.03158759964924L419.54699341987543,95.7679959593533L419.71901034103416,95.50435990538284L419.9340314924825,95.29341906189165L420.2350611045106,95.08244975512031L420.57909494682804,95.18793796748713L420.83712032856647,95.34615694052764L420.9231287891455,95.55709067087508L420.83712032856647,95.7679959593533L420.75111186798676,96.03158759964924L420.79411609827685,96.2951348596821L420.88012455885587,96.40054134470256L420.9231287891455,96.50594073635875L421.0521414800148,96.6113330367869L421.3101668617528,96.6113330367869L421.65420070407026,96.6113330367869L421.8262176252292,96.71671824812245L421.8262176252292,96.92746741204849L421.48218378291153,97.19086402880743L421.3101668617528,97.50688158360236L421.1381499405941,97.82283549964654L421.0521414800148,98.0860818582118L421.0521414800148,98.34928409634534L421.09514571030445,98.82293704748906L421.009137249725,99.40165250842364L420.83712032856647,99.71722579719244L420.79411609827685,99.92757285425972L420.88012455885587,100.03273584851081L421.7832133949396,99.92757285425972L422.1702514675469,99.71722579719244L422.3852726189955,99.76981519569074L422.557289540154,99.87498872396066L422.72930646131294,100.13789182272762L422.8583191521818,100.45331764632289L422.8153149218922,100.82123468782964L422.72930646131294,101.1890659280665L422.8583191521818,101.55681145750287L423.11634453392026,101.8194344097401L423.4173741459481,102.18703321660246L423.63239529739644,102.3445493941789L423.847416448845,102.50204988107657L424.01943337000375,102.76451584366697L424.1914502911625,103.07941753852282L424.3634672123212,103.3417877725177L424.5784883637698,103.55165266655564L424.7935095152184,103.76148976262562L424.9655264363769,103.86639789166213L425.00853066666696,103.97129907749132L425.13754335753583,104.23352167928022L425.26655604840494,104.49570093182098L425.30956027869456,104.86267912086618L425.30956027869456,105.1771643484148L425.30956027869456,105.43918781411554L425.13754335753583,105.75355895302175L425.00853066666696,106.22499914696192L424.87951797579785,106.48685001168514L424.7075010546389,106.8010142012593L424.5784883637698,107.1151164277519L424.4494756729007,107.4291567472589L424.40647144261106,107.58615370941072L424.4494756729007,107.7431352158315L424.4494756729007,107.95241986090826L424.6214925940594,108.26629536902283L424.66449682434927,108.47551142559962L424.7075010546389,108.73699295799457L424.7935095152184,108.99843170019557L424.7935095152184,109.20755190672463L424.87951797579785,109.41664476473369L425.05153489695635,109.52118094320645L425.13754335753583,109.57344647071221L425.52458143014314,109.67797240355452L425.65359412101225,109.78249150855663L425.7826068118811,110.04375941279426L425.8686152724606,110.2004996914057L425.9546237330401,110.304984688135L426.04063219361956,110.46169940486277L426.21264911477806,110.82730748088147L426.2556533450679,110.98397113174701L426.21264911477806,111.19283219343214L425.9976279633297,111.34946014408712L425.7826068118811,111.55827363066516L425.52458143014314,111.76705995406218L425.18054758782546,111.87144293469845L425.00853066666696,112.02800468509605L424.87951797579785,112.13237070798164L424.7075010546389,112.28890703136568L424.6214925940594,112.3932561093145L424.5784883637698,112.60193394409481L424.6214925940594,112.8105846977059L424.7075010546389,112.96705500074773L424.7935095152184,113.07136008177218L424.9655264363769,113.1756584017117L425.2235518181153,113.22780502691472L425.3525645089844,113.22780502691472L425.56758566043277,113.33209320906235L425.6965983513021,113.59278411152133L425.7826068118811,113.80130645306235L425.8686152724606,113.95768049802268L425.825611042171,114.16615562280492L425.6965983513021,114.37460378902375L425.6965983513021,114.58302501299028L425.7396025815917,114.79141931100446L425.9976279633297,114.89560636787252L426.4706744965165,114.94769737416158L426.55668295709575,115.1560445909609L426.55668295709575,115.46851501905616L426.5136787268061,115.72886088006948L426.5136787268061,116.04122056590228L426.6426914176752,116.19737778269729L426.8577125691236,116.35351992454298L427.02972949028253,116.56168600891482L427.115737950862,116.71779300249636L427.15874218115164,116.8738849439365L427.2447506417309,116.97793787930556L427.33075910231037,116.97793787930556L427.5027760234691,116.97793787930556L427.4167675628896,117.2380409762564L427.5027760234691,117.49810232497333L427.9758225566559,118.12207941817303L428.2338479383941,118.38199905916588L428.5348775504217,118.58990481172623L428.663890241291,118.84974957860578L428.6208860110012,119.10955279285594L428.4488690898422,119.47320754431075L428.2768521686835,119.62903468934223L428.0188267869455,119.78484690939695L427.6747929446278,119.78484690939695L427.45977179317947,119.78484690939695L427.33075910231037,119.83678100059274L427.02972949028253,119.78484690939695L426.7717041085443,119.62903468934223L426.55668295709575,119.42126184479923L426.38466603593724,119.21346245087108L426.0836364239092,118.84974957860578L426.04063219361956,118.6938477068087L425.9976279633297,118.53793086926362L425.6105898907226,118.22605226970785L425.18054758782546,118.17406667663198L424.836513745508,118.17406667663198L424.3204629820316,118.22605226970785L423.9334249094243,118.07009049407986L423.7614079882658,117.9141137254694L423.4603783762377,117.75812195706027L423.3313656853686,117.60211518203431L423.07334030363063,117.49810232497333L422.6863022310231,117.60211518203431L422.557289540154,117.75812195706027L422.3422683887054,118.01809990410004L421.99823454638795,118.12207941817303L421.61119647378064,118.07009049407986L421.35317109204266,118.01809990410004L421.22415840117355,117.96610764798072L421.09514571030445,117.81012088026176L421.009137249725,117.55010958770993L421.009137249725,117.3420705237607L420.57909494682804,117.18602369773623L420.4070780256693,117.2380409762564L420.1060484136417,117.2380409762564L419.8910272621929,117.02996184007196L419.80501880161364,116.8738849439365L419.67600611074454,116.66575901076664L419.6330018804549,116.61372334632398L419.3749764987165,116.5096469982854L418.9879384261094,116.61372334632398L418.6439045837917,116.82185596882772L418.3428749717639,116.97793787930556L417.9988411294464,117.08198412989748L417.7408157477082,117.3940827932517L417.43978613568015,117.6541191081999L417.13875652365255,117.75812195706027L416.7087142207554,117.75812195706027L416.2786719178587,117.70612136645718L415.9776423058306,117.75812195706027L415.8056253846719,118.07009049407986L415.63360846351316,118.27803619765473L415.28957462119547,118.27803619765473L414.945540778878,118.12207941817303L414.6875153971398,118.38199905916588L414.6015069365603,118.7458166599323L414.25747309424287,118.90171354465883L413.95644348221504,118.64187709082387L413.6554138701872,118.33001846072312L413.4403927187386,118.53793086926362L412.96734618555206,118.6938477068087L412.666316573524,118.58990481172623L412.36528696149617,119.0056364914563L412.0212531191787,119.36931448595072L411.7632277374405,119.78484690939695L411.8062319677301,119.99257333123211L411.84923619801975,120.35603080108831L411.46219812541267,120.56368437241503L411.1611685133846,120.51177346092777L411.03215582251573,120.51177346092777L410.94614736193626,120.71940718501105L411.03215582251573,120.92701446014456L411.20417274367446,121.18648638465936L411.29018120425394,121.44591703905672L411.29018120425394,121.60155563505566L411.41919389512304,121.75717939182925L411.5052023557023,121.96465466262572L411.41919389512304,122.1721035805777L411.29018120425394,122.12024382079483L411.03215582251573,122.01651936206855L410.7741304407773,121.86092032233267L410.43009659845984,122.01651936206855L410.43009659845984,122.1721035805777L410.4731008287497,122.53507582354655L410.5591092893292,122.74245235358848L410.9891515922259,122.79429237720541L411.1611685133846,122.89796749551022L411.20417274367446,123.05346785438962L411.1611685133846,123.20895343695526L410.9891515922259,123.36442424993413L411.03215582251573,123.51988030005032L411.07516005280536,123.67532159402492L411.07516005280536,123.88255371027316L410.81713467106715,123.83074813857735L410.5591092893292,123.57169570394802L410.4731008287497,123.62350946852308L410.30108390759074,123.88255371027316L410.2580796773011,124.14155700627487L410.129066986432,124.45230695684057L409.9140458349834,124.7112202815452L409.7420289138247,125.02186235668779L409.7420289138247,125.22892442279851L409.8280373744042,125.48771530134098L410.04305852585253,125.69471866022167L410.30108390759074,125.95343620487517L410.4731008287497,126.2121130517894L410.5161050590393,126.41902524772024L410.5161050590393,126.72934477601558L410.3870923681702,127.14301320092574L410.3440881378806,127.40150323603496L410.43009659845984,127.65995274623668L410.4731008287497,127.81500301321341L410.3870923681702,127.97003870895867L410.2150754470115,128.17673031507832L410.2150754470115,128.33173203712414L410.7741304407773,128.6416918405854L411.07516005280536,128.6933461535781L411.33318543454357,128.95159350077643L411.33318543454357,129.20980050754144L411.20417274367446,129.41633708845683L410.90314313164663,129.57122260348717L410.6881219801983,129.72609362245436L410.43009659845984,129.9841797918928L410.129066986432,130.1390121870284L409.8280373744042,130.39703402259312L409.6130162229558,130.65501568924958L409.2259781503483,130.86137212150135L408.3658935445544,131.06770288085255L408.15087239310606,131.32558025133915L407.67782585991927,131.53185330380546L407.50580893876054,131.37715091738414L406.98975817528435,131.06770288085255L406.8177412541254,131.06770288085255L406.6027201026768,131.22243411192926L406.38769895122846,131.22243411192926L406.38769895122846,131.0161225969942L406.3016904906492,130.75819711546495L406.043665108911,130.8097854208831L405.82864395746265,130.96454070931208L405.6566270363037,131.11928156113186L405.3986016545655,131.27400798293604L405.1405762728273,131.17085863807608L405.01156358195817,131.06770288085255L404.7535382002202,130.9129572175629L404.5385170487716,130.70660720500211L404.1514789761643,130.70660720500211L403.8934535944263,130.65501568924958L403.6354282126879,130.65501568924958L403.46341129152916,130.55182784089936L403.0763732189221,130.29383011034815L402.81834783718386,130.1390121870284L402.6033266857353,129.9841797918928L402.4313097645763,129.82933291833064L402.216288613128,129.6744715597302L401.78624631023104,129.51959570947741L401.4852166982032,129.36470536095447L401.3131997770445,129.26143707074283L401.14118285588575,128.95159350077643L401.3131997770445,128.7449988517257L401.57122515878245,128.6416918405854L401.61422938907253,128.48671921008088L401.52822092849306,128.22839917273564L401.4422124679136,128.02171403730443L401.4422124679136,127.71163778799826L401.4852166982032,127.34980847199154L401.39920823762395,127.09131032820295L401.27019554675485,126.62591143269606L401.0121701650164,126.2121130517894L400.75414478327843,125.95343620487517L400.4961194015402,125.79821056379075L400.1090813289329,125.64297026484019L399.8080517169051,125.53946858564763L399.72204325632583,125.22892442279851L399.72204325632583,125.02186235668779L399.63603479574635,124.76299804392698L399.5500263351669,124.60765985496664L399.37800941400815,124.76299804392698L399.1629882625598,124.81477417270207L398.9479671111112,124.7112202815452L398.6039332687935,124.34873018302022L398.08788250531734,124.19335275472105L397.7868528932895,124.19335275472105L397.52882751155107,124.29693934284495L397.1847936692336,124.29693934284495L396.9267682874954,124.19335275472105L396.8407598269159,124.14155700627487L396.58273444517795,124.0379605993748L396.4967259845987,123.77894092880337L396.32470906343974,123.26077868201457L396.0236794514119,122.94980259069854L395.8946667605428,122.79429237720541L395.80865829996355,122.69061068666389L395.55063291822535,122.43137769368656L395.33561176677676,122.22396169430777L394.7335525427211,121.75717939182925L394.26050600953454,121.13459530236736L394.0884890883758,120.97891214815934L393.9594763975065,120.51177346092777L393.9594763975065,120.25219408753998L394.04548485808573,119.94064421125933L394.21750177924446,119.73291116062416L394.30351023982394,119.5770939663314L394.13149331866543,119.26541478923826L393.9594763975065,119.05759547270497L393.8734679369272,118.79778395044775L393.91647216721685,118.58990481172623L394.04548485808573,118.33001846072312L394.13149331866543,118.12207941817303L394.30351023982394,117.3940827932517L394.17449754895483,116.82185596882772L394.13149331866543,116.82185596882772L393.9594763975065,116.8738849439365L393.78745947634775,116.92591224734412L393.65844678547865,116.8738849439365L393.4864298643197,116.76982532176532L393.3574171734506,116.76982532176532L393.14239602200223,116.82185596882772L393.14239602200223,116.97793787930556L393.0993917917126,117.2380409762564L393.0993917917126,117.44609339357157L393.0133833311331,117.60211518203431L392.88437064026425,117.60211518203431L392.5833410282362,117.6541191081999L392.49733256765694,117.49810232497333L392.4543283373671,117.1340047490342L392.41132410707746,116.97793787930556L392.3253156464982,116.76982532176532L392.23930718591873,116.56168600891482L391.89527334360105,116.30147421849966L391.5512395012836,116.14532705243141L391.12119719838665,115.41644081222552L390.7341591257791,114.8435136802376L390.7771633560692,114.58302501299028L390.5621422046206,114.32249427394225L390.4331295137515,114.11403936961176L390.4331295137515,113.95768049802268L390.39012528346166,113.80130645306235L390.2181083623029,113.69704865670332L390.046091441144,113.80130645306235L389.788066059406,114.00980180747598L389.70205759882674,114.21827019108787L389.57304490795764,114.58302501299028L389.35802375650906,114.89560636787252L389.35802375650906,115.1560445909609L389.22901106563995,115.5205875473385L389.0569941444812,115.78092501942268L388.84197299303287,115.88504826731008L388.4119306901357,116.14532705243141L388.19690953868735,116.24942683796837L387.8958799266593,116.35351992454298L387.5948503146317,116.45760631418256L387.3368249328935,116.5096469982854L387.0357953208654,116.45760631418256L386.56274878767886,116.35351992454298L386.17571071507155,115.98916480913192L386.3477276362303,115.57265839732725L386.6057530179687,115.31228736190411L386.82077416941706,115.1560445909609L387.07879955115527,114.73932325991802L387.07879955115527,114.47881776776939L387.07879955115527,114.21827019108787L386.8637783997067,113.80130645306235L386.6057530179687,113.38423476651894L386.51974455738923,113.12351008674983L386.3907318665201,112.70626270502345L386.2187149453614,112.3932561093145L386.04669802420244,112.08018854410614L385.702664181885,111.50607280621097L385.3586303395673,110.87953039878897L385.05760072753947,110.35722463056919L384.75657111551163,109.52118094320645L384.4985457337734,109.05071431665544L384.3265288126147,108.42320998145391L383.98249497029724,107.84778097038469L383.9394907400076,107.4291567472589L384.02549920058686,107.27214432237417L384.15451189145597,107.2198034100391L384.3265288126147,107.2198034100391L384.4555415034838,107.16746077858505L384.41253727319395,106.95807305638368L384.3265288126147,106.69629969229283L384.2405203520352,106.38211483588458L384.11150766116634,106.01548742372296L383.9394907400076,105.80594809892011L383.8104780491383,105.4915873223216L383.5954568976899,104.96751445059954L383.4664442068208,104.75783686779715L383.2084188250824,104.44326854768383L382.9073892130548,104.28596099668209L382.6923680616062,104.23352167928022L382.34833421928874,104.07619332220906L382.13331306784016,103.97129907749132L381.96129614668143,103.91884935234663L381.74627499523285,103.8139446951754L381.4882496134949,103.70903309375103L381.2732284620463,103.6041145459775L381.0582073105977,103.55165266655564L380.58516077741115,103.3942566030039L380.37013962596257,103.2893172036101L380.19812270480384,103.13189506373766L380.1121142442246,103.02693827357535L379.8970930927758,102.86949003771417L379.6390677110378,102.76451584366697L379.42404655958944,102.71202613481358L379.29503386872034,102.60704149213518L379.2090254081411,102.44955146174857L379.2090254081411,102.23954035297481L379.2520296384305,101.8194344097401L379.3810423292998,101.13652385774219L379.59606348074817,100.92633807917099L379.7250761716173,100.82123468782964L379.9831015533555,100.61100689048163L380.19812270480384,100.50588248025088L380.45614808654204,100.3481827195194L380.71417346828025,100.03273584851081L381.1442157711772,99.66463464209767L381.2732284620463,99.13862642014305L381.4022411529154,98.9281738799449L381.5312538437845,98.71769317063416L381.70327076494345,98.55981414245906L381.87528768610196,98.40191925244301L382.00430037697106,98.34928409634534L382.1763172981298,98.29664717675882L382.26232575870927,98.13872583441014L382.26232575870927,97.66486649287538L382.4773469101576,97.3488807646425L382.6923680616062,97.29621028826136L382.9073892130548,97.29621028826136L383.165414594793,97.29621028826136L383.2944272856621,97.24353804307134L383.38043574624135,96.98015027568027L383.38043574624135,96.71671824812245L383.25142305537247,96.4532419270675L383.03640190392366,96.18972127916328L382.86438498276493,95.82071783943684L382.52035114044725,95.50435990538284ZM410.81713467106715,123.83074813857735L410.81713467106715,123.88255371027316L410.90314313164663,123.88255371027316Z"></path>
<circle class="distCircs" cx="400.9140861125016" cy="113.93347919233616" r="2.547364840252935" stroke="#000" stroke-width="0.25" fill="#73c07b" data-q="HIMACHAL PRADESH" data-r="BILASPUR"><title>HIMACHAL PRADESH - BILASPUR: Census 2011 Total Rural Households = 74,661. Census 2011 Households with toilets = 51,401. Census 2001 Total Rural Households = 67,195. Census 2001 Households with toilets = 25,781. Difference between Census 2011 Households with toilets and Census 2001 Households with toilets = 30.5%</title></circle><circle class="distCircs" cx="391.7563040099619" cy="91.56993915901768" r="2.5980508470046475" stroke="#000" stroke-width="0.25" fill="#8bcb87" data-q="HIMACHAL PRADESH" data-r="CHAMBA"><title>HIMACHAL PRADESH - CHAMBA: Census 2011 Total Rural Households = 94,574. Census 2011 Households with toilets = 46,120. Census 2001 Total Rural Households = 87,699. Census 2001 Households with toilets = 20,583. Difference between Census 2011 Households with toilets and Census 2001 Households with toilets = 25.3%</title></circle><circle class="distCircs" cx="394.5521394411962" cy="105.2650845283415" r="2.6055293511281357" stroke="#000" stroke-width="0.25" fill="#1a9850" data-q="HIMACHAL PRADESH" data-r="HAMIRPUR"><title>HIMACHAL PRADESH - HAMIRPUR: Census 2011 Total Rural Households = 97,893. Census 2011 Households with toilets = 87,232. Census 2001 Total Rural Households = 87,596. Census 2001 Households with toilets = 33,629. Difference between Census 2011 Households with toilets and Census 2001 Households with toilets = 50.7%</title></circle><circle class="distCircs" cx="393.8396858637409" cy="98.77123462773216" r="2.873129576101973" stroke="#000" stroke-width="0.25" fill="#61b873" data-q="HIMACHAL PRADESH" data-r="KANGRA"><title>HIMACHAL PRADESH - KANGRA: Census 2011 Total Rural Households = 316,419. Census 2011 Households with toilets = 203,806. Census 2001 Total Rural Households = 272,697. Census 2001 Households with toilets = 81,864. Difference between Census 2011 Households with toilets and Census 2001 Households with toilets = 34.4%</title></circle><circle class="distCircs" cx="421.36725956749603" cy="109.08072993591679" r="2.2780737755893927" stroke="#000" stroke-width="0.25" fill="#69bc76" data-q="HIMACHAL PRADESH" data-r="KINNAUR"><title>HIMACHAL PRADESH - KINNAUR: Census 2011 Total Rural Households = 19,535. Census 2011 Households with toilets = 13,521. Census 2001 Total Rural Households = 20,781. Census 2001 Households with toilets = 7,582. Difference between Census 2011 Households with toilets and Census 2001 Households with toilets = 32.7%</title></circle><circle class="distCircs" cx="405.9687827948323" cy="104.20598429389435" r="2.573782364096623" stroke="#000" stroke-width="0.25" fill="#88c985" data-q="HIMACHAL PRADESH" data-r="KULLU"><title>HIMACHAL PRADESH - KULLU: Census 2011 Total Rural Households = 84,501. Census 2011 Households with toilets = 45,826. Census 2001 Total Rural Households = 78,362. Census 2001 Households with toilets = 22,065. Difference between Census 2011 Households with toilets and Census 2001 Households with toilets = 26.1%</title></circle><circle class="distCircs" cx="408.692613155953" cy="96.37146835115664" r="2.083591362707343" stroke="#000" stroke-width="0.25" fill="#a8d895" data-q="HIMACHAL PRADESH" data-r="LAHAUL &amp; SPITI"><title>HIMACHAL PRADESH - LAHAUL &amp; SPITI: Census 2011 Total Rural Households = 6,695. Census 2011 Households with toilets = 5,232. Census 2001 Total Rural Households = 9,155. Census 2001 Households with toilets = 5,425. Difference between Census 2011 Households with toilets and Census 2001 Households with toilets = 18.9%</title></circle><circle class="distCircs" cx="400.5058440227987" cy="108.17202887613934" r="2.7699901663306172" stroke="#000" stroke-width="0.25" fill="#1a9850" data-q="HIMACHAL PRADESH" data-r="MANDI"><title>HIMACHAL PRADESH - MANDI: Census 2011 Total Rural Households = 204,051. Census 2011 Households with toilets = 167,323. Census 2001 Total Rural Households = 186,571. Census 2001 Households with toilets = 58,194. Difference between Census 2011 Households with toilets and Census 2001 Households with toilets = 50.8%</title></circle><circle class="distCircs" cx="406.8929863279486" cy="117.75907761494528" r="2.6693264052738517" stroke="#000" stroke-width="0.25" fill="#a4d693" data-q="HIMACHAL PRADESH" data-r="SHIMLA"><title>HIMACHAL PRADESH - SHIMLA: Census 2011 Total Rural Households = 130,864. Census 2011 Households with toilets = 78,262. Census 2001 Total Rural Households = 160,646. Census 2001 Households with toilets = 64,277. Difference between Census 2011 Households with toilets and Census 2001 Households with toilets = 19.8%</title></circle><circle class="distCircs" cx="407.0817397411008" cy="126.95239295755579" r="2.5733148654379825" stroke="#000" stroke-width="0.25" fill="#87c985" data-q="HIMACHAL PRADESH" data-r="SIRMAUR"><title>HIMACHAL PRADESH - SIRMAUR: Census 2011 Total Rural Households = 84,317. Census 2011 Households with toilets = 47,975. Census 2001 Total Rural Households = 82,543. Census 2001 Households with toilets = 25,370. Difference between Census 2011 Households with toilets and Census 2001 Households with toilets = 26.2%</title></circle><circle class="distCircs" cx="402.8981938746307" cy="120.9461581959701" r="2.6040698498292225" stroke="#000" stroke-width="0.25" fill="#87c985" data-q="HIMACHAL PRADESH" data-r="SOLAN"><title>HIMACHAL PRADESH - SOLAN: Census 2011 Total Rural Households = 97,237. Census 2011 Households with toilets = 67,131. Census 2001 Total Rural Households = 98,519. Census 2001 Households with toilets = 42,262. Difference between Census 2011 Households with toilets and Census 2001 Households with toilets = 26.1%</title></circle><circle class="distCircs" cx="393.850876377798" cy="111.97978779797529" r="2.6097021772472444" stroke="#000" stroke-width="0.25" fill="#80c682" data-q="HIMACHAL PRADESH" data-r="UNA"><title>HIMACHAL PRADESH - UNA: Census 2011 Total Rural Households = 99,791. Census 2011 Households with toilets = 58,716. Census 2001 Total Rural Households = 88,869. Census 2001 Households with toilets = 27,686. Difference between Census 2011 Households with toilets and Census 2001 Households with toilets = 27.7%</title></circle></g></g></svg>