<?xml version="1.0" standalone="no"?><!DOCTYPE svg PUBLIC "-//W3C//DTD SVG 1.1//EN" "http://www.w3.org/Graphics/SVG/1.1/DTD/svg11.dtd"><svg id="chart" width="960" height="500" class="dorlingCart" data-type="dorlingCart" version="1.1" xmlns:xlink="http://www.w3.org/1999/xlink" xmlns="http://www.w3.org/2000/svg"><defs class="svg-crowbar"><style type="text/css"><![CDATA[.feature{ fill: #fcfcfc; stroke: #000000; stroke-width: 0.2px; cursor: pointer; }]]></style></defs>
<g><g transform="translate(-1076.966552734375,20.97479248046875)scale(4,4)">
<path class="feature" data-q="JAMMU &amp; KASHMIR" d="M420.2350611045106,95.08244975512031L419.9340314924825,95.29341906189165L419.71901034103416,95.50435990538284L419.54699341987543,95.7679959593533L419.2889680381372,96.03158759964924L419.1599553472681,96.03158759964924L419.0739468866889,96.18972127916328L419.030942656399,96.4532419270675L418.81592150495067,96.4532419270675L418.7299130443712,96.18972127916328L418.6009003535021,95.82071783943684L418.6009003535021,95.55709067087508L418.6009003535021,95.39889304047654L418.6439045837917,95.13519475118272L418.81592150495067,94.8714519679288L418.8589257352403,94.55490184883922L418.9879384261094,94.34383278555117L419.1169511169785,94.18551225933271L419.33197226842685,93.81603522513149L419.54699341987543,93.65766113314396L419.84802303190327,93.55206946923823L420.0630441833516,93.49927095570473L420.1490526439311,93.28805901808721L420.1060484136417,93.12963127968254L420.020039953062,92.23156958792549L420.020039953062,91.96733515554831L419.9340314924825,91.65019456916139L419.84802303190327,91.2801154272504L419.71901034103416,91.22723978293004L419.5039891895858,91.38586131793164L419.2889680381372,91.38586131793164L419.1169511169785,91.54446666311225L419.1169511169785,91.80877294753242L419.0739468866889,92.02018563273526L418.8589257352403,92.07303431429631L418.471887662633,92.12588120050185L418.1708580506054,92.17872629162179L417.9988411294464,92.39008871064249L417.6118030568391,92.44292483038186L417.26776921452165,92.44292483038186L416.92373537220396,92.33725079716618L416.751718451045,92.17872629162179L416.5797015298863,92.12588120050185L416.3646803784379,92.17872629162179L416.2786719178587,92.33725079716618L415.934638075541,92.54859168973172L415.76262115438226,92.81272746659772L415.5476000029339,92.9183692344032L415.2035661606162,92.9183692344032L414.945540778878,92.86554924615558L414.73051962742966,92.81272746659772L414.5585027062707,92.9183692344032L414.386485785112,93.0768184539807L414.0424519427945,93.02400383804638L413.7844265610561,92.81272746659772L413.39738848844877,92.44292483038186L413.1393631067108,92.2844110896836L412.92434195526243,92.07303431429631L412.8813377249726,91.65019456916139L412.96734618555206,91.2801154272504L413.0103504158417,90.96283456070631L413.0103504158417,90.75127796593802L412.96734618555206,90.59259159857459L412.70932080381385,90.4338890048366L412.49429965236527,90.32807825740969L412.36528696149617,90.22226029283775L412.32228273120654,90.01060270357544L412.06425734946833,89.85184055047563L412.1072615797582,89.5872008237713L411.8922404283096,89.4283952928717L411.7632277374405,89.32251589487612L411.41919389512304,89.26957348184465L411.20417274367446,89.21662925909374L410.9891515922259,89.05778572980654L410.94614736193626,88.8459690048515L410.94614736193626,88.58115732894913L411.07516005280536,88.42224856648829L411.07516005280536,88.10438205415375L411.07516005280536,87.99841202725327L410.90314313164663,87.68045834762233L410.4731008287497,87.41544695828247L410.129066986432,87.15039008737574L409.871041604694,87.04435459651972L409.6990246835351,86.9383118209555L409.44099930179686,86.9383118209555L409.31198661092776,87.15039008737574L409.05396122918955,87.36243922372L408.8819443080308,87.52145696989271L408.6239189262926,87.57445924748743L408.3228893142648,87.57445924748743L408.15087239310606,87.68045834762233L408.0648639325268,87.89243473532065L407.80683855078837,88.15736434389913L407.5488131690504,88.21034481820448L407.37679624789166,88.42224856648829L407.20477932673293,88.58115732894913L407.0757666358636,88.58115732894913L406.98975817528435,88.47521996768774L406.6887285632565,88.47521996768774L406.4737074118077,88.6870874371777L406.21568203006973,88.8459690048515L405.87164818775204,88.8459690048515L405.5706185757242,88.7400497720858L405.3986016545655,88.6870874371777L404.9255551213789,88.95188099003178L404.88255089108907,89.21662925909374L404.83954666079944,89.5872008237713L404.6245255093511,89.79891621967982L404.4095043579025,89.74599008188301L404.2374874367438,89.5872008237713L404.1084747458747,89.3754564984618L403.97946205500557,89.16368322635117L403.46341129152916,89.05778572980654L403.2053859097912,88.95188099003178L403.0333689886322,88.8459690048515L402.9903647583426,88.6870874371777L402.94736052805274,88.52818955508354L402.8613520674735,88.36927535121322L402.68933514631476,88.26332347734365L402.56032245544566,88.15736434389913L402.3883055342869,87.99841202725327L402.17328438283835,87.9454242895523L402.0012674616796,88.05139794869575L401.8722547708105,88.15736434389913L401.78624631023104,88.10438205415375L401.78624631023104,87.83944336428442L401.74324207994164,87.62745970663991L401.52822092849306,87.30942966962095L401.4852166982032,87.0973732523994L401.3562040073341,86.9383118209555L401.0121701650164,86.88528770072423L400.8831574741473,86.99133411946298L400.7111405529888,87.15039008737574L400.5821278621197,87.20340510172286L400.4531151712506,87.0973732523994L400.28109825009165,86.9383118209555L399.9800686380638,86.77923399399322L399.8080517169051,86.67317299708122L399.6790390260362,86.56710470779547L399.4640178745874,86.4079885958754L399.29200095342867,86.4079885958754L398.99097134140106,86.30190206606994L398.8189544202421,86.19580823621914L398.6469374990834,86.08970710413041L398.5179248082143,85.98359866760893L398.3459078870553,85.82442231221319L398.13088673560696,85.66522950949548L397.82985712357913,85.39987160189366L397.7868528932895,85.13446795235382L397.74384866299965,84.97520379220646L397.70084443271,84.86901852651386L397.52882751155107,84.70972688408108L397.3998148206822,84.49731236067521L397.1847936692336,84.2317529313674L397.05578097836474,84.12551631144629L396.9267682874954,84.07239524719739L396.7977555966263,83.96614760874422L396.71174713604705,83.85989262184648L396.4967259845987,83.59422299066637L396.58273444517795,82.6906021368759L396.6687429057572,82.53108435969978L396.7977555966263,82.37154998136032L396.8837640572058,82.31836816480734L396.9267682874954,82.21199899438056L396.9267682874954,82.05243139127742L396.7977555966263,82.05243139127742L396.6257386754676,82.05243139127742L396.45372175430884,82.05243139127742L396.32470906343974,81.9992384964778L396.152692142281,81.9992384964778L396.06668368170153,82.10562243900984L395.93767099083243,82.26518450257322L395.8946667605428,82.37154998136032L395.8516625302532,82.53108435969978L395.7656540696737,82.63743138859638L395.7226498393841,82.74377104141274L395.55063291822535,82.90326669533215L395.3786159970664,83.16905593616002L395.1205906153284,83.32850738340142L394.9055694638796,83.32850738340142L394.7335525427211,83.32850738340142L394.56153562156214,83.32850738340142L394.43252293069327,83.4347991456466L394.30351023982394,83.48794226682332L394.13149331866543,83.54108354840457L394.00248062779633,83.48794226682332L393.7444552460581,83.38165418459857L393.615442555189,83.27535874178045L393.4864298643197,83.06274576552482L393.3574171734506,82.95642822766365L393.2284044825817,82.85010332036438L393.0993917917126,82.74377104141274L392.9273748705539,82.74377104141274L392.7123537191053,82.7969381024833L392.4543283373671,82.7969381024833L392.28231141620836,82.85010332036438L392.15329872533925,82.85010332036438L392.0672902647598,82.95642822766365L391.9382775738907,83.06274576552482L391.8092648830218,83.16905593616002L391.63724796186307,83.22220825945897L391.46523104070434,83.22220825945897L391.25020988925576,83.22220825945897L391.0781929680968,83.22220825945897L390.99218450751755,83.16905593616002L390.8201675863588,83.11590177160735L390.6481506652001,83.11590177160735L390.51913797433076,83.16905593616002L390.4331295137515,83.16905593616002L390.39012528346166,83.27535874178045L390.3041168228824,83.38165418459857L390.2181083623029,83.4347991456466L389.96008298056495,83.7004963583355L389.87407451998547,83.80676237204023L389.788066059406,83.85989262184648L389.57304490795764,83.96614760874422L389.4010279867987,84.07239524719739L389.2720152959296,84.12551631144629L389.1860068353503,84.2317529313674L389.09999837477085,84.33798220835922L388.97098568390174,84.44420414462502L388.9279814536121,84.55041874237008L388.8849772233225,84.70972688408108L388.798968762743,84.97520379220646L388.798968762743,85.0813817303897L388.798968762743,85.24063490340075L388.798968762743,85.45294684166981L388.71296030216354,85.55909183328902L388.58394761129443,85.66522950949548L388.45493492042533,85.77135987248698L388.239913768977,85.77135987248698L388.1109010781079,85.87748292445895L388.0248926175286,85.93054170949995L387.85287569636967,85.98359866760893L387.72386300550056,85.98359866760893L387.5948503146317,85.98359866760893L387.4228333934725,85.93054170949995L387.3798291631831,85.93054170949995L387.29382070260385,86.08970710413041L387.07879955115527,86.08970710413041L386.90678262999654,86.1427585830919L386.82077416941706,86.19580823621914L386.51974455738923,86.4079885958754L386.3907318665201,86.51406782782874L386.30472340594065,86.62013976412175L386.2187149453614,86.72620440694698L385.96068956362296,87.15039008737574L385.4446388001468,87.78645017617191L385.05760072753947,88.21034481820448L384.6705626549324,88.42224856648829L384.5845541943529,88.47521996768774L384.3695330429043,88.58115732894913L384.2405203520352,88.6341232895561L384.15451189145597,88.6870874371777L384.02549920058686,88.79301029455269L383.85348227942814,88.79301029455269L383.76747381884866,88.6870874371777L383.6814653582692,88.58115732894913L383.5524526674001,88.47521996768774L383.3374315159515,88.26332347734365L382.99339767363404,88.05139794869575L382.7783765221857,87.99841202725327L382.5633553707373,87.99841202725327L382.4343426798682,87.99841202725327L382.13331306784016,88.10438205415375L381.9182919163916,88.26332347734365L381.9182919163916,88.42224856648829L381.7892792255225,88.6870874371777L381.7892792255225,88.89892590325366L382.13331306784016,89.3754564984618L382.39133844957837,89.53426745525485L382.6923680616062,89.90476307454247L382.9073892130548,90.11643510894987L383.0794061342135,90.32807825740969L383.165414594793,90.48679167279869L383.25142305537247,90.80416981712898L383.2944272856621,91.06860205080255L383.2944272856621,91.2801154272504L383.165414594793,91.59733151503053L382.99339767363404,91.96733515554831L382.9503934433444,92.2844110896836L382.9503934433444,92.54859168973172L382.99339767363404,92.70707853247603L383.165414594793,92.86554924615558L383.25142305537247,92.97118743160979L383.3374315159515,93.0768184539807L383.38043574624135,93.28805901808721L383.38043574624135,93.55206946923823L383.4234399765312,93.71045428405341L383.25142305537247,93.81603522513149L383.165414594793,93.81603522513149L382.99339767363404,93.81603522513149L382.86438498276493,93.76324564795948L382.6493638313166,93.76324564795948L382.4773469101576,93.76324564795948L382.39133844957837,94.18551225933271L382.13331306784016,94.50213725774802L381.7892792255225,94.92420408570416L381.4882496134949,95.34615694052764L381.2732284620463,95.50435990538284L381.0582073105977,95.71527230272278L380.886190389439,95.87343794324124L380.6711692379906,96.03158759964924L380.45614808654204,96.34783898899644L380.2841311653833,96.50594073635875L380.06911001393496,96.66402652845807L379.8970930927758,96.82209637249827L379.7250761716173,97.08551069199154L379.5530592504583,97.29621028826136L379.29503386872034,97.66486649287538L379.1230169475616,97.77018093055727L378.8649915658234,98.03343611719686L378.6929746446647,98.19136804605722L378.5209577235057,98.40191925244301L378.30593657205713,98.55981414245906L378.04791119031916,98.66506858989356L377.8328900388706,98.66506858989356L377.66087311771184,98.55981414245906L377.44585196626326,98.45455264531716L377.27383504510453,98.29664717675882L377.0588138936562,98.19136804605722L376.8437927422076,98.19136804605722L376.67177582104887,98.34928409634534L376.5857673604696,98.55981414245906L376.37074620902104,98.61244224725681L376.24173351815193,98.55981414245906L375.9837081364137,98.50718427523435L375.5966700638064,98.40191925244301L375.4246531426477,98.40191925244301L375.1666277609095,98.40191925244301L375.0376150700406,98.40191925244301L374.822593918592,98.29664717675882L374.47856007627433,97.98078861109838L374.2205346945361,97.71752459505592L373.87650085221867,97.6122066237503L373.1884331675835,97.29621028826136L372.6723824041071,96.98015027568027L372.37135279207905,96.82209637249827L372.07032318005145,96.76940819604727L371.8983062588927,96.66402652845807L371.6832851074439,96.4532419270675L371.5112681862854,96.18972127916328L371.2532428045472,95.97887282307977L370.95221319251914,95.87343794324124L370.6081793502017,95.82071783943684L370.3501539684637,95.82071783943684L370.09212858672527,95.87343794324124L369.8341032049873,95.92615627103265L369.5330735929592,95.97887282307977L369.27504821122125,96.03158759964924L369.06002705977266,95.97887282307977L368.80200167803446,95.92615627103265L368.32895514484767,95.71527230272278L368.02792553282006,95.66254686927795L367.6838916905024,95.55709067087508L367.3828620784748,95.45162736200575L367.12483669673634,95.39889304047654L366.99582400586746,95.39889304047654L366.909815545288,95.50435990538284L366.737798624129,95.66254686927795L366.47977324239105,95.66254686927795L366.1787436303632,95.66254686927795L365.83470978804553,95.66254686927795L365.49067594572807,95.71527230272278L365.2756547942795,95.66254686927795L365.06063364283114,95.45162736200575L365.0176294125413,95.29341906189165L365.0176294125413,94.92420408570416L365.06063364283114,94.6076646572231L365.0176294125413,94.29106106094969L364.7596040308033,93.76324564795948L364.71659980051345,93.4464706540914L364.8026082610929,92.97118743160979L365.0176294125413,92.60142242988059L365.0176294125413,92.23156958792549L364.8886167216724,91.86162881321661L364.8886167216724,91.06860205080255L365.23265056398986,90.27517017740257L365.4046674851486,89.85184055047563L365.3186590245691,89.53426745525485L365.10363787312076,89.53426745525485L364.8886167216724,89.69306213681392L364.63059133993397,90.01060270357544L364.50157864906487,90.38098453313091L364.50157864906487,90.64548885693205L364.32956172790614,90.80416981712898L364.07153634616816,90.80416981712898L363.8135109644297,90.85705986647355L363.4264728918224,91.01571920613623L363.16844751008443,91.01571920613623L362.9104221283462,91.01571920613623L362.6093925163186,90.90994811424247L362.26535867400094,90.64548885693205L361.92132483168325,90.53969253728764L361.66329944994504,90.53969253728764L361.4912825287863,90.53969253728764L361.2332571470481,90.59259159857459L361.01823599559975,90.64548885693205L360.80321484415094,90.64548885693205L360.4591810018335,90.64548885693205L360.24415985038513,90.64548885693205L359.9001260080677,90.27517017740257L359.51308793546036,89.95768379215178L359.3410710143014,89.74599008188301L359.0400414022736,89.53426745525485L358.3089694873488,88.8459690048515L357.57789757242404,88.10438205415375L356.71781296663016,87.73345517070857L356.45978758489196,87.62745970663991L356.1587579728641,87.57445924748743L355.94373682141554,87.57445924748743L355.59970297909786,87.41544695828247L355.3846818276495,87.0973732523994L355.1696606762009,86.88528770072423L354.6106056824351,86.56710470779547L354.0945549189587,86.46102912394656L353.7075168463514,86.51406782782874L352.93344070113676,86.67317299708122L352.8474322405575,86.88528770072423L352.5894068588193,86.67317299708122L352.4173899376606,86.19580823621914L351.98734763476364,85.61216158568152L351.6003095621563,85.34679453243973L351.3422841804181,85.24063490340075L351.0842587986799,85.18755234326557L350.74022495636245,85.13446795235382L350.39619111404477,85.0282936770991L350.13816573230656,84.7628259311117L350.00915304143746,84.44420414462502L349.96614881114783,84.07239524719739L349.96614881114783,83.59422299066637L350.13816573230656,83.16905593616002L350.26717842317566,82.63743138859638L350.26717842317566,82.05243139127742L350.1811699625964,81.62683649169719L349.96614881114783,81.1479007521366L349.7511276596995,80.88176054170344L349.4500980476714,80.24283494641384L349.36408958709217,79.60364201260256L349.4070938173818,79.17736463075266L349.62211496883015,78.59103861234667L349.7941318899891,78.27112932045156L350.13816573230656,77.7911393511531L350.09516150201694,77.04418724315474L350.0521572717273,76.56380990655225L349.8801403505686,76.13668027914684L349.66511919912,75.3889141189311L349.62211496883015,75.06833003046665L349.5361065082509,74.05269940715789L349.36408958709217,73.62486154943656L349.1490684356438,73.35740142803468L349.06305997506433,72.82233919058456L349.06305997506433,72.44768285136468L349.23507689622306,72.12647484287709L349.4070938173818,71.75164574263192L349.5361065082509,71.43028950891073L349.5361065082509,71.05528731065169L349.32108535680254,70.5730044513723L349.06305997506433,70.30500277687065L348.84803882361575,69.76885621479903L348.6330176721674,69.0179297654912L348.46100075100867,68.4276527286479L348.37499229042896,67.99821451074286L348.33198806013957,67.62235520309434L348.28898382984994,67.138969024051L348.20297536927046,66.65542684033778L348.1599711389806,66.27923048540492L348.20297536927046,65.09628275921682L347.9879542178219,64.61207956514943L347.42889922405584,63.58935663272416L346.9128484605794,63.21238707343889L346.69782730913107,62.727571716207535L346.6118188485516,62.18870274689698L346.7838357697103,61.595721331400796L346.86984423029,61.11037870264613L346.9128484605794,60.08524524719678L347.0848653817384,59.3834297255022L347.385894993766,59.00539134294036L347.94494998753225,58.95137798192047L348.46100075100867,58.89736265056683L348.84803882361575,58.84334534858408L349.32108535680254,58.73530483155059L349.7081234294096,58.78932607567697L349.96614881114783,58.84334534858408L350.0521572717273,58.68128161591005L350.3101826534653,58.357100903724245L350.61121226549335,58.14094096123256L350.6972207260726,57.81664179864356L350.5682080352037,57.38413221793189L350.61121226549335,57.00558244729825L350.7832291866521,56.73513033041286L351.04125456839006,56.51873295427811L351.213271489549,56.19407737449535L351.25627571983887,55.76109207251625L351.5573053318667,55.327979550244436L352.4173899376606,55.057219552030915L353.1914660828752,55.00306157851185L353.5785041554823,54.89473965521347L353.9655422280896,54.786409761578625L354.18056337953794,54.84057570483708L354.52459722185563,54.678071895218864L354.82562683388346,54.461372234777855L354.9976437550424,54.13626288897626L355.0406479853318,53.7568777948627L355.2556691367804,53.485828482148804L355.5136945185186,53.26895302737864L355.7717199002566,52.943579792621335L355.94373682141554,52.618134437183016L356.11575374257427,52.075565067220964L356.1587579728641,51.53279488158785L356.20176220315375,51.36992462187811L356.45978758489196,51.20703625355395L356.71781296663016,50.93551537622204L356.58880027576106,50.609623842288784L356.5027918151816,50.39232249790189L356.58880027576106,50.06630995036676L356.7608171969198,49.90327641999579L357.018842578658,49.74022470767079L357.1478552695271,49.46843142727437L357.1478552695271,49.14221274042086L356.84682565749927,48.87030816496815L356.33077489402285,48.65274803894795L355.81472413054667,48.326347028315126L355.1266564459113,48.16311913551806L354.30957607040705,47.78218299103639L353.79352530693086,47.56446049587987L353.4494914646132,47.34670546852317L352.93344070113676,47.23781574918132L352.6754153193988,47.07446590623624L352.4173899376606,47.020011886986936L352.202368786212,47.23781574918132L351.90133917418416,47.34670546852317L351.6003095621563,47.45558704994437L351.2992799501285,47.45558704994437L351.213271489549,47.34670546852317L351.12726302896954,47.020011886986936L351.12726302896954,46.63877671853504L351.12726302896954,46.31192422168306L351.0842587986799,46.03949103621244L350.86923764723133,45.8215077372256L350.7832291866521,45.54898264312794L350.8262334169417,45.16736163150608L350.9552461078108,44.51292080113001L351.213271489549,44.13102733391497L351.4712968712872,43.69445449927093L351.7293222530252,43.47611877209431L352.03035186505326,43.257750145426485L352.0733560953429,42.9847430671623L352.0733560953429,42.54782465841231L351.9443434044738,42.056133739185384L351.7293222530252,41.782899883523214L351.5573053318667,41.72824691628068L351.213271489549,41.72824691628068L350.9552461078108,41.56427561676651L350.61121226549335,41.400285714075494L350.1811699625964,41.34561827769551L349.96614881114783,41.34561827769551L349.7081234294096,41.34561827769551L349.4070938173818,41.400285714075494L349.0200557447747,41.45495108250827L348.28898382984994,41.34561827769551L347.55791191492517,41.072250065735034L346.9988569211589,41.18160355777013L346.6548230788412,41.236277199852L346.1387723153648,41.236277199852L345.6227215518886,41.017570215163346L345.3646961701504,40.744139904360964L344.93465386725325,40.6347532805471L344.4616073340669,40.415955162995715L343.859548110011,40.0329786145013L343.51551426769333,39.70463205316389L343.12847619508625,39.43095278846431L342.74143812247894,39.15722154569028L342.35440004987186,38.883438285918146L342.311395819582,38.2261459999695L342.2683915892924,37.45892531295374L342.311395819582,37.02032959525684L342.22538735900275,36.58159993424579L341.96736197726455,36.14273616939249L341.6233281349471,35.92325394780664L341.2792942926294,35.92325394780664L341.1072773714707,36.252464691627324L340.93526045031194,36.252464691627324L340.67723506857374,36.19760147929435L340.3762054565457,36.19760147929435L340.032171614228,36.252464691627324L339.81715046277964,36.47189657154183L339.55912508104166,36.58159993424579L339.2580954690136,36.636448472381744L339.0000700872756,36.5267493007367L338.69904047524756,36.362184824839915L338.57002778437845,36.19760147929435L338.3120024026405,36.08786876160707L338.0969812511919,35.97812765112781L337.66693894829496,36.08786876160707L337.4519177968466,36.30732580670406L337.19389241510817,36.58159993424579L337.02187549394944,36.636448472381744L336.80685434250086,36.636448472381744L336.505824730473,36.636448472381744L336.2047951184452,36.636448472381744L336.0757824275761,36.636448472381744L335.8177570458379,36.8009815176938L335.688744354969,36.85582167747748L335.4307189732308,36.85582167747748L335.12968936120274,36.69129491545959L334.9146682097544,36.58159993424579L334.5706343674367,36.41704174634776L334.1835962948296,36.19760147929435L333.9255709130914,36.03299925562351L333.6245413010636,35.868378145345105L333.4095201496152,35.648853937806734L333.32351168903574,35.42929611886814L333.32351168903574,35.154801548485466L333.4095201496152,34.77042079222565L333.6245413010636,34.44086945237052L333.7965582222223,34.2211264104626L334.0115793736709,33.89144857408496L334.0545836039605,33.561694748823925L334.0115793736709,33.39678931902017L333.7105497616428,33.176885820054736L333.49552861019447,32.84696711781328L333.1514947678768,32.40695696126738L333.23750322845626,32.07686033987875L333.36651591932514,31.746687353162997L333.5385328404841,31.41643793247374L333.5815370707737,30.755709514261753L333.6675455313532,30.37014306729293L333.8395624525119,30.039574431385972L334.0975878342499,29.708929005813957L334.22660052511924,29.378206721536912L334.35561321598834,29.04740750945109L334.699647058306,29.04740750945109L335.00067667033386,29.10254605660907L335.3447105126513,29.323078863598766L335.688744354969,29.378206721536912L335.8177570458379,29.157682465282164L335.9897739669966,28.8819790338689L336.2047951184452,28.661377774871653L336.505824730473,28.495904350736396L336.8498585727907,28.33041164850465L337.15088818481854,28.22007246601663L337.3229051059775,27.99936837508278L337.4949220271362,27.557857217418473L337.62393471800533,27.392255108841937L337.9679685603228,27.171422217773966L338.3120024026405,27.06099287517418L338.4840193237992,26.619189464204283L338.5270235540888,26.232498455439895L338.65603624495793,25.735169110852667L338.91406162669614,25.569353828211774L339.3441039295933,25.569353828211774L339.68813777191053,25.514077749591138L340.07517584451807,25.348236555978815L340.11818007480747,24.795292103445036L340.11818007480747,24.518738761693726L340.33320122625605,24.242131288910855L340.67723506857374,24.07614080546898L340.93526045031194,23.799446638634663L341.1932858320499,23.522698235217717L341.36530275320865,23.301260434828237L341.494315444078,22.85828053843227L341.45131121378813,22.415161442205658L341.4083069834985,21.971902979155857L341.2792942926294,21.63936757181648L341.2792942926294,21.417633661009404L341.494315444078,21.25131030241357L341.9243577469747,21.25131030241357L342.35440004987186,21.029515240162254L342.65542966189946,20.8631459939171L343.0854719647966,20.8631459939171L343.4295058071143,20.918604595659644L343.77353964943177,20.8631459939171L344.0745692614596,20.807685205410735L344.67662848551527,20.8631459939171L344.89164963696385,20.75222222981199L345.27868770957093,20.419398428921227L345.7517342427577,20.197472111601883L346.0957680850752,20.086495810047836L346.52581038797234,20.14198505633999L346.9988569211589,20.308439650350692L347.2568823028971,20.474874533958882L347.5149076846351,20.530348449937378L347.8589415269528,20.530348449937378L348.28898382984994,20.474874533958882L348.6330176721674,20.474874533958882L349.0200557447747,20.807685205410735L349.2780811265127,20.974061010965556L349.5361065082509,20.974061010965556L349.83713612027896,20.918604595659644L350.26717842317566,20.807685205410735L350.61121226549335,20.641289716025994L350.86923764723133,20.585820177183905L351.6433137924462,20.585820177183905L352.6754153193988,20.75222222981199L352.9764449314264,20.696757066792884L353.1054576222957,20.641289716025994L353.2344703131648,20.36392013449381L353.14846185258534,19.864516908011183L352.93344070113676,19.47596939888774L352.76142377997803,19.19836962112845L352.5894068588193,19.031783397657364L352.28837724679147,18.86517739570411L351.8153307136047,18.587456749431794L351.7293222530252,18.476353091506894L351.3422841804181,18.53190602075756L351.1702672592594,18.420797961349763L350.61121226549335,17.920702694680017L350.35318688375514,17.698380836602155L350.00915304143746,17.36483187693068L349.9231445808582,17.086813706866906L350.26717842317566,16.919976297411495L350.6972207260726,16.864359407702068L351.04125456839006,16.975590976954663L351.4282926409976,17.086813706866906L351.8583349438943,17.086813706866906L352.54640262852945,17.031203446662175L353.27747454345445,17.198027600090086L354.3955845309865,17.920702694680017L355.0406479853318,18.36524062995568L355.7287156699672,18.420797961349763L356.2447664334434,18.309681096995973L356.67480873634054,17.920702694680017L357.2338637301066,17.14242175789923L357.4058806512653,16.864359407702068L357.70691026329314,16.69749547426227L358.3089694873488,16.80874030749544L358.65300332966626,16.80874030749544L358.86802448111484,16.80874030749544L359.2550625537219,16.586241795059436L359.64210062632947,15.97418831911159L360.0721429292262,15.695893587921887L360.54518946241296,15.417543419969661L361.2332571470481,15.083449983337346L362.0073332922625,15.027759971880073L362.56638828602854,15.083449983337346L362.9964305889257,15.417543419969661L363.16844751008443,15.695893587921887L363.29746020095354,15.584560175480988L363.3404644312434,15.139137773663037L363.2544559706639,14.804977708064257L363.3404644312434,14.41502315580442L363.7705067341401,14.136417442565744L363.9855278855887,14.080689620844169L364.32956172790614,14.080689620844169L364.71659980051345,14.080689620844169L365.0176294125413,14.024959571985619L365.5336801760177,14.24786640593345L365.83470978804553,14.470737621716466L366.47977324239105,14.470737621716466L366.86681131499813,14.35930646475947L367.25384938760544,14.693573240699038L367.4688705390538,15.194823343189796L367.8129043813715,15.695893587921887L368.24294668426865,16.363707888129966L368.5009720660066,16.308068878518725L369.1030312900625,15.695893587921887L369.44706513238,15.640227990602966L369.8771074352769,15.473217890496812L370.2641455078842,15.528890142222963L370.6081793502017,15.640227990602966L370.8662047319401,15.695893587921887L371.2532428045472,15.584560175480988L371.5112681862854,15.528890142222963L371.7692935680234,15.36186673030761L372.1563316406307,15.027759971880073L372.2853443315,14.470737621716466L372.6293781738175,14.192143037484016L373.1024247070043,14.024959571985619L373.87650085221867,13.857756059243684L374.4355558459847,13.802017098493934L374.65057699743306,13.913492791519047L374.73658545801254,14.41502315580442L374.9086023791715,14.804977708064257L375.08061930033,15.250506692251065L375.2956404517786,15.528890142222963L375.4676573729373,15.695893587921887L375.63967429409627,16.2524276550929L375.8546954455446,16.75311899645976L376.1987292878621,17.031203446662175L376.49975889989014,17.420428887070216L376.67177582104887,18.031850397144012L376.8867969724972,18.420797961349763L377.70387734800147,18.75409573529612L378.7789831052439,19.142843077031216L379.2090254081411,19.53148276819786L379.5100550201687,20.197472111601883L379.8970930927758,20.918604595659644L380.2841311653833,21.528504982082495L380.84318615914935,22.13814124545752L381.31623269233614,22.74751382087925L381.74627499523285,23.079787876180376L382.21932152841964,23.356623142698254L382.7783765221857,23.522698235217717L383.38043574624135,23.744101298178066L383.76747381884866,24.020806309078466L384.2405203520352,24.297457115896577L385.1436091881187,24.40810227057591L385.83167687275386,24.684677259872956L386.69176147854773,25.569353828211774L387.1218037814449,26.121995918052676L387.72386300550056,26.619189464204283L388.1109010781079,26.784881881564957L388.62695184158406,26.840108382959897L389.09999837477085,26.784881881564957L389.74506182911637,26.784881881564957L390.4331295137515,27.06099287517418L390.6911548954897,27.337050109537017L391.0351887378072,27.778629965740038L391.12119719838665,28.606222108302518L391.12119719838665,28.826831929570403L391.63724796186307,28.992266823489217L391.89527334360105,29.26794886845653L392.02428603447015,29.488456027082634L392.23930718591873,29.488456027082634L392.66934948881544,29.653813964376354L392.9273748705539,29.92936782512197L393.31441294316096,29.984472194936984L393.78745947634775,29.92936782512197L394.04548485808573,29.984472194936984L394.3465144701138,30.149772505466103L394.4755271609829,30.37014306729293L394.69054831243125,30.86585219139522L394.9055694638796,31.251284537918423L395.2496033061973,31.526529569607078L395.55063291822535,31.746687353162997L396.0236794514119,32.13188174473771L396.23870060286026,32.46196564524223L396.23870060286026,32.79197326043152L395.80865829996355,33.28684179810125L395.5076286879355,33.67162113800168L395.421620227356,33.9464001553099L395.5076286879355,34.27606533351047L395.80865829996355,34.49579994294845L396.152692142281,34.825338643565715L396.5397302148883,35.53907923102042L396.7977555966263,35.97812765112781L397.09878520865436,36.252464691627324L397.3998148206822,36.362184824839915L397.74384866299965,36.58159993424579L398.13088673560696,36.85582167747748L398.4749205779244,37.02032959525684L398.99097134140106,37.129991075600174L399.89406017748456,37.129991075600174L400.4531151712506,37.075161381703765L400.8401532438577,36.85582167747748L401.4852166982032,37.02032959525684L401.74324207994164,37.34928893194376L401.91525900110014,37.62336420756026L402.0872759222591,37.842586816612766L402.4743139948664,37.95218559087323L402.775343606894,37.95218559087323L403.2483901400808,38.00698184653038L403.8934535944263,38.11656809646331L404.3665001276129,38.33571555954711L404.7535382002202,38.39049721114327L405.22658473340675,38.828675388497004L405.22658473340675,39.04771448600172L405.2695889636964,39.21197195435889L405.5276143454346,39.59516658216319L405.6566270363037,39.81408921389482L405.74263549688294,40.142410859349866L405.87164818775204,40.525358367585454L406.0866693392006,40.79883010861397L406.34469472093883,41.18160355777013L406.4737074118077,41.45495108250827L406.4737074118077,41.56427561676651L406.25868626035935,41.61893478321167L406.043665108911,41.61893478321167L405.6566270363037,41.61893478321167L405.2695889636964,41.61893478321167L405.0545678122478,41.50961438330194L404.88255089108907,41.400285714075494L404.71053396993057,41.34561827769551L404.3665001276129,41.29094877305761L404.2374874367438,41.34561827769551L404.1514789761643,41.61893478321167L404.2374874367438,41.94684639179411L404.4095043579025,42.220049279270484L404.7535382002202,42.438574447821L405.22658473340675,42.6024466713684L405.82864395746265,42.71168451414144L406.34469472093883,42.71168451414144L406.9037497147049,42.54782465841231L407.4198004781813,42.49320058399985L407.76383432049875,42.49320058399985L408.1938766233957,42.54782465841231L408.75293161716195,42.6024466713684L409.13996968976926,42.6024466713684L409.39799507150724,42.49320058399985L409.6990246835351,42.274683665600946L409.8280373744042,42.00149109776237L410.00005429556313,41.61893478321167L410.2580796773011,41.673591882946766L410.5591092893292,41.83755078498314L410.7311262104879,41.94684639179411L411.07516005280536,42.110774316372044L411.5052023557023,42.220049279270484L411.84923619801975,42.38394624956675L412.19327004033744,42.6024466713684L412.45129542207565,42.6024466713684L412.7523250341035,42.438574447821L412.92434195526243,42.438574447821L413.0103504158417,42.54782465841231L413.09635887642094,42.71168451414144L413.1823673370004,42.657066623174956L413.31138002786975,42.54782465841231L413.31138002786975,42.38394624956675L413.35438425815914,42.16541282963101L413.22537156729027,42.00149109776237L413.0103504158417,41.83755078498314L412.96734618555206,41.56427561676651L413.0533546461313,41.29094877305761L413.1823673370004,41.017570215163346L413.26837579757967,40.68944762844205L413.26837579757967,40.36125045056417L413.5694054096077,40.251834803875795L413.82743079134593,40.47065780189985L413.9994477125049,40.6347532805471L414.386485785112,40.6347532805471L414.7735238577193,40.744139904360964L415.11755770003674,41.017570215163346L415.37558308177495,41.29094877305761L415.5476000029339,41.45495108250827L416.02064653612024,41.673591882946766L416.2786719178587,41.673591882946766L416.40768460872755,41.61893478321167L416.40768460872755,41.34561827769551L416.2786719178587,41.12692784650119L416.3216761481483,40.90820430336089L416.4506888390174,40.744139904360964L416.62270576017613,40.6347532805471L416.7087142207554,40.30654366429428L416.751718451045,40.08769577462067L416.92373537220396,39.92353806684514L417.0957522933627,39.97825937867947L417.31077344481105,39.64990035660276L417.6978115174186,39.48569279840558L417.8698284385773,39.64990035660276L417.9988411294464,39.70463205316389L418.1708580506054,39.64990035660276L418.213862280895,39.32146653090308L418.213862280895,38.938199101102214L418.299870741474,38.66437419968838L418.42888343234335,38.66437419968838L418.6009003535021,38.66437419968838L418.81592150495067,38.60960297019744L419.1169511169785,38.4452767776944L419.54699341987543,38.33571555954711L419.762014571324,38.33571555954711L419.8910272621929,38.1713580913638L420.1490526439311,37.897387247671304L420.3640737953797,37.62336420756026L420.70810763769737,37.45892531295374L421.09514571030445,37.513740367764285L421.5251880132016,37.56855333252895L421.74020916464974,37.62336420756026L421.99823454638795,37.62336420756026L422.4282768492851,37.56855333252895L422.9013233824717,37.18481867725973L423.2023529944995,36.91065974345656L423.5893910671068,36.69129491545959L423.89042067913465,36.41704174634776L424.2344545214521,36.252464691627324L424.4494756729007,36.19760147929435L424.66449682434927,36.14273616939249L425.18054758782546,36.03299925562351L425.7396025815917,36.08786876160707L426.1266406541988,36.08786876160707L426.29865757535754,36.19760147929435L426.55668295709575,36.252464691627324L427.02972949028253,36.03299925562351L427.6747929446278,35.97812765112781L427.8898140960764,35.868378145345105L428.2338479383941,35.648853937806734L428.57788178071155,35.648853937806734L428.7498987018703,35.81350024342851L429.0079240836085,36.08786876160707L429.22294523505684,36.252464691627324L429.60998330766415,36.41704174634776L430.0400256105611,36.47189657154183L430.47006791345825,36.47189657154183L430.9431144466448,36.47189657154183L431.37315674954175,36.41704174634776L431.76019482214883,36.19760147929435L432.0612244341769,35.92325394780664L432.0612244341769,35.59396763492748L432.01822020388727,35.37440140999263L431.8462032827283,35.04498899772034L431.80319905243846,34.660578771975565L432.0612244341769,34.27606533351047L432.74929211881204,33.89144857408496L433.17933442170875,33.83649488205742L434.29744440924105,33.83649488205742L434.68448248184836,34.16618537850911L434.8564994030071,34.49579994294845L434.94250786358634,34.825338643565715L435.1575290150349,35.26460568507014L435.5015628573526,35.53907923102042L435.8455966996703,35.648853937806734L436.44765592372573,35.648853937806734L436.9207024569125,35.81350024342851L437.47975745067833,36.19760147929435L437.7807870627064,36.30732580670406L438.2968378261828,36.47189657154183L438.76988435936937,36.58159993424579L439.1999266622663,36.91065974345656L439.75898165603235,37.129991075600174L440.27503241950876,37.2944676051178L440.7910831829852,37.40410816778501L441.56515932819934,37.45892531295374L441.8231847099378,37.45892531295374L442.2102227825451,37.2944676051178L442.6402650854418,36.91065974345656L443.07030738833896,36.69129491545959L443.4143412306564,36.636448472381744L443.9733962244227,37.075161381703765L444.1024089152918,37.513740367764285L444.5324512181885,38.11656809646331L444.6614639090576,38.33571555954711L444.7474723696371,38.66437419968838L444.83348083021656,38.99295783435889L445.0485019816649,39.32146653090308L445.22051890282364,39.48569279840558L445.34953159369275,39.70463205316389L445.6505612057208,39.97825937867947L446.0375992783279,40.0329786145013L446.59665427209393,40.08769577462067L447.15570926585997,40.251834803875795L447.1987134961496,40.415955162995715L447.4567388778878,40.58005686036461L447.6717600293364,40.744139904360964L447.88678118078474,40.85351824151019L448.1448065625232,41.18160355777013L448.2308150231022,41.673591882946766L448.2308150231022,42.16541282963101L447.9727896413642,43.20315284590538L447.88678118078474,43.53070578744632L447.8007727202055,43.91275734665089L447.714764259626,44.567468806763145L447.62875579904653,44.94924746137883L447.54274733846705,45.385443054457255L447.4137346475984,45.7125038308036L447.4137346475984,46.093981755689015L447.37073041730855,46.366404736730374L447.1987134961496,46.63877671853504L446.89768388412176,47.020011886986936L446.76867119325266,47.34670546852317L446.63965850238355,47.78218299103639L446.5106458115147,48.489556660059066L446.3816331206456,48.87030816496815L446.12360773890714,49.35969995877065L446.12360773890714,50.06630995036676L446.12360773890714,50.609623842288784L446.0806035086175,50.989823579440895L446.0375992783279,51.47850680658394L445.73656966630006,52.12983103596241L445.6505612057208,52.56388652832686L445.6505612057208,52.943579792621335L445.34953159369275,53.26895302737864L445.177514672534,53.54004234420438L444.96249352108566,53.973681263783305L444.83348083021656,54.24464065478253L444.618459678768,54.62389997152161L444.44644275760925,54.94890161300589L444.36043429702977,55.27383153219216L444.36043429702977,55.59868979347755L444.31743006674014,56.19407737449535L444.36043429702977,56.57283527305151L444.4034385273196,56.68103396082131L444.36043429702977,56.897407545570445L443.8873877638432,57.27598503959507L443.7583750729741,57.38413221793189L443.4143412306564,57.38413221793189L443.07030738833896,57.492271480635736L442.8552862368906,57.65446553806282L442.5112523945729,57.65446553806282L442.3822397037038,57.70852626862279L441.9952016310965,57.65446553806282L441.8661889402274,57.60040283007629L441.65116778877905,57.492271480635736L441.56515932819934,57.38413221793189L441.39314240704084,57.43820283859009L441.00610433443353,57.60040283007629L440.8340874132746,57.76258502205144L440.6620704921161,58.03284914258177L440.4900535709571,58.24902488082466L440.3180366497984,58.303063879213596L440.0600112680602,58.51920013694814L439.9740028074807,58.73530483155059L440.0600112680602,58.95137798192047L439.8449901166118,59.275428603353134L439.801985886322,59.653398096466276L440.14601972863966,59.92331730487217L440.4470493406675,60.19318738751713L440.4470493406675,60.570923041942365L440.0600112680602,60.89461995760246L439.75898165603235,60.94856258274069L439.24293089255593,60.94856258274069L438.76988435936937,60.89461995760246L438.25383359589296,60.89461995760246L437.823791292996,60.840675372723126L437.43675322038894,60.678829856705875L437.17872783865073,60.62487742992812L436.70568130546394,60.840675372723126L436.44765592372573,61.00250324843205L436.2326347722774,61.16431349175525L436.2326347722774,61.48788111292424L436.31864323285663,61.919195053902854L436.5336643843052,62.242598426197105L436.6626770751741,62.512047542289L436.74868553575357,62.83532210327655L436.9207024569125,63.481660774329384L436.96370668720215,63.96623088111539L437.0067109174918,64.4506435982563L437.0497151477814,64.77349807571272L437.0497151477814,65.04249015610708L437.0497151477814,65.2576489478339L437.0067109174918,65.58032905795892L436.83469399633304,65.68787361662112L436.6626770751741,65.74164299512267L436.44765592372573,65.74164299512267L436.18963054198775,65.74164299512267L435.67357977851134,65.74164299512267L435.6305755482215,65.95670117702355L435.54456708764224,66.440469072513L435.5015628573526,66.70916146011643L435.41555439677313,66.92408065918733L435.32954593619365,67.19268629958708L435.1575290150349,67.30011507386428L434.8564994030071,67.56865332503992L434.727486712138,67.72975318932617L434.55546979097926,67.89083574830647L434.55546979097926,68.05190100976006L434.5984740212689,68.4276527286479L434.727486712138,68.58866038780036L434.727486712138,68.74965078308708L434.5984740212689,68.964277801977L434.5124655606894,69.0179297654912L434.2544401789514,68.964277801977L433.9534105669236,68.74965078308708L433.8243978760545,68.64232577071971L433.5663724943163,68.53499308667381L433.2223386519988,68.48132386705186L433.00731750055,68.48132386705186L432.7062878885224,68.4276527286479L432.4052582764946,68.4276527286479L432.1042286644665,68.4276527286479L431.7171905918592,68.37397967117454L431.4161609798314,68.26662779786761L431.15813559809317,68.10558558769264L430.98611867693444,67.99821451074286L430.59908060432736,68.10558558769264L430.2980509922993,68.4276527286479L430.2980509922993,68.58866038780036L430.12603407114057,68.80331041310933L429.7820002288231,68.80331041310933L429.4379663865054,68.74965078308708L429.1799410047672,68.64232577071971L428.96491985331886,68.53499308667381L428.5348775504217,68.48132386705186L428.19084370810424,68.48132386705186L427.71779717491745,68.53499308667381L427.28775487202074,68.91062392226684L427.115737950862,69.28616085016586L427.15874218115164,69.82247946980203L427.5027760234691,70.46580950637485L427.71779717491745,71.10886476606345L428.10483524752476,71.80519845863398L428.31985639897357,72.39415292899025L428.4918733201321,72.8758539399712L428.921915623029,73.19690264399821L429.1799410047672,73.30390372652266L429.09393254418796,73.67834789847109L428.7929029321599,73.83879560018863L428.663890241291,74.1061706354343L428.70689447158065,74.4804163622689L429.35195792592594,74.90801255970939L429.60998330766415,74.90801255970939L429.7820002288231,75.12176541955125L429.86800868940213,75.44233821157468L430.0400256105611,75.5491807518863L429.95401714998184,75.70943045414822L428.921915623029,75.76284326050984L428.663890241291,75.81625418681108L428.06183101723514,75.70943045414822L427.33075910231037,75.5491807518863L427.07273372057216,75.76284326050984L427.15874218115164,76.02987909705575L426.9867252599927,76.83070494989079L427.28775487202074,77.31099796248827L427.4167675628896,77.6311090560688L427.4167675628896,78.0044869079959L427.33075910231037,78.43109236345492L427.20174641144126,78.75096807468367L427.2447506417309,79.17736463075266L427.4167675628896,79.4970838319017L427.6317887143382,79.92327192691846L428.06183101723514,80.40259138941894L428.36286062926297,80.7220541795482L428.7498987018703,81.09467641473464L429.60998330766415,81.25434387185794L430.4270636831684,81.36077958665624L431.3301525192521,81.41399466790335L432.448262506784,81.62683649169719L432.87830480968114,81.83964872690183L433.30834711257785,81.83964872690183L434.1254274880823,81.78644844105929L434.4694613303998,81.89284716456723L434.81349517271747,82.10562243900984L434.81349517271747,82.4247299525091L434.5984740212689,82.74377104141274L434.55546979097926,83.00958791763571L434.55546979097926,83.32850738340142L434.55546979097926,83.85989262184648L434.3404486395307,84.28486848759155L434.0394190275026,84.60352328998601L433.91040633663397,84.7628259311117L433.738389415475,85.13446795235382L433.78139364576464,85.71829560500612L433.9534105669236,86.99133411946298L434.1254274880823,87.15039008737574L434.3834528698203,87.30942966962095L434.4694613303998,87.41544695828247L434.5984740212689,87.57445924748743L434.727486712138,87.68045834762233L434.94250786358634,87.83944336428442L435.1575290150349,87.9454242895523L435.32954593619365,88.10438205415375L435.5015628573526,88.26332347734365L435.6305755482215,88.47521996768774L435.7595882390906,88.6341232895561L435.8886009299597,88.89892590325366L436.1466263116979,89.26957348184465L436.275639002567,89.53426745525485L436.44765592372573,89.79891621967982L436.4906601540156,89.90476307454247L436.6626770751741,90.06351980908397L436.83469399633304,90.22226029283775L437.0067109174918,90.4338890048366L437.0497151477814,90.53969253728764L437.35074475980946,90.80416981712898L437.60877014154767,91.06860205080255L437.60877014154767,91.22723978293004L437.60877014154767,91.33298927216015L437.43675322038894,91.49160001313714L437.35074475980946,91.65019456916139L437.09271937807125,91.86162881321661L436.96370668720215,92.12588120050185L436.83469399633304,92.33725079716618L436.74868553575357,92.60142242988059L436.57666861459506,92.86554924615558L436.4906601540156,93.18244231542127L436.36164746314626,93.39366856413028L435.9746093905392,93.76324564795948L435.8455966996703,93.81603522513149L435.58757131793186,93.97439323892519L435.41555439677313,94.07995631937405L435.2435374756142,94.34383278555117L435.1575290150349,94.55490184883922L435.07152055445545,94.76594238881762L434.8564994030071,94.8714519679288L434.7704909424276,94.8714519679288L434.5124655606894,94.97695442264887L434.3404486395307,94.8714519679288L434.2544401789514,94.71318492694422L434.1254274880823,94.34383278555117L433.9534105669236,94.07995631937405L433.69538518518516,93.81603522513149L433.52336826402643,93.81603522513149L433.30834711257785,93.76324564795948L433.0933259611295,93.81603522513149L433.00731750055,93.97439323892519L433.00731750055,94.23828755230028L432.8353005793913,94.34383278555117L432.62027942794293,94.55490184883922L432.4912667370736,94.6076646572231L432.3622540462047,94.76594238881762L432.27624558562525,94.92420408570416L432.190237125046,95.18793796748713L431.9752159735974,95.39889304047654L431.88920751301794,95.50435990538284L431.7171905918592,95.55709067087508L431.3301525192521,95.55709067087508L431.11513136780354,95.60981965875118L430.90011021635496,95.71527230272278L430.8141017557757,95.92615627103265L430.8141017557757,96.13701182742352L430.8141017557757,96.34783898899644L430.8141017557757,96.50594073635875L430.6850890649066,96.71671824812245L430.47006791345825,96.82209637249827L430.25504676200967,97.08551069199154L430.08302984085094,97.3488807646425L429.99702138027146,97.45421641204706L429.82500445911273,97.45421641204706L429.5669790773745,97.3488807646425L429.35195792592594,97.3488807646425L429.22294523505684,97.3488807646425L428.96491985331886,97.40154947248249L428.83590716244953,97.45421641204706L428.70689447158065,97.71752459505592L428.6208860110012,97.92813933965061L428.4058648595526,98.13872583441014L428.2338479383941,98.0860818582118L428.10483524752476,97.92813933965061L427.8898140960764,97.66486649287538L427.6747929446278,97.45421641204706L427.45977179317947,97.29621028826136L427.20174641144126,97.19086402880743L426.94372102970306,97.0328313689057L426.7717041085443,96.92746741204849L426.4706744965165,96.55863777284316L426.2556533450679,96.4532419270675L426.04063219361956,96.34783898899644L425.825611042171,96.2951348596821L425.6965983513021,96.13701182742352L425.6965983513021,95.97887282307977L425.52458143014314,95.50435990538284L425.43857296956367,95.13519475118272L425.2235518181153,94.50213725774802L425.18054758782546,94.29106106094969L425.18054758782546,93.92160902034516L425.30956027869456,93.76324564795948L425.30956027869456,93.55206946923823L425.39556873927404,93.28805901808721L425.43857296956367,92.70707853247603L425.3525645089844,92.60142242988059L425.30956027869456,92.44292483038186L425.2235518181153,92.23156958792549L425.094539127246,92.12588120050185L424.92252220608725,92.07303431429631L424.7505052849285,92.2844110896836L424.53548413348017,92.44292483038186L424.1914502911625,92.49575915665503L423.847416448845,92.60142242988059L423.54638683681696,92.65425137737219L423.4173741459481,92.9183692344032L423.11634453392026,93.28805901808721L422.9443276127613,93.49927095570473L422.64329800073347,93.49927095570473L422.299264158416,93.39366856413028L421.9122260858087,93.28805901808721L421.65420070407026,93.4464706540914L421.3101668617528,93.60486619496163L420.70810763769737,93.97439323892519L420.45008225595916,94.0271756718455L420.1920568742207,94.18551225933271L420.0630441833516,94.50213725774802L420.1490526439311,94.8714519679288Z"></path>
<circle class="distCircs" cx="376.50667335564674" cy="74.42789122843743" r="2.6299022508894714" stroke="#000" stroke-width="0.25" fill="#eef7b7" data-q="JAMMU &amp; KASHMIR" data-r="ANANTNAG"><title>JAMMU &amp; KASHMIR - ANANTNAG: Census 2011 Total Rural Households = 109,465. Census 2011 Households with toilets = 55,613. Census 2001 Total Rural Households = 135,580. Census 2001 Households with toilets = 63,834. Difference between Census 2011 Households with toilets and Census 2001 Households with toilets = 3.7%</title></circle><circle class="distCircs" cx="364.54244325560416" cy="61.86573762027001" r="2.453667907228444" stroke="#000" stroke-width="0.25" fill="#eee" data-q="JAMMU &amp; KASHMIR" data-r="BANDIPORA"><title>JAMMU &amp; KASHMIR - BANDIPORA: Census 2011 Total Rural Households = 47,620. Census 2011 Households with toilets = 33,382. Census 2001 Total Rural Households = NaN. Census 2001 Households with toilets = 0. Difference between Census 2011 Households with toilets and Census 2001 Households with toilets = NaN%</title></circle><circle class="distCircs" cx="360.23051929171936" cy="65.2322266184737" r="2.649732398107065" stroke="#000" stroke-width="0.25" fill="#eff8b7" data-q="JAMMU &amp; KASHMIR" data-r="BARAMULLA"><title>JAMMU &amp; KASHMIR - BARAMULLA: Census 2011 Total Rural Households = 119,791. Census 2011 Households with toilets = 89,048. Census 2001 Total Rural Households = 128,833. Census 2001 Households with toilets = 91,281. Difference between Census 2011 Households with toilets and Census 2001 Households with toilets = 3.5%</title></circle><circle class="distCircs" cx="364.50945977530824" cy="69.62610471289668" r="2.5777637740502595" stroke="#000" stroke-width="0.25" fill="#cbe7a6" data-q="JAMMU &amp; KASHMIR" data-r="BUDGAM"><title>JAMMU &amp; KASHMIR - BUDGAM: Census 2011 Total Rural Households = 86,083. Census 2011 Households with toilets = 71,734. Census 2001 Total Rural Households = 77,005. Census 2001 Households with toilets = 55,364. Difference between Census 2011 Households with toilets and Census 2001 Households with toilets = 11.4%</title></circle><circle class="distCircs" cx="377.6407774115005" cy="82.1489370814914" r="2.541371061519866" stroke="#000" stroke-width="0.25" fill="#cfeaa8" data-q="JAMMU &amp; KASHMIR" data-r="DODA"><title>JAMMU &amp; KASHMIR - DODA: Census 2011 Total Rural Households = 72,580. Census 2011 Households with toilets = 17,417. Census 2001 Total Rural Households = 104,080. Census 2001 Households with toilets = 14,150. Difference between Census 2011 Households with toilets and Census 2001 Households with toilets = 10.4%</title></circle><circle class="distCircs" cx="367.64457656610807" cy="88.81819417922378" r="2.708481037905535" stroke="#000" stroke-width="0.25" fill="#fef7b9" data-q="JAMMU &amp; KASHMIR" data-r="JAMMU"><title>JAMMU &amp; KASHMIR - JAMMU: Census 2011 Total Rural Households = 155,851. Census 2011 Households with toilets = 38,369. Census 2001 Total Rural Households = 165,829. Census 2001 Households with toilets = 43,876. Difference between Census 2011 Households with toilets and Census 2001 Households with toilets = -1.8%</title></circle><circle class="distCircs" cx="373.15554135450583" cy="60" r="2.233873771601945" stroke="#000" stroke-width="0.25" fill="#ffffbf" data-q="JAMMU &amp; KASHMIR" data-r="KARGIL"><title>JAMMU &amp; KASHMIR - KARGIL: Census 2011 Total Rural Households = 15,442. Census 2011 Households with toilets = 14,949. Census 2001 Total Rural Households = 14,616. Census 2001 Households with toilets = 14,156. Difference between Census 2011 Households with toilets and Census 2001 Households with toilets = -0.0%</title></circle><circle class="distCircs" cx="377.2739395013739" cy="94.51481964758369" r="2.610771980764568" stroke="#000" stroke-width="0.25" fill="#fdf5b8" data-q="JAMMU &amp; KASHMIR" data-r="KATHUA"><title>JAMMU &amp; KASHMIR - KATHUA: Census 2011 Total Rural Households = 100,283. Census 2011 Households with toilets = 14,258. Census 2001 Total Rural Households = 81,360. Census 2001 Households with toilets = 13,439. Difference between Census 2011 Households with toilets and Census 2001 Households with toilets = -2.3%</title></circle><circle class="distCircs" cx="382.32937884661305" cy="79.51510499110185" r="2.4279692907975248" stroke="#000" stroke-width="0.25" fill="#eee" data-q="JAMMU &amp; KASHMIR" data-r="KISHTWAR"><title>JAMMU &amp; KASHMIR - KISHTWAR: Census 2011 Total Rural Households = 41,968. Census 2011 Households with toilets = 8,380. Census 2001 Total Rural Households = NaN. Census 2001 Households with toilets = 0. Difference between Census 2011 Households with toilets and Census 2001 Households with toilets = NaN%</title></circle><circle class="distCircs" cx="368.53280284938336" cy="77.40502291669185" r="2.48820399679957" stroke="#000" stroke-width="0.25" fill="#eee" data-q="JAMMU &amp; KASHMIR" data-r="KULGAM"><title>JAMMU &amp; KASHMIR - KULGAM: Census 2011 Total Rural Households = 56,316. Census 2011 Households with toilets = 23,508. Census 2001 Total Rural Households = NaN. Census 2001 Households with toilets = 0. Difference between Census 2011 Households with toilets and Census 2001 Households with toilets = NaN%</title></circle><circle class="distCircs" cx="358.99866692637767" cy="60.22323599311483" r="2.6029513509897706" stroke="#000" stroke-width="0.25" fill="#fffebf" data-q="JAMMU &amp; KASHMIR" data-r="KUPWARA"><title>JAMMU &amp; KASHMIR - KUPWARA: Census 2011 Total Rural Households = 96,737. Census 2011 Households with toilets = 47,288. Census 2001 Total Rural Households = 83,414. Census 2001 Households with toilets = 40,894. Difference between Census 2011 Households with toilets and Census 2001 Households with toilets = -0.1%</title></circle><circle class="distCircs" cx="405.52515874151067" cy="66.49557809728287" r="2.223333479036479" stroke="#000" stroke-width="0.25" fill="#f2f9b9" data-q="JAMMU &amp; KASHMIR" data-r="LEH (LADAKH)"><title>JAMMU &amp; KASHMIR - LEH (LADAKH): Census 2011 Total Rural Households = 14,590. Census 2011 Households with toilets = 12,851. Census 2001 Total Rural Households = 17,298. Census 2001 Households with toilets = 14,757. Difference between Census 2011 Households with toilets and Census 2001 Households with toilets = 2.8%</title></circle><circle class="distCircs" cx="356.6121760202527" cy="72.17074565308417" r="2.56648391240151" stroke="#000" stroke-width="0.25" fill="#f6ce9b" data-q="JAMMU &amp; KASHMIR" data-r="POONCH"><title>JAMMU &amp; KASHMIR - POONCH: Census 2011 Total Rural Households = 81,670. Census 2011 Households with toilets = 11,158. Census 2001 Total Rural Households = 55,239. Census 2001 Households with toilets = 14,037. Difference between Census 2011 Households with toilets and Census 2001 Households with toilets = -11.7%</title></circle><circle class="distCircs" cx="371.07676718947147" cy="70.63066985874553" r="2.5369016337747623" stroke="#000" stroke-width="0.25" fill="#f7fbbb" data-q="JAMMU &amp; KASHMIR" data-r="PULWAMA"><title>JAMMU &amp; KASHMIR - PULWAMA: Census 2011 Total Rural Households = 71,063. Census 2011 Households with toilets = 44,562. Census 2001 Total Rural Households = 83,398. Census 2001 Households with toilets = 50,861. Difference between Census 2011 Households with toilets and Census 2001 Households with toilets = 1.7%</title></circle><circle class="distCircs" cx="359.46653010995357" cy="78.3934767584409" r="2.644876417617625" stroke="#000" stroke-width="0.25" fill="#fae4ab" data-q="JAMMU &amp; KASHMIR" data-r="RAJAURI"><title>JAMMU &amp; KASHMIR - RAJAURI: Census 2011 Total Rural Households = 117,183. Census 2011 Households with toilets = 11,950. Census 2001 Total Rural Households = 75,253. Census 2001 Households with toilets = 12,543. Difference between Census 2011 Households with toilets and Census 2001 Households with toilets = -6.5%</title></circle><circle class="distCircs" cx="373.15153906606974" cy="80.64612076267923" r="2.4727572069086943" stroke="#000" stroke-width="0.25" fill="#eee" data-q="JAMMU &amp; KASHMIR" data-r="RAMBAN"><title>JAMMU &amp; KASHMIR - RAMBAN: Census 2011 Total Rural Households = 52,261. Census 2011 Households with toilets = 9,284. Census 2001 Total Rural Households = NaN. Census 2001 Households with toilets = 0. Difference between Census 2011 Households with toilets and Census 2001 Households with toilets = NaN%</title></circle><circle class="distCircs" cx="367.3019705618886" cy="83.16021805044318" r="2.46330694460742" stroke="#000" stroke-width="0.25" fill="#eee" data-q="JAMMU &amp; KASHMIR" data-r="REASI"><title>JAMMU &amp; KASHMIR - REASI: Census 2011 Total Rural Households = 49,914. Census 2011 Households with toilets = 4,492. Census 2001 Total Rural Households = NaN. Census 2001 Households with toilets = 0. Difference between Census 2011 Households with toilets and Census 2001 Households with toilets = NaN%</title></circle><circle class="distCircs" cx="371.3105961955268" cy="91.5755637402873" r="2.4764178653933095" stroke="#000" stroke-width="0.25" fill="#eee" data-q="JAMMU &amp; KASHMIR" data-r="SAMBA"><title>JAMMU &amp; KASHMIR - SAMBA: Census 2011 Total Rural Households = 53,197. Census 2011 Households with toilets = 13,844. Census 2001 Total Rural Households = NaN. Census 2001 Households with toilets = 0. Difference between Census 2011 Households with toilets and Census 2001 Households with toilets = NaN%</title></circle><circle class="distCircs" cx="365.7760005669223" cy="74.54379318310941" r="2.4156662318820867" stroke="#000" stroke-width="0.25" fill="#eee" data-q="JAMMU &amp; KASHMIR" data-r="SHOPIAN"><title>JAMMU &amp; KASHMIR - SHOPIAN: Census 2011 Total Rural Households = 39,486. Census 2011 Households with toilets = 23,296. Census 2001 Total Rural Households = NaN. Census 2001 Households with toilets = 0. Difference between Census 2011 Households with toilets and Census 2001 Households with toilets = NaN%</title></circle><circle class="distCircs" cx="371.14610503054064" cy="65.67407472555175" r="1.931135244129519" stroke="#000" stroke-width="0.25" fill="#1a9850" data-q="JAMMU &amp; KASHMIR" data-r="SRINAGAR"><title>JAMMU &amp; KASHMIR - SRINAGAR: Census 2011 Total Rural Households = 2,690. Census 2011 Households with toilets = 27,831. Census 2001 Total Rural Households = 37,008. Census 2001 Households with toilets = 31,921. Difference between Census 2011 Households with toilets and Census 2001 Households with toilets = 948.4%</title></circle><circle class="distCircs" cx="371.60706029317305" cy="85.76321898510218" r="2.5542088720120417" stroke="#000" stroke-width="0.25" fill="#f2bb8d" data-q="JAMMU &amp; KASHMIR" data-r="UDHAMPUR"><title>JAMMU &amp; KASHMIR - UDHAMPUR: Census 2011 Total Rural Households = 77,104. Census 2011 Households with toilets = 5,710. Census 2001 Total Rural Households = 102,444. Census 2001 Households with toilets = 24,321. Difference between Census 2011 Households with toilets and Census 2001 Households with toilets = -16.3%</title></circle></g></g></svg>