<?xml version="1.0" standalone="no"?><!DOCTYPE svg PUBLIC "-//W3C//DTD SVG 1.1//EN" "http://www.w3.org/Graphics/SVG/1.1/DTD/svg11.dtd"><svg id="chart" width="960" height="500" class="dorlingCart" data-type="dorlingCart" version="1.1" xmlns:xlink="http://www.w3.org/1999/xlink" xmlns="http://www.w3.org/2000/svg"><defs class="svg-crowbar"><style type="text/css"><![CDATA[.feature{ fill: #fcfcfc; stroke: #000000; stroke-width: 0.2px; cursor: pointer; }]]></style></defs>
<g><g transform="translate(-1619.2978515625,-720.251708984375)scale(4,4)">
<path class="feature" data-q="JHARKHAND" d="M494.4603625845252,228.7364071793707L494.7613921965533,228.68752164756694L494.933409117712,228.68752164756694L495.01941757829127,228.63863493500946L495.3204471903191,228.63863493500946L495.49246411147806,228.63863493500946L495.6644810326368,228.63863493500946L495.87950218408514,228.63863493500946L496.00851487495424,228.63863493500946L496.180531796113,228.63863493500946L496.35254871727193,228.68752164756694L496.52456563843066,228.68752164756694L496.6965825595894,228.7364071793707L496.8685994807481,228.7364071793707L496.9976121716172,228.7364071793707L497.42765447451416,228.78529153061368L497.5996713956729,228.78529153061368L497.81469254712147,228.78529153061368L497.9867094682802,228.83417470149095L498.20173061972855,228.83417470149095L498.28773908030803,228.88305669219523L498.54576446204624,228.83417470149095L498.7607856134948,228.78529153061368L498.9758067649434,228.78529153061368L499.06181522552265,228.7364071793707L499.2338321466814,228.63863493500946L499.31984060726086,228.58974704150341L499.4918575284196,228.54085796685575L499.66387444957854,228.49196771087168L499.7928871404474,228.44307627335735L499.9218998313165,228.3941836541186L500.09391675247525,228.34528985296174L500.2659336736342,228.2474987041167L500.3949463645033,228.19860135604023L500.56696328566204,228.19860135604023L500.69597597653114,228.19860135604023L500.8249886674,228.14970282526906L500.9540013582691,228.1008031116084L501.08301404913846,228.00300013484372L501.21202674000756,227.90519242419288L501.2980352005868,227.85628679317426L501.47005212174577,227.61174087337537L501.55606058232524,227.5628281351144L501.64206904290427,227.41608280822794L501.77108173377337,227.26932680910363L501.85709019435285,227.12256013248947L501.9000944246427,227.02470974688026L501.98610288522195,226.87792526277235L502.0291071155116,226.8289947257727L502.0721113458012,226.73113008716012L502.1581198063807,226.63326069442974L502.24412826696016,226.58432421478363L502.33013672753964,226.58432421478363L502.4161451881189,226.68219598515702L502.4591494184085,226.78006300063333L502.50215364869837,226.9268546118264L502.63116633956747,227.02470974688026L502.7171748001467,227.0736355332677L502.8461874910158,227.17148354474L502.9321959515953,227.26932680910363L502.97520018188493,227.26932680910363L503.0182044121748,227.31824666160736L503.0612086424644,227.41608280822794L503.1902213333335,227.51391421163208L503.36223825449224,227.85628679317426L503.4482467150715,228.00300013484372L503.49125094536134,228.14970282526906L503.5772594059406,228.2474987041167L503.7062720968099,228.49196771087168L503.74927632709955,228.58974704150341L503.7922805573892,228.78529153061368L503.87828901796865,228.93193750292176L503.9212932482583,229.07857285716722L503.9212932482583,229.2251975985846L504.00730170883753,229.3718117324056L504.13631439970663,229.3718117324056L504.2223228602861,229.32294153276405L504.26532709057574,229.17632386365898L504.26532709057574,229.12744894991778L504.30833132086536,228.9808171338628L504.26532709057574,228.88305669219523L504.26532709057574,228.78529153061368L504.3513355511552,228.68752164756694L504.4803482420243,228.68752164756694L504.5663567026038,228.68752164756694L504.6093609328934,228.78529153061368L504.6093609328934,228.93193750292176L504.5663567026038,229.07857285716722L504.6093609328934,229.2251975985846L504.6093609328934,229.32294153276405L504.65236516318305,229.3718117324056L504.6953693934727,229.42068075400584L504.78137785405215,229.42068075400584L504.86738631463163,229.42068075400584L504.9533947752109,229.3718117324056L504.9963990055005,229.32294153276405L505.03940323579013,229.2251975985846L505.03940323579013,229.12744894991778L504.9963990055005,229.02969558521352L504.86738631463163,228.7364071793707L504.8243820843418,228.63863493500946L504.8243820843418,228.54085796685575L504.9533947752109,228.44307627335735L505.08240746608,228.44307627335735L505.16841592665946,228.3941836541186L505.2114201569491,228.3941836541186L505.29742861752857,228.3941836541186L505.3404328478182,228.44307627335735L505.4694455386873,228.44307627335735L505.5124497689769,228.44307627335735L505.5124497689769,228.3941836541186L505.5984582295564,228.34528985296174L505.68446669013565,228.34528985296174L505.7274709204253,228.34528985296174L505.81347938100475,228.44307627335735L505.89948784158423,228.54085796685575L505.89948784158423,228.58974704150341L506.02850053245334,228.63863493500946L506.1145089930328,228.58974704150341L506.15751322332244,228.54085796685575L506.20051745361206,228.44307627335735L506.20051745361206,228.34528985296174L506.15751322332244,228.19860135604023L506.15751322332244,228.1008031116084L506.2435216839017,228.00300013484372L506.372534374771,227.95409687135162L506.4585428353505,227.95409687135162L506.5875555262194,227.90519242419288L506.67356398679885,227.95409687135162L506.7165682170885,228.05190221486492L506.7165682170885,228.19860135604023L506.7165682170885,228.34528985296174L506.7165682170885,228.49196771087168L506.7165682170885,228.63863493500946L506.7165682170885,228.7364071793707L506.7595724473781,228.83417470149095L506.8455809079576,228.93193750292176L506.93158936853683,229.02969558521352L507.0175978291163,229.07857285716722L507.06060205940616,229.17632386365898L507.0175978291163,229.42068075400584L506.8885851382472,229.51841526385925L506.7595724473781,229.5672807524997L506.630559756509,229.5672807524997L506.5875555262194,229.66500819817475L506.5875555262194,229.76273093633398L506.67356398679885,229.81159054057878L506.80257667766796,229.90930622036632L506.93158936853683,229.9581622962961L507.0175978291163,230.00701719650755L507.14661051998564,230.0558709211944L507.2326189805649,230.15357484476687L507.2756232108543,230.20242504404L507.31862744114414,230.25127406856194L507.4046359017236,230.39781409555206L507.4046359017236,230.49550157666647L507.44764013201325,230.5931843634139L507.57665282288235,230.73969974497777L507.70566551375146,230.83737080256896L507.83467820462056,230.886204572908L507.92068666520004,230.886204572908L508.0066951257793,230.93503717120075L508.09270358635877,230.9838685976393L508.17871204693824,231.0326988524174L508.22171627722787,231.13035584776378L508.3077247378071,231.22800815878225L508.35072896809675,231.2768325581511L508.4367374286762,231.3744778455727L508.5657501195453,231.569754380549L508.6517585801248,231.716199502971L508.7807712709939,231.81382374042386L508.86677973157316,231.8626341064799L508.99579242244226,231.8626341064799L509.08180088302197,231.91144330434594L509.21081357389085,232.0090581962782L509.2968220344703,232.05786389072944L509.33982626475995,232.10666841776106L509.2968220344703,232.204273970335L509.25381780418047,232.25307499626257L509.25381780418047,232.3018748555404L509.25381780418047,232.3994710749161L509.2968220344703,232.44826743539977L509.3828304950496,232.49706263000263L509.46883895562905,232.59464952233827L509.5548474162083,232.64344122045543L509.59785164649793,232.59464952233827L509.6408558767878,232.49706263000263L509.6408558767878,232.3994710749161L509.6408558767878,232.35067354836087L509.6408558767878,232.204273970335L509.6408558767878,232.05786389072944L509.6408558767878,232.0090581962782L509.7698685676569,231.91144330434594L509.7698685676569,231.8626341064799L509.7698685676569,231.6673856311882L509.72686433736726,231.569754380549L509.85587702823614,231.4232987340106L510.0278939493951,231.3744778455727L510.11390240997457,231.2768325581511L510.2859193311331,231.1791825887172L510.3289235614229,231.0815279357277L510.3289235614229,230.9838685976393L510.37192779171255,230.886204572908L510.45793625229203,230.83737080256896L510.5439447128715,230.7885358599895L510.5439447128715,230.73969974497777L510.5439447128715,230.6420239968831L510.58694894316113,230.5931843634139L510.62995317345053,230.49550157666647L510.71596163403,230.4466584230023L510.75896586431986,230.39781409555206L510.84497432489934,230.34896859412436L510.9309827854786,230.39781409555206L510.9309827854786,230.54434355673936L510.9739870157682,230.6420239968831L510.9739870157682,230.69086245734002L511.0599954763477,230.7885358599895L511.1460039369272,230.7885358599895L511.2750166277963,230.7885358599895L511.4040293186654,230.7885358599895L511.7050589306932,230.7885358599895L511.74806316098284,230.7885358599895L511.79106739127246,230.83737080256896L511.87707585185194,230.886204572908L511.9630843124314,230.886204572908L512.006088542721,230.83737080256896L512.006088542721,230.73969974497777L512.006088542721,230.6420239968831L512.006088542721,230.54434355673936L512.006088542721,230.30012191852546L512.1351012335901,230.15357484476687L512.2211096941694,229.90930622036632L512.2641139244593,229.86044896852496L512.3501223850385,229.76273093633398L512.436130845618,229.66500819817475L512.5651435364871,229.61614506387338L512.6511519970666,229.61614506387338L512.6941562273562,229.61614506387338L512.7801646879357,229.61614506387338L512.8661731485149,229.66500819817475L512.9521816090944,229.66500819817475L513.0381900696736,229.66500819817475L513.1241985302531,229.66500819817475L513.167202760543,229.5672807524997L513.253211221122,229.46954859775923L513.3392196817015,229.27407015488814L513.4682323725708,229.27407015488814L513.5542408331501,229.2251975985846L513.5972450634397,229.17632386365898L513.6402492937295,229.12744894991778L513.6402492937295,229.02969558521352L513.6832535240192,228.88305669219523L513.7692619845986,228.83417470149095L513.8552704451781,228.78529153061368L513.9412789057571,228.78529153061368L513.9842831360472,228.78529153061368L514.1132958269161,228.78529153061368L514.1993042874956,228.83417470149095L514.2853127480748,228.88305669219523L514.3713212086543,228.9808171338628L514.4143254389439,229.07857285716722L514.4573296692336,229.17632386365898L514.4143254389439,229.27407015488814L514.3713212086543,229.3718117324056L514.3713212086543,229.5672807524997L514.3283169783647,229.71387015559708L514.2423085177852,229.81159054057878L514.2423085177852,229.90930622036632L514.2853127480748,230.00701719650755L514.3283169783647,230.0558709211944L514.4143254389439,230.10472347054974L514.5863423601029,230.10472347054974L514.7583592812616,230.0558709211944L514.8873719721307,230.0558709211944L514.97338043271,230.0558709211944L515.1023931235791,230.20242504404L515.1453973538687,230.34896859412436L515.1453973538687,230.39781409555206L515.1453973538687,230.6420239968831L515.2314058144482,230.83737080256896L515.2744100447378,231.0326988524174L515.4464269658968,231.2768325581511L515.532435426476,231.2768325581511L515.704452347635,231.2768325581511L515.8764692687935,231.32565578701684L515.962477729373,231.3744778455727L516.1344946505319,231.3744778455727L516.3495158019803,231.4232987340106L516.4785284928494,231.47211845252446L516.6075411837187,231.47211845252446L516.6505454140081,231.32565578701684L516.822562335167,231.1791825887172L516.9945792563258,230.93503717120075L517.1235919471947,230.886204572908L517.2096004077744,230.83737080256896L517.2956088683538,230.7885358599895L517.4676257895123,230.7885358599895L517.5966384803814,230.7885358599895L517.6826469409609,230.7885358599895L517.7686554015402,230.5931843634139L517.8546638621197,230.4466584230023L517.9836765529888,230.4466584230023L518.0696850135682,230.54434355673936L518.1126892438576,230.6420239968831L518.1126892438576,230.73969974497777L518.1556934741473,230.93503717120075L518.1556934741473,231.13035584776378L518.1556934741473,231.32565578701684L518.1556934741473,231.3744778455727L518.1986977044373,231.4232987340106L518.2417019347267,231.47211845252446L518.3277103953064,231.5209370013061L518.3707146255961,231.47211845252446L518.4567230861753,231.4232987340106L518.4997273164649,231.32565578701684L518.4997273164649,231.22800815878225L518.5427315467548,231.13035584776378L518.5857357770444,231.0326988524174L518.628740007334,230.93503717120075L518.7147484679135,230.886204572908L518.8437611587824,230.83737080256896L518.9297696193621,230.7885358599895L519.0587823102312,230.69086245734002L519.1447907708105,230.6420239968831L519.2307992313899,230.5931843634139L519.2738034616796,230.49550157666647L519.3168076919692,230.4466584230023L519.2738034616796,230.39781409555206L519.1877950011001,230.30012191852546L519.1447907708105,230.20242504404L519.1017865405208,230.10472347054974L519.1447907708105,230.00701719650755L519.2307992313899,229.9581622962961L519.2738034616796,229.86044896852496L519.4028161525487,229.86044896852496L519.5318288434178,229.86044896852496L519.6608415342869,229.86044896852496L519.789854225156,229.86044896852496L519.8758626857352,229.86044896852496L520.047879606894,229.81159054057878L520.1338880674734,229.76273093633398L520.3059049886324,229.61614506387338L520.5209261400807,229.46954859775923L520.6069346006602,229.3718117324056L520.6929430612395,229.2251975985846L520.7359472915291,229.17632386365898L520.7789515218187,229.07857285716722L520.9079642126881,229.02969558521352L521.0369769035572,228.9808171338628L521.2089938247159,228.9808171338628L521.338006515585,228.9808171338628L521.510023436744,229.02969558521352L521.639036127613,229.07857285716722L521.6820403579025,229.07857285716722L521.8540572790614,229.07857285716722L521.9830699699305,229.07857285716722L522.1550868910892,229.02969558521352L522.2840995819581,229.02969558521352L522.4131122728274,228.93193750292176L522.4991207334067,228.88305669219523L522.5421249636966,228.83417470149095L522.5421249636966,228.78529153061368L522.4561165031171,228.7364071793707L522.4131122728274,228.7364071793707L522.327103812248,228.63863493500946L522.327103812248,228.54085796685575L522.3701080425376,228.49196771087168L522.4561165031171,228.44307627335735L522.6281334242758,228.44307627335735L522.7571461151449,228.49196771087168L522.8001503454345,228.54085796685575L522.9291630363039,228.54085796685575L523.1011799574626,228.58974704150341L523.2301926483317,228.58974704150341L523.4882180300697,228.58974704150341L523.6602349512286,228.58974704150341L523.7892476420977,228.63863493500946L523.9612645632565,228.68752164756694L524.1762857147048,228.7364071793707L524.2622941752843,228.78529153061368L524.434311096443,228.83417470149095L524.5203195570225,228.83417470149095L524.6493322478916,228.78529153061368L524.7783449387605,228.68752164756694L524.8213491690506,228.58974704150341L524.9503618599192,228.58974704150341L525.0363703204987,228.49196771087168L525.165383011368,228.3941836541186L525.2083872416576,228.29639486969256L525.2943957022369,228.2474987041167L525.423408393106,228.14970282526906L525.5094168536855,228.1008031116084L525.6384295445544,228.05190221486492L525.7244380051338,228.05190221486492L525.8964549262928,228.1008031116084L526.0254676171617,228.14970282526906L526.1974845383206,228.19860135604023L526.4125056897692,228.14970282526906L526.4985141503485,228.1008031116084L526.5845226109279,228.05190221486492L526.6275268412176,227.90519242419288L526.6705310715072,227.70956279501326L526.6705310715072,227.41608280822794L526.6275268412176,227.26932680910363L526.5845226109279,227.17148354474L526.5845226109279,227.02470974688026L526.5415183806383,226.87792526277235L526.5415183806383,226.78006300063333L526.5415183806383,226.68219598515702L526.5415183806383,226.58432421478363L526.6705310715072,226.48644768795617L526.7565395320867,226.4375076403847L526.8425479926659,226.38856640311417L527.0145649138249,226.09489398491115L527.1005733744043,225.9969936524172L527.2295860652735,225.89908855410937L527.3585987561423,225.75222196733142L527.401602986432,225.55638315670717L527.3585987561423,225.4094915207137L527.3585987561423,225.2625891405546L527.3155945258527,225.11567601095317L527.3155945258527,225.01772795003433L527.3155945258527,224.87079689296792L527.3155945258527,224.77283687551812L527.3585987561423,224.62588787632086L527.4446072167218,224.47892810480175L527.5736199075907,224.3319575556763L527.70263259846,224.2829649766968L527.8316452893291,224.2829649766968L527.9176537499084,224.2829649766968L528.0896706710671,224.3319575556763L528.2616875922258,224.3319575556763L528.3907002830949,224.38094893655608L528.4767087436744,224.42993911953283L528.6057214345435,224.5279158925586L528.691729895123,224.5279158925586L528.8637468162817,224.5279158925586L528.9927595071506,224.5279158925586L529.1217721980199,224.5279158925586L529.2937891191787,224.5279158925586L529.4228018100478,224.5769024830003L529.5518145009169,224.62588787632086L529.6808271917857,224.77283687551812L529.8098398826548,224.87079689296792L529.9388525735242,225.01772795003433L530.0678652643933,225.11567601095317L530.239882185552,225.2625891405546L530.3258906461315,225.36052525471752L530.4549033370006,225.50742047151368L530.5839160278695,225.50742047151368L530.8419414096077,225.55638315670717L530.9279498701869,225.55638315670717L531.0569625610563,225.60534464869056L531.1429710216357,225.60534464869056L531.2719837125046,225.55638315670717L531.3579921730841,225.4584565929141L531.4870048639532,225.4094915207137L531.5730133245324,225.36052525471752L531.7020260154015,225.31155779472942L531.8310387062706,225.31155779472942L531.9170471668501,225.31155779472942L532.0890640880089,225.4584565929141L532.1750725485883,225.50742047151368L532.2610810091676,225.55638315670717L532.3470894697473,225.55638315670717L532.5191063909058,225.55638315670717L532.6051148514853,225.55638315670717L532.6911233120647,225.55638315670717L532.777131772644,225.60534464869056L532.8631402332232,225.65430494765906L533.0351571543822,225.70326405380763L533.1211656149615,225.80117868842655L533.2071740755409,225.85013421728758L533.2931825361204,225.94804169908747L533.3791909966999,226.04594441429305L533.4651994572791,226.14384236446563L533.5082036875688,226.3396239759512L533.4651994572791,226.5353865460243L533.4221952269895,226.68219598515702L533.4221952269895,226.8289947257727L533.33618676641,226.9757827731314L533.2931825361204,227.0736355332677L533.2931825361204,227.2204057702133L533.2931825361204,227.36716532791706L533.2931825361204,227.46499910273508L533.3791909966999,227.5628281351144L533.5082036875688,227.66065242661023L533.5512079178584,227.75847197877874L533.6802206087277,227.80737997810076L533.7232248390173,227.85628679317426L533.8092332995968,227.95409687135162L533.9382459904659,228.1008031116084L533.9812502207553,228.1008031116084L534.067258681335,228.14970282526906L534.1962713722039,228.14970282526906L534.325284063073,228.14970282526906L534.4542967539421,228.14970282526906L534.5403052145216,228.1008031116084L534.6263136751011,228.05190221486492L534.7123221356803,228.00300013484372L534.7983305962598,227.85628679317426L534.7983305962598,227.80737997810076L534.884339056839,227.80737997810076L534.9273432871287,227.75847197877874L535.0133517477082,227.80737997810076L535.0563559779978,227.85628679317426L535.1423644385773,227.95409687135162L535.2283728991567,228.05190221486492L535.3143813597362,228.00300013484372L535.3143813597362,227.90519242419288L535.3573855900258,227.85628679317426L535.4003898203155,227.85628679317426L535.486398280895,227.90519242419288L535.6154109717638,228.00300013484372L535.6154109717638,228.05190221486492L535.6154109717638,228.1008031116084L535.6584152020537,228.1008031116084L535.6584152020537,228.19860135604023L535.6584152020537,228.29639486969256L535.5724067414742,228.34528985296174L535.5294025111846,228.44307627335735L535.5294025111846,228.54085796685575L535.5294025111846,228.63863493500946L535.6154109717638,228.68752164756694L535.6154109717638,228.78529153061368L535.7014194323433,228.88305669219523L535.7444236626329,228.9808171338628L535.7444236626329,229.07857285716722L535.6584152020537,229.17632386365898L535.6154109717638,229.2251975985846L535.4003898203155,229.42068075400584L535.3143813597362,229.51841526385925L535.2283728991567,229.61614506387338L535.1853686688669,229.71387015559708L535.1853686688669,229.76273093633398L535.2713771294464,229.86044896852496L535.3143813597362,229.9581622962961L535.4003898203155,230.00701719650755L535.5294025111846,230.00701719650755L535.6584152020537,230.0558709211944L535.7444236626329,230.10472347054974L536.0024490443714,230.25127406856194L536.1314617352402,230.30012191852546L536.3894871169784,230.49550157666647L536.5615040381372,230.6420239968831L536.6905167290063,230.7885358599895L536.862533650165,230.886204572908L536.9915463410341,231.0815279357277L537.1205590319034,231.1791825887172L537.2065674924825,231.32565578701684L537.2925759530622,231.3744778455727L537.421588643931,231.4232987340106L537.6796140256693,231.47211845252446L537.7656224862487,231.47211845252446L537.8086267165384,231.3744778455727L537.8516309468282,231.22800815878225L537.8516309468282,231.0815279357277L537.9376394074077,231.0326988524174L537.9806436376973,230.93503717120075L537.9376394074077,230.83737080256896L537.8946351771178,230.73969974497777L537.8946351771178,230.6420239968831L538.0236478679869,230.54434355673936L538.1956647891457,230.49550157666647L538.2816732497251,230.49550157666647L538.410685940594,230.39781409555206L538.410685940594,230.25127406856194L538.3246774800148,230.0558709211944L538.2816732497251,229.86044896852496L538.2816732497251,229.71387015559708L538.3676817103044,229.5672807524997L538.4966944011735,229.3718117324056L538.4966944011735,229.27407015488814L538.4966944011735,229.12744894991778L538.582702861753,229.02969558521352L538.6687113223325,228.93193750292176L538.7977240132013,228.93193750292176L538.9267367040704,228.93193750292176L539.0127451646499,228.88305669219523L539.1417578555188,228.78529153061368L539.2277663160983,228.68752164756694L539.1847620858086,228.44307627335735L539.2277663160983,228.3941836541186L539.3137747766777,228.3941836541186L539.4857916978365,228.3941836541186L539.571800158416,228.34528985296174L539.571800158416,228.19860135604023L539.6148043887056,227.95409687135162L539.7008128492851,227.85628679317426L539.7438170795747,227.75847197877874L539.7868213098643,227.70956279501326L539.872829770444,227.70956279501326L540.0018424613129,227.70956279501326L540.0878509218924,227.80737997810076L540.2168636127615,227.90519242419288L540.3028720733407,228.00300013484372L540.4318847642098,228.1008031116084L540.5178932247891,228.14970282526906L540.6469059156582,228.2474987041167L540.7329143762379,228.29639486969256L540.8619270671068,228.34528985296174L540.9909397579759,228.34528985296174L541.0769482185551,228.29639486969256L541.1629566791346,228.2474987041167L541.2919693700039,228.19860135604023L541.4209820608726,228.14970282526906L541.5929989820318,228.19860135604023L541.679007442611,228.19860135604023L541.8510243637697,228.14970282526906L541.8940285940594,228.05190221486492L541.9370328243492,227.90519242419288L541.9370328243492,227.75847197877874L541.9370328243492,227.66065242661023L541.9370328243492,227.5628281351144L541.9800370546388,227.46499910273508L542.0660455152183,227.41608280822794L542.1520539757978,227.41608280822794L542.2810666666669,227.41608280822794L542.4100793575358,227.46499910273508L542.5820962786945,227.51391421163208L542.7111089695636,227.61174087337537L542.7971174301431,227.66065242661023L542.969134351302,227.80737997810076L543.0121385815917,227.90519242419288L543.0121385815917,228.00300013484372L542.969134351302,228.14970282526906L542.9261301210122,228.19860135604023L542.9261301210122,228.2474987041167L542.969134351302,228.34528985296174L543.0551428118813,228.34528985296174L543.22715973304,228.34528985296174L543.3991766541988,228.34528985296174L543.7002062662268,228.34528985296174L543.7862147268061,228.2474987041167L543.9152274176754,228.14970282526906L544.044240108544,228.05190221486492L544.216257029703,228.05190221486492L544.3452697205721,228.05190221486492L544.4312781811516,227.95409687135162L544.5172866417308,227.85628679317426L544.6462993326002,227.5628281351144L544.7323077931792,227.41608280822794L544.7753120234693,227.31824666160736L544.8183162537587,227.17148354474L544.8613204840483,227.0736355332677L544.9473289446278,227.02470974688026L545.0763416354969,227.0736355332677L545.1193458657867,227.17148354474L545.1193458657867,227.26932680910363L545.1623500960764,227.26932680910363L545.2483585566558,227.26932680910363L545.3773712475249,227.26932680910363L545.506383938394,227.26932680910363L545.6353966292631,227.31824666160736L545.7214050898424,227.36716532791706L545.9794304715806,227.36716532791706L546.1084431624497,227.41608280822794L546.2374558533188,227.46499910273508L546.3664685441879,227.46499910273508L546.4524770047672,227.46499910273508L546.5814896956363,227.41608280822794L546.6674981562155,227.41608280822794L546.7105023865054,227.36716532791706L546.7105023865054,227.2204057702133L546.6674981562155,227.12256013248947L546.6244939259259,226.9268546118264L546.7105023865054,226.5353865460243L546.7965108470848,226.14384236446563L546.8395150773745,225.9969936524172L546.8395150773745,225.89908855410937L546.8395150773745,225.75222196733142L546.8395150773745,225.65430494765906L546.925523537954,225.36052525471752L546.9685277682436,225.2625891405546L547.0115319985332,225.16464824886168L547.054536228823,225.06670257807554L547.1405446894023,225.01772795003433L547.2265531499818,224.96875212663292L547.312561610561,224.96875212663292L547.3985700711405,224.91977510767572L547.4845785317198,224.82181748231437L547.4845785317198,224.72385507238425L547.4415743014301,224.67487207271705L547.3555658408507,224.5769024830003L547.2265531499818,224.5279158925586L547.0975404591127,224.47892810480175L546.9685277682436,224.47892810480175L546.925523537954,224.42993911953283L546.925523537954,224.3319575556763L546.925523537954,224.1849762236575L547.0975404591127,223.93998336061247L547.0975404591127,223.84197781910154L547.1405446894023,223.79297324835602L547.1405446894023,223.6949605059056L547.1405446894023,223.54793238689035L547.1405446894023,223.40089345675972L547.1835489196922,223.30286149454884L547.312561610561,223.20482472347317L547.3985700711405,223.20482472347317L547.4845785317198,223.10678314196315L547.5275827620096,222.95971174669768L547.5275827620096,222.81262951911793L547.5705869922992,222.51843254579808L547.5275827620096,222.1261024072585L547.5275827620096,221.97895869632907L547.4845785317198,221.7827501755179L547.4845785317198,221.63558109833832L547.4415743014301,221.43933873656266L547.4415743014301,221.24307701975533L547.4845785317198,221.0958680228219L547.5275827620096,220.8995724043516L547.7856081437478,220.55600840787878L547.9146208346169,220.4578363498287L548.0436335254858,220.31056915999739L548.215650446645,220.16329104211644L548.3876673678035,219.86870200086383L548.5166800586726,219.67228498919832L548.6886969798313,219.57406918336994L548.8177096707007,219.57406918336994L549.032730822149,219.57406918336994L549.2477519735974,219.62317769478193L549.3767646644665,219.67228498919832L549.5487815856254,219.67228498919832L549.7207985067841,219.67228498919832L549.8498111976533,219.67228498919832L549.9788238885221,219.67228498919832L550.021828118812,219.57406918336994L550.021828118812,219.47584850876729L550.0648323491016,219.37762296380663L550.1508408096811,219.2302755109813L550.2368492702606,219.13203778319775L550.2368492702606,218.98467204871162L550.2368492702606,218.78816732782838L550.1938450399707,218.6407759740532L550.1508408096811,218.5425089670805L550.1508408096811,218.44423707469173L550.1078365793912,218.29682007248255L550.0648323491016,218.19853595961132L550.1078365793912,218.1002469557676L550.1508408096811,217.95280427595816L550.2368492702606,217.8545030377378L550.3228577308398,217.70704199891503L550.3658619611297,217.70704199891503L550.4948746519988,217.65788587011423L550.580883112578,217.65788587011423L550.7098958034471,217.70704199891503L550.8389084943162,217.70704199891503L550.9249169548955,217.60872851638595L550.9249169548955,217.4612491036491L550.8819127246059,217.41208684822317L550.8389084943162,217.26459272562113L550.9679211851853,217.26459272562113L551.0969338760544,217.26459272562113L551.1829423366339,217.3629233668762L551.2689507972132,217.4612491036491L551.4409677183721,217.5104101333527L551.6129846395306,217.55956993753176L551.7419973303997,217.55956993753176L551.8710100212688,217.65788587011423L551.9140142515585,217.70704199891503L552.0000227121379,217.80535058252792L552.0860311727174,217.90365426881493L552.1720396332969,217.90365426881493L552.2580480938759,217.90365426881493L552.3440565544554,217.8545030377378L552.4730692453247,217.70704199891503L552.7310946270627,217.41208684822317L552.8171030876422,217.21542556531608L552.8171030876422,217.16625717829436L552.8171030876422,216.96957135905689L552.7740988573526,216.87122108396306L552.7740988573526,216.8220441043506L552.7310946270627,216.67450579486194L552.7310946270627,216.5269564252148L552.6450861664835,216.4285840315946L552.559077705904,216.37939599002988L552.559077705904,216.23182448392885L552.6020819361936,216.23182448392885L552.6880903967731,216.18263152076133L552.8601073179318,216.23182448392885L553.0321242390908,216.33020671836397L553.2471453905391,216.47777084325617L553.3331538511186,216.5269564252148L553.4191623116978,216.5269564252148L553.4621665419877,216.37939599002988L553.4621665419877,216.23182448392885L553.4621665419877,216.0842419015283L553.4621665419877,215.93664823744547L553.5051707722773,215.83824630224052L553.548175002567,215.73983943785294L553.6771876934363,215.64142764268786L553.7631961540155,215.59221989556443L553.8062003843054,215.54301091514748L553.9352130751743,215.59221989556443L553.9782173054639,215.64142764268786L554.0642257660434,215.73983943785294L554.1502342266228,215.83824630224052L554.2362426872021,215.88744788589048L554.3222511477816,215.93664823744547L554.408259608361,215.98584735710375L554.5372722992302,216.0842419015283L554.6232807598094,216.0842419015283L554.8383019112578,216.13343732669392L555.0103188324165,216.13343732669392L555.2683442141549,216.13343732669392L555.4403611353137,216.18263152076133L555.5693738261825,216.23182448392885L556.0424203593693,216.57614077766857L556.3004457411075,216.67450579486194L556.5154668925559,216.8220441043506L556.6444795834252,216.96957135905689L556.7304880440045,217.0679167233033L556.9025049651632,217.21542556531608L557.0745218863221,217.31375865940834L557.2465388074806,217.4612491036491L557.3325472680604,217.5104101333527L557.6765811103778,217.75619690298635L557.5045641892189,218.0511006192363L557.5045641892189,218.44423707469173L557.5045641892189,219.2302755109813L557.5475684195087,219.52495945476443L557.7625895709573,219.77049592783555L558.0206149526955,220.11419590677838L558.2786403344335,220.4578363498287L558.4506572555922,220.8995724043516L558.7946910979099,221.63558109833832L558.923703788779,222.7145686801594L559.0097122493582,223.30286149454884L559.0097122493582,223.6949605059056L559.0097122493582,223.84197781910154L558.8376953281995,224.1359800492059L558.7086826373306,224.2829649766968L558.4506572555922,224.42993911953283L558.192631873854,224.82181748231437L558.1496276435644,224.96875212663292L558.2356361041439,225.21361929199708L558.5366657161717,225.36052525471752L558.7946910979099,225.50742047151368L558.9667080190686,225.65430494765906L559.0527164796483,225.85013421728758L558.9667080190686,226.19278955315184L558.8806995584891,226.4375076403847L558.9667080190686,226.73113008716012L559.1387249402273,227.0736355332677L559.2677376310967,227.31824666160736L559.2677376310967,227.61174087337537L559.0527164796483,227.80737997810076L558.923703788779,227.95409687135162L558.8376953281995,228.19860135604023L558.4936614858821,228.19860135604023L558.192631873854,228.19860135604023L557.9776107224056,228.05190221486492L557.7625895709573,227.80737997810076L557.5475684195087,227.75847197877874L557.4185557286396,227.75847197877874L557.4185557286396,227.95409687135162L557.4185557286396,228.19860135604023L557.633576880088,228.3941836541186L557.633576880088,228.83417470149095L557.6765811103778,229.07857285716722L557.8055938012469,229.51841526385925L557.9776107224056,229.71387015559708L558.0636191829851,229.90930622036632L557.8485980315365,230.20242504404L557.633576880088,230.49550157666647L557.6765811103778,230.69086245734002L557.6765811103778,230.93503717120075L557.5475684195087,231.13035584776378L557.3325472680604,231.4232987340106L557.1605303469016,231.8626341064799L556.9025049651632,232.05786389072944L556.7304880440045,232.35067354836087L556.6874838137148,232.49706263000263L556.4724626622665,232.74102112155055L556.3434499713974,232.8873822382276L556.1284288199488,233.03373287756023L555.9994161290797,233.1800730447365L555.827399207921,233.27762734088446L555.655382286762,233.37517698658286L555.5263695958929,233.42395006599332L555.3543526747342,233.4727219833673L555.3113484444445,233.57026233277458L555.3543526747342,233.76532909559677L555.4833653656033,233.91161697976463L555.6983865170516,234.0578944228734L555.9564118987901,234.30166697309625L556.0854245896592,234.49666415761118L556.1284288199488,234.6916428170411L556.1284288199488,234.78912520367953L555.827399207921,234.78912520367953L555.5693738261825,234.78912520367953L555.2253399838651,234.6916428170411L554.9243103718372,234.64289988824015L554.7092892203889,234.6916428170411L554.5372722992302,234.8378646618999L554.7092892203889,234.98407609846032L554.7952976809681,235.13027713188995L554.666284990099,235.4226480100154L554.4942680689405,235.61753884257075L554.2792469174917,235.71497733757758L554.107229996333,235.66625866668795L553.8922088448846,235.56881786503624L553.6341834631464,235.32519566940834L553.4621665419877,235.32519566940834L553.4621665419877,235.66625866668795L553.4191623116978,235.95855340031272L553.2471453905391,236.25080665902715L553.2041411602495,236.54301848406078L553.2041411602495,236.73780336905207L553.2041411602495,236.9325698695888L552.9461157785111,237.1760021606995L552.6880903967731,237.32204776607807L552.559077705904,237.51675918640933L552.4300650150349,237.51675918640933L552.1720396332969,237.51675918640933L551.8280057909792,237.32204776607807L551.569980409241,237.1760021606995L551.3979634880823,237.12731799786644L551.2689507972132,237.12731799786644L551.1399381063441,237.22468517621883L551.010925415475,237.27336704461493L550.8389084943162,237.41940576896724L550.8389084943162,237.37072734079862L550.7959042640264,237.12731799786644L550.7529000337368,236.8838799673299L550.6668915731573,236.78649671725242L550.580883112578,236.73780336905207L550.4088661914193,236.78649671725242L550.1078365793912,236.78649671725242L549.9788238885221,236.73780336905207L549.8498111976533,236.68910887182346L549.6777942764945,236.64041322537565L549.5487815856254,236.59171642951839L549.5057773553356,236.68910887182346L549.5487815856254,236.9325698695888L549.6777942764945,237.12731799786644L549.8928154279429,237.37072734079862L550.4088661914193,237.80879194127567L550.7098958034471,238.14944473462646L550.8819127246059,238.34407831230374L550.9679211851853,238.4900414960316L550.9679211851853,238.63599440014696L550.8819127246059,238.68464308471306L550.6668915731573,238.63599440014696L550.5378788822884,238.63599440014696L550.4088661914193,238.83058229065153L550.3228577308398,238.97651122893598L550.1508408096811,239.12242990468945L550.0648323491016,239.17106718359656L549.9788238885221,239.0251519275488L549.9788238885221,238.7819370297753L550.021828118812,238.63599440014696L550.0648323491016,238.4900414960316L550.021828118812,238.39273384937525L549.8928154279429,238.39273384937525L549.8068069673636,238.44138824388847L549.7638027370738,238.63599440014696L549.7638027370738,238.87922641067718L549.7638027370738,239.17106718359656L549.7207985067841,239.365604905895L549.7638027370738,239.65737733020495L549.7207985067841,239.80324818183283L549.6777942764945,239.90048973064012L549.591785815915,239.85186952467143L549.4627731250459,239.75462570193503L549.3337604341768,239.6087514379936L549.2477519735974,239.6087514379936L549.1187392827285,239.65737733020495L549.032730822149,239.70600208478936L548.8607139009903,239.80324818183283L548.7747054404108,239.80324818183283L548.6456927495417,239.70600208478936L548.5596842889624,239.6087514379936L548.4306715980933,239.4628669337004L548.2586546769344,239.365604905895L548.1726462163549,239.365604905895L548.1296419860653,239.5114962399308L548.1296419860653,239.6087514379936L548.215650446645,239.80324818183283L548.301658907224,239.90048973064012L548.3446631375139,239.99772673272503L548.2586546769344,240.09495918960283L548.0866377557759,240.09495918960283L547.6565954528787,240.1435737140621L547.4415743014301,240.1435737140621L546.9685277682436,240.1435737140621L546.8395150773745,240.09495918960283L546.6674981562155,239.94910879992779L546.495481235057,239.85186952467143L546.1944516230292,239.75462570193503L545.4633797081044,239.365604905895L545.1623500960764,239.31697218394112L544.9043247143384,239.21970332298122L544.8183162537587,239.21970332298122L544.6462993326002,239.17106718359656L544.5602908720207,239.12242990468945L544.4312781811516,239.0251519275488L544.2592612599929,238.97651122893598L544.0872443388339,238.97651122893598L544.0012358782544,239.07379148606975L543.9152274176754,239.21970332298122L543.8722231873855,239.365604905895L543.7002062662268,239.5114962399308L543.5281893450681,239.75462570193503L543.5281893450681,240.09495918960283L543.5711935753577,240.28941047379226L543.6141978056473,240.62965652449486L543.5711935753577,240.96984701689718L543.4421808844886,241.11562595063305L543.3561724239091,241.21280624637564L543.1841555027504,241.30998201581423L542.9261301210122,241.45573718645744L542.8401216604329,241.60148218141222L542.7111089695636,241.7957930213077L542.5820962786945,241.84436790753102L542.3670751272462,241.84436790753102L542.1950582060874,241.84436790753102L541.9800370546388,241.84436790753102L541.7650159031903,241.94151429279702L541.506990521452,242.0386561630787L541.2489651397141,242.13579351988443L540.6469059156582,242.28149109562224L540.5178932247891,242.3300546990967L540.2598678430511,242.3786171753323L540.0018424613129,242.3786171753323L539.7438170795747,242.3300546990967L539.2707705463881,242.427178524518L538.8407282434912,242.57285581165587L538.3676817103044,242.81562876678652L538.0666520982768,243.0098268733521L537.7226182559591,243.1554636442799L537.421588643931,243.3981691175439L536.862533650165,244.07759514538452L536.6475124987167,244.65978549913848L536.5615040381372,245.0478229240262L536.5615040381372,245.2418148291634L536.6475124987167,245.38729703964998L536.8195294198754,245.4357888787411L536.9055378804549,245.53276921143845L536.862533650165,245.62974508473712L536.6905167290063,245.6782313495798L536.6045082684268,245.77520053658662L536.3464828866888,245.8721652679356L536.2174701958197,246.01760401387202L536.1744659655299,246.11455761261954L536.1744659655299,246.25997966666137L536.1744659655299,246.40539171229267L536.045453274661,246.55079375455534L535.9164405837919,246.50232751830873L535.6584152020537,246.35692214214998L535.5294025111846,246.308451460335L535.3573855900258,246.308451460335L535.2713771294464,246.40539171229267L535.1423644385773,246.50232751830873L534.9273432871287,246.55079375455534L534.7983305962598,246.50232751830873L534.7123221356803,246.40539171229267L534.5833094448112,246.2115067609418L534.2822798327834,245.92064596320614L533.8952417601758,245.77520053658662L533.7662290693072,245.62974508473712L533.6802206087277,245.48427960260796L533.6802206087277,245.29031001504842L533.6372163784379,245.0478229240262L533.5942121481482,244.51425301932687L533.5082036875688,244.2716765081572L533.4221952269895,244.1746380669615L533.33618676641,244.1261171663145L533.1641698452511,244.07759514538452L532.9921529240926,244.07759514538452L532.8201360029339,244.02907200398403L532.5621106211956,243.93202235902083L532.2610810091676,243.8834958550823L532.1750725485883,243.7864394833543L532.0460598577192,243.73790961518915L531.8740429365605,243.73790961518915L531.788034475981,243.73790961518915L531.7020260154015,243.7864394833543L531.5730133245324,243.8834958550823L531.4870048639532,244.1261171663145L531.4440006336636,244.36871047047242L531.4870048639532,244.7082940890523L531.7450302456912,244.99932215640655L531.788034475981,245.19331852730573L531.788034475981,245.38729703964998L531.7020260154015,245.48427960260796L531.1859752519254,245.58125770541903L530.798937179318,245.62974508473712L530.411899106711,245.58125770541903L529.7238314220758,245.4357888787411L529.4658060403374,245.4357888787411L529.2937891191787,245.48427960260796L529.1647764283096,245.62974508473712L529.1647764283096,245.8721652679356L529.250784888889,246.16303274299008L529.3797975797581,246.55079375455534L529.4658060403374,246.79310827564484L529.5518145009169,247.18075379949698L529.5518145009169,247.42299621959074L529.4658060403374,247.81052650788325L529.250784888889,248.1979860071716L529.1647764283096,248.48853423367672L529.0787679677301,248.73062740854016L529.0787679677301,249.02110283646476L529.0787679677301,249.26313540205484L529.1647764283096,249.4567416443914L529.2077806585994,249.6503302905865L529.2937891191787,249.89229137184117L529.3367933494683,250.13422500085113L529.3367933494683,250.32775215401L529.4658060403374,250.52126176441402L529.5088102706272,250.71475384391323L529.6808271917857,250.85986140600733L529.8528441129449,251.0049591186264L530.1538737249725,251.05332283492413L530.411899106711,250.95659430849804L530.5409117975796,250.8114933132755L530.7129287187386,250.76312412597235L530.8419414096077,250.76312412597235L531.0569625610563,250.8114933132755L531.228979482215,250.8114933132755L531.4009964033737,250.8114933132755L531.5730133245324,250.76312412597235L531.7450302456912,250.76312412597235L531.9600513971398,250.85986140600733L532.0460598577192,250.90822840435334L532.1320683182987,251.05332283492413L532.218076778878,251.1984074226782L532.2610810091676,251.39183823726432L532.3470894697473,251.5852515742136L532.4761021606164,251.73030011433985L532.6481190817749,251.8269936854868L533.0351571543822,251.92368289387383L533.1641698452511,251.92368289387383L533.2931825361204,251.97202586249392L533.3791909966999,252.02036774097814L533.4651994572791,252.2137243572443L533.6372163784379,252.40706354609387L533.8952417601758,252.890335350721L534.067258681335,253.03529569438734L534.325284063073,253.13193049279062L534.5833094448112,253.18024626333198L534.9273432871287,253.22856094834646L535.2283728991567,253.22856094834646L535.5724067414742,253.22856094834646L535.9164405837919,253.18024626333198L536.303478656399,253.22856094834646L536.6905167290063,253.18024626333198L536.9915463410341,253.22856094834646L537.421588643931,253.22856094834646L537.7656224862487,253.22856094834646L538.152660558856,253.22856094834646L538.4966944011735,253.22856094834646L538.7977240132013,253.2768745480169L539.0557493949395,253.32518706252768L539.2707705463881,253.47011809694277L539.3567790069676,253.6150393715467L539.3567790069676,253.7599508913067L539.2707705463881,253.80825256434184L539.0557493949395,253.85655315424066L538.3676817103044,253.85655315424066L538.2816732497251,253.85655315424066L538.1096563285664,253.95315108536687L537.9376394074077,254.0014484269612L537.7656224862487,254.24291890259866L537.7226182559591,254.43607581533035L537.7226182559591,254.62921543610526L537.7656224862487,254.72577876568067L537.8516309468282,254.91889247054934L537.8946351771178,255.06371641998243L537.8946351771178,255.30506810424816L537.7656224862487,255.54639285238693L537.59360556509,255.78769068730514L537.5075971045105,255.98070959310672L537.4645928742209,256.1737113008166L537.59360556509,256.46318164157776L538.0236478679869,256.9937769644988L538.5396986314631,257.4760238832646L538.7547197829117,257.6688927025213L538.8407282434912,257.7171072356656L539.0557493949395,257.7171072356656L539.1847620858086,257.7171072356656L539.2707705463881,257.62067710089144L539.4427874675469,257.5724604305935L539.6578086189954,257.62067710089144L539.7438170795747,257.76532070050695L539.872829770444,257.8617444260089L540.0018424613129,257.9581638804872L540.2168636127615,258.0063720065479L540.3458763036306,258.1509899822045L540.5178932247891,258.4883946007203L540.6469059156582,258.8257470152532L540.6039016853688,259.2112287887115L540.6469059156582,259.4521203548289L540.7329143762379,259.5966425520568L540.8189228368171,259.74115519844923L540.9909397579759,259.78932395902007L541.1629566791346,259.8374916591136L541.4639862911627,259.8856582989113L541.7220116729006,259.8856582989113L541.8940285940594,259.8856582989113L542.1520539757978,259.933823878595L542.3240708969565,259.933823878595L542.5390920484049,260.0301518583455L542.7541131998535,260.22279510446515L542.8831258907226,260.36726642056203L542.969134351302,260.5598800266805L543.0551428118813,260.7524767116163L543.0121385815917,260.9450564869716L542.969134351302,261.0413400371813L542.8401216604329,261.0894802285534L542.6251005089844,261.0894802285534L542.3240708969565,260.99319879004787L542.1090497455077,260.8969131277715L542.0230412849287,260.8969131277715L541.9370328243492,260.9450564869716L541.9370328243492,261.0894802285534L542.1090497455077,261.2820304400482L542.1950582060874,261.4745637738453L542.3670751272462,261.6189527051738L542.6251005089844,261.8114565308752L542.7541131998535,261.95582334442975L542.8831258907226,262.10018068707666L543.0551428118813,262.24452856369714L543.3131681936197,262.29264241985265L543.5281893450681,262.38886697917064L543.7002062662268,262.5813034908939L543.7432104965164,262.773723203032L543.6572020359372,263.0142242363896L543.6141978056473,263.25469906100557L543.6572020359372,263.4951476994272L543.7002062662268,263.83173184331605L543.7002062662268,264.07211772679375L543.7862147268061,264.45668084171064L543.9152274176754,264.60087479626253L544.044240108544,264.7450593691649L544.1302485691235,264.8892345652731L544.3022654902825,264.9853461557449L544.3452697205721,265.081453582347L544.3882739508617,265.27365594969234L544.2592612599929,265.3697508933096L544.0872443388339,265.3697508933096L543.9152274176754,265.3217039413562L543.7432104965164,265.27365594969234L543.5711935753577,265.1775568465172L543.3991766541988,265.081453582347L543.2701639633297,265.03340038943924L543.1841555027504,265.03340038943924L543.1411512724605,265.12950573464633L543.0981470421709,265.27365594969234L543.0551428118813,265.41779680573273L542.9261301210122,265.41779680573273L542.7541131998535,265.41779680573273L542.6251005089844,265.41779680573273L542.4960878181153,265.41779680573273L542.3240708969565,265.3697508933096L542.1950582060874,265.27365594969234L542.1520539757978,265.1775568465172L542.0660455152183,265.1775568465172L541.8940285940594,265.1775568465172L541.8510243637697,265.1775568465172L541.5499947517419,265.03340038943924L540.9909397579759,264.793118809494L540.7759186065273,264.7450593691649L540.6469059156582,264.64893736272893L540.5608974550792,264.60087479626253L540.3888805339202,264.5047465359331L540.1738593824716,264.408614104543L539.958838231023,264.26440763357033L539.7438170795747,264.1682647682314L539.6148043887056,264.02404263958783L539.4857916978365,263.9278893313015L539.2277663160983,263.83173184331605L539.1417578555188,263.78365153148513L539.0127451646499,263.73557017418955L538.8407282434912,263.73557017418955L538.6687113223325,263.73557017418955L538.4966944011735,263.73557017418955L538.3246774800148,263.73557017418955L538.1096563285664,263.73557017418955L537.8946351771178,263.73557017418955L537.6796140256693,263.73557017418955L537.4645928742209,263.73557017418955L537.3785844136416,263.73557017418955L537.2495717227725,263.6394043224822L537.0775548016136,263.4951476994272L536.9055378804549,263.39897138495945L536.7765251895858,263.3027908828642L536.6905167290063,263.2066061916992L536.1744659655299,262.5331959383758L535.9164405837919,262.29264241985265L535.7874278929226,262.10018068707666L535.6584152020537,262.0039435107271L535.5294025111846,262.0039435107271L535.3143813597362,261.95582334442975L535.1423644385773,261.9077021258087L534.9273432871287,261.8595798546842L534.7553263659702,261.8114565308752L534.6263136751011,261.71520672447883L534.5833094448112,261.6189527051738L534.4112925236525,261.4264320220465L534.325284063073,261.3782992159346L534.1102629116247,261.3782992159346L534.0242544510452,261.3782992159346L533.8952417601758,261.4264320220465L533.6802206087277,261.4264320220465L533.5082036875688,261.3782992159346L533.33618676641,261.3782992159346L533.2071740755409,261.3301653553289L532.9921529240926,261.1857574447371L532.8631402332232,260.9450564869716L532.5621106211956,260.60803078382173L532.2610810091676,260.1746358816547L532.1320683182987,260.0301518583455L532.0030556274296,259.933823878595L531.8740429365605,259.933823878595L531.788034475981,260.0301518583455L531.7450302456912,260.1746358816547L531.6590217851119,260.36726642056203L531.6160175548221,260.51172821196496L531.4009964033737,260.65618048357106L531.1859752519254,260.7043291261083L531.0569625610563,260.7043291261083L530.9279498701869,260.7043291261083L530.8849456398973,260.7043291261083L530.798937179318,260.8006232402749L530.8419414096077,260.99319879004787L530.9709541004768,261.0894802285534L531.1859752519254,261.1857574447371L531.3579921730841,261.3301653553289L531.4870048639532,261.66708024153036L531.5300090942428,262.10018068707666L531.6160175548221,262.4369776826946L531.6590217851119,262.8218255074853L531.6590217851119,263.1585122747645L531.6590217851119,263.39897138495945L531.6590217851119,263.6874877712485L531.6590217851119,263.83173184331605L531.7450302456912,263.9759665078169L531.9170471668501,263.9759665078169L532.0460598577192,264.07211772679375L532.0460598577192,264.26440763357033L532.0460598577192,264.408614104543L531.9600513971398,264.408614104543L531.9170471668501,264.45668084171064L531.7450302456912,264.60087479626253L531.5730133245324,264.64893736272893L531.4009964033737,264.7450593691649L531.2719837125046,265.03340038943924L531.3579921730841,265.27365594969234L531.5300090942428,265.4658416788053L531.7020260154015,265.6580107811772L531.7450302456912,265.8021267035678L531.6160175548221,266.4265211529282L531.4440006336636,266.85869168673054L531.3579921730841,267.14675883910763L531.2719837125046,267.57878985907684L531.0569625610563,268.05872635887613L530.7559329490284,268.6824899246452L530.239882185552,269.2581175913395L529.8528441129449,269.68974145790526L529.3367933494683,269.92949666615044L529.0357637374407,270.02539159034615L528.7777383557022,270.02539159034615L528.3907002830949,269.88154767031523L528.2186833619362,269.68974145790526L528.0466664407775,269.3540411768644L527.960657980198,268.92235274378027L527.960657980198,268.6824899246452L528.0466664407775,268.5865376079628L528.1756791316468,268.4905811811228L528.2616875922258,268.44260142594794L528.3476960528053,268.2986559912627L528.3907002830949,268.20268722538725L528.4767087436744,268.01073734460516L528.6057214345435,267.91475622684123L528.7347341254126,267.91475622684123L528.8637468162817,267.8187709889234L528.9927595071506,267.72278162942274L528.9927595071506,267.57878985907684L528.949755276861,267.4347888071272L528.8637468162817,267.33878294699775L528.7777383557022,267.14675883910763L528.7347341254126,267.0507405884859L528.6487256648331,267.0507405884859L528.5197129739643,267.09875023033567L528.3907002830949,267.1947664149812L528.2616875922258,267.29077846874725L528.132674901357,267.4347888071272L527.960657980198,267.57878985907684L527.8746495196187,267.62678814690975L527.7886410590395,267.67478540363214L527.6166241378805,267.7707768244602L527.3155945258527,267.7707768244602L527.0575691441145,267.72278162942274L526.0254676171617,267.3867863930646L525.595425314265,267.29077846874725L524.434311096443,266.9067054626808L523.8322518723874,266.7146441543286L523.2731968786213,266.4265211529282L523.0151714968831,266.33047186969685L522.8001503454345,266.33047186969685L522.5851291939862,266.4265211529282L522.1550868910892,266.7626610327338L521.7680488184819,267.09875023033567L521.5530276670333,267.1947664149812L521.0369769035572,267.4347888071272L520.8649599823982,267.5307905399545L520.6499388309501,267.57878985907684L520.4349176795013,267.62678814690975L520.2629007583428,267.72278162942274L520.0908838371838,267.72278162942274L519.9618711463147,267.72278162942274L519.7468499948661,267.8187709889234L519.4888246131281,267.86676412299084L519.1447907708105,267.91475622684123L518.8867653890725,267.96274730065323L518.628740007334,267.96274730065323L518.4997273164649,267.91475622684123L518.3277103953064,267.7707768244602L518.2417019347267,267.57878985907684L518.1126892438576,267.4827901893644L517.9836765529888,267.29077846874725L517.9406723226991,267.2427729581346L517.8546638621197,267.14675883910763L517.7256511712505,267.14675883910763L517.5966384803814,267.1947664149812L517.3386130986435,267.33878294699775L516.9085707957463,267.8187709889234L516.822562335167,267.8187709889234L516.7365538745876,267.7707768244602L516.8655665654567,267.4347888071272L516.9945792563258,266.85869168673054L517.1665961774845,266.28244567425673L517.3816173289329,265.9462332847222L517.4246215592225,265.6580107811772L517.5536342500918,265.3697508933096L517.6826469409609,265.1775568465172L517.8116596318298,264.9853461557449L517.9836765529888,264.7450593691649L518.1556934741473,264.64893736272893L518.2847061650166,264.31247750065256L518.2847061650166,264.1682647682314L518.3277103953064,263.9759665078169L518.3707146255961,263.83173184331605L518.3707146255961,263.6874877712485L518.2847061650166,263.59131982770964L518.1986977044373,263.5432342867515L518.0266807832786,263.3027908828642L517.9836765529888,263.0623212972899L517.9406723226991,262.8699267628673L517.9406723226991,262.72561984932656L517.9406723226991,262.5813034908939L517.9406723226991,262.4369776826946L517.9406723226991,262.29264241985265L517.8976680924093,262.1482976974898L517.8546638621197,262.0039435107271L517.8546638621197,261.8595798546842L517.8546638621197,261.71520672447883L517.8976680924093,261.4745637738453L517.8976680924093,261.3782992159346L517.7686554015402,261.2820304400482L517.6396427106713,261.2820304400482L517.3816173289329,261.3301653553289L517.1665961774845,261.3782992159346L517.0375834866154,261.4745637738453L516.8655665654567,261.6189527051738L516.7795581048772,261.71520672447883L516.6505454140081,261.76333215419993L516.521532723139,261.76333215419993L516.3065115716906,261.76333215419993L516.1774988808215,261.76333215419993L516.0484861899524,261.71520672447883L515.962477729373,261.6189527051738L515.7904608082142,261.57082411522794L515.6614481173451,261.66708024153036L515.5754396567659,261.76333215419993L515.4034227356071,261.95582334442975L515.3174142750277,262.0520626248826L515.2314058144482,262.0520626248826L515.1023931235791,262.10018068707666L514.97338043271,262.10018068707666L514.8873719721307,262.0039435107271L514.7583592812616,261.9077021258087L514.5863423601029,261.76333215419993L514.4573296692336,261.71520672447883L514.3283169783647,261.66708024153036L514.2423085177852,261.66708024153036L514.0272873663369,261.71520672447883L513.8982746754677,261.76333215419993L513.8122662148883,261.8114565308752L513.6832535240192,261.9077021258087L513.4682323725708,261.95582334442975L513.167202760543,262.10018068707666L512.8231689182253,262.29264241985265L512.3931266153284,262.3407552249506L512.006088542721,262.29264241985265L511.8340716215621,262.19641365630275L511.53304200953426,262.1482976974898L511.3180208580859,262.1482976974898L510.9739870157682,262.0520626248826L510.71596163403,261.95582334442975L510.5009404825819,261.8595798546842L510.24291510084345,261.9077021258087L510.0278939493951,262.10018068707666L509.6408558767878,262.29264241985265L509.21081357389085,262.38886697917064L509.12480511331137,262.5813034908939L508.7377670407043,263.0623212972899L508.47974165896585,263.3027908828642L508.1357078166484,263.4470600655567L507.92068666520004,263.5432342867515L507.4906443623031,263.4951476994272L507.14661051998564,263.4951476994272L506.80257667766796,263.59131982770964L506.5015470656401,263.5432342867515L506.15751322332244,263.39897138495945L505.89948784158423,263.25469906100557L505.3834370781078,263.0623212972899L504.78137785405215,262.8218255074853L504.39433978144484,262.5813034908939L504.1793186299965,262.1482976974898L504.00730170883753,261.71520672447883L503.7062720968099,261.13761936434497L503.1472171030439,260.8006232402749L502.4161451881189,260.5598800266805L502.1581198063807,260.46357533949424L502.1581198063807,260.2709532684323L502.28713249725,259.9819883983458L502.4161451881189,259.78932395902007L502.63116633956747,259.6448144951493L502.8461874910158,259.40394416583064L503.0612086424644,259.25940922652387L503.23322556362314,259.11486472493186L503.53425517565097,258.97031065614544L503.74927632709955,258.77755700697224L504.0503059391274,258.6811737973435L504.4373440117347,258.6329805956311L504.9963990055005,258.4883946007203L505.29742861752857,258.1509899822045L505.5124497689769,257.6688927025213L505.64146245984625,257.18668857427L505.77047515071536,257.0420064730463L505.9854963021637,256.94554638491036L506.32953014448117,256.7526133524931L506.5015470656401,256.65614040528834L506.7595724473781,256.1737113008166L506.9745935988267,255.49813005654988L507.31862744114414,255.16026032749045L507.70566551375146,254.87061566315845L507.92068666520004,254.43607581533035L507.92068666520004,254.0497446861549L507.83467820462056,253.80825256434184L507.4906443623031,253.66334429509334L507.1036062896958,253.566733364129L506.8455809079576,253.566733364129L506.4155386050604,253.566733364129L505.9854963021637,253.51842627265546L505.5554539992668,253.47011809694277L505.25442438723894,253.37349849206288L505.1254116963696,253.0836136365371L504.9963990055005,252.890335350721L504.8243820843418,252.890335350721L504.7383736237625,253.18024626333198L504.5663567026038,253.47011809694277L504.30833132086536,253.566733364129L504.0503059391274,253.37349849206288L503.9212932482583,253.03529569438734L504.00730170883753,252.45539562165578L503.87828901796865,252.06870852951073L503.74927632709955,251.73030011433985L503.4482467150715,251.5852515742136L503.1472171030439,251.440193209568L502.88919172130545,251.3434821726081L502.63116633956747,251.10168545757512L502.50215364869837,250.8114933132755L502.4591494184085,250.37613120078117L502.8031832607262,249.31153861292677L502.9321959515953,248.73062740854016L502.8031832607262,248.10112776360648L502.5881621092776,247.5198854333471L502.1581198063807,246.89002631282938L501.72807750348375,246.55079375455534L501.51305635203516,246.2115067609418L501.55606058232524,245.8721652679356L501.8140859640632,245.29031001504842L502.0721113458012,244.80530791496943L502.20112403667054,244.36871047047242L502.24412826696016,243.93202235902083L502.11511557609106,243.5923132792338L501.9430986549323,243.349630269842L501.59906481261464,243.25254920438783L501.2550309702972,243.3010902988526L501.08301404913846,243.5923132792338L500.9109971279795,243.93202235902083L500.8679928976899,244.22315784751322L500.7819844371104,244.41722577251886L500.48095482508256,244.4657399554075L500.17992521305473,244.41722577251886L499.8788956010269,244.3201940490809L499.57786598899906,244.1746380669615L499.31984060726086,244.07759514538452L498.9758067649434,243.98054774192542L498.7607856134948,243.83496822992288L498.33074331059765,242.96127903408615L498.24473485001863,242.47573874684133L498.0727179288597,242.13579351988443L497.77168831683184,241.74721700577265L497.5996713956729,241.4071532604604L497.38465024422476,240.77545924908668L497.2556375533554,240.43523701702395L497.2126333230658,240.19218710278744L497.0406164019071,239.65737733020495L496.8685994807481,239.4628669337004L496.5675698687203,239.31697218394112L496.26654025669245,239.17106718359656L496.00851487495424,239.07379148606975L495.75048949321604,238.87922641067718L495.62147680234716,238.63599440014696L495.49246411147806,238.29542163248294L495.3204471903191,237.80879194127567L495.19143449945,237.51675918640933L495.01941757829127,237.32204776607807L494.8043964268429,237.27336704461493L494.11632874220754,237.12731799786644L493.72929066960046,236.73780336905207L493.47126528786225,236.29951150609213L493.1702356758342,235.52009573389319L492.5681764517785,235.03281093191816L492.654184912358,234.59415580219536L492.7831976032271,234.0578944228734L492.8692060638066,233.81409288408992L492.95521452438584,233.52149273889705L493.0412229849653,233.32640274494406L493.12723144554457,232.9849504949447L493.12723144554457,232.69223175346212L493.1702356758342,232.3994710749161L493.21323990612404,232.15547177756548L493.3422525969934,231.91144330434594L493.55727374844173,231.716199502971L493.72929066960046,231.47211845252446L493.72929066960046,231.2768325581511L493.72929066960046,230.9838685976393L493.60027797873136,230.73969974497777L493.4282610575724,230.39781409555206L493.25624413641367,230.10472347054974L493.21323990612404,229.86044896852496L493.21323990612404,229.5672807524997L493.25624413641367,229.27407015488814L493.3422525969934,229.12744894991778L493.3852568272828,229.02969558521352L493.55727374844173,228.88305669219523L493.60027797873136,228.88305669219523L493.85830336046934,228.83417470149095L494.07332451191814,228.83417470149095L494.3313498936561,228.83417470149095Z"></path>
<circle class="distCircs" cx="531.7258046307667" cy="240.28654122959006" r="2.7699562265699695" stroke="#000" stroke-width="0.25" fill="#fefcbc" data-q="JHARKHAND" data-r="BOKARO"><title>JHARKHAND - BOKARO: Census 2011 Total Rural Households = 204,021. Census 2011 Households with toilets = 13,525. Census 2001 Total Rural Households = 171,904. Census 2001 Households with toilets = 12,820. Difference between Census 2011 Households with toilets and Census 2001 Households with toilets = -0.8%</title></circle><circle class="distCircs" cx="515.222259899149" cy="233.71933033323566" r="2.7284851113728754" stroke="#000" stroke-width="0.25" fill="#fbfdbd" data-q="JHARKHAND" data-r="CHATRA"><title>JHARKHAND - CHATRA: Census 2011 Total Rural Households = 170,239. Census 2011 Households with toilets = 11,286. Census 2001 Total Rural Households = 125,198. Census 2001 Households with toilets = 7,071. Difference between Census 2011 Households with toilets and Census 2001 Households with toilets = 1.0%</title></circle><circle class="distCircs" cx="541.6498328011867" cy="230.87503311485617" r="2.781969478644622" stroke="#000" stroke-width="0.25" fill="#fafdbc" data-q="JHARKHAND" data-r="DEOGHAR"><title>JHARKHAND - DEOGHAR: Census 2011 Total Rural Households = 214,896. Census 2011 Households with toilets = 11,752. Census 2001 Total Rural Households = 166,501. Census 2001 Households with toilets = 7,150. Difference between Census 2011 Households with toilets and Census 2001 Households with toilets = 1.2%</title></circle><circle class="distCircs" cx="537.7542609793483" cy="240.20931085232212" r="2.7734795484516575" stroke="#000" stroke-width="0.25" fill="#fae4ab" data-q="JHARKHAND" data-r="DHANBAD"><title>JHARKHAND - DHANBAD: Census 2011 Total Rural Households = 207,157. Census 2011 Households with toilets = 25,325. Census 2001 Total Rural Households = 205,914. Census 2001 Households with toilets = 38,746. Difference between Census 2011 Households with toilets and Census 2001 Households with toilets = -6.6%</title></circle><circle class="distCircs" cx="549.5966148945977" cy="232.7271262411681" r="2.822774599016902" stroke="#000" stroke-width="0.25" fill="#f5fbba" data-q="JHARKHAND" data-r="DUMKA"><title>JHARKHAND - DUMKA: Census 2011 Total Rural Households = 255,926. Census 2011 Households with toilets = 15,965. Census 2001 Total Rural Households = 316,710. Census 2001 Households with toilets = 12,928. Difference between Census 2011 Households with toilets and Census 2001 Households with toilets = 2.2%</title></circle><circle class="distCircs" cx="499.8730372819002" cy="234.22782678978797" r="2.8091567821961236" stroke="#000" stroke-width="0.25" fill="#f7fbbb" data-q="JHARKHAND" data-r="GARHWA"><title>JHARKHAND - GARHWA: Census 2011 Total Rural Households = 241,497. Census 2011 Households with toilets = 11,897. Census 2001 Total Rural Households = 171,674. Census 2001 Households with toilets = 5,351. Difference between Census 2011 Households with toilets and Census 2001 Households with toilets = 1.8%</title></circle><circle class="distCircs" cx="535.9025899529795" cy="234.10839696304598" r="2.9016560695218536" stroke="#000" stroke-width="0.25" fill="#fcfebd" data-q="JHARKHAND" data-r="GIRIDIH"><title>JHARKHAND - GIRIDIH: Census 2011 Total Rural Households = 356,247. Census 2011 Households with toilets = 20,703. Census 2001 Total Rural Households = 286,647. Census 2001 Households with toilets = 14,667. Difference between Census 2011 Households with toilets and Census 2001 Households with toilets = 0.7%</title></circle><circle class="distCircs" cx="550.4836043696054" cy="223.8148763551798" r="2.807213603815557" stroke="#000" stroke-width="0.25" fill="#f9fcbc" data-q="JHARKHAND" data-r="GODDA"><title>JHARKHAND - GODDA: Census 2011 Total Rural Households = 239,500. Census 2011 Households with toilets = 18,870. Census 2001 Total Rural Households = 190,107. Census 2001 Households with toilets = 12,393. Difference between Census 2011 Households with toilets and Census 2001 Households with toilets = 1.4%</title></circle><circle class="distCircs" cx="510.4705610142147" cy="252.09468326442854" r="2.737058292066959" stroke="#000" stroke-width="0.25" fill="#f2f9b9" data-q="JHARKHAND" data-r="GUMLA"><title>JHARKHAND - GUMLA: Census 2011 Total Rural Households = 176,770. Census 2011 Households with toilets = 11,274. Census 2001 Total Rural Households = 243,689. Census 2001 Households with toilets = 8,770. Difference between Census 2011 Households with toilets and Census 2001 Households with toilets = 2.8%</title></circle><circle class="distCircs" cx="522.4477631523725" cy="237.02696851640525" r="2.8199511525834584" stroke="#000" stroke-width="0.25" fill="#fbfdbd" data-q="JHARKHAND" data-r="HAZARIBAGH"><title>JHARKHAND - HAZARIBAGH: Census 2011 Total Rural Households = 252,871. Census 2011 Households with toilets = 23,515. Census 2001 Total Rural Households = 302,918. Census 2001 Households with toilets = 25,506. Difference between Census 2011 Households with toilets and Census 2001 Households with toilets = 0.9%</title></circle><circle class="distCircs" cx="543.5650072856987" cy="236.26657786417812" r="2.67714744077912" stroke="#000" stroke-width="0.25" fill="#eee" data-q="JHARKHAND" data-r="JAMTARA"><title>JHARKHAND - JAMTARA: Census 2011 Total Rural Households = 135,540. Census 2011 Households with toilets = 5,964. Census 2001 Total Rural Households = NaN. Census 2001 Households with toilets = 0. Difference between Census 2011 Households with toilets and Census 2001 Households with toilets = NaN%</title></circle><circle class="distCircs" cx="521.1420346109517" cy="253.21467542854737" r="2.5961846145144394" stroke="#000" stroke-width="0.25" fill="#eee" data-q="JHARKHAND" data-r="KHUNTI"><title>JHARKHAND - KHUNTI: Census 2011 Total Rural Households = 93,762. Census 2011 Households with toilets = 3,789. Census 2001 Total Rural Households = NaN. Census 2001 Households with toilets = 0. Difference between Census 2011 Households with toilets and Census 2001 Households with toilets = NaN%</title></circle><circle class="distCircs" cx="525.6353185909028" cy="231.11685357587652" r="2.5878356216495524" stroke="#000" stroke-width="0.25" fill="#fdfebe" data-q="JHARKHAND" data-r="KODERMA"><title>JHARKHAND - KODERMA: Census 2011 Total Rural Households = 90,207. Census 2011 Households with toilets = 6,817. Census 2001 Total Rural Households = 66,657. Census 2001 Households with toilets = 4,691. Difference between Census 2011 Households with toilets and Census 2001 Households with toilets = 0.5%</title></circle><circle class="distCircs" cx="509.9253684165227" cy="241.0328759880995" r="2.6553997652313925" stroke="#000" stroke-width="0.25" fill="#eee" data-q="JHARKHAND" data-r="LATEHAR"><title>JHARKHAND - LATEHAR: Census 2011 Total Rural Households = 122,902. Census 2011 Households with toilets = 8,858. Census 2001 Total Rural Households = NaN. Census 2001 Households with toilets = 0. Difference between Census 2011 Households with toilets and Census 2001 Households with toilets = NaN%</title></circle><circle class="distCircs" cx="512.5111501688557" cy="245.96498568772373" r="2.5628550371700602" stroke="#000" stroke-width="0.25" fill="#f7fbbb" data-q="JHARKHAND" data-r="LOHARDAGA"><title>JHARKHAND - LOHARDAGA: Census 2011 Total Rural Households = 80,295. Census 2011 Households with toilets = 5,849. Census 2001 Total Rural Households = 61,100. Census 2001 Households with toilets = 3,358. Difference between Census 2011 Households with toilets and Census 2001 Households with toilets = 1.8%</title></circle><circle class="distCircs" cx="555.3319419042734" cy="226.82845424993783" r="2.7246124582338775" stroke="#000" stroke-width="0.25" fill="#eef7b7" data-q="JHARKHAND" data-r="PAKUR"><title>JHARKHAND - PAKUR: Census 2011 Total Rural Households = 167,362. Census 2011 Households with toilets = 12,244. Census 2001 Total Rural Households = 126,943. Census 2001 Households with toilets = 4,551. Difference between Census 2011 Households with toilets and Census 2001 Households with toilets = 3.7%</title></circle><circle class="distCircs" cx="505.321645838515" cy="234.92056044834257" r="2.872914590944931" stroke="#000" stroke-width="0.25" fill="#feffbf" data-q="JHARKHAND" data-r="PALAMU"><title>JHARKHAND - PALAMU: Census 2011 Total Rural Households = 316,135. Census 2011 Households with toilets = 23,502. Census 2001 Total Rural Households = 339,450. Census 2001 Households with toilets = 24,841. Difference between Census 2011 Households with toilets and Census 2001 Households with toilets = 0.1%</title></circle><circle class="distCircs" cx="524.6007198058144" cy="261.3847426756078" r="2.8228600645827755" stroke="#000" stroke-width="0.25" fill="#fefabc" data-q="JHARKHAND" data-r="PASCHIM SINGHBHUM"><title>JHARKHAND - PASCHIM SINGHBHUM: Census 2011 Total Rural Households = 256,019. Census 2011 Households with toilets = 9,501. Census 2001 Total Rural Households = 348,111. Census 2001 Households with toilets = 16,862. Difference between Census 2011 Households with toilets and Census 2001 Households with toilets = -1.1%</title></circle><circle class="distCircs" cx="536.4147253820323" cy="259.62183911108184" r="2.7828095495962" stroke="#000" stroke-width="0.25" fill="#e4f3b2" data-q="JHARKHAND" data-r="PURBI SINGHBHUM"><title>JHARKHAND - PURBI SINGHBHUM: Census 2011 Total Rural Households = 215,676. Census 2011 Households with toilets = 29,437. Census 2001 Total Rural Households = 176,969. Census 2001 Households with toilets = 13,722. Difference between Census 2011 Households with toilets and Census 2001 Households with toilets = 5.9%</title></circle><circle class="distCircs" cx="526.0612964533684" cy="244.45546148788887" r="2.6055204789304347" stroke="#000" stroke-width="0.25" fill="#eee" data-q="JHARKHAND" data-r="RAMGARH"><title>JHARKHAND - RAMGARH: Census 2011 Total Rural Households = 97,889. Census 2011 Households with toilets = 10,752. Census 2001 Total Rural Households = NaN. Census 2001 Households with toilets = 0. Difference between Census 2011 Households with toilets and Census 2001 Households with toilets = NaN%</title></circle><circle class="distCircs" cx="521.5598186186443" cy="247.38185757876113" r="2.8778239673377692" stroke="#000" stroke-width="0.25" fill="#e5f3b2" data-q="JHARKHAND" data-r="RANCHI"><title>JHARKHAND - RANCHI: Census 2011 Total Rural Households = 322,679. Census 2011 Households with toilets = 42,680. Census 2001 Total Rural Households = 343,875. Census 2001 Households with toilets = 25,624. Difference between Census 2011 Households with toilets and Census 2001 Households with toilets = 5.8%</title></circle><circle class="distCircs" cx="553.702673856179" cy="218.77419365258578" r="2.7581284946589606" stroke="#000" stroke-width="0.25" fill="#f4faba" data-q="JHARKHAND" data-r="SAHIBGANJ"><title>JHARKHAND - SAHIBGANJ: Census 2011 Total Rural Households = 193,809. Census 2011 Households with toilets = 17,774. Census 2001 Total Rural Households = 158,045. Census 2001 Households with toilets = 10,741. Difference between Census 2011 Households with toilets and Census 2001 Households with toilets = 2.4%</title></circle><circle class="distCircs" cx="531.7114036167438" cy="255.13290861119427" r="2.722597805223375" stroke="#000" stroke-width="0.25" fill="#eee" data-q="JHARKHAND" data-r="SERAIKELA KHARSAWAN"><title>JHARKHAND - SERAIKELA KHARSAWAN: Census 2011 Total Rural Households = 165,883. Census 2011 Households with toilets = 10,697. Census 2001 Total Rural Households = NaN. Census 2001 Households with toilets = 0. Difference between Census 2011 Households with toilets and Census 2001 Households with toilets = NaN%</title></circle><circle class="distCircs" cx="509.91771060832343" cy="259.0465608781063" r="2.628331468569073" stroke="#000" stroke-width="0.25" fill="#eee" data-q="JHARKHAND" data-r="SIMDEGA"><title>JHARKHAND - SIMDEGA: Census 2011 Total Rural Households = 108,683. Census 2011 Households with toilets = 5,313. Census 2001 Total Rural Households = NaN. Census 2001 Households with toilets = 0. Difference between Census 2011 Households with toilets and Census 2001 Households with toilets = NaN%</title></circle></g></g></svg>