<?xml version="1.0" standalone="no"?><!DOCTYPE svg PUBLIC "-//W3C//DTD SVG 1.1//EN" "http://www.w3.org/Graphics/SVG/1.1/DTD/svg11.dtd"><svg id="chart" width="960" height="500" class="dorlingCart" data-type="dorlingCart" version="1.1" xmlns:xlink="http://www.w3.org/1999/xlink" xmlns="http://www.w3.org/2000/svg"><defs class="svg-crowbar"><style type="text/css"><![CDATA[.feature{ fill: #fcfcfc; stroke: #000000; stroke-width: 0.2px; cursor: pointer; }]]></style></defs>
<g><g transform="translate(-1083.092529296875,-1533.1131591796875)scale(4,4)">
<path class="feature" data-q="KERALA" d="M378.04791119031916,427.40068516683846L377.78988580858095,426.9465114396728L377.617868887422,426.6285601767918L377.3168392753944,426.4922878602615L376.9728054330767,426.2651573327806L376.7147800513385,426.0380142904092L376.49975889989014,425.6291252214372L376.28473774844156,425.2656341021897L375.9837081364137,424.9929946137779L375.51066160322694,424.81122486728157L375.38164891235806,424.7203369644432L375.3386446820682,424.4931083621553L374.9946108397505,424.17496706333395L374.60757276714344,423.62952415941936L374.17753046424673,423.084008013102L373.70448393105994,422.5384183846288L373.6614797007701,422.5384183846288L373.532467009901,422.629355102481L373.4034543190319,422.7202897736096L373.1884331675835,422.5838869994644L373.0164162464248,422.3110676282895L372.71538663439674,421.7198956380313L372.37135279207905,420.8102303895631L372.11332741034107,420.1278457381043L371.8983062588927,419.5363512056386L371.7692935680234,419.26332404258676L371.5972766468649,419.1268034162407L371.55427241657526,418.94476860024804L371.55427241657526,418.6261875331562L371.4682639559958,418.30758079345776L371.33925126512645,417.8979057566453L371.08122588338847,417.4426612812566L370.8232005016505,417.0328961508861L370.6081793502017,416.5775513193106L370.3931581987533,416.34985902909307L370.3931581987533,416.1221534659385L370.2641455078842,415.848889245244L370.17813704730474,415.71224994861547L370.04912435643564,415.5300567588416L369.8341032049873,415.34785503406795L369.5760778232491,414.93786990079025L369.4040609020901,414.5278414115207L369.3180524415109,414.07220322727903L369.18903975064177,413.6165112506429L369.06002705977266,413.1151877785969L368.75899744774483,412.52263019362266L368.5869805265861,411.9755725634095L368.37195937513775,411.6564194262784L368.28595091455827,411.42843654139665L368.199942453979,411.1548390574689L368.5009720660066,411.47403420996244L368.88801013861394,411.47403420996244L369.06002705977266,411.38283832675427L369.44706513238,411.2460404049609L369.66208628382856,411.1548390574689L369.9631158958564,411.06363552229203L370.22114127759437,410.9724297983031L370.3931581987533,410.9724297983031L370.4791666593328,410.9724297983031L370.56517511991206,411.06363552229203L370.56517511991206,411.1548390574689L370.56517511991206,411.38283832675427L370.52217088962243,411.5652279094286L370.43616242904295,411.6108239406101L370.43616242904295,411.7476087616386L370.4791666593328,411.838795916635L370.52217088962243,411.9299808923928L370.6081793502017,411.9755725634095L370.7801962713604,411.9755725634095L370.9092089622295,411.9299808923928L371.0382216530986,411.9299808923928L371.1242301136781,412.02116369003875L371.1242301136781,412.24911116229725L371.16723434396795,412.3858731220063L371.16723434396795,412.47704504597107L371.16723434396795,412.61379886096785L371.2102385742576,412.796129687761L371.2532428045472,412.97845184485556L371.33925126512645,412.97845184485556L371.4252597257059,412.97845184485556L371.55427241657526,412.8872918494585L371.5972766468649,412.704965358639L371.6832851074439,412.47704504597107L371.81229779831324,412.3858731220063L371.8983062588927,412.3402863454126L372.0273189497616,412.3402863454126L372.2423401012102,412.3402863454126L372.32834856178965,412.3858731220063L372.37135279207905,412.47704504597107L372.41435702236913,412.61379886096785L372.41435702236913,412.7505477941985L372.41435702236913,412.8872918494585L372.41435702236913,412.97845184485556L372.41435702236913,413.2974947853594L372.45736125265876,413.3886450463151L372.58637394352786,413.43421936667835L372.71538663439674,413.3886450463151L372.84439932526584,413.2974947853594L372.97341201613517,413.2519188444857L373.1024247070043,413.2519188444857L373.1884331675835,413.2974947853594L373.274441628163,413.47979314715224L373.274441628163,413.5253663878774L373.31744585845263,413.8899328995707L373.36045008874225,414.02663645258883L373.36045008874225,414.11776946404575L373.4034543190319,414.3000290346796L373.48946277961136,414.3455925839313L373.5754712401906,414.3455925839313L373.70448393105994,414.3000290346796L373.7904923916394,414.254464948205L373.87650085221867,414.1633351630287L374.0055135430878,414.11776946404575L374.0485177733774,414.07220322727903L374.1345262339569,414.07220322727903L374.26353892482575,414.07220322727903L374.4355558459847,414.1633351630287L374.47856007627433,414.3000290346796L374.5215643065642,414.3455925839313L374.5215643065642,414.4822800097555L374.47856007627433,414.57340227676514L374.47856007627433,414.7100816547741L374.47856007627433,414.84675620914237L374.47856007627433,414.93786990079025L374.5215643065642,415.07453642416885L374.60757276714344,415.21119813400026L374.65057699743306,415.2567509682541L374.73658545801254,415.2567509682541L374.86559814888165,415.30230326823L374.9516066094609,415.34785503406795L375.0376150700406,415.4389569638899L375.1666277609095,415.48450712815463L375.25263622148896,415.48450712815463L375.4246531426477,415.48450712815463L375.5536658335168,415.4389569638899L375.76868698496537,415.39340626590774L375.9407039061241,415.30230326823L376.1127208272828,415.30230326823L376.1987292878621,415.30230326823L376.37074620902104,415.39340626590774L376.41375043931066,415.39340626590774L376.41375043931066,415.5300567588416L376.37074620902104,415.71224994861547L376.24173351815193,415.8033433456787L376.0697165969932,415.848889245244L375.8976996758345,415.93997944714425L375.72568275467574,415.9855237497585L375.5536658335168,416.1221534659385L375.4676573729373,416.2587783975631L375.4676573729373,416.39539854841155L375.5536658335168,416.53201392226276L375.6826785243859,416.66862452289297L375.72568275467574,416.71416032970717L375.81169121525477,416.80523035408044L375.9407039061241,416.89629826037935L376.0697165969932,417.0784277232294L376.15572505757245,417.12395876689374L376.24173351815193,417.21501926874214L376.3277419787312,417.3060776575503L376.37074620902104,417.3971339344355L376.41375043931066,417.48818810051625L376.41375043931066,417.7158142882843L376.41375043931066,417.8979057566453L376.4567546696005,417.98894833328103L376.54276313017976,418.12550825444555L376.67177582104887,418.2620634464152L376.8437927422076,418.30758079345776L377.0158096633663,418.30758079345776L377.1878265845253,418.35309761559233L377.3168392753944,418.398613912959L377.44585196626326,418.48964493394647L377.617868887422,418.6261875331562L377.66087311771184,418.717213312743L377.8328900388706,418.94476860024804L377.8758942691604,419.0357870535946L377.91889849945005,418.94476860024804L378.00490696002953,418.94476860024804L378.1339196508984,418.94476860024804L378.30593657205713,418.9902780883289L378.30593657205713,419.0357870535946L378.3489408023472,419.1268034162407L378.30593657205713,419.2178176893019L378.26293234176774,419.3543351833616L378.2199281114779,419.4453442373407L378.2199281114779,419.6728577498732L378.2199281114779,419.763859508847L378.2199281114779,419.8548591860424L378.3489408023472,419.99135480093935L378.43494926292624,420.1278457381043L378.6069661840852,420.2188370993315L378.9940042566925,420.4463064214346L379.1230169475616,420.49179873023246L379.2090254081411,420.53729052081405L379.3810423292998,420.53729052081405L379.5100550201687,420.53729052081405L379.59606348074817,420.582781793319L379.7250761716173,420.62827254788647L379.81108463219675,420.71925250376484L379.8540888624864,420.8102303895631L379.8970930927758,420.94669333929585L379.94009732306586,421.03766605476494L380.06911001393496,421.08315163761085L380.19812270480384,421.1741212542215L380.4131438562524,421.1286367040502L380.4991523168319,421.08315163761085L380.6711692379906,421.1286367040502L380.7571776985699,421.2196052882647L380.84318615914935,421.3105718085214L380.9291946197286,421.3560542950132L381.23022423175667,421.3560542950132L381.35923692262577,421.3560542950132L381.5742580740741,421.3105718085214L381.70327076494345,421.3105718085214L381.87528768610196,421.3105718085214L382.09030883755054,421.44701772141946L382.1763172981298,421.58345899667154L382.21932152841964,421.8108508264072L382.26232575870927,422.129177796294L382.26232575870927,422.3110676282895L382.3053299889989,422.5384183846288L382.34833421928874,422.7657563419996L382.52035114044725,423.1294704952644L382.6493638313166,423.35677525654205L382.8213807524753,423.5386098944507L383.0794061342135,423.67498052889306L383.25142305537247,423.76589174251126L383.4664442068208,423.81134658693384L383.89648650971776,423.9022547516987L383.98249497029724,423.94770807231805L384.1975161217456,423.94770807231805L384.4555415034838,423.94770807231805L384.62755842464253,423.9022547516987L384.7995753458015,423.85680092328334L385.01459649724984,423.76589174251126L385.18661341840857,423.72043638987725L385.40163456985715,423.72043638987725L385.6166557213055,423.67498052889306L385.78867264246423,423.584067281318L386.04669802420244,423.4022346798622L386.0897022544923,423.35677525654205L386.2187149453614,423.2658548813822L386.3477276362303,423.2203939292654L386.4767403270994,423.2203939292654L386.56274878767886,423.2658548813822L386.6057530179687,423.4476935938614L386.56274878767886,423.67498052889306L386.51974455738923,423.9022547516987L386.56274878767886,424.17496706333395L386.6057530179687,424.4931083621553L386.6057530179687,424.7203369644432L386.6057530179687,424.8566680610952L386.69176147854773,424.94755293420496L386.8637783997067,425.0384357888805L386.9927910905758,425.0384357888805L387.2078122420244,424.9929946137779L387.3798291631831,424.94755293420496L387.5948503146317,424.9021107500238L387.72386300550056,424.94755293420496L387.85287569636967,425.0384357888805L387.98188838723877,425.12931662622987L388.19690953868735,425.4928198245157L388.239913768977,425.5836905918467L388.4119306901357,425.67455934849534L388.4979391507152,425.71999297316006L388.71296030216354,425.71999297316006L388.84197299303287,425.71999297316006L389.0139899141916,425.81085871586157L389.22901106563995,425.90172245064844L389.35802375650906,425.9925841786275L389.48703644737816,426.17430161858715L389.57304490795764,426.2651573327806L389.6590533685369,426.3560110445919L389.74506182911637,426.446862755127L389.9170787502751,426.4922878602615L390.0890956714338,426.5377124654917L390.34712105317203,426.4922878602615L390.47613374404114,426.446862755127L390.5621422046206,426.4922878602615L390.6481506652001,426.58313657095573L390.6481506652001,426.7648279979152L390.6481506652001,426.9919310534607L390.60514643491024,427.08276878602214L390.6481506652001,427.2190216494003L390.6911548954897,427.30985440295404L390.7771633560692,427.40068516683846L390.8631718166482,427.446099803L390.99218450751755,427.49151394215806L391.12119719838665,427.5369275844516L391.25020988925576,427.5823407300177L391.46523104070434,427.6277533789955L391.46523104070434,427.7639883477751L391.4222268104145,427.94562802894484L391.37922258012486,428.0364448960695L391.336218349835,428.1272597823595L391.2072056589659,428.1726664830363L390.99218450751755,428.2180726889186L390.6911548954897,428.30888361685015L390.47613374404114,428.44509630123594L390.39012528346166,428.53590228742735L390.046091441144,428.8083084018232L389.9170787502751,428.989902618968L389.788066059406,429.1714889591111L389.57304490795764,429.26227917806307L389.3150195262192,429.35306743107157L389.22901106563995,429.39846082069164L389.1860068353503,429.4438537192393L389.1430026050605,429.5346380436686L389.09999837477085,429.58002946982526L389.0569941444812,429.67081085071254L388.97098568390174,429.8069792455429L388.9279814536121,429.8977557260355L388.84197299303287,429.8977557260355L388.71296030216354,429.9885302482985L388.62695184158406,430.03391677543823L388.5409433810048,430.1246883624217L388.4979391507152,430.3516087770795L388.5409433810048,430.44237352471214L388.62695184158406,430.62389716621L388.71296030216354,430.71465606227616L388.84197299303287,430.76003477962007L388.9279814536121,430.8054130100214L389.09999837477085,430.8054130100214L389.2720152959296,430.8054130100214L389.44403221708853,430.8054130100214L389.57304490795764,430.8054130100214L389.9170787502751,430.76003477962007L390.0890956714338,430.8054130100214L390.2611125925928,430.8507907536172L390.39012528346166,430.9415447809439L390.60514643491024,431.21379519390234L390.6481506652001,431.2591685624402L390.7771633560692,431.34991384336297L390.9061760469383,431.395285756023L390.99218450751755,431.4860281264274L391.12119719838665,431.4860281264274L391.25020988925576,431.5313985844466L391.4222268104145,431.6675070514214L391.594243731573,431.75824360820957L391.7232564224423,431.8489782293244L391.8522691133114,431.93971091586536L392.0672902647598,432.1665341756662L392.1963029556291,432.21189737903086L392.36831987678784,432.25726009985095L392.49733256765694,432.30262233826346L392.66934948881544,432.34798409440526L392.7553579493949,432.4840664705846L392.8413664099744,432.6201445112745L392.8413664099744,432.8015751611739L392.7553579493949,432.9829981189098L392.6263452585258,433.16441339326525L392.49733256765694,433.2097660123548L392.41132410707746,433.3458209930194L392.23930718591873,433.6179180219757L392.11029449504963,433.70861320383597L391.9812818041805,433.7993064736278L391.8522691133114,433.889997832449L391.7232564224423,433.93534279558787L391.5512395012836,434.11671787619844L391.50823527099396,434.2527441799498L391.46523104070434,434.3434260003605L391.46523104070434,434.4341059163776L391.46523104070434,434.5701222220623L391.5512395012836,434.61546003961405L391.6802521921527,434.66079738188955L391.8522691133114,434.5701222220623L391.9812818041805,434.524783929097L392.15329872533925,434.4794451605809L392.41132410707746,434.4341059163776L392.7553579493949,434.4794451605809L392.9273748705539,434.524783929097L393.1854002522921,434.524783929097L393.40042140374067,434.5701222220623L393.65844678547865,434.5701222220623L393.8734679369272,434.5701222220623L394.0884890883758,434.524783929097L394.3465144701138,434.524783929097L394.604539851852,434.4341059163776L394.7335525427211,434.4341059163776L394.9915779244593,434.2980853282729L395.1205906153284,434.11671787619844L395.2496033061973,434.11671787619844L395.421620227356,434.11671787619844L395.5076286879355,434.1620604540493L395.593637148515,434.2527441799498L395.55063291822535,434.4341059163776L395.421620227356,434.4794451605809L395.29260753648714,434.524783929097L395.16359484561804,434.61546003961405L395.0345821547487,434.75147064115845L394.9055694638796,434.842142000964L394.8625652335902,434.93281146240196L394.8195610033006,435.02347902656743L394.9055694638796,435.1141446945555L394.9915779244593,435.1141446945555L395.1205906153284,435.1594768178253L395.20659907590766,435.2501396436011L395.3786159970664,435.2954703463805L395.5076286879355,435.2501396436011L395.67964560909445,435.2954703463805L395.80865829996355,435.3408005759363L395.8946667605428,435.43145961592705L395.8946667605428,435.6127720232513L395.80865829996355,435.7487513694791L395.80865829996355,435.88472646901164L395.7226498393841,436.11134220782844L395.7656540696737,436.2473060008924L395.80865829996355,436.3379461776196L395.8516625302532,436.4285844740368L395.8946667605428,436.56453839547294L395.98067522112206,436.6551719958984L396.10968791199116,436.7004880923615L396.19569637257064,436.7004880923615L396.19569637257064,436.79111887847193L396.19569637257064,436.8817477897381L396.152692142281,436.9723748272531L396.06668368170153,437.0176876436958L395.93767099083243,437.0176876436958L395.80865829996355,436.9723748272531L395.593637148515,436.92706154264636L395.46462445764587,436.92706154264636L395.33561176677676,436.9723748272531L395.2496033061973,437.0629999921106L395.1205906153284,437.1989342305519L394.9055694638796,437.5614049738809L394.8195610033006,437.78793402636666L394.8195610033006,437.8332384391965L394.7765567730107,437.87854238645616L394.6475440821416,438.0144514361757L394.56153562156214,438.0597535225177L394.4755271609829,438.19565699275813L394.4755271609829,438.3315562826866L394.4755271609829,438.4674513959856L394.4755271609829,438.5580458196538L394.5185313912725,438.64863838976964L394.604539851852,438.73922910742385L394.6475440821416,438.8298179737068L394.7765567730107,438.87511171292556L394.8195610033006,438.96569780419685L394.9055694638796,439.01099015652244L394.9915779244593,439.01099015652244L395.16359484561804,439.1015734752359L395.3786159970664,439.1015734752359L395.5076286879355,439.1015734752359L395.7656540696737,439.1015734752359L395.93767099083243,439.1015734752359L396.10968791199116,439.146864441896L396.4107175240192,439.146864441896L396.5397302148883,439.1921549469399L396.6257386754676,439.2827345727245L396.6687429057572,439.3733123536797L396.71174713604705,439.5091755684417L396.71174713604705,439.645034638468L396.6687429057572,439.735605051004L396.6687429057572,439.87145722130856L396.71174713604705,439.9620230374352L396.7547513663367,440.0525870169035L396.9267682874954,440.18842954475525L396.96977251778526,440.2337094702235L397.05578097836474,440.3242679462529L397.141789438944,440.36954649708616L397.1847936692336,440.41482458997996L397.3138063601027,440.5053794024941L397.3998148206822,440.55065612238644L397.57183174184115,440.64120819012135L397.74384866299965,440.6864835382362L397.87286135386876,440.6864835382362L397.9158655841586,440.7770328636409L397.95886981444824,440.9128534267261L397.95886981444824,441.0486698830488L397.9158655841586,441.13921190754263L397.9158655841586,441.3202904900944L397.87286135386876,441.50136179131573L397.82985712357913,441.6371604940913L397.82985712357913,441.81821907391543L397.7868528932895,442.08979333872253L397.7868528932895,442.27083379132046L397.7868528932895,442.4518670082406L397.7868528932895,442.6328929981742L397.74384866299965,442.7686577531408L397.74384866299965,442.8591653358769L397.70084443271,442.94967111675334L397.61483597213055,442.9949233318333L397.57183174184115,443.0854264119552L397.44281905097205,443.17592769293174L397.3138063601027,443.26642717584787L397.141789438944,443.35692486178857L397.0127767480749,443.49266802374547L396.8407598269159,443.62840714861267L396.7547513663367,443.6736526270697L396.71174713604705,443.80938637484553L396.6687429057572,444.0356003372859L396.6687429057572,444.2165634615312L396.71174713604705,444.48799475871726L396.7977555966263,444.6689400433674L396.8407598269159,444.8046443334447L396.8407598269159,444.98557716262064L396.7547513663367,445.3474215131512L396.6687429057572,445.5283330518346L396.6257386754676,445.66401205944925L396.5397302148883,445.79968708849594L396.5397302148883,446.0258033055687L396.5397302148883,446.20668834076173L396.6687429057572,446.3875663289187L396.7977555966263,446.47800268306344L396.8837640572058,446.658870116893L396.9267682874954,446.8397305253186L396.96977251778526,446.93015809770895L397.0127767480749,447.0205839169919L397.09878520865436,447.11100798424866L397.22779789952347,447.156219361205L397.3138063601027,447.2466408024495L397.3998148206822,447.29185086700784L397.44281905097205,447.4274784380471L397.3998148206822,447.56310207797003L397.3998148206822,447.6083090849933L397.35681059039234,447.74392748910043L397.35681059039234,447.92474592670385L397.35681059039234,448.06035518372784L397.35681059039234,448.2411614384504L397.44281905097205,448.3767615682338L397.57183174184115,448.5123577924154L397.6578402024202,448.5575556665276L397.74384866299965,448.647950114638L397.87286135386876,448.73834283016413L397.95886981444824,448.8287338141837L398.08788250531734,448.91912306777635L398.3459078870553,449.0547037059747L398.5179248082143,449.0547037059747L398.73294595966263,449.09989638799624L398.9479671111112,449.09989638799624L399.2059924928494,449.09989638799624L399.37800941400815,449.09989638799624L399.5500263351669,449.0095105920211L399.9800686380638,448.60275310722363L400.238094019802,448.2411614384504L400.3671067106711,448.15075918035006L400.4531151712506,448.06035518372784L400.62513209240933,447.96994944750384L400.75414478327843,447.834337579053L400.9691659347268,447.834337579053L401.18418708617537,447.789132751932L401.3131997770445,447.6535156557661L401.52822092849306,447.6083090849933L401.82925054052066,447.51789463456157L401.8722547708105,447.4274784380471L402.0012674616796,447.3822696846713L402.1302801525487,447.3822696846713L402.3883055342869,447.472686754632L402.56032245544566,447.51789463456157L402.64633091602514,447.56310207797003L402.68933514631476,447.6987217904234L402.775343606894,447.96994944750384L402.8613520674735,448.10555739942185L402.9043562977631,448.1959605266479L402.9903647583426,448.4219607434037L402.9903647583426,448.5123577924154L403.0763732189221,448.60275310722363L403.1193774492117,448.69314668890695L403.16238167950155,448.8287338141837L403.2483901400808,448.96431704599945L403.2913943703704,449.0547037059747L403.3774028309499,449.1450886382196L403.42040706123953,449.23547184381334L403.42040706123953,449.46142231077556L403.46341129152916,449.50661111147133L403.46341129152916,449.6421749305907L403.46341129152916,449.7325486588784L403.3774028309499,449.95847545851854L403.2913943703704,450.048843172772L403.2483901400808,450.18439152723283L403.16238167950155,450.365116667252L403.0333689886322,450.5006560275341L402.81834783718386,450.68136918851167L402.68933514631476,450.77172320596765L402.5173182251558,450.90725103138845L402.3883055342869,450.9976007827305L402.3453013039973,451.1331222140283L402.3453013039973,451.2686398136956L402.3453013039973,451.4041535853658L402.3883055342869,451.4944939749414L402.6033266857353,451.67516965924295L402.7323393766044,451.7655049561208L402.9043562977631,451.8558385575843L403.0333689886322,452.03650067857154L403.1193774492117,452.1268292002461L403.2913943703704,452.30748117133385L403.3774028309499,452.44296571565434L403.3774028309499,452.6236058696535L403.3774028309499,452.8493965839124L403.2913943703704,453.0751767824661L403.1193774492117,453.25579338128216L403.0333689886322,453.4364032693841L402.94736052805274,453.5718562867229L402.8613520674735,453.75245445174914L402.81834783718386,453.88789868664594L402.7323393766044,454.1587758864671L402.68933514631476,454.29420885863544L402.64633091602514,454.429638083805L402.6033266857353,454.7907643931312L402.68933514631476,455.0615916973243L402.775343606894,455.1969997578821L402.8613520674735,455.4226715875575L402.8613520674735,455.6032016168168L402.81834783718386,455.91911329399636L402.775343606894,456.09962519624537L402.64633091602514,456.2801305229235L402.6033266857353,456.5508762024857L402.4743139948664,456.95696708052003L402.3453013039973,457.2276759471485L402.30229707370745,457.3630248756789L402.1302801525487,457.8141615213133L402.04427169196924,458.0397146149007L402.1302801525487,458.22014979497726L402.30229707370745,458.2652575779441L402.5173182251558,458.40057850005655L402.7323393766044,458.53589578479205L402.81834783718386,458.6712094357573L402.9043562977631,458.7163131791982L403.0763732189221,458.8065194565589L403.2483901400808,458.8065194565589L403.42040706123953,458.76141651942083L403.54941975210863,458.6261052889654L403.59242398239826,458.4456846656096L403.67843244297774,458.40057850005655L403.7644409035572,458.2652575779441L403.8934535944263,458.0848240174189L404.06547051558505,458.1750416073231L404.1514789761643,458.3103649563569L404.1514789761643,458.4456846656096L404.1514789761643,458.49079042714374L404.1944832064539,458.58100073868786L404.2804916670334,458.58100073868786L404.45250858819213,458.49079042714374L404.5385170487716,458.40057850005655L404.6245255093511,458.3103649563569L404.7965424305098,458.2652575779441L404.9255551213789,458.3554719303502L404.9255551213789,458.49079042714374L404.88255089108907,458.53589578479205L404.83954666079944,458.6261052889654L404.83954666079944,458.6712094357573L404.9685593516688,458.76141651942083L405.01156358195817,458.8065194565589L405.0545678122478,458.94182585080114L404.88255089108907,458.98692717693666L404.83954666079944,459.1222287413749L404.7965424305098,459.25752668766575L404.83954666079944,459.43791832738543L404.9255551213789,459.5732078453459L405.0545678122478,459.5732078453459L405.1835805031169,459.52811174021895L405.31259319398623,459.6633988536872L405.35559742427586,459.75358826036904L405.35559742427586,459.88886936961416L405.35559742427586,460.0692385860907L405.2695889636964,460.20451130622973L405.1835805031169,460.3397804370386L405.09757204253765,460.4750459821179L404.9685593516688,460.61030794506723L404.83954666079944,460.700480598739L404.7535382002202,460.8808211389726L404.6675297396407,461.0160723771256L404.5385170487716,461.151320047543L404.45250858819213,461.28656415382113L404.3665001276129,461.4668840908605L404.2804916670334,461.55704168834984L404.1514789761643,461.82750500948055L404.1084747458747,462.0078060081064L404.0224662852954,462.2782457041535L403.93645782471594,462.5036013174266L403.85044936413647,462.72894713017047L403.7644409035572,462.95428315901506L403.72143667326736,463.08948008696746L403.67843244297774,463.3148004961559L403.6354282126879,463.6752928971615L403.59242398239826,463.7654121091184L403.46341129152916,463.94564587452123L403.42040706123953,464.08081712656224L403.3774028309499,464.21598489229456L403.3343986006603,464.39620316298965L403.2913943703704,464.5313628079493L403.3343986006603,464.75662116386485L403.3343986006603,464.8917715518471L403.2483901400808,465.0719666800961L403.2053859097912,465.25215565720754L403.2483901400808,465.4323384916746L402.9903647583426,465.56747159152417L402.9043562977631,465.61251519199106L402.81834783718386,465.6575584096044L402.6033266857353,465.83772745417303L402.56032245544566,465.972850224136L402.5173182251558,466.0629301615943L402.4743139948664,466.19804720665854L402.4313097645763,466.3331608215577L402.3453013039973,466.46827100987144L402.30229707370745,466.5583425668567L402.216288613128,466.6484126035663L402.1302801525487,466.6484126035663L401.91525900110014,466.69344705214905L401.74324207994164,466.73848112106083L401.65723361936193,466.8285481204007L401.61422938907253,466.91861360264613L401.61422938907253,467.0537089837808L401.57122515878245,467.1888009574153L401.61422938907253,467.27886038188285L401.65723361936193,467.36891829455567L401.74324207994164,467.5040023312675L401.8722547708105,467.68410909882454L401.91525900110014,467.77416022153307L402.04427169196924,467.95425795010635L402.216288613128,468.13434966328265L402.30229707370745,468.3144353695337L402.4743139948664,468.449495712273L402.56032245544566,468.58455268445425L402.64633091602514,468.76462341044794L402.775343606894,468.8996725318874L402.8613520674735,469.0347182946755L402.9043562977631,469.16976070238456L402.9903647583426,469.30479975858384L403.1193774492117,469.5298574141483L403.1193774492117,469.6198778761236L403.16238167950155,469.75490578640887L403.16238167950155,469.88993036065256L403.0763732189221,469.97994489188784L403.0333689886322,470.069957943081L402.9903647583426,470.15996951528984L402.9043562977631,470.2499796095708L402.81834783718386,470.3849919821895L402.64633091602514,470.61000522855386L402.56032245544566,470.70000794904865L402.5173182251558,470.7450087573842L402.3453013039973,470.8350092708936L402.30229707370745,470.88000897633145L402.216288613128,470.9250083144001L402.1302801525487,470.97000728523255L402.0012674616796,471.23999340565035L401.95826323139,471.41997682458447L401.95826323139,471.6899409820861L402.0012674616796,471.82491813165205L402.04427169196924,471.95989199984416L402.1302801525487,472.0948625902246L402.2592928434178,472.3198062998381L402.3453013039973,472.454768166797L402.56032245544566,472.5897267689999L402.64633091602514,472.72468211000717L402.81834783718386,472.90461749786425L402.9903647583426,473.0845471028038L403.0763732189221,473.21949051654235L403.3774028309499,473.579323767073L403.46341129152916,473.8941589875443L403.5064155218188,474.0290829871024L403.5064155218188,474.2089766398487L403.5064155218188,474.2989213200214L403.5064155218188,474.38886457079775L403.46341129152916,474.47880639323125L403.42040706123953,474.5687467883745L403.3343986006603,474.65868575728064L403.3343986006603,474.7486233010028L403.2483901400808,474.79359153874884L403.16238167950155,474.8385594205932L403.0333689886322,474.8835269466681L402.81834783718386,474.7486233010028L402.7323393766044,474.65868575728064L402.6033266857353,474.70365470722413L402.5173182251558,474.7486233010028L402.4743139948664,474.8385594205932L402.4743139948664,475.0184273915902L402.4743139948664,475.1083592451016L402.5173182251558,475.2882186934129L402.56032245544566,475.4680724704568L402.5173182251558,475.64792058465116L402.4313097645763,475.78280295911406L402.3883055342869,475.91768215650796L402.30229707370745,476.05255818038165L402.216288613128,476.14247376831736L402.1302801525487,476.1874310342853L402.0012674616796,476.2323879484285L401.91525900110014,476.3672565812244L401.82925054052066,476.45716724637464L401.70023784965156,476.54707650737987L401.61422938907253,476.6369843652916L401.52822092849306,476.72689082116085L401.4852166982032,476.8167958760383L401.4422124679136,476.99660178702163L401.3562040073341,477.1764021066486L401.3131997770445,477.3112486820967L401.227191316465,477.44609212067957L400.8831574741473,478.5247271274982L400.7111405529888,478.43484849188485L400.5821278621197,478.43484849188485L400.4531151712506,478.38990865625425L400.410110940961,478.30002794868983L400.3671067106711,478.2550870764934L400.238094019802,478.0753201285519L400.1090813289329,477.8955476396634L400.02307286835367,477.76071463169785L399.89406017748456,477.67082422380076L399.63603479574635,477.5359860054491L399.1629882625598,477.13145255047243L398.86195865053173,476.72689082116085L398.6039332687935,476.1874310342853L398.3029036567659,475.6928817293656L397.61483597213055,474.97346093203475L397.1847936692336,474.4338356604914L396.7547513663367,473.8491836041326L396.32470906343974,473.3994100216707L396.152692142281,473.0845471028038L396.0236794514119,472.8146505273278L395.93767099083243,472.6347122448482L395.80865829996355,472.49975473010625L395.63664137880437,472.3198062998381L395.5076286879355,472.13985205923103L395.421620227356,472.0048825606632L395.29260753648714,471.8699097854708L395.16359484561804,471.7349337300918L395.07758638503856,471.5549605475844L394.9485736941697,471.3749815188577L394.9055694638796,471.23999340565035L394.7765567730107,471.0150058889606L394.56153562156214,470.7900091979553L394.4755271609829,470.5650033161314L394.4755271609829,470.3849919821895L394.56153562156214,470.20497474710487L394.6475440821416,470.069957943081L394.56153562156214,469.93493781134157L394.3895187004034,469.93493781134157L394.26050600953454,470.069957943081L394.13149331866543,470.15996951528984L394.00248062779633,470.15996951528984L393.91647216721685,470.069957943081L393.8734679369272,469.97994489188784L393.78745947634775,469.79991434831857L393.65844678547865,469.70989685382784L393.40042140374067,469.6198778761236L393.1854002522921,469.5298574141483L393.0133833311331,469.48484662622855L392.8413664099744,469.39482393586377L392.7553579493949,469.30479975858384L392.7123537191053,469.16976070238456L392.7553579493949,468.98970341337593L392.88437064026425,469.0347182946755L393.0133833311331,468.98970341337593L393.0993917917126,468.8996725318874L393.14239602200223,468.76462341044794L393.27140871287133,468.6295709267861L393.57243832489917,468.58455268445425L393.91647216721685,468.58455268445425L394.0884890883758,468.58455268445425L394.13149331866543,468.5395340680129L394.13149331866543,468.449495712273L394.0884890883758,468.26941450565675L394.13149331866543,468.13434966328265L394.30351023982394,468.0443045580897L394.3895187004034,467.9092340822373L394.3895187004034,467.77416022153307L394.26050600953454,467.68410909882454L394.13149331866543,467.7291348484907L393.9594763975065,467.81918521808313L393.78745947634775,467.9092340822373L393.4864298643197,467.95425795010635L393.3574171734506,467.9092340822373L393.14239602200223,467.81918521808313L392.9703791008435,467.8642098382737L392.8413664099744,467.9992814420128L392.8413664099744,468.2243932667444L392.8413664099744,468.35945585850703L392.66934948881544,468.6295709267861L392.54033679794657,468.6295709267861L392.41132410707746,468.5395340680129L392.3253156464982,468.3144353695337L392.28231141620836,467.95425795010635L392.28231141620836,467.5040023312675L392.28231141620836,467.27886038188285L392.23930718591873,467.14377067792753L392.11029449504963,466.91861360264613L391.76626065273194,466.28812333083295L391.0351887378072,464.75662116386485L390.3041168228824,463.17960942058755L389.57304490795764,461.42180469955844L389.35802375650906,460.83573659946984L389.2720152959296,460.2496014151361L389.1430026050605,458.7163131791982L389.0569941444812,457.94949459406644L388.97098568390174,457.31790897357394L388.9279814536121,456.95696708052003L388.8849772233225,456.68624351039233L388.84197299303287,456.46062928259823L388.798968762743,456.1898786809954L388.71296030216354,455.91911329399636L388.58394761129443,455.55806972850644L388.62695184158406,455.3775380481226L388.5409433810048,455.1969997578821L388.4979391507152,454.88104181919897L388.4119306901357,454.61020456162436L388.3689264598461,454.429638083805L388.28291799926683,454.11363072911814L388.239913768977,453.88789868664594L388.19690953868735,453.61700645536393L388.4119306901357,453.5718562867229L388.4979391507152,453.61700645536393L388.58394761129443,453.7073055377427L388.62695184158406,453.933045929685L388.71296030216354,454.1587758864671L388.7559645324534,454.3844954248583L388.84197299303287,454.51992215404005L388.9279814536121,454.65534514225794L389.09999837477085,454.74562505787685L389.1860068353503,454.7907643931312L389.1860068353503,454.9261799102802L389.22901106563995,455.1067281313857L389.3150195262192,455.33240409557135L389.4010279867987,455.6032016168168L389.48703644737816,455.91911329399636L389.57304490795764,456.1898786809954L389.70205759882674,456.50575294742623L389.788066059406,456.7313651277162L389.87407451998547,456.7764863359406L389.9170787502751,456.7764863359406L389.87407451998547,456.68624351039233L389.87407451998547,456.5508762024857L389.788066059406,456.2801305229235L389.61604913824726,455.91911329399636L389.530040677668,455.6483330926813L389.48703644737816,455.4678047140107L389.44403221708853,455.1969997578821L389.44403221708853,454.9713175869058L389.44403221708853,454.835903313527L389.57304490795764,454.7907643931312L389.6590533685369,454.7907643931312L389.788066059406,454.88104181919897L389.87407451998547,454.9713175869058L389.9170787502751,455.15186415152687L389.9170787502751,455.2872697297706L389.96008298056495,455.4678047140107L390.046091441144,455.6032016168168L390.0890956714338,455.7385948076068L390.0890956714338,455.82885487435453L390.13209990172345,456.0544978374778L390.1751041320133,456.2350048072452L390.1751041320133,456.46062928259823L390.13209990172345,456.59599904791116L390.0890956714338,456.7764863359406L389.96008298056495,456.95696708052003L389.96008298056495,457.0923233499658L389.96008298056495,457.2276759471485L390.046091441144,457.31790897357394L390.1751041320133,457.4081403705568L390.3041168228824,457.49837013916783L390.39012528346166,457.6337117412249L390.39012528346166,457.76904968546035L390.3041168228824,457.9043839754827L390.3041168228824,458.0397146149007L390.3041168228824,458.1750416073231L390.2611125925928,458.3554719303502L390.2181083623029,458.4456846656096L390.1751041320133,458.58100073868786L390.13209990172345,458.6712094357573L390.13209990172345,458.8065194565589L390.13209990172345,458.98692717693666L390.00308721085435,459.1222287413749L389.9170787502751,459.25752668766575L389.87407451998547,459.3928210194125L389.8310702896956,459.5732078453459L389.8310702896956,459.75358826036904L390.00308721085435,459.79868236342116L390.0890956714338,459.8437760664583L390.2181083623029,459.9339622730216L390.34712105317203,460.0241468811269L390.51913797433076,460.0692385860907L390.7341591257791,460.0692385860907L390.8631718166482,460.11432989184067L390.99218450751755,460.2496014151361L391.0781929680968,460.3397804370386L391.1642014286763,460.3397804370386L391.2072056589659,460.11432989184067L391.336218349835,460.0692385860907L391.46523104070434,460.159420798509L391.6802521921527,460.2496014151361L391.8092648830218,460.20451130622973L391.9812818041805,460.11432989184067L391.9812818041805,459.88886936961416L391.9812818041805,459.70849375716915L391.9382775738907,459.52811174021895L391.7232564224423,459.3477233102237L391.50823527099396,459.30262519968625L391.1642014286763,459.25752668766575L390.99218450751755,459.1673284586438L390.99218450751755,458.98692717693666L390.99218450751755,458.7163131791982L391.0781929680968,458.58100073868786L390.99218450751755,458.4456846656096L390.8631718166482,458.3554719303502L390.8631718166482,458.22014979497726L390.99218450751755,458.0397146149007L391.0351887378072,457.94949459406644L390.99218450751755,457.85927295127635L390.8631718166482,457.9043839754827L390.7771633560692,457.8141615213133L390.7771633560692,457.76904968546035L390.8201675863588,457.6337117412249L390.9491802772277,457.54348441316756L390.99218450751755,457.4081403705568L390.99218450751755,457.27279266410835L390.8631718166482,457.1825588225606L390.5621422046206,457.2276759471485L390.47613374404114,457.1825588225606L390.39012528346166,457.0923233499658L390.4331295137515,456.9118475073552L390.51913797433076,456.59599904791116L390.47613374404114,456.32525582816413L390.34712105317203,456.0544978374778L390.34712105317203,455.87398428999666L390.39012528346166,455.6032016168168L390.51913797433076,455.4678047140107L390.60514643491024,455.1969997578821L390.51913797433076,454.835903313527L390.34712105317203,454.74562505787685L390.13209990172345,454.65534514225794L390.0890956714338,454.56506356559674L390.0890956714338,454.29420885863544L389.96008298056495,454.2039206270798L389.87407451998547,454.29420885863544L389.788066059406,454.51992215404005L389.70205759882674,454.51992215404005L389.57304490795764,454.51992215404005L389.530040677668,454.3393523498467L389.530040677668,454.2039206270798L389.44403221708853,454.06848515490003L389.2720152959296,454.06848515490003L389.1860068353503,453.97819275531725L389.0569941444812,453.6621562056592L389.0569941444812,453.4364032693841L389.0139899141916,453.3009464821012L388.84197299303287,453.34609916363513L388.7559645324534,453.16548592125025L388.7559645324534,452.9848659638546L388.58394761129443,452.75908156103355L388.45493492042533,452.3978046228971L388.45493492042533,451.9461704647094L388.4979391507152,451.5848326658751L388.4119306901357,451.4041535853658L388.19690953868735,451.2234677059855L388.1109010781079,451.1331222140283L388.1109010781079,450.90725103138845L388.06789684781825,450.68136918851167L388.1109010781079,450.5006560275341L387.93888415694914,450.45547666857397L387.8958799266593,450.3199360246212L388.0248926175286,450.3199360246212L388.1109010781079,450.274754953831L388.1539053083977,450.048843172772L388.32592222955645,449.82292066752325L388.45493492042533,449.7325486588784L388.45493492042533,449.59698742124414L388.28291799926683,449.59698742124414L388.06789684781825,449.6873620097573L387.80987146608004,449.7777348780887L387.5948503146317,449.8681060273166L387.3798291631831,449.8681060273166L387.1648080117345,449.82292066752325L387.0357953208654,449.6873620097573L386.90678262999654,449.3710434170918L386.7347657088378,448.69314668890695L386.56274878767886,447.96994944750384L386.3477276362303,447.3370604943699L385.96068956362296,446.5684372786944L385.65965995159513,445.9353581426286L385.4876430304364,445.48310583120576L384.9715922669602,444.4427573239352L384.713566885222,443.8998733017217L384.4555415034838,443.17592769293174L383.85348227942814,441.81821907391543L383.76747381884866,441.3202904900944L383.85348227942814,441.0939411231775L384.1975161217456,440.86758036218623L384.3265288126147,440.55065612238644L384.3265288126147,440.36954649708616L384.1975161217456,440.36954649708616L384.02549920058686,440.41482458997996L383.85348227942814,440.59593238488327L383.7244695885588,440.86758036218623L383.5524526674001,441.0033981870216L383.4664442068208,440.9581260349594L383.4234399765312,440.55065612238644L383.38043574624135,439.9620230374352L383.25142305537247,439.1921549469399L382.9503934433444,437.78793402636666L382.73537229189606,437.10831187263386L382.5633553707373,436.56453839547294L382.39133844957837,436.11134220782844L382.00430037697106,435.47678842663476L381.7892792255225,435.02347902656743L381.61726230436375,434.524783929097L381.4882496134949,433.98068728139515L381.31623269233614,433.5272209269508L381.0152030803081,432.9829981189098L380.628165007701,432.30262233826346L380.4131438562524,431.8036111606575L380.19812270480384,431.34991384336297L379.8540888624864,430.8961680105457L379.7250761716173,430.8054130100214L379.5530592504583,430.8054130100214L379.3810423292998,430.71465606227616L379.29503386872034,430.3516087770795L378.9940042566925,429.943143231877L378.7789831052439,429.4438537192393L378.7359788749543,428.989902618968L378.43494926292624,428.53590228742735L378.2199281114779,427.99103671018037ZM378.04791119031916,427.40068516683846L378.26293234176774,428.0818525867497L378.3919450326366,428.0818525867497L378.47795349321586,428.0818525867497L378.56396195379534,428.0818525867497L378.6069661840852,428.0818525867497L378.7359788749543,428.0818525867497L378.8649915658234,428.0364448960695L378.9940042566925,427.94562802894484L379.080012717272,427.9002188522242L379.166021177851,427.7639883477751L379.166021177851,427.71857718773583L379.2090254081411,427.6277533789955L379.2520296384305,427.5369275844516L379.2520296384305,427.446099803L379.2520296384305,427.3552700335358L379.2090254081411,427.2190216494003L379.2090254081411,427.12818690507197L379.166021177851,427.03735016886463L379.1230169475616,426.9465114396728L379.080012717272,426.9010913273623L378.9940042566925,426.8556707163913L378.8649915658234,426.8102496066218L378.7789831052439,426.7648279979152L378.7359788749543,426.7648279979152L378.6499704143748,426.8102496066218L378.56396195379534,426.8556707163913L378.47795349321586,426.9010913273623L378.43494926292624,426.9465114396728L378.3489408023472,426.9465114396728L378.26293234176774,426.9919310534607L378.2199281114779,427.08276878602214L378.17692388118826,427.12818690507197L378.1339196508984,427.17360452615185L378.0909154206088,427.2190216494003L378.04791119031916,427.2644382749547L378.04791119031916,427.30985440295404Z"></path>
<circle class="distCircs" cx="394.8344553769774" cy="462.5492212845497" r="2.8133409682694173" stroke="#000" stroke-width="0.25" fill="#bfe2a0" data-q="KERALA" data-r="ALAPPUZHA"><title>KERALA - ALAPPUZHA: Census 2011 Total Rural Households = 245,849. Census 2011 Households with toilets = 223,557. Census 2001 Total Rural Households = 343,345. Census 2001 Households with toilets = 264,125. Difference between Census 2011 Households with toilets and Census 2001 Households with toilets = 14.0%</title></circle><circle class="distCircs" cx="391.4334999418496" cy="451.1635613881821" r="2.823127305375982" stroke="#000" stroke-width="0.25" fill="#ddf0ae" data-q="KERALA" data-r="ERNAKULAM"><title>KERALA - ERNAKULAM: Census 2011 Total Rural Households = 256,310. Census 2011 Households with toilets = 248,348. Census 2001 Total Rural Households = 356,272. Census 2001 Households with toilets = 318,683. Difference between Census 2011 Households with toilets and Census 2001 Households with toilets = 7.4%</title></circle><circle class="distCircs" cx="399.7761878294154" cy="453.8158048091266" r="2.8306696475085436" stroke="#000" stroke-width="0.25" fill="#c2e3a1" data-q="KERALA" data-r="IDUKKI"><title>KERALA - IDUKKI: Census 2011 Total Rural Households = 264,649. Census 2011 Households with toilets = 234,641. Census 2001 Total Rural Households = 253,875. Census 2001 Households with toilets = 191,015. Difference between Census 2011 Households with toilets and Census 2001 Households with toilets = 13.4%</title></circle><circle class="distCircs" cx="378.0206191468709" cy="421.5955585845249" r="2.764032031238006" stroke="#000" stroke-width="0.25" fill="#bee2a0" data-q="KERALA" data-r="KANNUR"><title>KERALA - KANNUR: Census 2011 Total Rural Households = 198,846. Census 2011 Households with toilets = 191,409. Census 2001 Total Rural Households = 232,830. Census 2001 Households with toilets = 191,313. Difference between Census 2011 Households with toilets and Census 2001 Households with toilets = 14.1%</title></circle><circle class="distCircs" cx="372.46461922191514" cy="414.9856383571411" r="2.7227154020602775" stroke="#000" stroke-width="0.25" fill="#8ecc88" data-q="KERALA" data-r="KASARGOD"><title>KERALA - KASARGOD: Census 2011 Total Rural Households = 165,969. Census 2011 Households with toilets = 147,447. Census 2001 Total Rural Households = 177,686. Census 2001 Households with toilets = 113,931. Difference between Census 2011 Households with toilets and Census 2001 Households with toilets = 24.7%</title></circle><circle class="distCircs" cx="398.60775511978756" cy="467.60144382982185" r="2.9132294881774383" stroke="#000" stroke-width="0.25" fill="#c8e6a4" data-q="KERALA" data-r="KOLLAM"><title>KERALA - KOLLAM: Census 2011 Total Rural Households = 373,677. Census 2011 Households with toilets = 347,521. Census 2001 Total Rural Households = 486,656. Census 2001 Households with toilets = 394,062. Difference between Census 2011 Households with toilets and Census 2001 Households with toilets = 12.0%</title></circle><circle class="distCircs" cx="391.80092591385096" cy="457.773589627858" r="2.8923016229198772" stroke="#000" stroke-width="0.25" fill="#c9e7a5" data-q="KERALA" data-r="KOTTAYAM"><title>KERALA - KOTTAYAM: Census 2011 Total Rural Households = 342,707. Census 2011 Households with toilets = 328,926. Census 2001 Total Rural Households = 362,910. Census 2001 Households with toilets = 305,677. Difference between Census 2011 Households with toilets and Census 2001 Households with toilets = 11.7%</title></circle><circle class="distCircs" cx="383.8760104750222" cy="431.40536361479553" r="2.800009781468051" stroke="#000" stroke-width="0.25" fill="#e0f1b0" data-q="KERALA" data-r="KOZHIKODE"><title>KERALA - KOZHIKODE: Census 2011 Total Rural Households = 232,228. Census 2011 Households with toilets = 225,213. Census 2001 Total Rural Households = 359,576. Census 2001 Households with toilets = 324,608. Difference between Census 2011 Households with toilets and Census 2001 Households with toilets = 6.7%</title></circle><circle class="distCircs" cx="386.5676578135341" cy="437.6327980201068" r="2.951769321643119" stroke="#000" stroke-width="0.25" fill="#d3ebaa" data-q="KERALA" data-r="MALAPPURAM"><title>KERALA - MALAPPURAM: Census 2011 Total Rural Households = 437,511. Census 2011 Households with toilets = 422,205. Census 2001 Total Rural Households = 540,154. Census 2001 Households with toilets = 469,088. Difference between Census 2011 Households with toilets and Census 2001 Households with toilets = 9.7%</title></circle><circle class="distCircs" cx="393.61996745294437" cy="438.90304957828204" r="2.972747912475302" stroke="#000" stroke-width="0.25" fill="#9ad28e" data-q="KERALA" data-r="PALAKKAD"><title>KERALA - PALAKKAD: Census 2011 Total Rural Households = 476,318. Census 2011 Households with toilets = 419,962. Census 2001 Total Rural Households = 450,331. Census 2001 Households with toilets = 297,734. Difference between Census 2011 Households with toilets and Census 2001 Households with toilets = 22.1%</title></circle><circle class="distCircs" cx="401.31025920750847" cy="461.4898827876935" r="2.848523253735816" stroke="#000" stroke-width="0.25" fill="#c6e5a3" data-q="KERALA" data-r="PATHANAMTHITTA"><title>KERALA - PATHANAMTHITTA: Census 2011 Total Rural Households = 285,389. Census 2011 Households with toilets = 267,280. Census 2001 Total Rural Households = 263,123. Census 2001 Households with toilets = 213,696. Difference between Census 2011 Households with toilets and Census 2001 Households with toilets = 12.4%</title></circle><circle class="distCircs" cx="400.7551634744585" cy="473.83605787572566" r="2.924006509747604" stroke="#000" stroke-width="0.25" fill="#c2e4a2" data-q="KERALA" data-r="THIRUVANANTHAPURAM"><title>KERALA - THIRUVANANTHAPURAM: Census 2011 Total Rural Households = 390,607. Census 2011 Households with toilets = 358,783. Census 2001 Total Rural Households = 507,646. Census 2001 Households with toilets = 398,992. Difference between Census 2011 Households with toilets and Census 2001 Households with toilets = 13.3%</title></circle><circle class="distCircs" cx="388.70223428242844" cy="444.60687215981113" r="2.8143678539019774" stroke="#000" stroke-width="0.25" fill="#ddf0ae" data-q="KERALA" data-r="THRISSUR"><title>KERALA - THRISSUR: Census 2011 Total Rural Households = 246,928. Census 2011 Households with toilets = 239,266. Census 2001 Total Rural Households = 450,240. Census 2001 Households with toilets = 402,779. Difference between Census 2011 Households with toilets and Census 2001 Households with toilets = 7.4%</title></circle><circle class="distCircs" cx="384.0945758799803" cy="424.24648997380353" r="2.739518329720206" stroke="#000" stroke-width="0.25" fill="#e1f1b0" data-q="KERALA" data-r="WAYANAD"><title>KERALA - WAYANAD: Census 2011 Total Rural Households = 178,686. Census 2011 Households with toilets = 163,769. Census 2001 Total Rural Households = 157,906. Census 2001 Households with toilets = 134,318. Difference between Census 2011 Households with toilets and Census 2001 Households with toilets = 6.6%</title></circle></g></g></svg>