<?xml version="1.0" standalone="no"?><!DOCTYPE svg PUBLIC "-//W3C//DTD SVG 1.1//EN" "http://www.w3.org/Graphics/SVG/1.1/DTD/svg11.dtd"><svg id="chart" width="960" height="500" class="dorlingCart" data-type="dorlingCart" version="1.1" xmlns:xlink="http://www.w3.org/1999/xlink" xmlns="http://www.w3.org/2000/svg"><defs class="svg-crowbar"><style type="text/css"><![CDATA[.feature{ fill: #fcfcfc; stroke: #000000; stroke-width: 0.2px; cursor: pointer; }]]></style></defs>
<g><g transform="translate(-2108.1083984375,-649.7227783203125)scale(4,4)">
<path class="feature" data-q="MANIPUR" d="M640.8037582603595,215.98584735710375L640.889766720939,216.0842419015283L640.9757751815182,216.18263152076133L641.0617836420977,216.23182448392885L641.1047878723873,216.33020671836397L641.1477921026772,216.4285840315946L641.2338005632564,216.5269564252148L641.4058174844154,216.67450579486194L641.4918259449946,216.7728658964288L641.620838635864,216.7728658964288L641.8358597873121,216.72368645999893L641.9648724781812,216.67450579486194L642.0508809387604,216.62532390081782L642.1368893993401,216.67450579486194L642.1798936296298,216.72368645999893L642.1798936296298,216.7728658964288L642.265902090209,216.92039683546534L642.3089063204989,217.01874465493648L642.3949147810781,217.11708756435627L642.3949147810781,217.21542556531608L642.437919011368,217.26459272562113L642.4809232416578,217.26459272562113L642.6099359325267,217.26459272562113L642.695944393106,217.16625717829436L642.7389486233958,217.01874465493648L642.7819528536857,216.96957135905689L642.9109655445545,216.87122108396306L642.996974005134,216.7728658964288L643.1259866960031,216.62532390081782L643.2980036171616,216.5269564252148L643.4270163080307,216.4285840315946L643.5130247686104,216.28101621639667L643.5560289988998,216.18263152076133L643.6420374594793,215.98584735710375L643.7280459200588,215.83824630224052L643.9860713017968,215.1985135032391L644.1150839926661,215.05085323590464L644.1580882229555,214.90318184915225L644.2440966835352,214.80472807786418L644.3731093744043,214.7062693606136L644.5021220652732,214.60780569580066L644.6741389864321,214.50933708182487L644.8461559075909,214.41086351708555L644.97516859846,214.21390152890973L645.1471855196187,214.06616703011127L645.2761982104878,213.91842137587554L645.362206671067,213.8199180729154L645.6202320528055,213.37659178193962L645.7062405133847,213.27806116824075L645.7062405133847,213.0809850268236L645.534223592226,212.8838889893429L645.4052109013569,212.7360538967087L645.2331939801979,212.6867730429454L645.0611770590397,212.5882075998856L645.0181728287494,212.391061766004L644.97516859846,212.1938959910505L644.97516859846,211.996710262154L644.97516859846,211.94741071061702L645.0611770590397,211.89810991095277L645.2761982104878,211.8488078629597L645.4912193619361,211.89810991095277L645.6632362830951,211.996710262154L645.7922489739644,212.09530562164986L645.8782574345435,212.1938959910505L646.0502743557024,212.24318930496833L646.2222912768609,212.24318930496833L646.3943081980199,212.1938959910505L646.9103589614963,212.09530562164986L646.9963674220755,212.09530562164986L647.2113885735241,212.04600856576474L647.3404012643932,212.09530562164986L647.7704435672902,212.14460143001133L647.8564520278696,212.1938959910505L648.071473179318,212.24318930496833L648.1574816398972,212.24318930496833L648.329498561056,212.1938959910505L648.5445197125046,212.14460143001133L648.7165366336635,212.14460143001133L648.8885535548222,212.09530562164986L649.0605704759812,212.09530562164986L649.1465789365604,212.14460143001133L649.2755916274295,212.1938959910505L649.4046043182984,212.24318930496833L649.5766212394574,212.29248137196544L649.6626297000366,212.29248137196544L649.8346466211956,212.29248137196544L650.0066635423543,212.29248137196544L650.0926720029338,212.1938959910505L650.2216846938029,212.09530562164986L650.350697384672,211.996710262154L650.4797100755409,211.8488078629597L650.5227143058307,211.79950456643598L650.7807396875689,211.60227889101367L650.8667481481482,211.60227889101367L651.0387650693069,211.65158718367138L651.167777760176,211.75020002118066L651.339794681335,211.94741071061702L651.4688073722039,212.09530562164986L651.8558454448112,212.4896371747742L651.9848581356803,212.5882075998856L652.1138708265494,212.6867730429454L652.1998792871286,212.6867730429454L652.2858877477083,212.63749094407103L652.3718962082876,212.5389230101868L652.4149004385772,212.391061766004L652.6299215900256,212.3417721922437L652.8019385111845,212.3417721922437L653.0169596626331,212.3417721922437L653.1459723535022,212.3417721922437L653.3609935049508,212.29248137196544L653.6190188866888,212.24318930496833L653.8340400381371,212.04600856576474L653.9630527290064,211.94741071061702L654.2210781107447,211.75020002118066L654.3930950319034,211.60227889101367L654.5651119530621,211.45434651501205L654.6941246439312,211.3064028877372L654.8231373348003,211.15844800374748L655.0811627165385,210.76384657220956L655.2531796376973,210.7145157570448L655.3821923285661,210.61585036701302L655.5112050194352,210.56651579174263L655.6402177103043,210.56651579174263L655.7692304011737,210.56651579174263L655.9412473223326,210.56651579174263L656.1132642434911,210.46784287968381L656.2852811646499,210.3691649509205L656.414293855519,210.22113864792078L656.5433065463881,210.07310104824523L656.5863107766779,209.97440303650347L656.6723192372574,209.87569999997527L656.8443361584159,209.77699193704206L656.9733488492852,209.53019977857156L657.0163530795746,209.43147411047983L657.1023615401539,209.38210938890194L657.2743784613128,209.33274340870003L657.3173826916027,209.33274340870003L657.4033911521822,209.38210938890194L657.5324038430513,209.48083757363554L657.5754080733407,209.57956072549098L657.5754080733407,209.6289204145951L657.5324038430513,209.77699193704206L657.4463953824716,209.92505214643876L657.3603869218923,210.07310104824523L657.2743784613128,210.17179403681774L657.1883700007336,210.31982410476996L657.1453657704437,210.41850454249095L657.1023615401539,210.61585036701302L657.0163530795746,210.8131761344095L656.9303446189954,210.96115730523985L656.8873403887055,211.10912720665124L656.8443361584159,211.3064028877372L656.8873403887055,211.5036585568854L656.8873403887055,211.65158718367138L656.8873403887055,211.79950456643598L656.8443361584159,211.94741071061702L656.7583276978364,211.996710262154L656.6293150069675,212.09530562164986L656.5433065463881,212.14460143001133L656.4572980858088,212.29248137196544L656.5433065463881,212.44035009344708L656.6293150069675,212.4896371747742L656.7583276978364,212.4896371747742L656.9303446189954,212.5882075998856L657.0163530795746,212.6867730429454L657.2313742310232,212.83461186970635L657.4463953824716,212.8838889893429L657.7474249944994,212.9824394958942L657.9194419156584,213.0809850268236L658.0914588368171,213.1795255837369L658.263475757976,213.32732709634047L658.3924884488451,213.32732709634047L658.3924884488451,213.57363810334584L658.3064799882654,213.72140980797553L658.1774672973968,213.8199180729154L658.0054503762378,213.96767116711425L657.8764376853685,214.16465793513612L657.8764376853685,214.46010091840094L657.8764376853685,214.75549933758396L657.8764376853685,214.853955581653L657.7904292247892,215.05085323590464L657.6184123036303,215.1985135032391L657.4463953824716,215.4938007012375L657.2743784613128,215.73983943785294L657.1453657704437,216.03504524506474L657.1023615401539,216.33020671836397L657.1023615401539,216.62532390081782L657.1023615401539,216.7728658964288L657.0593573098645,217.01874465493648L657.1453657704437,217.21542556531608L657.2313742310232,217.3629233668762L657.2743784613128,217.41208684822317L657.4033911521822,217.41208684822317L657.7474249944994,217.41208684822317L657.7904292247892,217.4612491036491L657.962446145948,217.60872851638595L658.2204715276862,217.75619690298635L658.4354926791348,217.80535058252792L658.8225307517419,217.95280427595816L659.0805561334801,218.1002469557676L659.3815857455079,218.29682007248255L659.4675942060874,218.44423707469173L659.5966068969565,218.8372953380976L659.6826153575357,219.18115725647823L659.6826153575357,219.37762296380663L659.6826153575357,219.57406918336994L659.5966068969565,220.01600199085067L659.4675942060874,220.2123849626339L659.3815857455079,220.35965943723897L659.252573054639,220.50692298557243L659.1665645940595,220.65417561296738L659.0375519031904,220.85049547058122L658.9945476729008,220.9977226365143L659.0375519031904,221.0958680228219L659.1235603637699,221.14493889927263L659.1235603637699,221.29214426418088L659.0375519031904,221.43933873656266L658.8655349820317,221.63558109833832L658.7795265214522,221.83180411769388L658.4784969094242,222.32227712569352L658.263475757976,222.76359970182665L658.1344630671069,223.05776054680422L658.0484546065275,223.40089345675972L657.9194419156584,223.596942960869L657.8764376853685,223.8909811897879L657.7474249944994,224.2829649766968L657.7474249944994,224.5769024830003L657.7474249944994,224.82181748231437L657.6614165339201,225.01772795003433L657.5754080733407,225.16464824886168L657.4033911521822,225.2625891405546L657.3173826916027,225.2625891405546L657.2313742310232,225.21361929199708L657.1023615401539,225.16464824886168L656.8873403887055,225.16464824886168L656.7583276978364,225.2625891405546L656.7153234675468,225.4094915207137L656.7153234675468,225.60534464869056L656.8443361584159,225.85013421728758L656.8013319281265,226.14384236446563L656.8013319281265,226.3396239759512L656.7583276978364,226.48644768795617L656.4572980858088,226.78006300063333L656.1562684737808,227.12256013248947L656.0702600132013,227.26932680910363L655.8982430920428,227.41608280822794L655.7692304011737,227.66065242661023L655.5542092497251,227.85628679317426L655.425196558856,227.95409687135162L655.2101754074074,228.29639486969256L655.1241669468282,228.44307627335735L654.9521500256694,228.63863493500946L654.8661415650902,228.83417470149095L654.6941246439312,229.17632386365898L654.6511204136416,229.42068075400584L654.5651119530621,229.66500819817475L654.5221077227725,229.86044896852496L654.3500908016135,230.30012191852546L654.1780738804548,230.83737080256896L654.0060569592961,231.0815279357277L653.7480315775579,231.32565578701684L653.705027347268,231.5209370013061L653.705027347268,231.716199502971L653.7480315775579,231.81382374042386L653.705027347268,232.0090581962782L653.5760146563989,232.15547177756548L653.4470019655298,232.3994710749161L653.3609935049508,232.5458566589184L653.2749850443713,232.78980932491254L653.1889765837918,233.22885077421296L653.1459723535022,233.42395006599332L652.9739554323432,233.76532909559677L652.8449427414741,233.91161697976463L652.7589342808949,234.2529147809862L652.7589342808949,234.39916788175566L652.8019385111845,234.59415580219536L652.7589342808949,234.8378646618999L652.7589342808949,235.03281093191816L652.5439131294463,235.56881786503624L652.4579046688671,235.71497733757758L652.3718962082876,235.90984049269076L652.328891977998,236.15339351190033L652.2858877477083,236.25080665902715L652.0278623659701,236.83518891661475L651.8558454448112,237.02994622949814L651.8128412145215,237.1760021606995L651.8128412145215,237.41940576896724L651.8128412145215,237.61410801992656L651.7698369842317,237.80879194127567L651.6838285236527,237.95479286080462L651.597820063073,238.14944473462646L651.5548158327836,238.29542163248294L651.4688073722039,238.53869360599674L651.3827989116246,238.7819370297753L651.2967904510454,238.9278693900419L651.167777760176,239.12242990468945L651.0817692995968,239.21970332298122L650.9957608390175,239.365604905895L650.8667481481482,239.41423648908534L650.7377354572791,239.31697218394112L650.6947312269897,239.12242990468945L650.6517269966998,239.0251519275488L650.4367058452513,238.68464308471306L650.3076931543822,238.53869360599674L650.1356762332232,238.39273384937525L649.8776508514852,238.34407831230374L649.6196254697472,238.29542163248294L649.4906127788781,238.24676380972295L649.3616000880088,238.05212108549352L649.1465789365604,237.90612703215112L648.9315577851119,237.76012267867333L648.630528173084,237.61410801992656L648.4155070216357,237.56543417606332L648.2864943307666,237.41940576896724L648.071473179318,237.37072734079862L647.8564520278696,237.37072734079862L647.5984266461312,237.41940576896724L647.3834054946831,237.51675918640933L647.2113885735241,237.56543417606332L647.0393716523654,237.76012267867333L646.8243505009166,237.90612703215112L646.6953378100477,237.95479286080462L646.3943081980199,237.90612703215112L646.2222912768609,237.80879194127567L646.1362828162817,237.61410801992656L646.0072701254126,237.41940576896724L645.7922489739644,237.27336704461493L645.6632362830951,236.98125862358086L645.534223592226,236.83518891661475L645.2761982104878,236.64041322537565L645.0611770590397,236.64041322537565L644.7601474470114,236.68910887182346L644.6311347561423,236.78649671725242L644.5021220652732,236.83518891661475L644.2871009138246,236.8838799673299L644.0720797623765,236.83518891661475L643.9860713017968,236.78649671725242L643.8140543806383,236.68910887182346L643.5560289988998,236.64041322537565L643.3840120777413,236.68910887182346L643.2980036171616,236.73780336905207L643.2980036171616,236.8838799673299L643.2980036171616,237.12731799786644L643.254999386872,237.22468517621883L643.1259866960031,237.32204776607807L642.996974005134,237.37072734079862L642.824957083975,237.27336704461493L642.6099359325267,237.27336704461493L642.5239274719472,237.32204776607807L642.3949147810781,237.468083050774L642.265902090209,237.61410801992656L642.0938851690503,237.76012267867333L641.9218682478913,237.80879194127567L641.749851326733,237.80879194127567L641.620838635864,237.80879194127567L641.4488217147048,237.7114522710416L641.3628132541255,237.61410801992656L641.1907963329668,237.32204776607807L641.0617836420977,236.98125862358086L641.0187794118078,236.78649671725242L640.9757751815182,236.54301848406078L640.889766720939,236.4456191435812L640.8037582603595,236.29951150609213L640.5887371089109,236.00726515585336L640.4597244180418,235.86112643279756L640.2447032665932,235.66625866668795L639.9436736545656,235.47137244894992L639.6856482728274,235.4226480100154L639.4276228910892,235.4226480100154L639.2986102002201,235.52009573389319L639.2986102002201,235.81241122044167L639.2986102002201,236.15339351190033L639.1265932790614,236.2021006610267L639.0405848184821,236.2021006610267L638.8255636670335,236.2021006610267L638.739555206454,236.2021006610267L638.6105425155847,236.15339351190033L638.5245340550055,236.0559757595044L638.4385255944264,235.90984049269076L638.2665086732675,235.81241122044167L638.0944917521088,235.763694855432L637.8794706006604,235.86112643279756L637.7934621400807,235.90984049269076L637.5784409886326,236.1046852114565L637.4064240674736,236.25080665902715L637.2344071463149,236.25080665902715L637.1053944554458,236.2021006610267L636.9763817645767,236.2021006610267L636.8473690737078,236.00726515585336L636.8043648434175,235.763694855432L636.8043648434175,235.66625866668795L636.8473690737078,235.52009573389319L636.8473690737078,235.32519566940834L636.8043648434175,235.17900849878566L636.632347922259,235.0815446096645L636.5033352313901,235.13027713188995L636.374322540521,235.32519566940834L636.3313183102312,235.47137244894992L636.2453098496517,235.56881786503624L636.1162971587826,235.61753884257075L635.9872844679135,235.56881786503624L635.8582717770446,235.52009573389319L635.6862548558856,235.37392241689804L635.6002463953064,235.2277387105429L635.4712337044373,235.17900849878566L635.2132083226988,235.17900849878566L635.0411914015401,235.2277387105429L634.7401617895125,235.27646776735327L634.4391321774847,235.2277387105429L634.2241110260361,235.17900849878566L634.1811067957462,234.9353401090989L634.1811067957462,234.6916428170411L634.2241110260361,234.5454105587167L634.3961279471948,234.30166697309625L634.5681448683538,234.0578944228734L634.6111490986432,233.8628555120814L634.654153328933,233.66779803633892L634.5681448683538,233.4727219833673L634.5251406380639,233.32640274494406L634.4391321774847,233.13129415226376L634.353123716905,232.93616694856496L634.267115256326,232.49706263000263L634.267115256326,232.35067354836087L634.3101194866153,232.15547177756548L634.353123716905,232.05786389072944L634.3961279471948,231.81382374042386L634.3961279471948,231.6185705904457L634.4391321774847,231.3744778455727L634.6111490986432,231.22800815878225L634.654153328933,231.1791825887172L634.7401617895125,231.0326988524174L634.8691744803816,230.73969974497777L635.0841956318297,230.25127406856194L635.0411914015401,230.00701719650755L634.9981871712507,229.86044896852496L634.8261702500918,229.71387015559708L634.6971575592227,229.61614506387338L634.654153328933,229.46954859775923L634.6111490986432,229.2251975985846L634.654153328933,228.93193750292176L634.7401617895125,228.7364071793707L634.9551829409609,228.54085796685575L635.1271998621198,228.34528985296174L635.2992167832786,228.19860135604023L635.4712337044373,227.70956279501326L635.4712337044373,227.41608280822794L635.2992167832786,226.9268546118264L635.2132083226988,226.68219598515702L635.1702040924094,226.4375076403847L635.2562125529889,226.19278955315184L635.2992167832786,225.89908855410937L635.4282294741474,225.50742047151368L635.5572421650165,225.4094915207137L635.6432506255962,225.2625891405546L635.7722633164649,225.11567601095317L635.8582717770446,224.96875212663292L635.9442802376236,224.82181748231437L635.9872844679135,224.62588787632086L636.2453098496517,224.2829649766968L636.3313183102312,224.1849762236575L636.4603310011003,223.9889843317706L636.5893436919694,223.596942960869L636.8043648434175,222.95971174669768L636.8903733039972,222.76359970182665L636.9763817645767,222.51843254579808L637.0193859948661,222.2732352557946L637.1053944554458,222.1261024072585L637.1483986857352,221.97895869632907L637.191402916025,221.7827501755179L637.4924325280529,221.04679593530165L637.5784409886326,220.6050926169446L637.6644494492116,220.4578363498287L637.7504579097911,220.35965943723897L637.8794706006604,220.2123849626339L638.008483291529,220.16329104211644L638.1805002126882,220.0650995564224L638.3955213641364,219.9669032098655L638.6535467458746,219.86870200086383L638.8685678973231,219.77049592783555L639.0835890487715,219.57406918336994L639.2126017396408,219.42673634518104L639.2986102002201,219.18115725647823L639.2986102002201,218.1493920691605L639.2986102002201,218.0511006192363L639.2986102002201,217.75619690298635L639.3416144305099,217.55956993753176L639.470627121379,217.16625717829436L639.5996398122479,216.96957135905689L639.8146609636967,216.72368645999893L639.9436736545656,216.57614077766857L640.0296821151451,216.5269564252148L640.1586948060142,216.47777084325617L640.2877074968831,216.37939599002988L640.4167201877524,216.33020671836397L640.5027286483316,216.23182448392885Z"></path>
<circle class="distCircs" cx="643.6761927330799" cy="228.56286480717412" r="2.34847536791308" stroke="#000" stroke-width="0.25" fill="#ffffbf" data-q="MANIPUR" data-r="BISHNUPUR"><title>MANIPUR - BISHNUPUR: Census 2011 Total Rural Households = 28,147. Census 2011 Households with toilets = 25,640. Census 2001 Total Rural Households = 22,484. Census 2001 Households with toilets = 20,490. Difference between Census 2011 Households with toilets and Census 2001 Households with toilets = -0.0%</title></circle><circle class="distCircs" cx="648.3790030145756" cy="234.91454988197034" r="2.331948974545641" stroke="#000" stroke-width="0.25" fill="#c2e4a2" data-q="MANIPUR" data-r="CHANDEL"><title>MANIPUR - CHANDEL: Census 2011 Total Rural Households = 25,860. Census 2011 Households with toilets = 19,929. Census 2001 Total Rural Households = 17,304. Census 2001 Households with toilets = 11,045. Difference between Census 2011 Households with toilets and Census 2001 Households with toilets = 13.2%</title></circle><circle class="distCircs" cx="639.9009568651779" cy="232.99239172323848" r="2.4494503635017932" stroke="#000" stroke-width="0.25" fill="#c9e7a5" data-q="MANIPUR" data-r="CHURACHANDPUR"><title>MANIPUR - CHURACHANDPUR: Census 2011 Total Rural Households = 46,647. Census 2011 Households with toilets = 38,408. Census 2001 Total Rural Households = 38,525. Census 2001 Households with toilets = 27,188. Difference between Census 2011 Households with toilets and Census 2001 Households with toilets = 11.8%</title></circle><circle class="distCircs" cx="650.1343359240609" cy="222.23926928198821" r="2.479565176133865" stroke="#000" stroke-width="0.25" fill="#f1f9b8" data-q="MANIPUR" data-r="IMPHAL EAST"><title>MANIPUR - IMPHAL EAST: Census 2011 Total Rural Households = 54,014. Census 2011 Households with toilets = 49,105. Census 2001 Total Rural Households = 50,149. Census 2001 Households with toilets = 44,111. Difference between Census 2011 Households with toilets and Census 2001 Households with toilets = 3.0%</title></circle><circle class="distCircs" cx="645.4766431366833" cy="222.9411538054662" r="2.425759857048747" stroke="#000" stroke-width="0.25" fill="#fefcbd" data-q="MANIPUR" data-r="IMPHAL WEST"><title>MANIPUR - IMPHAL WEST: Census 2011 Total Rural Households = 41,512. Census 2011 Households with toilets = 38,200. Census 2001 Total Rural Households = 34,666. Census 2001 Households with toilets = 32,185. Difference between Census 2011 Households with toilets and Census 2001 Households with toilets = -0.8%</title></circle><circle class="distCircs" cx="647.4223043670445" cy="216.78172266852863" r="2.3796205830419104" stroke="#000" stroke-width="0.25" fill="#8bcb87" data-q="MANIPUR" data-r="SENAPATI"><title>MANIPUR - SENAPATI: Census 2011 Total Rural Households = 32,968. Census 2011 Households with toilets = 28,503. Census 2001 Total Rural Households = 51,423. Census 2001 Households with toilets = 31,432. Difference between Census 2011 Households with toilets and Census 2001 Households with toilets = 25.3%</title></circle><circle class="distCircs" cx="641.2778018819877" cy="219.68251031567667" r="2.2924699957739687" stroke="#000" stroke-width="0.25" fill="#b4dd9b" data-q="MANIPUR" data-r="TAMENGLONG"><title>MANIPUR - TAMENGLONG: Census 2011 Total Rural Households = 21,069. Census 2011 Households with toilets = 13,990. Census 2001 Total Rural Households = 15,691. Census 2001 Households with toilets = 7,862. Difference between Census 2011 Households with toilets and Census 2001 Households with toilets = 16.3%</title></circle><circle class="distCircs" cx="648.437729734246" cy="228.19013503654398" r="2.481996513928797" stroke="#000" stroke-width="0.25" fill="#fefcbd" data-q="MANIPUR" data-r="THOUBAL"><title>MANIPUR - THOUBAL: Census 2011 Total Rural Households = 54,653. Census 2011 Households with toilets = 50,106. Census 2001 Total Rural Households = 43,573. Census 2001 Households with toilets = 40,269. Difference between Census 2011 Households with toilets and Census 2001 Households with toilets = -0.7%</title></circle><circle class="distCircs" cx="653.7955672560507" cy="217.97573184422538" r="2.3666940460680745" stroke="#000" stroke-width="0.25" fill="#c1e3a1" data-q="MANIPUR" data-r="UKHRUL"><title>MANIPUR - UKHRUL: Census 2011 Total Rural Households = 30,882. Census 2011 Households with toilets = 24,832. Census 2001 Total Rural Households = 22,539. Census 2001 Households with toilets = 15,080. Difference between Census 2011 Households with toilets and Census 2001 Households with toilets = 13.5%</title></circle></g></g></svg>