<?xml version="1.0" standalone="no"?><!DOCTYPE svg PUBLIC "-//W3C//DTD SVG 1.1//EN" "http://www.w3.org/Graphics/SVG/1.1/DTD/svg11.dtd"><svg id="chart" width="960" height="500" class="dorlingCart" data-type="dorlingCart" version="1.1" xmlns:xlink="http://www.w3.org/1999/xlink" xmlns="http://www.w3.org/2000/svg"><defs class="svg-crowbar"><style type="text/css"><![CDATA[.feature{ fill: #fcfcfc; stroke: #000000; stroke-width: 0.2px; cursor: pointer; }]]></style></defs>
<g><g transform="translate(-1954.703125,-599.3748779296875)scale(4,4)">
<path class="feature" data-q="MEGHALAYA" d="M625.5802607378073,220.4578363498287L625.4942522772276,220.40874850045049L625.4512480469382,220.2614776685283L625.4082438166483,220.0650995564224L625.2362268954896,219.9669032098655L625.0642099743307,219.91780321326974L624.8491888228825,219.91780321326974L624.5911634411443,219.77049592783555L624.2471295988266,219.67228498919832L623.9460999867988,219.52495945476443L623.6880746050604,219.57406918336994L623.5160576839019,219.57406918336994L623.3010365324533,219.62317769478193L623.0860153810049,219.57406918336994L622.9139984598462,219.52495945476443L622.7849857689771,219.37762296380663L622.7419815386872,219.2302755109813L622.6559730781078,219.08291709094226L622.4839561569488,218.98467204871162L622.3119392357903,218.88642212820247L622.0109096237625,218.68990764600449L621.7098800117346,218.39509929597102L621.4518546299967,218.24767862731898L620.9788080968099,218.1493920691605L620.7637869453613,218.0511006192363L620.5917700242023,218.0511006192363L619.8606981092776,217.95280427595816L618.9146050429044,218.19853595961132L618.4845627400077,218.24767862731898L617.9685119765311,218.34596029530024L617.6244781342134,218.39509929597102L617.1514316010271,218.44423707469173L616.7213892981297,218.49337363166217L616.2053385346537,218.49337363166217L615.861304692336,218.5425089670805L615.3882581591492,218.68990764600449L614.9582158562523,218.8372953380976L614.6571862442245,219.03379517951282L614.3991608624863,219.03379517951282L614.2701481716172,218.93554769834088L614.1411354807483,218.8372953380976L614.012122789879,218.68990764600449L614.012122789879,218.5425089670805L613.9261143292997,218.39509929597102L613.7110931778514,218.29682007248255L613.4530677961131,218.44423707469173L613.324055105244,218.5425089670805L613.1520381840851,218.6407759740532L612.8940128023471,218.68990764600449L612.5929831903193,218.73903809719712L611.7328985845254,218.6407759740532L611.1308393604695,218.5425089670805L610.9158182090209,218.5425089670805L610.6147885969931,218.44423707469173L610.1847462940962,218.34596029530024L609.7977082214891,218.24767862731898L609.496678609461,218.1493920691605L609.1526447671436,218.0511006192363L608.7656066945362,218.0019530593658L608.3355643916395,217.90365426881493L607.948526319032,217.90365426881493L607.7335051675836,217.8545030377378L607.4754797858452,217.75619690298635L606.959429022369,217.80535058252792L606.7444078709204,217.80535058252792L606.4433782588926,217.8545030377378L606.0993444165749,217.95280427595816L605.7983148045473,218.0019530593658L605.3682725016502,218.1002469557676L604.8952259684638,218.29682007248255L604.5081878958563,218.39509929597102L604.2501625141183,218.49337363166217L603.5620948294832,218.88642212820247L603.304069447745,218.8372953380976L603.0030398357169,218.78816732782838L602.6160017631098,218.73903809719712L602.314972151082,218.6407759740532L602.0569467693438,218.49337363166217L601.8419256178952,218.44423707469173L601.4978917755775,218.44423707469173L601.2398663938395,218.49337363166217L600.9388367818115,218.59164308114464L600.6808114000735,218.6407759740532L600.422786018335,218.59164308114464L600.3367775577558,218.39509929597102L600.2507690971765,218.24767862731898L600.1217564063077,218.1002469557676L599.9927437154386,218.1002469557676L599.7347183337001,218.19853595961132L599.1326591096445,218.44423707469173L598.9176379581959,218.49337363166217L598.616608346168,218.49337363166217L598.3585829644296,218.5425089670805L598.2295702735607,218.5425089670805L597.756523740374,218.73903809719712L597.4554941283461,218.78816732782838L597.2404729768978,218.78816732782838L597.1114602860287,218.8372953380976L596.7244222134213,218.93554769834088L596.4663968316834,218.93554769834088L596.2083714499452,218.93554769834088L595.9503460682067,218.88642212820247L595.7353249167584,218.8372953380976L595.4772995350204,218.73903809719712L595.1762699229923,218.59164308114464L594.9182445412541,218.49337363166217L594.6602191595159,218.39509929597102L594.4451980080676,218.34596029530024L594.1441683960397,218.19853595961132L593.800134553722,218.0511006192363L593.5421091719841,218.0019530593658L593.1550710993768,217.80535058252792L592.8110372570593,217.75619690298635L592.6820245661902,217.70704199891503L592.251982263293,217.60872851638595L591.8649441906857,217.55956993753176L591.5209103483683,217.4612491036491L591.133872275761,217.3629233668762L590.9188511243126,217.31375865940834L590.703829972864,217.16625717829436L590.4888088214154,217.0679167233033L590.3167919002567,216.92039683546534L590.1447749790977,216.8220441043506L589.8867495973598,216.72368645999893L589.5857199853319,216.72368645999893L589.1986819127246,216.62532390081782L589.0266649915659,216.57614077766857L588.7686396098277,216.4285840315946L588.4676099977999,216.37939599002988L588.166580385772,216.4285840315946L587.9945634646133,216.4285840315946L587.8225465434546,216.47777084325617L587.607525392006,216.4285840315946L587.3925042405574,216.33020671836397L587.2634915496885,216.13343732669392L587.2204873193989,215.83824630224052L587.2204873193989,215.54301091514748L587.2204873193989,215.34616265655188L587.3064957799779,214.853955581653L587.3064957799779,214.55857200755833L587.3495000102678,214.31238499998102L587.5645211617164,213.7706645607936L587.6505296222956,213.57363810334584L587.7365380828751,213.37659178193962L587.8225465434546,213.0809850268236L587.908555004034,212.8838889893429L587.908555004034,212.6867730429454L587.9515592343237,212.5389230101868L587.908555004034,212.3417721922437L587.908555004034,212.1938959910505L587.908555004034,212.04600856576474L587.9515592343237,211.79950456643598L588.2095846160616,211.996710262154L588.3385973069308,212.09530562164986L588.5106142280895,212.1938959910505L588.6826311492484,212.24318930496833L588.8116438401175,212.29248137196544L588.9406565309866,212.3417721922437L589.0696692218555,212.3417721922437L589.1126734521451,212.3417721922437L589.1986819127246,212.24318930496833L589.1986819127246,212.1938959910505L589.2416861430142,211.996710262154L589.327694603594,211.89810991095277L589.4997115247527,211.89810991095277L589.714732676201,211.79950456643598L589.8867495973598,211.75020002118066L590.0157622882286,211.7008942269934L590.1017707488083,211.5529693488192L590.1447749790977,211.45434651501205L590.1447749790977,211.3557186806401L590.0587665185187,211.25708584408875L589.9297538276494,211.15844800374748L589.714732676201,211.0104818575992L589.4567072944628,210.8131761344095L589.3706988338836,210.7145157570448L589.1986819127246,210.46784287968381L589.0696692218555,210.3691649509205L589.0266649915659,210.22113864792078L588.8546480704072,210.07310104824523L588.7686396098277,209.97440303650347L588.596622688669,209.727636020168L588.4676099977999,209.57956072549098L588.42460576751,209.48083757363554L588.42460576751,209.38210938890194L588.596622688669,209.33274340870003L588.6826311492484,209.28337616967048L588.8546480704072,209.18463791432202L588.9836607612763,209.08589462123507L589.0266649915659,208.93777023230274L589.0696692218555,208.78963449934366L589.1126734521451,208.64148741688558L589.1986819127246,208.44394030937093L589.2846903733041,208.24637300225567L589.2846903733041,208.09818425811886L589.3706988338836,207.9499841389216L589.4997115247527,207.80177263918006L589.6717284459114,207.70295864745236L589.8007411367803,207.60413959364286L590.0157622882286,207.35706980183522L590.1017707488083,207.20881272505233L590.2307834396775,207.0111188759701L590.4028003608362,206.7639730248123L590.5318130517053,206.66510580007298L590.703829972864,206.46735611144663L590.875846894023,206.26958609308974L591.0908680454713,206.12124523008794L591.692927269527,205.8245291536266L592.4239991844518,205.37936908014848L593.0260584085077,205.13201330935118L593.1980753296664,205.0330620696327L593.4561007114044,205.0330620696327L593.6281176325633,205.0330620696327L593.8431387840119,205.0330620696327L594.0151557051704,205.0330620696327L594.1871726263294,204.98358453508433L594.4021937777779,204.93410572380344L594.6602191595159,204.83514427022845L594.789231850385,204.83514427022845L595.2622783835716,204.88462563558664L595.4342953047305,204.93410572380344L595.6063122258893,204.88462563558664L595.8213333773381,204.83514427022845L595.9503460682067,204.83514427022845L596.0793587590761,204.83514427022845L596.2943799105244,204.73617770727168L596.5954095225522,204.78566162752463L596.810430674001,204.88462563558664L597.1114602860287,204.83514427022845L597.2404729768978,204.73617770727168L597.4554941283461,204.73617770727168L597.5845068192154,204.78566162752463L597.7135195100846,204.88462563558664L597.756523740374,205.0330620696327L597.756523740374,205.23095944459567L597.756523740374,205.32990047700002L597.7995279706638,205.62669297351948L597.7995279706638,205.77507201899874L597.7995279706638,205.87398501499473L597.8855364312433,206.02234496158388L597.9285406615329,206.17069345618484L598.0575533524022,206.17069345618484L598.1865660432709,206.17069345618484L598.3155787341402,206.12124523008794L598.4445914250093,206.02234496158388L598.616608346168,205.9234396033077L598.788625267327,205.8245291536266L598.9606421884855,205.8245291536266L599.046650649065,205.87398501499473L599.046650649065,206.02234496158388L599.046650649065,206.17069345618484L599.046650649065,206.22014041045094L599.0036464187754,206.26958609308974L599.1326591096445,206.31903050430446L599.1756633399341,206.51679543900622L599.0896548793548,206.66510580007298L599.2616718005133,206.66510580007298L599.3476802610928,206.66510580007298L599.3906844913824,206.46735611144663L599.3906844913824,206.36847364429946L599.4766929519619,206.26958609308974L599.5627014125412,206.12124523008794L599.7347183337001,206.07179573195583L599.8637310245692,206.02234496158388L599.9497394851487,205.9234396033077L600.035747945728,205.87398501499473L600.1217564063077,205.77507201899874L600.2507690971765,205.67615392914956L600.594802939494,205.52776723982794L600.7238156303633,205.5772307438138L600.8098240909426,205.72561361090789L600.8528283212322,205.8245291536266L600.8528283212322,205.9234396033077L600.9388367818115,205.97289291876916L600.9818410121013,206.02234496158388L601.0678494726806,206.07179573195583L601.15385793326,206.12124523008794L601.2828706241291,206.17069345618484L601.4118833149982,206.17069345618484L601.5408960058674,206.17069345618484L601.7129129270263,206.02234496158388L601.7559171573159,205.97289291876916L601.7989213876053,205.87398501499473L601.8849298481848,205.8245291536266L602.0999509996334,205.8245291536266L602.2289636905023,205.8245291536266L602.3579763813716,205.9234396033077L602.4009806116612,205.97289291876916L602.5299933025306,205.97289291876916L602.7020102236891,205.97289291876916L602.7880186842685,205.9234396033077L602.9600356054275,205.87398501499473L603.0460440660067,205.9234396033077L603.0460440660067,206.02234496158388L603.2180609871655,205.97289291876916L603.304069447745,205.97289291876916L603.3900779083244,206.02234496158388L603.4330821386138,206.12124523008794L603.4760863689035,206.12124523008794L603.6050990597726,206.07179573195583L603.6911075203523,206.12124523008794L603.7341117506417,206.17069345618484L603.8631244415108,206.26958609308974L603.9921371323801,206.26958609308974L604.0781455929593,206.22014041045094L604.1641540535386,206.22014041045094L604.2501625141183,206.31903050430446L604.3791752049872,206.22014041045094L604.4651836655664,206.17069345618484L604.5941963564358,206.12124523008794L604.6802048170152,206.22014041045094L604.6802048170152,206.31903050430446L604.7232090473049,206.36847364429946L604.7662132775947,206.41791551327907L604.7662132775947,206.56623349616115L604.7662132775947,206.66510580007298L604.8952259684638,206.7639730248123L604.9812344290431,206.7639730248123L605.0242386593329,206.96169224328884L604.9382301987532,207.10996833643327L604.8952259684638,207.20881272505233L604.852221738174,207.30765204345533L604.8952259684638,207.4559015179658L605.0672428896223,207.4559015179658L605.1962555804912,207.35706980183522L605.2822640410709,207.15939116462152L605.3252682713605,207.06054424028366L605.4972851925195,207.06054424028366L605.7123063439678,207.0111188759701L605.8843232651266,207.0111188759701L605.8843232651266,207.10996833643327L605.8413190348369,207.25823301792934L605.7553105742577,207.35706980183522L605.669302113678,207.4559015179658L605.6262978833886,207.55472816794838L605.7123063439678,207.60413959364286L605.8413190348369,207.55472816794838L605.9273274954164,207.4559015179658L606.0993444165749,207.4559015179658L606.3143655680235,207.35706980183522L606.5293867194721,207.30765204345533L606.7444078709204,207.15939116462152L606.9164247920792,207.10996833643327L607.0454374829483,207.06054424028366L607.1744501738174,207.0111188759701L607.4324755555558,206.96169224328884L607.5614882464249,206.96169224328884L607.6044924767143,207.15939116462152L607.5614882464249,207.30765204345533L607.5184840161351,207.4559015179658L607.3034628646865,207.60413959364286L607.3034628646865,207.70295864745236L607.2174544041072,207.75236627597468L607.1744501738174,207.8511777372704L607.1314459435275,207.99938544288847L607.1744501738174,208.09818425811886L607.2174544041072,208.24637300225567L607.2604586343969,208.34515918157445L607.2604586343969,208.44394030937093L607.3464670949763,208.54271638726675L607.389471325266,208.59210253300944L607.4324755555558,208.78963449934366L607.4754797858452,208.93777023230274L607.5184840161351,209.03652108503377L607.5614882464249,209.18463791432202L607.6044924767143,209.33274340870003L607.6474967070042,209.43147411047983L607.7335051675836,209.53019977857156L607.8195136281629,209.57956072549098L607.9055220887421,209.57956072549098L608.0345347796115,209.43147411047983L608.1205432401907,209.28337616967048L608.2065517007704,209.08589462123507L608.2925601613497,208.88839291536738L608.4215728522188,208.78963449934366L608.5505855430879,208.64148741688558L608.6795982339568,208.49332897945493L608.7656066945362,208.34515918157445L608.8516151551155,208.1969780177668L608.9376236156952,208.04878548255283L609.0666363065639,207.90058157045002L609.3246616883023,207.65354975340932L609.4106701488815,207.60413959364286L609.5396828397506,207.50531547612388L609.66869553062,207.40648629327092L609.7116997609094,207.35706980183522L609.8407124517785,207.25823301792934L610.0127293729374,207.15939116462152L610.2277505243858,207.15939116462152L610.3567632152549,207.10996833643327L610.5717843667032,207.0111188759701L610.9158182090209,207.0111188759701L611.04483089989,207.0111188759701L611.3028562816285,207.06054424028366L611.5178774330768,207.10996833643327L611.6468901239457,207.06054424028366L611.7759028148148,207.06054424028366L612.033928196553,207.0111188759701L612.1629408874221,206.91226434203548L612.205945117712,206.7639730248123L612.205945117712,206.66510580007298L612.0769324268426,206.56623349616115L611.9479197359735,206.56623349616115L611.9049155056841,206.56623349616115L611.8189070451044,206.46735611144663L611.7759028148148,206.26958609308974L611.9049155056841,206.26958609308974L612.033928196553,206.26958609308974L612.1199366571325,206.26958609308974L612.205945117712,206.26958609308974L612.3349578085811,206.17069345618484L612.3349578085811,206.07179573195583L612.2919535782912,206.02234496158388L612.1629408874221,205.97289291876916L612.033928196553,205.97289291876916L611.9049155056841,205.9234396033077L611.9049155056841,205.8245291536266L611.9049155056841,205.72561361090789L612.033928196553,205.5772307438138L612.1199366571325,205.52776723982794L612.2919535782912,205.47830246135754L612.4209662691603,205.52776723982794L612.5069747297398,205.47830246135754L612.5499789600294,205.42883640819917L612.5929831903193,205.32990047700002L612.6359874206089,205.23095944459567L612.6789916508983,205.08253832765337L612.7219958811881,204.93410572380344L612.8080043417674,204.78566162752463L612.9370170326367,204.6372060332954L613.023025493216,204.48873893559102L613.1090339537957,204.38975447690655L613.1950424143749,204.34026032888568L613.324055105244,204.34026032888568L613.4960720264028,204.34026032888568L613.6680889475615,204.38975447690655L613.8401058687205,204.48873893559102L613.8831100990099,204.6866925092628L613.8831100990099,204.83514427022845L613.8831100990099,204.98358453508433L613.8401058687205,205.18148701493072L613.8401058687205,205.37936908014848L613.7971016384306,205.5772307438138L613.7540974081408,205.72561361090789L613.7540974081408,205.87398501499473L613.7971016384306,205.97289291876916L613.8831100990099,206.02234496158388L613.9261143292997,206.07179573195583L614.012122789879,206.07179573195583L614.0551270201688,206.07179573195583L614.0981312504584,206.17069345618484L614.1411354807483,206.26958609308974L614.2701481716172,206.31903050430446L614.3991608624863,206.26958609308974L614.4421650927761,206.17069345618484L614.5281735533554,205.97289291876916L614.5711777836452,205.87398501499473L614.6141820139346,205.77507201899874L614.7431947048037,205.67615392914956L614.8292031653834,205.5772307438138L614.9152116259629,205.52776723982794L615.0012200865419,205.42883640819917L615.044224316832,205.2804305985506L615.044224316832,205.23095944459567L615.044224316832,205.08253832765337L615.044224316832,204.98358453508433L615.044224316832,204.83514427022845L615.0872285471214,204.6866925092628L615.130232777411,204.58771827916388L615.130232777411,204.43924734573977L615.130232777411,204.29076490147287L615.2162412379905,204.0927703938043L615.3882581591492,204.0432685663589L615.4312623894391,203.99376545829205L615.6032793105978,203.795740215715L615.6892877711771,203.74623070146885L615.8183004620462,203.64720782721776L615.9903173832049,203.49866389836956L616.0763258437846,203.3996281984302L616.1623343043639,203.30058736534335L616.291346995233,203.2015413974666L616.4633639163917,203.15201648746933L616.5923766072608,203.10249029315816L616.7213892981297,203.15201648746933L616.8504019889988,203.15201648746933L617.0224189101577,203.2510650233561L617.1084273707372,203.3996281984302L617.1944358313165,203.59769446680298L617.2374400616063,203.74623070146885L617.2374400616063,203.84524844831628L617.3234485221856,204.0432685663589L617.3664527524754,204.14227094083333L617.409456982765,204.24126819446258L617.4524612130547,204.29076490147287L617.5384696736342,204.34026032888568L617.5814739039236,204.38975447690655L617.7534908250825,204.48873893559102L617.839499285662,204.48873893559102L617.9685119765311,204.53822924666434L618.14052889769,204.53822924666434L618.2695415885589,204.53822924666434L618.4415585097177,204.48873893559102L618.5705712005868,204.43924734573977L618.656579661166,204.34026032888568L618.6995838914559,204.19177020765153L618.7855923520351,204.0927703938043L618.828596582325,203.94426106939915L618.9146050429044,203.84524844831628L619.0436177337735,203.69671990537148L619.1726304246426,203.64720782721776L619.3446473458014,203.59769446680298L619.5166642669603,203.54817982392177L619.7746896486983,203.54817982392177L619.9467065698573,203.59769446680298L620.2047319515952,203.64720782721776L620.4197531030436,203.64720782721776L620.6347742544922,203.64720782721776L620.8067911756511,203.64720782721776L620.9788080968099,203.59769446680298L621.1938292482582,203.59769446680298L621.4518546299967,203.54817982392177L621.7098800117346,203.59769446680298L621.8818969328934,203.59769446680298L622.0969180843417,203.59769446680298L622.3119392357903,203.54817982392177L622.4409519266594,203.59769446680298L622.6129688478181,203.59769446680298L622.7849857689771,203.59769446680298L622.8709942295563,203.64720782721776L622.9570026901356,203.74623070146885L623.0000069204254,203.84524844831628L623.0000069204254,203.94426106939915L622.9570026901356,204.0927703938043L622.8709942295563,204.24126819446258L622.7419815386872,204.34026032888568L622.5699646175285,204.48873893559102L622.4409519266594,204.58771827916388L621.924901163183,205.0330620696327L621.8818969328934,205.08253832765337L621.752884242024,205.23095944459567L621.7098800117346,205.32990047700002L621.6238715511549,205.42883640819917L621.5808673208655,205.62669297351948L621.5808673208655,205.77507201899874L621.6238715511549,205.9234396033077L621.666875781445,205.97289291876916L621.7958884723143,206.02234496158388L621.924901163183,206.07179573195583L622.0539138540523,206.07179573195583L622.1399223146316,206.07179573195583L622.2259307752108,206.12124523008794L622.2689350055007,206.22014041045094L622.2689350055007,206.31903050430446L622.2259307752108,206.51679543900622L622.0969180843417,206.66510580007298L621.9679053934726,206.81340473300094L621.8818969328934,206.91226434203548L621.7098800117346,207.15939116462152L621.666875781445,207.30765204345533L621.5378630905759,207.55472816794838L621.4088503997068,207.70295864745236L621.365846169417,207.90058157045002L621.3228419391276,208.04878548255283L621.365846169417,208.1969780177668L621.365846169417,208.29576672345695L621.4088503997068,208.39455037681137L621.4088503997068,208.54271638726675L621.4088503997068,208.69087103909834L621.4088503997068,208.8390143377821L621.4088503997068,208.98714628879077L621.365846169417,209.08589462123507L621.365846169417,209.33274340870003L621.365846169417,209.57956072549098L621.365846169417,209.727636020168L621.4518546299967,209.92505214643876L621.4948588602861,209.97440303650347L621.5808673208655,209.97440303650347L621.666875781445,209.92505214643876L621.7098800117346,209.87569999997527L621.7958884723143,209.727636020168L621.924901163183,209.6289204145951L621.9679053934726,209.53019977857156L622.0109096237625,209.43147411047983L622.0539138540523,209.28337616967048L622.0969180843417,209.18463791432202L622.1829265449214,209.03652108503377L622.3549434660802,208.98714628879077L622.5699646175285,208.93777023230274L622.7849857689771,208.93777023230274L622.9139984598462,208.98714628879077L623.0430111507153,209.03652108503377L623.215028071874,209.03652108503377L623.387044993033,208.98714628879077L623.6020661444811,208.93777023230274L623.903095756509,208.78963449934366L624.0751126776679,208.69087103909834L624.1611211382472,208.69087103909834L624.2901338291165,208.64148741688558L624.4191465199856,208.64148741688558L624.5481592108545,208.59210253300944L624.7631803623033,208.64148741688558L625.0642099743307,208.69087103909834L625.1932226651998,208.78963449934366L625.3222353560691,208.8390143377821L625.4512480469382,209.03652108503377L625.5802607378073,209.13526689759743L625.752277658966,209.48083757363554L625.8812903498351,209.6289204145951L626.0103030407042,209.727636020168L626.1393157315731,209.8263465969104L626.182319961863,209.8263465969104L626.3973411133113,209.92505214643876L626.6123622647599,210.02375267037178L626.7843791859186,210.07310104824523L626.999400337367,210.1224481703266L627.1714172585259,210.17179403681774L627.300429949395,210.17179403681774L627.3864384099745,210.27048200383723L627.5154511008436,210.41850454249095L627.6014595614229,210.51717996270025L627.7304722522917,210.6651836887134L627.8594849431611,210.8131761344095L627.9884976340302,210.862504443847L628.1175103248993,210.96115730523985L628.2895272460582,211.0104818575992L628.3325314763476,211.05980515800223L628.3755357066375,211.05980515800223L628.5045483975064,211.15844800374748L628.6335610883755,211.20776754949333L628.7625737792448,211.25708584408875L628.8055780095342,211.3064028877372L628.8915864701139,211.40503322299793L628.9775949306932,211.60227889101367L628.9345907004033,211.60227889101367L628.848582239824,211.7008942269934L628.8055780095342,211.75020002118066L628.719569548955,211.89810991095277L628.6335610883755,211.996710262154L628.5475526277962,212.09530562164986L628.5045483975064,212.24318930496833L628.4615441672165,212.3417721922437L628.3755357066375,212.4896371747742L628.2465230157684,212.5389230101868L628.1605145551891,212.5882075998856L628.1175103248993,212.6867730429454L628.1175103248993,212.78533350556165L628.1605145551891,212.9824394958942L628.2465230157684,213.1795255837369L628.2895272460582,213.27806116824075L628.4185399369271,213.52437838574173L628.5475526277962,213.67215381426178L628.6335610883755,213.7706645607936L628.7625737792448,213.91842137587554L628.9345907004033,214.0169197184594L629.1926160821417,214.21390152890973L629.4936456941696,214.50933708182487L629.6226583850387,214.657038146753L629.7086668456179,214.75549933758396L630.1387091485149,215.05085323590464L630.2677218393842,215.2477311223015L630.5257472211222,215.4938007012375L630.6117556817017,215.64142764268786L630.6977641422811,215.78904348629436L630.7837726028604,215.88744788589048L630.8267768331502,216.0842419015283L630.8267768331502,216.18263152076133L630.8267768331502,216.37939599002988L630.7837726028604,216.47777084325617L630.6547599119913,216.62532390081782L630.6547599119913,216.8220441043506L630.6117556817017,217.01874465493648L630.7407683725705,217.26459272562113L630.8697810634396,217.31375865940834L630.9557895240193,217.3629233668762L630.9557895240193,217.5104101333527L630.8267768331502,217.60872851638595L630.6977641422811,217.75619690298635L630.5257472211222,217.8545030377378L630.2677218393842,217.75619690298635L630.1387091485149,217.60872851638595L629.9236879970665,217.55956993753176L629.6656626153285,217.55956993753176L629.4506414638797,217.65788587011423L629.278624542721,217.80535058252792L629.1066076215623,218.0511006192363L628.9345907004033,218.24767862731898L628.6335610883755,218.49337363166217L628.3755357066375,218.6407759740532L628.2035187854785,218.73903809719712L628.1175103248993,218.88642212820247L628.03150186432,218.93554769834088L627.9454934037406,218.98467204871162L627.8164807128715,218.8372953380976L627.7734764825816,218.73903809719712L627.6014595614229,218.5425089670805L627.4294426402644,218.49337363166217L627.2574257191054,218.49337363166217L627.1284130282361,218.6407759740532L627.1284130282361,218.73903809719712L627.1714172585259,218.8372953380976L627.2574257191054,218.93554769834088L627.3434341796847,219.03379517951282L627.3434341796847,219.08291709094226L627.2574257191054,219.2302755109813L626.999400337367,219.32850836444754L626.8703876464979,219.37762296380663L626.6553664950497,219.32850836444754L626.5693580344703,219.37762296380663L626.5263538041806,219.42673634518104L626.3973411133113,219.57406918336994L626.3543368830219,219.67228498919832L626.2683284224422,219.86870200086383L626.182319961863,219.9669032098655L626.0963115012835,220.0650995564224L626.0103030407042,220.2123849626339L625.9242945801245,220.31056915999739L625.7952818892559,220.35965943723897Z"></path>
<circle class="distCircs" cx="598.3722627725867" cy="208.89343248848542" r="2.462061486301958" stroke="#000" stroke-width="0.25" fill="#dcefae" data-q="MEGHALAYA" data-r="EAST GARO HILLS"><title>MEGHALAYA - EAST GARO HILLS: Census 2011 Total Rural Households = 49,612. Census 2011 Households with toilets = 39,362. Census 2001 Total Rural Households = 38,572. Census 2001 Households with toilets = 27,687. Difference between Census 2011 Households with toilets and Census 2001 Households with toilets = 7.6%</title></circle><circle class="distCircs" cx="614.6718266116917" cy="213.64267578916736" r="2.5742717278818517" stroke="#000" stroke-width="0.25" fill="#bee2a0" data-q="MEGHALAYA" data-r="EAST KHASI HILLS"><title>MEGHALAYA - EAST KHASI HILLS: Census 2011 Total Rural Households = 84,694. Census 2011 Households with toilets = 37,535. Census 2001 Total Rural Households = 68,769. Census 2001 Households with toilets = 20,772. Difference between Census 2011 Households with toilets and Census 2001 Households with toilets = 14.1%</title></circle><circle class="distCircs" cx="624.9706394743318" cy="214.1961355391386" r="2.500266724285601" stroke="#000" stroke-width="0.25" fill="#b1dc99" data-q="MEGHALAYA" data-r="JAINTIA HILLS"><title>MEGHALAYA - JAINTIA HILLS: Census 2011 Total Rural Households = 59,681. Census 2011 Households with toilets = 26,002. Census 2001 Total Rural Households = 46,003. Census 2001 Households with toilets = 12,228. Difference between Census 2011 Households with toilets and Census 2001 Households with toilets = 17.0%</title></circle><circle class="distCircs" cx="616.3620291400089" cy="206.98222804690533" r="2.427761887260863" stroke="#000" stroke-width="0.25" fill="#daeead" data-q="MEGHALAYA" data-r="RI BHOI"><title>MEGHALAYA - RI BHOI: Census 2011 Total Rural Households = 41,925. Census 2011 Households with toilets = 26,883. Census 2001 Total Rural Households = 32,264. Census 2001 Households with toilets = 18,085. Difference between Census 2011 Households with toilets and Census 2001 Households with toilets = 8.1%</title></circle><circle class="distCircs" cx="597.4739397414445" cy="214.2475430365143" r="2.2993112124625865" stroke="#000" stroke-width="0.25" fill="#b5de9b" data-q="MEGHALAYA" data-r="SOUTH GARO HILLS"><title>MEGHALAYA - SOUTH GARO HILLS: Census 2011 Total Rural Households = 21,836. Census 2011 Households with toilets = 13,842. Census 2001 Total Rural Households = 15,860. Census 2001 Households with toilets = 7,482. Difference between Census 2011 Households with toilets and Census 2001 Households with toilets = 16.2%</title></circle><circle class="distCircs" cx="592.5737689593548" cy="210.46964951344415" r="2.6268314247101303" stroke="#000" stroke-width="0.25" fill="#c0e3a1" data-q="MEGHALAYA" data-r="WEST GARO HILLS"><title>MEGHALAYA - WEST GARO HILLS: Census 2011 Total Rural Households = 107,941. Census 2011 Households with toilets = 60,807. Census 2001 Total Rural Households = 84,481. Census 2001 Households with toilets = 36,004. Difference between Census 2011 Households with toilets and Census 2001 Households with toilets = 13.7%</title></circle><circle class="distCircs" cx="607.9563882895684" cy="212.1450265877994" r="2.4889098208921627" stroke="#000" stroke-width="0.25" fill="#acda97" data-q="MEGHALAYA" data-r="WEST KHASI HILLS"><title>MEGHALAYA - WEST KHASI HILLS: Census 2011 Total Rural Households = 56,508. Census 2011 Households with toilets = 23,056. Census 2001 Total Rural Households = 43,729. Census 2001 Households with toilets = 9,941. Difference between Census 2011 Households with toilets and Census 2001 Households with toilets = 18.1%</title></circle></g></g></svg>