<?xml version="1.0" standalone="no"?><!DOCTYPE svg PUBLIC "-//W3C//DTD SVG 1.1//EN" "http://www.w3.org/Graphics/SVG/1.1/DTD/svg11.dtd"><svg id="chart" width="960" height="500" class="dorlingCart" data-type="dorlingCart" version="1.1" xmlns:xlink="http://www.w3.org/1999/xlink" xmlns="http://www.w3.org/2000/svg"><defs class="svg-crowbar"><style type="text/css"><![CDATA[.feature{ fill: #fcfcfc; stroke: #000000; stroke-width: 0.2px; cursor: pointer; }]]></style></defs>
<g><g transform="translate(-2049.70068359375,-743.8045043945312)scale(4,4)"><path class="feature" data-q="MIZORAM" d="M624.3761422896957,233.32640274494406L624.6771719017236,233.22885077421296L624.8061845925927,233.1800730447365L624.9351972834618,233.13129415226376L625.1502184349101,233.03373287756023L625.3222353560691,233.03373287756023L625.4942522772276,232.9849504949447L625.6662691983865,232.9849504949447L625.8382861195453,233.0825140966025L625.9672988104144,233.32640274494406L625.9672988104144,233.57026233277458L626.0103030407042,233.76532909559677L626.0103030407042,234.00913643496853L626.0103030407042,234.30166697309625L626.0963115012835,234.49666415761118L626.1393157315731,234.74038458879045L626.2253241921528,234.8378646618999L626.2683284224422,234.88660296364196L626.4403453436012,234.9353401090989L626.6553664950497,234.9353401090989L626.8703876464979,234.88660296364196L626.999400337367,234.78912520367953L627.2144214888156,234.6916428170411L627.3434341796847,234.59415580219536L627.4724468705538,234.49666415761118L627.6444637917125,234.3504180066223L627.7304722522917,233.8628555120814L627.7304722522917,233.81409288408992L627.7734764825816,233.61903076519104L627.7734764825816,233.4727219833673L627.8164807128715,233.32640274494406L627.9454934037406,233.22885077421296L628.0745060946094,233.1800730447365L628.2035187854785,233.1800730447365L628.3755357066375,233.13129415226376L628.5475526277962,232.9849504949447L628.6765653186653,232.78980932491254L628.719569548955,232.59464952233827L628.7625737792448,232.35067354836087L628.848582239824,232.10666841776106L628.848582239824,231.96025133421443L628.9775949306932,231.81382374042386L629.3216287730108,231.716199502971L629.4936456941696,231.716199502971L629.6656626153285,231.6185705904457L629.7516710759078,231.3744778455727L629.7946753061974,231.22800815878225L629.837679536487,230.9838685976393L629.9236879970665,230.7885358599895L630.0527006879356,230.54434355673936L630.1387091485149,230.25127406856194L630.1387091485149,229.76273093633398L630.1817133788045,229.5672807524997L630.3107260696736,229.42068075400584L630.3537302999634,229.32294153276405L630.4397387605427,229.2251975985846L630.6117556817017,229.2251975985846L630.7837726028604,229.2251975985846L630.8267768331502,229.27407015488814L631.1278064451781,229.5672807524997L631.2138149057573,229.71387015559708L631.385831826916,230.00701719650755L631.4718402874958,230.20242504404L631.5148445177851,230.34896859412436L631.5148445177851,230.54434355673936L631.557848748075,230.69086245734002L631.6438572086543,230.93503717120075L631.6868614389441,231.0326988524174L631.6868614389441,231.0815279357277L631.8588783601028,231.13035584776378L632.0308952812616,231.13035584776378L632.1599079721307,230.93503717120075L632.2889206629998,230.83737080256896L632.4179333538689,230.73969974497777L632.546946044738,230.69086245734002L632.7189629658967,230.6420239968831L633.0199925779245,230.49550157666647L633.1490052687936,230.4466584230023L633.3640264202418,230.49550157666647L633.5360433414012,230.6420239968831L633.6220518019802,230.69086245734002L633.8370729534286,230.7885358599895L634.095098335167,230.83737080256896L634.1811067957462,230.886204572908L634.2241110260361,230.93503717120075L634.3101194866153,231.0326988524174L634.353123716905,231.13035584776378L634.4391321774847,231.3744778455727L634.3961279471948,231.6185705904457L634.3961279471948,231.81382374042386L634.353123716905,232.05786389072944L634.3101194866153,232.15547177756548L634.267115256326,232.35067354836087L634.267115256326,232.49706263000263L634.353123716905,232.93616694856496L634.4391321774847,233.13129415226376L634.5251406380639,233.32640274494406L634.5681448683538,233.4727219833673L634.654153328933,233.66779803633892L634.6111490986432,233.8628555120814L634.5681448683538,234.0578944228734L634.3961279471948,234.30166697309625L634.2241110260361,234.5454105587167L634.1811067957462,234.6916428170411L634.1811067957462,234.9353401090989L634.2241110260361,235.17900849878566L634.4391321774847,235.2277387105429L634.7401617895125,235.27646776735327L635.0411914015401,235.2277387105429L635.2132083226988,235.17900849878566L635.4712337044373,235.17900849878566L635.6002463953064,235.2277387105429L635.6862548558856,235.37392241689804L635.8582717770446,235.52009573389319L635.9872844679135,235.56881786503624L636.1162971587826,235.61753884257075L636.2453098496517,235.56881786503624L636.3313183102312,235.47137244894992L636.374322540521,235.32519566940834L636.5033352313901,235.13027713188995L636.632347922259,235.0815446096645L636.8043648434175,235.17900849878566L636.8473690737078,235.32519566940834L636.8473690737078,235.52009573389319L636.8043648434175,235.66625866668795L636.8043648434175,235.763694855432L636.8473690737078,236.00726515585336L636.9763817645767,236.2021006610267L637.1053944554458,236.2021006610267L637.2344071463149,236.25080665902715L637.4064240674736,236.25080665902715L637.5784409886326,236.1046852114565L637.7934621400807,235.90984049269076L637.8794706006604,235.86112643279756L638.0944917521088,235.763694855432L638.2665086732675,235.81241122044167L638.4385255944264,235.90984049269076L638.5245340550055,236.0559757595044L638.6105425155847,236.15339351190033L638.739555206454,236.2021006610267L638.8255636670335,236.2021006610267L639.0405848184821,236.2021006610267L639.1265932790614,236.2021006610267L639.2986102002201,236.15339351190033L639.2986102002201,236.29951150609213L639.2986102002201,236.49431938881185L639.3846186607993,236.73780336905207L639.5996398122479,236.9325698695888L639.7716567334069,237.07863268752948L639.9436736545656,237.22468517621883L640.0726863454347,237.37072734079862L640.2447032665932,237.51675918640933L640.3307117271727,237.66278071818942L640.4167201877524,237.76012267867333L640.5457328786215,238.4900414960316L640.5027286483316,238.7819370297753L640.4597244180418,238.97651122893598L640.4597244180418,239.31697218394112L640.5887371089109,239.5114962399308L640.6747455694904,239.75462570193503L640.6747455694904,239.94910879992779L640.71774979978,240.1435737140621L640.71774979978,240.38662930413113L640.7607540300698,240.58105334886352L640.8037582603595,240.67825856628252L640.889766720939,240.8726553987874L640.9757751815182,241.11562595063305L641.0187794118078,241.26139469678822L641.2338005632564,241.55290164674506L641.3198090238357,241.74721700577265L641.2768047935463,242.18436050620448L641.2338005632564,242.3300546990967L641.1907963329668,242.62141265452328L641.1907963329668,242.86417998099182L641.1907963329668,243.0098268733521L641.1047878723873,243.689378625239L641.0187794118078,244.1261171663145L640.9327709512286,244.3201940490809L640.8467624906493,244.4657399554075L640.7607540300698,244.75680156093335L640.71774979978,245.0478229240262L640.71774979978,245.14482110928827L640.71774979978,245.29031001504842L640.7607540300698,245.48427960260796L640.889766720939,245.72671650013393L640.9327709512286,246.01760401387202L640.9327709512286,246.25997966666137L640.9327709512286,246.50232751830873L640.9327709512286,246.79310827564484L640.889766720939,247.08384907326337L640.8467624906493,247.37454995145418L640.6747455694904,247.61677021832116L640.5027286483316,247.81052650788325L640.4167201877524,247.95583211058323L640.3307117271727,248.1979860071716L640.3307117271727,248.44011228902718L640.3307117271727,248.6337934475278L640.4597244180418,248.82745695937598L640.5027286483316,249.02110283646476L640.5027286483316,249.21473109068154L640.4597244180418,249.31153861292677L640.4597244180418,249.50514045511437L640.3737159574625,249.7955102349066L640.4167201877524,249.98906811641695L640.5027286483316,250.27937201081681L640.5887371089109,250.37613120078117L640.5457328786215,250.8114933132755L640.3737159574625,251.15004698676523L640.2877074968831,251.3434821726081L640.2877074968831,251.536899877858L640.2016990363038,251.7786474453505L640.1586948060142,251.97202586249392L640.0726863454347,252.06870852951073L639.8576651939861,252.50372660892629L639.728652503117,252.74536522736003L639.5566355819583,252.890335350721L639.3416144305099,253.03529569438734L639.2556059699302,253.0836136365371L639.0835890487715,253.18024626333198L638.911572127613,253.18024626333198L638.6535467458746,253.13193049279062L638.5675382852953,253.03529569438734L638.3955213641364,252.890335350721L638.1805002126882,252.74536522736003L637.9654790612396,252.6487130428332L637.6644494492116,252.50372660892629L637.4064240674736,252.40706354609387L637.191402916025,252.45539562165578L637.0623902251559,252.50372660892629L637.0193859948661,252.6487130428332L637.0193859948661,252.8420130631457L637.1053944554458,252.93865655166366L637.191402916025,253.03529569438734L637.3204156068941,253.22856094834646L637.3204156068941,253.32518706252768L637.2774113766043,253.4218088368067L637.2344071463149,253.71164813495164L637.2344071463149,254.09803986313153L637.191402916025,254.43607581533035L637.1053944554458,254.774058810908L637.1053944554458,255.06371641998243L636.9763817645767,255.20853066416015L636.9333775342868,255.44986618400048L636.8043648434175,255.98070959310672L636.7183563828385,256.1737113008166L636.632347922259,256.3666958221464L636.632347922259,256.5596631688045L636.7183563828385,256.7526133524931L636.6753521525484,256.9937769644988L636.6753521525484,257.2349138004805L636.5893436919694,257.4760238832646L636.5893436919694,257.6688927025213L636.5893436919694,257.8135330972273L636.6753521525484,258.0063720065479L636.6753521525484,258.1991938405221L636.8043648434175,258.39199861081244L636.8903733039972,258.4883946007203L637.0623902251559,258.5847863290782L637.191402916025,258.72936593439647L637.3204156068941,258.92212383965773L637.5354367583427,259.3557669149011L637.621445218922,259.5002954820781L637.6644494492116,259.74115519844923L637.5784409886326,259.933823878595L637.2344071463149,260.2709532684323L637.191402916025,260.46357533949424L637.191402916025,260.65618048357106L637.2344071463149,260.8969131277715L637.3204156068941,261.13761936434497L637.4494282977632,261.2820304400482L637.5784409886326,261.4745637738453L637.7074536795014,261.6189527051738L637.9224748309498,261.8114565308752L638.0514875218189,261.9077021258087L638.1805002126882,262.1482976974898L638.2665086732675,262.3407552249506L638.2665086732675,262.62940999343834L638.2665086732675,262.8218255074853L638.2235044429779,263.39897138495945L638.2235044429779,263.6874877712485L638.3095129035573,263.87981110986107L638.3955213641364,264.1201917696151L638.4385255944264,264.31247750065256L638.4385255944264,264.5047465359331L638.4385255944264,264.64893736272893L638.3095129035573,264.8411772081367L638.2235044429779,265.03340038943924L638.0944917521088,265.12950573464633L637.8794706006604,265.12950573464633L637.6644494492116,265.081453582347L637.4064240674736,265.081453582347L637.3634198371838,265.22560691813925L637.3204156068941,265.41779680573273L637.4494282977632,265.70605046018824L637.5784409886326,265.8981987952872L637.5784409886326,266.090330529484L637.5354367583427,266.1863901748317L637.4064240674736,266.23441844269456L637.2774113766043,266.23441844269456L637.1483986857352,266.23441844269456L637.0193859948661,266.090330529484L636.8903733039972,265.9942667367809L636.6753521525484,265.8981987952872L636.5033352313901,265.8501632682954L636.2883140799413,265.8501632682954L636.1162971587826,265.8981987952872L635.9872844679135,266.090330529484L635.9872844679135,266.23441844269456L635.9872844679135,266.37849702919436L636.0302886982033,266.57058731133975L636.0732929284927,266.7146441543286L636.1593013890724,266.85869168673054L636.1593013890724,266.95471820483726L636.202305619362,267.0507405884859L636.202305619362,267.14675883910763L636.202305619362,267.2427729581346L636.1162971587826,267.2427729581346L636.0302886982033,267.29077846874725L635.9442802376236,267.29077846874725L635.7722633164649,267.29077846874725L635.6002463953064,267.3867863930646L635.5142379347269,267.4827901893644L635.4282294741474,267.57878985907684L635.4282294741474,267.7707768244602L635.4282294741474,267.86676412299084L635.4712337044373,268.1067143436442L635.4712337044373,268.4905811811228L635.4282294741474,268.730464542124L635.4712337044373,268.92235274378027L635.4282294741474,269.06625811834346L635.2992167832786,269.3540411768644L635.1702040924094,269.3540411768644L635.0411914015401,269.3540411768644L634.9121787106715,269.3060798965346L634.8691744803816,269.2581175913395L634.7831660198021,269.06625811834346L634.6971575592227,268.97032222802085L634.654153328933,268.8264106962473L634.6111490986432,268.730464542124L634.4821364077741,268.6824899246452L634.3961279471948,268.730464542124L634.353123716905,268.92235274378027L634.267115256326,269.210154261101L634.095098335167,269.73769454572397L633.9660856442979,269.7856466102795L633.7940687231392,269.68974145790526L633.7940687231392,269.6417873466462L633.7510644928493,269.44996066364075L633.6650560322701,269.210154261101L633.5360433414012,268.97032222802085L633.3640264202418,268.730464542124L633.1490052687936,268.5385599084016L632.9769883476349,268.2986559912627L632.804971426476,268.15470129908897L632.6329545053175,267.96274730065323L632.4609375841585,267.8187709889234L632.2459164327099,267.57878985907684L632.0738995115512,267.4347888071272L631.8158741298132,267.29077846874725L631.557848748075,267.1947664149812L631.385831826916,267.0507405884859L631.1708106754675,266.9067054626808L630.9557895240193,266.8106768768077L630.8267768331502,266.8106768768077L630.7837726028604,266.9067054626808L630.8267768331502,267.0507405884859L630.9557895240193,267.29077846874725L630.998793754309,267.57878985907684L630.998793754309,267.91475622684123L630.9557895240193,268.15470129908897L630.9127852937295,268.3466388311969L630.8267768331502,268.5385599084016L630.7837726028604,268.6824899246452L630.7407683725705,268.87438223324784L630.6547599119913,269.06625811834346L630.5257472211222,269.210154261101L630.3967345302533,269.3540411768644L630.2677218393842,269.44996066364075L630.1387091485149,269.5458760530928L630.0527006879356,269.59383221176773L630.009696457646,269.68974145790526L629.9236879970665,269.7856466102795L629.8806837667769,269.83359765175084L629.837679536487,269.83359765175084L629.7946753061974,269.88154767031523L629.5796541547488,269.7856466102795L629.3646330033002,269.40200143250706L629.3216287730108,269.1142245247812L629.278624542721,268.87438223324784L629.1926160821417,268.3466388311969L629.1926160821417,268.1067143436442L629.1926160821417,267.91475622684123L629.2356203124316,267.4347888071272L629.2356203124316,267.29077846874725L629.2356203124316,267.09875023033567L629.2356203124316,266.85869168673054L629.1926160821417,266.61860729381056L629.1496118518519,266.5225662938213L629.1066076215623,266.28244567425673L629.0636033912726,266.04229915164143L628.9775949306932,265.7540891009252L628.8915864701139,265.4658416788053L628.848582239824,265.1775568465172L628.7625737792448,264.8892345652731L628.5905568580858,264.07211772679375L628.5475526277962,263.9278893313015L628.5475526277962,263.4470600655567L628.5045483975064,263.25469906100557L628.5045483975064,262.72561984932656L628.5045483975064,262.38886697917064L628.5045483975064,262.10018068707666L628.4615441672165,261.6189527051738L628.4185399369271,261.3782992159346L628.4185399369271,261.13761936434497L628.3755357066375,260.9450564869716L628.2465230157684,260.60803078382173L628.2035187854785,260.51172821196496L628.1605145551891,260.36726642056203L628.1175103248993,260.1746358816547L628.0745060946094,260.0301518583455L628.03150186432,259.8856582989113L627.9454934037406,259.69298537721966L627.8594849431611,259.3557669149011L627.7734764825816,259.1630472882417L627.7304722522917,259.0666810986005L627.6444637917125,258.77755700697224L627.5584553311332,258.6329805956311L627.2144214888156,258.2473966323596L627.1284130282361,257.90995468703494L627.0424045676568,257.6688927025213L627.0424045676568,257.42780400586804L627.0424045676568,257.2349138004805L627.0854087979467,256.65614040528834L627.0854087979467,256.4149392684792L627.0854087979467,256.22195904191466L627.1284130282361,256.0289616318977L627.0854087979467,255.83594702671752L627.0424045676568,255.64291521465879L626.999400337367,255.54639285238693L626.9133918767877,255.40160123455593L626.7843791859186,255.30506810424816L626.5693580344703,255.16026032749045L626.2683284224422,255.0154428487777L626.1393157315731,254.96716819902758L625.8812903498351,254.8223377766729L625.7092734286764,254.774058810908L625.6232649680969,254.774058810908L625.5372565075174,254.67749764080725L625.5372565075174,254.62921543610526L625.4942522772276,254.48436234118566L625.4942522772276,254.33949952119326L625.5802607378073,253.80825256434184L625.5802607378073,253.566733364129L625.5802607378073,253.4218088368067L625.6662691983865,253.13193049279062L625.6662691983865,252.93865655166366L625.6662691983865,252.74536522736003L625.6662691983865,252.50372660892629L625.6662691983865,252.31039612935837L625.6232649680969,252.1170482282762L625.5802607378073,251.97202586249392L625.5372565075174,251.7786474453505L625.5372565075174,251.5852515742136L625.4942522772276,251.39183823726432L625.3652395863587,251.0049591186264L625.3652395863587,250.76312412597235L625.3652395863587,250.56963642734837L625.4082438166483,250.32775215401L625.3222353560691,249.94068029308124L625.3222353560691,249.69872470412912L625.5372565075174,249.3599407234833L625.5802607378073,249.02110283646476L625.4942522772276,248.73062740854016L625.4082438166483,248.39168924071868L625.3222353560691,248.05269698447472L625.3652395863587,247.81052650788325L625.4082438166483,247.47144138016017L625.4082438166483,247.13230199072342L625.4512480469382,246.69618579849185L625.3652395863587,245.96912554512227L625.2792311257792,245.62974508473712L625.1502184349101,245.3388040851483L624.9782015137516,244.99932215640655L624.7631803623033,244.65978549913848L624.6341676714339,244.51425301932687L624.462150750275,244.3201940490809L624.2471295988266,244.1261171663145L624.1181169079578,244.07759514538452L623.9460999867988,243.8834958550823L623.8170872959297,243.5923132792338L623.8600915262193,243.3010902988526L623.903095756509,243.10691917826108L623.9460999867988,242.91273007002906L624.032108447378,242.66996837128164L624.0751126776679,242.23292636472092L624.0751126776679,241.9900857922167L624.1181169079578,241.74721700577265L624.1611211382472,241.30998201581423L624.1181169079578,241.11562595063305L623.9460999867988,241.01844112707744L623.9891042170887,240.77545924908668L623.9460999867988,240.62965652449486L623.903095756509,240.53244903920114L623.8170872959297,240.43523701702395L623.7310788353502,240.24079935596768L623.6880746050604,239.99772673272503L623.9460999867988,239.80324818183283L624.1611211382472,239.70600208478936L624.3761422896957,239.70600208478936L624.5051549805648,239.70600208478936L624.6341676714339,239.65737733020495L624.7201761320134,239.6087514379936L624.9351972834618,239.65737733020495L625.1072142046205,239.4628669337004L625.1502184349101,239.17106718359656L625.1502184349101,239.0251519275488L625.1072142046205,238.7819370297753L625.0642099743307,238.68464308471306L624.9351972834618,238.4900414960316L624.7201761320134,238.39273384937525L624.462150750275,238.1981048438343L624.3331380594059,238.05212108549352L624.2041253685368,237.90612703215112L624.2041253685368,237.7114522710416L624.2041253685368,237.56543417606332L624.1611211382472,237.37072734079862L624.2041253685368,237.1760021606995L624.2471295988266,236.8838799673299L624.2901338291165,236.64041322537565L624.4191465199856,236.59171642951839L624.5051549805648,236.29951150609213L624.6341676714339,236.1046852114565L624.7631803623033,235.90984049269076L624.8491888228825,235.66625866668795L624.8491888228825,235.47137244894992L624.8491888228825,235.27646776735327L624.6771719017236,235.17900849878566L624.5481592108545,235.13027713188995L624.4191465199856,235.0815446096645L624.3331380594059,235.03281093191816L624.2471295988266,234.98407609846032L624.2041253685368,234.78912520367953L624.1611211382472,234.6916428170411L624.1181169079578,234.5454105587167L624.1181169079578,234.3504180066223L624.2041253685368,234.2041614301009L624.3331380594059,234.1066512512362L624.4191465199856,233.9603772873296L624.4191465199856,233.81409288408992Z"></path>
<circle class="distCircs" cx="631.4865991172157" cy="239.70969205313082" r="2.2535651223587143" stroke="#000" stroke-width="0.25" fill="#eaf5b5" data-q="MIZORAM" data-r="AIZAWL"><title>MIZORAM - AIZAWL: Census 2011 Total Rural Households = 17,157. Census 2011 Households with toilets = 16,708. Census 2001 Total Rural Households = 14,002. Census 2001 Households with toilets = 12,985. Difference between Census 2011 Households with toilets and Census 2001 Households with toilets = 4.6%</title></circle><circle class="distCircs" cx="637.4185685273583" cy="240.83010038225748" r="2.2358173834829107" stroke="#000" stroke-width="0.25" fill="#d5ecaa" data-q="MIZORAM" data-r="CHAMPHAI"><title>MIZORAM - CHAMPHAI: Census 2011 Total Rural Households = 15,604. Census 2011 Households with toilets = 14,815. Census 2001 Total Rural Households = 12,138. Census 2001 Households with toilets = 10,398. Difference between Census 2011 Households with toilets and Census 2001 Households with toilets = 9.3%</title></circle><circle class="distCircs" cx="630.879755384043" cy="234.88063719908294" r="2.1071945029489356" stroke="#000" stroke-width="0.25" fill="#e1f1b0" data-q="MIZORAM" data-r="KOLASIB"><title>MIZORAM - KOLASIB: Census 2011 Total Rural Households = 7,664. Census 2011 Households with toilets = 7,332. Census 2001 Total Rural Households = 5,497. Census 2001 Households with toilets = 4,897. Difference between Census 2011 Households with toilets and Census 2001 Households with toilets = 6.6%</title></circle><circle class="distCircs" cx="631.2317400360023" cy="263.4375623510441" r="2.2731966698909285" stroke="#000" stroke-width="0.25" fill="#f6d19e" data-q="MIZORAM" data-r="LAWNGTLAI"><title>MIZORAM - LAWNGTLAI: Census 2011 Total Rural Households = 19,039. Census 2011 Households with toilets = 11,518. Census 2001 Total Rural Households = 12,451. Census 2001 Households with toilets = 8,901. Difference between Census 2011 Households with toilets and Census 2001 Households with toilets = -11.0%</title></circle><circle class="distCircs" cx="631.9917413780267" cy="254.28024845844027" r="2.270280812796767" stroke="#000" stroke-width="0.25" fill="#daefad" data-q="MIZORAM" data-r="LUNGLEI"><title>MIZORAM - LUNGLEI: Census 2011 Total Rural Households = 18,748. Census 2011 Households with toilets = 15,092. Census 2001 Total Rural Households = 13,961. Census 2001 Households with toilets = 10,125. Difference between Census 2011 Households with toilets and Census 2001 Households with toilets = 8.0%</title></circle><circle class="distCircs" cx="627.5648924963763" cy="244.158467395014" r="2.216330594473109" stroke="#000" stroke-width="0.25" fill="#b0dc99" data-q="MIZORAM" data-r="MAMIT"><title>MIZORAM - MAMIT: Census 2011 Total Rural Households = 14,048. Census 2011 Households with toilets = 11,668. Census 2001 Total Rural Households = 9,274. Census 2001 Households with toilets = 6,105. Difference between Census 2011 Households with toilets and Census 2001 Households with toilets = 17.2%</title></circle><circle class="distCircs" cx="635.2668125604474" cy="264.1295716918752" r="2.0731962959547445" stroke="#000" stroke-width="0.25" fill="#d4ecaa" data-q="MIZORAM" data-r="SAIHA"><title>MIZORAM - SAIHA: Census 2011 Total Rural Households = 6,305. Census 2011 Households with toilets = 5,483. Census 2001 Total Rural Households = 7,167. Census 2001 Households with toilets = 5,565. Difference between Census 2011 Households with toilets and Census 2001 Households with toilets = 9.3%</title></circle><circle class="distCircs" cx="634.9109845556939" cy="247.9212471392703" r="2.0733058700339164" stroke="#000" stroke-width="0.25" fill="#dbefad" data-q="MIZORAM" data-r="SERCHHIP"><title>MIZORAM - SERCHHIP: Census 2011 Total Rural Households = 6,309. Census 2011 Households with toilets = 6,082. Census 2001 Total Rural Households = 4,872. Census 2001 Households with toilets = 4,309. Difference between Census 2011 Households with toilets and Census 2001 Households with toilets = 8.0%</title></circle></g></g></svg>