<?xml version="1.0" standalone="no"?><!DOCTYPE svg PUBLIC "-//W3C//DTD SVG 1.1//EN" "http://www.w3.org/Graphics/SVG/1.1/DTD/svg11.dtd"><svg id="chart" width="960" height="500" class="dorlingCart" data-type="dorlingCart" version="1.1" xmlns:xlink="http://www.w3.org/1999/xlink" xmlns="http://www.w3.org/2000/svg"><defs class="svg-crowbar"><style type="text/css"><![CDATA[.feature{ fill: #fcfcfc; stroke: #000000; stroke-width: 0.2px; cursor: pointer; }]]></style></defs>
<g><g transform="translate(-2141.130859375,-563.7536010742188)scale(4,4)">
<path class="feature" data-q="NAGALAND" d="M667.5523895005499,193.9675937209613L667.2083556582327,193.81828770266134L666.9073260462046,193.61919448400118L666.8213175856251,193.4200800786387L666.5202879735973,193.3205149267459L666.3912752827284,193.51963993049696L666.1762541312798,193.7685163835149L665.9182287495419,193.9675937209613L665.4451822163551,194.16664989520166L665.2731652951963,194.36568491965318L665.4021779860655,194.66419782981274L665.2731652951963,195.1118781249079L665.0581441437478,195.4102723407915L664.8431229922994,195.60917548267514L664.6711060711407,195.85777480624478L664.5420933802716,196.2554653678527L664.1120510773746,196.80215269502372L664.0690468470848,197.14996203343475L664.3700764591126,197.19964384279865L664.5420933802716,197.49770721473323L664.6711060711407,197.69638996913835L664.8431229922994,197.94471400529466L665.0151399134584,198.1433497249526L664.9721356831683,198.59020376197032L664.9291314528787,199.0369522315217L664.8431229922994,199.3843503752587L664.8431229922994,199.73168481971305L664.8431229922994,200.32696730209534L664.9721356831683,200.82289345622831L665.0151399134584,201.16996475947184L664.9721356831683,201.96303288098989L664.9291314528787,202.2107989438053L664.9291314528787,202.50807571023182L665.0581441437478,202.7062344787508L665.3161695254857,202.85484004971846L665.5741949072242,203.00343405077615L665.7462118283831,203.15201648746933L665.5741949072242,203.44914668994068L665.4881864466447,203.54817982392177L665.2301610649065,203.84524844831628L665.1011483740374,204.14227094083333L664.9721356831683,204.43924734573977L664.8431229922994,204.6866925092628L664.5420933802716,204.93410572380344L664.2410637682435,205.13201330935118L663.9830383865053,205.23095944459567L663.7250130047671,205.47830246135754L663.4669876230291,205.62669297351948L663.33797493216,205.8245291536266L663.2519664715803,206.07179573195583L663.2519664715803,206.31903050430446L663.4239833927395,206.61567028311578L663.596000313898,206.96169224328884L663.768017235057,207.30765204345533L663.8110214653468,207.60413959364286L663.768017235057,207.99938544288847L663.7250130047671,208.29576672345695L663.596000313898,208.49332897945493L663.3809791624494,208.8390143377821L663.2089622412909,208.93777023230274L662.6069030172353,209.38210938890194L662.4778903263659,209.57956072549098L662.219864944628,209.92505214643876L662.0908522537588,210.41850454249095L661.9188353325999,210.76384657220956L661.7898226417308,210.862504443847L661.6608099508617,210.96115730523985L661.5748014902827,211.05980515800223L661.5748014902827,211.25708584408875L661.4457887994135,211.3557186806401L661.1447591873857,211.5036585568854L660.9727422662268,211.65158718367138L660.8437295753579,211.8488078629597L660.6287084239091,212.04600856576474L660.4996957330402,212.1938959910505L660.3706830421711,212.391061766004L660.241670351302,212.63749094407103L660.0696534301428,212.6867730429454L659.8546322786947,212.78533350556165L659.7256195878256,212.83461186970635L659.5966068969565,212.8838889893429L659.510598436377,212.83461186970635L659.4675942060874,212.83461186970635L659.510598436377,212.6867730429454L659.4245899757977,212.5882075998856L659.2955772849286,212.63749094407103L659.0805561334801,212.6867730429454L658.8655349820317,212.8838889893429L658.6935180608727,213.03171288321113L658.5215011397142,213.13025592693197L658.3924884488451,213.32732709634047L658.263475757976,213.32732709634047L658.0914588368171,213.1795255837369L657.9194419156584,213.0809850268236L657.7474249944994,212.9824394958942L657.4463953824716,212.8838889893429L657.2313742310232,212.83461186970635L657.0163530795746,212.6867730429454L656.9303446189954,212.5882075998856L656.7583276978364,212.4896371747742L656.6293150069675,212.4896371747742L656.5433065463881,212.44035009344708L656.4572980858088,212.29248137196544L656.5433065463881,212.14460143001133L656.6293150069675,212.09530562164986L656.7583276978364,211.996710262154L656.8443361584159,211.94741071061702L656.8873403887055,211.79950456643598L656.8873403887055,211.65158718367138L656.8873403887055,211.5036585568854L656.8443361584159,211.3064028877372L656.8873403887055,211.10912720665124L656.9303446189954,210.96115730523985L657.0163530795746,210.8131761344095L657.1023615401539,210.61585036701302L657.1453657704437,210.41850454249095L657.1883700007336,210.31982410476996L657.2743784613128,210.17179403681774L657.3603869218923,210.07310104824523L657.4463953824716,209.92505214643876L657.5324038430513,209.77699193704206L657.5754080733407,209.6289204145951L657.5754080733407,209.57956072549098L657.5324038430513,209.48083757363554L657.4033911521822,209.38210938890194L657.3173826916027,209.33274340870003L657.2743784613128,209.33274340870003L657.1023615401539,209.38210938890194L657.0163530795746,209.43147411047983L656.9733488492852,209.53019977857156L656.8443361584159,209.77699193704206L656.6723192372574,209.87569999997527L656.5863107766779,209.97440303650347L656.5433065463881,210.07310104824523L656.414293855519,210.22113864792078L656.2852811646499,210.3691649509205L656.1132642434911,210.46784287968381L655.9412473223326,210.56651579174263L655.7692304011737,210.56651579174263L655.6402177103043,210.56651579174263L655.5112050194352,210.56651579174263L655.3821923285661,210.61585036701302L655.2531796376973,210.7145157570448L655.0811627165385,210.76384657220956L654.8231373348003,211.15844800374748L654.6941246439312,211.3064028877372L654.5651119530621,211.45434651501205L654.3930950319034,211.60227889101367L654.2210781107447,211.75020002118066L653.9630527290064,211.94741071061702L653.8340400381371,212.04600856576474L653.6190188866888,212.24318930496833L653.3609935049508,212.29248137196544L653.1459723535022,212.3417721922437L653.0169596626331,212.3417721922437L652.8019385111845,212.3417721922437L652.6299215900256,212.3417721922437L652.4149004385772,212.391061766004L652.3718962082876,212.5389230101868L652.2858877477083,212.63749094407103L652.1998792871286,212.6867730429454L652.1138708265494,212.6867730429454L651.9848581356803,212.5882075998856L651.8558454448112,212.4896371747742L651.4688073722039,212.09530562164986L651.339794681335,211.94741071061702L651.167777760176,211.75020002118066L651.0387650693069,211.65158718367138L650.8667481481482,211.60227889101367L650.7807396875689,211.60227889101367L650.5227143058307,211.79950456643598L650.4797100755409,211.8488078629597L650.350697384672,211.996710262154L650.2216846938029,212.09530562164986L650.0926720029338,212.1938959910505L650.0066635423543,212.29248137196544L649.8346466211956,212.29248137196544L649.6626297000366,212.29248137196544L649.5766212394574,212.29248137196544L649.4046043182984,212.24318930496833L649.2755916274295,212.1938959910505L649.1465789365604,212.14460143001133L649.0605704759812,212.09530562164986L648.8885535548222,212.09530562164986L648.7165366336635,212.14460143001133L648.5445197125046,212.14460143001133L648.329498561056,212.1938959910505L648.1574816398972,212.24318930496833L648.071473179318,212.24318930496833L647.8564520278696,212.1938959910505L647.7704435672902,212.14460143001133L647.3404012643932,212.09530562164986L647.2113885735241,212.04600856576474L646.9963674220755,212.09530562164986L646.9103589614963,212.09530562164986L646.3943081980199,212.1938959910505L646.2222912768609,212.24318930496833L646.0502743557024,212.24318930496833L645.8782574345435,212.1938959910505L645.7922489739644,212.09530562164986L645.6632362830951,211.996710262154L645.4912193619361,211.89810991095277L645.2761982104878,211.8488078629597L645.0611770590397,211.89810991095277L644.97516859846,211.94741071061702L644.97516859846,211.996710262154L644.97516859846,212.1938959910505L645.0181728287494,212.391061766004L645.0611770590397,212.5882075998856L645.2331939801979,212.6867730429454L645.4052109013569,212.7360538967087L645.534223592226,212.8838889893429L645.7062405133847,213.0809850268236L645.7062405133847,213.27806116824075L645.6202320528055,213.37659178193962L645.362206671067,213.8199180729154L645.2761982104878,213.91842137587554L645.1471855196187,214.06616703011127L644.97516859846,214.21390152890973L644.8461559075909,214.41086351708555L644.6741389864321,214.50933708182487L644.5021220652732,214.60780569580066L644.3731093744043,214.7062693606136L644.2440966835352,214.80472807786418L644.1580882229555,214.90318184915225L644.1150839926661,215.05085323590464L643.9860713017968,215.1985135032391L643.7280459200588,215.83824630224052L643.6420374594793,215.98584735710375L643.5560289988998,216.18263152076133L643.5130247686104,216.28101621639667L643.4270163080307,216.4285840315946L643.2980036171616,216.5269564252148L643.1259866960031,216.62532390081782L642.996974005134,216.7728658964288L642.9109655445545,216.87122108396306L642.7819528536857,216.96957135905689L642.7389486233958,217.01874465493648L642.695944393106,217.16625717829436L642.6099359325267,217.26459272562113L642.4809232416578,217.26459272562113L642.437919011368,217.26459272562113L642.3949147810781,217.21542556531608L642.3949147810781,217.11708756435627L642.3089063204989,217.01874465493648L642.265902090209,216.92039683546534L642.1798936296298,216.7728658964288L642.1798936296298,216.72368645999893L642.1368893993401,216.67450579486194L642.0508809387604,216.62532390081782L641.9648724781812,216.67450579486194L641.8358597873121,216.72368645999893L641.620838635864,216.7728658964288L641.4918259449946,216.7728658964288L641.4058174844154,216.67450579486194L641.2338005632564,216.5269564252148L641.1477921026772,216.4285840315946L641.1047878723873,216.33020671836397L641.0617836420977,216.23182448392885L640.9757751815182,216.18263152076133L640.889766720939,216.0842419015283L640.8037582603595,215.98584735710375L640.8467624906493,215.64142764268786L640.8467624906493,215.4938007012375L640.8037582603595,215.39537657213958L640.7607540300698,215.1985135032391L640.71774979978,215.05085323590464L640.6317413392007,214.853955581653L640.6317413392007,214.7062693606136L640.5457328786215,214.55857200755833L640.3737159574625,214.3616248776786L640.2447032665932,214.21390152890973L639.8576651939861,213.7706645607936L639.7716567334069,213.57363810334584L639.728652503117,213.37659178193962L639.5996398122479,213.13025592693197L639.5566355819583,212.9824394958942L639.5136313516684,212.78533350556165L639.5136313516684,212.63749094407103L639.5136313516684,212.3417721922437L639.5136313516684,212.09530562164986L639.5566355819583,211.89810991095277L639.5566355819583,211.65158718367138L639.5996398122479,211.25708584408875L639.5996398122479,211.15844800374748L639.6856482728274,210.8131761344095L639.728652503117,210.6651836887134L639.900669424276,210.46784287968381L640.2447032665932,210.17179403681774L640.4597244180418,210.07310104824523L640.6317413392007,209.97440303650347L641.0617836420977,209.8263465969104L641.2768047935463,209.77699193704206L641.4918259449946,209.67827884608698L641.6638428661533,209.6289204145951L641.8358597873121,209.43147411047983L642.007876708471,209.28337616967048L642.1368893993401,209.13526689759743L642.1798936296298,209.03652108503377L642.695944393106,208.64148741688558L642.8679613142649,208.49332897945493L642.996974005134,208.29576672345695L643.1259866960031,208.09818425811886L643.2119951565826,207.9499841389216L643.3410078474517,207.75236627597468L643.4700205383208,207.55472816794838L643.5990332291897,207.40648629327092L643.7280459200588,207.20881272505233L643.8570586109281,207.10996833643327L644.0290755320866,206.96169224328884L644.2010924532453,206.7639730248123L644.2871009138246,206.46735611144663L644.2871009138246,206.41791551327907L644.2871009138246,206.31903050430446L644.2871009138246,206.22014041045094L644.2871009138246,205.97289291876916L644.3731093744043,205.87398501499473L644.4161136046939,205.8245291536266L644.5021220652732,205.87398501499473L644.5881305258529,205.8245291536266L644.717143216722,205.9234396033077L644.8031516773012,206.02234496158388L644.8891601378803,206.07179573195583L644.9321643681703,206.17069345618484L645.0181728287494,206.22014041045094L645.1041812893291,206.26958609308974L645.4482151316467,206.31903050430446L645.534223592226,206.31903050430446L645.6632362830951,206.31903050430446L645.8352532042538,206.36847364429946L645.9642658951229,206.31903050430446L646.0502743557024,206.36847364429946L646.2222912768609,206.41791551327907L646.5233208888892,206.46735611144663L646.6523335797583,206.46735611144663L646.8243505009166,206.46735611144663L646.9533631917857,206.46735611144663L647.082375882655,206.46735611144663L647.2113885735241,206.46735611144663L647.3834054946831,206.46735611144663L647.512418185552,206.46735611144663L647.641430876421,206.36847364429946L647.7274393370003,206.26958609308974L647.8564520278696,206.17069345618484L647.9424604884489,206.07179573195583L648.0284689490286,205.97289291876916L648.1144774096078,205.8245291536266L648.2004858701871,205.5772307438138L648.1574816398972,205.37936908014848L648.1574816398972,205.13201330935118L648.071473179318,204.88462563558664L647.9424604884489,204.48873893559102L647.9424604884489,204.43924734573977L647.9854647187387,204.29076490147287L648.0284689490286,204.0927703938043L648.1144774096078,203.94426106939915L648.2004858701871,203.84524844831628L648.2864943307666,203.74623070146885L648.329498561056,203.64720782721776L648.329498561056,203.44914668994068L648.372502791346,203.2510650233561L648.372502791346,203.10249029315816L648.372502791346,202.9539040022936L648.4155070216357,202.50807571023182L648.4585112519251,202.35944312122461L648.4585112519251,202.30989634996104L648.4585112519251,202.1116963847757L648.5875239427944,201.66567105816927L648.7165366336635,201.5169727280129L648.8025450942428,201.31869021142L649.0175662456913,201.1203870240077L649.5336170091675,200.07895563589278L649.791642390906,199.53321579008087L649.9206550817751,199.43397347990862L650.0496677726439,199.2851002657958L650.0926720029338,199.13621534808755L650.2646889240923,199.08658444041822L650.350697384672,199.0369522315217L650.6947312269897,199.08658444041822L650.7807396875689,199.0369522315217L650.9097523784378,198.987318721189L650.9527566087277,198.88804779538827L650.9527566087277,198.7391316407373L650.9527566087277,198.1433497249526L650.9957608390175,197.9943748936915L651.0387650693069,197.74605738961844L651.0817692995968,197.54737986462226L651.1247735298864,197.39835799112933L651.2107819904659,197.19964384279865L651.339794681335,197.0009087485385L651.4258031419145,196.80215269502372L651.597820063073,196.5536781338705L651.6838285236527,196.20575864562073L651.9418539053906,195.85777480624478L652.0278623659701,195.7583390225256L652.1138708265494,195.60917548267514L652.2428835174185,195.4102723407915L652.328891977998,195.36054326426944L652.5009088991569,195.21134813284004L652.5439131294463,195.21134813284004L652.6299215900256,195.26108116050347L652.715930050605,195.3108128709099L652.7589342808949,195.4102723407915L652.7589342808949,195.50972654415528L652.715930050605,195.65889797814003L652.6729258203154,195.80805757186386L652.6729258203154,195.9572053309666L652.6729258203154,196.15605061010103L652.6729258203154,196.2554653678527L652.6729258203154,196.35487487328584L652.6729258203154,196.60337566892468L652.6729258203154,196.75246040519954L652.6729258203154,196.90153334252045L652.8019385111845,196.95122170061057L652.9309512020538,196.95122170061057L653.0599638929227,196.85184367406106L653.2319808140817,196.70276680438008L653.3609935049508,196.50397928698823L653.4470019655298,196.30517077700495L654.0060569592961,195.55945167141613L654.1780738804548,195.26108116050347L654.3070865713239,194.91292229276803L654.3930950319034,194.76369157283057L654.4360992621928,194.66419782981274L654.5221077227725,194.564698807728L654.6511204136416,194.41544037268358L654.6941246439312,194.31592814559946L654.8231373348003,194.16664989520166L654.9521500256694,194.06712445264395L655.0381584862484,193.9675937209613L655.2531796376973,193.91782637117473L655.3391880982765,193.8680576984782L655.5112050194352,193.7685163835149L655.8552388617529,193.5694178694381L655.984251552622,193.51963993049696L656.1992727040706,193.4200800786387L656.3712896252291,193.3205149267459L656.5433065463881,193.22094447313924L656.7153234675468,193.12136871613785L656.9303446189954,193.07157884833913L657.2743784613128,192.92220128522962L657.4033911521822,192.8724061102542L657.6614165339201,192.77281177813506L657.8334334550791,192.67321213505494L658.6075096002933,192.4241897808608L658.7795265214522,192.32457153616775L658.8655349820317,192.27476041947529L658.9945476729008,192.1751341963486L659.252573054639,192.02568488414215L659.510598436377,191.82640050099172L659.6826153575357,191.67692323109702L659.7686238181154,191.57726505632525L659.8976365089845,191.37793271156647L660.2846745815914,190.87950846549955L660.5426999633296,190.38095064457696L660.6287084239091,190.0318805797349L660.6717126541989,189.88225903746923L660.7577211147782,189.78250464309116L660.800725345068,189.68274488711018L660.8437295753579,189.58297976783143L661.0157464965164,189.4832092835607L661.058750726806,189.43332202902343L661.1877634176751,189.3335434940863L661.5317972599928,189.28365221326237L661.6608099508617,189.23375958991937L661.8328268720209,189.23375958991937L662.0048437931794,189.23375958991937L662.1768607143383,189.28365221326237L662.3058734052074,189.28365221326237L662.4778903263659,189.3335434940863L662.6499072475247,189.43332202902343L662.7789199383938,189.5330951964259L662.9079326292631,189.58297976783143L662.9939410898423,189.58297976783143L663.079949550422,189.58297976783143L663.1659580110013,189.4832092835607L663.3809791624494,189.3335434940863L663.5099918533185,189.28365221326237L663.6390045441879,189.23375958991937L663.768017235057,189.28365221326237L663.9400341562157,189.23375958991937L664.1120510773746,189.23375958991937L664.327072228823,189.18386562384472L664.6711060711407,188.9842763279891L665.4021779860655,188.2855443855754L665.8322202889622,188.0359333222462L665.8322202889622,188.13578178957067L665.8322202889622,188.2855443855754L665.7892160586725,188.43529486070105L665.8322202889622,188.53512177979684L665.9182287495419,188.6349433160832L665.9612329798313,188.73475947126008L665.9612329798313,188.78466553146222L666.0042372101211,188.8345702470246L665.9612329798313,188.93437564507553L665.9182287495419,188.9842763279891L665.8322202889622,189.0341756671105L665.6602033678034,189.13397031482629L665.617199137514,189.18386562384472L665.5741949072242,189.28365221326237L665.617199137514,189.3834334326031L665.7032075980933,189.43332202902343L665.7892160586725,189.5330951964259L665.8322202889622,189.6328629979888L665.875224519252,189.78250464309116L665.8322202889622,189.88225903746923L665.8322202889622,189.98200807193723L665.875224519252,190.0318805797349L665.9182287495419,190.08175174818984L666.0902456707004,190.18149006791828L666.2192583615695,190.28122303281708L666.305266822149,190.38095064457696L666.305266822149,190.48067290488984L666.2622625918593,190.63024626509736L666.2192583615695,190.68010137794244L666.1762541312798,190.7299551541937L666.2192583615695,190.87950846549955L666.2622625918593,190.92935689749038L666.3482710524388,191.02904975507062L666.3482710524388,191.17857902860783L666.3482710524388,191.27825853820622L666.1762541312798,191.5274339698534L666.0902456707004,191.67692323109702L666.0042372101211,191.82640050099172L665.9612329798313,191.9758657852268L665.9612329798313,192.1253190894925L666.047241440411,192.22494797293893L666.1332499009902,192.37438132322575L666.2622625918593,192.573607179332L666.3482710524388,192.6234103213793L666.4772837433079,192.67321213505494L666.606296434177,192.72301262057027L666.7783133553357,192.82260960795975L666.9503302764942,192.92220128522962L667.0793429673636,193.0217876540621L667.2083556582327,193.12136871613785L667.2083556582327,193.27073036276158L667.2943641188119,193.3702981653019L667.3803725793914,193.5694178694381L667.423376809681,193.71874374082984Z"></path>
<circle class="distCircs" cx="646.07907423849" cy="209.8608128143626" r="2.3973201708429914" stroke="#000" stroke-width="0.25" fill="#e1f2b0" data-q="NAGALAND" data-r="DIMAPUR"><title>NAGALAND - DIMAPUR: Census 2011 Total Rural Households = 36,034. Census 2011 Households with toilets = 33,004. Census 2001 Total Rural Households = 34,480. Census 2001 Households with toilets = 29,324. Difference between Census 2011 Households with toilets and Census 2001 Households with toilets = 6.5%</title></circle><circle class="distCircs" cx="661.3621984120246" cy="205.68897304734486" r="2.207625489637707" stroke="#000" stroke-width="0.25" fill="#eee" data-q="NAGALAND" data-r="KIPHIRE"><title>NAGALAND - KIPHIRE: Census 2011 Total Rural Households = 13,400. Census 2011 Households with toilets = 4,911. Census 2001 Total Rural Households = NaN. Census 2001 Households with toilets = 0. Difference between Census 2011 Households with toilets and Census 2001 Households with toilets = NaN%</title></circle><circle class="distCircs" cx="650.1525224960989" cy="207.25449209013755" r="2.3361233533777375" stroke="#000" stroke-width="0.25" fill="#f1f9b8" data-q="NAGALAND" data-r="KOHIMA"><title>NAGALAND - KOHIMA: Census 2011 Total Rural Households = 26,421. Census 2011 Households with toilets = 13,779. Census 2001 Total Rural Households = 41,326. Census 2001 Households with toilets = 20,299. Difference between Census 2011 Households with toilets and Census 2001 Households with toilets = 3.0%</title></circle><circle class="distCircs" cx="660.4132485994694" cy="195.82029178738304" r="2.152558553502352" stroke="#000" stroke-width="0.25" fill="#eee" data-q="NAGALAND" data-r="LONGLENG"><title>NAGALAND - LONGLENG: Census 2011 Total Rural Households = 9,896. Census 2011 Households with toilets = 6,826. Census 2001 Total Rural Households = NaN. Census 2001 Households with toilets = 0. Difference between Census 2011 Households with toilets and Census 2001 Households with toilets = NaN%</title></circle><circle class="distCircs" cx="655.9694658476128" cy="198.54585808208714" r="2.3610910487162893" stroke="#000" stroke-width="0.25" fill="#fffebe" data-q="NAGALAND" data-r="MOKOKCHUNG"><title>NAGALAND - MOKOKCHUNG: Census 2011 Total Rural Households = 30,016. Census 2011 Households with toilets = 28,908. Census 2001 Total Rural Households = 31,088. Census 2001 Households with toilets = 30,035. Difference between Census 2011 Households with toilets and Census 2001 Households with toilets = -0.3%</title></circle><circle class="distCircs" cx="663.4922654432983" cy="192.12772003299204" r="2.3960412784343976" stroke="#000" stroke-width="0.25" fill="#f0b488" data-q="NAGALAND" data-r="MON"><title>NAGALAND - MON: Census 2011 Total Rural Households = 35,804. Census 2011 Households with toilets = 22,444. Census 2001 Total Rural Households = 31,304. Census 2001 Households with toilets = 25,306. Difference between Census 2011 Households with toilets and Census 2001 Households with toilets = -18.2%</title></circle><circle class="distCircs" cx="642.4607454157181" cy="212.93455673265265" r="2.238733710651584" stroke="#000" stroke-width="0.25" fill="#eee" data-q="NAGALAND" data-r="PEREN"><title>NAGALAND - PEREN: Census 2011 Total Rural Households = 15,850. Census 2011 Households with toilets = 12,226. Census 2001 Total Rural Households = NaN. Census 2001 Households with toilets = 0. Difference between Census 2011 Households with toilets and Census 2001 Households with toilets = NaN%</title></circle><circle class="distCircs" cx="655.3656866825891" cy="208.4764367390867" r="2.3791448772824157" stroke="#000" stroke-width="0.25" fill="#eee" data-q="NAGALAND" data-r="PHEK"><title>NAGALAND - PHEK: Census 2011 Total Rural Households = 32,889. Census 2011 Households with toilets = 24,807. Census 2001 Total Rural Households = NaN. Census 2001 Households with toilets = 0. Difference between Census 2011 Households with toilets and Census 2001 Households with toilets = NaN%</title></circle><circle class="distCircs" cx="661.7645237612414" cy="199.86212764194534" r="2.3748587975133133" stroke="#000" stroke-width="0.25" fill="#fcfebe" data-q="NAGALAND" data-r="TUENSANG"><title>NAGALAND - TUENSANG: Census 2011 Total Rural Households = 32,185. Census 2011 Households with toilets = 16,043. Census 2001 Total Rural Households = 56,901. Census 2001 Households with toilets = 28,042. Difference between Census 2011 Households with toilets and Census 2001 Households with toilets = 0.6%</title></circle><circle class="distCircs" cx="652.3262997186253" cy="202.1072774992112" r="2.340549475489596" stroke="#000" stroke-width="0.25" fill="#d1eaa9" data-q="NAGALAND" data-r="WOKHA"><title>NAGALAND - WOKHA: Census 2011 Total Rural Households = 27,028. Census 2011 Households with toilets = 16,075. Census 2001 Total Rural Households = 20,712. Census 2001 Households with toilets = 10,221. Difference between Census 2011 Households with toilets and Census 2001 Households with toilets = 10.1%</title></circle><circle class="distCircs" cx="657.5828461109982" cy="203.4592403563604" r="2.328372032870972" stroke="#000" stroke-width="0.25" fill="#99d18e" data-q="NAGALAND" data-r="ZUNHEBOTO"><title>NAGALAND - ZUNHEBOTO: Census 2011 Total Rural Households = 25,388. Census 2011 Households with toilets = 18,200. Census 2001 Total Rural Households = 23,499. Census 2001 Households with toilets = 11,620. Difference between Census 2011 Households with toilets and Census 2001 Households with toilets = 22.2%</title></circle></g></g></svg>