<?xml version="1.0" standalone="no"?><!DOCTYPE svg PUBLIC "-//W3C//DTD SVG 1.1//EN" "http://www.w3.org/Graphics/SVG/1.1/DTD/svg11.dtd"><svg id="chart" width="960" height="500" class="dorlingCart" data-type="dorlingCart" version="1.1" xmlns:xlink="http://www.w3.org/1999/xlink" xmlns="http://www.w3.org/2000/svg"><defs class="svg-crowbar"><style type="text/css"><![CDATA[.feature{ fill: #fcfcfc; stroke: #000000; stroke-width: 0.2px; cursor: pointer; }]]></style></defs>
<g><g transform="translate(-1554.1591796875,-918.75244140625)scale(4,4)">
<path class="feature" data-q="ORISSA" d="M513.3392196817015,315.3263116221303L513.3822239119913,315.18515816448655L512.9091773788045,314.8087110814378L512.737160457646,314.6675292142211L512.6081477667767,314.5263395886488L512.4791350759076,314.47927465528306L512.3501223850385,314.43220885922415L512.1781054638798,314.3851422003084L512.0490927730109,314.33807467837283L511.92008008214157,314.33807467837283L511.79106739127246,314.33807467837283L511.66205470040336,314.43220885922415L511.61905047011373,314.47927465528306L511.53304200953426,314.7145906984484L511.49003777924463,314.85576998052653L511.4040293186654,314.90282801823L511.2750166277963,315.1381052916702L511.1890081672168,315.2322101770597L510.9309827854786,315.3263116221303L510.8019700946097,315.3263116221303L510.71596163403,315.3263116221303L510.62995317345053,315.27926132955304L510.5009404825819,315.2322101770597L510.4149320220024,315.18515816448655L510.2859193311331,314.99694151013097L510.1569066402642,314.99694151013097L510.11390240997457,314.99694151013097L510.0278939493951,314.99694151013097L509.85587702823614,315.2322101770597L509.167809343601,316.12603518680476L508.99579242244226,316.2671371424383L508.86677973157316,316.31416941444763L508.7807712709939,316.36120083012895L508.69476281041443,316.31416941444763L508.5657501195453,316.31416941444763L508.5227458892557,316.2671371424383L508.47974165896585,316.1730700287797L508.3077247378071,316.12603518680476L508.22171627722787,316.12603518680476L508.17871204693824,316.1730700287797L508.17871204693824,316.40823138964305L508.22171627722787,316.54931793281827L508.22171627722787,316.78444506331977L508.2647205075175,316.9255110839103L508.35072896809675,317.11358715315015L508.3077247378071,317.3956756534155L507.83467820462056,318.1477616943902L507.4906443623031,318.4767308742218L507.361631671434,318.6177049295886L507.2756232108543,318.7116833910825L507.18961475027527,318.8056584604237L507.0175978291163,318.89963013890934L506.9745935988267,318.9466147069867L506.8885851382472,319.04058130162184L506.80257667766796,319.13454450864447L506.7165682170885,319.2285043293521L506.67356398679885,319.27548297024276L506.5445512959295,319.36943771390804L506.4585428353505,319.41641381700697L506.372534374771,319.46338907449945L506.28652591419154,319.5103634865476L506.15751322332244,319.5103634865476L506.02850053245334,319.46338907449945L505.89948784158423,319.41641381700697L505.77047515071536,319.36943771390804L505.68446669013565,319.32246076504055L505.4694455386873,319.32246076504055L505.29742861752857,319.32246076504055L505.16841592665946,319.32246076504055L505.03940323579013,319.32246076504055L504.9103905449215,319.32246076504055L504.5663567026038,319.36943771390804L504.26532709057574,319.41641381700697L503.83528478767903,319.60430977495827L503.7062720968099,319.65128165164504L503.62026363623045,319.65128165164504L503.3192340242024,319.65128165164504L503.1902213333335,319.698252683535L503.0612086424644,319.698252683535L502.9321959515953,319.65128165164504L502.8461874910158,319.60430977495827L502.8031832607262,319.5103634865476L502.63116633956747,319.1815248422063L502.545157878988,319.0875633285036L502.50215364869837,319.04058130162184L502.28713249725,318.8526447234424L502.11511557609106,318.8056584604237L501.9000944246427,318.8526447234424L501.77108173377337,318.8526447234424L501.59906481261464,318.9466147069867L501.4270478914559,319.0875633285036L501.2980352005868,319.13454450864447L501.0400098188486,319.1815248422063L500.9109971279795,319.13454450864447L500.7819844371104,319.13454450864447L500.6529717462413,319.04058130162184L500.48095482508256,318.99359842783633L500.30893790392383,318.8056584604237L500.22292944334436,318.758671349691L500.09391675247525,318.66469458443623L500.007908291896,318.5707144263789L499.9218998313165,318.42973782495L499.8788956010269,318.28875358241453L499.7928871404474,318.19475984016765L499.70687867986817,318.05376285271495L499.66387444957854,317.9597606097973L499.57786598899906,317.81875086524883L499.4918575284196,317.3016495654043L499.44885329812973,317.11358715315015L499.4058490678401,316.9255110839103L499.3628448375505,316.7374213472718L499.27683637697123,316.54931793281827L499.2338321466814,316.40823138964305L499.19082791639175,316.22010401393624L499.1048194558123,316.12603518680476L499.0188109952328,316.0319629317498L498.9758067649434,315.9849255183437L498.8897983043639,315.8438081326534L498.8467940740743,315.74972558600354L498.7607856134948,315.7967672883894L498.67477715291534,315.8438081326534L498.6317729226257,315.9378872474673L498.6317729226257,316.0789994878493L498.6317729226257,316.22010401393624L498.6317729226257,316.50228994082516L498.6317729226257,316.64337135042314L498.5887686923361,316.8314679246671L498.5887686923361,316.97253138213216L498.5887686923361,317.11358715315015L498.6317729226257,317.3016495654043L498.54576446204624,317.34866303578417L498.5027602317566,317.34866303578417L498.3737475408875,317.3016495654043L498.28773908030803,317.2076200657494L498.1587263894389,316.9255110839103L498.0727179288597,316.78444506331977L498.02971369857005,316.64337135042314L497.94370523799057,316.50228994082516L497.90070100770095,316.40823138964305L497.8576967774111,316.22010401393624L497.77168831683184,315.8438081326534L497.68567985625236,315.70268302533276L497.55666716538326,315.56155019197894L497.42765447451416,315.46745734199396L497.3416460139347,315.27926132955304L497.2556375533554,315.2322101770597L497.1266248624863,315.18515816448655L497.0406164019071,315.0910515584476L496.9546079413276,315.0439969646556L496.91160371103797,314.90282801823L496.91160371103797,314.8087110814378L496.8685994807481,314.7145906984484L496.8255952504585,314.5734036594848L496.8255952504585,314.5263395886488L496.78259102016864,314.33807467837283L496.739586789879,314.19686693280994L496.739586789879,314.00857784652527L496.6965825595894,313.91442811806667L496.6105740990099,313.91442811806667L496.4815614081408,313.91442811806667L496.4385571778512,314.00857784652527L496.3095444869823,314.10272411767005L496.2235360264028,314.29100629325364L496.0945233355335,314.5263395886488L496.0945233355335,314.5734036594848L495.9655106446646,314.7145906984484L495.87950218408514,314.76165132079905L495.8364979537955,314.8087110814378L495.8364979537955,314.90282801823L495.79349372350566,314.99694151013097L495.75048949321604,315.0439969646556L495.6644810326368,314.99694151013097L495.62147680234716,314.90282801823L495.49246411147806,314.8087110814378L495.4064556508986,314.8087110814378L495.3634514206087,314.85576998052653L495.3204471903191,314.90282801823L495.3204471903191,314.99694151013097L495.2774429600295,315.0910515584476L495.2774429600295,315.2322101770597L495.2344387297396,315.46745734199396L495.19143449945,315.70268302533276L495.2344387297396,315.8438081326534L495.2344387297396,315.9849255183437L495.19143449945,316.12603518680476L495.0624218085809,316.1730700287797L494.933409117712,316.0789994878493L494.89040488742194,315.89084811895833L494.8043964268429,315.74972558600354L494.7613921965533,315.51450419653685L494.7183879662632,315.3263116221303L494.6753837359738,315.1381052916702L494.58937527539433,314.9498851947099L494.50336681481485,314.8087110814378L494.4173583542356,314.76165132079905L494.2883456633665,314.76165132079905L494.15933297249717,314.99694151013097L494.15933297249717,315.0910515584476L494.202337202787,315.27926132955304L494.202337202787,315.4204096281871L494.202337202787,315.51450419653685L494.11632874220754,315.9849255183437L493.98731605133844,316.0789994878493L493.8152991301797,316.1730700287797L493.55727374844173,316.2671371424383L493.3852568272828,316.31416941444763L493.25624413641367,316.31416941444763L493.08422721525494,316.22010401393624L492.95521452438584,316.1730700287797L492.8692060638066,316.0319629317498L492.7831976032271,315.9378872474673L492.654184912358,315.89084811895833L492.4821679911993,315.9378872474673L492.3531553003302,316.0789994878493L492.22414260946107,316.1730700287797L492.1381341488818,316.2671371424383L492.05212568830234,316.40823138964305L491.923112997433,316.54931793281827L491.923112997433,316.6903967763608L491.96611722772286,316.78444506331977L492.05212568830234,316.9255110839103L492.09512991859197,316.97253138213216L492.1381341488818,317.11358715315015L492.3531553003302,317.16060403614904L492.4821679911993,317.0195508263041L492.61118068206815,316.8784899314763L492.7831976032271,316.7374213472718L492.9122102940962,316.8784899314763L492.95521452438584,317.06656941658883L492.95521452438584,317.16060403614904L492.82620183351696,317.3956756534155L492.82620183351696,317.5837175997097L492.8692060638066,317.7717459150365L492.9982187546757,317.8657549643378L493.12723144554457,317.9597606097973L493.2992483667033,318.05376285271495L493.5142695181519,318.1007626986268L493.55727374844173,318.19475984016765L493.5142695181519,318.28875358241453L493.3852568272828,318.3827439266663L493.08422721525494,318.5237230746435L492.9122102940962,318.5707144263789L492.7401933729375,318.5707144263789L492.5681764517785,318.5707144263789L492.3961595306198,318.6177049295886L492.18113837917144,318.66469458443623L492.09512991859197,318.758671349691L492.05212568830234,318.89963013890934L492.0091214580125,318.99359842783633L491.923112997433,319.1815248422063L491.66508761569503,319.5103634865476L491.4930706945363,319.5103634865476L491.32105377337757,319.46338907449945L491.2350453127981,319.5103634865476L491.106032621929,319.60430977495827L490.9770199310599,319.65128165164504L490.8910114704804,319.7452228707904L490.8480072401908,319.8391607120449L490.80500300990093,319.98006114321424L490.8480072401908,320.0739905454081L490.80500300990093,320.26183923101536L490.76199877961153,320.30879929528163L490.6759903190318,320.3557585170173L490.6329860887424,320.26183923101536L490.5469776281627,320.16791657424375L490.5039733978733,320.0739905454081L490.46096916758347,319.9330951767039L490.46096916758347,319.8391607120449L490.46096916758347,319.7452228707904L490.41796493729385,319.5573370533134L490.33195647671437,319.46338907449945L490.2459480161351,319.5103634865476L490.20294378584526,319.60430977495827L490.116935325266,319.698252683535L489.9879226343967,319.792192213573L489.8589099435278,319.792192213573L489.81590571323795,319.7452228707904L489.7729014829483,319.698252683535L489.7298972526587,319.5573370533134L489.6868930223691,319.46338907449945L489.51487610121035,319.46338907449945L489.4718718709205,319.5573370533134L489.3428591800514,319.7452228707904L489.0848337983132,320.2148783240563L488.99882533773393,320.3557585170173L488.9558211074441,320.5435869818887L488.86981264686483,320.7314019792091L488.7407999559957,320.96615180287694L488.56878303483677,321.1539365360305L488.26775342280894,321.5294657108605L487.837711119912,321.99880173943296L487.75170265933275,322.18651271378343L487.75170265933275,322.32728716523775L487.7947068896224,322.37421031099973L487.88071535020185,322.37421031099973L488.0527322713606,322.32728716523775L488.2247491925193,322.2334383667911L488.4397703439679,322.18651271378343L488.4827745742575,322.2334383667911L488.56878303483677,322.2803631838888L488.56878303483677,322.37421031099973L488.52577880454714,322.4680540964066L488.39676611367804,322.60881351164164L488.2247491925193,322.70264894842813L488.13874073194006,322.79648104802175L488.09573650165044,322.89030981171095L488.13874073194006,323.03104670524215L488.2247491925193,323.1248671348069L488.3537618833884,323.2655915331888L488.56878303483677,323.4063084402747L488.6977957257061,323.5001155519804L488.7407999559957,323.6408199832271L488.6977957257061,323.7815169347612L488.6117872651266,323.87531074919815L488.4397703439679,323.9222064109233L488.3107576530988,324.06288841605453L488.2247491925193,324.1097807582854L488.13874073194006,324.1566722710453L488.00972804107096,324.1566722710453L487.837711119912,324.29734183410017L487.837711119912,324.4380039376926L487.9237195804915,324.57865858616003L488.0527322713606,324.6724242122096L488.2247491925193,324.7193057838372L488.3537618833884,324.7661865280811L488.4827745742575,324.9537012344266L488.4827745742575,325.09432858451765L488.4397703439679,325.23494849970615L488.26775342280894,325.46929851477654L488.09573650165044,325.6098986247267L487.9237195804915,325.6567636791562L487.75170265933275,325.7036279094105L487.62268996846365,325.8442156567152L487.49367727759454,325.98479599220184L487.3646645867252,326.0785121003174L487.23565189585656,326.0785121003174L487.10663920498723,326.0316544577067L487.0636349746976,325.89107659186567L486.9776265141181,325.75049131564737L486.848613823249,325.6567636791562L486.6765969020903,325.6567636791562L486.50457998093134,325.75049131564737L486.37556729006246,325.8442156567152L486.20355036890373,325.89107659186567L486.07453767803463,325.75049131564737L485.98852921745515,325.6098986247267L486.031533447745,325.42243016203844L486.07453767803463,325.28182015331714L486.11754190832426,325.09432858451765L486.07453767803463,324.9537012344266L485.9455249871655,324.90682379811386L485.77350806600657,324.90682379811386L485.5154826842686,324.90682379811386L485.1714488419509,324.8130664451014L485.0854403813714,324.7193057838372L484.9564276905023,324.6724242122096L484.74140653905397,324.6724242122096L484.6123938481851,324.7193057838372L484.5263853876056,324.90682379811386L484.48338115731576,325.09432858451765L484.56938961789524,325.28182015331714L484.6123938481851,325.42243016203844L484.6123938481851,325.5630327459604L484.6123938481851,325.7036279094105L484.6123938481851,325.8442156567152L484.48338115731576,326.12536892019364L484.31136423615703,326.21908009238246L484.18235154528793,326.31278797555404L484.010334624129,326.359640684159L483.83831770297047,326.40649257098966L483.6232965515219,326.4533436362065L483.4942838606528,326.50019387996923L483.32226693949406,326.59389190377277L483.1932542486252,326.68758664368085L482.97823309717637,326.78127810097305L482.763211945728,326.87496627692906L482.67720348514854,326.96865117282846L482.5911950245693,327.1560111295719L482.50518656399004,327.29652249649314L482.33316964283085,327.57752313311016L482.204156951962,327.90532001001026L482.1181484913825,327.99896890966414L481.94613157022377,327.99896890966414L481.7741146490648,327.99896890966414L481.7311104187752,327.90532001001026L481.68810618848556,327.8116678443585L481.68810618848556,327.6711834693425L481.68810618848556,327.57752313311016L481.68810618848556,327.4370264962347L481.64510195819616,327.29652249649314L481.6020977279061,327.10917236936825L481.55909349761646,326.87496627692906L481.6020977279061,326.54704330243794L481.6020977279061,326.12536892019364L481.6020977279061,325.8442156567152L481.4730850370372,325.6567636791562L481.3010681158785,325.5630327459604L481.1720554250094,325.5630327459604L481.0000385038504,325.5630327459604L480.78501735240206,325.6567636791562L480.61300043124334,325.5630327459604L480.48398774037423,325.3755609843231L480.52699197066386,325.1880760204766L480.5699962009537,325.00057784415804L480.52699197066386,324.8130664451014L480.39797927979475,324.7193057838372L480.3119708192153,324.53177453141717L480.3119708192153,324.4380039376926L480.39797927979475,324.29734183410017L480.48398774037423,324.1566722710453L480.52699197066386,323.969101242534L480.52699197066386,323.7815169347612L480.48398774037423,323.68771979793667L480.39797927979475,323.5939193374386L480.3119708192153,323.5001155519804L480.1829581283462,323.3594036366777L480.05394543747707,323.31249800103586L479.9249327466082,323.3594036366777L479.75291582544946,323.5001155519804L479.62390313458013,323.5939193374386L479.49489044371103,323.7815169347612L479.4088819831318,324.0159952441909L479.3228735225523,324.1097807582854L479.15085660139357,324.3911173983897L479.0648481408143,324.48488964864816L478.89283121965536,324.62554181303716L478.72081429849663,324.6724242122096L478.50579314704805,324.7193057838372L478.4197846864686,324.6724242122096L478.29077199559947,324.6724242122096L478.20476353502045,324.6724242122096L478.0327466138615,324.7193057838372L477.94673815328224,324.7661865280811L477.86072969270276,324.8599455350586L477.86072969270276,325.00057784415804L477.86072969270276,325.14120271546716L477.86072969270276,325.28182015331714L477.86072969270276,325.46929851477654L477.81772546241314,325.5630327459604L477.6457085412542,326.0785121003174L477.5597000806747,326.2659344450156L477.5597000806747,326.40649257098966L477.6457085412542,326.50019387996923L477.73171700183366,326.54704330243794L477.81772546241314,326.50019387996923L477.94673815328224,326.40649257098966L478.1617593047306,326.40649257098966L478.29077199559947,326.31278797555404L478.4197846864686,326.31278797555404L478.50579314704805,326.31278797555404L478.63480583791716,326.40649257098966L478.677810068207,326.50019387996923L478.677810068207,326.68758664368085L478.59180160762753,326.78127810097305L478.5487973773379,326.87496627692906L478.3337762258893,327.10917236936825L478.24776776530985,327.202849070721L478.1617593047306,327.24968619297493L478.0327466138615,327.24968619297493L477.9037339229924,327.202849070721L477.73171700183366,327.24968619297493L477.6457085412542,327.34335798143616L477.60270431096455,327.53069173864804L477.5166958503851,327.6711834693425L477.5166958503851,327.8116678443585L477.5166958503851,327.90532001001026L477.47369162009545,328.04579213514177L477.387683159516,328.1394361381944L477.2586704686471,328.2330768784422L477.21566623835724,328.37353187384554L477.21566623835724,328.5139795351158L477.2586704686471,328.60760723690373L477.3016746989367,328.70123168226667L477.47369162009545,328.74804268418706L477.5597000806747,328.74804268418706L477.6887127715438,328.7948528724796L477.7747212321233,328.7948528724796L478.0757508441511,328.88847080881754L478.11875507444074,328.93527855718196L478.20476353502045,329.16930510733084L478.20476353502045,329.2629100409166L478.11875507444074,329.30971128981656L478.0757508441511,329.403311352627L477.94673815328224,329.403311352627L477.86072969270276,329.403311352627L477.81772546241314,329.54370536175725L477.7747212321233,329.63729731297724L477.6887127715438,329.7308860217897L477.6887127715438,329.7776791606907L477.6887127715438,330.1519951207801L477.6887127715438,330.3391336832864L477.6457085412542,330.5262593143348L477.60270431096455,330.6665950574712L477.47369162009545,330.76014818377865L477.34467892922635,330.8069235366735L477.21566623835724,330.76014818377865L477.1726620080676,330.7133720240971L477.0436493171985,330.61981728374127L476.7856239354603,330.61981728374127L476.74261970517045,330.7133720240971L476.69961547488083,330.8536980829417L476.6136070143016,330.9472447562321L476.57060278401195,331.0407882049194L476.57060278401195,331.13432843027425L476.4845943234325,331.3681648999149L476.35558163256337,331.3681648999149L476.1405604811148,331.3681648999149L476.05455202053554,331.32139921606563L475.92553932966644,331.32139921606563L475.79652663879733,331.32139921606563L475.6245097176386,331.32139921606563L475.4954970267695,331.2746327273357L475.40948856619,331.2746327273357L475.2804758753209,331.2278654335665L475.2374716450313,331.13432843027425L475.2804758753209,331.0407882049194L475.2804758753209,330.90047182274157L475.19446741474167,330.8069235366735L475.06545472387234,330.76014818377865L474.9794462632933,330.7133720240971L474.8504335724242,330.61981728374127L474.7214208815549,330.5262593143348L474.67841665126525,330.4794791183406L474.5063997301065,330.38591630297526L474.3773870392374,330.38591630297526L474.2483743483681,330.38591630297526L474.119361657499,330.43269811460726L473.9903489666301,330.61981728374127L473.8183320454714,330.76014818377865L473.6033108940228,330.8069235366735L473.3882897425742,330.76014818377865L473.13026436083624,330.76014818377865L472.87223897909803,330.8536980829417L472.7002220579391,330.9940168835716L472.52820513678034,331.0875587204341L472.14116706417326,331.32139921606563L471.9261459127247,331.4616938536058L471.7111247612761,331.6019812515024L471.4530993795379,331.69550216352525L471.28108245837916,331.83577750486836L471.0660613069308,331.9760456179877L470.8510401554822,332.256560176677L470.37799362229566,332.7240203212943L469.99095554968835,333.0511948056203L469.73293016795037,333.14466603617905L469.5609132467914,333.23813407193245L469.2598836347636,333.331598914145L469.0018582530254,333.425060564083L468.74383287128717,333.518519023011L468.5288117198386,333.518519023011L468.3997990289697,333.47179019234403L468.31379056839023,333.425060564083L468.227782107811,333.331598914145L468.0127609563624,333.23813407193245L467.84074403520367,333.28486689215225L467.66872711404494,333.331598914145L467.5397144231756,333.425060564083L467.3246932717275,333.47179019234403L467.19568058085815,333.518519023011L467.06666788998905,333.56524705624133L466.9806594294098,333.6119742921933L466.42160443564376,333.7988752663826L466.2495875144848,333.845598518315L466.0775705933261,333.89232097391755L465.9055536721671,333.98576349676506L465.7335367510086,334.07920283618904L465.64752829042914,334.1259213125119L465.3464986784013,334.2193558791697L465.1314775269527,334.17263899345267L465.0024648360836,334.1259213125119L464.83044791492466,334.0324835643259L464.74443945434564,334.0324835643259L464.61542676347653,334.0324835643259L464.27139292115885,333.9390426333482L464.3574013817383,333.6119742921933L464.27139292115885,333.331598914145L464.27139292115885,333.0511948056203L464.40040561202795,332.81750274364157L464.52941830289706,332.7707619324516L464.701435224056,332.63053469844334L464.91645637550437,332.16305853230887L464.87345214521474,331.83577750486836L464.959460605794,331.64874210939894L465.0024648360836,331.32139921606563L465.30349444811145,330.43269811460726L465.3464986784013,330.2923502553814L465.4755113692704,330.10520845842103L465.5615198298499,329.96484361664096L465.6045240601395,329.7776791606907L465.6045240601395,329.5905017427477L465.7335367510086,328.98208549255554L465.7335367510086,328.74804268418706L465.7335367510086,328.60760723690373L465.7335367510086,328.5139795351158L465.77654098129824,328.37353187384554L465.81954521158787,328.2798960254127L465.81954521158787,328.09261454459846L465.81954521158787,327.99896890966414L465.94855790245697,327.8584943355135L466.0775705933261,327.7648405363843L466.16357905390555,327.6711834693425L466.3355959750643,327.4838595264098L466.63662558709234,327.24968619297493L466.93765519911994,327.0154923911561L467.0236636596994,326.96865117282846L467.19568058085815,326.78127810097305L467.2816890414374,326.68758664368085L467.3676975020171,326.59389190377277L467.6257228837551,326.40649257098966L467.7977398049138,326.359640684159L467.8837482654933,326.31278797555404L468.0127609563624,326.21908009238246L468.0987694169419,326.21908009238246L468.18477787752136,326.2659344450156L468.3567947986801,326.31278797555404L468.48580748954896,326.31278797555404L468.61482018041806,326.2659344450156L468.6578244107077,326.1722249174953L468.786837101577,325.98479599220184L468.87284556215604,325.89107659186567L468.9158497924461,325.75049131564737L468.95885402273575,325.6098986247267L469.0018582530254,325.5161660426971L469.0448624833152,325.3755609843231L469.3028878650532,325.09432858451765L469.5179090165018,325.00057784415804L469.60391747708127,324.90682379811386L469.77593439824,324.8599455350586L469.9479513193987,324.7661865280811L470.0769640102676,324.7193057838372L470.37799362229566,324.3442300305794L470.50700631316477,324.1566722710453L470.593014773744,324.06288841605453L470.6790232343237,323.969101242534L470.7220274646131,323.82841425719784L470.76503169490275,323.68771979793667L470.89404438577185,323.54701786040977L470.9800528463513,323.453212411989L471.0660613069308,323.3594036366777L471.324086688669,323.2655915331888L471.4961036098275,323.2186842329755L471.6681205309867,323.1717761002354L471.88314168243505,323.1717761002354L472.0551586035938,323.1248671348069L472.1841712944629,323.03104670524215L472.27017975504236,322.9372229429936L472.31318398533176,322.79648104802175L472.27017975504236,322.5618945413986L472.14116706417326,322.32728716523775L471.7971332218556,322.09265889939513L471.6251163006966,321.8580097237182L471.6681205309867,321.67027531454784L471.75412899156595,321.5294657108605L471.88314168243505,321.4825274998547L472.01215437330416,321.3886485622088L472.14116706417326,321.2947662693086L472.35618821562184,321.2008806198624L472.5712093670702,321.10699161257753L472.7002220579391,320.91920351932424L472.9152432093879,320.77835362544715L473.0872601305466,320.7314019792091L473.25927705170534,320.6844494918964L473.5173024334433,320.6374961633461L473.64631512431265,320.5905419933981L473.861336275761,320.5905419933981L474.20537011807846,320.4496744335442L474.29137857865794,320.4027168963842L474.42039126952704,320.26183923101536L474.76442511184473,319.8861283663674L474.8504335724242,319.7452228707904L474.9794462632933,319.60430977495827L475.06545472387234,319.46338907449945L475.1514631844518,319.32246076504055L475.45249279647965,318.9466147069867L475.4954970267695,318.8056584604237L475.581505487349,318.5707144263789L475.6245097176386,318.3357491792091L475.667513947928,318.19475984016765L475.7535224085075,318.1007626986268L475.92553932966644,317.81875086524883L476.0115477902457,317.67773346059386L476.1835647114044,317.53670839144564L476.31257740227375,317.44268741846105L476.44159009314285,317.3016495654043L476.44159009314285,317.0195508263041L476.31257740227375,316.54931793281827L476.31257740227375,316.455261093154L476.22656894169427,316.31416941444763L476.1405604811148,316.22010401393624L475.96854355995606,315.7967672883894L475.8825350993768,315.56155019197894L475.83953086908696,315.3263116221303L475.83953086908696,315.1381052916702L475.83953086908696,314.99694151013097L475.79652663879733,314.76165132079905L475.667513947928,314.43220885922415L475.581505487349,314.2439370447874L475.5385012570591,314.00857784652527L475.40948856619,313.6790386625834L475.32348010561054,313.30237052065627L475.2374716450313,312.8314573228707L475.19446741474167,312.59596816837916L475.19446741474167,312.3133524961884L475.2374716450313,312.12492464571665L475.32348010561054,311.88937023652716L475.45249279647965,311.7480271318793L475.581505487349,311.653794034738L475.6245097176386,311.5595574474956L475.6245097176386,311.3710737974509L475.4954970267695,311.1354495796608L475.3664843359004,310.9940645583035L475.2374716450313,310.80553894815415L475.2374716450313,310.5698622358289L475.2804758753209,310.3813050934219L475.40948856619,310.14558893244174L475.40948856619,310.05129632467583L475.32348010561054,309.8155494352954L475.2374716450313,309.7683974212494L475.1514631844518,309.6740907556689L475.06545472387234,309.5326241611042L474.93644203300323,309.39114964714895L474.8934378027136,309.3439897151962L474.7214208815549,309.2968289026512L474.54940396039615,309.24966720934964L474.5063997301065,309.1553411798149L474.46339549981667,309.0138455257097L474.46339549981667,308.8723419358791L474.46339549981667,308.73083040586545L474.42039126952704,308.63648497244174L474.119361657499,308.4949601988811L474.03335319691973,308.44778350745304L473.861336275761,308.5421360067451L473.6893193546023,308.5893109312103L473.5603066637332,308.5893109312103L473.43129397286407,308.4949601988811L473.43129397286407,308.25906790279805L473.4742982031537,307.97596796079966L473.5603066637332,307.5984517838797L473.6033108940228,307.45686859143797L473.6893193546023,307.2208788577771L473.7323235848919,307.0320710872949L473.7323235848919,306.7488327674684L473.7323235848919,306.5599894293814L473.7323235848919,306.04059676380325L473.7323235848919,305.85169994994885L473.6893193546023,305.71001796532636L473.6033108940228,305.5210961449965L473.6033108940228,305.37939539331023L473.6033108940228,305.1904485339482L473.7323235848919,304.8597570598019L473.6893193546023,304.4345177636358L473.64631512431265,304.2454991846094L473.64631512431265,304.0564662296979L473.4742982031537,303.8201548037293L473.25927705170534,303.6783571495762L472.9582474396775,303.6783571495762L472.65721782764945,303.7728898192262L472.39919244591147,303.8201548037293L472.35618821562184,303.7728898192262L472.35618821562184,303.2529155425302L472.22717552475274,303.016527532197L472.0551586035938,302.8746838934026L471.7111247612761,302.6855463943034L471.28108245837916,302.6382597599561L470.9800528463513,302.5436837786043L470.7220274646131,302.5436837786043L470.46400208287514,302.3072279936004L470.37799362229566,302.21263934344034L470.37799362229566,301.928851651604L470.50700631316477,301.5977247550998L470.6790232343237,301.36117831142195L470.8080359251928,301.17192480127903L470.8080359251928,300.98265674156977L470.6790232343237,300.7933741215739L470.63601900403387,300.55675035483847L470.6790232343237,300.32010379994455L470.8080359251928,300.2254387926068L471.0230570766412,300.0834344359285L471.1950739977999,299.9414218604163L471.324086688669,299.8467422418182L471.5391078401176,299.6573720347627L471.75412899156595,299.42063869360186L471.88314168243505,299.2312355416973L472.01215437330416,299.1365284690558L472.14116706417326,299.1365284690558L472.31318398533176,299.3259389494311L472.4852009064907,299.5153347755542L472.7002220579391,299.75205896704813L472.87223897909803,299.9414218604163L472.87223897909803,300.1781049199714L472.9152432093879,300.36743493498204L473.0872601305466,300.41476515782233L473.2162728214155,300.41476515782233L473.3882897425742,300.27277175254227L473.5603066637332,300.27277175254227L473.77532781518175,300.32010379994455L474.07635742720936,300.27277175254227L474.3773870392374,300.1781049199714L474.54940396039615,300.2254387926068L474.7214208815549,300.32010379994455L474.93644203300323,300.5094228675832L475.19446741474167,300.93533745201654L475.32348010561054,301.02997512110454L475.5385012570591,300.93533745201654L475.7535224085075,300.74605119027336L475.96854355995606,300.55675035483847L476.1405604811148,300.55675035483847L476.2695731719839,300.65140259493774L476.3985858628532,300.7933741215739L476.44159009314285,301.0772925907902L476.82862816574993,301.7396417258737L477.0436493171985,302.1653436599433L477.34467892922635,302.49639443126625L477.47369162009545,302.7801169511775L477.5166958503851,303.1110854436446L477.6457085412542,303.3947375234788L477.7747212321233,303.44200971392013L477.98974238357187,303.30019043795056L478.1617593047306,303.1110854436446L478.29077199559947,302.8746838934026L478.677810068207,302.44910417926366L478.89283121965536,302.25993412127L479.1938608316832,302.1653436599433L479.4088819831318,302.25993412127L479.66690736487,302.44910417926366L479.9249327466082,302.6382597599561L480.225962358636,302.7801169511775L480.52699197066386,302.8746838934026L480.8280215826917,302.96924722231546L481.0860469644299,303.20563974511754L481.1720554250094,303.3474644315441L481.1720554250094,303.5838208779572L481.1720554250094,303.8201548037293L481.1290511947195,304.10372581674767L481.1720554250094,304.2927551766891L481.2580638855886,304.3400102704422L481.4730850370372,304.2927551766891L481.68810618848556,304.2454991846094L481.90312733993414,304.0564662296979L482.03214003080325,303.91468207292684L482.16115272167235,303.8201548037293L482.2901654125412,303.63108946409596L482.46218233369996,303.53655139099266L482.67720348514854,303.48928100303596L482.8492204063075,303.44200971392013L483.0212373274662,303.3947375234788L483.1072457880457,303.30019043795056L483.1072457880457,303.016527532197L483.1502500183351,302.8274008740375L483.1502500183351,302.59097222144493L483.1502500183351,302.4018130224302L483.2792627092042,302.11804707061225L483.32226693949406,301.83424850274815L483.3652711697837,301.50310890232356L483.3652711697837,301.2192395424175L483.2792627092042,300.98265674156977L483.1072457880457,300.7933741215739L482.8922246365971,300.65140259493774L482.46218233369996,300.65140259493774L480.8280215826917,300.74605119027336L479.9249327466082,300.65140259493774L479.62390313458013,300.46209446863344L479.3228735225523,300.32010379994455L478.89283121965536,300.0360978241854L478.72081429849663,299.89408250805485L478.63480583791716,299.75205896704813L478.50579314704805,299.46798719227127L478.5487973773379,299.0418177301627L478.50579314704805,298.4261084695394L478.72081429849663,297.90500240592576L478.84982698936574,297.4785600249125L479.0218439105247,297.14683096619876L479.0648481408143,296.815056649265L479.0648481408143,296.3884230752964L478.9788396802346,296.05654509353474L478.677810068207,295.6772003168057L478.5487973773379,295.2977960920467L478.5487973773379,294.9657685612911L478.63480583791716,294.5388089517102L478.8068227590759,294.2541272372796L478.9358354499452,293.82704161197324L478.89283121965536,293.5897390860423L478.8068227590759,293.30494515398607L478.59180160762753,293.1625355359604L478.4197846864686,293.2100063462739L478.24776776530985,293.2574762188926L478.1617593047306,293.11506378778233L478.11875507444074,292.78273527603034L478.0757508441511,292.49784563836874L477.9037339229924,292.2604117517591L477.6457085412542,292.21292215182416L477.47369162009545,292.1654316106205L477.5597000806747,291.73797435460085L477.81772546241314,291.26293226012194L477.94673815328224,290.6927570342114L477.94673815328224,290.0273802789466L477.9037339229924,289.3618174961579L477.6457085412542,288.6960682162155L477.4306873898056,288.1252771833282L477.4306873898056,287.79225219423654L477.6457085412542,287.1736527369532L477.7747212321233,286.93568671593687L477.94673815328224,286.93568671593687L478.11875507444074,287.03087600395L478.29077199559947,287.3164208352638L478.8068227590759,287.69709358534686L479.1938608316832,287.69709358534686L479.5808989042905,287.6495128447087L479.7959200557391,287.55434849018695L479.8389242860285,287.2212430622375L479.7099115951594,286.74529661529L479.75291582544946,286.3644702769613L479.8389242860285,286.2692540724621L480.0969496677669,286.0311967112864L480.5699962009537,285.84073347961873L480.91403004327094,285.6502548202413L481.1720554250094,285.5550097017129L481.43008080674736,285.2216213719053L481.7741146490648,284.79290963911257L481.90312733993414,284.3641194959658L481.94613157022377,284.03056176101234L481.7311104187752,283.4109711476932L481.68810618848556,282.8388954025035L481.8601231096443,282.45743358077937L482.0751442610929,282.218988211135L482.37617387312093,282.0282143235852L482.8492204063075,282.0282143235852L483.45127963036316,282.17129620575497L484.18235154528793,282.4097464605728L485.6874996054273,282.3143692899234L486.031533447745,282.17129620575497L486.50457998093134,281.88512363872513L486.7196011323799,281.7897249561188L486.8916180535389,281.7897249561188L487.02063074440775,281.98051840694023L487.02063074440775,282.17129620575497L486.9776265141181,282.505119724472L487.0636349746976,282.8388954025035L487.2786561261462,283.0296029047887L487.9237195804915,283.1726232993548L488.56878303483677,283.1726232993548L489.2138464891823,283.1726232993548L489.6868930223691,283.0296029047887L489.94491840410706,282.7912160895507L490.2459480161351,282.2666792391338L490.33195647671437,282.0282143235852L490.33195647671437,281.6466195896837L490.33195647671437,281.26496216990023L490.3749607070042,281.07410992498114L490.46096916758347,280.8832419751979L490.7189945493219,280.6446349360325L490.8910114704804,280.5014589164757L491.06302839163936,280.07187772223546L491.0200241613495,279.7854459327046L491.106032621929,279.4512306341675L491.2350453127981,279.0692110406658L491.40706223395705,278.87817751644343L491.5360749248257,278.7826548175725L491.7510960762743,278.7348919833354L492.5251722214889,279.21247580000625L492.7831976032271,279.4034816429943L492.95521452438584,279.4512306341675L493.1702356758342,279.2602287428472L493.1702356758342,278.9259373814269L492.95521452438584,278.4005244110576L492.3531553003302,277.3493383862781L492.18113837917144,277.0147691840318L492.1381341488818,276.7757612937737L492.4391637609094,276.1542240422502L492.82620183351696,275.5803474224457L493.08422721525494,275.0063265613462L493.25624413641367,274.67141432666614L493.3852568272828,274.43216115478987L493.47126528786225,274.336452845957L493.68628643931083,274.2885971822461L493.9013075907592,274.38430750341286L494.07332451191814,274.48001380026477L494.3313498936561,274.48001380026477L494.4173583542356,274.38430750341286L494.58937527539433,274.0971644613256L494.6753837359738,273.90571562621335L494.5463710451045,273.4748967711873L494.58937527539433,273.283395486928L494.7613921965533,273.0918780404464L495.01941757829127,273.0439961521532L495.1484302691604,272.9482293423222L495.2774429600295,272.756683584729L495.2774429600295,272.46933458228506L495.19143449945,272.22984922036613L495.19143449945,271.99033850767506L495.2774429600295,271.89452711942323L495.4494598811882,271.89452711942323L495.5784725720571,271.8466199024788L495.7074852629264,271.70289215824937L495.7074852629264,271.6070685824924L495.7074852629264,271.41540923354506L495.62147680234716,271.3195734575177L495.62147680234716,271.1278896952576L495.6644810326368,270.984116184045L495.79349372350566,270.7924039072905L495.8364979537955,270.6486089971574L495.8364979537955,270.4568681711043L495.8364979537955,270.2651110155314L495.6644810326368,270.1212824257607L495.5354683417677,269.92949666615044L495.3634514206087,269.83359765175084L495.2774429600295,269.6417873466462L495.19143449945,269.3540411768644L494.9764133480014,268.92235274378027L494.89040488742194,268.6345142799849L494.933409117712,268.44260142594794L495.01941757829127,268.2506721227193L495.2344387297396,268.15470129908897L495.49246411147806,268.1067143436442L495.75048949321604,268.1067143436442L495.9655106446646,268.1067143436442L496.2235360264028,268.1067143436442L496.180531796113,267.91475622684123L495.8364979537955,267.4827901893644L495.6644810326368,267.2427729581346L495.6644810326368,266.95471820483726L495.8364979537955,266.47454424107747L496.180531796113,265.9942667367809L496.5675698687203,265.4658416788053L496.91160371103797,265.22560691813925L497.7286840865422,265.12950573464633L498.02971369857005,265.12950573464633L498.33074331059765,265.03340038943924L498.54576446204624,264.93729088108245L498.71778138320497,264.6969988869701L499.0188109952328,264.45668084171064L499.27683637697123,264.21633672282337L499.57786598899906,263.9759665078169L499.7928871404474,263.83173184331605L499.9218998313165,263.83173184331605L500.09391675247525,263.78365153148513L500.3949463645033,263.6874877712485L500.6529717462413,263.5432342867515L500.9109971279795,263.39897138495945L501.1260182794281,263.25469906100557L501.4270478914559,263.2066061916992L501.64206904290427,263.1585122747645L501.9000944246427,263.1585122747645L502.0291071155116,263.0623212972899L502.1581198063807,263.0142242363896L502.28713249725,262.8218255074853L502.37314095782904,262.67751544618886L502.4591494184085,262.38886697917064L502.4591494184085,262.10018068707666L502.4591494184085,261.8114565308752L502.33013672753964,261.522694471512L502.0721113458012,261.3782992159346L501.72807750348375,261.3301653553289L501.4270478914559,261.2338944699112L501.38404366116606,260.99319879004787L501.51305635203516,260.7524767116163L501.77108173377337,260.60803078382173L502.1581198063807,260.46357533949424L502.4161451881189,260.5598800266805L503.1472171030439,260.8006232402749L503.7062720968099,261.13761936434497L504.00730170883753,261.71520672447883L504.1793186299965,262.1482976974898L504.39433978144484,262.5813034908939L504.78137785405215,262.8218255074853L505.3834370781078,263.0623212972899L505.89948784158423,263.25469906100557L506.15751322332244,263.39897138495945L506.5015470656401,263.5432342867515L506.80257667766796,263.59131982770964L507.14661051998564,263.4951476994272L507.4906443623031,263.4951476994272L507.92068666520004,263.5432342867515L508.1357078166484,263.4470600655567L508.47974165896585,263.3027908828642L508.7377670407043,263.0623212972899L509.12480511331137,262.5813034908939L509.21081357389085,262.38886697917064L509.6408558767878,262.29264241985265L510.0278939493951,262.10018068707666L510.24291510084345,261.9077021258087L510.5009404825819,261.8595798546842L510.71596163403,261.95582334442975L510.9739870157682,262.0520626248826L511.3180208580859,262.1482976974898L511.53304200953426,262.1482976974898L511.8340716215621,262.19641365630275L512.006088542721,262.29264241985265L512.3931266153284,262.3407552249506L512.8231689182253,262.29264241985265L513.167202760543,262.10018068707666L513.4682323725708,261.95582334442975L513.6832535240192,261.9077021258087L513.8122662148883,261.8114565308752L513.8982746754677,261.76333215419993L514.0272873663369,261.71520672447883L514.2423085177852,261.66708024153036L514.3283169783647,261.66708024153036L514.4573296692336,261.71520672447883L514.5863423601029,261.76333215419993L514.7583592812616,261.9077021258087L514.8873719721307,262.0039435107271L514.97338043271,262.10018068707666L515.1023931235791,262.10018068707666L515.2314058144482,262.0520626248826L515.3174142750277,262.0520626248826L515.4034227356071,261.95582334442975L515.5754396567659,261.76333215419993L515.6614481173451,261.66708024153036L515.7904608082142,261.57082411522794L515.962477729373,261.6189527051738L516.0484861899524,261.71520672447883L516.1774988808215,261.76333215419993L516.3065115716906,261.76333215419993L516.521532723139,261.76333215419993L516.6505454140081,261.76333215419993L516.7795581048772,261.71520672447883L516.8655665654567,261.6189527051738L517.0375834866154,261.4745637738453L517.1665961774845,261.3782992159346L517.3816173289329,261.3301653553289L517.6396427106713,261.2820304400482L517.7686554015402,261.2820304400482L517.8976680924093,261.3782992159346L517.8976680924093,261.4745637738453L517.8546638621197,261.71520672447883L517.8546638621197,261.8595798546842L517.8546638621197,262.0039435107271L517.8976680924093,262.1482976974898L517.9406723226991,262.29264241985265L517.9406723226991,262.4369776826946L517.9406723226991,262.5813034908939L517.9406723226991,262.72561984932656L517.9406723226991,262.8699267628673L517.9836765529888,263.0623212972899L518.0266807832786,263.3027908828642L518.1986977044373,263.5432342867515L518.2847061650166,263.59131982770964L518.3707146255961,263.6874877712485L518.3707146255961,263.83173184331605L518.3277103953064,263.9759665078169L518.2847061650166,264.1682647682314L518.2847061650166,264.31247750065256L518.1556934741473,264.64893736272893L517.9836765529888,264.7450593691649L517.8116596318298,264.9853461557449L517.6826469409609,265.1775568465172L517.5536342500918,265.3697508933096L517.4246215592225,265.6580107811772L517.3816173289329,265.9462332847222L517.1665961774845,266.28244567425673L516.9945792563258,266.85869168673054L516.8655665654567,267.4347888071272L516.7365538745876,267.7707768244602L516.822562335167,267.8187709889234L516.9085707957463,267.8187709889234L517.3386130986435,267.33878294699775L517.5966384803814,267.1947664149812L517.7256511712505,267.14675883910763L517.8546638621197,267.14675883910763L517.9406723226991,267.2427729581346L517.9836765529888,267.29077846874725L518.1126892438576,267.4827901893644L518.2417019347267,267.57878985907684L518.3277103953064,267.7707768244602L518.4997273164649,267.91475622684123L518.628740007334,267.96274730065323L518.8867653890725,267.96274730065323L519.1447907708105,267.91475622684123L519.4888246131281,267.86676412299084L519.7468499948661,267.8187709889234L519.9618711463147,267.72278162942274L520.0908838371838,267.72278162942274L520.2629007583428,267.72278162942274L520.4349176795013,267.62678814690975L520.6499388309501,267.57878985907684L520.8649599823982,267.5307905399545L521.0369769035572,267.4347888071272L521.5530276670333,267.1947664149812L521.7680488184819,267.09875023033567L522.1550868910892,266.7626610327338L522.5851291939862,266.4265211529282L522.8001503454345,266.33047186969685L523.0151714968831,266.33047186969685L523.2731968786213,266.4265211529282L523.8322518723874,266.7146441543286L524.434311096443,266.9067054626808L525.595425314265,267.29077846874725L526.0254676171617,267.3867863930646L527.0575691441145,267.72278162942274L527.3155945258527,267.7707768244602L527.6166241378805,267.7707768244602L527.7886410590395,267.67478540363214L527.8746495196187,267.62678814690975L527.960657980198,267.57878985907684L528.132674901357,267.4347888071272L528.2616875922258,267.29077846874725L528.3907002830949,267.1947664149812L528.5197129739643,267.09875023033567L528.6487256648331,267.0507405884859L528.7347341254126,267.0507405884859L528.7777383557022,267.14675883910763L528.8637468162817,267.33878294699775L528.949755276861,267.4347888071272L528.9927595071506,267.57878985907684L528.9927595071506,267.72278162942274L528.8637468162817,267.8187709889234L528.7347341254126,267.91475622684123L528.6057214345435,267.91475622684123L528.4767087436744,268.01073734460516L528.3907002830949,268.20268722538725L528.3476960528053,268.2986559912627L528.2616875922258,268.44260142594794L528.1756791316468,268.4905811811228L528.0466664407775,268.5865376079628L527.960657980198,268.6824899246452L527.960657980198,268.92235274378027L528.0466664407775,269.3540411768644L528.2186833619362,269.68974145790526L528.3907002830949,269.88154767031523L528.7777383557022,270.02539159034615L529.0357637374407,270.02539159034615L529.3367933494683,269.92949666615044L529.8528441129449,269.68974145790526L530.239882185552,269.2581175913395L530.7559329490284,268.6824899246452L531.0569625610563,268.05872635887613L531.2719837125046,267.57878985907684L531.3579921730841,267.14675883910763L531.4440006336636,266.85869168673054L531.6160175548221,266.4265211529282L531.7450302456912,265.8021267035678L531.7020260154015,265.6580107811772L531.5300090942428,265.4658416788053L531.3579921730841,265.27365594969234L531.2719837125046,265.03340038943924L531.4009964033737,264.7450593691649L531.5730133245324,264.64893736272893L531.7450302456912,264.60087479626253L531.9170471668501,264.45668084171064L531.9600513971398,264.408614104543L532.0460598577192,264.408614104543L532.0460598577192,264.26440763357033L532.0460598577192,264.07211772679375L531.9170471668501,263.9759665078169L531.7450302456912,263.9759665078169L531.6590217851119,263.83173184331605L531.6590217851119,263.6874877712485L531.6590217851119,263.39897138495945L531.6590217851119,263.1585122747645L531.6590217851119,262.8218255074853L531.6160175548221,262.4369776826946L531.5300090942428,262.10018068707666L531.4870048639532,261.66708024153036L531.3579921730841,261.3301653553289L531.1859752519254,261.1857574447371L530.9709541004768,261.0894802285534L530.8419414096077,260.99319879004787L530.798937179318,260.8006232402749L530.8849456398973,260.7043291261083L530.9279498701869,260.7043291261083L531.0569625610563,260.7043291261083L531.1859752519254,260.7043291261083L531.4009964033737,260.65618048357106L531.6160175548221,260.51172821196496L531.6590217851119,260.36726642056203L531.7450302456912,260.1746358816547L531.788034475981,260.0301518583455L531.8740429365605,259.933823878595L532.0030556274296,259.933823878595L532.1320683182987,260.0301518583455L532.2610810091676,260.1746358816547L532.5621106211956,260.60803078382173L532.8631402332232,260.9450564869716L532.9921529240926,261.1857574447371L533.2071740755409,261.3301653553289L533.33618676641,261.3782992159346L533.5082036875688,261.3782992159346L533.6802206087277,261.4264320220465L533.8952417601758,261.4264320220465L534.0242544510452,261.3782992159346L534.1102629116247,261.3782992159346L534.325284063073,261.3782992159346L534.4112925236525,261.4264320220465L534.5833094448112,261.6189527051738L534.6263136751011,261.71520672447883L534.7553263659702,261.8114565308752L534.9273432871287,261.8595798546842L535.1423644385773,261.9077021258087L535.3143813597362,261.95582334442975L535.5294025111846,262.0039435107271L535.6584152020537,262.0039435107271L535.7874278929226,262.10018068707666L535.9164405837919,262.29264241985265L536.1744659655299,262.5331959383758L536.6905167290063,263.2066061916992L536.7765251895858,263.3027908828642L536.9055378804549,263.39897138495945L537.0775548016136,263.4951476994272L537.2495717227725,263.6394043224822L537.3785844136416,263.73557017418955L537.4645928742209,263.73557017418955L537.6796140256693,263.73557017418955L537.8946351771178,263.73557017418955L538.1096563285664,263.73557017418955L538.3246774800148,263.73557017418955L538.4966944011735,263.73557017418955L538.6687113223325,263.73557017418955L538.8407282434912,263.73557017418955L539.0127451646499,263.73557017418955L539.1417578555188,263.78365153148513L539.2277663160983,263.83173184331605L539.4857916978365,263.9278893313015L539.6148043887056,264.02404263958783L539.7438170795747,264.1682647682314L539.958838231023,264.26440763357033L540.1738593824716,264.408614104543L540.3888805339202,264.5047465359331L540.5608974550792,264.60087479626253L540.6469059156582,264.64893736272893L540.7759186065273,264.7450593691649L540.9909397579759,264.793118809494L541.5499947517419,265.03340038943924L541.8510243637697,265.1775568465172L541.8080201334801,265.4658416788053L541.8940285940594,265.7540891009252L541.9800370546388,265.9462332847222L542.0660455152183,266.13836087048753L542.1520539757978,266.37849702919436L542.238062436377,266.61860729381056L542.3670751272462,266.7626610327338L542.4960878181153,266.8106768768077L542.6251005089844,266.85869168673054L542.7541131998535,266.7146441543286L542.7971174301431,266.6666262414144L542.969134351302,266.6666262414144L543.1411512724605,266.7146441543286L543.3131681936197,266.8106768768077L543.4851851147782,266.9067054626808L543.6572020359372,267.0507405884859L543.7432104965164,267.1947664149812L543.8292189570957,267.29077846874725L544.044240108544,267.3867863930646L544.3022654902825,267.4347888071272L544.3882739508617,267.4827901893644L544.8183162537587,267.4827901893644L544.9903331749176,267.5307905399545L545.1623500960764,267.57878985907684L545.3343670172351,267.62678814690975L545.4633797081044,267.67478540363214L545.506383938394,267.72278162942274L545.764409320132,268.01073734460516L545.8504177807115,268.1067143436442L545.9794304715806,268.20268722538725L546.1084431624497,268.3466388311969L546.2374558533188,268.3946206426988L546.4524770047672,268.44260142594794L546.5384854653466,268.5385599084016L546.5814896956363,268.6824899246452L546.5814896956363,268.8264106962473L546.4094727744775,269.0182906861493L546.3234643138983,269.16218990564107L546.2374558533188,269.40200143250706L546.1944516230292,269.59383221176773L546.1084431624497,269.7856466102795L546.0654389321599,270.0733375190622L546.2374558533188,270.2651110155314L546.3664685441879,270.3609916352188L546.6244939259259,270.55274062460984L546.753506616795,270.6965416535158L546.8825193076643,270.88826208366L547.0115319985332,271.1278896952576L547.0975404591127,271.1278896952576L547.1405446894023,271.1758121625418L547.2265531499818,271.07996620986563L547.2695573802714,270.984116184045L547.2695573802714,270.7924039072905L547.3985700711405,270.5048049080662L547.4845785317198,270.3609916352188L547.6135912225891,270.3130518359396L547.7856081437478,270.2651110155314L547.8286123740374,270.16922631062016L547.9146208346169,270.1212824257607L548.0436335254858,269.92949666615044L548.0866377557759,269.7856466102795L548.1726462163549,269.6417873466462L548.2586546769344,269.4979188704433L548.4306715980933,269.44996066364075L548.6456927495417,269.44996066364075L549.032730822149,269.6417873466462L549.1617435130181,269.68974145790526L549.4197688947561,269.68974145790526L549.591785815915,269.7856466102795L549.7207985067841,269.83359765175084L549.8498111976533,269.88154767031523L549.9788238885221,269.92949666615044L550.0648323491016,270.02539159034615L550.1078365793912,270.21716917381787L550.1078365793912,270.4568681711043L550.021828118812,270.7924039072905L549.9358196582325,271.03204170618665L549.7638027370738,271.3674918541418L549.7638027370738,271.5591552702005L549.8068069673636,271.6549808784498L549.8928154279429,271.75080242206946L550.021828118812,271.8466199024788L550.1508408096811,271.9424333210956L550.4088661914193,271.99033850767506L550.6668915731573,271.99033850767506L551.010925415475,272.134047978622L551.1829423366339,272.1819491065981L551.3549592577924,272.22984922036613L551.6129846395306,272.22984922036613L552.0430269424276,272.37354347819354L552.2580480938759,272.4214395369008L552.4730692453247,272.5172286145237L552.6020819361936,272.61301364027287L552.6880903967731,272.756683584729L552.7740988573526,273.13975891789374L552.7740988573526,273.4748967711873L552.8171030876422,273.7621184181459L552.8171030876422,273.9535793463146L552.7740988573526,274.24074051210397L552.8171030876422,274.5278654400134L552.9461157785111,274.9106423730184L553.1181326996702,275.1498453158706L553.3331538511186,275.34118961042594L553.5051707722773,275.4368557416682L553.2901496208287,275.5325178640965L553.1611369299599,275.5325178640965L553.1181326996702,275.5803474224457L552.9461157785111,275.5803474224457L552.7740988573526,275.676003534294L552.5160734756143,275.77165564084765L552.4300650150349,275.8194801925787L552.1720396332969,275.9629478436984L552.0430269424276,276.10640649240025L552.0430269424276,276.2020405925352L552.0430269424276,276.34548424775204L551.9570184818483,276.34548424775204L551.8710100212688,276.24985614342967L551.8280057909792,276.2020405925352L551.7419973303997,276.05858794280863L551.6559888698202,276.0107683933L551.4839719486615,275.9151262938282L551.4409677183721,275.9151262938282L551.3979634880823,275.9629478436984L551.3979634880823,276.05858794280863L551.4839719486615,276.2020405925352L551.5269761789516,276.24985614342967L551.4409677183721,276.29767069511036L551.3119550275028,276.39329680153094L551.2689507972132,276.34548424775204L551.0539296457648,276.34548424775204L550.9679211851853,276.29767069511036L550.7959042640264,276.2020405925352L550.6238873428676,276.1542240422502L550.5378788822884,276.1542240422502L550.3658619611297,276.1542240422502L550.2798535005502,276.24985614342967L550.1078365793912,276.29767069511036L549.9788238885221,276.39329680153094L549.6777942764945,276.4411083566229L549.4627731250459,276.4889189132032L549.2047477433077,276.53672847144736L549.0757350524386,276.53672847144736L548.8607139009903,276.5845370315312L548.6886969798313,276.6323445936303L548.5166800586726,276.7757612937737L548.3876673678035,276.8713674404968L547.9576250649066,277.1581619599192L547.7856081437478,277.30154577289346L547.5705869922992,277.3971300044853L547.3985700711405,277.4927102560666L547.1405446894023,277.63607317398663L546.9685277682436,277.731643481677L546.7105023865054,277.9705518628892L546.5814896956363,278.11388497541265L545.9794304715806,278.5915975393189L545.8504177807115,278.7348919833354L545.7214050898424,278.9259373814269L545.6353966292631,279.11696694909045L545.2913627869455,279.68996078131903L544.8183162537587,280.4537316095682L544.044240108544,281.6466195896837L543.8292189570957,282.218988211135L543.8292189570957,282.3620583636788L543.8292189570957,282.6481722982011L543.8292189570957,282.9342511032046L543.8292189570957,283.12495080864323L543.9152274176754,283.4586377975298L544.1732527994134,284.12586882238077L544.3022654902825,284.411766721238L544.4312781811516,284.6499883098787L544.5172866417308,284.79290963911257L544.6032951023103,285.0787261654619L544.6462993326002,285.1263588677053L544.6893035628896,285.3168800102058L544.7753120234693,285.4597607221178L544.9903331749176,285.79311526155357L545.3773712475249,286.50728736661944L545.8074135504219,287.1260614522581L545.764409320132,287.3164208352638L545.764409320132,287.41159477271265L545.7214050898424,287.6019311463794L545.7214050898424,287.74467336846544L545.7214050898424,287.9349829291819L545.6784008595528,288.0301319688897L545.5923923989735,288.07770505418154L545.5493881686834,288.1252771833282L545.4203754778146,288.1728483565013L545.3343670172351,288.1728483565013L545.2483585566558,288.1252771833282L545.1193458657867,288.07770505418154L544.9903331749176,288.07770505418154L544.8183162537587,288.1252771833282L544.7323077931792,288.1252771833282L544.5602908720207,288.1252771833282L544.4742824114412,288.1252771833282L544.3452697205721,288.1252771833282L544.216257029703,288.26798783561236L544.1302485691235,288.31555614189375L543.9152274176754,288.45825532970093L543.8722231873855,288.55338334742316L543.8292189570957,288.6960682162155L543.8292189570957,288.7911866922157L543.8292189570957,288.9338572548545L543.8292189570957,288.9814122027237L543.9582316479648,289.1240713296973L544.0872443388339,289.2191726521994L544.1732527994134,289.3618174961579L544.2592612599929,289.3618174961579L544.3022654902825,289.2667218853204L544.3452697205721,289.2191726521994L544.4312781811516,289.2191726521994L544.5172866417308,289.2191726521994L544.6462993326002,289.0765192399736L544.6462993326002,288.9338572548545L544.8183162537587,288.83874449977236L544.9473289446278,288.743627931087L545.1193458657867,288.6485075474284L545.3773712475249,288.55338334742316L545.5493881686834,288.5058198158629L545.764409320132,288.5058198158629L545.8934220110011,288.600945924555L546.0654389321599,288.6960682162155L546.1084431624497,288.7911866922157L546.1084431624497,288.9814122027237L546.0654389321599,289.1240713296973L546.0224347018702,289.2191726521994L545.936426241291,289.3142701665827L545.8504177807115,289.40936387421743L545.7214050898424,289.50445377647446L545.5493881686834,289.5995398747222L545.3773712475249,289.6946221703313L545.2483585566558,289.78970066467014L545.205354326366,289.8847753591088L545.205354326366,290.0273802789466L545.2913627869455,290.0749133537589L545.4203754778146,290.0273802789466L545.506383938394,289.9323112817932L545.6784008595528,289.8847753591088L545.8934220110011,289.78970066467014L545.9794304715806,289.6470814977706L546.0654389321599,289.5519973010133L546.1514473927396,289.4569093009322L546.3664685441879,289.3618174961579L546.4524770047672,289.3142701665827L546.7105023865054,289.2191726521994L546.753506616795,289.2191726521994L546.7965108470848,289.3142701665827L546.7965108470848,289.3618174961579L546.753506616795,289.4569093009322L546.6674981562155,289.5519973010133L546.5814896956363,289.6470814977706L546.4524770047672,289.6946221703313L546.3664685441879,289.78970066467014L546.2374558533188,289.9323112817932L546.1084431624497,290.0273802789466L545.9794304715806,290.122445479622L545.8934220110011,290.2175068851858L545.764409320132,290.31256449700703L545.5923923989735,290.4551438044622L545.4203754778146,290.5026683448907L545.3773712475249,290.550191937909L545.2913627869455,290.6927570342114L544.9903331749176,290.88283057590365L544.8183162537587,291.0253757981175L544.6462993326002,291.16791251054894L544.3882739508617,291.35794823098274L544.1302485691235,291.54796884202807L544.0012358782544,291.6904743913427L543.7862147268061,291.73797435460085L543.3991766541988,292.0704477037274L543.3561724239091,292.11794012797844L543.0981470421709,292.3553881285049L542.969134351302,292.49784563836874L542.8401216604329,292.640294686012L542.7541131998535,292.78273527603034L542.6251005089844,293.0201174771504L542.4960878181153,293.2100063462739L542.3670751272462,293.3524131517249L542.238062436377,293.4473463358172L542.1520539757978,293.63720146321924L542.1520539757978,293.73212340924835L542.1520539757978,293.87449931002214L542.1950582060874,294.06432075074963L542.1950582060874,294.2066770170088L542.2810666666669,294.2541272372796L542.4530835878254,294.3015765235915L542.5820962786945,294.3490248761146L542.7111089695636,294.3490248761146L542.7971174301431,294.3015765235915L542.8831258907226,294.15922586261036L542.969134351302,293.92195607275386L542.969134351302,293.82704161197324L543.0121385815917,293.68466290423186L543.0551428118813,293.5897390860423L543.0551428118813,293.4473463358172L543.0551428118813,293.2574762188926L543.0551428118813,293.06759110156855L543.0981470421709,292.92516741301824L543.1841555027504,292.92516741301824L543.22715973304,293.06759110156855L543.2701639633297,293.1625355359604L543.3131681936197,293.2574762188926L543.3131681936197,293.3524131517249L543.3131681936197,293.4473463358172L543.3131681936197,293.542275772529L543.3131681936197,293.73212340924835L543.3131681936197,293.82704161197324L543.3131681936197,293.92195607275386L543.3561724239091,294.06432075074963L543.3561724239091,294.2066770170088L543.3991766541988,294.3015765235915L543.3991766541988,294.4439187804723L543.3991766541988,294.5388089517102L543.3991766541988,294.6336953911841L543.3991766541988,294.72857810025204L543.3991766541988,294.776018056307L543.3131681936197,294.9183323325916L543.2701639633297,294.9657685612911L543.1411512724605,295.01320385857537L543.0551428118813,295.1080716595755L542.969134351302,295.2503663796968L542.969134351302,295.3926527262277L542.7541131998535,295.6772003168057L542.5820962786945,295.9142977633288L542.3670751272462,296.0091302445473L542.1520539757978,296.05654509353474L541.9370328243492,296.1513720091132L541.5499947517419,296.4358305088404L541.4209820608726,296.4832370162147L541.119952448845,296.5780472531284L541.0339439882655,296.67285378739024L540.6899101459483,296.9572511877724L540.4748889944997,297.0520429249346L540.2598678430511,297.19422360129084L540.0878509218924,297.28900610123867L539.9158340007334,297.4311729280997L539.7438170795747,297.5259461992685L539.571800158416,297.57333145133737L539.4857916978365,297.66809918928584L539.3567790069676,297.81024388326705L539.2277663160983,297.95238028576256L539.1417578555188,298.0945084013229L539.0557493949395,298.37873978982907L538.9267367040704,298.71030125287683L538.7977240132013,298.9471033236715L538.7117155526221,299.0418177301627L538.6257070920426,299.1365284690558L538.4536901708836,299.37328927937784L538.3246774800148,299.42063869360186L538.1956647891457,299.5153347755542L538.0666520982768,299.610027196632L537.9806436376973,299.6573720347627L537.8946351771178,299.75205896704813L537.8516309468282,299.89408250805485L537.8086267165384,300.0834344359285L537.8086267165384,300.1781049199714L537.8086267165384,300.27277175254227L537.8516309468282,300.55675035483847L537.7226182559591,300.7933741215739L537.6366097953796,300.8880172522778L537.5506013348001,300.98265674156977L537.2925759530622,301.02997512110454L537.2065674924825,301.02997512110454L537.1205590319034,301.02997512110454L537.034550571324,301.02997512110454L536.9055378804549,301.17192480127903L536.9485421107445,301.26655337437603L536.9055378804549,301.3138662973218L536.9055378804549,301.36117831142195L536.8195294198754,301.45579961375535L536.7335209592961,301.50310890232356L536.4754955775577,301.6450313196426L536.3464828866888,301.78694556789674L536.1314617352402,301.928851651604L535.9594448140815,302.0234511737793L535.7874278929226,302.0707495752799L535.6154109717638,302.11804707061225L535.4003898203155,302.1653436599433L535.2713771294464,302.1653436599433L534.9703475174185,302.1653436599433L534.8413348265494,302.25993412127L534.497300984232,302.44910417926366L534.3682882933626,302.49639443126625L534.067258681335,302.6382597599561L533.8092332995968,302.6855463943034L533.6372163784379,302.7801169511775L533.4221952269895,302.8746838934026L533.2501783058306,302.9219660094398L533.0351571543822,302.96924722231546L532.8201360029339,303.016527532197L532.6481190817749,303.1110854436446L532.4761021606164,303.20563974511754L532.2610810091676,303.30019043795056L532.1320683182987,303.3947375234788L531.9600513971398,303.44200971392013L531.7450302456912,303.53655139099266L531.4870048639532,303.5838208779572L531.228979482215,303.63108946409596L531.0569625610563,303.7256239345639L530.9709541004768,303.7256239345639L530.4549033370006,303.8674188882411L530.1108694946829,303.96194435795394L529.8098398826548,304.0092057434882L529.6378229614963,304.10372581674767L529.3797975797581,304.198242294037L529.2077806585994,304.2454991846094L528.9067510465716,304.3400102704422L528.7347341254126,304.38726446603584L528.5627172042539,304.48177016340924L528.3046918225155,304.5762722701414L528.0896706710671,304.6235219774329L527.9176537499084,304.670770787563L527.70263259846,304.7652657170069L527.5736199075907,304.812511836652L527.4446072167218,304.8597570598019L527.2725902955631,304.95424481728134L527.143577604694,304.95424481728134L526.9715606835352,305.00148735194244L526.7995437623763,305.0487289907733L526.6705310715072,305.09596973394065L526.4985141503485,305.1432095816102L526.3695014594791,305.2849237532949L526.2834929989001,305.33216002063614L526.1974845383206,305.37939539331023L526.1114760777411,305.426629871485L526.0254676171617,305.47386345532453L525.8534506960032,305.47386345532453L525.7674422354237,305.47386345532453L525.6384295445544,305.47386345532453L525.5094168536855,305.426629871485L525.423408393106,305.426629871485L525.3373999325265,305.47386345532453L525.2083872416576,305.5210961449965L525.1223787810782,305.5210961449965L524.9503618599192,305.5683279406666L524.8213491690506,305.61555884250066L524.6923364781812,305.61555884250066L524.606328017602,305.5683279406666L524.5633237873121,305.47386345532453L524.606328017602,305.426629871485L524.6493322478916,305.37939539331023L524.7353407084711,305.37939539331023L524.8213491690506,305.33216002063614L524.86435339934,305.2849237532949L525.0363703204987,305.09596973394065L525.2083872416576,304.95424481728134L525.2943957022369,304.8597570598019L525.3804041628164,304.7180187006988L525.3804041628164,304.6235219774329L525.2943957022369,304.5762722701414L525.165383011368,304.5762722701414L525.0793745507885,304.6235219774329L524.9503618599192,304.6235219774329L524.3052984055739,305.1432095816102L524.1332814844152,305.2849237532949L524.0472730238357,305.33216002063614L523.9612645632565,305.426629871485L523.875256102677,305.47386345532453L523.7892476420977,305.5683279406666L523.7032391815183,305.66278885066527L523.6602349512286,305.66278885066527L523.5742264906492,305.66278885066527L523.5312222603595,305.66278885066527L523.44521379978,305.61555884250066L523.44521379978,305.5683279406666L523.44521379978,305.5210961449965L523.4882180300697,305.426629871485L523.617230720939,305.2849237532949L523.875256102677,305.0487289907733L524.606328017602,304.5762722701414L524.9073576296296,304.48177016340924L524.9933660902091,304.4345177636358L525.0793745507885,304.3400102704422L525.2083872416576,304.2454991846094L525.2083872416576,304.15098450480525L525.2513914719473,303.91468207292684L525.2513914719473,303.7256239345639L525.2513914719473,303.53655139099266L525.2513914719473,303.3947375234788L525.2513914719473,303.30019043795056L525.2083872416576,303.2529155425302L525.2083872416576,303.1110854436446L525.2083872416576,303.016527532197L525.2083872416576,302.8746838934026L525.2513914719473,302.7328321246547L525.2513914719473,302.6382597599561L525.2083872416576,302.59097222144493L525.0363703204987,302.59097222144493L524.9933660902091,302.5436837786043L524.7783449387605,302.49639443126625L524.606328017602,302.44910417926366L524.4773153267329,302.4018130224302L524.434311096443,302.4018130224302L524.2622941752843,302.3545209605981L524.1762857147048,302.3545209605981L524.0902772541253,302.4018130224302L523.9612645632565,302.4018130224302L523.875256102677,302.3545209605981L523.7462434118079,302.3072279936004L523.617230720939,302.3072279936004L523.4882180300697,302.3072279936004L523.4022095694902,302.3545209605981L523.316201108911,302.4018130224302L523.2301926483317,302.49639443126625L523.1871884180418,302.5436837786043L523.1011799574626,302.6382597599561L523.0151714968831,302.8274008740375L522.9721672665935,302.8746838934026L522.8001503454345,303.06380693925075L522.6711376545654,303.2529155425302L522.5421249636966,303.3474644315441L522.4131122728274,303.44200971392013L522.2840995819581,303.48928100303596L522.1980911213791,303.53655139099266L522.1120826607996,303.5838208779572L521.9830699699305,303.6783571495762L521.9400657396407,303.7728898192262L521.8540572790614,303.8674188882411L521.7680488184819,303.91468207292684L521.6820403579025,303.96194435795394L521.5530276670333,303.96194435795394L521.4670192064539,303.91468207292684L521.3810107458748,303.91468207292684L521.2950022852954,303.91468207292684L521.2089938247159,303.96194435795394L521.1229853641364,304.0564662296979L521.0369769035572,304.10372581674767L520.8649599823982,304.2927551766891L520.4779219097911,304.670770787563L520.3919134492116,304.7652657170069L520.348909218922,304.7652657170069L520.2629007583428,304.90700138662294L520.1338880674734,304.95424481728134L520.0908838371838,305.0487289907733L520.0048753766043,305.1904485339482L519.9618711463147,305.5210961449965L519.9618711463147,305.61555884250066L519.9618711463147,305.71001796532636L519.8758626857352,305.80447351480194L519.789854225156,305.85169994994885L519.7468499948661,305.8989254922563L519.7038457645765,305.9933738990173L519.6178373039972,306.0878187364134L519.6178373039972,306.18226000577187L519.4888246131281,306.4183475777167L519.4458203828385,306.51277636939795L519.3598119222588,306.6072015990142L519.2738034616796,306.6544128784625L519.2307992313899,306.70162326789193L519.1447907708105,306.79604137735754L519.1447907708105,306.89045592873686L519.1017865405208,306.98486692335604L519.1017865405208,307.0792743625406L519.0587823102312,307.45686859143797L519.0157780799416,307.5512582733257L518.9727738496517,307.5984517838797L518.8867653890725,307.69283614503547L518.8437611587824,307.7400269959684L518.8437611587824,307.8344060393713L518.800756928493,308.07033814789816L518.7577526982034,308.21188679107183L518.7147484679135,308.25906790279805L518.628740007334,308.3534274732451L518.5857357770444,308.44778350745304L518.5857357770444,308.4949601988811L518.6717442376239,308.5421360067451L518.7147484679135,308.5421360067451L518.800756928493,308.5421360067451L518.8437611587824,308.5893109312103L518.8867653890725,308.6836581306052L518.9727738496517,308.73083040586545L519.0157780799416,308.8251723083372L519.0587823102312,308.8723419358791L519.2307992313899,308.8723419358791L519.2738034616796,308.8251723083372L519.2738034616796,308.73083040586545L519.2738034616796,308.5421360067451L519.3598119222588,308.44778350745304L519.4458203828385,308.4006059322964L519.5748330737076,308.3534274732451L519.7038457645765,308.3534274732451L519.8328584554456,308.3062481301343L519.8758626857352,308.25906790279805L519.9188669160251,308.25906790279805L519.9618711463147,308.21188679107183L519.9618711463147,308.0231534969573L520.0048753766043,307.9287815392598L520.0048753766043,307.88159423217195L520.0908838371838,307.8344060393713L520.1768922977633,307.8344060393713L520.2198965280529,307.8344060393713L520.2629007583428,307.787216960692L520.2629007583428,307.7400269959684L520.2629007583428,307.64564440772835L520.1768922977633,307.5984517838797L520.1338880674734,307.5040638759005L520.0908838371838,307.45686859143797L520.1338880674734,307.4096724197731L520.1768922977633,307.36247536073995L520.2198965280529,307.36247536073995L520.2629007583428,307.3152774141735L520.348909218922,307.2680785799076L520.3919134492116,307.2208788577771L520.4349176795013,307.12647674925915L520.4349176795013,306.98486692335604L520.3919134492116,306.93766187055866L520.348909218922,306.8432490977248L520.348909218922,306.7488327674684L520.3059049886324,306.70162326789193L520.348909218922,306.5599894293814L520.3919134492116,306.51277636939795L520.3919134492116,306.4183475777167L520.4349176795013,306.32391522264373L520.5209261400807,306.27669770842056L520.6069346006602,306.22947930285176L520.6929430612395,306.18226000577187L520.7789515218187,306.1350398170141L520.8649599823982,306.0878187364134L520.9509684429777,306.1350398170141L520.9939726732675,306.18226000577187L521.0799811338468,306.27669770842056L521.1659895944263,306.4183475777167L521.2950022852954,306.51277636939795L521.3810107458748,306.51277636939795L521.510023436744,306.5599894293814L521.596031897323,306.6072015990142L521.639036127613,306.70162326789193L521.596031897323,306.79604137735754L521.5530276670333,306.89045592873686L521.4670192064539,306.98486692335604L521.4240149761642,307.0792743625406L521.3810107458748,307.1736782476161L521.3810107458748,307.2680785799076L521.4670192064539,307.3152774141735L521.5530276670333,307.3152774141735L521.596031897323,307.3152774141735L521.7250445881923,307.2680785799076L521.7680488184819,307.2680785799076L522.1550868910892,307.2208788577771L522.2840995819581,307.12647674925915L522.4131122728274,307.0792743625406L522.4991207334067,307.0320710872949L522.7571461151449,306.89045592873686L523.1871884180418,306.70162326789193L523.4882180300697,306.46556241889823L523.7462434118079,306.3711318456872L524.606328017602,305.9933738990173L525.0363703204987,305.71001796532636L525.2513914719473,305.61555884250066L525.3373999325265,305.61555884250066L525.4664126233959,305.61555884250066L525.5094168536855,305.61555884250066L525.5524210839753,305.71001796532636L525.5094168536855,305.80447351480194L525.3373999325265,305.85169994994885L525.2513914719473,305.8989254922563L524.606328017602,306.22947930285176L523.5312222603595,306.7488327674684L523.0581757271727,306.98486692335604L522.1120826607996,307.45686859143797L520.3919134492116,308.44778350745304L520.047879606894,308.6836581306052L519.9618711463147,308.73083040586545L519.7038457645765,308.9195106811783L519.0157780799416,309.39114964714895L518.7147484679135,309.6740907556689L518.5857357770444,309.8155494352954L518.4567230861753,309.90985082672273L517.8116596318298,310.4284456940614L517.7256511712505,310.475585417899L517.2526046380638,310.75840535731646L517.1235919471947,310.89980350354L516.2205031111112,311.60667617746145L515.9194734990833,311.88937023652716L515.7904608082142,312.0307054958388L515.6614481173451,312.17203291424875L515.5754396567659,312.26624683932044L515.1023931235791,312.7843612294733L514.801363511551,313.0669247668006L514.715355050972,313.2081948206124L514.1993042874956,313.8673519569358L514.1132958269161,313.96150341454177L514.0272873663369,314.10272411767005L513.8552704451781,314.29100629325364L513.7692619845986,314.29100629325364L513.6832535240192,314.29100629325364L513.5972450634397,314.2439370447874L513.5112366028604,314.2439370447874L513.4682323725708,314.1497959571588L513.425228142281,314.10272411767005L513.3822239119913,314.0556514141801L513.2962154514119,314.00857784652527L513.2102069908324,314.0556514141801L513.1241985302531,314.1497959571588L513.0381900696736,314.19686693280994L512.995185839384,314.33807467837283L512.9521816090944,314.43220885922415L512.9521816090944,314.5263395886488L512.995185839384,314.6204668679545L513.1241985302531,314.76165132079905L513.2962154514119,314.90282801823L513.4682323725708,314.9498851947099L513.4682323725708,315.0439969646556L513.425228142281,315.18515816448655Z"></path>
<circle class="distCircs" cx="518.5319212567181" cy="283.82170565289766" r="2.816879094791913" stroke="#000" stroke-width="0.25" fill="#dcefae" data-q="ORISSA" data-r="ANGUL"><title>ORISSA - ANGUL: Census 2011 Total Rural Households = 249,585. Census 2011 Households with toilets = 41,774. Census 2001 Total Rural Households = 195,527. Census 2001 Households with toilets = 17,739. Difference between Census 2011 Households with toilets and Census 2001 Households with toilets = 7.7%</title></circle><circle class="distCircs" cx="495.1727150656348" cy="285.9390642612801" r="2.921963788806625" stroke="#000" stroke-width="0.25" fill="#e7f4b3" data-q="ORISSA" data-r="BALANGIR"><title>ORISSA - BALANGIR: Census 2011 Total Rural Households = 387,345. Census 2011 Households with toilets = 39,149. Census 2001 Total Rural Households = 306,102. Census 2001 Households with toilets = 14,857. Difference between Census 2011 Households with toilets and Census 2001 Households with toilets = 5.3%</title></circle><circle class="distCircs" cx="541.0878985009278" cy="275.9293491277401" r="2.971284580145767" stroke="#000" stroke-width="0.25" fill="#c1e3a1" data-q="ORISSA" data-r="BALESWAR"><title>ORISSA - BALESWAR: Census 2011 Total Rural Households = 473,512. Census 2011 Households with toilets = 107,566. Census 2001 Total Rural Households = 362,365. Census 2001 Households with toilets = 33,589. Difference between Census 2011 Households with toilets and Census 2001 Households with toilets = 13.4%</title></circle><circle class="distCircs" cx="497.10017238552416" cy="276.1448908334588" r="2.8899399202049616" stroke="#000" stroke-width="0.25" fill="#e2f2b1" data-q="ORISSA" data-r="BARGARH"><title>ORISSA - BARGARH: Census 2011 Total Rural Households = 339,364. Census 2011 Households with toilets = 41,802. Census 2001 Total Rural Households = 280,361. Census 2001 Households with toilets = 16,901. Difference between Census 2011 Households with toilets and Census 2001 Households with toilets = 6.3%</title></circle><circle class="distCircs" cx="540.1448509801639" cy="282.1018688130147" r="2.839037307762865" stroke="#000" stroke-width="0.25" fill="#d9eead" data-q="ORISSA" data-r="BHADRAK"><title>ORISSA - BHADRAK: Census 2011 Total Rural Households = 274,191. Census 2011 Households with toilets = 43,944. Census 2001 Total Rural Households = 220,048. Census 2001 Households with toilets = 17,005. Difference between Census 2011 Households with toilets and Census 2001 Households with toilets = 8.3%</title></circle><circle class="distCircs" cx="507.2142586862292" cy="284.0869711349681" r="2.617099989856256" stroke="#000" stroke-width="0.25" fill="#e7f4b3" data-q="ORISSA" data-r="BOUDH"><title>ORISSA - BOUDH: Census 2011 Total Rural Households = 103,239. Census 2011 Households with toilets = 9,283. Census 2001 Total Rural Households = 81,225. Census 2001 Households with toilets = 3,035. Difference between Census 2011 Households with toilets and Census 2001 Households with toilets = 5.3%</title></circle><circle class="distCircs" cx="531.2899669790272" cy="289.97648431919475" r="2.944688721418595" stroke="#000" stroke-width="0.25" fill="#cde8a7" data-q="ORISSA" data-r="CUTTACK"><title>ORISSA - CUTTACK: Census 2011 Total Rural Households = 425,082. Census 2011 Households with toilets = 95,094. Census 2001 Total Rural Households = 352,874. Census 2001 Households with toilets = 40,086. Difference between Census 2011 Households with toilets and Census 2001 Households with toilets = 11.0%</title></circle><circle class="distCircs" cx="513.2335849046202" cy="272.96805871285517" r="2.535253588834489" stroke="#000" stroke-width="0.25" fill="#fbfdbd" data-q="ORISSA" data-r="DEBAGARH"><title>ORISSA - DEBAGARH: Census 2011 Total Rural Households = 70,511. Census 2011 Households with toilets = 4,186. Census 2001 Total Rural Households = 53,981. Census 2001 Households with toilets = 2,741. Difference between Census 2011 Households with toilets and Census 2001 Households with toilets = 0.9%</title></circle><circle class="distCircs" cx="525.8178633999358" cy="286.90069134418684" r="2.820180589825879" stroke="#000" stroke-width="0.25" fill="#e4f3b2" data-q="ORISSA" data-r="DHENKANAL"><title>ORISSA - DHENKANAL: Census 2011 Total Rural Households = 253,118. Census 2011 Households with toilets = 35,980. Census 2001 Total Rural Households = 206,753. Census 2001 Households with toilets = 17,053. Difference between Census 2011 Households with toilets and Census 2001 Households with toilets = 6.0%</title></circle><circle class="distCircs" cx="505.321645838515" cy="310.17000022123545" r="2.636627950786983" stroke="#000" stroke-width="0.25" fill="#ddefae" data-q="ORISSA" data-r="GAJAPATI"><title>ORISSA - GAJAPATI: Census 2011 Total Rural Households = 112,872. Census 2011 Households with toilets = 14,279. Census 2001 Total Rural Households = 101,797. Census 2001 Households with toilets = 5,211. Difference between Census 2011 Households with toilets and Census 2001 Households with toilets = 7.5%</title></circle><circle class="distCircs" cx="515.0116123788947" cy="307.10326280618733" r="3.0314193898406616" stroke="#000" stroke-width="0.25" fill="#dcefae" data-q="ORISSA" data-r="GANJAM"><title>ORISSA - GANJAM: Census 2011 Total Rural Households = 602,216. Census 2011 Households with toilets = 114,865. Census 2001 Total Rural Households = 564,710. Census 2001 Households with toilets = 64,902. Difference between Census 2011 Households with toilets and Census 2001 Households with toilets = 7.6%</title></circle><circle class="distCircs" cx="536.4147253820323" cy="294.18480523786934" r="2.8051649453214687" stroke="#000" stroke-width="0.25" fill="#c8e6a4" data-q="ORISSA" data-r="JAGATSINGHAPUR"><title>ORISSA - JAGATSINGHAPUR: Census 2011 Total Rural Households = 237,411. Census 2011 Households with toilets = 52,480. Census 2001 Total Rural Households = 207,895. Census 2001 Households with toilets = 21,037. Difference between Census 2011 Households with toilets and Census 2001 Households with toilets = 12.0%</title></circle><circle class="distCircs" cx="533.4617575060303" cy="283.82170565289766" r="2.916110028573594" stroke="#000" stroke-width="0.25" fill="#e0f1b0" data-q="ORISSA" data-r="JAJAPUR"><title>ORISSA - JAJAPUR: Census 2011 Total Rural Households = 378,135. Census 2011 Households with toilets = 75,193. Census 2001 Total Rural Households = 328,179. Census 2001 Households with toilets = 43,000. Difference between Census 2011 Households with toilets and Census 2001 Households with toilets = 6.8%</title></circle><circle class="distCircs" cx="499.9728329714293" cy="269.3632596531244" r="2.571648170162927" stroke="#000" stroke-width="0.25" fill="#f5faba" data-q="ORISSA" data-r="JHARSUGUDA"><title>ORISSA - JHARSUGUDA: Census 2011 Total Rural Households = 83,664. Census 2011 Households with toilets = 7,852. Census 2001 Total Rural Households = 69,018. Census 2001 Households with toilets = 4,948. Difference between Census 2011 Households with toilets and Census 2001 Households with toilets = 2.2%</title></circle><circle class="distCircs" cx="490.5722535580244" cy="295.68243220141255" r="2.915380257719825" stroke="#000" stroke-width="0.25" fill="#f1f9b8" data-q="ORISSA" data-r="KALAHANDI"><title>ORISSA - KALAHANDI: Census 2011 Total Rural Households = 377,001. Census 2011 Households with toilets = 31,078. Census 2001 Total Rural Households = 304,484. Census 2001 Households with toilets = 15,574. Difference between Census 2011 Households with toilets and Census 2001 Households with toilets = 3.1%</title></circle><circle class="distCircs" cx="502.8802614514279" cy="295.19152109906383" r="2.7077326192773516" stroke="#000" stroke-width="0.25" fill="#fffdbe" data-q="ORISSA" data-r="KANDHAMAL"><title>ORISSA - KANDHAMAL: Census 2011 Total Rural Households = 155,335. Census 2011 Households with toilets = 9,751. Census 2001 Total Rural Households = 136,890. Census 2001 Households with toilets = 9,222. Difference between Census 2011 Households with toilets and Census 2001 Households with toilets = -0.5%</title></circle><circle class="distCircs" cx="539.0013856150041" cy="287.79274580365234" r="2.8693538190908097" stroke="#000" stroke-width="0.25" fill="#d8edac" data-q="ORISSA" data-r="KENDRAPARA"><title>ORISSA - KENDRAPARA: Census 2011 Total Rural Households = 311,465. Census 2011 Households with toilets = 49,170. Census 2001 Total Rural Households = 278,214. Census 2001 Households with toilets = 20,167. Difference between Census 2011 Households with toilets and Census 2001 Households with toilets = 8.5%</title></circle><circle class="distCircs" cx="524.0701059410899" cy="271.37964265255334" r="2.8971992329824094" stroke="#000" stroke-width="0.25" fill="#ebf6b6" data-q="ORISSA" data-r="KENDUJHAR"><title>ORISSA - KENDUJHAR: Census 2011 Total Rural Households = 349,736. Census 2011 Households with toilets = 32,526. Census 2001 Total Rural Households = 287,318. Census 2001 Households with toilets = 14,478. Difference between Census 2011 Households with toilets and Census 2001 Households with toilets = 4.3%</title></circle><circle class="distCircs" cx="526.1506601853132" cy="294.37450659111914" r="2.815327244306117" stroke="#000" stroke-width="0.25" fill="#def0af" data-q="ORISSA" data-r="KHORDHA"><title>ORISSA - KHORDHA: Census 2011 Total Rural Households = 247,940. Census 2011 Households with toilets = 45,385. Census 2001 Total Rural Households = 202,360. Census 2001 Households with toilets = 22,528. Difference between Census 2011 Households with toilets and Census 2001 Households with toilets = 7.2%</title></circle><circle class="distCircs" cx="484.03324535733066" cy="316.17000521503275" r="2.8469656703690474" stroke="#000" stroke-width="0.25" fill="#f1f9b8" data-q="ORISSA" data-r="KORAPUT"><title>ORISSA - KORAPUT: Census 2011 Total Rural Households = 283,522. Census 2011 Households with toilets = 23,180. Census 2001 Total Rural Households = 241,724. Census 2001 Households with toilets = 12,142. Difference between Census 2011 Households with toilets and Census 2001 Households with toilets = 3.2%</title></circle><circle class="distCircs" cx="472.2275102139675" cy="326.4940901247312" r="2.6614521665280213" stroke="#000" stroke-width="0.25" fill="#f6fbbb" data-q="ORISSA" data-r="MALKANGIRI"><title>ORISSA - MALKANGIRI: Census 2011 Total Rural Households = 126,306. Census 2011 Households with toilets = 7,528. Census 2001 Total Rural Households = 102,000. Census 2001 Households with toilets = 4,168. Difference between Census 2011 Households with toilets and Census 2001 Households with toilets = 1.9%</title></circle><circle class="distCircs" cx="537.8347286499567" cy="268.4876929523648" r="3.0061965127436574" stroke="#000" stroke-width="0.25" fill="#d1eaa9" data-q="ORISSA" data-r="MAYURBHANJ"><title>ORISSA - MAYURBHANJ: Census 2011 Total Rural Households = 544,764. Census 2011 Households with toilets = 81,889. Census 2001 Total Rural Households = 443,016. Census 2001 Households with toilets = 22,152. Difference between Census 2011 Households with toilets and Census 2001 Households with toilets = 10.0%</title></circle><circle class="distCircs" cx="481.6442562718895" cy="309.58353636236325" r="2.820498860905877" stroke="#000" stroke-width="0.25" fill="#f8fcbc" data-q="ORISSA" data-r="NABARANGAPUR"><title>ORISSA - NABARANGAPUR: Census 2011 Total Rural Households = 253,461. Census 2011 Households with toilets = 14,740. Census 2001 Total Rural Households = 214,990. Census 2001 Households with toilets = 9,363. Difference between Census 2011 Households with toilets and Census 2001 Households with toilets = 1.5%</title></circle><circle class="distCircs" cx="518.587441811031" cy="295.36737464109984" r="2.7802037977850964" stroke="#000" stroke-width="0.25" fill="#f6fbbb" data-q="ORISSA" data-r="NAYAGARH"><title>ORISSA - NAYAGARH: Census 2011 Total Rural Households = 213,265. Census 2011 Households with toilets = 33,917. Census 2001 Total Rural Households = 174,926. Census 2001 Households with toilets = 24,304. Difference between Census 2011 Households with toilets and Census 2001 Households with toilets = 2.0%</title></circle><circle class="distCircs" cx="482.89132600250537" cy="289.1158963818838" r="2.7027226684858854" stroke="#000" stroke-width="0.25" fill="#d8edac" data-q="ORISSA" data-r="NUAPADA"><title>ORISSA - NUAPADA: Census 2011 Total Rural Households = 151,921. Census 2011 Households with toilets = 19,333. Census 2001 Total Rural Households = 123,352. Census 2001 Households with toilets = 5,135. Difference between Census 2011 Households with toilets and Census 2001 Households with toilets = 8.6%</title></circle><circle class="distCircs" cx="529.100642960987" cy="300.28750927204544" r="2.8735703475892618" stroke="#000" stroke-width="0.25" fill="#e5f3b3" data-q="ORISSA" data-r="PURI"><title>ORISSA - PURI: Census 2011 Total Rural Households = 317,002. Census 2011 Households with toilets = 49,504. Census 2001 Total Rural Households = 255,809. Census 2001 Households with toilets = 25,593. Difference between Census 2011 Households with toilets and Census 2001 Households with toilets = 5.6%</title></circle><circle class="distCircs" cx="494.2104334424657" cy="310.5595131959588" r="2.7555129640749594" stroke="#000" stroke-width="0.25" fill="#f5faba" data-q="ORISSA" data-r="RAYAGADA"><title>ORISSA - RAYAGADA: Census 2011 Total Rural Households = 191,615. Census 2011 Households with toilets = 12,703. Census 2001 Total Rural Households = 165,245. Census 2001 Households with toilets = 7,171. Difference between Census 2011 Households with toilets and Census 2001 Households with toilets = 2.3%</title></circle><circle class="distCircs" cx="503.7243787594763" cy="275.62195408650234" r="2.7398656007295616" stroke="#000" stroke-width="0.25" fill="#f3fab9" data-q="ORISSA" data-r="SAMBALPUR"><title>ORISSA - SAMBALPUR: Census 2011 Total Rural Households = 178,958. Census 2011 Households with toilets = 15,326. Census 2001 Total Rural Households = 148,284. Census 2001 Households with toilets = 8,794. Difference between Census 2011 Households with toilets and Census 2001 Households with toilets = 2.6%</title></circle><circle class="distCircs" cx="499.81895437271146" cy="282.49043350335" r="2.6855182561535966" stroke="#000" stroke-width="0.25" fill="#f0f8b8" data-q="ORISSA" data-r="SONEPUR"><title>ORISSA - SONEPUR: Census 2011 Total Rural Households = 140,714. Census 2011 Households with toilets = 11,074. Census 2001 Total Rural Households = 109,649. Census 2001 Households with toilets = 5,062. Difference between Census 2011 Households with toilets and Census 2001 Households with toilets = 3.3%</title></circle><circle class="distCircs" cx="506.00923754697385" cy="266.8780715376579" r="2.8688135643050408" stroke="#000" stroke-width="0.25" fill="#f3fab9" data-q="ORISSA" data-r="SUNDARGARH"><title>ORISSA - SUNDARGARH: Census 2011 Total Rural Households = 310,762. Census 2011 Households with toilets = 26,001. Census 2001 Total Rural Households = 263,783. Census 2001 Households with toilets = 15,315. Difference between Census 2011 Households with toilets and Census 2001 Households with toilets = 2.6%</title></circle></g></g></svg>