<?xml version="1.0" standalone="no"?><!DOCTYPE svg PUBLIC "-//W3C//DTD SVG 1.1//EN" "http://www.w3.org/Graphics/SVG/1.1/DTD/svg11.dtd"><svg id="chart" width="960" height="500" class="dorlingCart" data-type="dorlingCart" version="1.1" xmlns:xlink="http://www.w3.org/1999/xlink" xmlns="http://www.w3.org/2000/svg"><defs class="svg-crowbar"><style type="text/css"><![CDATA[.feature{ fill: #fcfcfc; stroke: #000000; stroke-width: 0.2px; cursor: pointer; }]]></style></defs>
<g><g transform="translate(-1276.7962646484375,-1445.43603515625)scale(4,4)">
<path class="feature auto" data-q="PUDUCHERRY" d="M441.00610433443353,423.0385450206472L440.9631001041439,423.1749324672723L440.92009587385405,423.3113153237613L440.92009587385405,423.4476935938614L440.7910831829852,423.72043638987725L440.74807895269555,423.85680092328334L440.74807895269555,423.9022547516987L440.70507472240547,424.0386131907249L440.70507472240547,424.129516279613L440.70507472240547,424.31131637326837L440.70507472240547,424.44766112427044L440.70507472240547,424.5385550940462L440.70507472240547,424.6294470404008L440.70507472240547,424.7203369644432L440.70507472240547,424.76578116844394L440.5760620315366,425.12931662622987L440.5760620315366,425.22019544736065L440.53305780124697,425.40194704539607L440.4470493406675,425.71999297316006L440.40404511037787,425.5836905918467L440.3180366497984,425.4928198245157L440.23202818921914,425.4473836864986L440.1030154983498,425.3565099010692L440.0600112680602,425.3110722533802L439.88799434690145,425.22019544736065L439.801985886322,425.22019544736065L439.67297319545287,425.2656341021897L439.5869647348736,425.40194704539607L439.50095627429437,425.4473836864986L439.4149478137149,425.5382554595855L439.3289393531354,425.6291252214372L439.24293089255593,425.67455934849534L439.1569224319767,425.6291252214372L439.0709139713972,425.5836905918467L439.0709139713972,425.4928198245157L439.0709139713972,425.3565099010692L439.1569224319767,425.3565099010692L439.24293089255593,425.3110722533802L439.3289393531354,425.2656341021897L439.37194358342504,425.22019544736065L439.37194358342504,425.08387645965195L439.3289393531354,424.9929946137779L439.28593512284556,424.9021107500238L439.24293089255593,424.81122486728157L439.1569224319767,424.81122486728157L439.0279097411076,424.8566680610952L438.9849055108177,424.94755293420496L438.9849055108177,425.0384357888805L438.9419012805281,425.08387645965195L438.8128885896592,425.0384357888805L438.76988435936937,424.9929946137779L438.72688012907975,424.8566680610952L438.72688012907975,424.76578116844394L438.6838758987899,424.674892255142L438.5978674382104,424.58400132008194L438.5548632079208,424.4931083621553L438.46885474734154,424.44766112427044L438.33984205647243,424.44766112427044L438.2968378261828,424.5385550940462L438.21082936560333,424.58400132008194L438.0388124444446,424.6294470404008L438.0388124444446,424.7203369644432L438.0388124444446,424.81122486728157L438.0388124444446,424.94755293420496L438.1678251353137,425.0384357888805L438.21082936560333,425.08387645965195L438.21082936560333,425.2656341021897L438.21082936560333,425.3565099010692L438.1678251353137,425.5382554595855L438.0818166747342,425.5836905918467L437.995808214155,425.5836905918467L437.9528039838651,425.4928198245157L437.86679552328565,425.3565099010692L437.7807870627064,425.17475628875354L437.6947786021269,425.08387645965195L437.6517743718373,425.0384357888805L437.6517743718373,424.94755293420496L437.5657659112578,424.94755293420496L437.47975745067833,424.94755293420496L437.35074475980946,424.9021107500238L437.2647362992302,424.8566680610952L437.17872783865073,424.76578116844394L437.17872783865073,424.58400132008194L437.17872783865073,424.4931083621553L437.22173206894036,424.44766112427044L437.2647362992302,424.40221338025344L437.30774052951983,424.40221338025344L437.5227616809682,424.356765129966L437.60877014154767,424.2658671100231L437.6517743718373,424.17496706333395L437.73778283241654,424.129516279613L437.86679552328565,423.9931608852804L437.995808214155,423.94770807231805L438.1248209050241,423.9022547516987L438.4258505170517,423.85680092328334L438.5548632079208,423.9022547516987L438.6838758987899,423.9022547516987L438.85589281994885,423.9022547516987L438.9849055108177,423.85680092328334L439.11391820168683,423.76589174251126L439.1999266622663,423.72043638987725L439.1999266622663,423.584067281318L439.1999266622663,423.4476935938614L439.1569224319767,423.3113153237613L439.0279097411076,423.1749324672723L438.8988970502385,423.1749324672723L438.8128885896592,423.2658548813822L438.72688012907975,423.4022346798622L438.5978674382104,423.49315199867806L438.46885474734154,423.4022346798622L438.46885474734154,423.2658548813822L438.4258505170517,423.084008013102L438.38284628676206,422.94761750430473L438.2968378261828,422.8566879451257L438.1678251353137,422.8112223991254L438.0388124444446,422.8112223991254L437.9528039838651,422.94761750430473L437.86679552328565,423.1294704952644L437.7807870627064,423.2658548813822L437.6517743718373,423.35677525654205L437.5657659112578,423.4476935938614L437.47975745067833,423.5386098944507L437.35074475980946,423.49315199867806L437.30774052951983,423.4476935938614L437.22173206894036,423.3113153237613L437.2647362992302,423.1294704952644L437.35074475980946,423.084008013102L437.39374899009886,422.9930815177609L437.43675322038894,422.90215298013885L437.43675322038894,422.7657563419996L437.47975745067833,422.6748226938164L437.47975745067833,422.629355102481L437.39374899009886,422.49294925783374L437.30774052951983,422.4020094678122L437.30774052951983,422.3110676282895L437.35074475980946,422.174651023759L437.47975745067833,422.174651023759L437.5657659112578,422.174651023759L437.6947786021269,422.2655959396178L437.7807870627064,422.3565388043082L437.9097997535755,422.3565388043082L437.995808214155,422.3565388043082L438.1248209050241,422.3565388043082L438.21082936560333,422.3110676282895L438.25383359589296,422.2655959396178L438.38284628676206,422.174651023759L438.4258505170517,422.174651023759L438.51185897763116,422.174651023759L438.5978674382104,422.2201237381539L438.64087166850027,422.3565388043082L438.64087166850027,422.4474796189412L438.64087166850027,422.5384183846288L438.64087166850027,422.629355102481L438.6838758987899,422.7657563419996L438.72688012907975,422.8112223991254L438.8128885896592,422.90215298013885L438.8988970502385,422.94761750430473L438.9419012805281,422.94761750430473L439.0279097411076,422.94761750430473L439.11391820168683,422.8566879451257L439.1569224319767,422.7657563419996L439.3289393531354,422.5838869994644L439.4149478137149,422.49294925783374L439.4149478137149,422.3110676282895L439.4579520440045,422.2201237381539L439.50095627429437,422.129177796294L439.543960504584,422.08370405562016L439.5869647348736,422.0382298015985L439.67297319545287,422.0382298015985L439.75898165603235,422.0382298015985L439.801985886322,422.08370405562016L439.88799434690145,422.174651023759L439.9740028074807,422.3110676282895L440.0170070377703,422.4474796189412L440.0600112680602,422.5384183846288L440.1030154983498,422.6748226938164L440.1890239589293,422.8112223991254L440.27503241950876,422.8566879451257L440.361040880088,422.94761750430473L440.4900535709571,423.0385450206472L440.5760620315366,423.0385450206472L440.6620704921161,423.0385450206472L440.7910831829852,423.0385450206472L440.8340874132746,423.0385450206472Z"></path>
<circle class="distCircs" cx="440.0058908069314" cy="423.90468189861934" r="2.5993270881801505" stroke="#000" stroke-width="0.25" fill="#aedb98" data-q="PUDUCHERRY" data-r="PONDICHERRY"><title>PUDUCHERRY - PONDICHERRY: Census 2011 Total Rural Households = 95,133. Census 2011 Households with toilets = 37,130. Census 2001 Total Rural Households = 72,199. Census 2001 Households with toilets = 15,450. Difference between Census 2011 Households with toilets and Census 2001 Households with toilets = 17.6%</title></circle></g></g></svg>