<?xml version="1.0" standalone="no"?><!DOCTYPE svg PUBLIC "-//W3C//DTD SVG 1.1//EN" "http://www.w3.org/Graphics/SVG/1.1/DTD/svg11.dtd"><svg id="chart" width="960" height="500" class="dorlingCart" data-type="dorlingCart" version="1.1" xmlns:xlink="http://www.w3.org/1999/xlink" xmlns="http://www.w3.org/2000/svg"><defs class="svg-crowbar"><style type="text/css"><![CDATA[.feature{ fill: #fcfcfc; stroke: #000000; stroke-width: 0.2px; cursor: pointer; }]]></style></defs>
<g><g transform="translate(-1024.444580078125,-245.98501586914062)scale(4,4)">
<path class="feature" data-q="PUNJAB" d="M374.822593918592,98.29664717675882L375.0376150700406,98.40191925244301L375.1666277609095,98.40191925244301L375.4246531426477,98.40191925244301L375.5966700638064,98.40191925244301L375.9837081364137,98.50718427523435L376.24173351815193,98.55981414245906L376.37074620902104,98.61244224725681L376.5857673604696,98.55981414245906L376.67177582104887,98.34928409634534L376.8437927422076,98.19136804605722L377.0588138936562,98.19136804605722L377.27383504510453,98.29664717675882L377.44585196626326,98.45455264531716L377.66087311771184,98.55981414245906L377.8328900388706,98.66506858989356L378.04791119031916,98.66506858989356L378.30593657205713,98.55981414245906L378.5209577235057,98.40191925244301L378.6929746446647,98.19136804605722L378.8649915658234,98.03343611719686L379.1230169475616,97.77018093055727L379.29503386872034,97.66486649287538L379.5530592504583,97.29621028826136L379.7250761716173,97.08551069199154L379.8970930927758,96.82209637249827L380.06911001393496,96.66402652845807L380.2841311653833,96.50594073635875L380.45614808654204,96.34783898899644L380.6711692379906,96.03158759964924L380.886190389439,95.87343794324124L381.0582073105977,95.71527230272278L381.2732284620463,95.50435990538284L381.4882496134949,95.34615694052764L381.7892792255225,94.92420408570416L382.52035114044725,95.50435990538284L382.86438498276493,95.82071783943684L383.03640190392366,96.18972127916328L383.25142305537247,96.4532419270675L383.38043574624135,96.71671824812245L383.38043574624135,96.98015027568027L383.2944272856621,97.24353804307134L383.165414594793,97.29621028826136L382.9073892130548,97.29621028826136L382.6923680616062,97.29621028826136L382.4773469101576,97.3488807646425L382.26232575870927,97.66486649287538L382.26232575870927,98.13872583441014L382.1763172981298,98.29664717675882L382.00430037697106,98.34928409634534L381.87528768610196,98.40191925244301L381.70327076494345,98.55981414245906L381.5312538437845,98.71769317063416L381.4022411529154,98.9281738799449L381.2732284620463,99.13862642014305L381.1442157711772,99.66463464209767L380.71417346828025,100.03273584851081L380.45614808654204,100.3481827195194L380.19812270480384,100.50588248025088L379.9831015533555,100.61100689048163L379.7250761716173,100.82123468782964L379.59606348074817,100.92633807917099L379.3810423292998,101.13652385774219L379.2520296384305,101.8194344097401L379.2090254081411,102.23954035297481L379.2090254081411,102.44955146174857L379.29503386872034,102.60704149213518L379.42404655958944,102.71202613481358L379.6390677110378,102.76451584366697L379.8970930927758,102.86949003771417L380.1121142442246,103.02693827357535L380.19812270480384,103.13189506373766L380.37013962596257,103.2893172036101L380.58516077741115,103.3942566030039L381.0582073105977,103.55165266655564L381.2732284620463,103.6041145459775L381.4882496134949,103.70903309375103L381.74627499523285,103.8139446951754L381.96129614668143,103.91884935234663L382.13331306784016,103.97129907749132L382.34833421928874,104.07619332220906L382.6923680616062,104.23352167928022L382.9073892130548,104.28596099668209L383.2084188250824,104.44326854768383L383.4664442068208,104.75783686779715L383.5954568976899,104.96751445059954L383.8104780491383,105.4915873223216L383.9394907400076,105.80594809892011L384.11150766116634,106.01548742372296L384.2405203520352,106.38211483588458L384.3265288126147,106.69629969229283L384.41253727319395,106.95807305638368L384.4555415034838,107.16746077858505L384.3265288126147,107.2198034100391L384.15451189145597,107.2198034100391L384.02549920058686,107.27214432237417L383.9394907400076,107.4291567472589L383.98249497029724,107.84778097038469L384.3265288126147,108.42320998145391L384.4985457337734,109.05071431665544L384.75657111551163,109.52118094320645L385.05760072753947,110.35722463056919L385.3586303395673,110.87953039878897L385.702664181885,111.50607280621097L386.04669802420244,112.08018854410614L386.2187149453614,112.3932561093145L386.3907318665201,112.70626270502345L386.51974455738923,113.12351008674983L386.6057530179687,113.38423476651894L386.8637783997067,113.80130645306235L387.07879955115527,114.21827019108787L387.07879955115527,114.47881776776939L387.07879955115527,114.73932325991802L386.82077416941706,115.1560445909609L386.6057530179687,115.31228736190411L386.3477276362303,115.57265839732725L386.17571071507155,115.98916480913192L386.56274878767886,116.35351992454298L387.0357953208654,116.45760631418256L387.3368249328935,116.5096469982854L387.5948503146317,116.45760631418256L387.8958799266593,116.35351992454298L388.19690953868735,116.24942683796837L388.4119306901357,116.14532705243141L388.84197299303287,115.88504826731008L389.0569941444812,115.78092501942268L389.22901106563995,115.5205875473385L389.35802375650906,115.1560445909609L389.35802375650906,114.89560636787252L389.57304490795764,114.58302501299028L389.70205759882674,114.21827019108787L389.788066059406,114.00980180747598L390.046091441144,113.80130645306235L390.2181083623029,113.69704865670332L390.39012528346166,113.80130645306235L390.4331295137515,113.95768049802268L390.4331295137515,114.11403936961176L390.5621422046206,114.32249427394225L390.7771633560692,114.58302501299028L390.7341591257791,114.8435136802376L391.12119719838665,115.41644081222552L391.5512395012836,116.14532705243141L391.89527334360105,116.30147421849966L392.23930718591873,116.56168600891482L392.3253156464982,116.76982532176532L392.41132410707746,116.97793787930556L392.4543283373671,117.1340047490342L392.49733256765694,117.49810232497333L392.5833410282362,117.6541191081999L392.88437064026425,117.60211518203431L393.0133833311331,117.60211518203431L393.0993917917126,117.44609339357157L393.0993917917126,117.2380409762564L393.14239602200223,116.97793787930556L393.14239602200223,116.82185596882772L393.3574171734506,116.76982532176532L393.4864298643197,116.76982532176532L393.65844678547865,116.8738849439365L393.78745947634775,116.92591224734412L393.9594763975065,116.8738849439365L394.13149331866543,116.82185596882772L394.17449754895483,116.82185596882772L394.30351023982394,117.3940827932517L394.13149331866543,118.12207941817303L394.04548485808573,118.33001846072312L393.91647216721685,118.58990481172623L393.8734679369272,118.79778395044775L393.9594763975065,119.05759547270497L394.13149331866543,119.26541478923826L394.21750177924446,119.5770939663314L394.13149331866543,119.26541478923826L394.30351023982394,119.5770939663314L394.21750177924446,119.73291116062416L394.04548485808573,119.94064421125933L393.9594763975065,120.25219408753998L393.9594763975065,120.51177346092777L394.0884890883758,120.97891214815934L394.26050600953454,121.13459530236736L394.7335525427211,121.75717939182925L395.33561176677676,122.22396169430777L395.55063291822535,122.43137769368656L395.80865829996355,122.69061068666389L395.8946667605428,122.79429237720541L396.0236794514119,122.94980259069854L396.152692142281,123.15712655083064L396.06668368170153,123.51988030005032L396.06668368170153,123.88255371027316L396.10968791199116,124.0379605993748L396.23870060286026,124.19335275472105L396.3677132937296,124.45230695684057L396.23870060286026,124.60765985496664L396.06668368170153,124.86654866811699L395.7656540696737,125.07363032114665L395.5076286879355,125.33244566660863L395.3786159970664,125.53946858564763L395.3786159970664,125.79821056379075L395.421620227356,126.2121130517894L395.5076286879355,126.47074923187307L395.67964560909445,126.57419232411411L395.93767099083243,126.83277162252375L396.152692142281,126.93619197419599L396.4107175240192,127.09131032820295L396.6687429057572,127.19471445141909L396.9267682874954,127.24641407992999L397.3998148206822,127.45319637908244L397.9158655841586,127.71163778799826L398.1738909658968,128.02171403730443L398.3459078870553,128.28006641333508L398.3029036567659,128.6933461535781L398.13088673560696,128.95159350077643L397.95886981444824,129.10652254372428L397.87286135386876,129.36470536095447L397.87286135386876,129.4679672045495L398.00187404473786,129.57122260348717L398.3029036567659,129.51959570947741L398.4749205779244,129.57122260348717L398.5179248082143,129.72609362245436L398.5179248082143,129.93256577641273L398.3029036567659,130.0874029969557L397.9158655841586,130.19061976912207L397.48582328126145,130.29383011034815L397.1847936692336,130.50023150781243L397.0127767480749,130.60342256796315L397.05578097836474,130.75819711546495L397.22779789952347,130.86137212150135L397.35681059039234,131.17085863807608L397.3998148206822,131.32558025133915L397.141789438944,131.37715091738414L396.9267682874954,131.22243411192926L396.6687429057572,131.11928156113186L396.152692142281,131.11928156113186L396.0236794514119,131.06770288085255L395.7656540696737,131.06770288085255L395.63664137880437,131.5834175628553L395.593637148515,131.94432255796033L395.55063291822535,132.25360731557026L395.421620227356,132.51130066712676L395.2496033061973,132.76895409981307L395.0345821547487,132.97504812480707L394.8195610033006,133.18111663673812L394.04548485808573,133.38715965115432L393.65844678547865,133.85066328878565L393.57243832489917,133.9536465960851L393.40042140374067,134.10810963297803L393.2284044825817,134.21107704436292L393.0133833311331,134.6743517807759L393.1854002522921,134.77728426378178L393.2284044825817,134.82874812604337L393.44342563403006,134.77728426378178L393.65844678547865,134.62288315954805L393.8734679369272,134.51994115643095L394.13149331866543,134.62288315954805L394.17449754895483,134.82874812604337L394.21750177924446,134.93167109329204L394.26050600953454,134.9831301987639L394.30351023982394,135.34329956743568L394.30351023982394,135.60051589472823L394.13149331866543,135.8062604752639L394.04548485808573,136.06340562465152L393.8734679369272,136.32051127297672L393.70145101576827,136.52616737112146L393.615442555189,136.7832019934536L393.52943409460954,136.98880130981973L393.31441294316096,137.45130761622454L393.2284044825817,137.65682505208605L393.0133833311331,137.81094661602685L392.7553579493949,137.81094661602685L392.49733256765694,137.60544805259468L392.28231141620836,137.2971530179655L392.1963029556291,136.98880130981973L392.0672902647598,136.73179822328905L391.8522691133114,136.47475571399775L391.6802521921527,136.26909330195042L391.4222268104145,136.16625262242115L391.2932141195454,136.16625262242115L391.0351887378072,136.32051127297672L390.9061760469383,136.47475571399775L390.7771633560692,136.62898595198953L390.6481506652001,136.62898595198953L390.4331295137515,136.42334247876016L390.13209990172345,136.2176737518455L389.8310702896956,136.2176737518455L389.8310702896956,136.32051127297672L389.87407451998547,136.68039287621468L389.87407451998547,136.8346041869478L389.8310702896956,136.98880130981973L389.70205759882674,136.93740384489053L389.530040677668,136.7832019934536L389.35802375650906,136.62898595198953L389.0139899141916,136.57757745037162L388.84197299303287,136.42334247876016L388.6699560718739,136.26909330195042L388.45493492042533,136.11482991343695L388.19690953868735,136.01197975582357L387.98188838723877,136.01197975582357L387.8958799266593,136.16625262242115L387.93888415694914,136.32051127297672L387.98188838723877,136.42334247876016L388.1539053083977,136.52616737112146L388.32592222955645,136.57757745037162L388.5409433810048,136.62898595198953L388.62695184158406,136.8860048040134L388.62695184158406,136.93740384489053L388.45493492042533,137.091591512798L388.28291799926683,137.2971530179655L388.19690953868735,137.50268933490406L388.19690953868735,137.70820047899548L388.19690953868735,138.2218683088778L388.1109010781079,138.52999363421753L388.06789684781825,138.73537914450333L388.0248926175286,138.88940181715054L388.0248926175286,139.14607493821217L388.0248926175286,139.40270891851418L387.85287569636967,139.71061807116973L387.7668672357902,139.71061807116973L387.55184608434183,139.71061807116973L387.4658376237626,139.71061807116973L387.508841854052,139.91585957641712L387.5948503146317,140.069774303048L387.72386300550056,140.22367497772342L387.93888415694914,140.42885402983194L388.19690953868735,140.68529275445127L388.3689264598461,140.8904156803315L388.3689264598461,141.1467842954337L388.32592222955645,141.30058678672833L388.06789684781825,141.3518511722935L387.6378545449213,141.4543752775537L387.3798291631831,141.60814977433427L387.2078122420244,141.71065833422438L386.94978686028617,141.76191028349336L386.7777699391272,141.65940483125058L386.69176147854773,141.65940483125058L386.4767403270994,141.76191028349336L386.261719175651,141.966902548277L386.0036937939128,142.3255792489154L385.83167687275386,142.53050323955614L385.65965995159513,142.7354024317254L385.2726218789878,142.8378427331274L384.88558380638074,142.99149157221132L384.6705626549324,143.1963350233117L384.4985457337734,143.29874746697897L384.2835245823251,143.34995136917053L384.02549920058686,143.24754201843814L383.8104780491383,143.0427047560496L383.5524526674001,142.94027684060308L383.2944272856621,142.7866233567861L383.0794061342135,142.58173036186224L382.7783765221857,142.53050323955614L382.52035114044725,142.47927456734618L382.3053299889989,142.53050323955614L382.0473046072609,142.7354024317254L381.87528768610196,142.7354024317254L381.6602665346536,142.7866233567861L381.2732284620463,142.68417995770966L380.9291946197286,142.68417995770966L380.6711692379906,142.7866233567861L380.5421565471215,142.88906056098722L380.4131438562524,142.8378427331274L380.24112693509346,142.68417995770966L380.1121142442246,142.47927456734618L379.8970930927758,142.47927456734618L379.6820719413274,142.53050323955614L379.5530592504583,142.7354024317254L379.5100550201687,142.94027684060308L379.3810423292998,142.94027684060308L379.166021177851,142.99149157221132L378.8649915658234,142.88906056098722L378.6069661840852,142.7354024317254L378.3919450326366,142.68417995770966L378.04791119031916,142.6329559345014L377.66087311771184,142.53050323955614L377.53186042684274,142.42804434499413L377.359843505684,142.3255792489154L377.14482235423566,142.12063044461178L376.800788511918,142.0693893646199L376.67177582104887,142.1718699727988L376.67177582104887,142.3255792489154L376.5857673604696,142.53050323955614L376.4567546696005,142.7354024317254L376.28473774844156,142.88906056098722L375.9837081364137,143.29874746697897L375.9407039061241,143.5035538000201L375.63967429409627,143.81071694225915L375.2956404517786,144.06664376577618L374.9086023791715,144.6295470526925L374.86559814888165,144.88535055614346L374.77958968830217,145.0388141880618L374.65057699743306,145.19226397514984L374.60757276714344,145.39684216586517L374.60757276714344,145.7036633567069L374.73658545801254,146.06155156230318L374.65057699743306,146.21490921307043L374.47856007627433,146.21490921307043L374.2205346945361,146.41936462126944L373.96250931279815,146.41936462126944L373.83349662192904,146.26602536388089L373.70448393105994,145.95930546082775L373.61847547048046,145.7036633567069L373.48946277961136,145.34569992377186L373.23143739787315,144.98766118271777L373.0594204767144,144.83419293444047L372.9304077858453,144.6295470526925L372.97341201613517,144.47604647008717L373.1454289372939,144.47604647008717L373.31744585845263,144.47604647008717L373.4034543190319,144.27135745277076L373.36045008874225,144.06664376577618L373.31744585845263,143.81071694225915L373.274441628163,143.6571423222532L373.4034543190319,143.40115372525014L373.70448393105994,143.34995136917053L373.83349662192904,143.24754201843814L373.83349662192904,142.99149157221132L373.70448393105994,142.68417995770966L373.5754712401906,142.47927456734618L373.532467009901,142.2231079494204L373.274441628163,141.65940483125058L373.1884331675835,141.50563499772392L372.97341201613517,141.4543752775537L372.71538663439674,141.60814977433427L372.6723824041071,141.8131606792951L372.6293781738175,142.12063044461178L372.58637394352786,142.3255792489154L372.41435702236913,142.42804434499413L372.19933587092055,142.3255792489154L371.94131048918234,142.01814673258747L371.6832851074439,141.91565681144954L371.5972766468649,141.86440952186825L371.4252597257059,141.50563499772392L371.5112681862854,141.30058678672833L371.726289337734,141.09551368600899L371.7692935680234,140.83913728572605L371.726289337734,140.5314341969849L371.5972766468649,140.37756160688838L371.4252597257059,140.2749720810724L371.33925126512645,140.32626762404828L371.2532428045472,140.48014489311845L371.08122588338847,140.68529275445127L370.6081793502017,140.9416925174241L370.3501539684637,140.9416925174241L370.04912435643564,140.78785733336986L369.8771074352769,140.6340081274128L369.5760778232491,140.32626762404828L369.44706513238,140.12107608894996L369.3180524415109,140.0184709558174L369.06002705977266,139.8645515437696L368.75899744774483,139.65930378795537L368.5009720660066,139.45403102031457L368.32895514484767,139.3000600213701L368.11393399339954,139.19740486457647L367.85590861166133,139.04341038835372L367.5548789996335,138.94073957406005L367.0388282361571,138.94073957406005L366.78080285441865,139.09474344621788L366.22174786065284,139.04341038835372L365.96372247891463,139.09474344621788L365.4476717154382,139.45403102031457L365.10363787312076,139.71061807116973L364.8026082610929,140.0184709558174L364.2865574976165,139.96716604702033L364.1145405764578,139.96716604702033L363.8565151947196,139.91585957641712L363.7275025038505,139.76193079138454L363.5124813524019,139.65930378795537L362.9964305889257,139.55667053156918L362.652396746608,139.55667053156918L362.3513671345802,139.55667053156918L362.05033752255235,139.45403102031457L361.8353163711038,139.45403102031457L361.40527406820706,139.45403102031457L360.9322275350203,139.40270891851418L360.4591810018335,139.3513852522787L360.115147159516,139.3000600213701L359.7281090869087,139.24873322554953L359.38407524459126,139.24873322554953L359.0400414022736,139.24873322554953L358.73901179024574,139.24873322554953L358.43798217821814,139.24873322554953L358.0509441056108,139.3000600213701L357.70691026329314,139.24873322554953L357.49188911184456,139.19740486457647L356.84682565749927,139.14607493821217L356.5027918151816,139.19740486457647L356.2447664334434,139.19740486457647L355.94373682141554,139.19740486457647L355.6427072093877,139.19740486457647L355.29867336707,139.19740486457647L354.91163529446294,139.19740486457647L354.6106056824351,139.19740486457647L354.30957607040705,139.19740486457647L353.9655422280896,139.3513852522787L353.8365295372205,139.3513852522787L353.66451261606153,139.24873322554953L353.5785041554823,138.83806249341427L353.5785041554823,138.68403511884895L353.66451261606153,138.42729146900928L353.8365295372205,138.06778445522286L354.0085464583792,137.81094661602685L354.18056337953794,137.60544805259468L354.3525803006967,137.39992432400186L354.43858876127615,137.24576500367084L354.52459722185563,137.04019719904198L354.65360991272473,136.7832019934536L354.7396183733042,136.62898595198953L354.8686310641731,136.2176737518455L354.8686310641731,136.06340562465152L354.8686310641731,135.8062604752639L354.65360991272473,135.60051589472823L354.65360991272473,135.39474599877025L354.9976437550424,134.9831301987639L354.9976437550424,134.57141295151365L354.95463952475257,133.9536465960851L354.69661414301436,133.1296018997545L354.30957607040705,132.71742660532635L354.05155068866907,132.45976519129766L353.92253799779996,132.25360731557026L353.9655422280896,131.94432255796033L354.2235676098278,131.78965859010077L354.52459722185563,131.48028744337302L354.78262260359384,131.11928156113186L354.82562683388346,130.96454070931208L354.7396183733042,130.8097854208831L354.52459722185563,130.70660720500211L354.43858876127615,130.44863356845843L354.6106056824351,130.1390121870284L354.95463952475257,129.9841797918928L355.1696606762009,129.9841797918928L355.3416775973599,129.93256577641273L355.470690288229,129.72609362245436L355.5136945185186,129.4679672045495L355.59970297909786,129.26143707074283L355.7717199002566,129.20980050754144L355.9007325911257,129.31307202179863L356.07274951228464,129.36470536095447L356.11575374257427,129.10652254372428L356.2447664334434,129.0032381283824L356.33077489402285,129.10652254372428L356.54579604547143,129.26143707074283L356.8038214272094,129.20980050754144L356.8038214272094,129.0032381283824L356.7608171969198,128.6933461535781L356.67480873634054,128.3833960443472L356.71781296663016,127.91836176232556L356.8898298877889,127.55657780317381L357.57789757242404,127.40150323603496L357.96493564503135,127.14301320092574L358.007939875321,126.67762891658037L358.2659652570592,126.36729963788213L358.48098640850753,125.95343620487517L358.6960075599561,125.79821056379075L358.91102871140447,125.74646542645598L358.99703717198395,125.74646542645598L359.1690540931429,125.59122024006479L359.2550625537219,125.43596038689753L359.1690540931429,125.28068586026734L359.1690540931429,125.07363032114665L359.298066784012,124.91832153042128L359.51308793546036,124.76299804392698L359.6851048566191,124.4005193876032L359.8571217777778,124.0379605993748L360.115147159516,123.72713208070229L360.28716408067476,123.72713208070229L360.41617677154386,123.72713208070229L360.6742021532823,123.57169570394802L360.50218523212334,123.36442424993413L360.54518946241296,123.26077868201457L360.63119792299244,123.20895343695526L360.88922330473065,123.00163604357516L361.0612402258894,123.00163604357516L361.14724868646863,122.94980259069854L361.19025291675825,122.84613075776292L361.2332571470481,122.69061068666389L361.3192656076276,122.43137769368656L361.4912825287863,122.27581816223369L362.0073332922625,121.96465466262572L362.56638828602854,121.8090506809819L362.824413667767,121.70530645462384L363.16844751008443,121.2902635970795L363.3404644312434,120.87511512007296L363.5124813524019,120.61559363009076L363.7275025038505,120.61559363009076L364.02853211587853,120.56368437241503L364.45857441877524,120.56368437241503L365.0176294125413,120.56368437241503L365.4046674851486,120.40794667551512L365.5336801760177,120.14835075272458L365.6196886365972,119.83678100059274L365.6196886365972,119.5770939663314L365.5336801760177,119.47320754431075L365.1896463337,119.31736546751421L364.93162095196203,119.31736546751421L364.6735955702238,119.21346245087108L364.4155701884856,119.21346245087108L364.32956172790614,119.21346245087108L364.24355326732666,119.26541478923826L364.24355326732666,119.52515158473807L364.4155701884856,119.62903468934223L364.32956172790614,119.78484690939695L364.1145405764578,119.99257333123211L363.8135109644297,120.04450079463373L363.59848981298137,119.94064421125933L363.5124813524019,119.78484690939695L363.4264728918224,119.52515158473807L363.29746020095354,119.42126184479923L363.1254432797948,119.26541478923826L362.9104221283462,119.05759547270497L362.8674178980566,118.58990481172623L363.03943481921533,118.07009049407986L363.1254432797948,117.6541191081999L363.16844751008443,117.2380409762564L363.21145174037406,116.19737778269729L363.21145174037406,115.72886088006948L363.3834686615328,115.36436492659311L364.1145405764578,114.6351261111651L364.5445828793547,114.00980180747598L364.71659980051345,113.69704865670332L364.63059133993397,113.48851281547365L364.32956172790614,113.1756584017117L364.20054903703726,113.01920838652336L364.1145405764578,112.86274315659534L364.1145405764578,112.75842454726768L364.24355326732666,112.445428107765L364.32956172790614,112.28890703136568L364.20054903703726,111.97581913069604L363.9855278855887,111.76705995406218L363.5124813524019,111.2972525262702L363.21145174037406,110.82730748088147L363.08243904950496,110.2004996914057L362.9534263586361,109.73023280940635L362.7814094374771,109.4689137079663L362.6093925163186,109.31210175326186L362.652396746608,109.05071431665544L362.824413667767,108.94614737341982L363.08243904950496,108.84157358788855L363.3834686615328,108.63240548166948L363.55548558269174,108.10936533117149L363.7705067341401,107.4291567472589L363.8135109644297,107.01042256691028L364.02853211587853,106.59157829646142L364.20054903703726,106.27737276697906L364.45857441877524,106.22499914696192L364.58758710964435,106.22499914696192L364.7596040308033,106.17262380288781L364.84561249138255,105.9631051808197L364.97462518225166,105.75355895302175L365.2756547942795,105.59638115588604L365.7487013274663,105.4915873223216L366.1787436303632,105.1771643484148L366.47977324239105,104.96751445059954L366.909815545288,104.81025885987953L367.2108451573158,104.60056050237023L367.4688705390538,104.28596099668209L367.72689592079223,103.86639789166213L368.0709297631097,103.6041145459775L368.5439762962965,103.44672369533123L369.01702282948304,103.2893172036101L369.44706513238,103.23684489601897L369.79109897469766,103.23684489601897L370.13513281701535,103.18437084948198L370.56517511991206,103.13189506373766L370.8232005016505,102.97445726863356L371.1242301136781,102.8170038112126L371.726289337734,102.71202613481358L372.45736125265876,102.60704149213518L372.8013950949762,102.5545465577847L372.97341201613517,102.29204574541268L373.0594204767144,102.18703321660246L373.23143739787315,102.18703321660246L373.44645854932173,102.23954035297481L373.5754712401906,102.23954035297481L373.7904923916394,101.97698722650938L374.0485177733774,101.39921672000264L374.17753046424673,101.03143446843848L374.39255161569486,100.66356646731123L374.65057699743306,100.40075105950058L374.9086023791715,100.29561262611577L375.2096319911991,100.19046717798454L375.4676573729373,99.98015522902148L375.5966700638064,99.76981519569074L375.51066160322694,99.55944706106214L375.1236235306196,99.191235155757L374.9516066094609,99.03340367012197L374.86559814888165,98.77031598974446Z"></path>
<circle class="distCircs" cx="367.86475011078824" cy="112.52724651207069" r="2.779443285442288" stroke="#000" stroke-width="0.25" fill="#51b16b" data-q="PUNJAB" data-r="AMRITSAR"><title>PUNJAB - AMRITSAR: Census 2011 Total Rural Households = 212,566. Census 2011 Households with toilets = 129,269. Census 2001 Total Rural Households = 318,074. Census 2001 Households with toilets = 72,468. Difference between Census 2011 Households with toilets and Census 2001 Households with toilets = 38.0%</title></circle><circle class="distCircs" cx="377.6010998509429" cy="132.45137340394848" r="2.5478136397007756" stroke="#000" stroke-width="0.25" fill="#eee" data-q="PUNJAB" data-r="BARNALA"><title>PUNJAB - BARNALA: Census 2011 Total Rural Households = 74,819. Census 2011 Households with toilets = 60,002. Census 2001 Total Rural Households = NaN. Census 2001 Households with toilets = 0. Difference between Census 2011 Households with toilets and Census 2001 Households with toilets = NaN%</title></circle><circle class="distCircs" cx="368.9225433855032" cy="135.13017355300514" r="2.729303826461052" stroke="#000" stroke-width="0.25" fill="#d5ecab" data-q="PUNJAB" data-r="BATHINDA"><title>PUNJAB - BATHINDA: Census 2011 Total Rural Households = 170,853. Census 2011 Households with toilets = 144,022. Census 2001 Total Rural Households = 136,966. Census 2001 Households with toilets = 102,816. Difference between Census 2011 Households with toilets and Census 2001 Households with toilets = 9.2%</title></circle><circle class="distCircs" cx="366.0981920103786" cy="129.4800823215478" r="2.5518727590370625" stroke="#000" stroke-width="0.25" fill="#80c681" data-q="PUNJAB" data-r="FARIDKOT"><title>PUNJAB - FARIDKOT: Census 2011 Total Rural Households = 76,262. Census 2011 Households with toilets = 61,057. Census 2001 Total Rural Households = 61,865. Census 2001 Households with toilets = 32,349. Difference between Census 2011 Households with toilets and Census 2001 Households with toilets = 27.8%</title></circle><circle class="distCircs" cx="386.7959471900357" cy="128.22682204996966" r="2.5558045068667115" stroke="#000" stroke-width="0.25" fill="#65ba74" data-q="PUNJAB" data-r="FATEHGARH SAHIB"><title>PUNJAB - FATEHGARH SAHIB: Census 2011 Total Rural Households = 77,684. Census 2011 Households with toilets = 64,123. Census 2001 Total Rural Households = 64,242. Census 2001 Households with toilets = 31,421. Difference between Census 2011 Households with toilets and Census 2001 Households with toilets = 33.6%</title></circle><circle class="distCircs" cx="365.6089881047083" cy="123.89838828564712" r="2.8367362034960255" stroke="#000" stroke-width="0.25" fill="#81c682" data-q="PUNJAB" data-r="FEROZEPUR"><title>PUNJAB - FEROZEPUR: Census 2011 Total Rural Households = 271,536. Census 2011 Households with toilets = 180,933. Census 2001 Total Rural Households = 218,349. Census 2001 Households with toilets = 85,588. Difference between Census 2011 Households with toilets and Census 2001 Households with toilets = 27.4%</title></circle><circle class="distCircs" cx="375.5928179776855" cy="106.17560432450796" r="2.868148044534473" stroke="#000" stroke-width="0.25" fill="#69bb76" data-q="PUNJAB" data-r="GURDASPUR"><title>PUNJAB - GURDASPUR: Census 2011 Total Rural Households = 309,898. Census 2011 Households with toilets = 155,114. Census 2001 Total Rural Households = 262,697. Census 2001 Households with toilets = 45,188. Difference between Census 2011 Households with toilets and Census 2001 Households with toilets = 32.9%</title></circle><circle class="distCircs" cx="383.0031648272713" cy="114.1788704126601" r="2.825150569131339" stroke="#000" stroke-width="0.25" fill="#6bbd77" data-q="PUNJAB" data-r="HOSHIARPUR"><title>PUNJAB - HOSHIARPUR: Census 2011 Total Rural Households = 258,523. Census 2011 Households with toilets = 147,357. Census 2001 Total Rural Households = 219,545. Census 2001 Households with toilets = 54,289. Difference between Census 2011 Households with toilets and Census 2001 Households with toilets = 32.3%</title></circle><circle class="distCircs" cx="378.0354565114741" cy="117.41899773643473" r="2.780339556954115" stroke="#000" stroke-width="0.25" fill="#6bbc77" data-q="PUNJAB" data-r="JALANDHAR"><title>PUNJAB - JALANDHAR: Census 2011 Total Rural Households = 213,390. Census 2011 Households with toilets = 162,223. Census 2001 Total Rural Households = 186,698. Census 2001 Households with toilets = 81,468. Difference between Census 2011 Households with toilets and Census 2001 Households with toilets = 32.4%</title></circle><circle class="distCircs" cx="375.26178537793294" cy="111.87693785807068" r="2.6246495134931815" stroke="#000" stroke-width="0.25" fill="#41aa63" data-q="PUNJAB" data-r="KAPURTHALA"><title>PUNJAB - KAPURTHALA: Census 2011 Total Rural Households = 106,870. Census 2011 Households with toilets = 82,685. Census 2001 Total Rural Households = 89,242. Census 2001 Households with toilets = 32,110. Difference between Census 2011 Households with toilets and Census 2001 Households with toilets = 41.4%</title></circle><circle class="distCircs" cx="380.65201253868105" cy="124.17056337757992" r="2.8425782240746185" stroke="#000" stroke-width="0.25" fill="#94cf8b" data-q="PUNJAB" data-r="LUDHIANA"><title>PUNJAB - LUDHIANA: Census 2011 Total Rural Households = 278,323. Census 2011 Households with toilets = 243,564. Census 2001 Total Rural Households = 234,680. Census 2001 Households with toilets = 150,787. Difference between Census 2011 Households with toilets and Census 2001 Households with toilets = 23.3%</title></circle><circle class="distCircs" cx="375.24855037357366" cy="138.74690161734884" r="2.641373275808345" stroke="#000" stroke-width="0.25" fill="#aedb98" data-q="PUNJAB" data-r="MANSA"><title>PUNJAB - MANSA: Census 2011 Total Rural Households = 115,334. Census 2011 Households with toilets = 72,554. Census 2001 Total Rural Households = 93,729. Census 2001 Households with toilets = 42,458. Difference between Census 2011 Households with toilets and Census 2001 Households with toilets = 17.6%</title></circle><circle class="distCircs" cx="372.19134094467853" cy="125.5128496040897" r="2.6930600913643983" stroke="#000" stroke-width="0.25" fill="#93ce8a" data-q="PUNJAB" data-r="MOGA"><title>PUNJAB - MOGA: Census 2011 Total Rural Households = 145,530. Census 2011 Households with toilets = 124,316. Census 2001 Total Rural Households = 121,818. Census 2001 Households with toilets = 75,232. Difference between Census 2011 Households with toilets and Census 2001 Households with toilets = 23.7%</title></circle><circle class="distCircs" cx="361.2936975949548" cy="134.21770794716474" r="2.655498771648474" stroke="#000" stroke-width="0.25" fill="#c4e4a2" data-q="PUNJAB" data-r="MUKTSAR"><title>PUNJAB - MUKTSAR: Census 2011 Total Rural Households = 122,957. Census 2011 Households with toilets = 88,889. Census 2001 Total Rural Households = 100,676. Census 2001 Households with toilets = 59,750. Difference between Census 2011 Households with toilets and Census 2001 Households with toilets = 12.9%</title></circle><circle class="distCircs" cx="385.9025410497049" cy="120.58036186144318" r="2.615101650467382" stroke="#000" stroke-width="0.25" fill="#6cbd78" data-q="PUNJAB" data-r="NAWANSHAHR"><title>PUNJAB - NAWANSHAHR: Census 2011 Total Rural Households = 102,297. Census 2011 Households with toilets = 68,308. Census 2001 Total Rural Households = 92,562. Census 2001 Households with toilets = 32,080. Difference between Census 2011 Households with toilets and Census 2001 Households with toilets = 32.1%</title></circle><circle class="distCircs" cx="389.9385368457423" cy="133.2398647246983" r="2.776322977459343" stroke="#000" stroke-width="0.25" fill="#4aad67" data-q="PUNJAB" data-r="PATIALA"><title>PUNJAB - PATIALA: Census 2011 Total Rural Households = 209,720. Census 2011 Households with toilets = 162,148. Census 2001 Total Rural Households = 201,550. Census 2001 Households with toilets = 75,960. Difference between Census 2011 Households with toilets and Census 2001 Households with toilets = 39.6%</title></circle><circle class="distCircs" cx="391.71606584004917" cy="123.1388585549247" r="2.6013426551736045" stroke="#000" stroke-width="0.25" fill="#7cc480" data-q="PUNJAB" data-r="RUPNAGAR"><title>PUNJAB - RUPNAGAR: Census 2011 Total Rural Households = 96,022. Census 2011 Households with toilets = 54,595. Census 2001 Total Rural Households = 130,279. Census 2001 Households with toilets = 36,816. Difference between Census 2011 Households with toilets and Census 2001 Households with toilets = 28.6%</title></circle><circle class="distCircs" cx="393.0865129748389" cy="128.87730066448808" r="2.5689093262704907" stroke="#000" stroke-width="0.25" fill="#eee" data-q="PUNJAB" data-r="S.A.S NAGAR"><title>PUNJAB - S.A.S NAGAR: Census 2011 Total Rural Households = 82,601. Census 2011 Households with toilets = 50,179. Census 2001 Total Rural Households = NaN. Census 2001 Households with toilets = 0. Difference between Census 2011 Households with toilets and Census 2001 Households with toilets = NaN%</title></circle><circle class="distCircs" cx="383.3220706375494" cy="134.5773682304507" r="2.782477085885523" stroke="#000" stroke-width="0.25" fill="#83c783" data-q="PUNJAB" data-r="SANGRUR"><title>PUNJAB - SANGRUR: Census 2011 Total Rural Households = 215,367. Census 2011 Households with toilets = 169,182. Census 2001 Total Rural Households = 242,490. Census 2001 Households with toilets = 124,746. Difference between Census 2011 Households with toilets and Census 2001 Households with toilets = 27.1%</title></circle><circle class="distCircs" cx="368.6310481939696" cy="118.6264353815053" r="2.7348680532942264" stroke="#000" stroke-width="0.25" fill="#eee" data-q="PUNJAB" data-r="TARN TARAN"><title>PUNJAB - TARN TARAN: Census 2011 Total Rural Households = 175,080. Census 2011 Households with toilets = 113,465. Census 2001 Total Rural Households = NaN. Census 2001 Households with toilets = 0. Difference between Census 2011 Households with toilets and Census 2001 Households with toilets = NaN%</title></circle></g></g></svg>