<?xml version="1.0" standalone="no"?><!DOCTYPE svg PUBLIC "-//W3C//DTD SVG 1.1//EN" "http://www.w3.org/Graphics/SVG/1.1/DTD/svg11.dtd"><svg id="chart" width="960" height="500" class="dorlingCart" data-type="dorlingCart" version="1.1" xmlns:xlink="http://www.w3.org/1999/xlink" xmlns="http://www.w3.org/2000/svg"><defs class="svg-crowbar"><style type="text/css"><![CDATA[.feature{ fill: #fcfcfc; stroke: #000000; stroke-width: 0.2px; cursor: pointer; }]]></style></defs>
<g><g transform="translate(-1199.6082763671875,-1499.8489990234375)scale(4,4)">
<path class="feature auto" data-q="TAMIL NADU" d="M391.46523104070434,427.6277533789955L391.6802521921527,427.446099803L391.76626065273194,427.40068516683846L391.89527334360105,427.30985440295404L391.9812818041805,427.2190216494003L392.15329872533925,427.12818690507197L392.28231141620836,427.03735016886463L392.41132410707746,426.9919310534607L392.5833410282362,427.03735016886463L392.7123537191053,427.08276878602214L392.7983621796848,427.2190216494003L392.8413664099744,427.3552700335358L392.88437064026425,427.446099803L392.88437064026425,427.5369275844516L392.9273748705539,427.5823407300177L392.9273748705539,427.71857718773583L392.9703791008435,427.8093990117776L392.9703791008435,427.9002188522242L393.056387561423,428.0818525867497L393.056387561423,428.1272597823595L393.0993917917126,428.2180726889186L393.14239602200223,428.30888361685015L393.3574171734506,428.3996925672582L393.44342563403006,428.3996925672582L393.615442555189,428.3996925672582L393.70145101576827,428.3542883391757L393.78745947634775,428.3542883391757L393.91647216721685,428.3542883391757L394.04548485808573,428.3996925672582L394.17449754895483,428.44509630123594L394.30351023982394,428.4904995412462L394.4755271609829,428.53590228742735L394.6475440821416,428.53590228742735L394.8625652335902,428.4904995412462L395.0345821547487,428.4904995412462L395.20659907590766,428.4904995412462L395.421620227356,428.4904995412462L395.593637148515,428.4904995412462L395.7656540696737,428.4904995412462L395.98067522112206,428.4904995412462L396.19569637257064,428.44509630123594L396.45372175430884,428.44509630123594L396.6257386754676,428.4904995412462L396.7977555966263,428.4904995412462L397.05578097836474,428.53590228742735L397.09878520865436,428.53590228742735L397.1847936692336,428.4904995412462L397.22779789952347,428.3996925672582L397.22779789952347,428.30888361685015L397.22779789952347,428.0364448960695L397.22779789952347,427.5369275844516L397.3138063601027,427.2190216494003L397.3998148206822,427.03735016886463L397.48582328126145,426.7648279979152L397.70084443271,426.3560110445919L397.7868528932895,426.2651573327806L397.82985712357913,426.0834439009044L398.08788250531734,425.9471535654196L398.1738909658968,425.90172245064844L398.3459078870553,425.85629083417496L399.2059924928494,425.7654260955693L399.3350051837185,425.67455934849534L399.5930305654565,425.6291252214372L399.8080517169051,425.6291252214372L399.89406017748456,425.67455934849534L400.02307286835367,425.71999297316006L400.0660770986433,425.81085871586157L400.15208555922254,425.9471535654196L400.1950897895124,426.0380142904092L400.28109825009165,426.17430161858715L400.3241024803815,426.3560110445919L400.3671067106711,426.4922878602615L400.410110940961,426.6285601767918L400.4961194015402,426.71940589013343L400.5391236318301,426.7648279979152L400.62513209240933,426.8102496066218L400.75414478327843,426.8102496066218L400.8831574741473,426.8102496066218L400.9691659347268,426.7648279979152L401.05517439530627,426.58313657095573L401.0981786255959,426.446862755127L401.14118285588575,426.31058443891504L401.27019554675485,426.0834439009044L401.3562040073341,426.0380142904092L401.39920823762395,425.9471535654196L401.52822092849306,425.90172245064844L401.65723361936193,425.85629083417496L401.95826323139,425.81085871586157L402.0872759222591,425.85629083417496L402.17328438283835,425.85629083417496L402.30229707370745,425.85629083417496L402.56032245544566,425.6291252214372L402.68933514631476,425.5382554595855L402.8613520674735,425.40194704539607L402.94736052805274,425.40194704539607L403.0333689886322,425.40194704539607L403.1193774492117,425.40194704539607L403.2483901400808,425.40194704539607L403.42040706123953,425.40194704539607L403.5064155218188,425.40194704539607L403.59242398239826,425.4473836864986L403.72143667326736,425.4928198245157L403.7644409035572,425.5382554595855L403.85044936413647,425.6291252214372L403.93645782471594,425.7654260955693L404.0224662852954,425.81085871586157L404.1084747458747,425.85629083417496L404.2374874367438,425.85629083417496L404.3665001276129,425.81085871586157L404.495512818482,425.81085871586157L404.6675297396407,425.7654260955693L404.7965424305098,425.7654260955693L404.9255551213789,425.7654260955693L405.09757204253765,425.81085871586157L405.5706185757242,425.81085871586157L405.74263549688294,425.81085871586157L405.87164818775204,425.81085871586157L406.043665108911,425.7654260955693L406.1726777997801,425.67455934849534L406.25868626035935,425.5836905918467L406.25868626035935,425.4928198245157L406.25868626035935,425.40194704539607L406.34469472093883,425.12931662622987L406.34469472093883,425.0384357888805L406.34469472093883,424.9021107500238L406.4307031815183,424.674892255142L406.4737074118077,424.4931083621553L406.5167116420978,424.356765129966L406.6027201026768,424.22041734009133L406.6887285632565,424.0840649887896L406.77473702383577,423.9022547516987L407.2907877873122,423.4022346798622L407.4198004781813,423.35677525654205L407.59181739934,423.2203939292654L407.76383432049875,423.084008013102L408.0648639325268,423.0385450206472L408.3228893142648,422.94761750430473L408.66692315658247,422.9930815177609L408.8389400777412,422.9930815177609L408.9679527686103,423.0385450206472L409.0969654594792,423.084008013102L409.2259781503483,423.084008013102L409.39799507150724,423.084008013102L409.6990246835351,422.90215298013885L409.8280373744042,422.7657563419996L410.129066986432,422.4020094678122L410.2580796773011,422.129177796294L410.30108390759074,421.9018039580559L410.3440881378806,421.7653734893796L410.3440881378806,421.53797908664967L410.30108390759074,421.3560542950132L410.30108390759074,421.2196052882647L410.2150754470115,421.08315163761085L410.04305852585253,420.90120620639493L410.00005429556313,420.76474170535414L409.9570500652735,420.6737627846553L409.9140458349834,420.582781793319L409.871041604694,420.35532024863403L409.8280373744042,420.17334167831336L409.7420289138247,420.0368522995566L409.65602045324545,419.9003582443215L409.57001199266597,419.8093596075977L409.39799507150724,419.6728577498732L409.31198661092776,419.5363512056386L409.18297392005866,419.3998399711311L409.05396122918955,419.30882987389316L408.7959358474516,419.26332404258676L408.6239189262926,419.30882987389316L408.4949062354235,419.3543351833616L408.0648639325268,419.3998399711311L407.89284701136785,419.4453442373407L407.80683855078837,419.49084798213016L407.67782585991927,419.6273560893708L407.50580893876054,419.71835888965217L407.33379201760204,419.8093596075977L407.1617750964431,419.8548591860424L406.9467539449945,419.8548591860424L406.73173279354614,419.8093596075977L406.5167116420978,419.8093596075977L406.34469472093883,419.8093596075977L406.1296735694905,419.6728577498732L406.043665108911,419.6273560893708L405.9576566483315,419.4453442373407L405.9146524180419,419.26332404258676L406.0006608786214,419.0812954961858L406.0866693392006,418.94476860024804L406.25868626035935,418.85374805508513L406.4307031815183,418.7627254169894L406.6457243329669,418.6717006848452L407.0757666358636,418.48964493394647L407.33379201760204,418.35309761559233L407.59181739934,418.2165455743253L407.8498427810782,417.9434273079753L407.9358512416577,417.8979057566453L408.02185970223695,417.6702901047357L408.02185970223695,417.533714392354L408.0648639325268,417.3516060599135L408.10786816281643,417.21501926874214L408.1938766233957,416.7596956067228L408.23688085368553,416.6230881861409L408.3228893142648,416.44093753695313L408.3658935445544,416.3043189788568L408.4949062354235,415.848889245244L408.53791046571314,415.71224994861547L408.53791046571314,415.5756058560909L408.53791046571314,415.48450712815463L408.4949062354235,415.39340626590774L408.4519020051339,415.34785503406795L408.3658935445544,415.34785503406795L408.3228893142648,415.34785503406795L408.23688085368553,415.39340626590774L408.15087239310606,415.5300567588416L408.0648639325268,415.5756058560909L407.9788554719473,415.5756058560909L407.89284701136785,415.5756058560909L407.80683855078837,415.5756058560909L407.7208300902091,415.5300567588416L407.7208300902091,415.48450712815463L407.76383432049875,415.34785503406795L407.89284701136785,415.30230326823L407.9358512416577,415.21119813400026L407.9358512416577,415.1200908620981L407.89284701136785,414.9834259436555L407.80683855078837,414.9834259436555L407.67782585991927,414.93786990079025L407.59181739934,414.89231332266615L407.59181739934,414.75564037533667L407.63482162962964,414.5278414115207L407.67782585991927,414.254464948205L407.80683855078837,413.75322450018507L407.9788554719473,413.2974947853594L408.0648639325268,413.1151877785969L408.15087239310606,412.97845184485556L408.1938766233957,412.8417110394671L408.27988508397516,412.7505477941985L408.4088977748445,412.704965358639L408.53791046571314,412.61379886096785L408.7099273868721,412.5682147985748L408.8389400777412,412.52263019362266L408.9679527686103,412.4314593554793L409.13996968976926,412.3402863454126L409.2259781503483,412.24911116229725L409.3549908412176,412.1579338050083L410.00005429556313,411.6108239406101L410.2580796773011,411.42843654139665L410.3440881378806,411.3372395658947L410.4731008287497,411.2460404049609L410.6021135196188,411.1548390574689L410.7741304407773,410.9724297983031L410.7741304407773,410.8356171058326L410.81713467106715,410.6531925111777L410.81713467106715,410.56197692358796L410.860138901357,410.2883169862381L410.90314313164663,410.1058660379102L411.07516005280536,409.9690220504483L411.46219812541267,409.8321731077131L411.5912108162818,409.78655569163783L411.72022350715065,409.7409377244122L411.84923619801975,409.7409377244122L411.93524465859923,409.7409377244122L412.06425734946833,409.8321731077131L412.19327004033744,409.8777899727793L412.36528696149617,409.9690220504483L412.49429965236527,410.06025192577374L412.6233123432344,410.06025192577374L412.7523250341035,410.1058660379102L412.83833349468296,410.1514795998836L412.96734618555206,410.1970926118359L413.09635887642094,410.2427050739068L413.1823673370004,410.33392834897086L413.26837579757967,410.379539162246L413.35438425815914,410.4707591409866L413.4403927187386,410.4707591409866L413.61240963989735,410.4707591409866L413.69841810047683,410.4707591409866L413.82743079134593,410.379539162246L414.214468863953,410.0146372633334L414.25747309424287,409.9234062869773L414.386485785112,409.8321731077131L414.4724942456912,409.8321731077131L414.6445111668502,409.8321731077131L414.7735238577193,409.8777899727793L414.945540778878,409.9690220504483L415.03154923945726,410.06025192577374L415.2035661606162,410.1970926118359L415.3325788514851,410.33392834897086L415.4615915423544,410.4707591409866L415.59060423322353,410.60758499168907L415.76262115438226,410.74440590488354L415.89163384525114,410.8356171058326L416.1066549966997,410.92682611515227L416.40768460872755,411.10923756341174L416.4506888390174,411.10923756341174L416.5797015298863,411.1548390574689L416.7087142207554,411.2004400046052L416.8377269116245,411.2004400046052L416.92373537220396,411.2004400046052L417.05274806307307,411.2004400046052L417.13875652365255,411.1548390574689L417.26776921452165,411.1548390574689L417.31077344481105,411.1548390574689L417.3537776751011,411.1548390574689L417.39678190539075,411.2004400046052L417.39678190539075,411.3372395658947L417.39678190539075,411.38283832675427L417.3537776751011,411.519631332593L417.31077344481105,411.6108239406101L417.2247649842318,411.7020143665744L417.05274806307307,411.838795916635L416.9667396024938,411.8843886768483L416.9667396024938,411.9755725634095L416.9667396024938,412.02116369003875L416.9667396024938,412.11234431069755L417.00974383278344,412.2035227554946L417.05274806307307,412.24911116229725L417.13875652365255,412.24911116229725L417.2247649842318,412.24911116229725L417.31077344481105,412.24911116229725L417.39678190539075,412.2035227554946L417.48279036597023,412.1579338050083L417.6118030568391,412.11234431069755L417.7408157477082,412.11234431069755L417.8698284385773,412.066754272421L417.95583689915657,412.11234431069755L418.04184535973604,412.1579338050083L418.0848495900259,412.2035227554946L418.1708580506054,412.29469902555616L418.213862280895,412.4314593554793L418.2568665111846,412.47704504597107L418.38587920205373,412.6593823809425L418.55789612321246,412.796129687761L418.68690881408133,412.8872918494585L418.81592150495067,412.9328721178738L418.94493419581977,413.0240310305422L419.0739468866889,413.06960967507655L419.2459638078476,413.06960967507655L419.41798072900633,413.1151877785969L419.5899976501653,413.1151877785969L419.80501880161364,413.06960967507655L419.97703572277237,413.06960967507655L420.1490526439311,413.06960967507655L420.32106956509006,413.0240310305422L420.4930864862488,412.9328721178738L420.62209917711766,412.796129687761L420.75111186798676,412.61379886096785L420.83712032856647,412.52263019362266L420.9231287891455,412.3402863454126L420.9231287891455,412.1579338050083L421.009137249725,412.066754272421L421.0521414800148,411.9755725634095L421.22415840117355,411.9755725634095L421.35317109204266,411.9755725634095L421.5251880132016,411.8843886768483L421.69720493436034,411.7476087616386L421.9122260858087,411.5652279094286L422.12724723725705,411.38283832675427L422.3852726189955,411.01803293396966L422.557289540154,410.6987994821959L422.60029377044384,410.5163683067342L422.64329800073347,410.2883169862381L422.64329800073347,410.1058660379102L422.64329800073347,409.8777899727793L422.64329800073347,409.6953192058957L422.77231069160257,409.42159650977635L422.8153149218922,409.3303511943421L422.8153149218922,409.19347907662586L422.8583191521818,408.9653478188494L422.8583191521818,408.78283284703593L422.9013233824717,408.55467666044575L422.98733184305115,408.32650659979095L423.07334030363063,408.052684188366L423.2023529944995,407.7788417423109L423.288361455079,407.68755646953946L423.4603783762377,407.59626896617226L423.6753995276863,407.4593335262792L423.7614079882658,407.3223930611774L423.847416448845,407.1854475670483L424.0624376002934,407.0484970400679L424.105441830583,406.9115414764152L424.1484460608731,406.86588850194266L424.2344545214521,406.7745808722662L424.3634672123212,406.6832710006697L424.4494756729007,406.63761522379787L424.66449682434927,406.63761522379787L424.836513745508,406.63761522379787L425.05153489695635,406.5919588860209L425.13754335753583,406.5919588860209L425.43857296956367,406.63761522379787L425.6105898907226,406.5919588860209L426.9867252599927,406.2723488043431L427.07273372057216,406.2723488043431L427.20174641144126,406.2723488043431L427.4167675628896,406.3180090724217L427.5027760234691,406.40932792303005L427.5457802537587,406.5006445271853L427.5457802537587,406.63761522379787L427.5027760234691,406.8202349672739L427.45977179317947,407.0484970400679L427.5027760234691,407.1397979507824L427.58878448404835,407.1854475670483L427.71779717491745,407.2310966241083L427.8468098657868,407.2310966241083L428.0188267869455,407.2310966241083L428.19084370810424,407.2310966241083L428.4058648595526,407.27674512210433L428.6208860110012,407.3223930611774L428.7498987018703,407.3223930611774L429.0079240836085,407.27674512210433L429.3949621562158,407.2310966241083L429.60998330766415,407.1854475670483L429.7820002288231,407.09414777516963L429.95401714998184,407.0484970400679L430.12603407114057,406.9115414764152L430.47006791345825,406.6832710006697L430.5130721437479,406.6832710006697L430.59908060432736,406.63761522379787L430.6850890649066,406.72892621677863L430.72809329519623,406.8202349672739L430.77109752548586,407.0028457453359L430.9431144466448,407.27674512210433L431.02912290722406,407.3223930611774L431.201139828383,407.4136872631235L431.6741863615698,407.4593335262792L431.76019482214883,407.4593335262792L431.9322117433078,407.4136872631235L432.1042286644665,407.3223930611774L432.27624558562525,407.2310966241083L432.448262506784,407.1397979507824L432.4912667370736,407.09414777516963L432.5772751976531,406.9571938908324L432.66328365823256,406.8202349672739L432.74929211881204,406.6832710006697L432.79229634910166,406.5919588860209L432.8353005793913,406.40932792303005L432.92130903997077,405.95271118278083L432.9643132702604,405.81571518805663L432.9643132702604,405.6787141222277L432.9643132702604,405.58737725916995L433.00731750055,405.541707981464L433.13633019141935,405.4503677329893L433.3513513428677,405.49603813945134L433.4373598034472,405.541707981464L433.6093767246059,405.724381707863L433.738389415475,405.81571518805663L433.8674021063441,405.86138108289856L434.0394190275026,405.86138108289856L434.16843171837195,405.81571518805663L434.2114359486616,405.724381707863L434.2544401789514,405.6787141222277L434.2544401789514,405.63304597271053L434.29744440924105,405.541707981464L434.29744440924105,405.4503677329893L434.3404486395307,405.3590252261512L434.4694613303998,405.26768045981424L434.5984740212689,405.26768045981424L434.68448248184836,405.22200722897935L434.7704909424276,405.13065907126594L434.8564994030071,405.03930865121566L434.8995036332967,404.9022787767748L435.0285163241658,404.7652438056879L435.1575290150349,404.6282037341209L435.286541705904,404.58252257616255L435.3725501664835,404.5368408509163L435.45855862706276,404.445475697991L435.45855862706276,404.354108274209L435.45855862706276,404.26273857843364L435.41555439677313,404.1713666095282L435.3725501664835,404.07999236635567L435.2435374756142,403.94292673485916L435.20053324532455,403.8058559798661L435.20053324532455,403.66878009753736L435.20053324532455,403.57739332556935L435.1575290150349,403.4860042719414L435.0285163241658,403.34891641089825L434.8995036332967,403.3032193151545L434.81349517271747,403.2118234097194L434.81349517271747,403.12042521807257L434.727486712138,402.9833236414639L434.7704909424276,402.84621691447427L434.8564994030071,402.84621691447427L434.9855120938762,402.800513526951L435.1145247847451,402.70910503325945L435.2435374756142,402.6633999268072L435.45855862706276,402.6633999268072L435.6305755482215,402.5262811673126L435.8455966996703,402.48057376696147L435.9746093905392,402.5719879939761L436.0176136208288,402.6633999268072L436.18963054198775,402.89191972930615L436.31864323285663,403.02902473907506L436.36164746314626,403.12042521807257L436.44765592372573,403.2575216481425L436.5336643843052,403.34891641089825L436.57666861459506,403.44030888914926L436.6626770751741,403.531699084034L436.70568130546394,403.6230869966895L436.74868553575357,403.66878009753736L436.8776982266229,403.7144726282545L437.0067109174918,403.7601645889829L437.1357236083609,403.7601645889829L437.2647362992302,403.8058559798661L437.39374899009886,403.8515468010447L437.5227616809682,403.8058559798661L437.73778283241654,403.7144726282545L437.9528039838651,403.7144726282545L438.1678251353137,403.7144726282545L438.33984205647243,403.6230869966895L438.5548632079208,403.57739332556935L438.64087166850027,403.57739332556935L438.76988435936937,403.57739332556935L438.8988970502385,403.6230869966895L439.0709139713972,403.8515468010447L439.11391820168683,404.2170528781935L439.1999266622663,404.354108274209L439.37194358342504,404.445475697991L439.50095627429437,404.5368408509163L439.75898165603235,404.71956434874136L439.88799434690145,404.7652438056879L440.0600112680602,404.9022787767748L440.23202818921914,404.8566010195623L440.3180366497984,404.8566010195623L440.40404511037787,404.7652438056879L440.4470493406675,404.6738843249331L440.4470493406675,404.5368408509163L440.4470493406675,404.39979227002846L440.40404511037787,404.3084237103918L440.3180366497984,404.1713666095282L440.14601972863966,403.98861584777933L439.8449901166118,403.7601645889829L439.801985886322,403.66878009753736L439.7159774257427,403.57739332556935L439.7159774257427,403.4860042719414L439.75898165603235,403.34891641089825L439.8449901166118,403.2575216481425L439.9309985771913,403.16612459974385L440.0600112680602,403.12042521807257L440.3180366497984,403.12042521807257L440.4470493406675,403.12042521807257L440.61906626182645,403.16612459974385L440.74807895269555,403.2118234097194L440.8770916435644,403.2118234097194L441.00610433443353,403.16612459974385L441.17812125559226,403.12042521807257L441.52215509790994,402.93762197158856L441.9952016310965,402.6633999268072L442.2102227825451,402.4348657927791L442.29623124312434,402.25202815489314L442.3392354734142,402.1148938942748L442.42524393399344,401.9320401631983L442.4682481642833,401.79489382221345L442.5112523945729,401.65774229751514L442.5112523945729,401.4748655277084L442.55425662486255,401.4291448931974L442.6402650854418,401.4291448931974L442.7692777763109,401.4748655277084L442.81228200660075,401.52058558525323L443.371337000367,401.1548089618509L443.4143412306564,401.0633590292048L443.45734546094604,400.880452223768L443.45734546094604,400.7889953486936L443.45734546094604,400.6975361571929L443.5003496912359,400.5146108203438L443.5433539215255,400.4231446727109L443.5863581518154,400.2859410990385L443.629362382105,399.96577909676034L443.6723666123946,399.87429900601273L443.7153708426845,399.6913318398146L443.80137930326373,399.64558859228407L443.93039199413283,399.50835535305447L444.05940468500216,399.4168636116045L444.1884173758708,399.4168636116045L444.2744258364503,399.4168636116045L444.36043429702977,399.4626097739547L444.4034385273196,399.50835535305447L444.5324512181885,399.737074504809L444.618459678768,399.8285580877654L444.7474723696371,399.9200393422967L444.83348083021656,399.96577909676034L445.00549775137506,400.01151826954685L445.09150621195477,400.05725686079836L445.177514672534,400.1029948706582L445.26352313311327,400.14873229926934L445.34953159369275,400.19446914677417L445.47854428456185,400.2859410990385L445.5215485148517,400.2859410990385L445.6075569754307,400.331676204083L445.7795738965897,400.3774107285925L445.9515908177484,400.4231446727109L445.99459504803826,400.4231446727109L446.166611969197,400.4688780365803L446.2956246600661,400.5146108203438L446.33862889035595,400.5146108203438L446.5106458115147,400.5146108203438L446.63965850238355,400.5603430241439L446.8116754235423,400.60607464812364L446.89768388412176,400.60607464812364L446.98369234470124,400.5603430241439L447.11270503557034,400.4688780365803L447.24171772643945,400.5603430241439L447.5857515687569,400.97190678355776L447.714764259626,401.1090842845819L447.88678118078474,401.3377018927058L447.88678118078474,401.4291448931974L447.9297854110746,401.52058558525323L447.9297854110746,401.61202397001375L447.9727896413642,401.7034600486201L448.01579387165384,402.2977384258231L448.01579387165384,402.3891572446237L448.0587981019437,402.5262811673126L448.0587981019437,402.70910503325945L448.0587981019437,402.84621691447427L448.1018023322333,402.9833236414639L448.1018023322333,403.074725264564L448.1018023322333,403.2118234097194L448.1018023322333,403.34891641089825L448.1018023322333,403.6230869966895L448.1018023322333,403.8515468010447L448.1018023322333,403.98861584777933L448.0587981019437,404.1256797722964L448.01579387165384,404.2170528781935L447.9727896413642,404.5368408509163L447.9727896413642,404.6738843249331L447.9297854110746,404.7652438056879L447.9297854110746,404.99363259245956L447.88678118078474,405.22200722897935L447.8437769504951,405.31335312549106L447.8007727202055,405.49603813945134L447.75776848991586,405.63304597271053L447.714764259626,405.724381707863L447.62875579904653,405.86138108289856L447.5857515687569,406.1353646273103L447.5857515687569,406.36366877860337L447.62875579904653,406.40932792303005L447.6717600293364,406.5006445271853L447.62875579904653,406.63761522379787L447.62875579904653,406.72892621677863L447.5857515687569,406.7745808722662L447.54274733846705,406.86588850194266L447.4997431081774,406.9571938908324L447.4137346475984,407.09414777516963L447.2847219567291,407.27674512210433L447.1987134961496,407.4593335262792L447.1987134961496,407.5506243776618L447.1987134961496,407.68755646953946L447.1987134961496,407.7788417423109L447.1987134961496,407.87012478561815L447.1987134961496,408.00704517280866L447.15570926585997,408.09832264740555L447.11270503557034,408.2808709212179L446.98369234470124,408.7372027187947L446.98369234470124,408.87409144088986L446.9406881144116,408.9653478188494L446.9406881144116,409.1022282334588L446.9406881144116,409.2391036686611L446.85467965383214,409.6040805144238L446.85467965383214,409.6953192058957L446.8116754235423,409.8321731077131L446.76867119325266,409.9234062869773L446.76867119325266,409.9690220504483L446.76867119325266,410.06025192577374L446.76867119325266,410.1058660379102L446.8116754235423,410.1514795998836L446.8116754235423,410.1970926118359L446.85467965383214,410.2883169862381L446.85467965383214,410.379539162246L446.8116754235423,410.42514942620414L446.76867119325266,410.5163683067342L446.85467965383214,410.6531925111777L446.85467965383214,410.74440590488354L446.85467965383214,410.7900117793819L446.89768388412176,410.8356171058326L446.9406881144116,410.92682611515227L446.98369234470124,411.06363552229203L446.9406881144116,411.2460404049609L446.89768388412176,411.2916402586772L446.85467965383214,411.38283832675427L446.8116754235423,411.42843654139665L446.76867119325266,411.47403420996244L446.6826627326734,411.6108239406101L446.63965850238355,411.7020143665744L446.63965850238355,411.79320261161183L446.63965850238355,411.8843886768483L446.63965850238355,411.9755725634095L446.4676415812248,412.3402863454126L446.4246373509352,412.47704504597107L446.2956246600661,412.7505477941985L446.25262042977647,412.97845184485556L446.20961619948685,413.1151877785969L446.20961619948685,413.2519188444857L446.0806035086175,413.47979314715224L446.0806035086175,413.57093908899424L446.0375992783279,413.707653956098L446.0375992783279,413.79879450536606L445.99459504803826,413.8899328995707L445.9515908177484,414.07220322727903L445.9515908177484,414.1633351630287L445.86558235716916,414.254464948205L445.73656966630006,414.6645223982515L445.6505612057208,414.89231332266615L445.6075569754307,414.9834259436555L445.5645527451413,415.1200908620981L445.5645527451413,415.2567509682541L445.47854428456185,415.5756058560909L445.4355400542722,415.62115442004335L445.39253582398237,415.666702450838L445.3065273634031,415.666702450838L445.26352313311327,415.666702450838L445.177514672534,415.666702450838L445.1345104422444,415.62115442004335L445.09150621195477,415.5756058560909L445.0485019816649,415.5300567588416L444.96249352108566,415.48450712815463L444.87648506050596,415.48450712815463L444.79047659992693,415.4389569638899L444.70446813934745,415.4389569638899L444.6614639090576,415.39340626590774L444.618459678768,415.39340626590774L444.5324512181885,415.34785503406795L444.4894469878989,415.30230326823L444.4034385273196,415.30230326823L444.36043429702977,415.34785503406795L444.31743006674014,415.39340626590774L444.36043429702977,415.48450712815463L444.44644275760925,415.5300567588416L444.5324512181885,415.5756058560909L444.5754554484781,415.5756058560909L444.6614639090576,415.62115442004335L444.83348083021656,415.71224994861547L444.9194892907956,415.75779691351545L445.0485019816649,415.848889245244L445.09150621195477,415.89443461235277L445.09150621195477,415.9855237497585L445.1345104422444,416.0766107590153L445.09150621195477,416.2587783975631L445.09150621195477,416.3043189788568L445.0485019816649,416.34985902909307L445.00549775137506,416.44093753695313L444.96249352108566,416.4864759948565L444.87648506050596,416.5775513193106L444.87648506050596,416.66862452289297L444.83348083021656,416.7596956067228L444.79047659992693,416.80523035408044L444.7474723696371,416.8507645719193L444.6614639090576,417.0328961508861L444.5324512181885,417.21501926874214L444.44644275760925,417.3516060599135L444.36043429702977,417.4426612812566L444.1024089152918,417.9434273079753L444.05940468500216,418.034468832701L444.0164004547121,418.12550825444555L443.8873877638432,418.35309761559233L443.84438353355335,418.44412968569725L443.80137930326373,418.5351596578462L443.7583750729741,418.6261875331562L443.629362382105,418.8082369977234L443.5863581518154,418.8992585892135L443.5003496912359,418.9902780883289L443.45734546094604,419.0812954961858L443.2423243094977,419.4453442373407L443.2423243094977,419.49084798213016L443.1563158489182,419.6273560893708L443.07030738833896,419.763859508847L442.94129469746986,419.9458567825741L442.81228200660075,420.1278457381043L442.7262735460213,420.17334167831336L442.68326931573165,420.26433200129816L442.6402650854418,420.30982638435273L442.5112523945729,420.4463064214346L442.42524393399344,420.582781793319L442.3392354734142,420.6737627846553L442.081210091676,421.03766605476494L441.56515932819934,421.9472797529553L441.3501381767512,422.2201237381539L441.30713394646136,422.3110676282895L441.26412971617174,422.4020094678122L441.26412971617174,422.49294925783374L441.13511702530263,422.7657563419996L441.00610433443353,423.0385450206472L440.8340874132746,423.0385450206472L440.7910831829852,423.0385450206472L440.6620704921161,423.0385450206472L440.5760620315366,423.0385450206472L440.4900535709571,423.0385450206472L440.361040880088,422.94761750430473L440.27503241950876,422.8566879451257L440.1890239589293,422.8112223991254L440.1030154983498,422.6748226938164L440.0600112680602,422.5384183846288L440.0170070377703,422.4474796189412L439.9740028074807,422.3110676282895L439.88799434690145,422.174651023759L439.801985886322,422.08370405562016L439.75898165603235,422.0382298015985L439.67297319545287,422.0382298015985L439.5869647348736,422.0382298015985L439.543960504584,422.08370405562016L439.50095627429437,422.129177796294L439.4579520440045,422.2201237381539L439.4149478137149,422.3110676282895L439.4149478137149,422.49294925783374L439.3289393531354,422.5838869994644L439.1569224319767,422.7657563419996L439.11391820168683,422.8566879451257L439.0279097411076,422.94761750430473L438.9419012805281,422.94761750430473L438.8988970502385,422.94761750430473L438.8128885896592,422.90215298013885L438.72688012907975,422.8112223991254L438.6838758987899,422.7657563419996L438.64087166850027,422.629355102481L438.64087166850027,422.5384183846288L438.64087166850027,422.4474796189412L438.64087166850027,422.3565388043082L438.5978674382104,422.2201237381539L438.51185897763116,422.174651023759L438.4258505170517,422.174651023759L438.38284628676206,422.174651023759L438.25383359589296,422.2655959396178L438.21082936560333,422.3110676282895L438.1248209050241,422.3565388043082L437.995808214155,422.3565388043082L437.9097997535755,422.3565388043082L437.7807870627064,422.3565388043082L437.6947786021269,422.2655959396178L437.5657659112578,422.174651023759L437.47975745067833,422.174651023759L437.35074475980946,422.174651023759L437.30774052951983,422.3110676282895L437.30774052951983,422.4020094678122L437.39374899009886,422.49294925783374L437.47975745067833,422.629355102481L437.47975745067833,422.6748226938164L437.43675322038894,422.7657563419996L437.43675322038894,422.90215298013885L437.39374899009886,422.9930815177609L437.35074475980946,423.084008013102L437.2647362992302,423.1294704952644L437.22173206894036,423.3113153237613L437.30774052951983,423.4476935938614L437.35074475980946,423.49315199867806L437.47975745067833,423.5386098944507L437.5657659112578,423.4476935938614L437.6517743718373,423.35677525654205L437.7807870627064,423.2658548813822L437.86679552328565,423.1294704952644L437.9528039838651,422.94761750430473L438.0388124444446,422.8112223991254L438.1678251353137,422.8112223991254L438.2968378261828,422.8566879451257L438.38284628676206,422.94761750430473L438.4258505170517,423.084008013102L438.46885474734154,423.2658548813822L438.46885474734154,423.4022346798622L438.5978674382104,423.49315199867806L438.72688012907975,423.4022346798622L438.8128885896592,423.2658548813822L438.8988970502385,423.1749324672723L439.0279097411076,423.1749324672723L439.1569224319767,423.3113153237613L439.1999266622663,423.4476935938614L439.1999266622663,423.584067281318L439.1999266622663,423.72043638987725L439.11391820168683,423.76589174251126L438.9849055108177,423.85680092328334L438.85589281994885,423.9022547516987L438.6838758987899,423.9022547516987L438.5548632079208,423.9022547516987L438.4258505170517,423.85680092328334L438.1248209050241,423.9022547516987L437.995808214155,423.94770807231805L437.86679552328565,423.9931608852804L437.73778283241654,424.129516279613L437.6517743718373,424.17496706333395L437.60877014154767,424.2658671100231L437.5227616809682,424.356765129966L437.30774052951983,424.40221338025344L437.2647362992302,424.40221338025344L437.22173206894036,424.44766112427044L437.17872783865073,424.4931083621553L437.17872783865073,424.58400132008194L437.17872783865073,424.76578116844394L437.2647362992302,424.8566680610952L437.35074475980946,424.9021107500238L437.47975745067833,424.94755293420496L437.5657659112578,424.94755293420496L437.6517743718373,424.94755293420496L437.6517743718373,425.0384357888805L437.6947786021269,425.08387645965195L437.7807870627064,425.17475628875354L437.86679552328565,425.3565099010692L437.9528039838651,425.4928198245157L437.995808214155,425.5836905918467L438.0818166747342,425.5836905918467L438.1678251353137,425.5382554595855L438.21082936560333,425.3565099010692L438.21082936560333,425.2656341021897L438.21082936560333,425.08387645965195L438.1678251353137,425.0384357888805L438.0388124444446,424.94755293420496L438.0388124444446,424.81122486728157L438.0388124444446,424.7203369644432L438.0388124444446,424.6294470404008L438.21082936560333,424.58400132008194L438.2968378261828,424.5385550940462L438.33984205647243,424.44766112427044L438.46885474734154,424.44766112427044L438.5548632079208,424.4931083621553L438.5978674382104,424.58400132008194L438.6838758987899,424.674892255142L438.72688012907975,424.76578116844394L438.72688012907975,424.8566680610952L438.76988435936937,424.9929946137779L438.8128885896592,425.0384357888805L438.9419012805281,425.08387645965195L438.9849055108177,425.0384357888805L438.9849055108177,424.94755293420496L439.0279097411076,424.8566680610952L439.1569224319767,424.81122486728157L439.24293089255593,424.81122486728157L439.28593512284556,424.9021107500238L439.3289393531354,424.9929946137779L439.37194358342504,425.08387645965195L439.37194358342504,425.22019544736065L439.3289393531354,425.2656341021897L439.24293089255593,425.3110722533802L439.1569224319767,425.3565099010692L439.0709139713972,425.3565099010692L439.0709139713972,425.4928198245157L439.0709139713972,425.5836905918467L439.1569224319767,425.6291252214372L439.24293089255593,425.67455934849534L439.3289393531354,425.6291252214372L439.4149478137149,425.5382554595855L439.50095627429437,425.4473836864986L439.5869647348736,425.40194704539607L439.67297319545287,425.2656341021897L439.801985886322,425.22019544736065L439.88799434690145,425.22019544736065L440.0600112680602,425.3110722533802L440.1030154983498,425.3565099010692L440.23202818921914,425.4473836864986L440.3180366497984,425.4928198245157L440.40404511037787,425.5836905918467L440.4470493406675,425.71999297316006L440.40404511037787,425.81085871586157L440.361040880088,425.9471535654196L440.3180366497984,426.0834439009044L440.27503241950876,426.31058443891504L440.23202818921914,426.4014371499502L440.23202818921914,426.446862755127L440.14601972863966,426.5377124654917L440.14601972863966,426.71940589013343L440.0600112680602,427.03735016886463L440.0600112680602,427.08276878602214L440.0600112680602,427.2190216494003L440.0170070377703,427.40068516683846L440.0170070377703,427.446099803L439.9740028074807,427.49151394215806L439.9740028074807,427.6277533789955L439.9740028074807,427.67316553152205L439.9309985771913,427.8548091798813L439.9309985771913,427.94562802894484L439.9309985771913,428.0364448960695L439.88799434690145,428.1726664830363L439.8449901166118,428.26347840014375L439.8449901166118,428.3996925672582L439.801985886322,428.4904995412462L439.75898165603235,428.5813045399173L439.75898165603235,428.67210756437476L439.7159774257427,428.8083084018232L439.7159774257427,428.8991064955723L439.7159774257427,429.0352999421285L439.7159774257427,429.0806967731137L439.7159774257427,429.2168843143987L439.7159774257427,429.3076735502412L439.7159774257427,429.35306743107157L439.7159774257427,429.4438537192393L439.7159774257427,429.58002946982526L439.7159774257427,429.6254204054608L439.75898165603235,429.8523677306368L439.801985886322,429.943143231877L439.8449901166118,430.03391677543823L439.88799434690145,430.0793028134333L439.88799434690145,430.1700734225409L439.88799434690145,430.2608420767226L439.88799434690145,430.3516087770795L439.9309985771913,430.39699139491745L439.9309985771913,430.44237352471214L439.9740028074807,430.48775516660146L440.0170070377703,430.57851698721294L440.0170070377703,430.62389716621L440.0600112680602,430.6692768578524L440.1030154983498,430.71465606227616L440.14601972863966,430.76003477962007L440.1890239589293,430.8507907536172L440.23202818921914,430.9869210649498L440.3180366497984,431.07767217433343L440.40404511037787,431.1684213397971L440.40404511037787,431.21379519390234L440.40404511037787,431.3045414455482L440.40404511037787,431.34991384336297L440.40404511037787,431.395285756023L440.40404511037787,431.4406571836654L440.40404511037787,431.4860281264274L440.40404511037787,431.5313985844466L440.40404511037787,431.62213804680596L440.4470493406675,431.7128755718432L440.4900535709571,431.8036111606575L440.4900535709571,431.8489782293244L440.53305780124697,431.8943448143481L440.5760620315366,431.93971091586536L440.61906626182645,431.9850765340139L440.61906626182645,432.03044166893073L440.70507472240547,432.1665341756662L440.70507472240547,432.21189737903086L440.70507472240547,432.30262233826346L440.70507472240547,432.34798409440526L440.70507472240547,432.3933453684149L440.6620704921161,432.3933453684149L440.61906626182645,432.3933453684149L440.5760620315366,432.3933453684149L440.53305780124697,432.34798409440526L440.53305780124697,432.30262233826346L440.4900535709571,432.25726009985095L440.4470493406675,432.21189737903086L440.361040880088,432.1665341756662L440.3180366497984,432.21189737903086L440.27503241950876,432.21189737903086L440.27503241950876,432.25726009985095L440.1890239589293,432.25726009985095L440.1890239589293,432.30262233826346L440.1890239589293,432.34798409440526L440.1890239589293,432.3933453684149L440.27503241950876,432.4840664705846L440.3180366497984,432.4840664705846L440.40404511037787,432.4840664705846L440.53305780124697,432.57478564586995L440.61906626182645,432.6201445112745L440.6620704921161,432.66550289536985L440.74807895269555,432.8015751611739L440.7910831829852,432.89228760101327L440.8340874132746,433.02835265747296L440.8770916435644,433.25511815191885L441.04910856472316,433.98068728139515L441.13511702530263,434.5701222220623L441.2211254858819,435.1141446945555L441.30713394646136,435.47678842663476L441.39314240704084,436.1566639427621L441.39314240704084,437.0176876436958L441.26412971617174,437.5614049738809L441.2211254858819,437.7426291478296L441.17812125559226,437.69732380344885L441.092112795013,437.69732380344885L441.00610433443353,437.7426291478296L440.9631001041439,437.69732380344885L440.7910831829852,437.69732380344885L440.70507472240547,437.69732380344885L440.5760620315366,437.7426291478296L440.4900535709571,437.78793402636666L440.40404511037787,437.7426291478296L440.361040880088,437.69732380344885L440.3180366497984,437.6520179930882L440.23202818921914,437.5614049738809L440.14601972863966,437.5160977647612L440.1030154983498,437.5160977647612L439.9740028074807,437.5614049738809L439.88799434690145,437.6067117166111L439.801985886322,437.6067117166111L439.7159774257427,437.5614049738809L439.62996896516324,437.47079008911567L439.5869647348736,437.38017333770074L439.50095627429437,437.24424470822044L439.4579520440045,437.153623285402L439.3289393531354,437.10831187263386L439.28593512284556,437.10831187263386L439.1999266622663,437.10831187263386L439.11391820168683,437.24424470822044L439.11391820168683,437.33486426165837L439.1569224319767,437.6067117166111L439.1569224319767,437.7426291478296L439.1999266622663,437.87854238645616L439.1999266622663,438.0144514361757L439.1999266622663,438.1503563006721L439.1569224319767,438.3315562826866L439.11391820168683,438.42215348872867L438.9849055108177,438.42215348872867L438.85589281994885,438.3315562826866L438.76988435936937,438.2862569836289L438.6838758987899,438.37685511767427L438.64087166850027,438.4674513959856L438.5978674382104,438.51274883958206L438.46885474734154,438.5580458196538L438.46885474734154,438.64863838976964L438.46885474734154,438.69393398008606L438.5548632079208,438.73922910742385L438.6838758987899,438.78452377191854L438.8128885896592,438.8298179737068L438.8988970502385,438.8298179737068L439.0279097411076,438.8298179737068L439.11391820168683,438.87511171292556L439.28593512284556,438.96569780419685L439.3289393531354,438.96569780419685L439.4579520440045,439.01099015652244L439.5869647348736,439.05628204682364L439.7159774257427,439.146864441896L439.75898165603235,439.2827345727245L439.8449901166118,439.4186005526868L439.8449901166118,439.4638882908954L439.88799434690145,439.5544623854619L439.9309985771913,439.645034638468L439.9740028074807,439.735605051004L440.0600112680602,439.87145722130856L440.14601972863966,439.9620230374352L440.23202818921914,440.00730525668337L440.3180366497984,440.0978683182317L440.40404511037787,440.18842954475525L440.53305780124697,440.3242679462529L440.61906626182645,440.36954649708616L440.74807895269555,440.36954649708616L440.8770916435644,440.36954649708616L441.04910856472316,440.36954649708616L441.04910856472316,440.7317584293641L441.04910856472316,441.0939411231775L441.04910856472316,441.1844822362814L441.04910856472316,441.50136179131573L441.04910856472316,441.6824258199049L441.04910856472316,441.77295510968116L441.092112795013,441.95400824563166L441.092112795013,442.08979333872253L441.092112795013,442.22557435685525L441.092112795013,442.4518670082406L441.092112795013,442.5876371777456L441.092112795013,442.678148367459L441.092112795013,443.17592769293174L441.092112795013,443.80938637484553L441.17812125559226,444.8951116367612L441.3501381767512,445.9353581426286L441.39314240704084,446.8397305253186L441.39314240704084,447.20143030056056L441.4361466373307,447.3822696846713L441.4791508676203,447.51789463456157L441.52215509790994,447.6535156557661L441.52215509790994,447.74392748910043L441.52215509790994,448.01515253313346L441.52215509790994,448.10555739942185L441.52215509790994,448.15075918035006L441.4791508676203,448.28636191589214L441.4361466373307,448.3767615682338L441.30713394646136,448.5575556665276L441.26412971617174,448.60275310722363L441.17812125559226,448.647950114638L441.04910856472316,448.73834283016413L440.9631001041439,448.73834283016413L440.8340874132746,448.73834283016413L440.70507472240547,448.73834283016413L440.61906626182645,448.69314668890695L440.4900535709571,448.647950114638L440.40404511037787,448.5575556665276L440.3180366497984,448.5123577924154L440.27503241950876,448.46715948475253L440.1890239589293,448.3767615682338L440.14601972863966,448.3315619591081L439.9740028074807,448.1959605266479L439.801985886322,448.06035518372784L439.7159774257427,447.96994944750384L439.62996896516324,447.92474592670385L439.543960504584,447.8795419705986L439.4579520440045,447.834337579053L439.4149478137149,447.789132751932L439.3289393531354,447.789132751932L439.1999266622663,447.834337579053L439.1569224319767,447.8795419705986L439.0709139713972,447.92474592670385L438.9419012805281,447.96994944750384L438.85589281994885,447.92474592670385L438.8128885896592,447.92474592670385L438.76988435936937,447.834337579053L438.6838758987899,447.789132751932L438.5978674382104,447.74392748910043L438.5548632079208,447.6987217904234L438.4258505170517,447.6535156557661L438.33984205647243,447.6083090849933L438.25383359589296,447.6083090849933L438.1678251353137,447.6083090849933L438.1248209050241,447.56310207797003L438.0388124444446,447.6083090849933L437.995808214155,447.6083090849933L437.9528039838651,447.6535156557661L437.9528039838651,447.6987217904234L437.9528039838651,447.74392748910043L437.9528039838651,447.789132751932L438.0388124444446,447.834337579053L438.1248209050241,447.8795419705986L438.25383359589296,447.8795419705986L438.38284628676206,447.92474592670385L438.46885474734154,447.96994944750384L438.5548632079208,448.01515253313346L438.64087166850027,448.06035518372784L438.64087166850027,448.10555739942185L438.6838758987899,448.15075918035006L438.76988435936937,448.1959605266479L438.8988970502385,448.2411614384504L439.11391820168683,448.2411614384504L439.1999266622663,448.2411614384504L439.3289393531354,448.1959605266479L439.4149478137149,448.2411614384504L439.543960504584,448.28636191589214L439.62996896516324,448.3315619591081L439.75898165603235,448.3767615682338L439.8449901166118,448.4219607434037L439.88799434690145,448.46715948475253L439.88799434690145,448.5123577924154L439.8449901166118,448.5575556665276L439.75898165603235,448.5575556665276L439.67297319545287,448.5575556665276L439.62996896516324,448.5575556665276L439.50095627429437,448.5575556665276L439.3289393531354,448.5575556665276L439.1999266622663,448.5575556665276L439.11391820168683,448.5123577924154L438.9849055108177,448.5123577924154L438.8988970502385,448.5123577924154L438.76988435936937,448.46715948475253L438.64087166850027,448.46715948475253L438.5548632079208,448.4219607434037L438.4258505170517,448.4219607434037L438.1248209050241,448.4219607434037L437.9528039838651,448.3767615682338L437.73778283241654,448.3315619591081L437.6517743718373,448.3315619591081L437.5657659112578,448.28636191589214L437.47975745067833,448.28636191589214L437.35074475980946,448.2411614384504L437.2647362992302,448.1959605266479L437.1357236083609,448.15075918035006L437.09271937807125,448.10555739942185L437.0067109174918,448.06035518372784L436.96370668720215,448.01515253313346L436.9207024569125,447.96994944750384L436.9207024569125,447.8795419705986L436.9207024569125,447.834337579053L437.0067109174918,447.789132751932L437.0497151477814,447.789132751932L437.17872783865073,447.789132751932L437.2647362992302,447.789132751932L437.39374899009886,447.834337579053L437.5657659112578,447.789132751932L437.60877014154767,447.789132751932L437.6947786021269,447.74392748910043L437.6947786021269,447.6987217904234L437.73778283241654,447.6535156557661L437.6947786021269,447.6083090849933L437.6947786021269,447.56310207797003L437.6947786021269,447.51789463456157L437.6517743718373,447.51789463456157L437.5657659112578,447.472686754632L437.5227616809682,447.472686754632L437.43675322038894,447.4274784380471L437.39374899009886,447.472686754632L437.30774052951983,447.472686754632L437.22173206894036,447.472686754632L437.1357236083609,447.472686754632L437.0497151477814,447.51789463456157L436.9207024569125,447.51789463456157L436.8776982266229,447.51789463456157L436.83469399633304,447.472686754632L436.7916897660434,447.4274784380471L436.74868553575357,447.3822696846713L436.70568130546394,447.3370604943699L436.6626770751741,447.29185086700784L436.57666861459506,447.3370604943699L436.57666861459506,447.3822696846713L436.5336643843052,447.4274784380471L436.4906601540156,447.472686754632L436.44765592372573,447.51789463456157L436.44765592372573,447.6083090849933L436.4906601540156,447.6535156557661L436.57666861459506,447.74392748910043L436.5336643843052,447.834337579053L436.5336643843052,447.8795419705986L436.4906601540156,447.92474592670385L436.4046516934361,447.96994944750384L436.31864323285663,447.96994944750384L436.1466263116979,447.96994944750384L436.0176136208288,447.96994944750384L435.9316051602493,447.96994944750384L435.8455966996703,447.96994944750384L435.71658400880096,447.96994944750384L435.58757131793186,447.92474592670385L435.54456708764224,447.92474592670385L435.45855862706276,447.92474592670385L435.32954593619365,447.92474592670385L435.20053324532455,447.92474592670385L435.1145247847451,447.92474592670385L435.0285163241658,447.92474592670385L434.8564994030071,447.92474592670385L434.7704909424276,447.96994944750384L434.64147825155874,447.96994944750384L434.5124655606894,448.01515253313346L434.2544401789514,448.10555739942185L434.0394190275026,448.2411614384504L433.78139364576464,448.28636191589214L433.65238095489553,448.3315619591081L433.5663724943163,448.3315619591081L433.4373598034472,448.4219607434037L433.30834711257785,448.5123577924154L433.2223386519988,448.5575556665276L433.17933442170875,448.60275310722363L433.05032173083987,448.73834283016413L432.9643132702604,448.7835385385449L432.92130903997077,448.8287338141837L432.87830480968114,448.8739286572161L432.79229634910166,448.96431704599945L432.7062878885224,449.09989638799624L432.66328365823256,449.3258533238345L432.66328365823256,449.4162330793612L432.62027942794293,449.46142231077556L432.62027942794293,449.55179948158263L432.5342709673637,449.6421749305907L432.4052582764946,449.7325486588784L432.3192498159149,449.8681060273166L432.27624558562525,449.9132909576032L432.2332413553356,450.0036595301965L432.2332413553356,450.0940263863805L432.190237125046,450.18439152723283L432.14723289475614,450.274754953831L432.14723289475614,450.365116667252L432.1042286644665,450.45547666857397L432.0612244341769,450.5006560275341L432.0612244341769,450.5910134627263L432.0612244341769,450.8620755161702L432.0612244341769,450.95242612019706L432.0612244341769,451.04277501912406L432.0612244341769,451.1331222140283L432.0612244341769,451.1782951728077L432.1042286644665,451.3138114960728L432.190237125046,451.4944939749414L432.27624558562525,451.5848326658751L432.4912667370736,452.03650067857154L432.448262506784,452.21715603080827L432.1042286644665,452.3978046228971L431.7171905918592,452.7139234183161L431.201139828383,453.3009464821012L430.85710598606533,453.84275102606637L430.6850890649066,454.0233391636777L430.5130721437479,454.06848515490003L430.4270636831684,454.11363072911814L430.4270636831684,454.3393523498467L430.3840594528788,454.56506356559674L430.2980509922993,454.74562505787685L430.2120425317198,454.88104181919897L430.0400256105611,455.1969997578821L429.5669790773745,455.7385948076068L429.0079240836085,456.3703807231009L428.5348775504217,456.8667275256265L428.2768521686835,457.1825588225606L428.19084370810424,457.4081403705568L428.0188267869455,457.5885982804755L427.6747929446278,458.40057850005655L427.45977179317947,458.8967241221154L427.45977179317947,459.1222287413749L427.4167675628896,459.5732078453459L427.33075910231037,459.75358826036904L427.28775487202074,459.9339622730216L427.2447506417309,460.29469112536117L427.33075910231037,460.74556632948617L427.71779717491745,461.28656415382113L428.10483524752476,461.73735214659445L428.663890241291,462.2782457041535L429.3949621562158,462.5937408176565L429.6529875379538,462.72894713017047L429.95401714998184,462.81908271484514L430.3410552225889,462.95428315901506L430.6850890649066,462.95428315901506L430.98611867693444,462.95428315901506L431.3301525192521,462.9993491921797L431.459165210121,463.08948008696746L431.5451736707005,463.2246735022927L431.459165210121,463.35986340858034L431.15813559809317,463.4499880650799L431.02912290722406,463.4499880650799L430.8141017557757,463.49504980942083L430.5560763740375,463.49504980942083L430.2980509922993,463.5401111646669L430.08302984085094,463.5401111646669L429.7820002288231,463.49504980942083L429.5669790773745,463.49504980942083L429.2659494653467,463.49504980942083L428.70689447158065,463.4049259315109L428.4058648595526,463.35986340858034L428.19084370810424,463.35986340858034L427.93281832636603,463.35986340858034L427.6317887143382,463.2697371941041L427.3737633326,463.2246735022927L427.2447506417309,463.35986340858034L427.07273372057216,463.6302327084041L426.4706744965165,463.72035269735534L425.825611042171,463.8104711325835L425.18054758782546,463.9907033461242L424.7505052849285,464.30609480104897L424.5784883637698,464.5313628079493L424.40647144261106,464.71157026396367L424.27745875174173,464.66651897855434L424.105441830583,464.62146730750385L423.9334249094243,464.5313628079493L423.6753995276863,464.57641525068004L423.54638683681696,464.66651897855434L423.4603783762377,464.8917715518471L423.24535722478913,465.20710898913444L423.07334030363063,465.2972019413653L422.9013233824717,465.25215565720754L422.77231069160257,465.2972019413653L422.64329800073347,465.52242760807053L422.47128107957474,465.6575584096044L422.299264158416,465.6575584096044L422.1702514675469,465.6575584096044L422.0842430069674,465.56747159152417L421.9552303160983,465.4773832414985L421.7832133949396,465.3872933584662L421.69720493436034,465.3872933584662L421.5251880132016,465.61251519199106L421.43917955262214,465.6575584096044L421.18115417088393,465.7926857666481L421.09514571030445,465.7476436968001L420.9231287891455,465.61251519199106L420.70810763769737,465.61251519199106L420.45008225595916,465.6575584096044L420.2780653348002,465.7026012444962L420.020039953062,465.7926857666481L419.5039891895858,466.0178903836952L418.6009003535021,466.8285481204007L418.1708580506054,467.1888009574153L417.9988411294464,467.4139466843003L417.6118030568391,467.8642098382737L417.39678190539075,468.0443045580897L417.0957522933627,468.40447597270924L416.8377269116245,468.8996725318874L416.7087142207554,469.21477409333085L416.5797015298863,469.5298574141483L416.4506888390174,470.2499796095708L416.3646803784379,470.7450087573842L416.3216761481483,471.06000412571547L416.40768460872755,471.10500199562995L416.62270576017613,471.1499994988359L416.751718451045,470.97000728523255L416.79472268133486,470.88000897633145L416.9667396024938,470.8350092708936L417.00974383278344,470.97000728523255L417.00974383278344,471.1499994988359L416.92373537220396,471.23999340565035L416.751718451045,471.41997682458447L416.5797015298863,471.4649717645266L416.3646803784379,471.6449478690877L416.1926634572792,471.8699097854708L416.06365076640986,472.0048825606632L415.9776423058306,472.2298299063545L415.9776423058306,472.4097812407371L415.9776423058306,472.6347122448482L416.02064653612024,473.3994100216707L416.1066549966997,473.71425530137606L416.14965922698957,473.8941589875443L416.1066549966997,474.0290829871024L416.02064653612024,474.2089766398487L415.934638075541,474.34389312401805L415.934638075541,474.52377676914836L415.9776423058306,474.6137164510415L415.9776423058306,474.8385594205932L415.89163384525114,475.0184273915902L415.8486296149615,475.153324639321L415.7196169240924,475.2882186934129L415.5476000029339,475.5579972348843L415.4185873120646,475.78280295911406L415.28957462119547,475.96264118357044L415.24657039090584,476.14247376831736L415.16056193032637,476.6369843652916L414.98854500916764,476.86174787843356L414.85953231829876,477.04155239078995L414.7735238577193,477.1764021066486L414.5585027062707,477.2663001723297L414.214468863953,477.3112486820967L413.5694054096077,477.5359860054491L413.31138002786975,477.85060365068375L413.09635887642094,477.94049128180853L412.8813377249726,478.120262384673L412.70932080381385,478.21014585851265L412.580308112945,478.30002794868983L412.0212531191787,478.6595424937659L411.8922404283096,478.70448025980625L411.677219276861,478.70448025980625L411.46219812541267,478.74941768137364L411.33318543454357,478.8842278805515L411.20417274367446,478.9740996267111L411.03215582251573,479.0190349841964L410.94614736193626,479.15383899584833L410.860138901357,479.3335728744022L410.7741304407773,479.4234377573324L410.6451177499084,479.6031634157412L410.5591092893292,479.782883604538L410.2580796773011,480.0973807989035L410.00005429556313,480.32201143711643L409.6130162229558,480.32201143711643L409.31198661092776,480.32201143711643L409.05396122918955,480.36693654497105L408.4949062354235,480.32201143711643L408.3228893142648,480.36693654497105L408.1938766233957,480.45678574194073L407.9788554719473,480.5915569925098L407.8498427810782,480.6814027978267L407.76383432049875,480.86109034502374L407.76383432049875,481.0407724812875L407.7208300902091,481.22044921499537L407.63482162962964,481.31028555850867L407.5488131690504,481.31028555850867L407.4198004781813,481.31028555850867L407.24778355702256,481.31028555850867L407.032762405574,481.31028555850867L406.8177412541254,481.2653675552548L406.6457243329669,481.2653675552548L406.4307031815183,481.1755305376002L406.043665108911,481.0407724812875L405.785639727173,480.99585245403813L405.5276143454346,480.906011386037L405.35559742427586,480.8161689658267L405.1835805031169,480.7263251923592L404.9685593516688,480.6814027978267L404.83954666079944,480.6814027978267L404.6675297396407,480.6364800645872L404.323495897323,480.5466335814639L404.0224662852954,480.5915569925098L403.80744513384684,480.5915569925098L403.67843244297774,480.45678574194073L403.59242398239826,480.36693654497105L403.5064155218188,480.32201143711643L403.42040706123953,480.2770859895068L403.3343986006603,480.2321602020119L403.2053859097912,480.0973807989035L403.0333689886322,480.0075261616687L402.81834783718386,479.87274165045295L402.68933514631476,479.782883604538L402.5173182251558,479.69302419331683L402.3453013039973,479.5582325142424L402.216288613128,479.46836968516914L402.1302801525487,479.37850548712004L402.04427169196924,479.2437066209238L401.78624631023104,479.0639699981271L401.61422938907253,478.8392914916154L401.39920823762395,478.70448025980625L401.227191316465,478.6146043831221L401.0981786255959,478.5247271274982L400.8831574741473,478.5247271274982L401.227191316465,477.44609212067957L401.3131997770445,477.3112486820967L401.3562040073341,477.1764021066486L401.4422124679136,476.99660178702163L401.4852166982032,476.8167958760383L401.52822092849306,476.72689082116085L401.61422938907253,476.6369843652916L401.70023784965156,476.54707650737987L401.82925054052066,476.45716724637464L401.91525900110014,476.3672565812244L402.0012674616796,476.2323879484285L402.1302801525487,476.1874310342853L402.216288613128,476.14247376831736L402.30229707370745,476.05255818038165L402.3883055342869,475.91768215650796L402.4313097645763,475.78280295911406L402.5173182251558,475.64792058465116L402.56032245544566,475.4680724704568L402.5173182251558,475.2882186934129L402.4743139948664,475.1083592451016L402.4743139948664,475.0184273915902L402.4743139948664,474.8385594205932L402.5173182251558,474.7486233010028L402.6033266857353,474.70365470722413L402.7323393766044,474.65868575728064L402.81834783718386,474.7486233010028L403.0333689886322,474.8835269466681L403.16238167950155,474.8385594205932L403.2483901400808,474.79359153874884L403.3343986006603,474.7486233010028L403.3343986006603,474.65868575728064L403.42040706123953,474.5687467883745L403.46341129152916,474.47880639323125L403.5064155218188,474.38886457079775L403.5064155218188,474.2989213200214L403.5064155218188,474.2089766398487L403.5064155218188,474.0290829871024L403.46341129152916,473.8941589875443L403.3774028309499,473.579323767073L403.0763732189221,473.21949051654235L402.9903647583426,473.0845471028038L402.81834783718386,472.90461749786425L402.64633091602514,472.72468211000717L402.56032245544566,472.5897267689999L402.3453013039973,472.454768166797L402.2592928434178,472.3198062998381L402.1302801525487,472.0948625902246L402.04427169196924,471.95989199984416L402.0012674616796,471.82491813165205L401.95826323139,471.6899409820861L401.95826323139,471.41997682458447L402.0012674616796,471.23999340565035L402.1302801525487,470.97000728523255L402.216288613128,470.9250083144001L402.30229707370745,470.88000897633145L402.3453013039973,470.8350092708936L402.5173182251558,470.7450087573842L402.56032245544566,470.70000794904865L402.64633091602514,470.61000522855386L402.81834783718386,470.3849919821895L402.9043562977631,470.2499796095708L402.9903647583426,470.15996951528984L403.0333689886322,470.069957943081L403.0763732189221,469.97994489188784L403.16238167950155,469.88993036065256L403.16238167950155,469.75490578640887L403.1193774492117,469.6198778761236L403.1193774492117,469.5298574141483L402.9903647583426,469.30479975858384L402.9043562977631,469.16976070238456L402.8613520674735,469.0347182946755L402.775343606894,468.8996725318874L402.64633091602514,468.76462341044794L402.56032245544566,468.58455268445425L402.4743139948664,468.449495712273L402.30229707370745,468.3144353695337L402.216288613128,468.13434966328265L402.04427169196924,467.95425795010635L401.91525900110014,467.77416022153307L401.8722547708105,467.68410909882454L401.74324207994164,467.5040023312675L401.65723361936193,467.36891829455567L401.61422938907253,467.27886038188285L401.57122515878245,467.1888009574153L401.61422938907253,467.0537089837808L401.61422938907253,466.91861360264613L401.65723361936193,466.8285481204007L401.74324207994164,466.73848112106083L401.91525900110014,466.69344705214905L402.1302801525487,466.6484126035663L402.216288613128,466.6484126035663L402.30229707370745,466.5583425668567L402.3453013039973,466.46827100987144L402.4313097645763,466.3331608215577L402.4743139948664,466.19804720665854L402.5173182251558,466.0629301615943L402.56032245544566,465.972850224136L402.6033266857353,465.83772745417303L402.81834783718386,465.6575584096044L402.9043562977631,465.61251519199106L402.9903647583426,465.56747159152417L403.2483901400808,465.4323384916746L403.2053859097912,465.25215565720754L403.2483901400808,465.0719666800961L403.3343986006603,464.8917715518471L403.3343986006603,464.75662116386485L403.2913943703704,464.5313628079493L403.3343986006603,464.39620316298965L403.3774028309499,464.21598489229456L403.42040706123953,464.08081712656224L403.46341129152916,463.94564587452123L403.59242398239826,463.7654121091184L403.6354282126879,463.6752928971615L403.67843244297774,463.3148004961559L403.72143667326736,463.08948008696746L403.7644409035572,462.95428315901506L403.85044936413647,462.72894713017047L403.93645782471594,462.5036013174266L404.0224662852954,462.2782457041535L404.1084747458747,462.0078060081064L404.1514789761643,461.82750500948055L404.2804916670334,461.55704168834984L404.3665001276129,461.4668840908605L404.45250858819213,461.28656415382113L404.5385170487716,461.151320047543L404.6675297396407,461.0160723771256L404.7535382002202,460.8808211389726L404.83954666079944,460.700480598739L404.9685593516688,460.61030794506723L405.09757204253765,460.4750459821179L405.1835805031169,460.3397804370386L405.2695889636964,460.20451130622973L405.35559742427586,460.0692385860907L405.35559742427586,459.88886936961416L405.35559742427586,459.75358826036904L405.31259319398623,459.6633988536872L405.1835805031169,459.52811174021895L405.0545678122478,459.5732078453459L404.9255551213789,459.5732078453459L404.83954666079944,459.43791832738543L404.7965424305098,459.25752668766575L404.83954666079944,459.1222287413749L404.88255089108907,458.98692717693666L405.0545678122478,458.94182585080114L405.01156358195817,458.8065194565589L404.9685593516688,458.76141651942083L404.83954666079944,458.6712094357573L404.83954666079944,458.6261052889654L404.88255089108907,458.53589578479205L404.9255551213789,458.49079042714374L404.9255551213789,458.3554719303502L404.7965424305098,458.2652575779441L404.6245255093511,458.3103649563569L404.5385170487716,458.40057850005655L404.45250858819213,458.49079042714374L404.2804916670334,458.58100073868786L404.1944832064539,458.58100073868786L404.1514789761643,458.49079042714374L404.1514789761643,458.4456846656096L404.1514789761643,458.3103649563569L404.06547051558505,458.1750416073231L403.8934535944263,458.0848240174189L403.7644409035572,458.2652575779441L403.67843244297774,458.40057850005655L403.59242398239826,458.4456846656096L403.54941975210863,458.6261052889654L403.42040706123953,458.76141651942083L403.2483901400808,458.8065194565589L403.0763732189221,458.8065194565589L402.9043562977631,458.7163131791982L402.81834783718386,458.6712094357573L402.7323393766044,458.53589578479205L402.5173182251558,458.40057850005655L402.30229707370745,458.2652575779441L402.1302801525487,458.22014979497726L402.04427169196924,458.0397146149007L402.1302801525487,457.8141615213133L402.30229707370745,457.3630248756789L402.3453013039973,457.2276759471485L402.4743139948664,456.95696708052003L402.6033266857353,456.5508762024857L402.64633091602514,456.2801305229235L402.775343606894,456.09962519624537L402.81834783718386,455.91911329399636L402.8613520674735,455.6032016168168L402.8613520674735,455.4226715875575L402.775343606894,455.1969997578821L402.68933514631476,455.0615916973243L402.6033266857353,454.7907643931312L402.64633091602514,454.429638083805L402.68933514631476,454.29420885863544L402.7323393766044,454.1587758864671L402.81834783718386,453.88789868664594L402.8613520674735,453.75245445174914L402.94736052805274,453.5718562867229L403.0333689886322,453.4364032693841L403.1193774492117,453.25579338128216L403.2913943703704,453.0751767824661L403.3774028309499,452.8493965839124L403.3774028309499,452.6236058696535L403.3774028309499,452.44296571565434L403.2913943703704,452.30748117133385L403.1193774492117,452.1268292002461L403.0333689886322,452.03650067857154L402.9043562977631,451.8558385575843L402.7323393766044,451.7655049561208L402.6033266857353,451.67516965924295L402.3883055342869,451.4944939749414L402.3453013039973,451.4041535853658L402.3453013039973,451.2686398136956L402.3453013039973,451.1331222140283L402.3883055342869,450.9976007827305L402.5173182251558,450.90725103138845L402.68933514631476,450.77172320596765L402.81834783718386,450.68136918851167L403.0333689886322,450.5006560275341L403.16238167950155,450.365116667252L403.2483901400808,450.18439152723283L403.2913943703704,450.048843172772L403.3774028309499,449.95847545851854L403.46341129152916,449.7325486588784L403.46341129152916,449.6421749305907L403.46341129152916,449.50661111147133L403.42040706123953,449.46142231077556L403.42040706123953,449.23547184381334L403.3774028309499,449.1450886382196L403.2913943703704,449.0547037059747L403.2483901400808,448.96431704599945L403.16238167950155,448.8287338141837L403.1193774492117,448.69314668890695L403.0763732189221,448.60275310722363L402.9903647583426,448.5123577924154L402.9903647583426,448.4219607434037L402.9043562977631,448.1959605266479L402.8613520674735,448.10555739942185L402.775343606894,447.96994944750384L402.68933514631476,447.6987217904234L402.64633091602514,447.56310207797003L402.56032245544566,447.51789463456157L402.3883055342869,447.472686754632L402.1302801525487,447.3822696846713L402.0012674616796,447.3822696846713L401.8722547708105,447.4274784380471L401.82925054052066,447.51789463456157L401.52822092849306,447.6083090849933L401.3131997770445,447.6535156557661L401.18418708617537,447.789132751932L400.9691659347268,447.834337579053L400.75414478327843,447.834337579053L400.62513209240933,447.96994944750384L400.4531151712506,448.06035518372784L400.3671067106711,448.15075918035006L400.238094019802,448.2411614384504L399.9800686380638,448.60275310722363L399.5500263351669,449.0095105920211L399.37800941400815,449.09989638799624L399.2059924928494,449.09989638799624L398.9479671111112,449.09989638799624L398.73294595966263,449.09989638799624L398.5179248082143,449.0547037059747L398.3459078870553,449.0547037059747L398.08788250531734,448.91912306777635L397.95886981444824,448.8287338141837L397.87286135386876,448.73834283016413L397.74384866299965,448.647950114638L397.6578402024202,448.5575556665276L397.57183174184115,448.5123577924154L397.44281905097205,448.3767615682338L397.35681059039234,448.2411614384504L397.35681059039234,448.06035518372784L397.35681059039234,447.92474592670385L397.35681059039234,447.74392748910043L397.3998148206822,447.6083090849933L397.3998148206822,447.56310207797003L397.44281905097205,447.4274784380471L397.3998148206822,447.29185086700784L397.3138063601027,447.2466408024495L397.22779789952347,447.156219361205L397.09878520865436,447.11100798424866L397.0127767480749,447.0205839169919L396.96977251778526,446.93015809770895L396.9267682874954,446.8397305253186L396.8837640572058,446.658870116893L396.7977555966263,446.47800268306344L396.6687429057572,446.3875663289187L396.5397302148883,446.20668834076173L396.5397302148883,446.0258033055687L396.5397302148883,445.79968708849594L396.6257386754676,445.66401205944925L396.6687429057572,445.5283330518346L396.7547513663367,445.3474215131512L396.8407598269159,444.98557716262064L396.8407598269159,444.8046443334447L396.7977555966263,444.6689400433674L396.71174713604705,444.48799475871726L396.6687429057572,444.2165634615312L396.6687429057572,444.0356003372859L396.71174713604705,443.80938637484553L396.7547513663367,443.6736526270697L396.8407598269159,443.62840714861267L397.0127767480749,443.49266802374547L397.141789438944,443.35692486178857L397.3138063601027,443.26642717584787L397.44281905097205,443.17592769293174L397.57183174184115,443.0854264119552L397.61483597213055,442.9949233318333L397.70084443271,442.94967111675334L397.74384866299965,442.8591653358769L397.74384866299965,442.7686577531408L397.7868528932895,442.6328929981742L397.7868528932895,442.4518670082406L397.7868528932895,442.27083379132046L397.7868528932895,442.08979333872253L397.82985712357913,441.81821907391543L397.82985712357913,441.6371604940913L397.87286135386876,441.50136179131573L397.9158655841586,441.3202904900944L397.9158655841586,441.13921190754263L397.95886981444824,441.0486698830488L397.95886981444824,440.9128534267261L397.9158655841586,440.7770328636409L397.87286135386876,440.6864835382362L397.74384866299965,440.6864835382362L397.57183174184115,440.64120819012135L397.3998148206822,440.55065612238644L397.3138063601027,440.5053794024941L397.1847936692336,440.41482458997996L397.141789438944,440.36954649708616L397.05578097836474,440.3242679462529L396.96977251778526,440.2337094702235L396.9267682874954,440.18842954475525L396.7547513663367,440.0525870169035L396.71174713604705,439.9620230374352L396.6687429057572,439.87145722130856L396.6687429057572,439.735605051004L396.71174713604705,439.645034638468L396.71174713604705,439.5091755684417L396.6687429057572,439.3733123536797L396.6257386754676,439.2827345727245L396.5397302148883,439.1921549469399L396.4107175240192,439.146864441896L396.10968791199116,439.146864441896L395.93767099083243,439.1015734752359L395.7656540696737,439.1015734752359L395.5076286879355,439.1015734752359L395.3786159970664,439.1015734752359L395.16359484561804,439.1015734752359L394.9915779244593,439.01099015652244L394.9055694638796,439.01099015652244L394.8195610033006,438.96569780419685L394.7765567730107,438.87511171292556L394.6475440821416,438.8298179737068L394.604539851852,438.73922910742385L394.5185313912725,438.64863838976964L394.4755271609829,438.5580458196538L394.4755271609829,438.4674513959856L394.4755271609829,438.3315562826866L394.4755271609829,438.19565699275813L394.56153562156214,438.0597535225177L394.6475440821416,438.0144514361757L394.7765567730107,437.87854238645616L394.8195610033006,437.8332384391965L394.8195610033006,437.78793402636666L394.9055694638796,437.5614049738809L395.1205906153284,437.1989342305519L395.2496033061973,437.0629999921106L395.33561176677676,436.9723748272531L395.46462445764587,436.92706154264636L395.593637148515,436.92706154264636L395.80865829996355,436.9723748272531L395.93767099083243,437.0176876436958L396.06668368170153,437.0176876436958L396.152692142281,436.9723748272531L396.19569637257064,436.8817477897381L396.19569637257064,436.79111887847193L396.19569637257064,436.7004880923615L396.10968791199116,436.7004880923615L395.98067522112206,436.6551719958984L395.8946667605428,436.56453839547294L395.8516625302532,436.4285844740368L395.80865829996355,436.3379461776196L395.7656540696737,436.2473060008924L395.7226498393841,436.11134220782844L395.80865829996355,435.88472646901164L395.80865829996355,435.7487513694791L395.8946667605428,435.6127720232513L395.8946667605428,435.43145961592705L395.80865829996355,435.3408005759363L395.67964560909445,435.2954703463805L395.5076286879355,435.2501396436011L395.3786159970664,435.2954703463805L395.20659907590766,435.2501396436011L395.1205906153284,435.1594768178253L394.9915779244593,435.1141446945555L394.9055694638796,435.1141446945555L394.8195610033006,435.02347902656743L394.8625652335902,434.93281146240196L394.9055694638796,434.842142000964L395.0345821547487,434.75147064115845L395.16359484561804,434.61546003961405L395.29260753648714,434.524783929097L395.421620227356,434.4794451605809L395.55063291822535,434.4341059163776L395.593637148515,434.2527441799498L395.5076286879355,434.1620604540493L395.421620227356,434.11671787619844L395.2496033061973,434.11671787619844L395.1205906153284,434.11671787619844L394.9915779244593,434.2980853282729L394.7335525427211,434.4341059163776L394.604539851852,434.4341059163776L394.3465144701138,434.524783929097L394.0884890883758,434.524783929097L393.8734679369272,434.5701222220623L393.65844678547865,434.5701222220623L393.40042140374067,434.5701222220623L393.1854002522921,434.524783929097L392.9273748705539,434.524783929097L392.7553579493949,434.4794451605809L392.41132410707746,434.4341059163776L392.15329872533925,434.4794451605809L391.9812818041805,434.524783929097L391.8522691133114,434.5701222220623L391.6802521921527,434.66079738188955L391.5512395012836,434.61546003961405L391.46523104070434,434.5701222220623L391.46523104070434,434.4341059163776L391.46523104070434,434.3434260003605L391.50823527099396,434.2527441799498L391.5512395012836,434.11671787619844L391.7232564224423,433.93534279558787L391.8522691133114,433.889997832449L391.9812818041805,433.7993064736278L392.11029449504963,433.70861320383597L392.23930718591873,433.6179180219757L392.41132410707746,433.3458209930194L392.49733256765694,433.2097660123548L392.6263452585258,433.16441339326525L392.7553579493949,432.9829981189098L392.8413664099744,432.8015751611739L392.8413664099744,432.6201445112745L392.7553579493949,432.4840664705846L392.66934948881544,432.34798409440526L392.49733256765694,432.30262233826346L392.36831987678784,432.25726009985095L392.1963029556291,432.21189737903086L392.0672902647598,432.1665341756662L391.8522691133114,431.93971091586536L391.7232564224423,431.8489782293244L391.594243731573,431.75824360820957L391.4222268104145,431.6675070514214L391.25020988925576,431.5313985844466L391.12119719838665,431.4860281264274L390.99218450751755,431.4860281264274L390.9061760469383,431.395285756023L390.7771633560692,431.34991384336297L390.6481506652001,431.2591685624402L390.60514643491024,431.21379519390234L390.39012528346166,430.9415447809439L390.2611125925928,430.8507907536172L390.0890956714338,430.8054130100214L389.9170787502751,430.76003477962007L389.57304490795764,430.8054130100214L389.44403221708853,430.8054130100214L389.2720152959296,430.8054130100214L389.09999837477085,430.8054130100214L388.9279814536121,430.8054130100214L388.84197299303287,430.76003477962007L388.71296030216354,430.71465606227616L388.62695184158406,430.62389716621L388.5409433810048,430.44237352471214L388.4979391507152,430.3516087770795L388.5409433810048,430.1246883624217L388.62695184158406,430.03391677543823L388.71296030216354,429.9885302482985L388.84197299303287,429.8977557260355L388.9279814536121,429.8977557260355L388.97098568390174,429.8069792455429L389.0569941444812,429.67081085071254L389.09999837477085,429.58002946982526L389.1430026050605,429.5346380436686L389.1860068353503,429.4438537192393L389.22901106563995,429.39846082069164L389.3150195262192,429.35306743107157L389.57304490795764,429.26227917806307L389.788066059406,429.1714889591111L389.9170787502751,428.989902618968L390.046091441144,428.8083084018232L390.39012528346166,428.53590228742735L390.47613374404114,428.44509630123594L390.6911548954897,428.30888361685015L390.99218450751755,428.2180726889186L391.2072056589659,428.1726664830363L391.336218349835,428.1272597823595L391.37922258012486,428.0364448960695L391.4222268104145,427.94562802894484L391.46523104070434,427.7639883477751Z"></path>
<circle class="distCircs" cx="400.8593255595305" cy="438.4247107890506" r="2.8049127534891354" stroke="#000" stroke-width="0.25" fill="#b1dc99" data-q="TAMIL NADU" data-r="COIMBATORE"><title>TAMIL NADU - COIMBATORE: Census 2011 Total Rural Households = 237,155. Census 2011 Households with toilets = 78,982. Census 2001 Total Rural Households = 365,445. Census 2001 Households with toilets = 59,296. Difference between Census 2011 Households with toilets and Census 2001 Households with toilets = 17.1%</title></circle><circle class="distCircs" cx="436.89679611531363" cy="426.77915108006425" r="2.9447516373881917" stroke="#000" stroke-width="0.25" fill="#dbefae" data-q="TAMIL NADU" data-r="CUDDALORE"><title>TAMIL NADU - CUDDALORE: Census 2011 Total Rural Households = 425,191. Census 2011 Households with toilets = 84,489. Census 2001 Total Rural Households = 349,119. Census 2001 Households with toilets = 42,252. Difference between Census 2011 Households with toilets and Census 2001 Households with toilets = 7.8%</title></circle><circle class="distCircs" cx="418.22956512955864" cy="420.78436562144117" r="2.8724810547718835" stroke="#000" stroke-width="0.25" fill="#fefcbd" data-q="TAMIL NADU" data-r="DHARMAPURI"><title>TAMIL NADU - DHARMAPURI: Census 2011 Total Rural Households = 315,563. Census 2011 Households with toilets = 33,840. Census 2001 Total Rural Households = 536,728. Census 2001 Households with toilets = 61,249. Difference between Census 2011 Households with toilets and Census 2001 Households with toilets = -0.7%</title></circle><circle class="distCircs" cx="415.66141367451746" cy="448.7419845706825" r="2.8992765087719286" stroke="#000" stroke-width="0.25" fill="#e4f3b2" data-q="TAMIL NADU" data-r="DINDIGUL"><title>TAMIL NADU - DINDIGUL: Census 2011 Total Rural Households = 352,757. Census 2011 Households with toilets = 66,645. Census 2001 Total Rural Households = 303,586. Census 2001 Households with toilets = 39,443. Difference between Census 2011 Households with toilets and Census 2001 Households with toilets = 5.9%</title></circle><circle class="distCircs" cx="406.22910781725653" cy="428.4909076474485" r="2.8788757241993372" stroke="#000" stroke-width="0.25" fill="#40a962" data-q="TAMIL NADU" data-r="ERODE"><title>TAMIL NADU - ERODE: Census 2011 Total Rural Households = 324,097. Census 2011 Households with toilets = 196,954. Census 2001 Total Rural Households = 386,299. Census 2001 Households with toilets = 73,450. Difference between Census 2011 Households with toilets and Census 2001 Households with toilets = 41.8%</title></circle><circle class="distCircs" cx="443.45130487569793" cy="411.14638114482943" r="2.900451245563827" stroke="#000" stroke-width="0.25" fill="#bde19f" data-q="TAMIL NADU" data-r="KANCHIPURAM"><title>TAMIL NADU - KANCHIPURAM: Census 2011 Total Rural Households = 354,476. Census 2011 Households with toilets = 103,803. Census 2001 Total Rural Households = 293,007. Census 2001 Households with toilets = 43,399. Difference between Census 2011 Households with toilets and Census 2001 Households with toilets = 14.5%</title></circle><circle class="distCircs" cx="404.942795431794" cy="477" r="2.5785286200576554" stroke="#000" stroke-width="0.25" fill="#97d08d" data-q="TAMIL NADU" data-r="KANYAKUMARI(NAGERCOIL)"><title>TAMIL NADU - KANYAKUMARI(NAGERCOIL): Census 2011 Total Rural Households = 86,390. Census 2011 Households with toilets = 71,816. Census 2001 Total Rural Households = 131,655. Census 2001 Households with toilets = 79,509. Difference between Census 2011 Households with toilets and Census 2001 Households with toilets = 22.7%</title></circle><circle class="distCircs" cx="412.7810143677227" cy="442.5467537125778" r="2.726596053074975" stroke="#000" stroke-width="0.25" fill="#cae7a5" data-q="TAMIL NADU" data-r="KARUR"><title>TAMIL NADU - KARUR: Census 2011 Total Rural Households = 168,830. Census 2011 Households with toilets = 38,855. Census 2001 Total Rural Households = 158,365. Census 2001 Households with toilets = 18,089. Difference between Census 2011 Households with toilets and Census 2001 Households with toilets = 11.6%</title></circle><circle class="distCircs" cx="414.6997923566969" cy="414.57040574956943" r="2.8937744168326316" stroke="#000" stroke-width="0.25" fill="#eee" data-q="TAMIL NADU" data-r="KRISHNAGIRI"><title>TAMIL NADU - KRISHNAGIRI: Census 2011 Total Rural Households = 344,807. Census 2011 Households with toilets = 66,210. Census 2001 Total Rural Households = NaN. Census 2001 Households with toilets = 0. Difference between Census 2011 Households with toilets and Census 2001 Households with toilets = NaN%</title></circle><circle class="distCircs" cx="413.34217855255315" cy="455.76455622954" r="2.875169916829885" stroke="#000" stroke-width="0.25" fill="#e2f2b1" data-q="TAMIL NADU" data-r="MADURAI"><title>TAMIL NADU - MADURAI: Census 2011 Total Rural Households = 319,126. Census 2011 Households with toilets = 65,964. Census 2001 Total Rural Households = 288,534. Census 2001 Households with toilets = 41,380. Difference between Census 2011 Households with toilets and Census 2001 Households with toilets = 6.3%</title></circle><circle class="distCircs" cx="438.05269024766767" cy="435.991964229815" r="2.878314769339916" stroke="#000" stroke-width="0.25" fill="#c2e3a1" data-q="TAMIL NADU" data-r="NAGAPATTINAM"><title>TAMIL NADU - NAGAPATTINAM: Census 2011 Total Rural Households = 323,340. Census 2011 Households with toilets = 100,925. Census 2001 Total Rural Households = 271,034. Census 2001 Households with toilets = 48,303. Difference between Census 2011 Households with toilets and Census 2001 Households with toilets = 13.4%</title></circle><circle class="distCircs" cx="418.3695758710889" cy="435.2066656253463" r="2.8474956495073718" stroke="#000" stroke-width="0.25" fill="#b7de9c" data-q="TAMIL NADU" data-r="NAMAKKAL"><title>TAMIL NADU - NAMAKKAL: Census 2011 Total Rural Households = 284,156. Census 2011 Households with toilets = 88,674. Census 2001 Total Rural Households = 253,804. Census 2001 Households with toilets = 39,158. Difference between Census 2011 Households with toilets and Census 2001 Households with toilets = 15.8%</title></circle><circle class="distCircs" cx="397.09578591000053" cy="432.15072943950827" r="2.573439453654084" stroke="#000" stroke-width="0.25" fill="#d0eaa8" data-q="TAMIL NADU" data-r="NILGIRIS(UDHAGAMANDALAM)"><title>TAMIL NADU - NILGIRIS(UDHAGAMANDALAM): Census 2011 Total Rural Households = 84,366. Census 2011 Households with toilets = 35,729. Census 2001 Total Rural Households = 77,689. Census 2001 Households with toilets = 25,006. Difference between Census 2011 Households with toilets and Census 2001 Households with toilets = 10.2%</title></circle><circle class="distCircs" cx="428.7087208201572" cy="434.98649686364394" r="2.6581157711022763" stroke="#000" stroke-width="0.25" fill="#b0dc99" data-q="TAMIL NADU" data-r="PERAMBALUR"><title>TAMIL NADU - PERAMBALUR: Census 2011 Total Rural Households = 124,419. Census 2011 Households with toilets = 44,374. Census 2001 Total Rural Households = 101,065. Census 2001 Households with toilets = 18,667. Difference between Census 2011 Households with toilets and Census 2001 Households with toilets = 17.2%</title></circle><circle class="distCircs" cx="424.9165944281327" cy="448.5458040683228" r="2.8704286899692226" stroke="#000" stroke-width="0.25" fill="#e0f1b0" data-q="TAMIL NADU" data-r="PUDUKKOTTAI"><title>TAMIL NADU - PUDUKKOTTAI: Census 2011 Total Rural Households = 312,868. Census 2011 Households with toilets = 55,329. Census 2001 Total Rural Households = 262,651. Census 2001 Households with toilets = 28,526. Difference between Census 2011 Households with toilets and Census 2001 Households with toilets = 6.8%</title></circle><circle class="distCircs" cx="422.41372506555405" cy="461.6875548127338" r="2.799928382635236" stroke="#000" stroke-width="0.25" fill="#d3ebaa" data-q="TAMIL NADU" data-r="RAMANATHAPURAM"><title>TAMIL NADU - RAMANATHAPURAM: Census 2011 Total Rural Households = 232,147. Census 2011 Households with toilets = 52,135. Census 2001 Total Rural Households = 209,831. Census 2001 Households with toilets = 27,177. Difference between Census 2011 Households with toilets and Census 2001 Households with toilets = 9.5%</title></circle><circle class="distCircs" cx="418.05590337803665" cy="428.1400265397279" r="2.96140691488052" stroke="#000" stroke-width="0.25" fill="#ebf6b5" data-q="TAMIL NADU" data-r="SALEM"><title>TAMIL NADU - SALEM: Census 2011 Total Rural Households = 454,964. Census 2011 Households with toilets = 66,314. Census 2001 Total Rural Households = 401,861. Census 2001 Households with toilets = 40,686. Difference between Census 2011 Households with toilets and Census 2001 Households with toilets = 4.5%</title></circle><circle class="distCircs" cx="421.49077423426957" cy="455.44121349105677" r="2.8046977995726383" stroke="#000" stroke-width="0.25" fill="#c8e6a4" data-q="TAMIL NADU" data-r="SIVAGANGA"><title>TAMIL NADU - SIVAGANGA: Census 2011 Total Rural Households = 236,937. Census 2011 Households with toilets = 56,697. Census 2001 Total Rural Households = 207,692. Census 2001 Households with toilets = 24,676. Difference between Census 2011 Households with toilets and Census 2001 Households with toilets = 12.0%</title></circle><circle class="distCircs" cx="430.9792320538023" cy="443.6966398669515" r="2.924370569351775" stroke="#000" stroke-width="0.25" fill="#c9e7a5" data-q="TAMIL NADU" data-r="THANJAVUR"><title>TAMIL NADU - THANJAVUR: Census 2011 Total Rural Households = 391,191. Census 2011 Households with toilets = 112,661. Census 2001 Total Rural Households = 328,021. Census 2001 Households with toilets = 56,053. Difference between Census 2011 Households with toilets and Census 2001 Households with toilets = 11.7%</title></circle><circle class="distCircs" cx="405.49705892002834" cy="454.41178010336785" r="2.7118696328156813" stroke="#000" stroke-width="0.25" fill="#cbe8a6" data-q="TAMIL NADU" data-r="THENI"><title>TAMIL NADU - THENI: Census 2011 Total Rural Households = 158,207. Census 2011 Households with toilets = 39,224. Census 2001 Total Rural Households = 126,851. Census 2001 Households with toilets = 17,115. Difference between Census 2011 Households with toilets and Census 2001 Households with toilets = 11.3%</title></circle><circle class="distCircs" cx="413.63439762369217" cy="471.8901671926368" r="2.806760961869139" stroke="#000" stroke-width="0.25" fill="#cde9a7" data-q="TAMIL NADU" data-r="THOOTHUKUDI"><title>TAMIL NADU - THOOTHUKUDI: Census 2011 Total Rural Households = 239,037. Census 2011 Households with toilets = 67,404. Census 2001 Total Rural Households = 230,027. Census 2001 Households with toilets = 39,871. Difference between Census 2011 Households with toilets and Census 2001 Households with toilets = 10.9%</title></circle><circle class="distCircs" cx="420.348308718784" cy="442.0202684441426" r="2.903390684432478" stroke="#000" stroke-width="0.25" fill="#d0eaa8" data-q="TAMIL NADU" data-r="TIRUCHIRAPPALLI"><title>TAMIL NADU - TIRUCHIRAPPALLI: Census 2011 Total Rural Households = 358,811. Census 2011 Households with toilets = 86,190. Census 2001 Total Rural Households = 307,655. Census 2001 Households with toilets = 42,385. Difference between Census 2011 Households with toilets and Census 2001 Households with toilets = 10.2%</title></circle><circle class="distCircs" cx="407.27697194896336" cy="471.5248314987674" r="2.943250326090869" stroke="#000" stroke-width="0.25" fill="#aeda98" data-q="TAMIL NADU" data-r="TIRUNELVELI"><title>TAMIL NADU - TIRUNELVELI: Census 2011 Total Rural Households = 422,597. Census 2011 Households with toilets = 140,433. Census 2001 Total Rural Households = 354,892. Census 2001 Households with toilets = 54,943. Difference between Census 2011 Households with toilets and Census 2001 Households with toilets = 17.7%</title></circle><circle class="distCircs" cx="443.5295127704529" cy="404.6596791164914" r="2.880131836606599" stroke="#000" stroke-width="0.25" fill="#d2eba9" data-q="TAMIL NADU" data-r="TIRUVALLUR"><title>TAMIL NADU - TIRUVALLUR: Census 2011 Total Rural Households = 325,798. Census 2011 Households with toilets = 92,361. Census 2001 Total Rural Households = 279,436. Census 2001 Households with toilets = 51,968. Difference between Census 2011 Households with toilets and Census 2001 Households with toilets = 9.8%</title></circle><circle class="distCircs" cx="430.0292693877476" cy="414.4644139226976" r="2.9731574342334293" stroke="#000" stroke-width="0.25" fill="#eff8b7" data-q="TAMIL NADU" data-r="TIRUVANNAMALAI"><title>TAMIL NADU - TIRUVANNAMALAI: Census 2011 Total Rural Households = 477,106. Census 2011 Households with toilets = 59,505. Census 2001 Total Rural Households = 403,461. Census 2001 Households with toilets = 36,505. Difference between Census 2011 Households with toilets and Census 2001 Households with toilets = 3.4%</title></circle><circle class="distCircs" cx="436.7089255174085" cy="443.91309808873706" r="2.8289077114040504" stroke="#000" stroke-width="0.25" fill="#c3e4a2" data-q="TAMIL NADU" data-r="TIRUVARUR"><title>TAMIL NADU - TIRUVARUR: Census 2011 Total Rural Households = 262,679. Census 2011 Households with toilets = 82,723. Census 2001 Total Rural Households = 222,931. Census 2001 Households with toilets = 40,791. Difference between Census 2011 Households with toilets and Census 2001 Households with toilets = 13.2%</title></circle><circle class="distCircs" cx="426.52983742891837" cy="409.8384285314629" r="3.002612856420497" stroke="#000" stroke-width="0.25" fill="#e3f2b1" data-q="TAMIL NADU" data-r="VELLORE"><title>TAMIL NADU - VELLORE: Census 2011 Total Rural Households = 537,022. Census 2011 Households with toilets = 103,369. Census 2001 Total Rural Households = 477,525. Census 2001 Households with toilets = 62,590. Difference between Census 2011 Households with toilets and Census 2001 Households with toilets = 6.1%</title></circle><circle class="distCircs" cx="434.69549412935453" cy="419.00415626393817" r="3.0633942372110976" stroke="#000" stroke-width="0.25" fill="#ebf6b5" data-q="TAMIL NADU" data-r="VILLUPURAM"><title>TAMIL NADU - VILLUPURAM: Census 2011 Total Rural Households = 683,022. Census 2011 Households with toilets = 90,241. Census 2001 Total Rural Households = 549,389. Census 2001 Households with toilets = 49,065. Difference between Census 2011 Households with toilets and Census 2001 Households with toilets = 4.3%</title></circle><circle class="distCircs" cx="412.4545750080201" cy="462.77882206081813" r="2.8326523277053695" stroke="#000" stroke-width="0.25" fill="#edf7b6" data-q="TAMIL NADU" data-r="VIRUDHUNAGAR"><title>TAMIL NADU - VIRUDHUNAGAR: Census 2011 Total Rural Households = 266,882. Census 2011 Households with toilets = 38,947. Census 2001 Total Rural Households = 247,544. Census 2001 Households with toilets = 26,367. Difference between Census 2011 Households with toilets and Census 2001 Households with toilets = 3.9%</title></circle></g></g></svg>