<?xml version="1.0" standalone="no"?><!DOCTYPE svg PUBLIC "-//W3C//DTD SVG 1.1//EN" "http://www.w3.org/Graphics/SVG/1.1/DTD/svg11.dtd"><svg id="chart" width="960" height="500" class="dorlingCart" data-type="dorlingCart" version="1.1" xmlns:xlink="http://www.w3.org/1999/xlink" xmlns="http://www.w3.org/2000/svg"><defs class="svg-crowbar"><style type="text/css"><![CDATA[.feature{ fill: #fcfcfc; stroke: #000000; stroke-width: 0.2px; cursor: pointer; }]]></style></defs>
<g><g transform="translate(-1984.364013671875,-716.1945190429688)scale(4,4)">
<path class="feature auto" data-q="TRIPURA" d="M624.3761422896957,233.32640274494406L624.4191465199856,233.81409288408992L624.4191465199856,233.9603772873296L624.3331380594059,234.1066512512362L624.2041253685368,234.2041614301009L624.1181169079578,234.3504180066223L624.1181169079578,234.5454105587167L624.1611211382472,234.6916428170411L624.2041253685368,234.78912520367953L624.2471295988266,234.98407609846032L624.3331380594059,235.03281093191816L624.4191465199856,235.0815446096645L624.5481592108545,235.13027713188995L624.6771719017236,235.17900849878566L624.8491888228825,235.27646776735327L624.8491888228825,235.47137244894992L624.8491888228825,235.66625866668795L624.7631803623033,235.90984049269076L624.6341676714339,236.1046852114565L624.5051549805648,236.29951150609213L624.4191465199856,236.59171642951839L624.2901338291165,236.64041322537565L624.2471295988266,236.8838799673299L624.2041253685368,237.1760021606995L624.1611211382472,237.37072734079862L624.2041253685368,237.56543417606332L624.2041253685368,237.7114522710416L624.2041253685368,237.90612703215112L624.3331380594059,238.05212108549352L624.462150750275,238.1981048438343L624.7201761320134,238.39273384937525L624.9351972834618,238.4900414960316L625.0642099743307,238.68464308471306L625.1072142046205,238.7819370297753L625.1502184349101,239.0251519275488L625.1502184349101,239.17106718359656L625.1072142046205,239.4628669337004L624.9351972834618,239.65737733020495L624.7201761320134,239.6087514379936L624.6341676714339,239.65737733020495L624.5051549805648,239.70600208478936L624.3761422896957,239.70600208478936L624.1611211382472,239.70600208478936L623.9460999867988,239.80324818183283L623.6880746050604,239.99772673272503L623.7310788353502,240.24079935596768L623.8170872959297,240.43523701702395L623.903095756509,240.53244903920114L623.9460999867988,240.62965652449486L623.9891042170887,240.77545924908668L623.9460999867988,241.01844112707744L623.8600915262193,241.01844112707744L623.7310788353502,241.21280624637564L623.5160576839019,241.50431998182324L623.387044993033,241.84436790753102L623.3010365324533,242.23292636472092L623.2580323021639,242.427178524518L623.0860153810049,242.62141265452328L622.9570026901356,242.62141265452328L622.7849857689771,242.52429784249136L622.7419815386872,242.18436050620448L622.7849857689771,241.84436790753102L622.7419815386872,241.6500615860138L622.6559730781078,241.50431998182324L622.3119392357903,241.55290164674506L622.1829265449214,241.60148218141222L622.0539138540523,241.7957930213077L621.924901163183,241.94151429279702L621.666875781445,242.08722540557204L621.3228419391276,242.52429784249136L621.107820787679,242.71852296211972L620.8497954059408,242.91273007002906L620.8067911756511,242.91273007002906L620.677778484782,242.81562876678652L620.5057615636231,242.66996837128164L620.3337446424644,242.47573874684133L620.2047319515952,242.3300546990967L619.9897108001467,242.18436050620448L619.6886811881188,242.0386561630787L619.5166642669603,241.84436790753102L619.2586388852219,241.74721700577265L619.0866219640634,241.74721700577265L618.9576092731941,241.89294166463128L618.9576092731941,242.13579351988443L619.0436177337735,242.3786171753323L619.1296261943528,242.76707642722488L619.1726304246426,242.96127903408615L619.1296261943528,243.0583735880142L619.0006135034837,243.54377892280303L619.1296261943528,243.93202235902083L619.1726304246426,244.1746380669615L619.2586388852219,244.4657399554075L619.2586388852219,244.75680156093335L619.3016431155115,245.0478229240262L619.4306558063806,245.38729703964998L619.5166642669603,245.62974508473712L619.5166642669603,245.82368345912465L619.3876515760912,245.96912554512227L619.1726304246426,246.11455761261954L618.9576092731941,246.35692214214998L618.7425881217457,246.5992588798776L618.4845627400077,246.84156784913984L618.3125458188483,246.98693991153823L618.0975246674002,247.22920449977005L617.7104865947929,247.66521095048063L617.2374400616063,248.24641347197672L617.1084273707372,248.44011228902718L617.0224189101577,248.73062740854016L616.9794146798679,249.02110283646476L616.9364104495783,249.21473109068154L616.9364104495783,249.5535381662645L617.0654231404474,249.98906811641695L617.1944358313165,250.2309907710159L617.2374400616063,250.42450915131576L617.2374400616063,250.66638246691264L617.2804442918957,250.85986140600733L617.3234485221856,251.0049591186264L617.4954654433445,251.15004698676523L617.4954654433445,251.3434821726081L617.5384696736342,251.536899877858L617.5814739039236,251.73030011433985L617.6674823645033,251.97202586249392L617.6674823645033,252.16538683745927L617.6244781342134,252.2137243572443L617.4524612130547,252.40706354609387L617.3234485221856,252.50372660892629L617.2374400616063,252.6003853193302L617.1944358313165,252.74536522736003L617.1514316010271,252.8420130631457L617.1084273707372,252.93865655166366L617.1084273707372,253.03529569438734L616.9794146798679,253.18024626333198L616.8504019889988,253.32518706252768L616.8073977587094,253.37349849206288L616.6783850678403,253.51842627265546L616.5493723769714,253.66334429509334L616.3773554558124,253.7599508913067L616.291346995233,253.80825256434184L615.9903173832049,254.0014484269612L615.861304692336,254.0497446861549L615.6892877711771,254.14633395807545L615.5602750803082,254.24291890259866L615.4312623894391,254.33949952119326L615.30224969857,254.43607581533035L615.1732370077011,254.53264778647775L615.0872285471214,254.62921543610526L614.9152116259629,254.72577876568067L614.8292031653834,254.67749764080725L614.6571862442245,254.48436234118566L614.3561566321966,254.33949952119326L614.2701481716172,254.38778820872716L614.1411354807483,254.43607581533035L613.9691185595896,254.43607581533035L613.9261143292997,254.29120975254477L613.8831100990099,254.19462697116938L613.8401058687205,254.0014484269612L613.8401058687205,253.9048526611881L613.7971016384306,253.7599508913067L613.7110931778514,253.566733364129L613.6250847172719,253.37349849206288L613.6250847172719,253.13193049279062L613.6250847172719,252.9869766661575L613.5820804869825,252.8420130631457L613.4100635658231,252.55205650808966L613.3670593355337,252.2137243572443L613.324055105244,252.06870852951073L613.1950424143749,251.92368289387383L613.1520381840851,251.73030011433985L613.1520381840851,251.63360217895587L613.1090339537957,251.48854708970435L613.0660297235058,251.29512501541495L612.9800212629264,251.15004698676523L612.9370170326367,251.0049591186264L612.8510085720573,250.85986140600733L612.765000111478,250.71475384391323L612.6789916508983,250.56963642734837L612.6359874206089,250.47288600579856L612.5499789600294,250.27937201081681L612.4209662691603,250.13422500085113L612.2489493480016,249.94068029308124L612.1629408874221,249.84390135251118L612.033928196553,249.69872470412912L611.9049155056841,249.60193477802676L611.8619112753945,249.5535381662645L611.7328985845254,249.50514045511437L611.6038858936563,249.4567416443914L611.4748732027872,249.4567416443914L611.3888647422077,249.4567416443914L611.3458605119179,249.50514045511437L611.3028562816285,249.60193477802676L611.2598520513386,249.7955102349066L611.2168478210488,249.98906811641695L611.2168478210488,250.18260843442226L611.2598520513386,250.32775215401L611.2598520513386,250.47288600579856L611.2598520513386,250.71475384391323L611.2168478210488,250.85986140600733L611.2168478210488,251.1984074226782L611.2598520513386,251.39183823726432L611.2598520513386,251.48854708970435L611.2168478210488,251.536899877858L611.1738435907594,251.68195169226965L611.2168478210488,251.7786474453505L611.3028562816285,251.87533883493256L611.3028562816285,252.02036774097814L611.3028562816285,252.1170482282762L611.3888647422077,252.31039612935837L611.5178774330768,252.40706354609387L611.6038858936563,252.55205650808966L611.6468901239457,252.6970396787812L611.6468901239457,252.7936896887535L611.5608816633664,252.8420130631457L611.4748732027872,252.93865655166366L611.3458605119179,252.9869766661575L611.3028562816285,252.9869766661575L611.1308393604695,252.93865655166366L611.04483089989,252.890335350721L610.9588224393108,252.74536522736003L610.9158182090209,252.6487130428332L610.8728139787315,252.55205650808966L610.7868055181518,252.40706354609387L610.7438012878622,252.16538683745927L610.7007970575726,251.97202586249392L610.657792827283,251.87533883493256L610.5717843667032,251.68195169226965L610.5717843667032,251.536899877858L610.5717843667032,251.3434821726081L610.5717843667032,251.15004698676523L610.5717843667032,251.05332283492413L610.5717843667032,250.90822840435334L610.5717843667032,250.8114933132755L610.5287801364138,250.61800999478612L610.485775906124,250.42450915131576L610.485775906124,250.32775215401L610.4427716758341,250.2309907710159L610.4427716758341,250.03745484203347L610.4427716758341,249.89229137184117L610.3567632152549,249.74711801884047L610.1417420638068,249.16632567862155L609.8407124517785,248.3432650885644L609.6256913003301,247.95583211058323L609.4536743791714,247.47144138016017L609.3246616883023,247.13230199072342L609.1956489974332,246.84156784913984L609.0236320762745,246.64772289446034L608.8086109248259,246.35692214214998L608.5505855430879,246.16303274299008L608.3355643916395,246.01760401387202L608.2065517007704,245.72671650013393L608.1205432401907,245.38729703964998L607.9915305493219,245.14482110928827L607.8625178584527,245.0478229240262L607.7335051675836,244.80530791496943L607.6044924767143,244.51425301932687L607.4754797858452,244.2716765081572L607.389471325266,243.83496822992288L607.4754797858452,243.44670684214543L607.7335051675836,243.4952434438361L607.9055220887421,243.5923132792338L608.1205432401907,243.689378625239L608.2065517007704,243.5923132792338L608.2065517007704,243.44670684214543L608.1635474704806,243.349630269842L607.5614882464249,242.28149109562224L607.5614882464249,241.89294166463128L607.5614882464249,241.74721700577265L607.690500937294,241.45573718645744L607.8625178584527,241.4071532604604L608.1205432401907,241.35856820364165L608.3355643916395,241.26139469678822L608.5505855430879,241.16421666438663L608.6365940036669,241.01844112707744L608.7226024642466,240.921251774197L608.8516151551155,240.72685947441755L608.8946193854053,240.43523701702395L608.8946193854053,240.28941047379226L608.8516151551155,240.0463435292205L608.8516151551155,239.80324818183283L608.9806278459846,239.21970332298122L609.0666363065639,238.9278693900419L609.238653227723,238.7332906278591L609.2816574580127,238.5873445739714L609.3676659185917,238.39273384937525L609.496678609461,237.95479286080462L609.66869553062,237.8574600590382L610.055733603227,237.56543417606332L610.3567632152549,237.468083050774L610.7007970575726,237.51675918640933L610.7868055181518,237.41940576896724L610.8298097484417,237.07863268752948L610.8728139787315,236.78649671725242L610.9158182090209,236.64041322537565L610.9588224393108,236.29951150609213L611.0018266696006,236.00726515585336L611.1308393604695,235.81241122044167L611.4318689724973,235.66625866668795L611.8189070451044,235.61753884257075L612.1629408874221,235.66625866668795L612.3349578085811,235.81241122044167L612.6359874206089,235.90984049269076L612.9800212629264,236.0559757595044L613.1950424143749,236.1046852114565L613.2810508749542,236.1046852114565L613.4100635658231,236.00726515585336L613.7110931778514,235.86112643279756L613.9691185595896,235.763694855432L614.0981312504584,235.66625866668795L614.2701481716172,235.47137244894992L614.4421650927761,235.32519566940834L614.4421650927761,235.0815446096645L614.4421650927761,234.88660296364196L614.6141820139346,234.6916428170411L614.7431947048037,234.59415580219536L614.8722073956731,234.2529147809862L614.9582158562523,234.00913643496853L614.8292031653834,233.76532909559677L614.9152116259629,233.57026233277458L615.0872285471214,233.57026233277458L615.2592454682801,233.61903076519104L615.3452539288594,233.76532909559677L615.3452539288594,233.9603772873296L615.3882581591492,234.2041614301009L615.4312623894391,234.5454105587167L615.7322920014669,234.74038458879045L615.9043089226259,234.74038458879045L616.0763258437846,234.6916428170411L616.119330074074,234.59415580219536L616.1623343043639,234.44791659868798L616.1623343043639,234.2529147809862L616.2053385346537,234.1066512512362L616.119330074074,233.9603772873296L616.119330074074,233.66779803633892L616.2483427649431,233.42395006599332L616.3773554558124,233.42395006599332L616.5923766072608,233.4727219833673L616.7643935284198,233.57026233277458L616.9794146798679,233.66779803633892L617.1084273707372,233.71656414641035L617.3234485221856,233.91161697976463L617.5814739039236,234.15540692024797L617.7104865947929,234.30166697309625L617.7534908250825,234.39916788175566L617.9685119765311,234.59415580219536L618.0545204371103,234.78912520367953L618.14052889769,234.8378646618999L618.398554279428,234.88660296364196L618.5275669702971,234.78912520367953L618.6995838914559,234.6916428170411L618.7855923520351,234.49666415761118L618.828596582325,234.2529147809862L618.7855923520351,234.00913643496853L618.828596582325,233.71656414641035L618.828596582325,233.52149273889705L618.828596582325,233.27762734088446L618.828596582325,233.03373287756023L618.6995838914559,232.8385963637411L618.6135754308766,232.64344122045543L618.5275669702971,232.3994710749161L618.5705712005868,232.10666841776106L618.5705712005868,231.81382374042386L618.7855923520351,231.4232987340106L618.9146050429044,231.3744778455727L619.0866219640634,231.4232987340106L619.2586388852219,231.6185705904457L619.4736600366705,231.6673856311882L619.5166642669603,231.569754380549L619.5166642669603,231.3744778455727L619.5166642669603,231.13035584776378L619.5596684972497,230.93503717120075L619.6026727275396,230.886204572908L619.7746896486983,230.93503717120075L619.9467065698573,231.0326988524174L620.1617277213054,231.13035584776378L620.376748872754,231.1791825887172L620.677778484782,231.1791825887172L620.7637869453613,231.22800815878225L621.0218123270993,231.13035584776378L621.2368334785479,231.0815279357277L621.4088503997068,230.93503717120075L621.5808673208655,230.83737080256896L621.752884242024,230.73969974497777L621.8388927026037,230.6420239968831L622.0539138540523,230.00701719650755L622.0539138540523,229.81159054057878L622.0109096237625,229.66500819817475L621.8388927026037,229.32294153276405L621.7958884723143,229.17632386365898L621.8388927026037,228.9808171338628L621.924901163183,228.68752164756694L622.1829265449214,228.63863493500946L622.3979476963698,228.68752164756694L622.5269603872387,228.83417470149095L622.6989773083976,228.9808171338628L623.0000069204254,229.02969558521352L622.9570026901356,229.42068075400584L623.1290196112946,229.61614506387338L623.1290196112946,229.76273093633398L623.1290196112946,230.10472347054974L623.2580323021639,230.34896859412436L623.3010365324533,230.49550157666647L623.387044993033,230.54434355673936L623.4300492233224,230.6420239968831L623.5160576839019,230.83737080256896L623.5160576839019,231.0326988524174L623.4300492233224,231.2768325581511L623.4300492233224,231.47211845252446L623.387044993033,231.6673856311882L623.2580323021639,231.8626341064799L623.1720238415842,232.05786389072944L623.1290196112946,232.204273970335L623.0430111507153,232.44826743539977L623.0000069204254,232.64344122045543L623.0000069204254,232.8385963637411L623.0000069204254,232.93616694856496L623.0430111507153,233.03373287756023L623.0860153810049,233.1800730447365L623.1290196112946,233.27762734088446L623.3010365324533,233.32640274494406L623.473053453612,233.32640274494406L623.7310788353502,233.37517698658286L623.9460999867988,233.27762734088446L624.1181169079578,233.22885077421296Z"></path>
<circle class="distCircs" cx="616.926431277325" cy="239.39850228592496" r="2.5430572743505673" stroke="#000" stroke-width="0.25" fill="#f9e1a9" data-q="TRIPURA" data-r="DHALAI"><title>TRIPURA - DHALAI: Census 2011 Total Rural Households = 73,160. Census 2011 Households with toilets = 48,584. Census 2001 Total Rural Households = 58,349. Census 2001 Households with toilets = 43,024. Difference between Census 2011 Households with toilets and Census 2001 Households with toilets = -7.3%</title></circle><circle class="distCircs" cx="621.4596066585157" cy="236.44334315703276" r="2.655023170071495" stroke="#000" stroke-width="0.25" fill="#fcf0b4" data-q="TRIPURA" data-r="NORTH TRIPURA"><title>TRIPURA - NORTH TRIPURA: Census 2011 Total Rural Households = 122,693. Census 2011 Households with toilets = 99,984. Census 2001 Total Rural Households = 102,579. Census 2001 Households with toilets = 87,339. Difference between Census 2011 Households with toilets and Census 2001 Households with toilets = -3.7%</title></circle><circle class="distCircs" cx="613.870129226458" cy="248.41608957136822" r="2.7330192567268967" stroke="#000" stroke-width="0.25" fill="#e7f4b3" data-q="TRIPURA" data-r="SOUTH TRIPURA"><title>TRIPURA - SOUTH TRIPURA: Census 2011 Total Rural Households = 173,665. Census 2011 Households with toilets = 143,409. Census 2001 Total Rural Households = 150,390. Census 2001 Households with toilets = 116,369. Difference between Census 2011 Households with toilets and Census 2001 Households with toilets = 5.2%</title></circle><circle class="distCircs" cx="611.6316377451714" cy="240.90671286567795" r="2.8060005168364683" stroke="#000" stroke-width="0.25" fill="#d5ecab" data-q="TRIPURA" data-r="WEST TRIPURA"><title>TRIPURA - WEST TRIPURA: Census 2011 Total Rural Households = 238,261. Census 2011 Households with toilets = 203,076. Census 2001 Total Rural Households = 228,362. Census 2001 Households with toilets = 173,852. Difference between Census 2011 Households with toilets and Census 2001 Households with toilets = 9.1%</title></circle></g></g></svg>