<?xml version="1.0" standalone="no"?><!DOCTYPE svg PUBLIC "-//W3C//DTD SVG 1.1//EN" "http://www.w3.org/Graphics/SVG/1.1/DTD/svg11.dtd"><svg id="chart" width="960" height="500" class="dorlingCart" data-type="dorlingCart" version="1.1" xmlns:xlink="http://www.w3.org/1999/xlink" xmlns="http://www.w3.org/2000/svg"><defs class="svg-crowbar"><style type="text/css"><![CDATA[.feature{ fill: #fcfcfc; stroke: #000000; stroke-width: 0.2px; cursor: pointer; }]]></style></defs>
<g><g transform="translate(-1247.0816650390625,-292.93994140625)scale(4,4)">
<path class="feature auto" data-q="UTTARAKHAND" d="M444.2744258364503,158.185562381156L444.2744258364503,158.33784507235504L444.31743006674014,158.33784507235504L444.4034385273196,158.4393594772539L444.44644275760925,158.49011446361806L444.44644275760925,158.54086797289688L444.44644275760925,158.64237056110716L444.44644275760925,158.7438672437106L444.4034385273196,158.79461337097922L444.31743006674014,158.8453580225305L444.23142160616067,158.99758312515598L444.1884173758708,159.09905915249652L444.1454131455812,159.14979495452627L444.1024089152918,159.3019935167917L444.05940468500216,159.35272342369728L443.9733962244227,159.45417881810084L443.80137930326373,159.5556283214766L443.7153708426845,159.65707193564714L443.5863581518154,159.70779153484852L443.5003496912359,159.75850966243127L443.4143412306564,159.75850966243127L443.2853285397873,159.75850966243127L443.2423243094977,159.75850966243127L443.1563158489182,159.75850966243127L443.07030738833896,159.8092263186221L443.02730315804934,159.8599415036486L442.9842989277595,159.91065521773896L442.89829046718023,159.96136746111955L442.81228200660075,159.96136746111955L442.7262735460213,159.91065521773896L442.68326931573165,159.91065521773896L442.6402650854418,159.8599415036486L442.6402650854418,159.75850966243127L442.55425662486255,159.606350864599L442.55425662486255,159.45417881810084L442.5112523945729,159.4034518573909L442.4682481642833,159.35272342369728L442.3822397037038,159.3019935167917L442.3392354734142,159.25126213644677L442.3392354734142,159.14979495452627L442.3822397037038,159.09905915249652L442.4682481642833,159.04832187611544L442.5112523945729,158.99758312515598L442.55425662486255,158.99758312515598L442.5972608551522,158.94684289939062L442.6402650854418,158.8453580225305L442.6402650854418,158.7438672437106L442.55425662486255,158.7438672437106L442.5112523945729,158.7438672437106L442.42524393399344,158.6931196404954L442.42524393399344,158.7438672437106L442.3392354734142,158.7438672437106L442.2532270128347,158.7438672437106L442.16721855225546,158.79461337097922L442.1242143219656,158.79461337097922L442.081210091676,158.8453580225305L442.03820586138613,158.8453580225305L441.95219740080665,158.8961011985915L441.8231847099378,158.8961011985915L441.7371762493583,158.8961011985915L441.6081635584892,158.8961011985915L441.56515932819934,158.8453580225305L441.56515932819934,158.7438672437106L441.56515932819934,158.6931196404954L441.6081635584892,158.64237056110716L441.6941720190687,158.54086797289688L441.8231847099378,158.54086797289688L441.909193170517,158.54086797289688L442.03820586138613,158.54086797289688L442.081210091676,158.54086797289688L442.1242143219656,158.49011446361806L442.1242143219656,158.4393594772539L442.1242143219656,158.33784507235504L442.1242143219656,158.28708565336353L442.03820586138613,158.236324756373L441.9952016310965,158.236324756373L441.909193170517,158.236324756373L441.8661889402274,158.236324756373L441.78018047964815,158.236324756373L441.6941720190687,158.236324756373L441.65116778877905,158.236324756373L441.56515932819934,158.185562381156L441.4791508676203,158.13479852748304L441.39314240704084,158.0840331951262L441.30713394646136,158.13479852748304L441.26412971617174,158.13479852748304L441.17812125559226,158.28708565336353L441.17812125559226,158.38860301357607L441.17812125559226,158.49011446361806L441.13511702530263,158.54086797289688L441.04910856472316,158.64237056110716L440.9631001041439,158.64237056110716L440.8770916435644,158.64237056110716L440.7910831829852,158.59162000531677L440.74807895269555,158.54086797289688L440.74807895269555,158.4393594772539L440.74807895269555,158.38860301357607L440.7910831829852,158.28708565336353L440.8340874132746,158.236324756373L440.8770916435644,158.185562381156L440.92009587385405,158.13479852748304L440.92009587385405,158.0332663838584L440.8770916435644,157.93172832367173L440.92009587385405,157.88095707429687L440.92009587385405,157.83018434509665L440.9631001041439,157.83018434509665L441.04910856472316,157.7794101358415L441.092112795013,157.67785727625568L441.13511702530263,157.5762984937101L441.092112795013,157.52551688075636L441.04910856472316,157.4747337863775L441.00610433443353,157.42394921034366L440.9631001041439,157.32237561239782L440.8340874132746,157.27158659002862L440.74807895269555,157.22079608509L440.61906626182645,157.22079608509L440.5760620315366,157.22079608509L440.4470493406675,157.27158659002862L440.361040880088,157.32237561239782L440.3180366497984,157.32237561239782L440.23202818921914,157.32237561239782L440.1890239589293,157.32237561239782L440.1030154983498,157.27158659002862L440.0170070377703,157.27158659002862L439.9740028074807,157.32237561239782L439.9309985771913,157.42394921034366L439.8449901166118,157.4747337863775L439.75898165603235,157.4747337863775L439.7159774257427,157.42394921034366L439.7159774257427,157.37316315242663L439.7159774257427,157.22079608509L439.7159774257427,157.1700040973529L439.67297319545287,157.0684156725698L439.5869647348736,157.01761923506518L439.50095627429437,157.01761923506518L439.4149478137149,157.01761923506518L439.37194358342504,157.0684156725698L439.37194358342504,157.11921062658962L439.37194358342504,157.27158659002862L439.4579520440045,157.32237561239782L439.543960504584,157.37316315242663L439.5869647348736,157.4747337863775L439.5869647348736,157.52551688075636L439.543960504584,157.5762984937101L439.50095627429437,157.5762984937101L439.4579520440045,157.5762984937101L439.4149478137149,157.62707862546745L439.3289393531354,157.62707862546745L439.28593512284556,157.67785727625568L439.24293089255593,157.72863444630417L439.1999266622663,157.7794101358415L439.1569224319767,157.88095707429687L439.0709139713972,157.88095707429687L438.9849055108177,157.88095707429687L438.9419012805281,157.88095707429687L438.8988970502385,157.83018434509665L438.8128885896592,157.7794101358415L438.76988435936937,157.67785727625568L438.6838758987899,157.62707862546745L438.5548632079208,157.5762984937101L438.46885474734154,157.52551688075636L438.33984205647243,157.4747337863775L438.25383359589296,157.4747337863775L438.1678251353137,157.4747337863775L438.0818166747342,157.52551688075636L437.9528039838651,157.5762984937101L437.86679552328565,157.67785727625568L437.7807870627064,157.72863444630417L437.6947786021269,157.7794101358415L437.60877014154767,157.88095707429687L437.47975745067833,157.93172832367173L437.39374899009886,157.93172832367173L437.2647362992302,157.93172832367173L437.17872783865073,157.88095707429687L437.09271937807125,157.7794101358415L437.09271937807125,157.67785727625568L437.09271937807125,157.5762984937101L437.09271937807125,157.32237561239782L437.0497151477814,157.27158659002862L437.0067109174918,157.22079608509L436.9207024569125,157.1700040973529L436.8776982266229,157.1700040973529L436.83469399633304,157.1700040973529L436.74868553575357,157.22079608509L436.6626770751741,157.37316315242663L436.61967284488446,157.42394921034366L436.5336643843052,157.4747337863775L436.4906601540156,157.52551688075636L436.4046516934361,157.52551688075636L436.31864323285663,157.52551688075636L436.18963054198775,157.4747337863775L436.1466263116979,157.52551688075636L436.1036220814083,157.52551688075636L436.0176136208288,157.52551688075636L435.9316051602493,157.52551688075636L435.8455966996703,157.4747337863775L435.7595882390906,157.42394921034366L435.67357977851134,157.42394921034366L435.6305755482215,157.4747337863775L435.58757131793186,157.52551688075636L435.5015628573526,157.52551688075636L435.45855862706276,157.62707862546745L435.3725501664835,157.62707862546745L435.286541705904,157.62707862546745L435.2435374756142,157.62707862546745L435.20053324532455,157.62707862546745L435.1145247847451,157.5762984937101L435.07152055445545,157.42394921034366L435.07152055445545,157.37316315242663L435.07152055445545,157.22079608509L435.0285163241658,157.0684156725698L435.0285163241658,156.96682131384733L435.0285163241658,156.81441864561992L435.07152055445545,156.7128094440351L435.0285163241658,156.61119430209732L434.9855120938762,156.50957321797495L434.94250786358634,156.40794618983358L434.8564994030071,156.25549449857436L434.81349517271747,156.15385260236098L434.727486712138,156.0522047557077L434.68448248184836,156.00137860039223L434.55546979097926,155.8488912037368L434.5124655606894,155.79805909385L434.4694613303998,155.74722549474694L434.42645710010993,155.69639040619694L434.3834528698203,155.69639040619694L434.3404486395307,155.69639040619694L434.2114359486616,155.69639040619694L434.16843171837195,155.74722549474694L434.08242325779247,155.79805909385L433.9964147972132,155.8488912037368L433.9534105669236,155.8488912037368L433.8674021063441,155.89972182463634L433.738389415475,155.89972182463634L433.65238095489553,155.89972182463634L433.52336826402643,155.89972182463634L433.3943555731573,155.95055095677793L433.26534288228845,155.95055095677793L433.13633019141935,155.8488912037368L433.0933259611295,155.79805909385L432.9643132702604,155.69639040619694L432.79229634910166,155.54387620157246L432.7062878885224,155.44219261371188L432.62027942794293,155.39134858365873L432.4912667370736,155.23880754625333L432.4052582764946,155.18795755060285L432.27624558562525,155.08625308314726L432.14723289475614,154.98454264595472L432.01822020388727,154.88282623718294L431.88920751301794,154.78110385499275L431.80319905243846,154.73024042329L431.6741863615698,154.67937549754186L431.5881779009901,154.6285090775175L431.50216944041085,154.57764116298767L431.459165210121,154.52677175372156L431.24414405867265,154.3741545552026L431.201139828383,154.32327916468824L431.0721271375137,154.22152389576422L430.98611867693444,154.1706440168934L430.9431144466448,154.06887976918284L430.9431144466448,154.01799539988139L430.9431144466448,153.91622216923366L430.9431144466448,153.81444294765504L430.98611867693444,153.76355108968943L431.0721271375137,153.66176287825215L431.0721271375137,153.61086652431965L431.15813559809317,153.50906931886965L431.15813559809317,153.45816846689195L431.15813559809317,153.35636226327398L431.11513136780354,153.25455005856753L431.0721271375137,153.20364170522828L430.9431144466448,153.20364170522828L430.8141017557757,153.20364170522828L430.642084834617,153.10182049542328L430.5560763740375,153.05090763849444L430.5130721437479,153.10182049542328L430.4270636831684,153.10182049542328L430.3410552225889,153.05090763849444L430.2120425317198,153.05090763849444L430.08302984085094,152.94907741943007L429.95401714998184,152.84724119188087L429.86800868940213,152.79632082434608L429.73899599853326,152.64355070392656L429.6529875379538,152.59262432374356L429.60998330766415,152.54169643982056L429.5669790773745,152.59262432374356L429.48097061679505,152.59262432374356L429.35195792592594,152.7453989539967L429.22294523505684,152.89816005683178L429.22294523505684,152.94907741943007L429.1799410047672,152.99999327990713L429.13693677447736,153.05090763849444L429.09393254418796,153.10182049542328L429.0079240836085,153.10182049542328L428.96491985331886,153.10182049542328L428.8789113927394,153.10182049542328L428.7929029321599,153.10182049542328L428.70689447158065,153.10182049542328L428.663890241291,153.15273185092394L428.6208860110012,153.15273185092394L428.5348775504217,153.20364170522828L428.4918733201321,153.25455005856753L428.4488690898422,153.25455005856753L428.31985639897357,153.25455005856753L428.19084370810424,153.25455005856753L428.1478394778144,153.25455005856753L428.06183101723514,153.25455005856753L427.9758225566559,153.25455005856753L427.8898140960764,153.25455005856753L427.80380563549693,153.25455005856753L427.71779717491745,153.25455005856753L427.6747929446278,153.20364170522828L427.6317887143382,153.20364170522828L427.58878448404835,153.15273185092394L427.5457802537587,153.05090763849444L427.5027760234691,152.99999327990713L427.5027760234691,152.89816005683178L427.5027760234691,152.79632082434608L427.45977179317947,152.64355070392656L427.45977179317947,152.54169643982056L427.3737633326,152.4398361598258L427.3737633326,152.3379698620911L427.33075910231037,152.18515912817395L427.33075910231037,152.13421920599052L427.28775487202074,152.03233484391893L427.20174641144126,151.93044445669398L427.15874218115164,151.82854804246188L427.115737950862,151.72664559936732L427.07273372057216,151.67569211641745L426.9867252599927,151.62473712555618L426.9867252599927,151.5737806265518L426.94372102970306,151.47186310318529L426.94372102970306,151.36993954446064L426.9007167994132,151.2680099485225L426.8577125691236,151.21704288601694L426.81470833883395,151.166074313512L426.7717041085443,151.1151042307746L426.7286998782545,151.166074313512L426.6426914176752,151.21704288601694L426.55668295709575,151.21704288601694L426.5136787268061,151.2680099485225L426.4706744965165,151.2680099485225L426.29865757535754,151.31897550125956L426.16964488448843,151.31897550125956L426.0836364239092,151.2680099485225L425.9976279633297,151.2680099485225L425.91161950275045,151.21704288601694L425.8686152724606,151.21704288601694L425.825611042171,151.166074313512L425.7826068118811,151.1151042307746L425.7396025815917,151.01315953367305L425.56758566043277,150.91120879285472L425.4815771998533,150.86023115547067L425.43857296956367,150.8092520064601L425.39556873927404,150.70728917263034L425.30956027869456,150.6053202895057L425.26655604840494,150.6053202895057L425.2235518181153,150.50334535522404L425.094539127246,150.50334535522404L425.05153489695635,150.45235561831873L424.9655264363769,150.40136436792653L424.87951797579785,150.40136436792653L424.836513745508,150.40136436792653L424.7935095152184,150.40136436792653L424.7935095152184,150.29937732575047L424.836513745508,150.2483815335019L424.7935095152184,150.2483815335019L424.836513745508,150.19738422683542L424.87951797579785,150.14638540551863L424.92252220608725,150.09538506931818L424.92252220608725,149.99337985133553L424.92252220608725,149.89136857102574L424.9655264363769,149.84036065691555L425.05153489695635,149.84036065691555L425.094539127246,149.7893512265241L425.18054758782546,149.7893512265241L425.2235518181153,149.7383402796197L425.26655604840494,149.68732781596725L425.30956027869456,149.68732781596725L425.3525645089844,149.63631383533544L425.39556873927404,149.58529833748946L425.43857296956367,149.5342813221983L425.4815771998533,149.5342813221983L425.56758566043277,149.5342813221983L425.56758566043277,149.58529833748946L425.56758566043277,149.68732781596725L425.56758566043277,149.7893512265241L425.65359412101225,149.84036065691555L425.6965983513021,149.89136857102574L425.6965983513021,149.94237496908806L425.7826068118811,150.04438321800149L425.825611042171,150.14638540551863L425.91161950275045,150.14638540551863L425.9976279633297,150.14638540551863L426.04063219361956,150.14638540551863L426.04063219361956,149.99337985133553L426.04063219361956,149.94237496908806L425.9976279633297,149.84036065691555L425.9546237330401,149.7893512265241L425.9546237330401,149.63631383533544L425.9976279633297,149.4832627892273L426.0836364239092,149.3812211693139L426.1266406541988,149.33019808190465L426.2556533450679,149.2281473510165L426.3416618056474,149.2281473510165L426.38466603593724,149.2281473510165L426.42767026622687,149.2791734758835L426.5136787268061,149.3812211693139L426.55668295709575,149.3812211693139L426.6426914176752,149.33019808190465L426.6426914176752,149.2791734758835L426.7286998782545,149.17711970707035L426.81470833883395,149.17711970707035L426.9867252599927,149.17711970707035L427.02972949028253,149.17711970707035L427.115737950862,149.1260905438108L427.15874218115164,148.97299393582443L427.2447506417309,148.81988364562108L427.33075910231037,148.61571529766718L427.45977179317947,148.51362199333403L427.5457802537587,148.51362199333403L427.58878448404835,148.41152259960552L427.6317887143382,148.30941711460946L427.71779717491745,148.25836208730163L427.8468098657868,148.20730553647485L427.93281832636603,148.10518786333125L427.93281832636603,148.00306409330523L427.8898140960764,147.84986700251892L427.7608014052073,147.84986700251892L427.58878448404835,147.7987982551212L427.5027760234691,147.7987982551212L427.33075910231037,147.7987982551212L427.20174641144126,147.74772798209756L427.115737950862,147.69665618321517L426.94372102970306,147.64558285823938L426.81470833883395,147.64558285823938L426.6426914176752,147.54343162907043L426.55668295709575,147.49235372440876L426.42767026622687,147.49235372440876L426.3416618056474,147.44127429271668L426.16964488448843,147.44127429271668L426.04063219361956,147.39019333375956L425.91161950275045,147.3391108473021L425.825611042171,147.23694129095298L425.7826068118811,147.185854220591L425.65359412101225,147.08367549432074L425.4815771998533,146.98149065242438L425.39556873927404,146.93039593752974L425.30956027869456,146.82820191867393L425.18054758782546,146.7771026142437L425.094539127246,146.7771026142437L424.836513745508,146.67489941420388L424.66449682434927,146.62379551812535L424.53548413348017,146.57269009102788L424.3634672123212,146.57269009102788L424.2344545214521,146.52158313267563L424.0624376002934,146.47047464283463L423.89042067913465,146.3682530677459L423.7614079882658,146.21490921307043L423.5893910671068,146.1126723125169L423.288361455079,145.90818010909464L423.11634453392026,145.75479484709325L422.98733184305115,145.60139576994487L422.77231069160257,145.44798287129305L422.6863022310231,145.29455614477916L422.299264158416,144.93650663882391L422.0842430069674,144.68071083284218L421.99823454638795,144.52721487155054L421.9552303160983,144.3225320192911L421.9122260858087,144.1690036939283L421.9122260858087,144.01546148761827L421.8262176252292,143.60594769318305L421.7832133949396,143.4523545354544L421.74020916464974,143.34995136917053L421.69720493436034,143.29874746697897L421.56819224349124,143.1963350233117L421.48218378291153,143.09391639235463L421.35317109204266,143.0427047560496L421.22415840117355,142.94027684060308L421.09514571030445,142.88906056098722L420.96613301943535,142.8378427331274L420.75111186798676,142.7354024317254L420.57909494682804,142.68417995770966L420.4930864862488,142.58173036186224L420.32106956509006,142.53050323955614L420.1920568742207,142.42804434499413L420.0630441833516,142.37681257226274L419.97703572277237,142.3255792489154L419.80501880161364,142.2743443747135L419.71901034103416,142.2231079494204L419.5039891895858,142.1718699727988L419.3749764987165,142.12063044461178L419.20295957755775,142.12063044461178L419.1169511169785,142.12063044461178L419.030942656399,142.2231079494204L418.94493419581977,142.2743443747135L418.8589257352403,142.3255792489154L418.6009003535021,142.58173036186224L418.5148918929226,142.68417995770966L418.42888343234335,142.7866233567861L418.3428749717639,142.8378427331274L418.213862280895,142.94027684060308L418.1278538203155,143.0427047560496L418.0848495900259,143.14512648136287L417.95583689915657,143.14512648136287L417.8698284385773,143.0427047560496L417.78381997799784,142.99149157221132L417.65480728712873,142.94027684060308L417.52579459625986,142.94027684060308L417.43978613568015,142.99149157221132L417.39678190539075,142.99149157221132L417.31077344481105,143.0427047560496L417.31077344481105,143.14512648136287L417.26776921452165,143.24754201843814L417.2247649842318,143.34995136917053L417.2247649842318,143.40115372525014L417.18176075394217,143.4523545354544L417.18176075394217,143.5035538000201L417.18176075394217,143.60594769318305L417.13875652365255,143.6571423222532L417.0957522933627,143.81071694225915L417.05274806307307,143.91309230195685L417.00974383278344,143.96427766642432L416.88073114191434,144.11782450113373L416.8377269116245,144.1690036939283L416.62270576017613,144.1690036939283L416.493693069307,144.1690036939283L416.3216761481483,144.1690036939283L416.14965922698957,144.22018134439503L416.06365076640986,144.3225320192911L415.9776423058306,144.37370504419357L415.934638075541,144.47604647008717L415.8486296149615,144.57838173234018L415.7196169240924,144.68071083284218L415.63360846351316,144.68071083284218L415.5476000029339,144.6295470526925L415.4615915423544,144.6295470526925L415.37558308177495,144.6295470526925L415.28957462119547,144.6295470526925L415.16056193032637,144.68071083284218L415.0745534697471,144.78303377348055L415.03154923945726,144.88535055614346L415.0745534697471,144.93650663882391L415.0745534697471,145.0388141880618L415.0745534697471,145.14111558404267L415.0745534697471,145.19226397514984L415.03154923945726,145.2434108286502L414.98854500916764,145.29455614477916L414.85953231829876,145.29455614477916L414.7735238577193,145.2434108286502L414.6445111668502,145.29455614477916L414.5585027062707,145.34569992377186L414.4294900154016,145.39684216586517L414.386485785112,145.39684216586517L414.3004773245325,145.39684216586517L414.25747309424287,145.34569992377186L414.3004773245325,145.19226397514984L414.3004773245325,145.08996565509176L414.3434815548221,145.0388141880618L414.386485785112,144.88535055614346L414.4294900154016,144.83419293444047L414.4294900154016,144.68071083284218L414.5154984759811,144.52721487155054L414.4294900154016,144.37370504419357L414.3434815548221,144.3225320192911L414.3004773245325,144.27135745277076L414.214468863953,144.1690036939283L414.12846040337354,144.11782450113373L414.0424519427945,144.01546148761827L414.0424519427945,143.96427766642432L413.9994477125049,143.8619053939807L413.95644348221504,143.6571423222532L413.9994477125049,143.5547515191846L414.0424519427945,143.4523545354544L414.08545617308414,143.40115372525014L414.12846040337354,143.34995136917053L414.214468863953,143.24754201843814L414.214468863953,143.1963350233117L414.1714646336636,143.14512648136287L414.1714646336636,143.0427047560496L414.12846040337354,142.99149157221132L414.12846040337354,142.88906056098722L414.1714646336636,142.7866233567861L414.12846040337354,142.7354024317254L414.0424519427945,142.58173036186224L413.95644348221504,142.58173036186224L413.87043502163556,142.58173036186224L413.7844265610561,142.68417995770966L413.74142233076645,142.7354024317254L413.69841810047683,142.7866233567861L413.61240963989735,142.99149157221132L413.5264011793181,143.0427047560496L413.48339694902825,143.09391639235463L413.35438425815914,143.1963350233117L413.26837579757967,143.29874746697897L413.22537156729027,143.40115372525014L413.1393631067108,143.4523545354544L413.0103504158417,143.4523545354544L412.8813377249726,143.4523545354544L412.83833349468296,143.5035538000201L412.70932080381385,143.5035538000201L412.666316573524,143.5547515191846L412.5373038826549,143.60594769318305L412.45129542207565,143.708335406632L412.36528696149617,143.75952694655462L412.2362742706273,143.81071694225915L412.1502658100478,143.81071694225915L412.06425734946833,143.91309230195685L411.97824888888886,143.96427766642432L411.84923619801975,143.96427766642432L411.72022350715065,143.96427766642432L411.5912108162818,143.96427766642432L411.5052023557023,143.96427766642432L411.41919389512304,143.91309230195685L411.33318543454357,143.91309230195685L411.2471769739641,143.8619053939807L411.1611685133846,143.81071694225915L411.118164283095,143.75952694655462L411.07516005280536,143.6571423222532L410.9891515922259,143.5547515191846L410.9891515922259,143.40115372525014L410.9891515922259,143.29874746697897L410.94614736193626,143.14512648136287L410.90314313164663,142.99149157221132L410.90314313164663,142.88906056098722L410.860138901357,142.7354024317254L410.81713467106715,142.6329559345014L410.7741304407773,142.53050323955614L410.7741304407773,142.47927456734618L410.7741304407773,142.3255792489154L410.7741304407773,142.2231079494204L410.7741304407773,142.0693893646199L410.7741304407773,141.966902548277L410.7741304407773,141.86440952186825L410.7741304407773,141.60814977433427L410.7741304407773,141.40311400248993L410.7311262104879,141.30058678672833L410.6881219801983,141.198053348536L410.6451177499084,141.1467842954337L410.6021135196188,141.04424152002503L410.43009659845984,140.8904156803315L410.3870923681702,140.83913728572605L410.3440881378806,140.73657582302388L410.2580796773011,140.6340081274128L410.2580796773011,140.58272194166994L410.30108390759074,140.48014489311845L410.43009659845984,140.37756160688838L410.4731008287497,140.2749720810724L410.4731008287497,140.12107608894996L410.4731008287497,139.96716604702033L410.4731008287497,139.8645515437696L410.4731008287497,139.6079879415015L410.4731008287497,139.3000600213701L410.43009659845984,139.19740486457647L410.3440881378806,139.09474344621788L410.30108390759074,139.04341038835372L410.2150754470115,138.94073957406005L410.2150754470115,138.83806249341427L410.2150754470115,138.78672160261175L410.3440881378806,138.68403511884895L410.3870923681702,138.63268952540977L410.5161050590393,138.63268952540977L410.6451177499084,138.47864333598545L410.6881219801983,138.42729146900928L410.81713467106715,138.27322645322454L410.90314313164663,138.17050859458794L410.9891515922259,138.11914731011632L410.9891515922259,137.96505403320998L410.9891515922259,137.81094661602685L410.90314313164663,137.70820047899548L410.81713467106715,137.60544805259468L410.6881219801983,137.55406948028076L410.6451177499084,137.45130761622454L410.6451177499084,137.2971530179655L410.7311262104879,137.2971530179655L410.860138901357,137.24576500367084L410.94614736193626,137.24576500367084L411.07516005280536,137.14298425132773L411.20417274367446,137.04019719904198L411.29018120425394,137.04019719904198L411.46219812541267,136.8346041869478L411.46219812541267,136.73179822328905L411.46219812541267,136.57757745037162L411.46219812541267,136.47475571399775L411.46219812541267,136.3719276651666L411.54820658599215,136.16625262242115L411.6342150465714,136.01197975582357L411.677219276861,135.90912327707605L411.8062319677301,135.85769266667364L411.93524465859923,135.754826702606L412.06425734946833,135.65195441257953L412.19327004033744,135.5490757946635L412.2792785009169,135.49763411214303L412.45129542207565,135.39474599877025L412.49429965236527,135.39474599877025L412.5373038826549,135.34329956743568L412.666316573524,135.24040195425965L412.7523250341035,135.18895077193633L412.83833349468296,135.13749800546645L412.92434195526243,135.0860436546089L413.09635887642094,134.93167109329204L413.1393631067108,134.88021040246593L413.31138002786975,134.82874812604337L413.35438425815914,134.77728426378178L413.6554138701872,134.72581881544L413.74142233076645,134.62288315954805L413.69841810047683,134.57141295151365L413.6554138701872,134.41699280415196L413.61240963989735,134.36551624647194L413.5264011793181,134.26255836681946L413.39738848844877,134.21107704436292L413.26837579757967,134.21107704436292L413.1393631067108,134.31403810077472L413.0533546461313,134.26255836681946L413.0533546461313,134.21107704436292L413.0103504158417,134.15959413316313L413.0103504158417,134.05662354356474L412.96734618555206,134.00513586468082L412.92434195526243,134.00513586468082L412.83833349468296,134.00513586468082L412.7523250341035,134.00513586468082L412.666316573524,134.00513586468082L412.6233123432344,134.00513586468082L412.5373038826549,134.00513586468082L412.4082911917858,134.00513586468082L412.32228273120654,134.00513586468082L412.2792785009169,134.00513586468082L412.19327004033744,133.9536465960851L412.1072615797582,133.90215573753426L412.06425734946833,133.90215573753426L411.97824888888886,133.85066328878565L411.8062319677301,133.79916924959747L411.7632277374405,133.74767361972738L411.677219276861,133.74767361972738L411.54820658599215,133.6961763989321L411.5052023557023,133.64467758696958L411.46219812541267,133.5931771835971L411.41919389512304,133.54167518857196L411.33318543454357,133.43866642259326L411.29018120425394,133.43866642259326L411.2471769739641,133.38715965115432L411.1611685133846,133.38715965115432L411.03215582251573,133.23262978012707L410.9891515922259,133.18111663673812L410.90314313164663,133.18111663673812L410.81713467106715,133.1296018997545L410.7741304407773,133.07808556893315L410.6881219801983,133.02656764403196L410.6021135196188,133.02656764403196L410.5591092893292,132.97504812480707L410.4731008287497,132.92352701101527L410.43009659845984,132.92352701101527L410.3870923681702,132.87200430241506L410.30108390759074,132.82047999876193L410.2580796773011,132.76895409981307L410.17207121672186,132.71742660532635L410.0860627561424,132.66589751505649L410.00005429556313,132.61436682876246L409.871041604694,132.51130066712676L409.8280373744042,132.45976519129766L409.7420289138247,132.25360731557026L409.6990246835351,132.20206385231785L409.65602045324545,132.15051879085064L409.6130162229558,132.15051879085064L409.52700776237634,132.15051879085064L409.4840035320867,132.0989721309245L409.39799507150724,132.04742387229675L409.3549908412176,131.9958740147227L409.31198661092776,131.94432255796033L409.26898238063836,131.89276950176452L409.2259781503483,131.78965859010077L409.0969654594792,131.73810073414427L409.05396122918955,131.73810073414427L409.0109569988999,131.68654127778052L408.9679527686103,131.6349802207656L408.9249485383207,131.5834175628553L408.8389400777412,131.53185330380546L408.7959358474516,131.53185330380546L408.7099273868721,131.53185330380546L408.6239189262926,131.53185330380546L408.580914696003,131.53185330380546L408.4519020051339,131.53185330380546L408.3658935445544,131.48028744337302L408.27988508397516,131.42871998131392L408.15087239310606,131.32558025133915L408.3658935445544,131.06770288085255L409.2259781503483,130.86137212150135L409.6130162229558,130.65501568924958L409.8280373744042,130.39703402259312L409.9140458349834,130.34543286997138L410.129066986432,130.1390121870284L410.43009659845984,129.9841797918928L410.6881219801983,129.72609362245436L410.90314313164663,129.57122260348717L411.20417274367446,129.41633708845683L411.33318543454357,129.20980050754144L411.33318543454357,128.95159350077643L411.07516005280536,128.6933461535781L410.7741304407773,128.6416918405854L410.2150754470115,128.33173203712414L410.2150754470115,128.17673031507832L410.3870923681702,127.97003870895867L410.4731008287497,127.81500301321341L410.43009659845984,127.65995274623668L410.3440881378806,127.40150323603496L410.3870923681702,127.14301320092574L410.5161050590393,126.72934477601558L410.5161050590393,126.41902524772024L410.4731008287497,126.2121130517894L410.30108390759074,125.95343620487517L410.04305852585253,125.69471866022167L409.8280373744042,125.48771530134098L409.7420289138247,125.22892442279851L409.7420289138247,125.02186235668779L409.9140458349834,124.7112202815452L410.129066986432,124.45230695684057L410.2580796773011,124.14155700627487L410.30108390759074,123.88255371027316L410.4731008287497,123.62350946852308L410.5591092893292,123.57169570394802L410.81713467106715,123.83074813857735L411.07516005280536,123.88255371027316L411.07516005280536,123.67532159402492L411.03215582251573,123.51988030005032L410.9891515922259,123.36442424993413L411.1611685133846,123.20895343695526L411.20417274367446,123.05346785438962L411.1611685133846,122.89796749551022L410.9891515922259,122.79429237720541L410.5591092893292,122.74245235358848L410.4731008287497,122.53507582354655L410.43009659845984,122.1721035805777L410.43009659845984,122.01651936206855L410.7741304407773,121.86092032233267L411.03215582251573,122.01651936206855L411.29018120425394,122.12024382079483L411.41919389512304,122.1721035805777L411.5052023557023,121.96465466262572L411.41919389512304,121.75717939182925L411.29018120425394,121.60155563505566L411.29018120425394,121.44591703905672L411.20417274367446,121.18648638465936L411.03215582251573,120.92701446014456L410.94614736193626,120.71940718501105L411.03215582251573,120.51177346092777L411.1611685133846,120.51177346092777L411.46219812541267,120.56368437241503L411.84923619801975,120.35603080108831L411.8062319677301,119.99257333123211L411.7632277374405,119.78484690939695L412.0212531191787,119.36931448595072L412.36528696149617,119.0056364914563L412.666316573524,118.58990481172623L412.96734618555206,118.6938477068087L413.4403927187386,118.53793086926362L413.6554138701872,118.33001846072312L413.95644348221504,118.64187709082387L414.25747309424287,118.90171354465883L414.6015069365603,118.7458166599323L414.6875153971398,118.38199905916588L414.945540778878,118.12207941817303L415.28957462119547,118.27803619765473L415.63360846351316,118.27803619765473L415.8056253846719,118.07009049407986L415.9776423058306,117.75812195706027L416.2786719178587,117.70612136645718L416.7087142207554,117.75812195706027L417.13875652365255,117.75812195706027L417.43978613568015,117.6541191081999L417.7408157477082,117.3940827932517L417.9988411294464,117.08198412989748L418.3428749717639,116.97793787930556L418.6439045837917,116.82185596882772L418.9879384261094,116.61372334632398L419.3749764987165,116.5096469982854L419.6330018804549,116.61372334632398L419.67600611074454,116.66575901076664L419.80501880161364,116.8738849439365L419.8910272621929,117.02996184007196L420.1060484136417,117.2380409762564L420.4070780256693,117.2380409762564L420.57909494682804,117.18602369773623L421.009137249725,117.3420705237607L421.009137249725,117.55010958770993L421.09514571030445,117.81012088026176L421.22415840117355,117.96610764798072L421.35317109204266,118.01809990410004L421.61119647378064,118.07009049407986L421.99823454638795,118.12207941817303L422.3422683887054,118.01809990410004L422.557289540154,117.75812195706027L422.6863022310231,117.60211518203431L423.07334030363063,117.49810232497333L423.3313656853686,117.60211518203431L423.4603783762377,117.75812195706027L423.7614079882658,117.9141137254694L423.9334249094243,118.07009049407986L424.3204629820316,118.22605226970785L424.836513745508,118.17406667663198L425.18054758782546,118.17406667663198L425.6105898907226,118.22605226970785L425.9976279633297,118.53793086926362L426.04063219361956,118.6938477068087L426.0836364239092,118.84974957860578L426.38466603593724,119.21346245087108L426.55668295709575,119.42126184479923L426.7717041085443,119.62903468934223L427.02972949028253,119.78484690939695L427.33075910231037,119.83678100059274L427.45977179317947,119.78484690939695L427.6747929446278,119.78484690939695L428.0188267869455,119.78484690939695L428.2768521686835,119.62903468934223L428.4488690898422,119.47320754431075L428.6208860110012,119.10955279285594L428.663890241291,118.84974957860578L428.5348775504217,118.58990481172623L428.2338479383941,118.38199905916588L427.9758225566559,118.12207941817303L427.5027760234691,117.49810232497333L427.4167675628896,117.2380409762564L427.33075910231037,116.97793787930556L427.5027760234691,116.97793787930556L427.6317887143382,116.92591224734412L427.71779717491745,116.71779300249636L427.80380563549693,116.5096469982854L427.8468098657868,116.24942683796837L427.8468098657868,115.93710737635217L427.8468098657868,115.72886088006948L428.0188267869455,115.5205875473385L428.1478394778144,115.46851501905616L428.4488690898422,115.31228736190411L428.7498987018703,115.1560445909609L428.921915623029,114.89560636787252L429.05092831389834,114.53092223194301L429.22294523505684,114.27038307471508L429.35195792592594,114.0619214312535L429.3949621562158,113.85343282107084L429.5239748470847,113.69704865670332L429.5669790773745,113.59278411152133L429.73899599853326,113.59278411152133L429.86800868940213,113.69704865670332L430.0400256105611,113.85343282107084L430.2980509922993,114.00980180747598L430.5560763740375,114.21827019108787L430.8141017557757,114.47881776776939L431.201139828383,114.68722552672273L431.4161609798314,114.8435136802376L431.5881779009901,115.20812719434264L431.6741863615698,115.46851501905616L432.0612244341769,115.83298748175179L432.2332413553356,116.04122056590228L432.3622540462047,116.24942683796837L432.4052582764946,116.56168600891482L432.27624558562525,116.76982532176532L432.2332413553356,117.02996184007196L432.2332413553356,117.18602369773623L432.3622540462047,117.3420705237607L432.5772751976531,117.44609339357157L432.66328365823256,117.55010958770993L432.8353005793913,117.81012088026176L432.9643132702604,118.07009049407986L433.00731750055,118.38199905916588L433.05032173083987,118.64187709082387L433.13633019141935,118.90171354465883L433.2223386519988,119.0056364914563L433.3943555731573,119.21346245087108L433.69538518518516,119.26541478923826L433.91040633663397,119.36931448595072L434.29744440924105,119.68097375402283L434.4694613303998,119.94064421125933L434.5124655606894,120.14835075272458L434.727486712138,120.51177346092777L434.7704909424276,120.71940718501105L434.94250786358634,120.82321412769392L435.286541705904,120.82321412769392L435.67357977851134,120.87511512007296L435.9746093905392,121.03080818436763L436.275639002567,121.23837581614669L436.5336643843052,121.54967775219194L436.7916897660434,121.8090506809819L436.9207024569125,122.01651936206855L437.0497151477814,122.1721035805777L437.30774052951983,122.3276729846063L437.5657659112578,122.3276729846063L437.7807870627064,122.1721035805777L438.0388124444446,122.01651936206855L438.21082936560333,121.86092032233267L438.5548632079208,121.8090506809819L438.85589281994885,121.8090506809819L439.24293089255593,121.70530645462384L439.4579520440045,121.75717939182925L439.75898165603235,121.8090506809819L440.1030154983498,121.8090506809819L440.4470493406675,121.8090506809819L440.70507472240547,121.8090506809819L440.9631001041439,121.86092032233267L441.13511702530263,121.96465466262572L441.3501381767512,122.1721035805777L441.65116778877905,122.84613075776292L441.909193170517,123.15712655083064L442.2532270128347,123.36442424993413L442.4682481642833,123.4162445732922L442.68326931573165,123.46806325658162L442.89829046718023,123.57169570394802L443.4143412306564,123.9861599404228L443.9733962244227,124.45230695684057L444.2744258364503,124.7112202815452L444.4894469878989,124.91832153042128L444.7474723696371,125.12539665348618L444.9194892907956,125.17716135395426L445.26352313311327,125.17716135395426L445.39253582398237,125.07363032114665L445.5645527451413,124.97009275986238L445.73656966630006,124.97009275986238L445.86558235716916,125.07363032114665L445.9085865874588,125.22892442279851L445.9085865874588,125.33244566660863L445.99459504803826,125.48771530134098L446.20961619948685,125.64297026484019L446.33862889035595,125.64297026484019L446.5106458115147,125.64297026484019L446.72566696296303,125.64297026484019L446.85467965383214,125.69471866022167L446.89768388412176,125.79821056379075L446.89768388412176,126.00517482908776L446.76867119325266,126.31557240211248L446.5536500418043,126.72934477601558L446.5106458115147,127.039605833005L446.4246373509352,127.65995274623668L446.4676415812248,128.17673031507832L446.5536500418043,128.53837836908286L446.6826627326734,128.6933461535781L446.8116754235423,128.89994725955358L447.0697008052807,128.95159350077643L447.3277261870187,129.0032381283824L447.5857515687569,129.10652254372428L447.8007727202055,129.20980050754144L448.0587981019437,129.26143707074283L448.3168234836817,129.57122260348717L448.5748488654199,129.77771407523915L448.9618869380274,129.88095015197314L449.2199123197654,129.88095015197314L449.6069503923727,129.9841797918928L449.77896731353144,130.0874029969557L450.1230011558489,130.24222574348005L450.38102653758733,130.44863356845843L450.5960476890357,130.70660720500211L450.81106884048404,130.86137212150135L450.98308576164277,130.86137212150135L451.06909422222225,130.86137212150135L451.2411111433812,130.75819711546495L451.45613229482956,130.55182784089936L451.6711534462779,130.39703402259312L452.0151872885956,130.39703402259312L452.1872042097543,130.50023150781243L452.1872042097543,130.8097854208831L452.4022253612027,131.0161225969942L452.70325497323074,131.11928156113186L452.96128035496895,131.27400798293604L453.4343268881555,131.42871998131392L453.520335348735,131.53185330380546L453.8643691910527,131.6349802207656L453.99338188192155,131.68654127778052L454.38041995452886,132.04742387229675L454.7674580271362,132.4082281184712L455.1975003300331,133.02656764403196L455.49852994206094,133.38715965115432L455.9285722449579,133.74767361972738L456.3156103175652,133.85066328878565L456.6596441598829,133.9536465960851L457.1756949233593,134.10810963297803L457.4767245353869,134.10810963297803L457.90676683828406,134.15959413316313L458.03577952915293,134.26255836681946L458.2077964503119,134.41699280415196L458.33680914118077,134.62288315954805L458.42281760176024,134.93167109329204L458.55183029262935,135.29185155267925L458.68084298349845,135.60051589472823L458.68084298349845,135.70339134845864L458.594834522919,135.8062604752639L458.46582183204987,135.85769266667364L458.2077964503119,135.8062604752639L457.8637626079942,135.8062604752639L457.6487414565456,135.85769266667364L457.347711844518,135.90912327707605L456.91766954162085,135.8062604752639L456.1865976266961,135.65195441257953L456.1005891661166,135.70339134845864L456.057584935827,135.85769266667364L456.01458070553736,136.26909330195042L456.01458070553736,136.68039287621468L455.7135510935093,137.14298425132773L455.2835087906126,137.65682505208605L454.9824791785845,137.91368646561057L454.72445379684655,138.06778445522286L454.59544110597744,138.17050859458794L454.38041995452886,138.52999363421753L454.12239457279065,138.88940181715054L453.8643691910527,139.19740486457647L453.4343268881555,139.40270891851418L452.83226766409985,139.55667053156918L452.48823382178216,139.65930378795537L452.2302084400442,139.76193079138454L451.972183058306,139.91585957641712L451.6711534462779,140.1723763137624L451.5421407554088,140.2749720810724L451.32711960396045,140.68529275445127L451.1120984525121,141.1467842954337L450.85407307077367,141.4543752775537L450.6390519193253,141.86440952186825L450.38102653758733,142.1718699727988L450.1230011558489,142.6329559345014L449.6069503923727,142.8378427331274L449.262916550055,142.8378427331274L449.04789539860644,142.94027684060308L448.8328742471581,143.09391639235463L448.7468657865786,143.34995136917053L448.703861556289,143.6571423222532L448.703861556289,144.06664376577618L448.8328742471581,144.42487652771337L449.04789539860644,144.83419293444047L449.1769080894758,145.14111558404267L449.262916550055,145.29455614477916L449.3489250106345,145.60139576994487L449.3489250106345,145.95930546082775L449.13390385918615,146.3171399820282L448.8328742471581,146.41936462126944L448.5748488654199,146.52158313267563L448.40283194426115,146.7260017794991L448.3168234836817,147.0325838379428L448.3168234836817,147.39019333375956L448.18781079281257,147.64558285823938L447.9297854110746,147.7987982551212L447.62875579904653,147.95199992137748L447.3277261870187,148.10518786333125L447.11270503557034,148.20730553647485L446.98369234470124,148.30941711460946L446.89768388412176,148.56466940655855L446.89768388412176,148.7688438406372L446.89768388412176,149.07505986100597L447.11270503557034,149.33019808190465L447.37073041730855,149.84036065691555L447.8437769504951,150.70728917263034L447.9297854110746,150.86023115547067L447.9727896413642,151.166074313512L447.88678118078474,151.52282261917242L447.714764259626,151.93044445669398L447.62875579904653,152.2360975447636L447.4997431081774,152.64355070392656L447.3277261870187,152.79632082434608L447.11270503557034,152.7453989539967L446.89768388412176,152.64355070392656L446.8116754235423,152.69447558060057L446.76867119325266,152.94907741943007L446.8116754235423,153.15273185092394L446.8116754235423,153.50906931886965L446.76867119325266,153.86533330742606L446.59665427209393,153.96710953330876L446.4676415812248,153.91622216923366L446.166611969197,153.86533330742606L445.9515908177484,153.96710953330876L445.73656966630006,154.32327916468824L445.34953159369275,155.23880754625333L445.0485019816649,155.69639040619694L444.87648506050596,155.89972182463634L444.6614639090576,156.10302942295414L444.4894469878989,156.30631321583928L444.36043429702977,156.50957321797495L444.23142160616067,156.76361478725693L444.1884173758708,157.0684156725698L444.1024089152918,157.37316315242663L444.1024089152918,157.7794101358415L444.1024089152918,158.0332663838584Z"></path>
<circle class="distCircs" cx="435.6182571276079" cy="143.27293433957288" r="2.6617504949255895" stroke="#000" stroke-width="0.25" fill="#87c985" data-q="UTTARAKHAND" data-r="ALMORA"><title>UTTARAKHAND - ALMORA: Census 2011 Total Rural Households = 126,476. Census 2011 Households with toilets = 65,214. Census 2001 Total Rural Households = 123,380. Census 2001 Households with toilets = 31,424. Difference between Census 2011 Households with toilets and Census 2001 Households with toilets = 26.1%</title></circle><circle class="distCircs" cx="441.6133369913971" cy="141.03143625082976" r="2.486102942663185" stroke="#000" stroke-width="0.25" fill="#70bf7a" data-q="UTTARAKHAND" data-r="BAGESHWAR"><title>UTTARAKHAND - BAGESHWAR: Census 2011 Total Rural Households = 55,748. Census 2011 Households with toilets = 29,837. Census 2001 Total Rural Households = 50,350. Census 2001 Households with toilets = 11,257. Difference between Census 2011 Households with toilets and Census 2001 Households with toilets = 31.2%</title></circle><circle class="distCircs" cx="438.4911214401085" cy="128.02690876986821" r="2.541849101656732" stroke="#000" stroke-width="0.25" fill="#86c985" data-q="UTTARAKHAND" data-r="CHAMOLI"><title>UTTARAKHAND - CHAMOLI: Census 2011 Total Rural Households = 72,744. Census 2011 Households with toilets = 34,181. Census 2001 Total Rural Households = 66,187. Census 2001 Households with toilets = 13,664. Difference between Census 2011 Households with toilets and Census 2001 Households with toilets = 26.3%</title></circle><circle class="distCircs" cx="444.7139372953917" cy="152.20400377904366" r="2.439329684141331" stroke="#000" stroke-width="0.25" fill="#a5d794" data-q="UTTARAKHAND" data-r="CHAMPAWAT"><title>UTTARAKHAND - CHAMPAWAT: Census 2011 Total Rural Households = 44,386. Census 2011 Households with toilets = 17,916. Census 2001 Total Rural Households = 37,549. Census 2001 Households with toilets = 7,805. Difference between Census 2011 Households with toilets and Census 2001 Households with toilets = 19.6%</title></circle><circle class="distCircs" cx="414.9664487971454" cy="130.27755454670267" r="2.6796218929769346" stroke="#000" stroke-width="0.25" fill="#97d08d" data-q="UTTARAKHAND" data-r="DEHRADUN"><title>UTTARAKHAND - DEHRADUN: Census 2011 Total Rural Households = 137,051. Census 2011 Households with toilets = 102,175. Census 2001 Total Rural Households = 102,785. Census 2001 Households with toilets = 53,391. Difference between Census 2011 Households with toilets and Census 2001 Households with toilets = 22.6%</title></circle><circle class="distCircs" cx="415.4296161549388" cy="139.34429536713208" r="2.76495240136656" stroke="#000" stroke-width="0.25" fill="#d0eaa8" data-q="UTTARAKHAND" data-r="HARIDWAR"><title>UTTARAKHAND - HARIDWAR: Census 2011 Total Rural Households = 199,642. Census 2011 Households with toilets = 100,292. Census 2001 Total Rural Households = 159,357. Census 2001 Households with toilets = 63,588. Difference between Census 2011 Households with toilets and Census 2001 Households with toilets = 10.3%</title></circle><circle class="distCircs" cx="434.2030652750237" cy="148.32498851274266" r="2.636234410456068" stroke="#000" stroke-width="0.25" fill="#8acb86" data-q="UTTARAKHAND" data-r="NAINITAL"><title>UTTARAKHAND - NAINITAL: Census 2011 Total Rural Households = 112,670. Census 2011 Households with toilets = 78,193. Census 2001 Total Rural Households = 88,709. Census 2001 Households with toilets = 38,960. Difference between Census 2011 Households with toilets and Census 2001 Households with toilets = 25.5%</title></circle><circle class="distCircs" cx="423.72340676984925" cy="140.56614312270153" r="2.679704974830677" stroke="#000" stroke-width="0.25" fill="#92ce8a" data-q="UTTARAKHAND" data-r="PAURI(GARHWAL)"><title>UTTARAKHAND - PAURI(GARHWAL): Census 2011 Total Rural Households = 137,102. Census 2011 Households with toilets = 66,160. Census 2001 Total Rural Households = 134,970. Census 2001 Households with toilets = 33,071. Difference between Census 2011 Households with toilets and Census 2001 Households with toilets = 23.8%</title></circle><circle class="distCircs" cx="447.99611579074286" cy="135.5770521737462" r="2.5993202573100573" stroke="#000" stroke-width="0.25" fill="#81c682" data-q="UTTARAKHAND" data-r="PITHORAGARH"><title>UTTARAKHAND - PITHORAGARH: Census 2011 Total Rural Households = 95,130. Census 2011 Households with toilets = 45,702. Census 2001 Total Rural Households = 85,825. Census 2001 Households with toilets = 17,555. Difference between Census 2011 Households with toilets and Census 2001 Households with toilets = 27.6%</title></circle><circle class="distCircs" cx="430.1480275442211" cy="130.77675400405406" r="2.467987198191878" stroke="#000" stroke-width="0.25" fill="#8acb86" data-q="UTTARAKHAND" data-r="RUDRAPRAYAG"><title>UTTARAKHAND - RUDRAPRAYAG: Census 2011 Total Rural Households = 51,064. Census 2011 Households with toilets = 26,049. Census 2001 Total Rural Households = 48,941. Census 2001 Households with toilets = 12,508. Difference between Census 2011 Households with toilets and Census 2001 Households with toilets = 25.5%</title></circle><circle class="distCircs" cx="422.0538051904573" cy="130.77975293357588" r="2.6445093673050994" stroke="#000" stroke-width="0.25" fill="#8aca86" data-q="UTTARAKHAND" data-r="TEHRI GARHWAL"><title>UTTARAKHAND - TEHRI GARHWAL: Census 2011 Total Rural Households = 116,988. Census 2011 Households with toilets = 58,644. Census 2001 Total Rural Households = 110,684. Census 2001 Households with toilets = 27,096. Difference between Census 2011 Households with toilets and Census 2001 Households with toilets = 25.6%</title></circle><circle class="distCircs" cx="437.84141276432365" cy="154.9858301821875" r="2.7591770340807287" stroke="#000" stroke-width="0.25" fill="#aedb98" data-q="UTTARAKHAND" data-r="UDHAM SINGH NAGAR"><title>UTTARAKHAND - UDHAM SINGH NAGAR: Census 2011 Total Rural Households = 194,695. Census 2011 Households with toilets = 110,871. Census 2001 Total Rural Households = 134,997. Census 2001 Households with toilets = 53,060. Difference between Census 2011 Households with toilets and Census 2001 Households with toilets = 17.6%</title></circle><circle class="distCircs" cx="422.30221292948045" cy="122.06854886834003" r="2.5053348518068335" stroke="#000" stroke-width="0.25" fill="#cae7a5" data-q="UTTARAKHAND" data-r="UTTARKASHI"><title>UTTARAKHAND - UTTARKASHI: Census 2011 Total Rural Households = 61,149. Census 2011 Households with toilets = 24,158. Census 2001 Total Rural Households = 52,423. Census 2001 Households with toilets = 14,617. Difference between Census 2011 Households with toilets and Census 2001 Households with toilets = 11.6%</title></circle></g></g></svg>