<?xml version="1.0" standalone="no"?><!DOCTYPE svg PUBLIC "-//W3C//DTD SVG 1.1//EN" "http://www.w3.org/Graphics/SVG/1.1/DTD/svg11.dtd"><svg id="chart" width="960" height="500" class="dorlingCart" data-type="dorlingCart" version="1.1" xmlns:xlink="http://www.w3.org/1999/xlink" xmlns="http://www.w3.org/2000/svg"><defs class="svg-crowbar"><style type="text/css"><![CDATA[.feature{ fill: #fcfcfc; stroke: #000000; stroke-width: 0.2px; cursor: pointer; }]]></style></defs>
<g><g transform="translate(-1761.241943359375,-705.7498168945312)scale(4,4)">
<path class="feature auto" data-q="WEST BENGAL" d="M553.5051707722773,275.4368557416682L553.3331538511186,275.34118961042594L553.1181326996702,275.1498453158706L552.9461157785111,274.9106423730184L552.8171030876422,274.5278654400134L552.7740988573526,274.24074051210397L552.8171030876422,273.9535793463146L552.8171030876422,273.7621184181459L552.7740988573526,273.4748967711873L552.7740988573526,273.13975891789374L552.6880903967731,272.756683584729L552.6020819361936,272.61301364027287L552.4730692453247,272.5172286145237L552.2580480938759,272.4214395369008L552.0430269424276,272.37354347819354L551.6129846395306,272.22984922036613L551.3549592577924,272.22984922036613L551.1829423366339,272.1819491065981L551.010925415475,272.134047978622L550.6668915731573,271.99033850767506L550.4088661914193,271.99033850767506L550.1508408096811,271.9424333210956L550.021828118812,271.8466199024788L549.8928154279429,271.75080242206946L549.8068069673636,271.6549808784498L549.7638027370738,271.5591552702005L549.7638027370738,271.3674918541418L549.9358196582325,271.03204170618665L550.021828118812,270.7924039072905L550.1078365793912,270.4568681711043L550.1078365793912,270.21716917381787L550.0648323491016,270.02539159034615L549.9788238885221,269.92949666615044L549.8498111976533,269.88154767031523L549.7207985067841,269.83359765175084L549.591785815915,269.7856466102795L549.4197688947561,269.68974145790526L549.1617435130181,269.68974145790526L549.032730822149,269.6417873466462L548.6456927495417,269.44996066364075L548.4306715980933,269.44996066364075L548.2586546769344,269.4979188704433L548.1726462163549,269.6417873466462L548.0866377557759,269.7856466102795L548.0436335254858,269.92949666615044L547.9146208346169,270.1212824257607L547.8286123740374,270.16922631062016L547.7856081437478,270.2651110155314L547.6135912225891,270.3130518359396L547.4845785317198,270.3609916352188L547.3985700711405,270.5048049080662L547.2695573802714,270.7924039072905L547.2695573802714,270.984116184045L547.2265531499818,271.07996620986563L547.1405446894023,271.1758121625418L547.0975404591127,271.1278896952576L547.0115319985332,271.1278896952576L546.8825193076643,270.88826208366L546.753506616795,270.6965416535158L546.6244939259259,270.55274062460984L546.3664685441879,270.3609916352188L546.2374558533188,270.2651110155314L546.0654389321599,270.0733375190622L546.1084431624497,269.7856466102795L546.1944516230292,269.59383221176773L546.2374558533188,269.40200143250706L546.3234643138983,269.16218990564107L546.4094727744775,269.0182906861493L546.5814896956363,268.8264106962473L546.5814896956363,268.6824899246452L546.5384854653466,268.5385599084016L546.4524770047672,268.44260142594794L546.2374558533188,268.3946206426988L546.1084431624497,268.3466388311969L545.9794304715806,268.20268722538725L545.8504177807115,268.1067143436442L545.764409320132,268.01073734460516L545.506383938394,267.72278162942274L545.4633797081044,267.67478540363214L545.3343670172351,267.62678814690975L545.1623500960764,267.57878985907684L544.9903331749176,267.5307905399545L544.8183162537587,267.4827901893644L544.3882739508617,267.4827901893644L544.3022654902825,267.4347888071272L544.044240108544,267.3867863930646L543.8292189570957,267.29077846874725L543.7432104965164,267.1947664149812L543.6572020359372,267.0507405884859L543.4851851147782,266.9067054626808L543.3131681936197,266.8106768768077L543.1411512724605,266.7146441543286L542.969134351302,266.6666262414144L542.7971174301431,266.6666262414144L542.7541131998535,266.7146441543286L542.6251005089844,266.85869168673054L542.4960878181153,266.8106768768077L542.3670751272462,266.7626610327338L542.238062436377,266.61860729381056L542.1520539757978,266.37849702919436L542.0660455152183,266.13836087048753L541.9800370546388,265.9462332847222L541.8940285940594,265.7540891009252L541.8080201334801,265.4658416788053L541.8510243637697,265.1775568465172L541.8940285940594,265.1775568465172L542.0660455152183,265.1775568465172L542.1520539757978,265.1775568465172L542.1950582060874,265.27365594969234L542.3240708969565,265.3697508933096L542.4960878181153,265.41779680573273L542.6251005089844,265.41779680573273L542.7541131998535,265.41779680573273L542.9261301210122,265.41779680573273L543.0551428118813,265.41779680573273L543.0981470421709,265.27365594969234L543.1411512724605,265.12950573464633L543.1841555027504,265.03340038943924L543.2701639633297,265.03340038943924L543.3991766541988,265.081453582347L543.5711935753577,265.1775568465172L543.7432104965164,265.27365594969234L543.9152274176754,265.3217039413562L544.0872443388339,265.3697508933096L544.2592612599929,265.3697508933096L544.3882739508617,265.27365594969234L544.3452697205721,265.081453582347L544.3022654902825,264.9853461557449L544.1302485691235,264.8892345652731L544.044240108544,264.7450593691649L543.9152274176754,264.60087479626253L543.7862147268061,264.45668084171064L543.7002062662268,264.07211772679375L543.7002062662268,263.83173184331605L543.6572020359372,263.4951476994272L543.6141978056473,263.25469906100557L543.6572020359372,263.0142242363896L543.7432104965164,262.773723203032L543.7002062662268,262.5813034908939L543.5281893450681,262.38886697917064L543.3131681936197,262.29264241985265L543.0551428118813,262.24452856369714L542.8831258907226,262.10018068707666L542.7541131998535,261.95582334442975L542.6251005089844,261.8114565308752L542.3670751272462,261.6189527051738L542.1950582060874,261.4745637738453L542.1090497455077,261.2820304400482L541.9370328243492,261.0894802285534L541.9370328243492,260.9450564869716L542.0230412849287,260.8969131277715L542.1090497455077,260.8969131277715L542.3240708969565,260.99319879004787L542.6251005089844,261.0894802285534L542.8401216604329,261.0894802285534L542.969134351302,261.0413400371813L543.0121385815917,260.9450564869716L543.0551428118813,260.7524767116163L542.969134351302,260.5598800266805L542.8831258907226,260.36726642056203L542.7541131998535,260.22279510446515L542.5390920484049,260.0301518583455L542.3240708969565,259.933823878595L542.1520539757978,259.933823878595L541.8940285940594,259.8856582989113L541.7220116729006,259.8856582989113L541.4639862911627,259.8856582989113L541.1629566791346,259.8374916591136L540.9909397579759,259.78932395902007L540.8189228368171,259.74115519844923L540.7329143762379,259.5966425520568L540.6469059156582,259.4521203548289L540.6039016853688,259.2112287887115L540.6469059156582,258.8257470152532L540.5178932247891,258.4883946007203L540.3458763036306,258.1509899822045L540.2168636127615,258.0063720065479L540.0018424613129,257.9581638804872L539.872829770444,257.8617444260089L539.7438170795747,257.76532070050695L539.6578086189954,257.62067710089144L539.4427874675469,257.5724604305935L539.2707705463881,257.62067710089144L539.1847620858086,257.7171072356656L539.0557493949395,257.7171072356656L538.8407282434912,257.7171072356656L538.7547197829117,257.6688927025213L538.5396986314631,257.4760238832646L538.0236478679869,256.9937769644988L537.59360556509,256.46318164157776L537.4645928742209,256.1737113008166L537.5075971045105,255.98070959310672L537.59360556509,255.78769068730514L537.7656224862487,255.54639285238693L537.8946351771178,255.30506810424816L537.8946351771178,255.06371641998243L537.8516309468282,254.91889247054934L537.7656224862487,254.72577876568067L537.7226182559591,254.62921543610526L537.7226182559591,254.43607581533035L537.7656224862487,254.24291890259866L537.9376394074077,254.0014484269612L538.1096563285664,253.95315108536687L538.2816732497251,253.85655315424066L538.3676817103044,253.85655315424066L539.0557493949395,253.85655315424066L539.2707705463881,253.80825256434184L539.3567790069676,253.7599508913067L539.3567790069676,253.6150393715467L539.2707705463881,253.47011809694277L539.0557493949395,253.32518706252768L538.7977240132013,253.2768745480169L538.4966944011735,253.22856094834646L538.152660558856,253.22856094834646L537.7656224862487,253.22856094834646L537.421588643931,253.22856094834646L536.9915463410341,253.22856094834646L536.6905167290063,253.18024626333198L536.303478656399,253.22856094834646L535.9164405837919,253.18024626333198L535.5724067414742,253.22856094834646L535.2283728991567,253.22856094834646L534.9273432871287,253.22856094834646L534.5833094448112,253.18024626333198L534.325284063073,253.13193049279062L534.067258681335,253.03529569438734L533.8952417601758,252.890335350721L533.6372163784379,252.40706354609387L533.4651994572791,252.2137243572443L533.3791909966999,252.02036774097814L533.2931825361204,251.97202586249392L533.1641698452511,251.92368289387383L533.0351571543822,251.92368289387383L532.6481190817749,251.8269936854868L532.4761021606164,251.73030011433985L532.3470894697473,251.5852515742136L532.2610810091676,251.39183823726432L532.218076778878,251.1984074226782L532.1320683182987,251.05332283492413L532.0460598577192,250.90822840435334L531.9600513971398,250.85986140600733L531.7450302456912,250.76312412597235L531.5730133245324,250.76312412597235L531.4009964033737,250.8114933132755L531.228979482215,250.8114933132755L531.0569625610563,250.8114933132755L530.8419414096077,250.76312412597235L530.7129287187386,250.76312412597235L530.5409117975796,250.8114933132755L530.411899106711,250.95659430849804L530.1538737249725,251.05332283492413L529.8528441129449,251.0049591186264L529.6808271917857,250.85986140600733L529.5088102706272,250.71475384391323L529.4658060403374,250.52126176441402L529.3367933494683,250.32775215401L529.3367933494683,250.13422500085113L529.2937891191787,249.89229137184117L529.2077806585994,249.6503302905865L529.1647764283096,249.4567416443914L529.0787679677301,249.26313540205484L529.0787679677301,249.02110283646476L529.0787679677301,248.73062740854016L529.1647764283096,248.48853423367672L529.250784888889,248.1979860071716L529.4658060403374,247.81052650788325L529.5518145009169,247.42299621959074L529.5518145009169,247.18075379949698L529.4658060403374,246.79310827564484L529.3797975797581,246.55079375455534L529.250784888889,246.16303274299008L529.1647764283096,245.8721652679356L529.1647764283096,245.62974508473712L529.2937891191787,245.48427960260796L529.4658060403374,245.4357888787411L529.7238314220758,245.4357888787411L530.411899106711,245.58125770541903L530.798937179318,245.62974508473712L531.1859752519254,245.58125770541903L531.7020260154015,245.48427960260796L531.788034475981,245.38729703964998L531.788034475981,245.19331852730573L531.7450302456912,244.99932215640655L531.4870048639532,244.7082940890523L531.4440006336636,244.36871047047242L531.4870048639532,244.1261171663145L531.5730133245324,243.8834958550823L531.7020260154015,243.7864394833543L531.788034475981,243.73790961518915L531.8740429365605,243.73790961518915L532.0460598577192,243.73790961518915L532.1750725485883,243.7864394833543L532.2610810091676,243.8834958550823L532.5621106211956,243.93202235902083L532.8201360029339,244.02907200398403L532.9921529240926,244.07759514538452L533.1641698452511,244.07759514538452L533.33618676641,244.1261171663145L533.4221952269895,244.1746380669615L533.5082036875688,244.2716765081572L533.5942121481482,244.51425301932687L533.6372163784379,245.0478229240262L533.6802206087277,245.29031001504842L533.6802206087277,245.48427960260796L533.7662290693072,245.62974508473712L533.8952417601758,245.77520053658662L534.2822798327834,245.92064596320614L534.5833094448112,246.2115067609418L534.7123221356803,246.40539171229267L534.7983305962598,246.50232751830873L534.9273432871287,246.55079375455534L535.1423644385773,246.50232751830873L535.2713771294464,246.40539171229267L535.3573855900258,246.308451460335L535.5294025111846,246.308451460335L535.6584152020537,246.35692214214998L535.9164405837919,246.50232751830873L536.045453274661,246.55079375455534L536.1744659655299,246.40539171229267L536.1744659655299,246.25997966666137L536.1744659655299,246.11455761261954L536.2174701958197,246.01760401387202L536.3464828866888,245.8721652679356L536.6045082684268,245.77520053658662L536.6905167290063,245.6782313495798L536.862533650165,245.62974508473712L536.9055378804549,245.53276921143845L536.8195294198754,245.4357888787411L536.6475124987167,245.38729703964998L536.5615040381372,245.2418148291634L536.5615040381372,245.0478229240262L536.6475124987167,244.65978549913848L536.862533650165,244.07759514538452L537.421588643931,243.3981691175439L537.7226182559591,243.1554636442799L538.0666520982768,243.0098268733521L538.3676817103044,242.81562876678652L538.8407282434912,242.57285581165587L539.2707705463881,242.427178524518L539.7438170795747,242.3300546990967L540.0018424613129,242.3786171753323L540.2598678430511,242.3786171753323L540.5178932247891,242.3300546990967L540.6469059156582,242.28149109562224L541.2489651397141,242.13579351988443L541.506990521452,242.0386561630787L541.7650159031903,241.94151429279702L541.9800370546388,241.84436790753102L542.1950582060874,241.84436790753102L542.3670751272462,241.84436790753102L542.5820962786945,241.84436790753102L542.7111089695636,241.7957930213077L542.8401216604329,241.60148218141222L542.9261301210122,241.45573718645744L543.1841555027504,241.30998201581423L543.3561724239091,241.21280624637564L543.4421808844886,241.11562595063305L543.5711935753577,240.96984701689718L543.6141978056473,240.62965652449486L543.5711935753577,240.28941047379226L543.5281893450681,240.09495918960283L543.5281893450681,239.75462570193503L543.7002062662268,239.5114962399308L543.8722231873855,239.365604905895L543.9152274176754,239.21970332298122L544.0012358782544,239.07379148606975L544.0872443388339,238.97651122893598L544.2592612599929,238.97651122893598L544.4312781811516,239.0251519275488L544.5602908720207,239.12242990468945L544.6462993326002,239.17106718359656L544.8183162537587,239.21970332298122L544.9043247143384,239.21970332298122L545.1623500960764,239.31697218394112L545.4633797081044,239.365604905895L546.1944516230292,239.75462570193503L546.495481235057,239.85186952467143L546.6674981562155,239.94910879992779L546.8395150773745,240.09495918960283L546.9685277682436,240.1435737140621L547.4415743014301,240.1435737140621L547.6565954528787,240.1435737140621L548.0866377557759,240.09495918960283L548.2586546769344,240.09495918960283L548.3446631375139,239.99772673272503L548.301658907224,239.90048973064012L548.215650446645,239.80324818183283L548.1296419860653,239.6087514379936L548.1296419860653,239.5114962399308L548.1726462163549,239.365604905895L548.2586546769344,239.365604905895L548.4306715980933,239.4628669337004L548.5596842889624,239.6087514379936L548.6456927495417,239.70600208478936L548.7747054404108,239.80324818183283L548.8607139009903,239.80324818183283L549.032730822149,239.70600208478936L549.1187392827285,239.65737733020495L549.2477519735974,239.6087514379936L549.3337604341768,239.6087514379936L549.4627731250459,239.75462570193503L549.591785815915,239.85186952467143L549.6777942764945,239.90048973064012L549.7207985067841,239.80324818183283L549.7638027370738,239.65737733020495L549.7207985067841,239.365604905895L549.7638027370738,239.17106718359656L549.7638027370738,238.87922641067718L549.7638027370738,238.63599440014696L549.8068069673636,238.44138824388847L549.8928154279429,238.39273384937525L550.021828118812,238.39273384937525L550.0648323491016,238.4900414960316L550.021828118812,238.63599440014696L549.9788238885221,238.7819370297753L549.9788238885221,239.0251519275488L550.0648323491016,239.17106718359656L550.1508408096811,239.12242990468945L550.3228577308398,238.97651122893598L550.4088661914193,238.83058229065153L550.5378788822884,238.63599440014696L550.6668915731573,238.63599440014696L550.8819127246059,238.68464308471306L550.9679211851853,238.63599440014696L550.9679211851853,238.4900414960316L550.8819127246059,238.34407831230374L550.7098958034471,238.14944473462646L550.4088661914193,237.80879194127567L549.8928154279429,237.37072734079862L549.6777942764945,237.12731799786644L549.5487815856254,236.9325698695888L549.5057773553356,236.68910887182346L549.5487815856254,236.59171642951839L549.6777942764945,236.64041322537565L549.8498111976533,236.68910887182346L549.9788238885221,236.73780336905207L550.1078365793912,236.78649671725242L550.4088661914193,236.78649671725242L550.580883112578,236.73780336905207L550.6668915731573,236.78649671725242L550.7529000337368,236.8838799673299L550.7959042640264,237.12731799786644L550.8389084943162,237.37072734079862L550.8389084943162,237.41940576896724L551.010925415475,237.27336704461493L551.1399381063441,237.22468517621883L551.2689507972132,237.12731799786644L551.3979634880823,237.12731799786644L551.569980409241,237.1760021606995L551.8280057909792,237.32204776607807L552.1720396332969,237.51675918640933L552.4300650150349,237.51675918640933L552.559077705904,237.51675918640933L552.6880903967731,237.32204776607807L552.9461157785111,237.1760021606995L553.2041411602495,236.9325698695888L553.2041411602495,236.73780336905207L553.2041411602495,236.54301848406078L553.2471453905391,236.25080665902715L553.4191623116978,235.95855340031272L553.4621665419877,235.66625866668795L553.4621665419877,235.32519566940834L553.6341834631464,235.32519566940834L553.8922088448846,235.56881786503624L554.107229996333,235.66625866668795L554.2792469174917,235.71497733757758L554.4942680689405,235.61753884257075L554.666284990099,235.4226480100154L554.7952976809681,235.13027713188995L554.7092892203889,234.98407609846032L554.5372722992302,234.8378646618999L554.7092892203889,234.6916428170411L554.9243103718372,234.64289988824015L555.2253399838651,234.6916428170411L555.5693738261825,234.78912520367953L555.827399207921,234.78912520367953L556.1284288199488,234.78912520367953L556.1284288199488,234.6916428170411L556.0854245896592,234.49666415761118L555.9564118987901,234.30166697309625L555.6983865170516,234.0578944228734L555.4833653656033,233.91161697976463L555.3543526747342,233.76532909559677L555.3113484444445,233.57026233277458L555.3543526747342,233.4727219833673L555.5263695958929,233.42395006599332L555.655382286762,233.37517698658286L555.827399207921,233.27762734088446L555.9994161290797,233.1800730447365L556.1284288199488,233.03373287756023L556.3434499713974,232.8873822382276L556.4724626622665,232.74102112155055L556.6874838137148,232.49706263000263L556.7304880440045,232.35067354836087L556.9025049651632,232.05786389072944L557.1605303469016,231.8626341064799L557.3325472680604,231.4232987340106L557.5475684195087,231.13035584776378L557.6765811103778,230.93503717120075L557.6765811103778,230.69086245734002L557.633576880088,230.49550157666647L557.8485980315365,230.20242504404L558.0636191829851,229.90930622036632L557.9776107224056,229.71387015559708L557.8055938012469,229.51841526385925L557.6765811103778,229.07857285716722L557.633576880088,228.83417470149095L557.633576880088,228.3941836541186L557.4185557286396,228.19860135604023L557.4185557286396,227.95409687135162L557.4185557286396,227.75847197877874L557.5475684195087,227.75847197877874L557.7625895709573,227.80737997810076L557.9776107224056,228.05190221486492L558.192631873854,228.19860135604023L558.4936614858821,228.19860135604023L558.8376953281995,228.19860135604023L558.923703788779,227.95409687135162L559.0527164796483,227.80737997810076L559.2677376310967,227.61174087337537L559.2677376310967,227.31824666160736L559.1387249402273,227.0736355332677L558.9667080190686,226.73113008716012L558.8806995584891,226.4375076403847L558.9667080190686,226.19278955315184L559.0527164796483,225.85013421728758L558.9667080190686,225.65430494765906L558.7946910979099,225.50742047151368L558.5366657161717,225.36052525471752L558.2356361041439,225.21361929199708L558.1496276435644,224.96875212663292L558.192631873854,224.82181748231437L558.4506572555922,224.42993911953283L558.7086826373306,224.2829649766968L558.8376953281995,224.1359800492059L559.0097122493582,223.84197781910154L559.0097122493582,223.6949605059056L559.0097122493582,223.30286149454884L558.923703788779,222.7145686801594L558.7946910979099,221.63558109833832L558.4506572555922,220.8995724043516L558.2786403344335,220.4578363498287L558.0206149526955,220.11419590677838L557.7625895709573,219.77049592783555L557.5475684195087,219.52495945476443L557.5045641892189,219.2302755109813L557.5045641892189,218.44423707469173L557.5045641892189,218.0511006192363L557.6765811103778,217.75619690298635L557.934606492116,217.5104101333527L558.192631873854,217.3629233668762L558.4936614858821,217.31375865940834L558.7086826373306,217.0679167233033L558.7516868676203,216.8220441043506L558.7086826373306,216.57614077766857L558.5366657161717,216.33020671836397L558.2786403344335,216.0842419015283L558.1066234132747,215.88744788589048L557.8916022618264,215.59221989556443L557.8055938012469,215.39537657213958L557.8485980315365,215.10007456024044L557.934606492116,214.90318184915225L558.0206149526955,214.80472807786418L558.192631873854,214.657038146753L558.3216445647231,214.31238499998102L558.3216445647231,214.0169197184594L558.4076530253026,213.8199180729154L558.5366657161717,213.72140980797553L558.7086826373306,213.72140980797553L559.0527164796483,213.1795255837369L559.2677376310967,213.03171288321113L559.5257630128347,212.78533350556165L559.6547757037038,212.7360538967087L559.7837883945731,212.7360538967087L559.912801085442,212.78533350556165L560.1708264671802,212.933164864672L560.4288518489184,213.13025592693197L560.643873000367,213.32732709634047L560.901898382105,213.4751174264395L561.202927994133,213.4751174264395L561.5039576061606,213.42585522523945L561.6759745273196,213.0809850268236L561.5469618364505,212.5389230101868L561.2889364547123,212.09530562164986L561.3319406850021,211.79950456643598L561.4179491455814,211.40503322299793L561.5899660667401,211.10912720665124L561.8049872181884,210.6651836887134L561.6759745273196,210.41850454249095L561.3749449152917,210.17179403681774L561.030911072974,209.97440303650347L560.5578645397875,209.8263465969104L560.3858476186288,209.6289204145951L560.2568349277594,209.28337616967048L559.9558053157316,208.98714628879077L559.6977799339936,208.78963449934366L559.5687672431243,208.59210253300944L559.6117714734141,208.39455037681137L559.5687672431243,207.99938544288847L559.482758782545,207.65354975340932L559.2677376310967,207.4559015179658L558.9667080190686,207.30765204345533L558.6656784070408,207.25823301792934L558.4076530253026,207.15939116462152L558.3216445647231,206.96169224328884L558.3216445647231,206.51679543900622L558.364648795013,206.22014041045094L558.5796699464615,205.52776723982794L558.8376953281995,204.98358453508433L558.8376953281995,204.83514427022845L558.923703788779,204.58771827916388L558.9667080190686,204.43924734573977L559.2677376310967,204.14227094083333L559.482758782545,203.84524844831628L559.9558053157316,203.2015413974666L560.4718560792078,202.85484004971846L560.6868772306564,202.7062344787508L560.9449026123946,202.60715766763758L561.3319406850021,202.30989634996104L561.8479914484783,202.0621431724183L562.7080760542722,201.41783405274475L562.7940845148516,201.1203870240077L562.9661014360104,200.87247895129383L563.0521098965896,200.77330666717359L563.3101352783278,200.72371858392296L563.4821521994868,200.62453853400876L563.6541691206455,200.57494656693257L563.9121945023835,200.17816419219088L564.299232574991,199.78129883026332L564.5572579567292,199.68206951062677L564.8152833384672,199.43397347990862L564.8582875687571,199.1858449547351L564.8152833384672,198.987318721189L564.7722791081774,198.68949031743824L564.6862706475983,198.5405585293878L564.6432664173087,198.44126415348615L564.4712494961498,198.1433497249526L564.3422368052807,197.9943748936915L564.299232574991,197.89505181089697L564.1702198841219,197.7957235032664L564.0842114235425,197.74605738961844L563.9551987326736,197.64672124161723L563.8261860418045,197.54737986462226L563.7831818115144,197.44803325697137L563.740177581225,197.29900353437296L563.6971733509351,197.14996203343475L563.6541691206455,196.95122170061057L563.4821521994868,196.70276680438008L563.3531395086177,196.50397928698823L563.0521098965896,196.40457765690434L562.5360591331132,196.35487487328584L562.1060168302165,196.15605061010103L562.1060168302165,195.9572053309666L562.1490210605061,195.7086191580206L562.2780337513752,195.4600001006836L562.450050672534,195.21134813284004L562.5790633634031,194.91292229276803L562.6650718239825,194.61444897875816L562.7510802845618,194.31592814559946L562.8800929754309,194.06712445264395L563.0091056663,193.81828770266134L563.1381183571693,193.61919448400118L563.2671310480382,193.4200800786387L563.3961437389073,193.0217876540621L563.4391479691969,192.82260960795975L563.4391479691969,192.573607179332L563.3531395086177,192.32457153616775L563.2671310480382,192.07550265216054L563.2241268177484,191.82640050099172L563.1381183571693,191.62709481000297L563.0521098965896,191.42776779768542L563.0091056663,191.1287372721917L563.0521098965896,190.97920399394383L563.1381183571693,190.82965869776092L563.1381183571693,190.68010137794244L563.0091056663,190.5803898154482L562.8800929754309,190.5803898154482L562.7510802845618,190.53053202878294L562.6220675936929,190.43081244355875L562.5360591331132,190.3310875077334L562.4930549028236,190.2313572196157L562.450050672534,189.68274488711018L562.4070464422443,189.28365221326237L562.1920252907958,188.9842763279891L561.9339999090578,188.6848520662038L561.4179491455814,188.2855443855754L560.643873000367,187.5865484772835L560.4718560792078,187.18700350415241L560.3428433883389,186.83733070552432L560.3858476186288,186.5375584020765L560.5148603094979,186.237737346833L560.643873000367,185.88788443735694L560.8158899215255,185.5379650352586L560.901898382105,185.18797906721596L561.0739153032637,184.637866450533L561.3319406850021,184.637866450533L561.4179491455814,184.78791350028087L561.5039576061606,184.83792645984607L561.6329702970297,184.9379482947357L561.7189787576092,184.98795717048841L561.8049872181884,185.13797563354802L561.8479914484783,185.33798120915748L561.8479914484783,185.4879711170007L561.8479914484783,185.5879575950284L561.8909956787679,185.68793863995614L561.8909956787679,185.8379000240293L561.8909956787679,185.9878491932492L561.9339999090578,186.08780852288237L562.0630125999269,186.18776242796417L562.1490210605061,186.28771091020423L562.3210379816649,186.43762346947057L562.4930549028236,186.43762346947057L562.6650718239825,186.38765397130953L562.9230972057208,186.38765397130953L563.1811225874587,186.38765397130953L563.3961437389073,186.43762346947057L563.6111648903559,186.38765397130953L563.7831818115144,186.3376831182917L564.0842114235425,186.3376831182917L564.2132241144116,186.43762346947057L564.4282452658599,186.38765397130953L564.6002621870189,186.38765397130953L564.729274877888,186.3376831182917L564.8582875687571,186.3376831182917L564.9442960293363,186.3376831182917L565.1163129504951,186.3376831182917L565.2453256413642,186.43762346947057L565.3313341019436,186.43762346947057L565.5463552533922,186.48759161298892L565.7613764048406,186.5375584020765L565.9333933259993,186.5875238369481L566.0624060168684,186.63748791781626L566.1914187077375,186.68745064489508L566.3634356288962,186.73741201839692L566.535452550055,186.73741201839692L566.6644652409241,186.73741201839692L566.8794863923727,186.68745064489508L566.9654948529521,186.63748791781626L567.0515033135314,186.5875238369481L567.1805160044007,186.48759161298892L567.2665244649802,186.38765397130953L567.3525329255592,186.28771091020423L567.4815456164283,186.237737346833L567.5675540770078,186.08780852288237L567.6105583072977,186.03782953624165L567.6965667678769,185.88788443735694L567.7825752284562,185.787914253496L567.9115879193255,185.68793863995614L568.0406006101946,185.63794879652266L568.2126175313531,185.5379650352586L568.384634452512,185.4879711170007L568.5996556039604,185.43797584004096L568.8146767554088,185.287981854806L568.9006852159885,185.287981854806L569.0296979068573,185.287981854806L569.1157063674368,185.23798114089738L569.2017148280163,185.13797563354802L569.3307275188852,185.0379646853989L569.4597402097545,185.0379646853989L569.6317571309132,185.0379646853989L569.6747613612029,185.18797906721596L569.803774052072,185.33798120915748L569.9327867429411,185.33798120915748L570.1048036640998,185.38797920416454L570.2338163549691,185.38797920416454L570.362829045838,185.38797920416454L570.4488375064175,185.33798120915748L570.5348459669967,185.287981854806L570.6638586578658,185.23798114089738L570.7498671184451,185.18797906721596L570.7928713487349,185.18797906721596L570.921884039604,185.23798114089738L570.9648882698937,185.33798120915748L571.0078925001835,185.5379650352586L571.0939009607628,185.68793863995614L571.2229136516319,185.68793863995614L571.3519263425012,185.787914253496L571.6529559545288,185.8379000240293L571.910981336267,185.68793863995614L571.7819686453979,185.9878491932492L571.7819686453979,186.08780852288237L571.8249728756878,186.13778615338532L572.082998257426,186.28771091020423L572.341023639164,186.43762346947057L572.5560447906125,186.48759161298892L572.8570744026406,186.68745064489508L573.1150997843786,186.83733070552432L573.2871167055373,186.98719858972277L573.4161293964064,187.1370543032457L573.4161293964064,187.68642121889349L573.3731251661166,188.5850332206844L573.4161293964064,188.78466553146222L573.3731251661166,188.93437564507553L573.4161293964064,189.0341756671105L573.5451420872755,189.08407366265163L573.6741547781446,189.13397031482629L573.8461716993033,189.0341756671105L573.9321801598826,188.8844736181585L574.1041970810415,188.78466553146222L574.2762140022003,188.8345702470246L574.3622224627798,188.93437564507553L574.4052266930694,189.13397031482629L574.4482309233592,189.28365221326237L574.6202478445177,189.6328629979888L574.7492605353868,189.73262543540682L574.8782732262559,189.78250464309116L575.0502901474149,189.78250464309116L575.179302838284,189.68274488711018L575.2653112988633,189.58297976783143L575.3943239897324,189.5330951964259L575.5663409108913,189.5330951964259L575.7813620623397,189.6328629979888L575.9533789834984,189.78250464309116L576.0823916743675,189.98200807193723L576.2974128258161,190.28122303281708L576.5124339772644,190.53053202878294L576.6414466681335,190.7299551541937L576.7704593590026,190.97920399394383L576.9424762801616,191.1287372721917L577.0714889710307,191.17857902860783L577.4155228133482,191.5274339698534L577.544535504217,191.5274339698534L577.7595566556658,191.42776779768542L577.8455651162451,191.42776779768542L577.9315735768243,191.32809629181048L578.0175820374038,191.32809629181048L578.2326031888522,191.32809629181048L578.3616158797213,191.42776779768542L578.6196412614595,191.47760155037741L578.7916581826184,191.47760155037741L578.963675103777,191.47760155037741L579.0926877946463,191.42776779768542L579.3077089460946,191.27825853820622L579.4367216369637,191.22841945054228L579.6087385581227,191.07889418108329L579.6947470187022,191.07889418108329L579.8667639398607,190.97920399394383L579.9957766307298,190.92935689749038L580.1247893215989,190.87950846549955L580.2107977821784,190.82965869776092L580.4258189336269,190.7299551541937L580.511827394206,190.7299551541937L580.7268485456548,190.77980759406273L580.8558612365237,190.77980759406273L581.0708823879722,190.82965869776092L581.1998950788413,190.87950846549955L581.3289077697104,190.97920399394383L581.4579204605795,191.07889418108329L581.5869331514484,191.17857902860783L581.6299373817383,191.27825853820622L581.6729416120279,191.37793271156647L581.7589500726074,191.5274339698534L581.8449585331869,191.57726505632525L581.9309669937661,191.57726505632525L582.1029839149248,191.57726505632525L582.361009296663,191.57726505632525L582.5760304481116,191.57726505632525L582.7050431389807,191.62709481000297L582.9630685207189,191.57726505632525L583.1780896721673,191.57726505632525L583.3501065933262,191.62709481000297L583.4791192841951,191.62709481000297L583.7371446659336,191.67692323109702L583.8661573568022,191.72675031981964L583.9521658173817,191.7765760763807L583.9951700476715,191.82640050099172L584.1241827385406,191.92604535520354L584.3822081202788,191.9758657852268L584.4682165808583,191.9758657852268L584.511220811148,192.1253190894925L584.4682165808583,192.27476041947529L584.3822081202788,192.47399690928376L584.2961996596994,192.67321213505494L584.2531954294097,192.92220128522962L584.2531954294097,193.0217876540621L584.3822081202788,193.12136871613785L584.511220811148,193.12136871613785L584.6832377323067,193.0217876540621L584.8552546534654,192.9719951330954L585.1562842654932,192.77281177813506L585.2852969563626,192.72301262057027L585.4143096472314,192.77281177813506L585.5863265683902,192.8724061102542L585.8443519501284,192.92220128522962L585.9303604107079,192.92220128522962L586.059373101577,192.92220128522962L586.3173984833152,193.07157884833913L586.446411174184,193.12136871613785L586.5754238650532,193.27073036276158L586.6614323256326,193.3205149267459L586.7904450165017,193.4200800786387L586.9624619376605,193.4200800786387L587.1344788588194,193.4200800786387L587.3925042405574,193.469860666967L587.5645211617164,193.4200800786387L587.607525392006,193.3702981653019L587.607525392006,193.27073036276158L587.607525392006,193.17115725766814L587.5645211617164,193.07157884833913L587.5215169314265,192.9719951330954L587.4785127011369,192.82260960795975L587.607525392006,192.72301262057027L587.9945634646133,192.72301262057027L587.8225465434546,192.9719951330954L587.7795423131647,193.12136871613785L587.8225465434546,193.3702981653019L587.908555004034,193.469860666967L587.9515592343237,193.6689697743949L587.9515592343237,193.91782637117473L587.908555004034,194.16664989520166L587.908555004034,194.2661700503126L587.9515592343237,194.4651945048991L587.9515592343237,194.71394536110057L587.9515592343237,194.81343646521202L587.908555004034,195.01240284544212L587.908555004034,195.1118781249079L587.9515592343237,195.26108116050347L587.9945634646133,195.55945167141613L587.9945634646133,195.65889797814003L587.9515592343237,195.85777480624478L587.9945634646133,196.05663059836235L587.908555004034,196.2554653678527L587.9515592343237,196.50397928698823L587.9515592343237,196.70276680438008L587.908555004034,196.85184367406106L587.908555004034,197.05059448651264L587.8655507737442,197.14996203343475L587.8655507737442,197.29900353437296L587.8655507737442,197.44803325697137L587.7795423131647,197.59705120684765L587.7795423131647,197.7957235032664L587.7795423131647,197.94471400529466L587.6935338525852,198.04403447629522L587.607525392006,198.24265975292906L587.607525392006,198.3419645618871L587.5215169314265,198.5405585293878L587.4355084708473,198.7391316407373L587.3064957799779,198.88804779538827L587.1774830891088,198.987318721189L587.1774830891088,199.0369522315217L587.3064957799779,199.1858449547351L587.3064957799779,199.2851002657958L587.2634915496885,199.43397347990862L587.2204873193989,199.48359528478045L587.2634915496885,199.63245290279713L587.0914746285298,199.73168481971305L586.8764534770812,199.73168481971305L586.7904450165017,199.68206951062677L586.5754238650532,199.68206951062677L586.446411174184,199.68206951062677L586.446411174184,199.83091154248467L586.4034069438947,199.97974189124142L586.4894154044737,200.17816419219088L586.3173984833152,200.2277665252248L586.1453815621562,200.32696730209534L586.0163688712873,200.32696730209534L585.8873561804182,200.37656574634553L585.8443519501284,200.62453853400876L585.8873561804182,200.77330666717359L585.8013477198388,200.92206315257715L585.7153392592593,201.07080799579234L585.7583434895489,201.31869021142L585.8443519501284,201.46740403603275L585.8443519501284,201.61610623887572L585.8443519501284,201.8143577739749L585.6723350289697,201.8143577739749L585.5003181078109,201.8639174325703L585.4143096472314,201.8143577739749L585.3283011866522,201.76479682551263L585.2852969563626,201.61610623887572L585.3283011866522,201.5169727280129L585.3713054169418,201.31869021142L585.4143096472314,201.26911635297188L585.4143096472314,201.16996475947184L585.4143096472314,200.97164606028326L585.3713054169418,200.87247895129383L585.1992884957831,200.82289345622831L584.9842673443345,200.82289345622831L584.8552546534654,200.87247895129383L584.8122504231758,200.87247895129383L584.6832377323067,200.92206315257715L584.640233502017,200.97164606028326L584.5542250414376,201.07080799579234L584.5542250414376,201.16996475947184L584.5972292717274,201.31869021142L584.5972292717274,201.46740403603275L584.511220811148,201.56654012889203L584.4252123505685,201.71523458697976L584.3822081202788,201.71523458697976L584.339203889989,201.8143577739749L584.2531954294097,201.91347580150693L584.1671869688303,201.96303288098989L584.0381742779614,202.0125886712246L583.9951700476715,202.0621431724183L583.9091615870923,202.1116963847757L583.8661573568022,202.26034829088957L584.0381742779614,202.35944312122461L584.1671869688303,202.45853280115432L584.2101911991199,202.55761733232384L584.1671869688303,202.60715766763758L584.081178508251,202.7557709549618L584.081178508251,202.85484004971846L584.1671869688303,202.9539040022936L584.2961996596994,202.9539040022936L584.339203889989,202.9539040022936L584.4682165808583,203.00343405077615L584.5542250414376,203.10249029315816L584.5542250414376,203.2015413974666L584.5542250414376,203.35010842363272L584.511220811148,203.49866389836956L584.3822081202788,203.64720782721776L584.2961996596994,203.795740215715L584.1671869688303,203.99376545829205L584.081178508251,204.0927703938043L583.9951700476715,204.19177020765153L583.7801488962232,204.34026032888568L583.6941404356437,204.48873893559102L583.6511362053541,204.58771827916388L583.6941404356437,204.73617770727168L583.8231531265128,204.88462563558664L583.8231531265128,205.0330620696327L583.8231531265128,205.18148701493072L583.7801488962232,205.2804305985506L583.6511362053541,205.32990047700002L583.4361150539055,205.37936908014848L583.3071023630364,205.32990047700002L583.1350854418774,205.08253832765337L583.1350854418774,204.98358453508433L583.0920812115878,204.88462563558664L582.9200642904291,204.78566162752463L582.7050431389807,204.83514427022845L582.6620389086911,204.83514427022845L582.4470177572425,204.93410572380344L582.2319966057939,204.88462563558664L582.1459881452145,204.83514427022845L582.0599796846352,204.78566162752463L581.9309669937661,204.6372060332954L581.8879627634765,204.53822924666434L581.8449585331869,204.48873893559102L581.7159458423175,204.38975447690655L581.5439289211588,204.38975447690655L581.3719120000001,204.43924734573977L581.2859035394208,204.58771827916388L581.1568908485517,204.6372060332954L580.9848739273928,204.78566162752463L580.8988654668133,204.78566162752463L580.7698527759444,204.78566162752463L580.6408400850753,204.73617770727168L580.511827394206,204.6866925092628L580.4258189336269,204.58771827916388L580.1677935518885,204.38975447690655L579.9097681701505,204.19177020765153L579.7807554792812,204.0927703938043L579.6517427884121,203.89475539947546L579.5657343278328,203.74623070146885L579.5227300975432,203.59769446680298L579.3937174066741,203.49866389836956L579.3077089460946,203.35010842363272L579.1356920249359,203.2015413974666L578.8776666431979,203.10249029315816L578.705649722039,203.00343405077615L578.4046201100111,202.7062344787508L578.2326031888522,202.55761733232384L578.0605862676935,202.45853280115432L577.8025608859555,202.26034829088957L577.6305439647965,202.0621431724183L577.544535504217,201.8143577739749L577.4585270436378,201.61610623887572L577.4155228133482,201.31869021142L577.2435058921892,201.1203870240077L577.2005016618996,200.77330666717359L577.1144932013203,200.52535330483488L576.9854805104512,200.07895563589278L576.8994720498717,199.97974189124142L576.7704593590026,199.8805229565835L576.8134635892923,199.73168481971305L576.8564678195821,199.58283499601805L576.9854805104512,199.53321579008087L577.0284847407409,199.43397347990862L576.9854805104512,199.3347259706233L576.8994720498717,199.23547326056905L576.7704593590026,199.23547326056905L576.6414466681335,199.13621534808755L576.5554382075541,198.987318721189L576.5984424378439,198.83841037950526L576.5984424378439,198.68949031743824L576.5984424378439,198.6398476912513L576.5554382075541,198.49091199329519L576.4694297469748,198.3419645618871L576.3404170561055,198.2923128096819L576.2974128258161,198.24265975292906L576.168400134947,198.24265975292906L576.0393874440779,198.19300539142233L576.0393874440779,198.0936927533125L575.996383213788,197.9943748936915L575.8673705229191,197.94471400529466L575.6093451411807,197.94471400529466L575.5233366806017,197.8453883102905L575.3943239897324,197.7957235032664L575.179302838284,197.69638996913835L575.0502901474149,197.69638996913835L574.9212774565456,197.69638996913835L574.7492605353868,197.69638996913835L574.6202478445177,197.74605738961844L574.4912351536489,197.8453883102905L574.3622224627798,197.94471400529466L574.2762140022003,198.0936927533125L574.2332097719107,198.19300539142233L574.1902055416208,198.3419645618871L574.1902055416208,198.49091199329519L574.2762140022003,198.68949031743824L574.4052266930694,198.83841037950526L574.4912351536489,198.93768390921377L574.7062563050974,198.987318721189L575.0502901474149,198.987318721189L575.179302838284,199.0369522315217L575.2653112988633,199.08658444041822L575.2653112988633,199.23547326056905L575.2653112988633,199.3843503752587L575.2653112988633,199.53321579008087L575.4373282200222,199.63245290279713L575.5663409108913,199.78129883026332L575.8243662926295,199.93013307276692L575.9533789834984,200.07895563589278L576.0393874440779,200.17816419219088L576.0823916743675,200.37656574634553L576.1253959046571,200.57494656693257L576.168400134947,200.67412920626992L576.1253959046571,200.77330666717359L576.0393874440779,200.82289345622831L575.9103747532088,200.82289345622831L575.73835783205,200.87247895129383L575.6093451411807,200.82289345622831L575.4803324503118,200.77330666717359L575.3513197594427,200.77330666717359L575.007285917125,200.72371858392296L574.9642816868354,200.67412920626992L574.7922647656769,200.62453853400876L574.4912351536489,200.52535330483488L574.3192182324901,200.47575874750845L573.9751843901724,200.42616289474773L573.8461716993033,200.32696730209534L573.7601632387241,200.2277665252248L573.6741547781446,200.2277665252248L573.5881463175651,200.2277665252248L573.459133626696,200.37656574634553L573.3731251661166,200.42616289474773L573.3731251661166,200.57494656693257L573.3301209358269,200.72371858392296L573.201108244958,200.77330666717359L573.0290913237991,200.82289345622831L572.8570744026406,200.77330666717359L572.6420532511918,200.82289345622831L572.3840278694538,200.77330666717359L572.2550151785845,200.72371858392296L572.1690067180054,200.62453853400876L572.1260024877156,200.57494656693257L572.0399940271361,200.42616289474773L571.8679771059774,200.32696730209534L571.7819686453979,200.32696730209534L571.6099517242392,200.42616289474773L571.4809390333703,200.47575874750845L571.3519263425012,200.52535330483488L571.2659178819217,200.67412920626992L571.1799094213422,200.82289345622831L571.2229136516319,200.97164606028326L571.3519263425012,201.07080799579234L571.3519263425012,201.16996475947184L571.3089221122111,201.31869021142L571.3519263425012,201.41783405274475L571.3519263425012,201.56654012889203L571.3519263425012,201.71523458697976L571.3519263425012,201.8143577739749L571.3089221122111,201.91347580150693L571.2229136516319,201.96303288098989L571.0939009607628,201.96303288098989L571.0078925001835,201.96303288098989L570.921884039604,201.96303288098989L570.7928713487349,201.91347580150693L570.7068628881555,201.8639174325703L570.6208544275764,201.8143577739749L570.5778501972866,201.76479682551263L570.5348459669967,201.71523458697976L570.4918417367071,201.61610623887572L570.4488375064175,201.56654012889203L570.4058332761276,201.46740403603275L570.362829045838,201.3682627779425L570.362829045838,201.21954120239099L570.4488375064175,201.07080799579234L570.4918417367071,200.97164606028326L570.5778501972866,200.87247895129383L570.6638586578658,200.82289345622831L570.6638586578658,200.67412920626992L570.6638586578658,200.57494656693257L570.6208544275764,200.52535330483488L570.5348459669967,200.37656574634553L570.5348459669967,200.17816419219088L570.5778501972866,200.0293494122148L570.6638586578658,199.93013307276692L570.7928713487349,199.8805229565835L570.9648882698937,199.97974189124142L571.0939009607628,199.97974189124142L571.2229136516319,199.93013307276692L571.3089221122111,199.83091154248467L571.3089221122111,199.73168481971305L571.3089221122111,199.58283499601805L571.2659178819217,199.48359528478045L571.2229136516319,199.43397347990862L571.0939009607628,199.43397347990862L570.9648882698937,199.48359528478045L570.7928713487349,199.3347259706233L570.7498671184451,199.1858449547351L570.7498671184451,198.987318721189L570.7068628881555,198.83841037950526L570.5778501972866,198.7391316407373L570.4918417367071,198.49091199329519L570.362829045838,198.39161500975234L570.0187952035203,197.7957235032664L569.803774052072,197.59705120684765L569.6317571309132,197.39835799112933L569.4167359794646,197.29900353437296L569.373731749175,197.39835799112933L569.3307275188852,197.49770721473323L569.2447190583059,197.59705120684765L569.2017148280163,197.64672124161723L569.0727021371472,197.7957235032664L569.0727021371472,197.89505181089697L568.9006852159885,197.89505181089697L568.8146767554088,197.8453883102905L568.6426598342503,197.69638996913835L568.5136471433811,197.64672124161723L568.384634452512,197.49770721473323L568.2556217616429,197.29900353437296L568.1266090707736,197.19964384279865L567.9545921496151,197.05059448651264L567.825579458746,196.80215269502372L567.7825752284562,196.60337566892468L567.6965667678769,196.45427912806912L567.6105583072977,196.30517077700495L567.4815456164283,196.15605061010103L567.3955371558488,196.1063412610847L567.3095286952698,196.15605061010103L567.3095286952698,196.30517077700495L567.2235202346901,196.35487487328584L567.0515033135314,196.30517077700495L566.9654948529521,196.20575864562073L566.9224906226625,196.15605061010103L566.9224906226625,196.0069186217258L566.9654948529521,195.90749072587562L567.0084990832418,195.80805757186386L566.9224906226625,195.65889797814003L566.8794863923727,195.50972654415528L566.8794863923727,195.4102723407915L566.6644652409241,195.21134813284004L566.578456780345,195.21134813284004L566.4924483197653,195.26108116050347L566.3634356288962,195.4600001006836L566.3634356288962,195.55945167141613L566.3204313986066,195.7086191580206L566.3204313986066,195.85777480624478L566.3204313986066,196.0069186217258L566.277427168317,196.05663059836235L566.2344229380274,196.20575864562073L566.1484144774479,196.40457765690434L566.1054102471583,196.50397928698823L566.0624060168684,196.60337566892468L566.0194017865788,196.80215269502372L565.9333933259993,196.95122170061057L565.8903890957097,197.05059448651264L565.7613764048406,197.19964384279865L565.7613764048406,197.24932434304202L565.6753679442611,197.39835799112933L565.6323637139715,197.54737986462226L565.7183721745507,197.64672124161723L565.7613764048406,197.69638996913835L565.8473848654198,197.69638996913835L565.9333933259993,197.64672124161723L566.0194017865788,197.59705120684765L566.0624060168684,197.49770721473323L566.0624060168684,197.39835799112933L566.2344229380274,197.29900353437296L566.3634356288962,197.44803325697137L566.535452550055,197.44803325697137L566.6214610106344,197.44803325697137L566.7934779317934,197.39835799112933L566.9654948529521,197.49770721473323L567.0515033135314,197.54737986462226L567.2235202346901,197.69638996913835L567.3525329255592,197.69638996913835L567.4815456164283,197.8453883102905L567.6105583072977,197.9943748936915L567.7395709981665,198.1433497249526L567.7825752284562,198.24265975292906L567.825579458746,198.3419645618871L568.083604840484,198.49091199329519L568.1696133010637,198.59020376197032L568.2556217616429,198.68949031743824L568.3416302222222,198.88804779538827L568.3416302222222,198.93768390921377L568.3416302222222,199.13621534808755L568.2986259919326,199.23547326056905L568.2556217616429,199.3347259706233L568.1696133010637,199.3843503752587L567.997596379905,199.43397347990862L567.7825752284562,199.43397347990862L567.7395709981665,199.43397347990862L567.6965667678769,199.3843503752587L567.5675540770078,199.2851002657958L567.5675540770078,199.23547326056905L567.4815456164283,199.13621534808755L567.3955371558488,199.13621534808755L567.3095286952698,199.13621534808755L567.2235202346901,199.1858449547351L567.094507543821,199.3347259706233L566.9224906226625,199.53321579008087L566.836482162083,199.68206951062677L566.7934779317934,199.73168481971305L566.7074694712139,199.8805229565835L566.6214610106344,199.97974189124142L566.578456780345,200.07895563589278L566.4494440894757,200.12856056248233L566.3634356288962,200.17816419219088L566.1484144774479,200.2277665252248L566.0194017865788,200.27736756179132L565.9333933259993,200.37656574634553L565.8043806351302,200.57494656693257L565.7613764048406,200.62453853400876L565.7613764048406,200.72371858392296L565.7183721745507,200.87247895129383L565.7183721745507,201.07080799579234L565.7183721745507,201.1203870240077L565.6323637139715,201.5169727280129L565.5463552533922,201.61610623887572L565.4173425625231,201.71523458697976L565.288329871654,201.76479682551263L565.2023214110745,201.76479682551263L565.1163129504951,201.8143577739749L565.0303044899158,201.8143577739749L564.6862706475983,201.96303288098989L564.5572579567292,202.0621431724183L564.4282452658599,202.16124830850288L564.3422368052807,202.2107989438053L564.1272156538321,202.30989634996104L564.0412071932526,202.40898860488755L563.8691902720941,202.50807571023182L563.7831818115144,202.60715766763758L563.4821521994868,202.7062344787508L563.3531395086177,202.85484004971846L563.2671310480382,202.9539040022936L563.1381183571693,203.05296281432902L563.0951141268793,203.2015413974666L563.0091056663,203.35010842363272L562.9661014360104,203.3996281984302L562.8800929754309,203.54817982392177L562.8800929754309,203.795740215715L562.8800929754309,203.94426106939915L562.8800929754309,204.0927703938043L562.8800929754309,204.24126819446258L562.9230972057208,204.34026032888568L562.9661014360104,204.43924734573977L563.0091056663,204.6372060332954L563.0091056663,204.78566162752463L563.0091056663,204.88462563558664L562.9661014360104,204.98358453508433L562.9230972057208,205.08253832765337L562.8370887451413,205.13201330935118L562.7510802845618,205.18148701493072L562.6650718239825,205.23095944459567L562.5360591331132,205.2804305985506L562.450050672534,205.2804305985506L562.2780337513752,205.52776723982794L562.1490210605061,205.87398501499473L562.1490210605061,206.12124523008794L562.1490210605061,206.36847364429946L562.1490210605061,206.51679543900622L562.1490210605061,206.71454004723734L562.2780337513752,206.86283517200752L562.3640422119547,207.15939116462152L562.450050672534,207.25823301792934L562.4930549028236,207.35706980183522L562.4930549028236,207.50531547612388L562.4930549028236,207.70295864745236L562.5360591331132,207.8511777372704L562.5360591331132,208.04878548255283L562.4070464422443,208.24637300225567L562.2780337513752,208.34515918157445L562.2780337513752,208.49332897945493L562.2350295210856,208.59210253300944L562.3640422119547,208.69087103909834L562.450050672534,208.74025339985008L562.6220675936929,208.78963449934366L562.7510802845618,208.74025339985008L562.8370887451413,208.64148741688558L563.0091056663,208.59210253300944L563.0951141268793,208.59210253300944L563.2671310480382,208.59210253300944L563.3531395086177,208.54271638726675L563.4391479691969,208.44394030937093L563.5251564297764,208.34515918157445L563.6541691206455,208.1969780177668L563.7831818115144,208.09818425811886L563.9982029629632,208.1969780177668L564.2132241144116,208.29576672345695L564.299232574991,208.49332897945493L564.4282452658599,208.59210253300944L564.5142537264394,208.78963449934366L564.6862706475983,208.93777023230274L564.9012917990467,209.28337616967048L564.9873002596262,209.43147411047983L565.1163129504951,209.48083757363554L565.2023214110745,209.57956072549098L565.288329871654,209.67827884608698L565.4173425625231,209.727636020168L565.5463552533922,209.727636020168L565.6753679442611,209.727636020168L565.8043806351302,209.77699193704206L565.9333933259993,209.92505214643876L566.0194017865788,210.07310104824523L566.0624060168684,210.22113864792078L566.1484144774479,210.3691649509205L566.1914187077375,210.41850454249095L566.3204313986066,210.56651579174263L566.4924483197653,210.61585036701302L566.6644652409241,210.7145157570448L566.7504737015036,210.76384657220956L566.8794863923727,210.96115730523985L566.9654948529521,211.15844800374748L566.9654948529521,211.3557186806401L567.0515033135314,211.5036585568854L567.1805160044007,211.65158718367138L567.4385413861387,212.04600856576474L567.4815456164283,212.1938959910505L567.6105583072977,212.3417721922437L567.7395709981665,212.4896371747742L567.8685836890356,212.63749094407103L567.997596379905,212.78533350556165L568.0406006101946,212.83461186970635L568.3416302222222,213.0809850268236L568.4706429130913,213.13025592693197L568.6426598342503,213.13025592693197L568.8576809856988,213.1795255837369L569.0727021371472,213.1795255837369L569.1587105977264,213.0809850268236L569.3307275188852,213.0809850268236L569.5027444400441,213.1795255837369L569.6317571309132,213.27806116824075L570.0617994338102,213.4751174264395L570.1908121246793,213.67215381426178L570.2768205852587,213.72140980797553L570.4488375064175,213.7706645607936L570.5778501972866,213.72140980797553L570.7068628881555,213.67215381426178L570.7928713487349,213.52437838574173L570.8358755790246,213.37659178193962L571.0078925001835,213.32732709634047L571.0939009607628,213.32732709634047L571.2229136516319,213.27806116824075L571.3519263425012,213.32732709634047L571.4379348030802,213.37659178193962L571.5239432636597,213.42585522523945L571.6529559545288,213.27806116824075L571.6529559545288,213.1795255837369L571.7819686453979,212.9824394958942L571.8679771059774,212.933164864672L571.9969897968465,213.03171288321113L572.082998257426,213.0809850268236L572.2550151785845,212.9824394958942L572.4270320997434,212.9824394958942L572.5560447906125,213.13025592693197L572.5560447906125,213.37659178193962L572.6420532511918,213.52437838574173L572.7710659420609,213.72140980797553L572.8140701723507,213.96767116711425L572.8140701723507,214.26314388379126L572.7710659420609,214.41086351708555L572.8570744026406,214.853955581653L573.0290913237991,215.14929464928537L573.1581040146682,215.2969475066729L573.5021378569859,215.44458925363477L574.1041970810415,215.54301091514748L574.3622224627798,215.64142764268786L574.6202478445177,215.78904348629436L574.8782732262559,215.93664823744547L575.179302838284,215.93664823744547L575.3943239897324,215.93664823744547L575.5233366806017,215.98584735710375L575.6093451411807,216.13343732669392L575.5233366806017,216.28101621639667L575.3943239897324,216.47777084325617L575.2223070685736,216.57614077766857L575.007285917125,216.57614077766857L574.7922647656769,216.57614077766857L574.7062563050974,216.67450579486194L574.6632520748076,216.87122108396306L574.7492605353868,217.11708756435627L574.7492605353868,217.3629233668762L574.7062563050974,217.55956993753176L574.5772436142281,217.65788587011423L574.5342393839385,217.80535058252792L574.4912351536489,218.1002469557676L574.3622224627798,218.29682007248255L574.2332097719107,218.34596029530024L574.0611928507517,218.34596029530024L573.8461716993033,218.24767862731898L573.5881463175651,218.1493920691605L573.2871167055373,218.0511006192363L573.1150997843786,218.0511006192363L572.9430828632198,218.1002469557676L572.6850574814814,218.1493920691605L572.4270320997434,218.34596029530024L572.1260024877156,218.5425089670805L571.9969897968465,218.5425089670805L571.8679771059774,218.49337363166217L571.6959601848187,218.39509929597102L571.3519263425012,218.1493920691605L571.2229136516319,218.1493920691605L571.0508967304731,218.1002469557676L570.6208544275764,218.1002469557676L570.2338163549691,218.19853595961132L569.5887529006236,218.24767862731898L569.0296979068573,218.24767862731898L568.6426598342503,218.24767862731898L568.3416302222222,218.1493920691605L568.0406006101946,218.0511006192363L567.7395709981665,218.0019530593658L567.4815456164283,217.95280427595816L567.3525329255592,217.90365426881493L567.1805160044007,217.90365426881493L567.094507543821,217.95280427595816L567.0084990832418,218.19853595961132L567.1375117741109,218.68990764600449L567.2235202346901,218.8372953380976L567.1805160044007,219.03379517951282L567.094507543821,219.18115725647823L567.0515033135314,219.52495945476443L567.0084990832418,219.86870200086383L566.6644652409241,220.85049547058122L566.4924483197653,221.48840114104786L566.277427168317,221.7827501755179L566.0194017865788,221.97895869632907L565.8473848654198,222.0770557108102L565.6753679442611,222.0770557108102L565.5463552533922,222.0770557108102L565.4173425625231,222.1751478967738L565.3743383322335,222.32227712569352L565.4173425625231,222.51843254579808L565.4603467928127,222.66553645391963L565.5033510231024,222.81262951911793L565.4603467928127,222.9106855413565L565.4173425625231,222.95971174669768L565.288329871654,223.00873674844775L565.0733087202054,222.95971174669768L564.9012917990467,222.9106855413565L564.7722791081774,222.9106855413565L564.6432664173087,222.9106855413565L564.5142537264394,222.95971174669768L564.4282452658599,223.00873674844775L564.299232574991,223.10678314196315L564.1702198841219,223.10678314196315L564.0412071932526,222.95971174669768L563.9982029629632,222.76359970182665L563.9982029629632,222.4693954993026L563.9982029629632,222.1751478967738L563.9121945023835,221.97895869632907L563.8261860418045,221.88085685175645L563.740177581225,221.7827501755179L563.5251564297764,221.63558109833832L563.3961437389073,221.68463866603702L563.1381183571693,221.7827501755179L562.9230972057208,221.92990837790302L562.7940845148516,222.02800780723243L562.7080760542722,222.1261024072585L562.6220675936929,222.22419217955365L562.6220675936929,222.42035724725048L562.6220675936929,222.61650302291082L562.8800929754309,222.8616581322284L562.9230972057208,223.00873674844775L563.0521098965896,223.15580453412053L563.0521098965896,223.30286149454884L563.0091056663,223.40089345675972L562.8800929754309,223.54793238689035L562.7080760542722,223.64595233380868L562.5790633634031,223.6949605059056L562.4930549028236,223.79297324835602L562.3640422119547,223.93998336061247L562.3640422119547,224.03798410345797L562.2780337513752,224.2829649766968L562.1920252907958,224.5279158925586L562.0200083696373,224.77283687551812L561.8479914484783,225.01772795003433L561.7619829878988,225.2625891405546L561.6329702970297,225.4094915207137L561.5469618364505,225.50742047151368L561.460953375871,225.65430494765906L561.3749449152917,225.80117868842655L561.3319406850021,225.94804169908747L561.2889364547123,226.29068035869926L561.2889364547123,226.48644768795617L561.3319406850021,226.73113008716012L561.5469618364505,226.9757827731314L561.7189787576092,227.2204057702133L561.9770041393474,227.5628281351144L562.1060168302165,227.90519242419288L562.1490210605061,228.14970282526906L562.2780337513752,228.44307627335735L562.3210379816649,228.68752164756694L562.450050672534,228.83417470149095L562.5360591331132,228.93193750292176L562.7080760542722,229.17632386365898L563.0091056663,229.3718117324056L563.4391479691969,229.66500819817475L563.740177581225,229.76273093633398L564.1272156538321,229.90930622036632L564.4712494961498,230.0558709211944L564.8582875687571,230.25127406856194L565.1163129504951,230.39781409555206L565.5033510231024,230.49550157666647L565.8043806351302,230.5931843634139L566.0624060168684,230.73969974497777L566.3634356288962,230.9838685976393L566.6644652409241,231.0815279357277L566.8794863923727,231.22800815878225L567.2235202346901,231.2768325581511L567.4815456164283,231.4232987340106L567.7825752284562,231.5209370013061L568.0406006101946,231.6185705904457L568.3416302222222,231.716199502971L568.6426598342503,231.716199502971L569.0296979068573,231.76501220598493L569.3307275188852,231.81382374042386L569.5887529006236,231.81382374042386L569.8897825126514,231.91144330434594L570.1908121246793,232.0090581962782L570.4058332761276,232.05786389072944L570.7498671184451,232.15547177756548L570.921884039604,232.35067354836087L571.1799094213422,232.59464952233827L571.3519263425012,232.8385963637411L571.4379348030802,233.1800730447365L571.4379348030802,233.4727219833673L571.4809390333703,233.91161697976463L571.4379348030802,234.44791659868798L571.3949305727906,234.74038458879045L571.1799094213422,235.03281093191816L571.0939009607628,235.2277387105429L571.0508967304731,235.4226480100154L571.0939009607628,235.71497733757758L571.1799094213422,235.95855340031272L571.3519263425012,236.78649671725242L571.4379348030802,237.07863268752948L571.5239432636597,237.41940576896724L571.5239432636597,237.7114522710416L571.5239432636597,237.95479286080462L571.4379348030802,238.1981048438343L571.2659178819217,238.34407831230374L571.0939009607628,238.44138824388847L570.8788798093144,238.4900414960316L570.6638586578658,238.63599440014696L570.4058332761276,238.7819370297753L570.1908121246793,238.83058229065153L569.8467782823616,238.9278693900419L569.545748670334,238.9278693900419L569.2447190583059,238.9278693900419L569.1587105977264,238.9278693900419L569.0727021371472,238.97651122893598L568.9436894462781,239.07379148606975L568.9436894462781,239.90048973064012L568.9436894462781,240.43523701702395L568.9436894462781,240.58105334886352L568.9436894462781,240.72685947441755L568.8576809856988,240.921251774197L568.9436894462781,241.21280624637564L568.9436894462781,241.60148218141222L568.9436894462781,241.94151429279702L568.9006852159885,242.3300546990967L568.8576809856988,242.62141265452328L568.9006852159885,242.91273007002906L569.1157063674368,243.10691917826108L569.4167359794646,243.349630269842L569.803774052072,243.6408465133161L569.9757909732307,243.73790961518915L570.1478078943896,243.83496822992288L570.2768205852587,243.93202235902083L570.2768205852587,244.07759514538452L570.2768205852587,244.22315784751322L570.2768205852587,244.41722577251886L570.362829045838,244.7082940890523L570.5348459669967,244.85381315134714L570.6638586578658,245.09632257492427L570.8358755790246,245.2418148291634L571.0508967304731,245.3388040851483L571.3949305727906,245.4357888787411L571.6099517242392,245.53276921143845L571.910981336267,245.72671650013393L571.9969897968465,245.82368345912465L572.082998257426,245.92064596320614L572.082998257426,246.06608136964218L572.0399940271361,246.2115067609418L571.910981336267,246.40539171229267L571.6959601848187,246.69618579849185L571.5669474939493,247.03539504693077L571.5239432636597,247.27765409172991L571.5239432636597,247.66521095048063L571.6529559545288,247.81052650788325L571.8249728756878,248.00426510019588L571.8249728756878,248.24641347197672L571.6099517242392,248.44011228902718L571.2229136516319,248.73062740854016L570.8788798093144,249.02110283646476L570.8358755790246,249.21473109068154L570.8788798093144,249.31153861292677L571.0508967304731,249.4567416443914L571.3519263425012,249.5535381662645L571.5669474939493,249.60193477802676L571.910981336267,249.6503302905865L572.2980194088743,249.6503302905865L572.4270320997434,249.6503302905865L572.6420532511918,249.5535381662645L572.8140701723507,249.50514045511437L572.9430828632198,249.4567416443914L573.2441124752477,249.50514045511437L573.8031674690137,249.74711801884047L574.0181886204621,249.84390135251118L574.1902055416208,249.89229137184117L574.4482309233592,249.94068029308124L574.6632520748076,250.03745484203347L574.7922647656769,250.18260843442226L574.7492605353868,250.42450915131576L574.6202478445177,250.52126176441402L574.4912351536489,250.61800999478612L574.4052266930694,250.8114933132755L574.3622224627798,251.0049591186264L574.3192182324901,251.29512501541495L574.1902055416208,251.48854708970435L573.9321801598826,251.68195169226965L573.8031674690137,251.92368289387383L573.6741547781446,252.16538683745927L573.5451420872755,252.35873038205636L573.6741547781446,252.7936896887535L573.459133626696,253.0836136365371L573.3731251661166,253.13193049279062L573.2871167055373,253.2768745480169L573.2871167055373,253.37349849206288L573.4161293964064,253.51842627265546L573.5021378569859,254.0014484269612L573.7601632387241,254.14633395807545L574.4052266930694,255.11198891282555L574.5342393839385,255.25679992301815L574.7492605353868,255.30506810424816L574.9212774565456,255.54639285238693L574.9642816868354,255.78769068730514L574.8352689959663,256.12546248556964L574.7062563050974,256.31845130239714L574.5342393839385,256.5596631688045L574.4052266930694,256.7526133524931L574.3622224627798,257.0420064730463L574.3192182324901,257.2831379565627L574.4052266930694,257.52424269144535L574.4912351536489,257.76532070050695L574.6202478445177,258.05457906539937L574.7062563050974,258.4883946007203L574.6632520748076,259.11486472493186L574.7062563050974,259.5484695477601L574.8782732262559,260.0301518583455L575.0932943777045,260.7524767116163L575.2653112988633,261.0894802285534L575.3083155291529,261.3782992159346L575.3513197594427,261.57082411522794L575.3943239897324,261.8595798546842L575.3943239897324,262.1482976974898L575.3943239897324,262.4369776826946L575.3943239897324,262.8218255074853L575.4373282200222,263.39897138495945L575.5233366806017,263.73557017418955L575.6953536017602,264.1682647682314L575.996383213788,264.7450593691649L576.3404170561055,265.4658416788053L576.4264255166852,265.70605046018824L576.4694297469748,265.9462332847222L576.4694297469748,266.1863901748317L576.4264255166852,266.4265211529282L576.2974128258161,266.85869168673054L576.1253959046571,267.29077846874725L576.0393874440779,267.57878985907684L576.0393874440779,267.91475622684123L576.1253959046571,268.20268722538725L576.3834212863956,268.4905811811228L576.6844508984232,268.87438223324784L576.727455128713,268.97032222802085L576.7704593590026,269.1142245247812L576.7704593590026,269.3060798965346L576.3834212863956,269.92949666615044L576.3404170561055,269.88154767031523L576.2114043652366,269.88154767031523L576.168400134947,269.88154767031523L576.0823916743675,269.92949666615044L575.996383213788,270.02539159034615L575.9533789834984,270.1212824257607L575.9103747532088,270.16922631062016L575.7813620623397,270.40893041354786L575.6953536017602,270.4568681711043L575.6523493714706,270.4568681711043L575.6093451411807,270.5048049080662L575.4803324503118,270.5048049080662L575.3943239897324,270.5048049080662L575.3083155291529,270.4568681711043L575.179302838284,270.4568681711043L575.0932943777045,270.40893041354786L575.007285917125,270.40893041354786L574.9212774565456,270.3609916352188L574.7492605353868,270.2651110155314L574.5342393839385,270.1212824257607L574.1041970810415,270.1212824257607L573.9321801598826,270.1212824257607L573.5881463175651,270.21716917381787L573.4161293964064,270.21716917381787L573.1581040146682,270.16922631062016L572.9000786329302,270.16922631062016L572.6850574814814,270.0733375190622L572.5130405603229,270.02539159034615L572.341023639164,269.88154767031523L572.2550151785845,269.83359765175084L572.1260024877156,269.68974145790526L571.910981336267,269.5458760530928L571.7389644151083,269.40200143250706L571.6099517242392,269.2581175913395L571.6099517242392,269.0182906861493L571.6529559545288,268.8264106962473L571.6959601848187,268.6345142799849L571.6959601848187,268.4905811811228L571.6529559545288,268.44260142594794L571.5669474939493,268.3466388311969L571.5239432636597,268.3946206426988L571.4379348030802,268.4905811811228L571.3949305727906,268.5865376079628L571.3519263425012,268.730464542124L571.2229136516319,268.8264106962473L571.0939009607628,268.87438223324784L570.9648882698937,268.7784381325986L570.8358755790246,268.7784381325986L570.6638586578658,268.87438223324784L570.5348459669967,268.87438223324784L570.4058332761276,268.7784381325986L570.2768205852587,268.730464542124L570.0617994338102,268.6345142799849L569.8897825126514,268.6345142799849L569.803774052072,268.6824899246452L569.7177655914925,268.730464542124L569.6747613612029,268.92235274378027L569.545748670334,269.06625811834346L569.5027444400441,269.2581175913395L569.4597402097545,269.4979188704433L569.4597402097545,269.68974145790526L569.4597402097545,269.88154767031523L569.545748670334,270.3130518359396L569.5027444400441,270.5048049080662L569.4167359794646,270.6486089971574L569.2017148280163,270.6486089971574L568.9436894462781,270.6486089971574L568.7716725251194,270.6486089971574L568.6426598342503,270.6965416535158L568.5136471433811,270.74447329016783L568.384634452512,270.8403335050622L568.2986259919326,270.984116184045L568.2556217616429,271.07996620986563L568.1696133010637,271.2237336118947L567.997596379905,271.3674918541418L567.8685836890356,271.4633255959045L567.6965667678769,271.5591552702005L567.5245498467182,271.6549808784498L567.3955371558488,271.75080242206946L567.2235202346901,271.8466199024788L567.0515033135314,271.9424333210956L566.836482162083,272.0861458362609L566.6214610106344,272.0861458362609L566.4064398591859,272.134047978622L566.2344229380274,272.1819491065981L566.0624060168684,272.22984922036613L565.9333933259993,272.3256464059868L565.8043806351302,272.4214395369008L565.6753679442611,272.4214395369008L565.5893594836818,272.46933458228506L565.4603467928127,272.4214395369008L565.3313341019436,272.37354347819354L565.1593171807847,272.3256464059868L565.0733087202054,272.27774832010317L564.9012917990467,272.1819491065981L564.6862706475983,272.134047978622L564.5572579567292,272.134047978622L564.4712494961498,272.1819491065981L564.3852410355703,272.22984922036613L564.2132241144116,272.27774832010317L564.1272156538321,272.37354347819354L564.1272156538321,272.5172286145237L564.0842114235425,272.61301364027287L563.9551987326736,272.7087946155632L563.8261860418045,272.7087946155632L563.7831818115144,272.7087946155632L563.6971733509351,272.6609046341373L563.6541691206455,272.5172286145237L563.6541691206455,272.4214395369008L563.6541691206455,272.27774832010317L563.6541691206455,272.1819491065981L563.6541691206455,272.0861458362609L563.6111648903559,271.9424333210956L563.5251564297764,271.8466199024788L563.4391479691969,271.79871167008724L563.3961437389073,271.6549808784498L563.3101352783278,271.4633255959045L563.2671310480382,271.3195734575177L563.2671310480382,271.1758121625418L563.2241268177484,271.07996620986563L563.0091056663,270.6486089971574L563.0091056663,270.55274062460984L563.0091056663,270.40893041354786L562.9661014360104,270.3130518359396L563.0521098965896,270.0733375190622L563.1381183571693,269.83359765175084L563.2241268177484,269.6417873466462L563.3531395086177,269.4979188704433L563.4391479691969,269.3060798965346L563.4821521994868,269.16218990564107L563.568160660066,268.97032222802085L563.740177581225,268.8264106962473L563.8261860418045,268.6824899246452L563.9982029629632,268.20268722538725L564.0412071932526,268.05872635887613L564.0842114235425,267.86676412299084L564.0842114235425,267.67478540363214L564.0412071932526,267.4827901893644L563.9982029629632,267.29077846874725L563.9982029629632,267.1947664149812L563.9121945023835,266.9067054626808L563.8261860418045,266.7146441543286L563.740177581225,266.5225662938213L563.6971733509351,266.4265211529282L563.568160660066,266.28244567425673L563.4391479691969,266.1863901748317L563.3101352783278,266.090330529484L563.1381183571693,265.9942667367809L563.0091056663,265.8981987952872L562.8370887451413,265.8021267035678L562.6650718239825,265.6580107811772L562.3640422119547,265.5138855127064L562.1490210605061,265.4658416788053L562.0200083696373,265.3697508933096L561.9339999090578,265.3697508933096L561.8479914484783,265.3217039413562L561.7619829878988,265.27365594969234L561.7189787576092,265.27365594969234L561.6329702970297,265.27365594969234L561.5469618364505,265.22560691813925L561.3319406850021,265.12950573464633L561.202927994133,265.081453582347L560.901898382105,264.793118809494L560.8158899215255,264.64893736272893L560.7298814609462,264.55281118739015L560.5578645397875,264.26440763357033L560.4718560792078,264.02404263958783L560.4288518489184,263.87981110986107L560.3428433883389,263.78365153148513L560.2568349277594,263.3508816574552L560.2138306974698,263.1585122747645L560.1708264671802,262.91802696935844L560.1708264671802,262.773723203032L560.0848180066007,262.4850873357031L560.0418137763111,262.38886697917064L559.9558053157316,262.1482976974898L559.912801085442,262.0520626248826L559.7407841642832,261.8114565308752L559.6547757037038,261.66708024153036L559.6117714734141,261.522694471512L559.482758782545,261.3301653553289L559.3967503219658,261.2338944699112L559.1817291705172,260.99319879004787L559.1387249402273,260.8969131277715L558.8806995584891,260.7043291261083L558.9667080190686,260.84876871226663L558.923703788779,261.0894802285534L558.923703788779,261.2338944699112L558.923703788779,261.4264320220465L558.9667080190686,261.6189527051738L558.9667080190686,261.76333215419993L559.0527164796483,261.8595798546842L559.1387249402273,262.0039435107271L559.2247334008068,262.1482976974898L559.3107418613863,262.29264241985265L559.3967503219658,262.38886697917064L559.482758782545,262.5331959383758L559.5687672431243,262.72561984932656L559.6547757037038,262.8699267628673L559.6977799339936,263.0142242363896L559.7837883945731,263.1104173100218L559.8697968551521,263.59131982770964L559.8697968551521,263.73557017418955L559.8697968551521,263.9278893313015L559.8697968551521,264.02404263958783L559.912801085442,264.1682647682314L560.0418137763111,264.64893736272893L560.0848180066007,264.8411772081367L560.1708264671802,264.9853461557449L560.2568349277594,265.081453582347L560.3858476186288,265.22560691813925L560.4718560792078,265.3217039413562L560.5578645397875,265.4658416788053L560.6008687700769,265.5138855127064L561.0739153032637,265.70605046018824L561.3749449152917,265.8021267035678L561.7619829878988,265.8981987952872L562.0200083696373,265.9942667367809L562.2780337513752,266.04229915164143L562.450050672534,266.090330529484L562.6650718239825,266.13836087048753L562.8800929754309,266.23441844269456L563.0091056663,266.28244567425673L563.1811225874587,266.4265211529282L563.3101352783278,266.5225662938213L563.3961437389073,266.61860729381056L563.4391479691969,266.7146441543286L563.5251564297764,266.8106768768077L563.568160660066,266.95471820483726L563.568160660066,267.09875023033567L563.6111648903559,267.2427729581346L563.6111648903559,267.3867863930646L563.6111648903559,267.5307905399545L563.6111648903559,267.62678814690975L563.568160660066,267.67478540363214L563.4391479691969,267.91475622684123L563.2671310480382,268.01073734460516L563.0951141268793,268.1067143436442L562.9661014360104,268.2506721227193L562.8370887451413,268.2986559912627L562.7080760542722,268.3466388311969L562.5360591331132,268.44260142594794L562.450050672534,268.5385599084016L562.3640422119547,268.6345142799849L562.1920252907958,268.8264106962473L562.1490210605061,268.92235274378027L562.1060168302165,268.97032222802085L562.0630125999269,269.06625811834346L561.9339999090578,269.210154261101L561.8909956787679,269.2581175913395L561.8049872181884,269.3060798965346L561.6759745273196,269.5458760530928L561.5039576061606,269.73769454572397L561.3319406850021,269.92949666615044L561.2459322244226,270.0733375190622L560.9449026123946,270.6486089971574L560.8158899215255,270.984116184045L560.643873000367,271.1758121625418L560.4718560792078,271.3674918541418L560.3428433883389,271.6549808784498L560.2568349277594,271.8466199024788L560.0418137763111,271.99033850767506L559.8267926248625,272.134047978622L559.6117714734141,272.3256464059868L559.3107418613863,272.9482293423222L559.2677376310967,273.0918780404464L559.1817291705172,273.2355176409578L558.9667080190686,273.2355176409578L558.7946910979099,273.2355176409578L558.6656784070408,273.2355176409578L558.5366657161717,273.3312723227592L558.4076530253026,273.42702296471225L558.2786403344335,273.6185121347266L558.192631873854,273.7621184181459L558.1066234132747,273.85785089826874L558.0206149526955,273.90571562621335L557.8485980315365,273.90571562621335L557.633576880088,273.90571562621335L557.5045641892189,274.00144205874915L557.3325472680604,274.0971644613256L557.1605303469016,274.14502415182045L556.9885134257427,274.24074051210397L556.8595007348736,274.336452845957L556.3434499713974,274.62356570303797L556.0854245896592,274.8149541681307L555.8704034382106,274.9106423730184L555.7413907473417,275.0063265613462L555.4833653656033,275.1020067345233L555.3543526747342,275.1498453158706L555.096327292996,275.1498453158706L554.8813061415474,275.1976828939582L554.7092892203889,275.2455194689627L554.3652553780712,275.2455194689627L554.2362426872021,275.2455194689627L554.107229996333,275.2933550410601L553.9352130751743,275.2933550410601L553.7631961540155,275.34118961042594L553.7201919237259,275.38902317723665Z"></path>
<circle class="distCircs" cx="546.9268096478868" cy="250.66887017938768" r="3.066514371940659" stroke="#000" stroke-width="0.25" fill="#d9eead" data-q="WEST BENGAL" data-r="BANKURA"><title>WEST BENGAL - BANKURA: Census 2011 Total Rural Households = 691,417. Census 2011 Households with toilets = 114,190. Census 2001 Total Rural Households = 557,646. Census 2001 Households with toilets = 45,723. Difference between Census 2011 Households with toilets and Census 2001 Households with toilets = 8.3%</title></circle><circle class="distCircs" cx="558.4642267509091" cy="245.97880490744834" r="3.1787240083399455" stroke="#000" stroke-width="0.25" fill="#a7d895" data-q="WEST BENGAL" data-r="BARDHAMAN"><title>WEST BENGAL - BARDHAMAN: Census 2011 Total Rural Households = 1,064,226. Census 2011 Households with toilets = 490,739. Census 2001 Total Rural Households = 862,458. Census 2001 Households with toilets = 232,640. Difference between Census 2011 Households with toilets and Census 2001 Households with toilets = 19.1%</title></circle><circle class="distCircs" cx="555.2705696286007" cy="237.63847216605205" r="3.0737448273939165" stroke="#000" stroke-width="0.25" fill="#dff0af" data-q="WEST BENGAL" data-r="BIRBHUM"><title>WEST BENGAL - BIRBHUM: Census 2011 Total Rural Households = 711,236. Census 2011 Households with toilets = 133,155. Census 2001 Total Rural Households = 540,822. Census 2001 Households with toilets = 62,961. Difference between Census 2011 Households with toilets and Census 2001 Households with toilets = 7.1%</title></circle><circle class="distCircs" cx="581.3986254237988" cy="200.04562464206361" r="3.03241845900632" stroke="#000" stroke-width="0.25" fill="#6bbc77" data-q="WEST BENGAL" data-r="COOCH BEHAR"><title>WEST BENGAL - COOCH BEHAR: Census 2011 Total Rural Households = 604,602. Census 2011 Households with toilets = 336,643. Census 2001 Total Rural Households = 475,138. Census 2001 Households with toilets = 111,026. Difference between Census 2011 Households with toilets and Census 2001 Households with toilets = 32.3%</title></circle><circle class="distCircs" cx="570.704660988868" cy="216.743591152585" r="2.889454073315083" stroke="#000" stroke-width="0.25" fill="#c6e5a3" data-q="WEST BENGAL" data-r="DAKSHIN DINAJPUR"><title>WEST BENGAL - DAKSHIN DINAJPUR: Census 2011 Total Rural Households = 338,680. Census 2011 Households with toilets = 93,272. Census 2001 Total Rural Households = 278,991. Census 2001 Households with toilets = 42,121. Difference between Census 2011 Households with toilets and Census 2001 Households with toilets = 12.4%</title></circle><circle class="distCircs" cx="564.2284482602763" cy="188.73901544776896" r="2.802193785766816" stroke="#000" stroke-width="0.25" fill="#e6f4b3" data-q="WEST BENGAL" data-r="DARJEELING"><title>WEST BENGAL - DARJEELING: Census 2011 Total Rural Households = 234,411. Census 2011 Households with toilets = 122,530. Census 2001 Total Rural Households = 212,082. Census 2001 Households with toilets = 99,375. Difference between Census 2011 Households with toilets and Census 2001 Households with toilets = 5.4%</title></circle><circle class="distCircs" cx="560.4692576678556" cy="252.9174827836649" r="3.0966091514171277" stroke="#000" stroke-width="0.25" fill="#9ad28e" data-q="WEST BENGAL" data-r="HOOGHLY"><title>WEST BENGAL - HOOGHLY: Census 2011 Total Rural Households = 777,386. Census 2011 Households with toilets = 467,152. Census 2001 Total Rural Households = 665,263. Census 2001 Households with toilets = 253,793. Difference between Census 2011 Households with toilets and Census 2001 Households with toilets = 21.9%</title></circle><circle class="distCircs" cx="557.0180337789438" cy="259.26846419014646" r="2.9226631620661876" stroke="#000" stroke-width="0.25" fill="#90cd89" data-q="WEST BENGAL" data-r="HOWRAH"><title>WEST BENGAL - HOWRAH: Census 2011 Total Rural Households = 388,459. Census 2011 Households with toilets = 233,665. Census 2001 Total Rural Households = 399,845. Census 2001 Households with toilets = 143,324. Difference between Census 2011 Households with toilets and Census 2001 Households with toilets = 24.3%</title></circle><circle class="distCircs" cx="575.1342204456469" cy="195.31484508966656" r="3.038956725293677" stroke="#000" stroke-width="0.25" fill="#d3ebaa" data-q="WEST BENGAL" data-r="JALPAIGURI"><title>WEST BENGAL - JALPAIGURI: Census 2011 Total Rural Households = 620,432. Census 2011 Households with toilets = 230,195. Census 2001 Total Rural Households = 554,114. Census 2001 Households with toilets = 152,385. Difference between Census 2011 Households with toilets and Census 2001 Households with toilets = 9.6%</title></circle><circle class="distCircs" cx="562.4717990747026" cy="217.73024214210568" r="3.08034126523612" stroke="#000" stroke-width="0.25" fill="#d4ecaa" data-q="WEST BENGAL" data-r="MALDA"><title>WEST BENGAL - MALDA: Census 2011 Total Rural Households = 729,770. Census 2011 Households with toilets = 185,109. Census 2001 Total Rural Households = 580,336. Census 2001 Households with toilets = 93,040. Difference between Census 2011 Households with toilets and Census 2001 Households with toilets = 9.3%</title></circle><circle class="distCircs" cx="557.2014440647904" cy="269.72788214818274" r="3.1566477635998265" stroke="#000" stroke-width="0.25" fill="#eee" data-q="WEST BENGAL" data-r="MIDNAPUR EAST"><title>WEST BENGAL - MIDNAPUR EAST: Census 2011 Total Rural Households = 978,844. Census 2011 Households with toilets = 837,779. Census 2001 Total Rural Households = NaN. Census 2001 Households with toilets = 0. Difference between Census 2011 Households with toilets and Census 2001 Households with toilets = NaN%</title></circle><circle class="distCircs" cx="548.6007053793484" cy="262.2504183095599" r="3.1897956360159707" stroke="#000" stroke-width="0.25" fill="#eee" data-q="WEST BENGAL" data-r="MIDNAPUR WEST"><title>WEST BENGAL - MIDNAPUR WEST: Census 2011 Total Rural Households = 1,109,569. Census 2011 Households with toilets = 464,610. Census 2001 Total Rural Households = NaN. Census 2001 Households with toilets = 0. Difference between Census 2011 Households with toilets and Census 2001 Households with toilets = NaN%</title></circle><circle class="distCircs" cx="564.3461169851682" cy="237.47879346475807" r="3.2285699395947742" stroke="#000" stroke-width="0.25" fill="#b2dd9a" data-q="WEST BENGAL" data-r="MURSHIDABAD"><title>WEST BENGAL - MURSHIDABAD: Census 2011 Total Rural Households = 1,282,692. Census 2011 Households with toilets = 444,813. Census 2001 Total Rural Households = 991,967. Census 2001 Households with toilets = 178,289. Difference between Census 2011 Households with toilets and Census 2001 Households with toilets = 16.7%</title></circle><circle class="distCircs" cx="567.2105100279572" cy="246.6479362917629" r="3.1287498483796274" stroke="#000" stroke-width="0.25" fill="#81c682" data-q="WEST BENGAL" data-r="NADIA"><title>WEST BENGAL - NADIA: Census 2011 Total Rural Households = 879,934. Census 2011 Households with toilets = 627,523. Census 2001 Total Rural Households = 736,063. Census 2001 Households with toilets = 322,744. Difference between Census 2011 Households with toilets and Census 2001 Households with toilets = 27.5%</title></circle><circle class="distCircs" cx="570.704660988868" cy="257.4532524963387" r="3.1591562033142213" stroke="#000" stroke-width="0.25" fill="#8aca86" data-q="WEST BENGAL" data-r="NORTH 24 PARAGANAS"><title>WEST BENGAL - NORTH 24 PARAGANAS: Census 2011 Total Rural Households = 988,219. Census 2011 Households with toilets = 780,037. Census 2001 Total Rural Households = 802,407. Census 2001 Households with toilets = 428,817. Difference between Census 2011 Households with toilets and Census 2001 Households with toilets = 25.5%</title></circle><circle class="distCircs" cx="535.3676559285351" cy="250.74964590130224" r="2.9829973425002483" stroke="#000" stroke-width="0.25" fill="#f7fbbb" data-q="WEST BENGAL" data-r="PURULIA"><title>WEST BENGAL - PURULIA: Census 2011 Total Rural Households = 496,403. Census 2011 Households with toilets = 30,378. Census 2001 Total Rural Households = 406,674. Census 2001 Households with toilets = 17,785. Difference between Census 2011 Households with toilets and Census 2001 Households with toilets = 1.7%</title></circle><circle class="distCircs" cx="569.4906484268912" cy="190.76622826789708" r="2.9895800851818" stroke="#000" stroke-width="0.25" fill="#eee" data-q="WEST BENGAL" data-r="SILIGURI"><title>WEST BENGAL - SILIGURI: Census 2011 Total Rural Households = 509,709. Census 2011 Households with toilets = 0. Census 2001 Total Rural Households = NaN. Census 2001 Households with toilets = 0. Difference between Census 2011 Households with toilets and Census 2001 Households with toilets = NaN%</title></circle><circle class="distCircs" cx="565.8044020697406" cy="267.8193287730073" r="3.230409563515435" stroke="#000" stroke-width="0.25" fill="#97d08d" data-q="WEST BENGAL" data-r="SOUTH 24 PARAGANAS"><title>WEST BENGAL - SOUTH 24 PARAGANAS: Census 2011 Total Rural Households = 1,291,490. Census 2011 Households with toilets = 710,150. Census 2001 Total Rural Households = 1,080,318. Census 2001 Households with toilets = 349,271. Difference between Census 2011 Households with toilets and Census 2001 Households with toilets = 22.7%</title></circle><circle class="distCircs" cx="562.2663790921963" cy="208.1491086647083" r="2.9990457336016587" stroke="#000" stroke-width="0.25" fill="#daeead" data-q="WEST BENGAL" data-r="UTTAR DINAJPUR"><title>WEST BENGAL - UTTAR DINAJPUR: Census 2011 Total Rural Households = 529,416. Census 2011 Households with toilets = 109,212. Census 2001 Total Rural Households = 411,308. Census 2001 Households with toilets = 51,883. Difference between Census 2011 Households with toilets and Census 2001 Households with toilets = 8.0%</title></circle></g></g></svg>